<svg width="982" height="501" viewBox="0 0 982 501" fill="none" xmlns="http://www.w3.org/2000/svg">
<g clip-path="url(#clip0_294_7964)">
<rect x="24.52" y="-36.6895" width="932.67" height="493.625" fill="#0F2F7E"/>
<rect x="24.52" y="132.269" width="932.67" height="493.625" fill="#0F2F7E"/>
<rect x="0.14209" y="-3.97827" width="986.49" height="15.7527" fill="#0C276A"/>
<rect x="0.14209" y="98.9067" width="47.8926" height="16.0559" fill="#162B6E" stroke="#162B6E" stroke-width="1.60559"/>
<rect x="15.004" y="66.7944" width="9.19576" height="40.1396" stroke="#162B6E" stroke-width="1.60559"/>
<rect x="6.0463" y="66.7944" width="9.19576" height="40.1396" stroke="#162B6E" stroke-width="1.60559"/>
<rect x="24.2049" y="66.7944" width="9.19576" height="40.1396" stroke="#162B6E" stroke-width="1.60559"/>
<rect x="33.3978" y="66.7944" width="9.19576" height="40.1396" stroke="#162B6E" stroke-width="1.60559"/>
<rect x="0.14209" y="202.095" width="47.8926" height="16.0559" fill="#162B6E" stroke="#162B6E" stroke-width="1.60559"/>
<rect x="15.004" y="169.983" width="9.19576" height="40.1396" stroke="#162B6E" stroke-width="1.60559"/>
<rect x="6.0463" y="169.983" width="9.19576" height="40.1396" stroke="#162B6E" stroke-width="1.60559"/>
<rect x="24.2049" y="169.983" width="9.19576" height="40.1396" stroke="#162B6E" stroke-width="1.60559"/>
<rect x="33.3978" y="169.983" width="9.19576" height="40.1396" stroke="#162B6E" stroke-width="1.60559"/>
<rect x="0.14209" y="307.063" width="47.8926" height="16.0559" fill="#162B6E" stroke="#162B6E" stroke-width="1.60559"/>
<rect x="15.004" y="274.951" width="9.19576" height="40.1396" stroke="#162B6E" stroke-width="1.60559"/>
<rect x="6.0463" y="274.951" width="9.19576" height="40.1396" stroke="#162B6E" stroke-width="1.60559"/>
<rect x="24.2049" y="274.951" width="9.19576" height="40.1396" stroke="#162B6E" stroke-width="1.60559"/>
<rect x="33.3978" y="274.951" width="9.19576" height="40.1396" stroke="#162B6E" stroke-width="1.60559"/>
<rect x="0.14209" y="440.88" width="47.8926" height="16.0559" fill="#162B6E" stroke="#162B6E" stroke-width="1.60559"/>
<rect x="15.004" y="408.768" width="9.19576" height="40.1396" stroke="#162B6E" stroke-width="1.60559"/>
<rect x="6.0463" y="408.768" width="9.19576" height="40.1396" stroke="#162B6E" stroke-width="1.60559"/>
<rect x="24.2049" y="408.768" width="9.19576" height="40.1396" stroke="#162B6E" stroke-width="1.60559"/>
<rect x="33.3978" y="408.768" width="9.19576" height="40.1396" stroke="#162B6E" stroke-width="1.60559"/>
<rect x="114.548" y="27.7688" width="26.6051" height="78.0507" fill="#2D61DA" stroke="#162B6E" stroke-width="2.78702"/>
<rect x="141.224" y="27.7688" width="26.6753" height="78.0507" fill="#2D61DA" stroke="#162B6E" stroke-width="2.78702"/>
<rect x="167.757" y="27.7688" width="26.6753" height="78.0507" fill="#2D61DA" stroke="#162B6E" stroke-width="2.78702"/>
<rect x="108.906" y="98.9067" width="91.3125" height="16.0559" fill="#162B6E" stroke="#162B6E" stroke-width="1.60559"/>
<rect x="123.289" y="66.7944" width="8.89931" height="40.1396" stroke="#162B6E" stroke-width="1.60559"/>
<rect x="114.62" y="66.7944" width="8.89931" height="40.1396" stroke="#162B6E" stroke-width="1.60559"/>
<rect x="132.193" y="66.7944" width="8.89931" height="40.1396" stroke="#162B6E" stroke-width="1.60559"/>
<rect x="141.089" y="66.7944" width="8.89931" height="40.1396" stroke="#162B6E" stroke-width="1.60559"/>
<rect x="149.989" y="66.7942" width="8.89931" height="40.1396" stroke="#162B6E" stroke-width="1.60559"/>
<rect x="158.893" y="66.7942" width="8.89931" height="40.1396" stroke="#162B6E" stroke-width="1.60559"/>
<rect x="167.797" y="66.7942" width="8.89931" height="40.1396" stroke="#162B6E" stroke-width="1.60559"/>
<rect x="176.702" y="66.7942" width="8.89931" height="40.1396" stroke="#162B6E" stroke-width="1.60559"/>
<rect x="185.605" y="66.7942" width="8.89931" height="40.1396" stroke="#162B6E" stroke-width="1.60559"/>
<rect x="114.548" y="130.185" width="26.6051" height="78.0507" fill="#2D61DA" stroke="#162B6E" stroke-width="2.78702"/>
<rect x="141.224" y="130.185" width="26.6753" height="78.0507" fill="#2D61DA" stroke="#162B6E" stroke-width="2.78702"/>
<rect x="167.757" y="130.185" width="26.6753" height="78.0507" fill="#2D61DA" stroke="#162B6E" stroke-width="2.78702"/>
<rect x="108.906" y="201.323" width="91.3125" height="16.0559" fill="#162B6E" stroke="#162B6E" stroke-width="1.60559"/>
<rect x="123.289" y="169.211" width="8.89931" height="40.1396" stroke="#162B6E" stroke-width="1.60559"/>
<rect x="114.62" y="169.211" width="8.89931" height="40.1396" stroke="#162B6E" stroke-width="1.60559"/>
<rect x="132.193" y="169.211" width="8.89931" height="40.1396" stroke="#162B6E" stroke-width="1.60559"/>
<rect x="141.089" y="169.211" width="8.89931" height="40.1396" stroke="#162B6E" stroke-width="1.60559"/>
<rect x="149.989" y="169.211" width="8.89931" height="40.1396" stroke="#162B6E" stroke-width="1.60559"/>
<rect x="158.893" y="169.211" width="8.89931" height="40.1396" stroke="#162B6E" stroke-width="1.60559"/>
<rect x="167.797" y="169.211" width="8.89931" height="40.1396" stroke="#162B6E" stroke-width="1.60559"/>
<rect x="176.702" y="169.211" width="8.89931" height="40.1396" stroke="#162B6E" stroke-width="1.60559"/>
<rect x="185.605" y="169.211" width="8.89931" height="40.1396" stroke="#162B6E" stroke-width="1.60559"/>
<rect x="114.548" y="239.94" width="26.6051" height="78.0507" fill="#2D61DA" stroke="#162B6E" stroke-width="2.78702"/>
<rect x="141.224" y="239.94" width="26.6753" height="78.0507" fill="#2D61DA" stroke="#162B6E" stroke-width="2.78702"/>
<rect x="167.757" y="239.94" width="26.6753" height="78.0507" fill="#2D61DA" stroke="#162B6E" stroke-width="2.78702"/>
<rect x="108.906" y="311.078" width="91.3125" height="16.0559" fill="#162B6E" stroke="#162B6E" stroke-width="1.60559"/>
<rect x="123.289" y="278.965" width="8.89931" height="40.1396" stroke="#162B6E" stroke-width="1.60559"/>
<rect x="114.62" y="278.965" width="8.89931" height="40.1396" stroke="#162B6E" stroke-width="1.60559"/>
<rect x="132.193" y="278.965" width="8.89931" height="40.1396" stroke="#162B6E" stroke-width="1.60559"/>
<rect x="141.089" y="278.965" width="8.89931" height="40.1396" stroke="#162B6E" stroke-width="1.60559"/>
<rect x="149.989" y="278.965" width="8.89931" height="40.1396" stroke="#162B6E" stroke-width="1.60559"/>
<rect x="158.893" y="278.965" width="8.89931" height="40.1396" stroke="#162B6E" stroke-width="1.60559"/>
<rect x="167.797" y="278.965" width="8.89931" height="40.1396" stroke="#162B6E" stroke-width="1.60559"/>
<rect x="176.702" y="278.965" width="8.89931" height="40.1396" stroke="#162B6E" stroke-width="1.60559"/>
<rect x="185.605" y="278.965" width="8.89931" height="40.1396" stroke="#162B6E" stroke-width="1.60559"/>
<rect x="114.548" y="369.742" width="26.6051" height="78.0507" fill="#2D61DA" stroke="#162B6E" stroke-width="2.78702"/>
<rect x="141.224" y="369.742" width="26.6753" height="78.0507" fill="#2D61DA" stroke="#162B6E" stroke-width="2.78702"/>
<rect x="167.757" y="369.742" width="26.6753" height="78.0507" fill="#2D61DA" stroke="#162B6E" stroke-width="2.78702"/>
<rect x="108.906" y="440.88" width="91.3125" height="16.0559" fill="#162B6E" stroke="#162B6E" stroke-width="1.60559"/>
<rect x="123.289" y="408.767" width="8.89931" height="40.1396" stroke="#162B6E" stroke-width="1.60559"/>
<rect x="114.62" y="408.767" width="8.89931" height="40.1396" stroke="#162B6E" stroke-width="1.60559"/>
<rect x="132.193" y="408.767" width="8.89931" height="40.1396" stroke="#162B6E" stroke-width="1.60559"/>
<rect x="141.089" y="408.767" width="8.89931" height="40.1396" stroke="#162B6E" stroke-width="1.60559"/>
<rect x="149.989" y="408.767" width="8.89931" height="40.1396" stroke="#162B6E" stroke-width="1.60559"/>
<rect x="158.893" y="408.767" width="8.89931" height="40.1396" stroke="#162B6E" stroke-width="1.60559"/>
<rect x="167.797" y="408.767" width="8.89931" height="40.1396" stroke="#162B6E" stroke-width="1.60559"/>
<rect x="176.702" y="408.767" width="8.89931" height="40.1396" stroke="#162B6E" stroke-width="1.60559"/>
<rect x="185.605" y="408.767" width="8.89931" height="40.1396" stroke="#162B6E" stroke-width="1.60559"/>
<rect x="253.838" y="27.7686" width="79.9559" height="78.0507" fill="#2D61DA" stroke="#162B6E" stroke-width="2.78702"/>
<g clip-path="url(#clip1_294_7964)">
<rect x="254.882" y="29.0063" width="78.1207" height="76.4149" fill="#FFDC00"/>
<path d="M346.919 86.9353H339.118L335.002 84.9912H341.227V54.1772H290.845V84.9912H295.984L291.869 86.9353H285.749V89.3308L294.62 89.7619L294.829 87.1061H295.213L295.301 85.9653H294.268C294.523 85.3349 294.767 84.5764 294.968 83.7447C295.394 81.9694 295.498 80.3853 295.281 79.6654C294.95 80.0091 294.578 80.7229 294.24 81.6522C294.18 80.9608 294.059 80.4077 293.89 80.0782C293.747 80.2735 293.609 80.5663 293.482 80.9344C293.369 80.0315 293.176 79.3136 292.939 78.9334C292.734 79.2628 292.563 79.8423 292.448 80.5744C292.362 80.3731 292.272 80.2043 292.179 80.0782C292.002 80.4239 291.877 81.0157 291.821 81.7579C291.487 80.7757 291.099 80.0193 290.752 79.6695C290.518 80.3507 290.589 81.8454 290.973 83.519C291.19 84.4646 291.473 85.3146 291.769 85.9653H290.579L290.667 87.1061H291.047L291.256 89.7619H288.403L290.261 88.6841L290.012 88.3649C290.012 88.3649 289.405 87.6613 288.832 87.891C288.259 88.1208 287.131 88.9119 286.334 88.1025C286.334 88.1025 286.135 88.1737 285.92 88.2733L285.291 87.3827L286.097 86.736L285.263 85.8189L284.935 86.0893C282.529 83.1387 275.234 74.3417 273.751 74.3417C272.967 74.3417 271.762 74.486 270.369 74.7097C270.449 74.6711 270.532 74.6345 270.618 74.604C270.665 74.5877 270.693 74.5613 270.709 74.5267C273.115 73.4367 278.445 69.4429 279.444 68.6885C279.515 68.8186 279.591 68.9284 279.635 68.961C279.754 69.0464 279.857 68.8125 279.857 68.8125C279.857 68.8125 280.216 69.0484 280.355 69.0342C280.494 69.0179 280.564 68.8267 280.564 68.8267C280.564 68.8267 280.94 68.906 281.061 68.8796C281.182 68.8532 281.18 68.5929 281.18 68.5929C281.18 68.5929 281.475 68.5847 281.678 68.5359C281.879 68.4871 281.863 68.1577 281.863 68.1577L281.433 68.235L283.833 67.7998V67.0616L281.996 67.4155C281.821 67.2162 281.535 67.0128 281.383 66.9518C281.194 66.8786 280.444 66.5675 280.225 66.5899C279.834 66.6285 278.823 67.2955 278.823 67.2955L271.38 70.968L271.37 69.9106H271.205C271.169 68.7332 271.028 64.7516 270.739 64.3693C270.28 63.7694 268.787 62.657 268.411 62.3825C267.84 61.9514 266.867 61.4694 266.141 61.1359H266.139C265.867 61.0099 265.63 60.9062 265.463 60.835C266.33 60.351 266.623 59.2427 266.637 58.9031C266.641 58.7771 266.664 58.5168 266.686 58.1853C267.128 58.0552 267.327 57.6647 267.239 57.2763C267.216 57.1767 267.162 57.1116 267.09 57.0669C267.602 56.1619 268.566 54.3867 268.324 54.1772C268.001 53.8946 267.245 53.8925 267.245 53.8925C267.245 53.8925 267.984 52.5829 267.502 52.3532C267.021 52.1234 265.031 52.6928 265.031 52.6928C265.031 52.6928 265.19 51.8204 264.729 51.7451C263.992 51.6251 262.218 53.3841 262.218 53.3841C262.218 53.3841 261.372 53.3231 261.191 53.555C260.743 54.1264 261.251 58.8787 261.949 59.4441C262.1 59.5681 262.275 59.6576 262.462 59.7247L262.508 60.7943C262.508 60.7943 262.484 60.8024 262.441 60.8187L261.659 61.0363C261.659 61.0363 261.669 61.0627 261.686 61.1014C260.988 61.3718 260.061 61.7623 259.814 62.0124C259.414 61.2437 257.64 64.1029 257.64 64.1029L256.545 69.6381L256.319 69.6015L256.157 70.7362L258.718 71.1612L256.798 70.8623C256.798 70.8623 255.861 74.4515 257.457 74.7321C257.745 74.7829 258.28 74.8256 258.965 74.8602C258.949 75.2486 258.935 75.6004 258.925 75.9034V75.9115C258.897 76.6558 258.881 77.1073 258.881 77.1073C258.881 77.1073 258.209 79.3299 258.658 80.7615H256.724C254.882 80.7615 253.388 82.2724 253.388 84.1351V94.9311C253.388 96.7938 254.882 98.3047 256.724 98.3047H268.773C270.614 98.3047 272.108 96.7938 272.108 94.9311V87.5779L278.122 93.1091L275.9 98.3068H276.967L277.977 95.9479H280.464L280.546 96.2163C280.536 96.1838 280.53 96.1655 280.53 96.1655C280.53 96.1655 280.074 96.2956 280.17 96.8772C280.208 97.1009 280.323 97.9062 280.323 97.9062L280.383 98.3088H285.886L285.826 97.9062C285.826 97.9062 285.645 96.989 285.036 96.8996C284.802 96.865 284.461 96.8609 284.109 96.8081L284.477 95.9479L286.199 95.5168L285.785 97.0195C285.666 97.4506 285.986 97.8757 286.428 97.8757C286.694 97.8757 286.935 97.715 287.041 97.4689L287.878 95.5168H295.731L296.74 97.8757H297.808L297.758 97.7597C297.86 97.6886 297.945 97.5889 297.997 97.4689L298.833 95.5168H302.233L303.242 97.8757H304.31L302.669 94.0404H333.834L335.302 97.4669C335.409 97.713 335.648 97.8736 335.915 97.8736C336.357 97.8736 336.677 97.4466 336.559 97.0175L335.736 94.0404H344.19L345.658 97.4669C345.765 97.713 346.004 97.8736 346.271 97.8736C346.714 97.8736 347.033 97.4466 346.915 97.0175L346.092 94.0404H346.939V86.9373L346.919 86.9353ZM304.483 86.9353L300.367 84.9912H330.617L326.502 86.9353H304.483ZM296.151 94.0384H297.546L297.279 95.0043H296.563L296.149 94.0384H296.151ZM297.995 84.9933H298.357L302.177 86.9373H294.177L297.997 84.9933H297.995ZM282.289 95.4375L281.958 94.5813L282.313 94.4309L282.557 94.3271L282.183 93.4202L281.883 93.5544C281.6 92.981 281.194 92.1553 280.707 91.1793H285.269L285.377 91.3175L283.614 95.4395H282.289V95.4375ZM268.958 71.0819L270.439 71.0677L268.958 71.0982C268.958 71.0982 268.958 71.088 268.958 71.084V71.0819ZM284.537 89.4345C284.537 89.4345 284.443 89.5667 284.42 89.7639H280.001C279.28 88.3222 278.455 86.6913 277.629 85.0929L281.783 87.1L283.478 88.8387L283.831 88.556L284.539 89.4365L284.537 89.4345ZM278.875 93.8147L279.376 94.6688L279.824 95.4334H278.184L278.877 93.8147H278.875ZM279.931 95.4334L280.251 95.2971L280.293 95.4334H279.931ZM283.176 96.4603C283.013 96.3363 282.88 96.1675 282.796 95.9418H283.397L283.176 96.4603ZM285.587 95.4334H284.684L286.505 91.1731L285.749 90.742V94.0364H286.595L286.328 95.0023L285.587 95.4334ZM288.081 95.0023L288.495 94.0364H295.086L295.5 95.0023H288.083H288.081ZM297 96.019L296.782 95.5127H297.14L297 96.019ZM301.998 95.0023H299.034L299.448 94.0364H301.586L302 95.0023H301.998ZM333.153 86.9333H328.81L332.63 84.9892H332.992L336.812 86.9333H333.155H333.153Z" fill="#0F2F7E"/>
</g>
<rect x="248.196" y="98.9065" width="91.3125" height="16.0559" fill="#162B6E" stroke="#162B6E" stroke-width="1.60559"/>
<rect x="262.579" y="66.7942" width="8.89931" height="40.1396" stroke="#162B6E" stroke-width="1.60559"/>
<rect x="253.91" y="66.7942" width="8.89931" height="40.1396" stroke="#162B6E" stroke-width="1.60559"/>
<rect x="271.483" y="66.7942" width="8.89931" height="40.1396" stroke="#162B6E" stroke-width="1.60559"/>
<rect x="280.379" y="66.7942" width="8.89931" height="40.1396" stroke="#162B6E" stroke-width="1.60559"/>
<rect x="289.279" y="66.7939" width="8.89931" height="40.1396" stroke="#162B6E" stroke-width="1.60559"/>
<rect x="298.183" y="66.7939" width="8.89931" height="40.1396" stroke="#162B6E" stroke-width="1.60559"/>
<rect x="307.087" y="66.7939" width="8.89931" height="40.1396" stroke="#162B6E" stroke-width="1.60559"/>
<rect x="315.992" y="66.7939" width="8.89931" height="40.1396" stroke="#162B6E" stroke-width="1.60559"/>
<rect x="324.895" y="66.7939" width="8.89931" height="40.1396" stroke="#162B6E" stroke-width="1.60559"/>
<rect x="253.838" y="130.185" width="26.6051" height="78.0507" fill="#2D61DA" stroke="#162B6E" stroke-width="2.78702"/>
<rect x="280.514" y="130.185" width="26.6753" height="78.0507" fill="#2D61DA" stroke="#162B6E" stroke-width="2.78702"/>
<rect x="307.047" y="130.185" width="26.6753" height="78.0507" fill="#2D61DA" stroke="#162B6E" stroke-width="2.78702"/>
<rect x="248.196" y="201.323" width="91.3125" height="16.0559" fill="#162B6E" stroke="#162B6E" stroke-width="1.60559"/>
<rect x="262.579" y="169.211" width="8.89931" height="40.1396" stroke="#162B6E" stroke-width="1.60559"/>
<rect x="253.91" y="169.211" width="8.89931" height="40.1396" stroke="#162B6E" stroke-width="1.60559"/>
<rect x="271.483" y="169.211" width="8.89931" height="40.1396" stroke="#162B6E" stroke-width="1.60559"/>
<rect x="280.379" y="169.211" width="8.89931" height="40.1396" stroke="#162B6E" stroke-width="1.60559"/>
<rect x="289.279" y="169.211" width="8.89931" height="40.1396" stroke="#162B6E" stroke-width="1.60559"/>
<rect x="298.183" y="169.211" width="8.89931" height="40.1396" stroke="#162B6E" stroke-width="1.60559"/>
<rect x="307.087" y="169.211" width="8.89931" height="40.1396" stroke="#162B6E" stroke-width="1.60559"/>
<rect x="315.992" y="169.211" width="8.89931" height="40.1396" stroke="#162B6E" stroke-width="1.60559"/>
<rect x="324.895" y="169.211" width="8.89931" height="40.1396" stroke="#162B6E" stroke-width="1.60559"/>
<rect x="253.838" y="239.94" width="26.6051" height="78.0507" fill="#FFDC00" stroke="#162B6E" stroke-width="2.78702"/>
<rect x="280.514" y="239.94" width="26.6753" height="78.0507" fill="#2D61DA" stroke="#162B6E" stroke-width="2.78702"/>
<rect x="307.047" y="239.94" width="26.6753" height="78.0507" fill="#2D61DA" stroke="#162B6E" stroke-width="2.78702"/>
<rect x="248.196" y="311.078" width="91.3125" height="16.0559" fill="#162B6E" stroke="#162B6E" stroke-width="1.60559"/>
<rect x="262.579" y="278.965" width="8.89931" height="40.1396" stroke="#162B6E" stroke-width="1.60559"/>
<rect x="253.91" y="278.965" width="8.89931" height="40.1396" stroke="#162B6E" stroke-width="1.60559"/>
<rect x="271.483" y="278.965" width="8.89931" height="40.1396" stroke="#162B6E" stroke-width="1.60559"/>
<rect x="280.379" y="278.965" width="8.89931" height="40.1396" stroke="#162B6E" stroke-width="1.60559"/>
<rect x="289.279" y="278.965" width="8.89931" height="40.1396" stroke="#162B6E" stroke-width="1.60559"/>
<rect x="298.183" y="278.965" width="8.89931" height="40.1396" stroke="#162B6E" stroke-width="1.60559"/>
<rect x="307.087" y="278.965" width="8.89931" height="40.1396" stroke="#162B6E" stroke-width="1.60559"/>
<rect x="315.992" y="278.965" width="8.89931" height="40.1396" stroke="#162B6E" stroke-width="1.60559"/>
<rect x="324.895" y="278.965" width="8.89931" height="40.1396" stroke="#162B6E" stroke-width="1.60559"/>
<rect x="253.838" y="369.742" width="26.6051" height="78.0507" fill="#FFDC00" stroke="#162B6E" stroke-width="2.78702"/>
<rect x="280.514" y="369.742" width="26.6753" height="78.0507" fill="#2D61DA" stroke="#162B6E" stroke-width="2.78702"/>
<rect x="307.047" y="369.742" width="26.6753" height="78.0507" fill="#2D61DA" stroke="#162B6E" stroke-width="2.78702"/>
<rect x="248.196" y="440.88" width="91.3125" height="16.0559" fill="#162B6E" stroke="#162B6E" stroke-width="1.60559"/>
<rect x="262.579" y="408.767" width="8.89931" height="40.1396" stroke="#162B6E" stroke-width="1.60559"/>
<rect x="253.91" y="408.767" width="8.89931" height="40.1396" stroke="#162B6E" stroke-width="1.60559"/>
<rect x="271.483" y="408.767" width="8.89931" height="40.1396" stroke="#162B6E" stroke-width="1.60559"/>
<rect x="280.379" y="408.767" width="8.89931" height="40.1396" stroke="#162B6E" stroke-width="1.60559"/>
<rect x="289.279" y="408.767" width="8.89931" height="40.1396" stroke="#162B6E" stroke-width="1.60559"/>
<rect x="298.183" y="408.767" width="8.89931" height="40.1396" stroke="#162B6E" stroke-width="1.60559"/>
<rect x="307.087" y="408.767" width="8.89931" height="40.1396" stroke="#162B6E" stroke-width="1.60559"/>
<rect x="315.992" y="408.767" width="8.89931" height="40.1396" stroke="#162B6E" stroke-width="1.60559"/>
<rect x="324.895" y="408.767" width="8.89931" height="40.1396" stroke="#162B6E" stroke-width="1.60559"/>
<rect x="393.128" y="27.7688" width="26.6051" height="78.0507" fill="#2D61DA" stroke="#162B6E" stroke-width="2.78702"/>
<rect x="419.804" y="27.7688" width="26.6753" height="78.0507" fill="#2D61DA" stroke="#162B6E" stroke-width="2.78702"/>
<rect x="446.337" y="27.7688" width="26.6753" height="78.0507" fill="#FFDC00" stroke="#162B6E" stroke-width="2.78702"/>
<rect x="387.486" y="98.9067" width="91.3125" height="16.0559" fill="#162B6E" stroke="#162B6E" stroke-width="1.60559"/>
<rect x="401.869" y="66.7944" width="8.89931" height="40.1396" stroke="#162B6E" stroke-width="1.60559"/>
<rect x="393.2" y="66.7944" width="8.89931" height="40.1396" stroke="#162B6E" stroke-width="1.60559"/>
<rect x="410.773" y="66.7944" width="8.89931" height="40.1396" stroke="#162B6E" stroke-width="1.60559"/>
<rect x="419.669" y="66.7944" width="8.89931" height="40.1396" stroke="#162B6E" stroke-width="1.60559"/>
<rect x="428.569" y="66.7942" width="8.89931" height="40.1396" stroke="#162B6E" stroke-width="1.60559"/>
<rect x="437.473" y="66.7942" width="8.89931" height="40.1396" stroke="#162B6E" stroke-width="1.60559"/>
<rect x="446.377" y="66.7942" width="8.89931" height="40.1396" stroke="#162B6E" stroke-width="1.60559"/>
<rect x="455.282" y="66.7942" width="8.89931" height="40.1396" stroke="#162B6E" stroke-width="1.60559"/>
<rect x="464.185" y="66.7942" width="8.89931" height="40.1396" stroke="#162B6E" stroke-width="1.60559"/>
<rect x="393.128" y="130.185" width="26.6051" height="78.0507" fill="#2D61DA" stroke="#162B6E" stroke-width="2.78702"/>
<rect x="419.804" y="130.185" width="26.6753" height="78.0507" fill="#2D61DA" stroke="#162B6E" stroke-width="2.78702"/>
<rect x="446.337" y="130.185" width="26.6753" height="78.0507" fill="#2D61DA" stroke="#162B6E" stroke-width="2.78702"/>
<rect x="387.486" y="201.323" width="91.3125" height="16.0559" fill="#162B6E" stroke="#162B6E" stroke-width="1.60559"/>
<rect x="401.869" y="169.211" width="8.89931" height="40.1396" stroke="#162B6E" stroke-width="1.60559"/>
<rect x="393.2" y="169.211" width="8.89931" height="40.1396" stroke="#162B6E" stroke-width="1.60559"/>
<rect x="410.773" y="169.211" width="8.89931" height="40.1396" stroke="#162B6E" stroke-width="1.60559"/>
<rect x="419.669" y="169.211" width="8.89931" height="40.1396" stroke="#162B6E" stroke-width="1.60559"/>
<rect x="428.569" y="169.211" width="8.89931" height="40.1396" stroke="#162B6E" stroke-width="1.60559"/>
<rect x="437.473" y="169.211" width="8.89931" height="40.1396" stroke="#162B6E" stroke-width="1.60559"/>
<rect x="446.377" y="169.211" width="8.89931" height="40.1396" stroke="#162B6E" stroke-width="1.60559"/>
<rect x="455.282" y="169.211" width="8.89931" height="40.1396" stroke="#162B6E" stroke-width="1.60559"/>
<rect x="464.185" y="169.211" width="8.89931" height="40.1396" stroke="#162B6E" stroke-width="1.60559"/>
<rect x="393.128" y="239.94" width="26.6051" height="78.0507" fill="#2D61DA" stroke="#162B6E" stroke-width="2.78702"/>
<rect x="419.804" y="239.94" width="26.6753" height="78.0507" fill="#2D61DA" stroke="#162B6E" stroke-width="2.78702"/>
<rect x="446.337" y="239.94" width="26.6753" height="78.0507" fill="#2D61DA" stroke="#162B6E" stroke-width="2.78702"/>
<rect x="387.486" y="311.078" width="91.3125" height="16.0559" fill="#162B6E" stroke="#162B6E" stroke-width="1.60559"/>
<rect x="401.869" y="278.965" width="8.89931" height="40.1396" stroke="#162B6E" stroke-width="1.60559"/>
<rect x="393.2" y="278.965" width="8.89931" height="40.1396" stroke="#162B6E" stroke-width="1.60559"/>
<rect x="410.773" y="278.965" width="8.89931" height="40.1396" stroke="#162B6E" stroke-width="1.60559"/>
<rect x="419.669" y="278.965" width="8.89931" height="40.1396" stroke="#162B6E" stroke-width="1.60559"/>
<rect x="428.569" y="278.965" width="8.89931" height="40.1396" stroke="#162B6E" stroke-width="1.60559"/>
<rect x="437.473" y="278.965" width="8.89931" height="40.1396" stroke="#162B6E" stroke-width="1.60559"/>
<rect x="446.377" y="278.965" width="8.89931" height="40.1396" stroke="#162B6E" stroke-width="1.60559"/>
<rect x="455.282" y="278.965" width="8.89931" height="40.1396" stroke="#162B6E" stroke-width="1.60559"/>
<rect x="464.185" y="278.965" width="8.89931" height="40.1396" stroke="#162B6E" stroke-width="1.60559"/>
<rect x="393.128" y="369.742" width="26.6051" height="78.0507" fill="#2D61DA" stroke="#162B6E" stroke-width="2.78702"/>
<rect x="419.804" y="369.742" width="26.6753" height="78.0507" fill="#2D61DA" stroke="#162B6E" stroke-width="2.78702"/>
<rect x="446.337" y="369.742" width="26.6753" height="78.0507" fill="#2D61DA" stroke="#162B6E" stroke-width="2.78702"/>
<rect x="387.486" y="440.88" width="91.3125" height="16.0559" fill="#162B6E" stroke="#162B6E" stroke-width="1.60559"/>
<rect x="401.869" y="408.767" width="8.89931" height="40.1396" stroke="#162B6E" stroke-width="1.60559"/>
<rect x="393.2" y="408.767" width="8.89931" height="40.1396" stroke="#162B6E" stroke-width="1.60559"/>
<rect x="410.773" y="408.767" width="8.89931" height="40.1396" stroke="#162B6E" stroke-width="1.60559"/>
<rect x="419.669" y="408.767" width="8.89931" height="40.1396" stroke="#162B6E" stroke-width="1.60559"/>
<rect x="428.569" y="408.767" width="8.89931" height="40.1396" stroke="#162B6E" stroke-width="1.60559"/>
<rect x="437.473" y="408.767" width="8.89931" height="40.1396" stroke="#162B6E" stroke-width="1.60559"/>
<rect x="446.377" y="408.767" width="8.89931" height="40.1396" stroke="#162B6E" stroke-width="1.60559"/>
<rect x="455.282" y="408.767" width="8.89931" height="40.1396" stroke="#162B6E" stroke-width="1.60559"/>
<rect x="464.185" y="408.767" width="8.89931" height="40.1396" stroke="#162B6E" stroke-width="1.60559"/>
<rect x="532.418" y="27.7688" width="26.6051" height="78.0507" fill="#2D61DA" stroke="#162B6E" stroke-width="2.78702"/>
<rect x="559.094" y="27.7688" width="26.6753" height="78.0507" fill="#2D61DA" stroke="#162B6E" stroke-width="2.78702"/>
<rect x="585.627" y="27.7688" width="26.6753" height="78.0507" fill="#2D61DA" stroke="#162B6E" stroke-width="2.78702"/>
<rect x="526.776" y="98.9067" width="91.3125" height="16.0559" fill="#162B6E" stroke="#162B6E" stroke-width="1.60559"/>
<rect x="541.159" y="66.7944" width="8.89931" height="40.1396" stroke="#162B6E" stroke-width="1.60559"/>
<rect x="532.49" y="66.7944" width="8.89931" height="40.1396" stroke="#162B6E" stroke-width="1.60559"/>
<rect x="550.063" y="66.7944" width="8.89931" height="40.1396" stroke="#162B6E" stroke-width="1.60559"/>
<rect x="558.959" y="66.7944" width="8.89931" height="40.1396" stroke="#162B6E" stroke-width="1.60559"/>
<rect x="567.859" y="66.7942" width="8.89931" height="40.1396" stroke="#162B6E" stroke-width="1.60559"/>
<rect x="576.763" y="66.7942" width="8.89931" height="40.1396" stroke="#162B6E" stroke-width="1.60559"/>
<rect x="585.667" y="66.7942" width="8.89931" height="40.1396" stroke="#162B6E" stroke-width="1.60559"/>
<rect x="594.572" y="66.7942" width="8.89931" height="40.1396" stroke="#162B6E" stroke-width="1.60559"/>
<rect x="603.475" y="66.7942" width="8.89931" height="40.1396" stroke="#162B6E" stroke-width="1.60559"/>
<rect x="532.418" y="130.185" width="26.6051" height="78.0507" fill="#2D61DA" stroke="#162B6E" stroke-width="2.78702"/>
<rect x="559.094" y="130.185" width="26.6753" height="78.0507" fill="#2D61DA" stroke="#162B6E" stroke-width="2.78702"/>
<rect x="585.627" y="130.185" width="26.6753" height="78.0507" fill="#2D61DA" stroke="#162B6E" stroke-width="2.78702"/>
<rect x="526.776" y="201.323" width="91.3125" height="16.0559" fill="#162B6E" stroke="#162B6E" stroke-width="1.60559"/>
<rect x="541.159" y="169.211" width="8.89931" height="40.1396" stroke="#162B6E" stroke-width="1.60559"/>
<rect x="532.49" y="169.211" width="8.89931" height="40.1396" stroke="#162B6E" stroke-width="1.60559"/>
<rect x="550.063" y="169.211" width="8.89931" height="40.1396" stroke="#162B6E" stroke-width="1.60559"/>
<rect x="558.959" y="169.211" width="8.89931" height="40.1396" stroke="#162B6E" stroke-width="1.60559"/>
<rect x="567.859" y="169.211" width="8.89931" height="40.1396" stroke="#162B6E" stroke-width="1.60559"/>
<rect x="576.763" y="169.211" width="8.89931" height="40.1396" stroke="#162B6E" stroke-width="1.60559"/>
<rect x="585.667" y="169.211" width="8.89931" height="40.1396" stroke="#162B6E" stroke-width="1.60559"/>
<rect x="594.572" y="169.211" width="8.89931" height="40.1396" stroke="#162B6E" stroke-width="1.60559"/>
<rect x="603.475" y="169.211" width="8.89931" height="40.1396" stroke="#162B6E" stroke-width="1.60559"/>
<rect x="532.418" y="239.94" width="26.6051" height="78.0507" fill="#2D61DA" stroke="#162B6E" stroke-width="2.78702"/>
<rect x="559.094" y="239.94" width="26.6753" height="78.0507" fill="#2D61DA" stroke="#162B6E" stroke-width="2.78702"/>
<rect x="585.627" y="239.94" width="26.6753" height="78.0507" fill="#2D61DA" stroke="#162B6E" stroke-width="2.78702"/>
<rect x="526.776" y="311.078" width="91.3125" height="16.0559" fill="#162B6E" stroke="#162B6E" stroke-width="1.60559"/>
<rect x="541.159" y="278.965" width="8.89931" height="40.1396" stroke="#162B6E" stroke-width="1.60559"/>
<rect x="532.49" y="278.965" width="8.89931" height="40.1396" stroke="#162B6E" stroke-width="1.60559"/>
<rect x="550.063" y="278.965" width="8.89931" height="40.1396" stroke="#162B6E" stroke-width="1.60559"/>
<rect x="558.959" y="278.965" width="8.89931" height="40.1396" stroke="#162B6E" stroke-width="1.60559"/>
<rect x="567.859" y="278.965" width="8.89931" height="40.1396" stroke="#162B6E" stroke-width="1.60559"/>
<rect x="576.763" y="278.965" width="8.89931" height="40.1396" stroke="#162B6E" stroke-width="1.60559"/>
<rect x="585.667" y="278.965" width="8.89931" height="40.1396" stroke="#162B6E" stroke-width="1.60559"/>
<rect x="594.572" y="278.965" width="8.89931" height="40.1396" stroke="#162B6E" stroke-width="1.60559"/>
<rect x="603.475" y="278.965" width="8.89931" height="40.1396" stroke="#162B6E" stroke-width="1.60559"/>
<rect x="532.418" y="369.742" width="26.6051" height="78.0507" fill="#2D61DA" stroke="#162B6E" stroke-width="2.78702"/>
<rect x="559.094" y="369.742" width="26.6753" height="78.0507" fill="#2D61DA" stroke="#162B6E" stroke-width="2.78702"/>
<rect x="585.627" y="369.742" width="26.6753" height="78.0507" fill="#2D61DA" stroke="#162B6E" stroke-width="2.78702"/>
<rect x="526.776" y="440.88" width="91.3125" height="16.0559" fill="#162B6E" stroke="#162B6E" stroke-width="1.60559"/>
<rect x="541.159" y="408.767" width="8.89931" height="40.1396" stroke="#162B6E" stroke-width="1.60559"/>
<rect x="532.49" y="408.767" width="8.89931" height="40.1396" stroke="#162B6E" stroke-width="1.60559"/>
<rect x="550.063" y="408.767" width="8.89931" height="40.1396" stroke="#162B6E" stroke-width="1.60559"/>
<rect x="558.959" y="408.767" width="8.89931" height="40.1396" stroke="#162B6E" stroke-width="1.60559"/>
<rect x="567.859" y="408.767" width="8.89931" height="40.1396" stroke="#162B6E" stroke-width="1.60559"/>
<rect x="576.763" y="408.767" width="8.89931" height="40.1396" stroke="#162B6E" stroke-width="1.60559"/>
<rect x="585.667" y="408.767" width="8.89931" height="40.1396" stroke="#162B6E" stroke-width="1.60559"/>
<rect x="594.572" y="408.767" width="8.89931" height="40.1396" stroke="#162B6E" stroke-width="1.60559"/>
<rect x="603.475" y="408.767" width="8.89931" height="40.1396" stroke="#162B6E" stroke-width="1.60559"/>
<rect x="671.708" y="27.7688" width="26.6051" height="78.0507" fill="#2D61DA" stroke="#162B6E" stroke-width="2.78702"/>
<rect x="698.384" y="27.7688" width="26.6753" height="78.0507" fill="#2D61DA" stroke="#162B6E" stroke-width="2.78702"/>
<rect x="724.917" y="27.7688" width="26.6753" height="78.0507" fill="#2D61DA" stroke="#162B6E" stroke-width="2.78702"/>
<rect x="666.066" y="98.9067" width="91.3125" height="16.0559" fill="#162B6E" stroke="#162B6E" stroke-width="1.60559"/>
<rect x="680.449" y="66.7944" width="8.89931" height="40.1396" stroke="#162B6E" stroke-width="1.60559"/>
<rect x="671.78" y="66.7944" width="8.89931" height="40.1396" stroke="#162B6E" stroke-width="1.60559"/>
<rect x="689.353" y="66.7944" width="8.89931" height="40.1396" stroke="#162B6E" stroke-width="1.60559"/>
<rect x="698.25" y="66.7944" width="8.89931" height="40.1396" stroke="#162B6E" stroke-width="1.60559"/>
<rect x="707.149" y="66.7942" width="8.89931" height="40.1396" stroke="#162B6E" stroke-width="1.60559"/>
<rect x="716.053" y="66.7942" width="8.89931" height="40.1396" stroke="#162B6E" stroke-width="1.60559"/>
<rect x="724.958" y="66.7942" width="8.89931" height="40.1396" stroke="#162B6E" stroke-width="1.60559"/>
<rect x="733.862" y="66.7942" width="8.89931" height="40.1396" stroke="#162B6E" stroke-width="1.60559"/>
<rect x="742.765" y="66.7942" width="8.89931" height="40.1396" stroke="#162B6E" stroke-width="1.60559"/>
<rect x="671.708" y="130.185" width="26.6051" height="78.0507" fill="#2D61DA" stroke="#162B6E" stroke-width="2.78702"/>
<rect x="698.384" y="130.185" width="26.6753" height="78.0507" fill="#2D61DA" stroke="#162B6E" stroke-width="2.78702"/>
<rect x="724.917" y="130.185" width="26.6753" height="78.0507" fill="#FFDC00" stroke="#162B6E" stroke-width="2.78702"/>
<rect x="666.066" y="201.323" width="91.3125" height="16.0559" fill="#162B6E" stroke="#162B6E" stroke-width="1.60559"/>
<rect x="680.449" y="169.211" width="8.89931" height="40.1396" stroke="#162B6E" stroke-width="1.60559"/>
<rect x="671.78" y="169.211" width="8.89931" height="40.1396" stroke="#162B6E" stroke-width="1.60559"/>
<rect x="689.353" y="169.211" width="8.89931" height="40.1396" stroke="#162B6E" stroke-width="1.60559"/>
<rect x="698.25" y="169.211" width="8.89931" height="40.1396" stroke="#162B6E" stroke-width="1.60559"/>
<rect x="707.149" y="169.211" width="8.89931" height="40.1396" stroke="#162B6E" stroke-width="1.60559"/>
<rect x="716.053" y="169.211" width="8.89931" height="40.1396" stroke="#162B6E" stroke-width="1.60559"/>
<rect x="724.958" y="169.211" width="8.89931" height="40.1396" stroke="#162B6E" stroke-width="1.60559"/>
<rect x="733.862" y="169.211" width="8.89931" height="40.1396" stroke="#162B6E" stroke-width="1.60559"/>
<rect x="742.765" y="169.211" width="8.89931" height="40.1396" stroke="#162B6E" stroke-width="1.60559"/>
<rect x="671.708" y="239.94" width="26.6051" height="78.0507" fill="#2D61DA" stroke="#162B6E" stroke-width="2.78702"/>
<rect x="698.384" y="239.94" width="26.6753" height="78.0507" fill="#2D61DA" stroke="#162B6E" stroke-width="2.78702"/>
<rect x="724.917" y="239.94" width="26.6753" height="78.0507" fill="#2D61DA" stroke="#162B6E" stroke-width="2.78702"/>
<rect x="666.066" y="311.078" width="91.3125" height="16.0559" fill="#162B6E" stroke="#162B6E" stroke-width="1.60559"/>
<rect x="680.449" y="278.965" width="8.89931" height="40.1396" stroke="#162B6E" stroke-width="1.60559"/>
<rect x="671.78" y="278.965" width="8.89931" height="40.1396" stroke="#162B6E" stroke-width="1.60559"/>
<rect x="689.353" y="278.965" width="8.89931" height="40.1396" stroke="#162B6E" stroke-width="1.60559"/>
<rect x="698.25" y="278.965" width="8.89931" height="40.1396" stroke="#162B6E" stroke-width="1.60559"/>
<rect x="707.149" y="278.965" width="8.89931" height="40.1396" stroke="#162B6E" stroke-width="1.60559"/>
<rect x="716.053" y="278.965" width="8.89931" height="40.1396" stroke="#162B6E" stroke-width="1.60559"/>
<rect x="724.958" y="278.965" width="8.89931" height="40.1396" stroke="#162B6E" stroke-width="1.60559"/>
<rect x="733.862" y="278.965" width="8.89931" height="40.1396" stroke="#162B6E" stroke-width="1.60559"/>
<rect x="742.765" y="278.965" width="8.89931" height="40.1396" stroke="#162B6E" stroke-width="1.60559"/>
<rect x="671.708" y="369.742" width="26.6051" height="78.0507" fill="#2D61DA" stroke="#162B6E" stroke-width="2.78702"/>
<rect x="698.384" y="369.742" width="26.6753" height="78.0507" fill="#2D61DA" stroke="#162B6E" stroke-width="2.78702"/>
<rect x="724.917" y="369.742" width="26.6753" height="78.0507" fill="#2D61DA" stroke="#162B6E" stroke-width="2.78702"/>
<rect x="666.066" y="440.88" width="91.3125" height="16.0559" fill="#162B6E" stroke="#162B6E" stroke-width="1.60559"/>
<rect x="680.449" y="408.767" width="8.89931" height="40.1396" stroke="#162B6E" stroke-width="1.60559"/>
<rect x="671.78" y="408.767" width="8.89931" height="40.1396" stroke="#162B6E" stroke-width="1.60559"/>
<rect x="689.353" y="408.767" width="8.89931" height="40.1396" stroke="#162B6E" stroke-width="1.60559"/>
<rect x="698.25" y="408.767" width="8.89931" height="40.1396" stroke="#162B6E" stroke-width="1.60559"/>
<rect x="707.149" y="408.767" width="8.89931" height="40.1396" stroke="#162B6E" stroke-width="1.60559"/>
<rect x="716.053" y="408.767" width="8.89931" height="40.1396" stroke="#162B6E" stroke-width="1.60559"/>
<rect x="724.958" y="408.767" width="8.89931" height="40.1396" stroke="#162B6E" stroke-width="1.60559"/>
<rect x="733.862" y="408.767" width="8.89931" height="40.1396" stroke="#162B6E" stroke-width="1.60559"/>
<rect x="742.765" y="408.767" width="8.89931" height="40.1396" stroke="#162B6E" stroke-width="1.60559"/>
<rect x="810.999" y="27.7688" width="26.6051" height="78.0507" fill="#2D61DA" stroke="#162B6E" stroke-width="2.78702"/>
<rect x="837.674" y="27.7688" width="26.6753" height="78.0507" fill="#2D61DA" stroke="#162B6E" stroke-width="2.78702"/>
<rect x="864.208" y="27.7688" width="26.6753" height="78.0507" fill="#2D61DA" stroke="#162B6E" stroke-width="2.78702"/>
<rect x="805.356" y="98.9067" width="91.3125" height="16.0559" fill="#162B6E" stroke="#162B6E" stroke-width="1.60559"/>
<rect x="819.739" y="66.7944" width="8.89931" height="40.1396" stroke="#162B6E" stroke-width="1.60559"/>
<rect x="811.07" y="66.7944" width="8.89931" height="40.1396" stroke="#162B6E" stroke-width="1.60559"/>
<rect x="828.643" y="66.7944" width="8.89931" height="40.1396" stroke="#162B6E" stroke-width="1.60559"/>
<rect x="837.54" y="66.7944" width="8.89931" height="40.1396" stroke="#162B6E" stroke-width="1.60559"/>
<rect x="846.439" y="66.7942" width="8.89931" height="40.1396" stroke="#162B6E" stroke-width="1.60559"/>
<rect x="855.343" y="66.7942" width="8.89931" height="40.1396" stroke="#162B6E" stroke-width="1.60559"/>
<rect x="864.248" y="66.7942" width="8.89931" height="40.1396" stroke="#162B6E" stroke-width="1.60559"/>
<rect x="873.152" y="66.7942" width="8.89931" height="40.1396" stroke="#162B6E" stroke-width="1.60559"/>
<rect x="882.055" y="66.7942" width="8.89931" height="40.1396" stroke="#162B6E" stroke-width="1.60559"/>
<rect x="810.999" y="130.185" width="26.6051" height="78.0507" fill="#2D61DA" stroke="#162B6E" stroke-width="2.78702"/>
<rect x="837.674" y="130.185" width="26.6753" height="78.0507" fill="#2D61DA" stroke="#162B6E" stroke-width="2.78702"/>
<rect x="864.208" y="130.185" width="26.6753" height="78.0507" fill="#2D61DA" stroke="#162B6E" stroke-width="2.78702"/>
<rect x="805.356" y="201.323" width="91.3125" height="16.0559" fill="#162B6E" stroke="#162B6E" stroke-width="1.60559"/>
<rect x="819.739" y="169.211" width="8.89931" height="40.1396" stroke="#162B6E" stroke-width="1.60559"/>
<rect x="811.07" y="169.211" width="8.89931" height="40.1396" stroke="#162B6E" stroke-width="1.60559"/>
<rect x="828.643" y="169.211" width="8.89931" height="40.1396" stroke="#162B6E" stroke-width="1.60559"/>
<rect x="837.54" y="169.211" width="8.89931" height="40.1396" stroke="#162B6E" stroke-width="1.60559"/>
<rect x="846.439" y="169.211" width="8.89931" height="40.1396" stroke="#162B6E" stroke-width="1.60559"/>
<rect x="855.343" y="169.211" width="8.89931" height="40.1396" stroke="#162B6E" stroke-width="1.60559"/>
<rect x="864.248" y="169.211" width="8.89931" height="40.1396" stroke="#162B6E" stroke-width="1.60559"/>
<rect x="873.152" y="169.211" width="8.89931" height="40.1396" stroke="#162B6E" stroke-width="1.60559"/>
<rect x="882.055" y="169.211" width="8.89931" height="40.1396" stroke="#162B6E" stroke-width="1.60559"/>
<rect x="810.999" y="239.94" width="26.6051" height="78.0507" fill="#2D61DA" stroke="#162B6E" stroke-width="2.78702"/>
<rect x="837.674" y="239.94" width="26.6753" height="78.0507" fill="#2D61DA" stroke="#162B6E" stroke-width="2.78702"/>
<rect x="864.208" y="239.94" width="26.6753" height="78.0507" fill="#2D61DA" stroke="#162B6E" stroke-width="2.78702"/>
<rect x="805.356" y="311.078" width="91.3125" height="16.0559" fill="#162B6E" stroke="#162B6E" stroke-width="1.60559"/>
<rect x="819.739" y="278.965" width="8.89931" height="40.1396" stroke="#162B6E" stroke-width="1.60559"/>
<rect x="811.07" y="278.965" width="8.89931" height="40.1396" stroke="#162B6E" stroke-width="1.60559"/>
<rect x="828.643" y="278.965" width="8.89931" height="40.1396" stroke="#162B6E" stroke-width="1.60559"/>
<rect x="837.54" y="278.965" width="8.89931" height="40.1396" stroke="#162B6E" stroke-width="1.60559"/>
<rect x="846.439" y="278.965" width="8.89931" height="40.1396" stroke="#162B6E" stroke-width="1.60559"/>
<rect x="855.343" y="278.965" width="8.89931" height="40.1396" stroke="#162B6E" stroke-width="1.60559"/>
<rect x="864.248" y="278.965" width="8.89931" height="40.1396" stroke="#162B6E" stroke-width="1.60559"/>
<rect x="873.152" y="278.965" width="8.89931" height="40.1396" stroke="#162B6E" stroke-width="1.60559"/>
<rect x="882.055" y="278.965" width="8.89931" height="40.1396" stroke="#162B6E" stroke-width="1.60559"/>
<rect x="810.999" y="369.742" width="26.6051" height="78.0507" fill="#2D61DA" stroke="#162B6E" stroke-width="2.78702"/>
<rect x="837.674" y="369.742" width="26.6753" height="78.0507" fill="#2D61DA" stroke="#162B6E" stroke-width="2.78702"/>
<rect x="864.208" y="369.742" width="26.6753" height="78.0507" fill="#2D61DA" stroke="#162B6E" stroke-width="2.78702"/>
<rect x="805.356" y="440.88" width="91.3125" height="16.0559" fill="#162B6E" stroke="#162B6E" stroke-width="1.60559"/>
<rect x="819.739" y="408.767" width="8.89931" height="40.1396" stroke="#162B6E" stroke-width="1.60559"/>
<rect x="811.07" y="408.767" width="8.89931" height="40.1396" stroke="#162B6E" stroke-width="1.60559"/>
<rect x="828.643" y="408.767" width="8.89931" height="40.1396" stroke="#162B6E" stroke-width="1.60559"/>
<rect x="837.54" y="408.767" width="8.89931" height="40.1396" stroke="#162B6E" stroke-width="1.60559"/>
<rect x="846.439" y="408.767" width="8.89931" height="40.1396" stroke="#162B6E" stroke-width="1.60559"/>
<rect x="855.343" y="408.767" width="8.89931" height="40.1396" stroke="#162B6E" stroke-width="1.60559"/>
<rect x="864.248" y="408.767" width="8.89931" height="40.1396" stroke="#162B6E" stroke-width="1.60559"/>
<rect x="873.152" y="408.767" width="8.89931" height="40.1396" stroke="#162B6E" stroke-width="1.60559"/>
<rect x="882.055" y="408.767" width="8.89931" height="40.1396" stroke="#162B6E" stroke-width="1.60559"/>
<rect width="47.6719" height="16.0559" transform="matrix(-1 0 0 1 981.142 98.9067)" fill="#162B6E" stroke="#162B6E" stroke-width="1.60559"/>
<rect width="9.15338" height="40.1396" transform="matrix(-1 0 0 1 966.349 66.7944)" stroke="#162B6E" stroke-width="1.60559"/>
<rect width="9.15338" height="40.1396" transform="matrix(-1 0 0 1 975.265 66.7944)" stroke="#162B6E" stroke-width="1.60559"/>
<rect width="9.15338" height="40.1396" transform="matrix(-1 0 0 1 957.19 66.7944)" stroke="#162B6E" stroke-width="1.60559"/>
<rect width="9.15338" height="40.1396" transform="matrix(-1 0 0 1 948.04 66.7944)" stroke="#162B6E" stroke-width="1.60559"/>
<rect width="47.6719" height="16.0559" transform="matrix(-1 0 0 1 981.142 202.095)" fill="#162B6E" stroke="#162B6E" stroke-width="1.60559"/>
<rect width="9.15338" height="40.1396" transform="matrix(-1 0 0 1 966.349 169.983)" stroke="#162B6E" stroke-width="1.60559"/>
<rect width="9.15338" height="40.1396" transform="matrix(-1 0 0 1 975.265 169.983)" stroke="#162B6E" stroke-width="1.60559"/>
<rect width="9.15338" height="40.1396" transform="matrix(-1 0 0 1 957.19 169.983)" stroke="#162B6E" stroke-width="1.60559"/>
<rect width="9.15338" height="40.1396" transform="matrix(-1 0 0 1 948.04 169.983)" stroke="#162B6E" stroke-width="1.60559"/>
<rect width="47.6719" height="16.0559" transform="matrix(-1 0 0 1 981.142 307.063)" fill="#162B6E" stroke="#162B6E" stroke-width="1.60559"/>
<rect width="9.15338" height="40.1396" transform="matrix(-1 0 0 1 966.349 274.951)" stroke="#162B6E" stroke-width="1.60559"/>
<rect width="9.15338" height="40.1396" transform="matrix(-1 0 0 1 975.265 274.951)" stroke="#162B6E" stroke-width="1.60559"/>
<rect width="9.15338" height="40.1396" transform="matrix(-1 0 0 1 957.19 274.951)" stroke="#162B6E" stroke-width="1.60559"/>
<rect width="9.15338" height="40.1396" transform="matrix(-1 0 0 1 948.04 274.951)" stroke="#162B6E" stroke-width="1.60559"/>
<rect width="47.6719" height="16.0559" transform="matrix(-1 0 0 1 981.142 440.88)" fill="#162B6E" stroke="#162B6E" stroke-width="1.60559"/>
<rect width="9.15338" height="40.1396" transform="matrix(-1 0 0 1 966.349 408.768)" stroke="#162B6E" stroke-width="1.60559"/>
<rect width="9.15338" height="40.1396" transform="matrix(-1 0 0 1 975.265 408.768)" stroke="#162B6E" stroke-width="1.60559"/>
<rect width="9.15338" height="40.1396" transform="matrix(-1 0 0 1 957.19 408.768)" stroke="#162B6E" stroke-width="1.60559"/>
<rect width="9.15338" height="40.1396" transform="matrix(-1 0 0 1 948.04 408.768)" stroke="#162B6E" stroke-width="1.60559"/>
<path fill-rule="evenodd" clip-rule="evenodd" d="M203.725 24.1221C200.964 24.1221 198.725 26.3606 198.725 29.1221V40.0388C198.725 42.8002 200.964 45.0388 203.725 45.0388H278.45L283.52 50.0455C284.176 50.6926 285.283 50.1848 285.221 49.2659L284.933 45.0388H287.371C290.133 45.0388 292.371 42.8002 292.371 40.0388V29.1221C292.371 26.3606 290.133 24.1221 287.371 24.1221H203.725Z" fill="#2D61DA"/>
<path d="M205.839 38.0806C205.768 38.0806 205.707 38.0549 205.656 38.0034C205.604 37.952 205.579 37.891 205.579 37.8202V31.5919C205.579 31.5148 205.604 31.4537 205.656 31.4087C205.707 31.3573 205.768 31.3316 205.839 31.3316H207.729C207.799 31.3316 207.86 31.3573 207.912 31.4087C207.963 31.4601 207.989 31.5212 207.989 31.5919V35.9595H208.731V31.5919C208.731 31.5212 208.757 31.4601 208.808 31.4087C208.86 31.3573 208.921 31.3316 208.992 31.3316H210.881C210.952 31.3316 211.013 31.3573 211.065 31.4087C211.116 31.4601 211.142 31.5212 211.142 31.5919V35.9595H211.874V31.5919C211.874 31.5212 211.9 31.4601 211.952 31.4087C212.003 31.3573 212.064 31.3316 212.135 31.3316H214.024C214.095 31.3316 214.156 31.3573 214.208 31.4087C214.259 31.4601 214.285 31.5212 214.285 31.5919V37.8202C214.285 37.891 214.259 37.952 214.208 38.0034C214.156 38.0549 214.095 38.0806 214.024 38.0806H205.839ZM215.603 38.0806C215.532 38.0806 215.471 38.0549 215.42 38.0034C215.368 37.952 215.342 37.891 215.342 37.8202V31.5919C215.342 31.5148 215.368 31.4537 215.42 31.4087C215.471 31.3573 215.532 31.3316 215.603 31.3316H217.492C217.563 31.3316 217.624 31.3573 217.676 31.4087C217.727 31.4601 217.753 31.5212 217.753 31.5919V35.9595H218.495V31.5919C218.495 31.5212 218.521 31.4601 218.572 31.4087C218.624 31.3573 218.685 31.3316 218.755 31.3316H220.645C220.716 31.3316 220.777 31.3573 220.828 31.4087C220.88 31.4601 220.906 31.5212 220.906 31.5919V35.9595H221.638V31.5919C221.638 31.5212 221.664 31.4601 221.715 31.4087C221.767 31.3573 221.828 31.3316 221.899 31.3316H223.788C223.859 31.3316 223.92 31.3573 223.971 31.4087C224.023 31.4601 224.049 31.5212 224.049 31.5919V37.8202C224.049 37.891 224.023 37.952 223.971 38.0034C223.92 38.0549 223.859 38.0806 223.788 38.0806H215.603ZM224.788 38.0806C224.73 38.0806 224.679 38.0613 224.634 38.0227C224.595 37.9777 224.576 37.9263 224.576 37.8685C224.576 37.8427 224.579 37.8202 224.586 37.801L226.736 31.6497C226.755 31.579 226.8 31.5083 226.871 31.4376C226.941 31.3669 227.041 31.3316 227.17 31.3316H229.262C229.39 31.3316 229.49 31.3669 229.561 31.4376C229.631 31.5083 229.676 31.579 229.696 31.6497L231.846 37.801C231.852 37.8202 231.855 37.8427 231.855 37.8685C231.855 37.9263 231.833 37.9777 231.788 38.0227C231.749 38.0613 231.701 38.0806 231.643 38.0806H229.859C229.737 38.0806 229.647 38.0549 229.589 38.0034C229.538 37.9456 229.503 37.891 229.483 37.8395L229.252 37.2032H227.179L226.948 37.8395C226.928 37.891 226.893 37.9456 226.842 38.0034C226.79 38.0549 226.7 38.0806 226.572 38.0806H224.788ZM227.671 35.3231H228.76L228.211 33.5298L227.671 35.3231ZM234.434 38.0806C234.363 38.0806 234.302 38.0549 234.25 38.0034C234.199 37.952 234.173 37.891 234.173 37.8202V31.5919C234.173 31.5212 234.199 31.4601 234.25 31.4087C234.302 31.3573 234.363 31.3316 234.434 31.3316H239.428C239.499 31.3316 239.56 31.3573 239.611 31.4087C239.663 31.4601 239.688 31.5212 239.688 31.5919V33.0477C239.688 33.1184 239.663 33.1795 239.611 33.2309C239.56 33.2824 239.499 33.3081 239.428 33.3081H236.584V33.7708H237.451C238.293 33.7708 238.962 33.9605 239.457 34.3397C239.958 34.7125 240.209 35.2331 240.209 35.9016C240.209 36.2423 240.145 36.5476 240.016 36.8175C239.894 37.0875 239.714 37.3157 239.476 37.5021C239.245 37.6885 238.959 37.8331 238.618 37.9359C238.277 38.0324 237.888 38.0806 237.451 38.0806H234.434ZM236.584 36.4222H237.259C237.361 36.4222 237.445 36.3965 237.509 36.3451C237.574 36.2937 237.622 36.2294 237.654 36.1523C237.686 36.0687 237.702 35.9852 237.702 35.9016C237.702 35.7731 237.66 35.6541 237.577 35.5449C237.5 35.4356 237.394 35.381 237.259 35.381H236.584V36.4222ZM240.911 38.0806C240.841 38.0806 240.78 38.0549 240.728 38.0034C240.677 37.952 240.651 37.891 240.651 37.8202V31.5919C240.651 31.5212 240.677 31.4601 240.728 31.4087C240.78 31.3573 240.841 31.3316 240.911 31.3316H245.858C245.928 31.3316 245.989 31.3573 246.041 31.4087C246.092 31.4601 246.118 31.5212 246.118 31.5919V32.9513C246.118 33.022 246.092 33.0831 246.041 33.1345C245.989 33.1859 245.928 33.2116 245.858 33.2116H242.965V33.8191H245.645C245.716 33.8191 245.777 33.8448 245.829 33.8962C245.88 33.9476 245.906 34.0087 245.906 34.0794V35.3328C245.906 35.4035 245.88 35.4645 245.829 35.5159C245.777 35.5674 245.716 35.5931 245.645 35.5931H242.965V36.2005H245.935C246.005 36.2005 246.066 36.2262 246.118 36.2776C246.169 36.329 246.195 36.3901 246.195 36.4608V37.8202C246.195 37.891 246.169 37.952 246.118 38.0034C246.066 38.0549 246.005 38.0806 245.935 38.0806H240.911ZM247.342 38.0806C247.272 38.0806 247.21 38.0581 247.159 38.0131C247.108 37.9617 247.082 37.8974 247.082 37.8202V31.5919C247.082 31.5212 247.108 31.4601 247.159 31.4087C247.21 31.3573 247.272 31.3316 247.342 31.3316H249.232C249.303 31.3316 249.364 31.3573 249.415 31.4087C249.467 31.4601 249.492 31.5212 249.492 31.5919V33.6166H251.054V31.5919C251.054 31.5212 251.08 31.4601 251.131 31.4087C251.183 31.3573 251.244 31.3316 251.314 31.3316H253.204C253.275 31.3316 253.336 31.3573 253.387 31.4087C253.439 31.4601 253.465 31.5212 253.465 31.5919V37.8202C253.465 37.891 253.439 37.952 253.387 38.0034C253.336 38.0549 253.275 38.0806 253.204 38.0806H251.314C251.244 38.0806 251.183 38.0549 251.131 38.0034C251.08 37.952 251.054 37.891 251.054 37.8202V35.7377H249.492V37.8202C249.492 37.891 249.467 37.952 249.415 38.0034C249.364 38.0549 249.303 38.0806 249.232 38.0806H247.342ZM257.47 38.177C256.892 38.177 256.406 38.1159 256.014 37.9938C255.622 37.8652 255.307 37.7013 255.069 37.5021C254.832 37.3028 254.655 37.0875 254.539 36.8561C254.43 36.6183 254.362 36.3933 254.337 36.1812C254.33 36.1234 254.35 36.0752 254.395 36.0366C254.44 35.9916 254.491 35.9691 254.549 35.9691H256.439C256.529 35.9691 256.593 35.9852 256.631 36.0173C256.676 36.043 256.721 36.0784 256.766 36.1234C256.831 36.1876 256.911 36.2358 257.007 36.268C257.104 36.3001 257.239 36.3162 257.412 36.3162C257.586 36.3162 257.724 36.3033 257.827 36.2776C257.93 36.2455 258.004 36.2037 258.049 36.1523C258.094 36.0944 258.116 36.0269 258.116 35.9498C258.116 35.8148 258.058 35.7184 257.943 35.6606C257.833 35.6027 257.666 35.5738 257.441 35.5738H256.718C256.647 35.5738 256.586 35.5449 256.535 35.487C256.484 35.4292 256.458 35.3649 256.458 35.2942V34.1372C256.458 34.0665 256.484 34.0022 256.535 33.9444C256.586 33.8865 256.647 33.8576 256.718 33.8576H257.441C257.602 33.8576 257.73 33.8319 257.827 33.7805C257.923 33.7226 257.972 33.6327 257.972 33.5105C257.972 33.4398 257.955 33.3756 257.923 33.3177C257.891 33.2534 257.833 33.2052 257.75 33.1731C257.673 33.1345 257.56 33.1152 257.412 33.1152C257.219 33.1152 257.078 33.1409 256.988 33.1924C256.898 33.2374 256.84 33.2759 256.815 33.3081C256.776 33.3595 256.737 33.398 256.699 33.4238C256.66 33.4495 256.596 33.4623 256.506 33.4623H254.597C254.539 33.4623 254.488 33.443 254.443 33.4045C254.398 33.3595 254.378 33.3081 254.385 33.2502C254.411 33.0381 254.475 32.8163 254.578 32.585C254.687 32.3471 254.857 32.1286 255.089 31.9293C255.32 31.7237 255.629 31.5565 256.014 31.428C256.406 31.2994 256.892 31.2352 257.47 31.2352C258.055 31.2352 258.569 31.3251 259.013 31.5051C259.456 31.6851 259.803 31.9261 260.054 32.2282C260.311 32.5303 260.44 32.871 260.44 33.2502C260.44 33.3788 260.42 33.5234 260.382 33.6841C260.343 33.8383 260.269 33.9894 260.16 34.1372C260.057 34.2851 259.9 34.4168 259.688 34.5325C259.938 34.6546 260.131 34.8057 260.266 34.9857C260.401 35.1592 260.494 35.3424 260.546 35.5352C260.597 35.7216 260.623 35.8984 260.623 36.0655C260.623 36.4897 260.494 36.8593 260.237 37.1743C259.987 37.4892 259.623 37.7367 259.148 37.9167C258.679 38.0902 258.119 38.177 257.47 38.177ZM261.682 38.0806C261.611 38.0806 261.55 38.0549 261.499 38.0034C261.447 37.952 261.422 37.891 261.422 37.8202V31.5919C261.422 31.5212 261.447 31.4601 261.499 31.4087C261.55 31.3573 261.611 31.3316 261.682 31.3316H266.628C266.699 31.3316 266.76 31.3573 266.811 31.4087C266.863 31.4601 266.888 31.5212 266.888 31.5919V32.9513C266.888 33.022 266.863 33.0831 266.811 33.1345C266.76 33.1859 266.699 33.2116 266.628 33.2116H263.736V33.8191H266.416C266.487 33.8191 266.548 33.8448 266.599 33.8962C266.651 33.9476 266.676 34.0087 266.676 34.0794V35.3328C266.676 35.4035 266.651 35.4645 266.599 35.5159C266.548 35.5674 266.487 35.5931 266.416 35.5931H263.736V36.2005H266.705C266.776 36.2005 266.837 36.2262 266.888 36.2776C266.94 36.329 266.965 36.3901 266.965 36.4608V37.8202C266.965 37.891 266.94 37.952 266.888 38.0034C266.837 38.0549 266.776 38.0806 266.705 38.0806H261.682ZM268.113 38.0806C268.042 38.0806 267.981 38.0549 267.93 38.0034C267.878 37.952 267.852 37.891 267.852 37.8202V31.5919C267.852 31.5212 267.878 31.4601 267.93 31.4087C267.981 31.3573 268.042 31.3316 268.113 31.3316H269.636C269.765 31.3316 269.861 31.3669 269.925 31.4376C269.99 31.5083 270.031 31.5598 270.051 31.5919L271.449 33.9058L272.847 31.5919C272.866 31.5598 272.908 31.5083 272.972 31.4376C273.036 31.3669 273.133 31.3316 273.261 31.3316H274.785C274.855 31.3316 274.916 31.3573 274.968 31.4087C275.019 31.4601 275.045 31.5212 275.045 31.5919V37.8202C275.045 37.891 275.019 37.952 274.968 38.0034C274.916 38.0549 274.855 38.0806 274.785 38.0806H273.039C272.969 38.0806 272.908 38.0549 272.856 38.0034C272.805 37.952 272.779 37.891 272.779 37.8202V35.1785L272.143 36.2198C272.111 36.2712 272.066 36.3258 272.008 36.3837C271.956 36.4351 271.883 36.4608 271.786 36.4608H271.111C271.015 36.4608 270.938 36.4351 270.88 36.3837C270.828 36.3258 270.787 36.2712 270.754 36.2198L270.118 35.1785V37.8202C270.118 37.891 270.092 37.952 270.041 38.0034C269.99 38.0549 269.929 38.0806 269.858 38.0806H268.113ZM275.792 38.0806C275.734 38.0806 275.682 38.0613 275.637 38.0227C275.599 37.9777 275.579 37.9263 275.579 37.8685C275.579 37.8427 275.583 37.8202 275.589 37.801L277.739 31.6497C277.758 31.579 277.803 31.5083 277.874 31.4376C277.945 31.3669 278.044 31.3316 278.173 31.3316H280.265C280.394 31.3316 280.493 31.3669 280.564 31.4376C280.635 31.5083 280.68 31.579 280.699 31.6497L282.849 37.801C282.856 37.8202 282.859 37.8427 282.859 37.8685C282.859 37.9263 282.836 37.9777 282.791 38.0227C282.753 38.0613 282.704 38.0806 282.647 38.0806H280.863C280.741 38.0806 280.651 38.0549 280.593 38.0034C280.542 37.9456 280.506 37.891 280.487 37.8395L280.256 37.2032H278.183L277.951 37.8395C277.932 37.891 277.897 37.9456 277.845 38.0034C277.794 38.0549 277.704 38.0806 277.575 38.0806H275.792ZM278.674 35.3231H279.764L279.214 33.5298L278.674 35.3231ZM283.61 35.4967C283.539 35.4967 283.478 35.471 283.426 35.4195C283.375 35.3681 283.349 35.3071 283.349 35.2363V31.5919C283.349 31.5212 283.375 31.4601 283.426 31.4087C283.478 31.3573 283.539 31.3316 283.61 31.3316H285.287C285.358 31.3316 285.419 31.3573 285.47 31.4087C285.522 31.4601 285.548 31.5212 285.548 31.5919V35.2363C285.548 35.3071 285.522 35.3681 285.47 35.4195C285.419 35.471 285.358 35.4967 285.287 35.4967H283.61ZM283.61 38.0806C283.539 38.0806 283.478 38.0549 283.426 38.0034C283.375 37.952 283.349 37.891 283.349 37.8202V36.1426C283.349 36.0719 283.375 36.0109 283.426 35.9595C283.478 35.908 283.539 35.8823 283.61 35.8823H285.287C285.358 35.8823 285.419 35.908 285.47 35.9595C285.522 36.0109 285.548 36.0719 285.548 36.1426V37.8202C285.548 37.891 285.522 37.952 285.47 38.0034C285.419 38.0549 285.358 38.0806 285.287 38.0806H283.61Z" fill="#FFDC00"/>
</g>
<defs>
<clipPath id="clip0_294_7964">
<rect width="981" height="500" fill="white" transform="translate(0.14209 0.185303)"/>
</clipPath>
<clipPath id="clip1_294_7964">
<rect width="79" height="78" fill="white" transform="translate(254.142 27.3706)"/>
</clipPath>
</defs>
</svg>
