<svg width="982" height="501" viewBox="0 0 982 501" fill="none" xmlns="http://www.w3.org/2000/svg">
<g clip-path="url(#clip0_208_2365)">
<rect x="24.6621" y="6.5603" width="932.67" height="545.526" fill="#0F2F7E"/>
<rect x="24.6621" y="349.338" width="932.67" height="545.526" fill="#0F2F7E"/>
<rect x="0.28418" y="-3.97827" width="986.49" height="15.7527" fill="#0C276A"/>
<rect x="0.28418" y="98.9067" width="47.8926" height="16.0559" fill="#162B6E" stroke="#162B6E" stroke-width="1.60559"/>
<rect x="15.1461" y="66.7944" width="9.19576" height="40.1396" stroke="#162B6E" stroke-width="1.60559"/>
<rect x="6.18835" y="66.7944" width="9.19576" height="40.1396" stroke="#162B6E" stroke-width="1.60559"/>
<rect x="24.347" y="66.7944" width="9.19576" height="40.1396" stroke="#162B6E" stroke-width="1.60559"/>
<rect x="33.5399" y="66.7944" width="9.19576" height="40.1396" stroke="#162B6E" stroke-width="1.60559"/>
<rect x="0.28418" y="441.684" width="47.8926" height="16.0559" fill="#162B6E" stroke="#162B6E" stroke-width="1.60559"/>
<rect x="15.1461" y="409.572" width="9.19576" height="40.1396" stroke="#162B6E" stroke-width="1.60559"/>
<rect x="6.18835" y="409.572" width="9.19576" height="40.1396" stroke="#162B6E" stroke-width="1.60559"/>
<rect x="24.347" y="409.572" width="9.19576" height="40.1396" stroke="#162B6E" stroke-width="1.60559"/>
<rect x="33.5399" y="409.572" width="9.19576" height="40.1396" stroke="#162B6E" stroke-width="1.60559"/>
<rect x="0.28418" y="202.095" width="47.8926" height="16.0559" fill="#162B6E" stroke="#162B6E" stroke-width="1.60559"/>
<rect x="15.1461" y="169.983" width="9.19576" height="40.1396" stroke="#162B6E" stroke-width="1.60559"/>
<rect x="6.18835" y="169.983" width="9.19576" height="40.1396" stroke="#162B6E" stroke-width="1.60559"/>
<rect x="24.347" y="169.983" width="9.19576" height="40.1396" stroke="#162B6E" stroke-width="1.60559"/>
<rect x="33.5399" y="169.983" width="9.19576" height="40.1396" stroke="#162B6E" stroke-width="1.60559"/>
<rect x="0.28418" y="311.078" width="47.8926" height="16.0559" fill="#162B6E" stroke="#162B6E" stroke-width="1.60559"/>
<rect x="15.1461" y="278.965" width="9.19576" height="40.1396" stroke="#162B6E" stroke-width="1.60559"/>
<rect x="6.18835" y="278.965" width="9.19576" height="40.1396" stroke="#162B6E" stroke-width="1.60559"/>
<rect x="24.347" y="278.965" width="9.19576" height="40.1396" stroke="#162B6E" stroke-width="1.60559"/>
<rect x="33.5399" y="278.965" width="9.19576" height="40.1396" stroke="#162B6E" stroke-width="1.60559"/>
<rect x="114.69" y="27.7688" width="26.6051" height="78.0507" fill="#2D61DA" stroke="#162B6E" stroke-width="2.78702"/>
<rect x="141.366" y="27.7688" width="26.6753" height="78.0507" fill="#2D61DA" stroke="#162B6E" stroke-width="2.78702"/>
<rect x="167.899" y="27.7688" width="26.6753" height="78.0507" fill="#2D61DA" stroke="#162B6E" stroke-width="2.78702"/>
<rect x="109.048" y="98.9067" width="91.3125" height="16.0559" fill="#162B6E" stroke="#162B6E" stroke-width="1.60559"/>
<rect x="123.431" y="66.7944" width="8.89931" height="40.1396" stroke="#162B6E" stroke-width="1.60559"/>
<rect x="114.762" y="66.7944" width="8.89931" height="40.1396" stroke="#162B6E" stroke-width="1.60559"/>
<rect x="132.335" y="66.7944" width="8.89931" height="40.1396" stroke="#162B6E" stroke-width="1.60559"/>
<rect x="141.231" y="66.7944" width="8.89931" height="40.1396" stroke="#162B6E" stroke-width="1.60559"/>
<rect x="150.131" y="66.7942" width="8.89931" height="40.1396" stroke="#162B6E" stroke-width="1.60559"/>
<rect x="159.035" y="66.7942" width="8.89931" height="40.1396" stroke="#162B6E" stroke-width="1.60559"/>
<rect x="167.939" y="66.7942" width="8.89931" height="40.1396" stroke="#162B6E" stroke-width="1.60559"/>
<rect x="176.844" y="66.7942" width="8.89931" height="40.1396" stroke="#162B6E" stroke-width="1.60559"/>
<rect x="185.747" y="66.7942" width="8.89931" height="40.1396" stroke="#162B6E" stroke-width="1.60559"/>
<rect x="114.69" y="130.185" width="26.6051" height="78.0507" fill="#2D61DA" stroke="#162B6E" stroke-width="2.78702"/>
<rect x="141.366" y="130.185" width="26.6753" height="78.0507" fill="#2D61DA" stroke="#162B6E" stroke-width="2.78702"/>
<rect x="167.899" y="130.185" width="26.6753" height="78.0507" fill="#2D61DA" stroke="#162B6E" stroke-width="2.78702"/>
<rect x="109.048" y="201.323" width="91.3125" height="16.0559" fill="#162B6E" stroke="#162B6E" stroke-width="1.60559"/>
<rect x="123.431" y="169.211" width="8.89931" height="40.1396" stroke="#162B6E" stroke-width="1.60559"/>
<rect x="114.762" y="169.211" width="8.89931" height="40.1396" stroke="#162B6E" stroke-width="1.60559"/>
<rect x="132.335" y="169.211" width="8.89931" height="40.1396" stroke="#162B6E" stroke-width="1.60559"/>
<rect x="141.231" y="169.211" width="8.89931" height="40.1396" stroke="#162B6E" stroke-width="1.60559"/>
<rect x="150.131" y="169.211" width="8.89931" height="40.1396" stroke="#162B6E" stroke-width="1.60559"/>
<rect x="159.035" y="169.211" width="8.89931" height="40.1396" stroke="#162B6E" stroke-width="1.60559"/>
<rect x="167.939" y="169.211" width="8.89931" height="40.1396" stroke="#162B6E" stroke-width="1.60559"/>
<rect x="176.844" y="169.211" width="8.89931" height="40.1396" stroke="#162B6E" stroke-width="1.60559"/>
<rect x="185.747" y="169.211" width="8.89931" height="40.1396" stroke="#162B6E" stroke-width="1.60559"/>
<rect x="114.69" y="239.939" width="26.6051" height="78.0507" fill="#2D61DA" stroke="#162B6E" stroke-width="2.78702"/>
<rect x="141.366" y="239.939" width="26.6753" height="78.0507" fill="#2D61DA" stroke="#162B6E" stroke-width="2.78702"/>
<rect x="167.899" y="239.939" width="26.6753" height="78.0507" fill="#2D61DA" stroke="#162B6E" stroke-width="2.78702"/>
<rect x="109.048" y="311.077" width="91.3125" height="16.0559" fill="#162B6E" stroke="#162B6E" stroke-width="1.60559"/>
<rect x="123.431" y="278.965" width="8.89931" height="40.1396" stroke="#162B6E" stroke-width="1.60559"/>
<rect x="114.762" y="278.965" width="8.89931" height="40.1396" stroke="#162B6E" stroke-width="1.60559"/>
<rect x="132.335" y="278.965" width="8.89931" height="40.1396" stroke="#162B6E" stroke-width="1.60559"/>
<rect x="141.231" y="278.965" width="8.89931" height="40.1396" stroke="#162B6E" stroke-width="1.60559"/>
<rect x="150.131" y="278.965" width="8.89931" height="40.1396" stroke="#162B6E" stroke-width="1.60559"/>
<rect x="159.035" y="278.965" width="8.89931" height="40.1396" stroke="#162B6E" stroke-width="1.60559"/>
<rect x="167.939" y="278.965" width="8.89931" height="40.1396" stroke="#162B6E" stroke-width="1.60559"/>
<rect x="176.844" y="278.965" width="8.89931" height="40.1396" stroke="#162B6E" stroke-width="1.60559"/>
<rect x="185.747" y="278.965" width="8.89931" height="40.1396" stroke="#162B6E" stroke-width="1.60559"/>
<rect x="253.98" y="27.7688" width="26.6051" height="78.0507" fill="#2D61DA" stroke="#162B6E" stroke-width="2.78702"/>
<rect x="280.656" y="27.7688" width="26.6753" height="78.0507" fill="#2D61DA" stroke="#162B6E" stroke-width="2.78702"/>
<rect x="307.189" y="27.7688" width="26.6753" height="78.0507" fill="#2D61DA" stroke="#162B6E" stroke-width="2.78702"/>
<rect x="248.338" y="98.9067" width="91.3125" height="16.0559" fill="#162B6E" stroke="#162B6E" stroke-width="1.60559"/>
<rect x="262.721" y="66.7944" width="8.89931" height="40.1396" stroke="#162B6E" stroke-width="1.60559"/>
<rect x="254.052" y="66.7944" width="8.89931" height="40.1396" stroke="#162B6E" stroke-width="1.60559"/>
<rect x="271.625" y="66.7944" width="8.89931" height="40.1396" stroke="#162B6E" stroke-width="1.60559"/>
<rect x="280.521" y="66.7944" width="8.89931" height="40.1396" stroke="#162B6E" stroke-width="1.60559"/>
<rect x="289.421" y="66.7942" width="8.89931" height="40.1396" stroke="#162B6E" stroke-width="1.60559"/>
<rect x="298.325" y="66.7942" width="8.89931" height="40.1396" stroke="#162B6E" stroke-width="1.60559"/>
<rect x="307.229" y="66.7942" width="8.89931" height="40.1396" stroke="#162B6E" stroke-width="1.60559"/>
<rect x="316.134" y="66.7942" width="8.89931" height="40.1396" stroke="#162B6E" stroke-width="1.60559"/>
<rect x="325.037" y="66.7942" width="8.89931" height="40.1396" stroke="#162B6E" stroke-width="1.60559"/>
<rect x="253.98" y="130.185" width="26.6051" height="78.0507" fill="#2D61DA" stroke="#162B6E" stroke-width="2.78702"/>
<rect x="280.656" y="130.185" width="26.6753" height="78.0507" fill="#2D61DA" stroke="#162B6E" stroke-width="2.78702"/>
<rect x="307.189" y="130.185" width="26.6753" height="78.0507" fill="#2D61DA" stroke="#162B6E" stroke-width="2.78702"/>
<rect x="248.338" y="201.323" width="91.3125" height="16.0559" fill="#162B6E" stroke="#162B6E" stroke-width="1.60559"/>
<rect x="262.721" y="169.211" width="8.89931" height="40.1396" stroke="#162B6E" stroke-width="1.60559"/>
<rect x="254.052" y="169.211" width="8.89931" height="40.1396" stroke="#162B6E" stroke-width="1.60559"/>
<rect x="271.625" y="169.211" width="8.89931" height="40.1396" stroke="#162B6E" stroke-width="1.60559"/>
<rect x="280.521" y="169.211" width="8.89931" height="40.1396" stroke="#162B6E" stroke-width="1.60559"/>
<rect x="289.421" y="169.211" width="8.89931" height="40.1396" stroke="#162B6E" stroke-width="1.60559"/>
<rect x="298.325" y="169.211" width="8.89931" height="40.1396" stroke="#162B6E" stroke-width="1.60559"/>
<rect x="307.229" y="169.211" width="8.89931" height="40.1396" stroke="#162B6E" stroke-width="1.60559"/>
<rect x="316.134" y="169.211" width="8.89931" height="40.1396" stroke="#162B6E" stroke-width="1.60559"/>
<rect x="325.037" y="169.211" width="8.89931" height="40.1396" stroke="#162B6E" stroke-width="1.60559"/>
<rect x="253.98" y="239.939" width="26.6051" height="78.0507" fill="#FFDC00" stroke="#162B6E" stroke-width="2.78702"/>
<rect x="280.656" y="239.939" width="26.6753" height="78.0507" fill="#2D61DA" stroke="#162B6E" stroke-width="2.78702"/>
<rect x="307.189" y="239.939" width="26.6753" height="78.0507" fill="#2D61DA" stroke="#162B6E" stroke-width="2.78702"/>
<rect x="248.338" y="311.077" width="91.3125" height="16.0559" fill="#162B6E" stroke="#162B6E" stroke-width="1.60559"/>
<rect x="262.721" y="278.965" width="8.89931" height="40.1396" stroke="#162B6E" stroke-width="1.60559"/>
<rect x="254.052" y="278.965" width="8.89931" height="40.1396" stroke="#162B6E" stroke-width="1.60559"/>
<rect x="271.625" y="278.965" width="8.89931" height="40.1396" stroke="#162B6E" stroke-width="1.60559"/>
<rect x="280.521" y="278.965" width="8.89931" height="40.1396" stroke="#162B6E" stroke-width="1.60559"/>
<rect x="289.421" y="278.965" width="8.89931" height="40.1396" stroke="#162B6E" stroke-width="1.60559"/>
<rect x="298.325" y="278.965" width="8.89931" height="40.1396" stroke="#162B6E" stroke-width="1.60559"/>
<rect x="307.229" y="278.965" width="8.89931" height="40.1396" stroke="#162B6E" stroke-width="1.60559"/>
<rect x="316.134" y="278.965" width="8.89931" height="40.1396" stroke="#162B6E" stroke-width="1.60559"/>
<rect x="325.037" y="278.965" width="8.89931" height="40.1396" stroke="#162B6E" stroke-width="1.60559"/>
<rect x="393.271" y="27.7688" width="26.6051" height="78.0507" fill="#2D61DA" stroke="#162B6E" stroke-width="2.78702"/>
<rect x="419.946" y="27.7688" width="26.6753" height="78.0507" fill="#2D61DA" stroke="#162B6E" stroke-width="2.78702"/>
<rect x="446.479" y="27.7688" width="26.6753" height="78.0507" fill="#FFDC00" stroke="#162B6E" stroke-width="2.78702"/>
<rect x="387.628" y="98.9067" width="91.3125" height="16.0559" fill="#162B6E" stroke="#162B6E" stroke-width="1.60559"/>
<rect x="402.011" y="66.7944" width="8.89931" height="40.1396" stroke="#162B6E" stroke-width="1.60559"/>
<rect x="393.342" y="66.7944" width="8.89931" height="40.1396" stroke="#162B6E" stroke-width="1.60559"/>
<rect x="410.915" y="66.7944" width="8.89931" height="40.1396" stroke="#162B6E" stroke-width="1.60559"/>
<rect x="419.812" y="66.7944" width="8.89931" height="40.1396" stroke="#162B6E" stroke-width="1.60559"/>
<rect x="428.711" y="66.7942" width="8.89931" height="40.1396" stroke="#162B6E" stroke-width="1.60559"/>
<rect x="437.615" y="66.7942" width="8.89931" height="40.1396" stroke="#162B6E" stroke-width="1.60559"/>
<rect x="446.52" y="66.7942" width="8.89931" height="40.1396" stroke="#162B6E" stroke-width="1.60559"/>
<rect x="455.424" y="66.7942" width="8.89931" height="40.1396" stroke="#162B6E" stroke-width="1.60559"/>
<rect x="464.327" y="66.7942" width="8.89931" height="40.1396" stroke="#162B6E" stroke-width="1.60559"/>
<rect x="393.271" y="130.185" width="26.6051" height="78.0507" fill="#2D61DA" stroke="#162B6E" stroke-width="2.78702"/>
<rect x="419.946" y="130.185" width="26.6753" height="78.0507" fill="#2D61DA" stroke="#162B6E" stroke-width="2.78702"/>
<rect x="446.479" y="130.185" width="26.6753" height="78.0507" fill="#2D61DA" stroke="#162B6E" stroke-width="2.78702"/>
<rect x="387.628" y="201.323" width="91.3125" height="16.0559" fill="#162B6E" stroke="#162B6E" stroke-width="1.60559"/>
<rect x="402.011" y="169.211" width="8.89931" height="40.1396" stroke="#162B6E" stroke-width="1.60559"/>
<rect x="393.342" y="169.211" width="8.89931" height="40.1396" stroke="#162B6E" stroke-width="1.60559"/>
<rect x="410.915" y="169.211" width="8.89931" height="40.1396" stroke="#162B6E" stroke-width="1.60559"/>
<rect x="419.812" y="169.211" width="8.89931" height="40.1396" stroke="#162B6E" stroke-width="1.60559"/>
<rect x="428.711" y="169.211" width="8.89931" height="40.1396" stroke="#162B6E" stroke-width="1.60559"/>
<rect x="437.615" y="169.211" width="8.89931" height="40.1396" stroke="#162B6E" stroke-width="1.60559"/>
<rect x="446.52" y="169.211" width="8.89931" height="40.1396" stroke="#162B6E" stroke-width="1.60559"/>
<rect x="455.424" y="169.211" width="8.89931" height="40.1396" stroke="#162B6E" stroke-width="1.60559"/>
<rect x="464.327" y="169.211" width="8.89931" height="40.1396" stroke="#162B6E" stroke-width="1.60559"/>
<rect x="393.271" y="239.939" width="26.6051" height="78.0507" fill="#2D61DA" stroke="#162B6E" stroke-width="2.78702"/>
<rect x="419.946" y="239.939" width="26.6753" height="78.0507" fill="#2D61DA" stroke="#162B6E" stroke-width="2.78702"/>
<rect x="446.479" y="239.939" width="26.6753" height="78.0507" fill="#2D61DA" stroke="#162B6E" stroke-width="2.78702"/>
<rect x="387.628" y="311.077" width="91.3125" height="16.0559" fill="#162B6E" stroke="#162B6E" stroke-width="1.60559"/>
<rect x="402.011" y="278.965" width="8.89931" height="40.1396" stroke="#162B6E" stroke-width="1.60559"/>
<rect x="393.342" y="278.965" width="8.89931" height="40.1396" stroke="#162B6E" stroke-width="1.60559"/>
<rect x="410.915" y="278.965" width="8.89931" height="40.1396" stroke="#162B6E" stroke-width="1.60559"/>
<rect x="419.812" y="278.965" width="8.89931" height="40.1396" stroke="#162B6E" stroke-width="1.60559"/>
<rect x="428.711" y="278.965" width="8.89931" height="40.1396" stroke="#162B6E" stroke-width="1.60559"/>
<rect x="437.615" y="278.965" width="8.89931" height="40.1396" stroke="#162B6E" stroke-width="1.60559"/>
<rect x="446.52" y="278.965" width="8.89931" height="40.1396" stroke="#162B6E" stroke-width="1.60559"/>
<rect x="455.424" y="278.965" width="8.89931" height="40.1396" stroke="#162B6E" stroke-width="1.60559"/>
<rect x="464.327" y="278.965" width="8.89931" height="40.1396" stroke="#162B6E" stroke-width="1.60559"/>
<rect x="532.561" y="27.7688" width="26.6051" height="78.0507" fill="#2D61DA" stroke="#162B6E" stroke-width="2.78702"/>
<rect x="559.236" y="27.7688" width="26.6753" height="78.0507" fill="#2D61DA" stroke="#162B6E" stroke-width="2.78702"/>
<rect x="585.77" y="27.7688" width="26.6753" height="78.0507" fill="#2D61DA" stroke="#162B6E" stroke-width="2.78702"/>
<rect x="526.918" y="98.9067" width="91.3125" height="16.0559" fill="#162B6E" stroke="#162B6E" stroke-width="1.60559"/>
<rect x="541.301" y="66.7944" width="8.89931" height="40.1396" stroke="#162B6E" stroke-width="1.60559"/>
<rect x="532.632" y="66.7944" width="8.89931" height="40.1396" stroke="#162B6E" stroke-width="1.60559"/>
<rect x="550.205" y="66.7944" width="8.89931" height="40.1396" stroke="#162B6E" stroke-width="1.60559"/>
<rect x="559.102" y="66.7944" width="8.89931" height="40.1396" stroke="#162B6E" stroke-width="1.60559"/>
<rect x="568.001" y="66.7942" width="8.89931" height="40.1396" stroke="#162B6E" stroke-width="1.60559"/>
<rect x="576.905" y="66.7942" width="8.89931" height="40.1396" stroke="#162B6E" stroke-width="1.60559"/>
<rect x="585.81" y="66.7942" width="8.89931" height="40.1396" stroke="#162B6E" stroke-width="1.60559"/>
<rect x="594.714" y="66.7942" width="8.89931" height="40.1396" stroke="#162B6E" stroke-width="1.60559"/>
<rect x="603.617" y="66.7942" width="8.89931" height="40.1396" stroke="#162B6E" stroke-width="1.60559"/>
<rect x="532.561" y="130.185" width="26.6051" height="78.0507" fill="#2D61DA" stroke="#162B6E" stroke-width="2.78702"/>
<rect x="559.236" y="130.185" width="26.6753" height="78.0507" fill="#2D61DA" stroke="#162B6E" stroke-width="2.78702"/>
<rect x="585.77" y="130.185" width="26.6753" height="78.0507" fill="#2D61DA" stroke="#162B6E" stroke-width="2.78702"/>
<rect x="526.918" y="201.323" width="91.3125" height="16.0559" fill="#162B6E" stroke="#162B6E" stroke-width="1.60559"/>
<rect x="541.301" y="169.211" width="8.89931" height="40.1396" stroke="#162B6E" stroke-width="1.60559"/>
<rect x="532.632" y="169.211" width="8.89931" height="40.1396" stroke="#162B6E" stroke-width="1.60559"/>
<rect x="550.205" y="169.211" width="8.89931" height="40.1396" stroke="#162B6E" stroke-width="1.60559"/>
<rect x="559.102" y="169.211" width="8.89931" height="40.1396" stroke="#162B6E" stroke-width="1.60559"/>
<rect x="568.001" y="169.211" width="8.89931" height="40.1396" stroke="#162B6E" stroke-width="1.60559"/>
<rect x="576.905" y="169.211" width="8.89931" height="40.1396" stroke="#162B6E" stroke-width="1.60559"/>
<rect x="585.81" y="169.211" width="8.89931" height="40.1396" stroke="#162B6E" stroke-width="1.60559"/>
<rect x="594.714" y="169.211" width="8.89931" height="40.1396" stroke="#162B6E" stroke-width="1.60559"/>
<rect x="603.617" y="169.211" width="8.89931" height="40.1396" stroke="#162B6E" stroke-width="1.60559"/>
<rect x="532.561" y="239.939" width="26.6051" height="78.0507" fill="#2D61DA" stroke="#162B6E" stroke-width="2.78702"/>
<rect x="559.236" y="239.939" width="26.6753" height="78.0507" fill="#2D61DA" stroke="#162B6E" stroke-width="2.78702"/>
<rect x="585.77" y="239.939" width="26.6753" height="78.0507" fill="#2D61DA" stroke="#162B6E" stroke-width="2.78702"/>
<rect x="526.918" y="311.077" width="91.3125" height="16.0559" fill="#162B6E" stroke="#162B6E" stroke-width="1.60559"/>
<rect x="541.301" y="278.965" width="8.89931" height="40.1396" stroke="#162B6E" stroke-width="1.60559"/>
<rect x="532.632" y="278.965" width="8.89931" height="40.1396" stroke="#162B6E" stroke-width="1.60559"/>
<rect x="550.205" y="278.965" width="8.89931" height="40.1396" stroke="#162B6E" stroke-width="1.60559"/>
<rect x="559.102" y="278.965" width="8.89931" height="40.1396" stroke="#162B6E" stroke-width="1.60559"/>
<rect x="568.001" y="278.965" width="8.89931" height="40.1396" stroke="#162B6E" stroke-width="1.60559"/>
<rect x="576.905" y="278.965" width="8.89931" height="40.1396" stroke="#162B6E" stroke-width="1.60559"/>
<rect x="585.81" y="278.965" width="8.89931" height="40.1396" stroke="#162B6E" stroke-width="1.60559"/>
<rect x="594.714" y="278.965" width="8.89931" height="40.1396" stroke="#162B6E" stroke-width="1.60559"/>
<rect x="603.617" y="278.965" width="8.89931" height="40.1396" stroke="#162B6E" stroke-width="1.60559"/>
<rect x="671.851" y="27.7688" width="26.6051" height="78.0507" fill="#2D61DA" stroke="#162B6E" stroke-width="2.78702"/>
<rect x="698.526" y="27.7688" width="26.6753" height="78.0507" fill="#2D61DA" stroke="#162B6E" stroke-width="2.78702"/>
<rect x="725.06" y="27.7688" width="26.6753" height="78.0507" fill="#2D61DA" stroke="#162B6E" stroke-width="2.78702"/>
<rect x="666.208" y="98.9067" width="91.3125" height="16.0559" fill="#162B6E" stroke="#162B6E" stroke-width="1.60559"/>
<rect x="680.591" y="66.7944" width="8.89931" height="40.1396" stroke="#162B6E" stroke-width="1.60559"/>
<rect x="671.922" y="66.7944" width="8.89931" height="40.1396" stroke="#162B6E" stroke-width="1.60559"/>
<rect x="689.495" y="66.7944" width="8.89931" height="40.1396" stroke="#162B6E" stroke-width="1.60559"/>
<rect x="698.392" y="66.7944" width="8.89931" height="40.1396" stroke="#162B6E" stroke-width="1.60559"/>
<rect x="707.291" y="66.7942" width="8.89931" height="40.1396" stroke="#162B6E" stroke-width="1.60559"/>
<rect x="716.195" y="66.7942" width="8.89931" height="40.1396" stroke="#162B6E" stroke-width="1.60559"/>
<rect x="725.1" y="66.7942" width="8.89931" height="40.1396" stroke="#162B6E" stroke-width="1.60559"/>
<rect x="734.004" y="66.7942" width="8.89931" height="40.1396" stroke="#162B6E" stroke-width="1.60559"/>
<rect x="742.907" y="66.7942" width="8.89931" height="40.1396" stroke="#162B6E" stroke-width="1.60559"/>
<rect x="671.851" y="130.185" width="26.6051" height="78.0507" fill="#2D61DA" stroke="#162B6E" stroke-width="2.78702"/>
<rect x="698.526" y="130.185" width="26.6753" height="78.0507" fill="#2D61DA" stroke="#162B6E" stroke-width="2.78702"/>
<rect x="725.06" y="130.185" width="26.6753" height="78.0507" fill="#FFDC00" stroke="#162B6E" stroke-width="2.78702"/>
<rect x="666.208" y="201.323" width="91.3125" height="16.0559" fill="#162B6E" stroke="#162B6E" stroke-width="1.60559"/>
<rect x="680.591" y="169.211" width="8.89931" height="40.1396" stroke="#162B6E" stroke-width="1.60559"/>
<rect x="671.922" y="169.211" width="8.89931" height="40.1396" stroke="#162B6E" stroke-width="1.60559"/>
<rect x="689.495" y="169.211" width="8.89931" height="40.1396" stroke="#162B6E" stroke-width="1.60559"/>
<rect x="698.392" y="169.211" width="8.89931" height="40.1396" stroke="#162B6E" stroke-width="1.60559"/>
<rect x="707.291" y="169.211" width="8.89931" height="40.1396" stroke="#162B6E" stroke-width="1.60559"/>
<rect x="716.195" y="169.211" width="8.89931" height="40.1396" stroke="#162B6E" stroke-width="1.60559"/>
<rect x="725.1" y="169.211" width="8.89931" height="40.1396" stroke="#162B6E" stroke-width="1.60559"/>
<rect x="734.004" y="169.211" width="8.89931" height="40.1396" stroke="#162B6E" stroke-width="1.60559"/>
<rect x="742.907" y="169.211" width="8.89931" height="40.1396" stroke="#162B6E" stroke-width="1.60559"/>
<rect x="671.851" y="239.939" width="26.6051" height="78.0507" fill="#2D61DA" stroke="#162B6E" stroke-width="2.78702"/>
<rect x="698.526" y="239.939" width="26.6753" height="78.0507" fill="#2D61DA" stroke="#162B6E" stroke-width="2.78702"/>
<rect x="725.06" y="239.939" width="26.6753" height="78.0507" fill="#2D61DA" stroke="#162B6E" stroke-width="2.78702"/>
<rect x="666.208" y="311.077" width="91.3125" height="16.0559" fill="#162B6E" stroke="#162B6E" stroke-width="1.60559"/>
<rect x="680.591" y="278.965" width="8.89931" height="40.1396" stroke="#162B6E" stroke-width="1.60559"/>
<rect x="671.922" y="278.965" width="8.89931" height="40.1396" stroke="#162B6E" stroke-width="1.60559"/>
<rect x="689.495" y="278.965" width="8.89931" height="40.1396" stroke="#162B6E" stroke-width="1.60559"/>
<rect x="698.392" y="278.965" width="8.89931" height="40.1396" stroke="#162B6E" stroke-width="1.60559"/>
<rect x="707.291" y="278.965" width="8.89931" height="40.1396" stroke="#162B6E" stroke-width="1.60559"/>
<rect x="716.195" y="278.965" width="8.89931" height="40.1396" stroke="#162B6E" stroke-width="1.60559"/>
<rect x="725.1" y="278.965" width="8.89931" height="40.1396" stroke="#162B6E" stroke-width="1.60559"/>
<rect x="734.004" y="278.965" width="8.89931" height="40.1396" stroke="#162B6E" stroke-width="1.60559"/>
<rect x="742.907" y="278.965" width="8.89931" height="40.1396" stroke="#162B6E" stroke-width="1.60559"/>
<rect x="811.141" y="27.7688" width="26.6051" height="78.0507" fill="#2D61DA" stroke="#162B6E" stroke-width="2.78702"/>
<rect x="837.816" y="27.7688" width="26.6753" height="78.0507" fill="#2D61DA" stroke="#162B6E" stroke-width="2.78702"/>
<rect x="864.35" y="27.7688" width="26.6753" height="78.0507" fill="#2D61DA" stroke="#162B6E" stroke-width="2.78702"/>
<rect x="805.498" y="98.9067" width="91.3125" height="16.0559" fill="#162B6E" stroke="#162B6E" stroke-width="1.60559"/>
<rect x="819.881" y="66.7944" width="8.89931" height="40.1396" stroke="#162B6E" stroke-width="1.60559"/>
<rect x="811.212" y="66.7944" width="8.89931" height="40.1396" stroke="#162B6E" stroke-width="1.60559"/>
<rect x="828.785" y="66.7944" width="8.89931" height="40.1396" stroke="#162B6E" stroke-width="1.60559"/>
<rect x="837.682" y="66.7944" width="8.89931" height="40.1396" stroke="#162B6E" stroke-width="1.60559"/>
<rect x="846.581" y="66.7942" width="8.89931" height="40.1396" stroke="#162B6E" stroke-width="1.60559"/>
<rect x="855.485" y="66.7942" width="8.89931" height="40.1396" stroke="#162B6E" stroke-width="1.60559"/>
<rect x="864.39" y="66.7942" width="8.89931" height="40.1396" stroke="#162B6E" stroke-width="1.60559"/>
<rect x="873.294" y="66.7942" width="8.89931" height="40.1396" stroke="#162B6E" stroke-width="1.60559"/>
<rect x="882.197" y="66.7942" width="8.89931" height="40.1396" stroke="#162B6E" stroke-width="1.60559"/>
<rect x="811.141" y="130.185" width="26.6051" height="78.0507" fill="#2D61DA" stroke="#162B6E" stroke-width="2.78702"/>
<rect x="837.816" y="130.185" width="26.6753" height="78.0507" fill="#2D61DA" stroke="#162B6E" stroke-width="2.78702"/>
<rect x="864.35" y="130.185" width="26.6753" height="78.0507" fill="#2D61DA" stroke="#162B6E" stroke-width="2.78702"/>
<rect x="805.498" y="201.323" width="91.3125" height="16.0559" fill="#162B6E" stroke="#162B6E" stroke-width="1.60559"/>
<rect x="819.881" y="169.211" width="8.89931" height="40.1396" stroke="#162B6E" stroke-width="1.60559"/>
<rect x="811.212" y="169.211" width="8.89931" height="40.1396" stroke="#162B6E" stroke-width="1.60559"/>
<rect x="828.785" y="169.211" width="8.89931" height="40.1396" stroke="#162B6E" stroke-width="1.60559"/>
<rect x="837.682" y="169.211" width="8.89931" height="40.1396" stroke="#162B6E" stroke-width="1.60559"/>
<rect x="846.581" y="169.211" width="8.89931" height="40.1396" stroke="#162B6E" stroke-width="1.60559"/>
<rect x="855.485" y="169.211" width="8.89931" height="40.1396" stroke="#162B6E" stroke-width="1.60559"/>
<rect x="864.39" y="169.211" width="8.89931" height="40.1396" stroke="#162B6E" stroke-width="1.60559"/>
<rect x="873.294" y="169.211" width="8.89931" height="40.1396" stroke="#162B6E" stroke-width="1.60559"/>
<rect x="882.197" y="169.211" width="8.89931" height="40.1396" stroke="#162B6E" stroke-width="1.60559"/>
<rect x="811.141" y="239.939" width="26.6051" height="78.0507" fill="#2D61DA" stroke="#162B6E" stroke-width="2.78702"/>
<rect x="837.816" y="239.939" width="26.6753" height="78.0507" fill="#2D61DA" stroke="#162B6E" stroke-width="2.78702"/>
<rect x="864.35" y="239.939" width="26.6753" height="78.0507" fill="#2D61DA" stroke="#162B6E" stroke-width="2.78702"/>
<rect x="805.498" y="311.077" width="91.3125" height="16.0559" fill="#162B6E" stroke="#162B6E" stroke-width="1.60559"/>
<rect x="819.881" y="278.965" width="8.89931" height="40.1396" stroke="#162B6E" stroke-width="1.60559"/>
<rect x="811.212" y="278.965" width="8.89931" height="40.1396" stroke="#162B6E" stroke-width="1.60559"/>
<rect x="828.785" y="278.965" width="8.89931" height="40.1396" stroke="#162B6E" stroke-width="1.60559"/>
<rect x="837.682" y="278.965" width="8.89931" height="40.1396" stroke="#162B6E" stroke-width="1.60559"/>
<rect x="846.581" y="278.965" width="8.89931" height="40.1396" stroke="#162B6E" stroke-width="1.60559"/>
<rect x="855.485" y="278.965" width="8.89931" height="40.1396" stroke="#162B6E" stroke-width="1.60559"/>
<rect x="864.39" y="278.965" width="8.89931" height="40.1396" stroke="#162B6E" stroke-width="1.60559"/>
<rect x="873.294" y="278.965" width="8.89931" height="40.1396" stroke="#162B6E" stroke-width="1.60559"/>
<rect x="882.197" y="278.965" width="8.89931" height="40.1396" stroke="#162B6E" stroke-width="1.60559"/>
<rect x="114.69" y="370.546" width="26.6051" height="78.0507" fill="#2D61DA" stroke="#162B6E" stroke-width="2.78702"/>
<rect x="141.366" y="370.546" width="26.6753" height="78.0507" fill="#2D61DA" stroke="#162B6E" stroke-width="2.78702"/>
<rect x="167.899" y="370.546" width="26.6753" height="78.0507" fill="#2D61DA" stroke="#162B6E" stroke-width="2.78702"/>
<rect x="109.048" y="441.684" width="91.3125" height="16.0559" fill="#162B6E" stroke="#162B6E" stroke-width="1.60559"/>
<rect x="123.431" y="409.572" width="8.89931" height="40.1396" stroke="#162B6E" stroke-width="1.60559"/>
<rect x="114.762" y="409.572" width="8.89931" height="40.1396" stroke="#162B6E" stroke-width="1.60559"/>
<rect x="132.335" y="409.572" width="8.89931" height="40.1396" stroke="#162B6E" stroke-width="1.60559"/>
<rect x="141.231" y="409.572" width="8.89931" height="40.1396" stroke="#162B6E" stroke-width="1.60559"/>
<rect x="150.131" y="409.572" width="8.89931" height="40.1396" stroke="#162B6E" stroke-width="1.60559"/>
<rect x="159.035" y="409.572" width="8.89931" height="40.1396" stroke="#162B6E" stroke-width="1.60559"/>
<rect x="167.939" y="409.572" width="8.89931" height="40.1396" stroke="#162B6E" stroke-width="1.60559"/>
<rect x="176.844" y="409.572" width="8.89931" height="40.1396" stroke="#162B6E" stroke-width="1.60559"/>
<rect x="185.747" y="409.572" width="8.89931" height="40.1396" stroke="#162B6E" stroke-width="1.60559"/>
<rect x="114.69" y="472.963" width="26.6051" height="78.0507" fill="#2D61DA" stroke="#162B6E" stroke-width="2.78702"/>
<rect x="141.366" y="472.963" width="26.6753" height="78.0507" fill="#2D61DA" stroke="#162B6E" stroke-width="2.78702"/>
<rect x="167.899" y="472.963" width="26.6753" height="78.0507" fill="#2D61DA" stroke="#162B6E" stroke-width="2.78702"/>
<rect x="253.98" y="370.546" width="26.6051" height="78.0507" fill="#2D61DA" stroke="#162B6E" stroke-width="2.78702"/>
<rect x="280.656" y="370.546" width="26.6753" height="78.0507" fill="#2D61DA" stroke="#162B6E" stroke-width="2.78702"/>
<rect x="307.189" y="370.546" width="26.6753" height="78.0507" fill="#2D61DA" stroke="#162B6E" stroke-width="2.78702"/>
<rect x="248.338" y="441.684" width="91.3125" height="16.0559" fill="#162B6E" stroke="#162B6E" stroke-width="1.60559"/>
<rect x="262.721" y="409.572" width="8.89931" height="40.1396" stroke="#162B6E" stroke-width="1.60559"/>
<rect x="254.052" y="409.572" width="8.89931" height="40.1396" stroke="#162B6E" stroke-width="1.60559"/>
<rect x="271.625" y="409.572" width="8.89931" height="40.1396" stroke="#162B6E" stroke-width="1.60559"/>
<rect x="280.521" y="409.572" width="8.89931" height="40.1396" stroke="#162B6E" stroke-width="1.60559"/>
<rect x="289.421" y="409.572" width="8.89931" height="40.1396" stroke="#162B6E" stroke-width="1.60559"/>
<rect x="298.325" y="409.572" width="8.89931" height="40.1396" stroke="#162B6E" stroke-width="1.60559"/>
<rect x="307.229" y="409.572" width="8.89931" height="40.1396" stroke="#162B6E" stroke-width="1.60559"/>
<rect x="316.134" y="409.572" width="8.89931" height="40.1396" stroke="#162B6E" stroke-width="1.60559"/>
<rect x="325.037" y="409.572" width="8.89931" height="40.1396" stroke="#162B6E" stroke-width="1.60559"/>
<rect x="253.98" y="472.963" width="26.6051" height="78.0507" fill="#2D61DA" stroke="#162B6E" stroke-width="2.78702"/>
<rect x="280.656" y="472.963" width="26.6753" height="78.0507" fill="#2D61DA" stroke="#162B6E" stroke-width="2.78702"/>
<rect x="307.189" y="472.963" width="26.6753" height="78.0507" fill="#2D61DA" stroke="#162B6E" stroke-width="2.78702"/>
<rect x="393.271" y="370.546" width="26.6051" height="78.0507" fill="#2D61DA" stroke="#162B6E" stroke-width="2.78702"/>
<rect x="419.946" y="370.546" width="26.6753" height="78.0507" fill="#2D61DA" stroke="#162B6E" stroke-width="2.78702"/>
<rect x="446.479" y="370.546" width="26.6753" height="78.0507" fill="#FFDC00" stroke="#162B6E" stroke-width="2.78702"/>
<rect x="387.628" y="441.684" width="91.3125" height="16.0559" fill="#162B6E" stroke="#162B6E" stroke-width="1.60559"/>
<rect x="402.011" y="409.572" width="8.89931" height="40.1396" stroke="#162B6E" stroke-width="1.60559"/>
<rect x="393.342" y="409.572" width="8.89931" height="40.1396" stroke="#162B6E" stroke-width="1.60559"/>
<rect x="410.915" y="409.572" width="8.89931" height="40.1396" stroke="#162B6E" stroke-width="1.60559"/>
<rect x="419.812" y="409.572" width="8.89931" height="40.1396" stroke="#162B6E" stroke-width="1.60559"/>
<rect x="428.711" y="409.572" width="8.89931" height="40.1396" stroke="#162B6E" stroke-width="1.60559"/>
<rect x="437.615" y="409.572" width="8.89931" height="40.1396" stroke="#162B6E" stroke-width="1.60559"/>
<rect x="446.52" y="409.572" width="8.89931" height="40.1396" stroke="#162B6E" stroke-width="1.60559"/>
<rect x="455.424" y="409.572" width="8.89931" height="40.1396" stroke="#162B6E" stroke-width="1.60559"/>
<rect x="464.327" y="409.572" width="8.89931" height="40.1396" stroke="#162B6E" stroke-width="1.60559"/>
<rect x="393.271" y="472.963" width="26.6051" height="78.0507" fill="#2D61DA" stroke="#162B6E" stroke-width="2.78702"/>
<rect x="419.946" y="472.963" width="26.6753" height="78.0507" fill="#2D61DA" stroke="#162B6E" stroke-width="2.78702"/>
<rect x="446.479" y="472.963" width="26.6753" height="78.0507" fill="#2D61DA" stroke="#162B6E" stroke-width="2.78702"/>
<rect x="532.561" y="370.546" width="26.6051" height="78.0507" fill="#2D61DA" stroke="#162B6E" stroke-width="2.78702"/>
<rect x="559.236" y="370.546" width="26.6753" height="78.0507" fill="#2D61DA" stroke="#162B6E" stroke-width="2.78702"/>
<rect x="585.77" y="370.546" width="26.6753" height="78.0507" fill="#2D61DA" stroke="#162B6E" stroke-width="2.78702"/>
<rect x="526.918" y="441.684" width="91.3125" height="16.0559" fill="#162B6E" stroke="#162B6E" stroke-width="1.60559"/>
<rect x="541.301" y="409.572" width="8.89931" height="40.1396" stroke="#162B6E" stroke-width="1.60559"/>
<rect x="532.632" y="409.572" width="8.89931" height="40.1396" stroke="#162B6E" stroke-width="1.60559"/>
<rect x="550.205" y="409.572" width="8.89931" height="40.1396" stroke="#162B6E" stroke-width="1.60559"/>
<rect x="559.102" y="409.572" width="8.89931" height="40.1396" stroke="#162B6E" stroke-width="1.60559"/>
<rect x="568.001" y="409.572" width="8.89931" height="40.1396" stroke="#162B6E" stroke-width="1.60559"/>
<rect x="576.905" y="409.572" width="8.89931" height="40.1396" stroke="#162B6E" stroke-width="1.60559"/>
<rect x="585.81" y="409.572" width="8.89931" height="40.1396" stroke="#162B6E" stroke-width="1.60559"/>
<rect x="594.714" y="409.572" width="8.89931" height="40.1396" stroke="#162B6E" stroke-width="1.60559"/>
<rect x="603.617" y="409.572" width="8.89931" height="40.1396" stroke="#162B6E" stroke-width="1.60559"/>
<rect x="532.561" y="472.963" width="26.6051" height="78.0507" fill="#2D61DA" stroke="#162B6E" stroke-width="2.78702"/>
<rect x="559.236" y="472.963" width="26.6753" height="78.0507" fill="#2D61DA" stroke="#162B6E" stroke-width="2.78702"/>
<rect x="585.77" y="472.963" width="26.6753" height="78.0507" fill="#2D61DA" stroke="#162B6E" stroke-width="2.78702"/>
<rect x="671.851" y="370.546" width="26.6051" height="78.0507" fill="#2D61DA" stroke="#162B6E" stroke-width="2.78702"/>
<rect x="698.526" y="370.546" width="26.6753" height="78.0507" fill="#2D61DA" stroke="#162B6E" stroke-width="2.78702"/>
<rect x="725.06" y="370.546" width="26.6753" height="78.0507" fill="#2D61DA" stroke="#162B6E" stroke-width="2.78702"/>
<rect x="666.208" y="441.684" width="91.3125" height="16.0559" fill="#162B6E" stroke="#162B6E" stroke-width="1.60559"/>
<rect x="680.591" y="409.572" width="8.89931" height="40.1396" stroke="#162B6E" stroke-width="1.60559"/>
<rect x="671.922" y="409.572" width="8.89931" height="40.1396" stroke="#162B6E" stroke-width="1.60559"/>
<rect x="689.495" y="409.572" width="8.89931" height="40.1396" stroke="#162B6E" stroke-width="1.60559"/>
<rect x="698.392" y="409.572" width="8.89931" height="40.1396" stroke="#162B6E" stroke-width="1.60559"/>
<rect x="707.291" y="409.572" width="8.89931" height="40.1396" stroke="#162B6E" stroke-width="1.60559"/>
<rect x="716.195" y="409.572" width="8.89931" height="40.1396" stroke="#162B6E" stroke-width="1.60559"/>
<rect x="725.1" y="409.572" width="8.89931" height="40.1396" stroke="#162B6E" stroke-width="1.60559"/>
<rect x="734.004" y="409.572" width="8.89931" height="40.1396" stroke="#162B6E" stroke-width="1.60559"/>
<rect x="742.907" y="409.572" width="8.89931" height="40.1396" stroke="#162B6E" stroke-width="1.60559"/>
<rect x="671.851" y="472.963" width="26.6051" height="78.0507" fill="#2D61DA" stroke="#162B6E" stroke-width="2.78702"/>
<rect x="698.526" y="472.963" width="26.6753" height="78.0507" fill="#2D61DA" stroke="#162B6E" stroke-width="2.78702"/>
<rect x="725.06" y="472.963" width="26.6753" height="78.0507" fill="#FFDC00" stroke="#162B6E" stroke-width="2.78702"/>
<rect x="811.141" y="370.546" width="26.6051" height="78.0507" fill="#2D61DA" stroke="#162B6E" stroke-width="2.78702"/>
<rect x="837.816" y="370.546" width="26.6753" height="78.0507" fill="#2D61DA" stroke="#162B6E" stroke-width="2.78702"/>
<rect x="864.35" y="370.546" width="26.6753" height="78.0507" fill="#2D61DA" stroke="#162B6E" stroke-width="2.78702"/>
<rect x="805.498" y="441.684" width="91.3125" height="16.0559" fill="#162B6E" stroke="#162B6E" stroke-width="1.60559"/>
<rect x="819.881" y="409.572" width="8.89931" height="40.1396" stroke="#162B6E" stroke-width="1.60559"/>
<rect x="811.212" y="409.572" width="8.89931" height="40.1396" stroke="#162B6E" stroke-width="1.60559"/>
<rect x="828.785" y="409.572" width="8.89931" height="40.1396" stroke="#162B6E" stroke-width="1.60559"/>
<rect x="837.682" y="409.572" width="8.89931" height="40.1396" stroke="#162B6E" stroke-width="1.60559"/>
<rect x="846.581" y="409.572" width="8.89931" height="40.1396" stroke="#162B6E" stroke-width="1.60559"/>
<rect x="855.485" y="409.572" width="8.89931" height="40.1396" stroke="#162B6E" stroke-width="1.60559"/>
<rect x="864.39" y="409.572" width="8.89931" height="40.1396" stroke="#162B6E" stroke-width="1.60559"/>
<rect x="873.294" y="409.572" width="8.89931" height="40.1396" stroke="#162B6E" stroke-width="1.60559"/>
<rect x="882.197" y="409.572" width="8.89931" height="40.1396" stroke="#162B6E" stroke-width="1.60559"/>
<rect x="811.141" y="472.963" width="26.6051" height="78.0507" fill="#2D61DA" stroke="#162B6E" stroke-width="2.78702"/>
<rect x="837.816" y="472.963" width="26.6753" height="78.0507" fill="#2D61DA" stroke="#162B6E" stroke-width="2.78702"/>
<rect x="864.35" y="472.963" width="26.6753" height="78.0507" fill="#2D61DA" stroke="#162B6E" stroke-width="2.78702"/>
<rect width="47.6719" height="16.0559" transform="matrix(-1 0 0 1 981.284 98.9067)" fill="#162B6E" stroke="#162B6E" stroke-width="1.60559"/>
<rect width="9.15338" height="40.1396" transform="matrix(-1 0 0 1 966.491 66.7944)" stroke="#162B6E" stroke-width="1.60559"/>
<rect width="9.15338" height="40.1396" transform="matrix(-1 0 0 1 975.407 66.7944)" stroke="#162B6E" stroke-width="1.60559"/>
<rect width="9.15338" height="40.1396" transform="matrix(-1 0 0 1 957.332 66.7944)" stroke="#162B6E" stroke-width="1.60559"/>
<rect width="9.15338" height="40.1396" transform="matrix(-1 0 0 1 948.182 66.7944)" stroke="#162B6E" stroke-width="1.60559"/>
<rect width="47.6719" height="16.0559" transform="matrix(-1 0 0 1 981.284 441.684)" fill="#162B6E" stroke="#162B6E" stroke-width="1.60559"/>
<rect width="9.15338" height="40.1396" transform="matrix(-1 0 0 1 966.491 409.572)" stroke="#162B6E" stroke-width="1.60559"/>
<rect width="9.15338" height="40.1396" transform="matrix(-1 0 0 1 975.407 409.572)" stroke="#162B6E" stroke-width="1.60559"/>
<rect width="9.15338" height="40.1396" transform="matrix(-1 0 0 1 957.332 409.572)" stroke="#162B6E" stroke-width="1.60559"/>
<rect width="9.15338" height="40.1396" transform="matrix(-1 0 0 1 948.182 409.572)" stroke="#162B6E" stroke-width="1.60559"/>
<rect width="47.6719" height="16.0559" transform="matrix(-1 0 0 1 981.284 202.095)" fill="#162B6E" stroke="#162B6E" stroke-width="1.60559"/>
<rect width="9.15338" height="40.1396" transform="matrix(-1 0 0 1 966.491 169.983)" stroke="#162B6E" stroke-width="1.60559"/>
<rect width="9.15338" height="40.1396" transform="matrix(-1 0 0 1 975.407 169.983)" stroke="#162B6E" stroke-width="1.60559"/>
<rect width="9.15338" height="40.1396" transform="matrix(-1 0 0 1 957.332 169.983)" stroke="#162B6E" stroke-width="1.60559"/>
<rect width="9.15338" height="40.1396" transform="matrix(-1 0 0 1 948.182 169.983)" stroke="#162B6E" stroke-width="1.60559"/>
<rect width="47.6719" height="16.0559" transform="matrix(-1 0 0 1 981.284 311.078)" fill="#162B6E" stroke="#162B6E" stroke-width="1.60559"/>
<rect width="9.15338" height="40.1396" transform="matrix(-1 0 0 1 966.491 278.965)" stroke="#162B6E" stroke-width="1.60559"/>
<rect width="9.15338" height="40.1396" transform="matrix(-1 0 0 1 975.407 278.965)" stroke="#162B6E" stroke-width="1.60559"/>
<rect width="9.15338" height="40.1396" transform="matrix(-1 0 0 1 957.332 278.965)" stroke="#162B6E" stroke-width="1.60559"/>
<rect width="9.15338" height="40.1396" transform="matrix(-1 0 0 1 948.182 278.965)" stroke="#162B6E" stroke-width="1.60559"/>
</g>
<defs>
<clipPath id="clip0_208_2365">
<rect width="981" height="500" fill="white" transform="translate(0.28418 0.185303)"/>
</clipPath>
</defs>
</svg>
