<svg width="1201" height="501" viewBox="0 0 1201 501" fill="none" xmlns="http://www.w3.org/2000/svg">
<g clip-path="url(#clip0_213_22823)">
<rect x="7.41846" y="0.753418" width="1185.55" height="504.347" fill="#0F2F7E"/>
<rect x="0.194336" y="0.589844" width="1200" height="15.7527" fill="#0C276A"/>
<rect x="52.486" y="39.0237" width="37.56" height="83.063" fill="#2D61DA" stroke="#162B6E" stroke-width="2.78702"/>
<rect x="90.1454" y="39.0237" width="37.6591" height="83.063" fill="#2D61DA" stroke="#162B6E" stroke-width="2.78702"/>
<rect x="127.605" y="39.0237" width="37.6591" height="83.063" fill="#2D61DA" stroke="#162B6E" stroke-width="2.78702"/>
<rect x="44.5204" y="114.73" width="128.911" height="17.0869" fill="#162B6E" stroke="#162B6E" stroke-width="1.60559"/>
<rect x="64.8256" y="80.5555" width="12.5637" height="42.7174" stroke="#162B6E" stroke-width="1.60559"/>
<rect x="52.5868" y="80.5555" width="12.5637" height="42.7174" stroke="#162B6E" stroke-width="1.60559"/>
<rect x="77.3956" y="80.5557" width="12.5637" height="42.7174" stroke="#162B6E" stroke-width="1.60559"/>
<rect x="89.9564" y="80.5557" width="12.5637" height="42.7174" stroke="#162B6E" stroke-width="1.60559"/>
<rect x="102.52" y="80.5553" width="12.5637" height="42.7174" stroke="#162B6E" stroke-width="1.60559"/>
<rect x="115.091" y="80.5553" width="12.5637" height="42.7174" stroke="#162B6E" stroke-width="1.60559"/>
<rect x="127.661" y="80.5553" width="12.5637" height="42.7174" stroke="#162B6E" stroke-width="1.60559"/>
<rect x="140.232" y="80.5553" width="12.5637" height="42.7174" stroke="#162B6E" stroke-width="1.60559"/>
<rect x="152.801" y="80.5553" width="12.5637" height="42.7174" stroke="#162B6E" stroke-width="1.60559"/>
<rect x="52.486" y="148.017" width="37.56" height="83.063" fill="#2D61DA" stroke="#162B6E" stroke-width="2.78702"/>
<rect x="90.1454" y="148.017" width="37.6591" height="83.063" fill="#2D61DA" stroke="#162B6E" stroke-width="2.78702"/>
<rect x="127.605" y="148.017" width="37.6591" height="83.063" fill="#2D61DA" stroke="#162B6E" stroke-width="2.78702"/>
<rect x="44.5204" y="223.724" width="128.911" height="17.0869" fill="#162B6E" stroke="#162B6E" stroke-width="1.60559"/>
<rect x="64.8256" y="189.549" width="12.5637" height="42.7174" stroke="#162B6E" stroke-width="1.60559"/>
<rect x="52.5868" y="189.549" width="12.5637" height="42.7174" stroke="#162B6E" stroke-width="1.60559"/>
<rect x="77.3956" y="189.549" width="12.5637" height="42.7174" stroke="#162B6E" stroke-width="1.60559"/>
<rect x="89.9564" y="189.549" width="12.5637" height="42.7174" stroke="#162B6E" stroke-width="1.60559"/>
<rect x="102.52" y="189.549" width="12.5637" height="42.7174" stroke="#162B6E" stroke-width="1.60559"/>
<rect x="115.091" y="189.549" width="12.5637" height="42.7174" stroke="#162B6E" stroke-width="1.60559"/>
<rect x="127.661" y="189.549" width="12.5637" height="42.7174" stroke="#162B6E" stroke-width="1.60559"/>
<rect x="140.232" y="189.549" width="12.5637" height="42.7174" stroke="#162B6E" stroke-width="1.60559"/>
<rect x="152.801" y="189.549" width="12.5637" height="42.7174" stroke="#162B6E" stroke-width="1.60559"/>
<rect x="52.486" y="264.82" width="37.56" height="83.063" fill="#2D61DA" stroke="#162B6E" stroke-width="2.78702"/>
<rect x="90.1454" y="264.82" width="37.6591" height="83.063" fill="#2D61DA" stroke="#162B6E" stroke-width="2.78702"/>
<rect x="127.605" y="264.82" width="37.6591" height="83.063" fill="#2D61DA" stroke="#162B6E" stroke-width="2.78702"/>
<rect x="44.5204" y="340.526" width="128.911" height="17.0869" fill="#162B6E" stroke="#162B6E" stroke-width="1.60559"/>
<rect x="64.8256" y="306.352" width="12.5637" height="42.7174" stroke="#162B6E" stroke-width="1.60559"/>
<rect x="52.5868" y="306.352" width="12.5637" height="42.7174" stroke="#162B6E" stroke-width="1.60559"/>
<rect x="77.3956" y="306.352" width="12.5637" height="42.7174" stroke="#162B6E" stroke-width="1.60559"/>
<rect x="89.9564" y="306.352" width="12.5637" height="42.7174" stroke="#162B6E" stroke-width="1.60559"/>
<rect x="102.52" y="306.351" width="12.5637" height="42.7174" stroke="#162B6E" stroke-width="1.60559"/>
<rect x="115.091" y="306.351" width="12.5637" height="42.7174" stroke="#162B6E" stroke-width="1.60559"/>
<rect x="127.661" y="306.351" width="12.5637" height="42.7174" stroke="#162B6E" stroke-width="1.60559"/>
<rect x="140.232" y="306.351" width="12.5637" height="42.7174" stroke="#162B6E" stroke-width="1.60559"/>
<rect x="152.801" y="306.351" width="12.5637" height="42.7174" stroke="#162B6E" stroke-width="1.60559"/>
<rect x="249.129" y="39.0237" width="37.56" height="83.063" fill="#2D61DA" stroke="#162B6E" stroke-width="2.78702"/>
<rect x="286.788" y="39.0237" width="37.6591" height="83.063" fill="#2D61DA" stroke="#162B6E" stroke-width="2.78702"/>
<rect x="324.247" y="39.0237" width="37.6591" height="83.063" fill="#2D61DA" stroke="#162B6E" stroke-width="2.78702"/>
<rect x="241.163" y="114.73" width="128.911" height="17.0869" fill="#162B6E" stroke="#162B6E" stroke-width="1.60559"/>
<rect x="261.468" y="80.5555" width="12.5637" height="42.7174" stroke="#162B6E" stroke-width="1.60559"/>
<rect x="249.229" y="80.5555" width="12.5637" height="42.7174" stroke="#162B6E" stroke-width="1.60559"/>
<rect x="274.038" y="80.5557" width="12.5637" height="42.7174" stroke="#162B6E" stroke-width="1.60559"/>
<rect x="286.598" y="80.5557" width="12.5637" height="42.7174" stroke="#162B6E" stroke-width="1.60559"/>
<rect x="299.162" y="80.5553" width="12.5637" height="42.7174" stroke="#162B6E" stroke-width="1.60559"/>
<rect x="311.733" y="80.5553" width="12.5637" height="42.7174" stroke="#162B6E" stroke-width="1.60559"/>
<rect x="324.303" y="80.5553" width="12.5637" height="42.7174" stroke="#162B6E" stroke-width="1.60559"/>
<rect x="336.875" y="80.5553" width="12.5637" height="42.7174" stroke="#162B6E" stroke-width="1.60559"/>
<rect x="349.443" y="80.5553" width="12.5637" height="42.7174" stroke="#162B6E" stroke-width="1.60559"/>
<rect x="249.129" y="148.017" width="37.56" height="83.063" fill="#2D61DA" stroke="#162B6E" stroke-width="2.78702"/>
<rect x="286.788" y="148.017" width="37.6591" height="83.063" fill="#2D61DA" stroke="#162B6E" stroke-width="2.78702"/>
<rect x="324.247" y="148.017" width="37.6591" height="83.063" fill="#2D61DA" stroke="#162B6E" stroke-width="2.78702"/>
<rect x="241.163" y="223.724" width="128.911" height="17.0869" fill="#162B6E" stroke="#162B6E" stroke-width="1.60559"/>
<rect x="261.468" y="189.549" width="12.5637" height="42.7174" stroke="#162B6E" stroke-width="1.60559"/>
<rect x="249.229" y="189.549" width="12.5637" height="42.7174" stroke="#162B6E" stroke-width="1.60559"/>
<rect x="274.038" y="189.549" width="12.5637" height="42.7174" stroke="#162B6E" stroke-width="1.60559"/>
<rect x="286.598" y="189.549" width="12.5637" height="42.7174" stroke="#162B6E" stroke-width="1.60559"/>
<rect x="299.162" y="189.549" width="12.5637" height="42.7174" stroke="#162B6E" stroke-width="1.60559"/>
<rect x="311.733" y="189.549" width="12.5637" height="42.7174" stroke="#162B6E" stroke-width="1.60559"/>
<rect x="324.303" y="189.549" width="12.5637" height="42.7174" stroke="#162B6E" stroke-width="1.60559"/>
<rect x="336.875" y="189.549" width="12.5637" height="42.7174" stroke="#162B6E" stroke-width="1.60559"/>
<rect x="349.443" y="189.549" width="12.5637" height="42.7174" stroke="#162B6E" stroke-width="1.60559"/>
<rect x="249.129" y="264.82" width="37.56" height="83.063" fill="#FFDC00" stroke="#162B6E" stroke-width="2.78702"/>
<rect x="286.788" y="264.82" width="37.6591" height="83.063" fill="#2D61DA" stroke="#162B6E" stroke-width="2.78702"/>
<rect x="324.247" y="264.82" width="37.6591" height="83.063" fill="#2D61DA" stroke="#162B6E" stroke-width="2.78702"/>
<rect x="241.163" y="340.526" width="128.911" height="17.0869" fill="#162B6E" stroke="#162B6E" stroke-width="1.60559"/>
<rect x="261.468" y="306.352" width="12.5637" height="42.7174" stroke="#162B6E" stroke-width="1.60559"/>
<rect x="249.229" y="306.352" width="12.5637" height="42.7174" stroke="#162B6E" stroke-width="1.60559"/>
<rect x="274.038" y="306.352" width="12.5637" height="42.7174" stroke="#162B6E" stroke-width="1.60559"/>
<rect x="286.598" y="306.352" width="12.5637" height="42.7174" stroke="#162B6E" stroke-width="1.60559"/>
<rect x="299.162" y="306.351" width="12.5637" height="42.7174" stroke="#162B6E" stroke-width="1.60559"/>
<rect x="311.733" y="306.351" width="12.5637" height="42.7174" stroke="#162B6E" stroke-width="1.60559"/>
<rect x="324.303" y="306.351" width="12.5637" height="42.7174" stroke="#162B6E" stroke-width="1.60559"/>
<rect x="336.875" y="306.351" width="12.5637" height="42.7174" stroke="#162B6E" stroke-width="1.60559"/>
<rect x="349.443" y="306.351" width="12.5637" height="42.7174" stroke="#162B6E" stroke-width="1.60559"/>
<rect x="445.774" y="39.0237" width="37.56" height="83.063" fill="#2D61DA" stroke="#162B6E" stroke-width="2.78702"/>
<rect x="483.435" y="39.0237" width="37.6591" height="83.063" fill="#2D61DA" stroke="#162B6E" stroke-width="2.78702"/>
<rect x="520.893" y="39.0237" width="37.6591" height="83.063" fill="#FFDC00" stroke="#162B6E" stroke-width="2.78702"/>
<rect x="437.809" y="114.73" width="128.911" height="17.0869" fill="#162B6E" stroke="#162B6E" stroke-width="1.60559"/>
<rect x="458.114" y="80.5555" width="12.5637" height="42.7174" stroke="#162B6E" stroke-width="1.60559"/>
<rect x="445.875" y="80.5555" width="12.5637" height="42.7174" stroke="#162B6E" stroke-width="1.60559"/>
<rect x="470.685" y="80.5555" width="12.5637" height="42.7174" stroke="#162B6E" stroke-width="1.60559"/>
<rect x="483.244" y="80.5555" width="12.5637" height="42.7174" stroke="#162B6E" stroke-width="1.60559"/>
<rect x="495.808" y="80.5553" width="12.5637" height="42.7174" stroke="#162B6E" stroke-width="1.60559"/>
<rect x="508.378" y="80.5553" width="12.5637" height="42.7174" stroke="#162B6E" stroke-width="1.60559"/>
<rect x="520.949" y="80.5553" width="12.5637" height="42.7174" stroke="#162B6E" stroke-width="1.60559"/>
<rect x="533.52" y="80.5553" width="12.5637" height="42.7174" stroke="#162B6E" stroke-width="1.60559"/>
<rect x="546.09" y="80.5553" width="12.5637" height="42.7174" stroke="#162B6E" stroke-width="1.60559"/>
<rect x="445.774" y="148.017" width="37.56" height="83.063" fill="#2D61DA" stroke="#162B6E" stroke-width="2.78702"/>
<rect x="483.435" y="148.017" width="37.6591" height="83.063" fill="#2D61DA" stroke="#162B6E" stroke-width="2.78702"/>
<rect x="520.893" y="148.017" width="37.6591" height="83.063" fill="#2D61DA" stroke="#162B6E" stroke-width="2.78702"/>
<rect x="437.809" y="223.724" width="128.911" height="17.0869" fill="#162B6E" stroke="#162B6E" stroke-width="1.60559"/>
<rect x="458.114" y="189.549" width="12.5637" height="42.7174" stroke="#162B6E" stroke-width="1.60559"/>
<rect x="445.875" y="189.549" width="12.5637" height="42.7174" stroke="#162B6E" stroke-width="1.60559"/>
<rect x="470.685" y="189.549" width="12.5637" height="42.7174" stroke="#162B6E" stroke-width="1.60559"/>
<rect x="483.244" y="189.549" width="12.5637" height="42.7174" stroke="#162B6E" stroke-width="1.60559"/>
<rect x="495.808" y="189.549" width="12.5637" height="42.7174" stroke="#162B6E" stroke-width="1.60559"/>
<rect x="508.378" y="189.549" width="12.5637" height="42.7174" stroke="#162B6E" stroke-width="1.60559"/>
<rect x="520.949" y="189.549" width="12.5637" height="42.7174" stroke="#162B6E" stroke-width="1.60559"/>
<rect x="533.52" y="189.549" width="12.5637" height="42.7174" stroke="#162B6E" stroke-width="1.60559"/>
<rect x="546.09" y="189.549" width="12.5637" height="42.7174" stroke="#162B6E" stroke-width="1.60559"/>
<rect x="445.774" y="264.82" width="37.56" height="83.063" fill="#2D61DA" stroke="#162B6E" stroke-width="2.78702"/>
<rect x="483.435" y="264.82" width="37.6591" height="83.063" fill="#2D61DA" stroke="#162B6E" stroke-width="2.78702"/>
<rect x="520.893" y="264.82" width="37.6591" height="83.063" fill="#2D61DA" stroke="#162B6E" stroke-width="2.78702"/>
<rect x="437.809" y="340.526" width="128.911" height="17.0869" fill="#162B6E" stroke="#162B6E" stroke-width="1.60559"/>
<rect x="458.114" y="306.352" width="12.5637" height="42.7174" stroke="#162B6E" stroke-width="1.60559"/>
<rect x="445.875" y="306.352" width="12.5637" height="42.7174" stroke="#162B6E" stroke-width="1.60559"/>
<rect x="470.685" y="306.352" width="12.5637" height="42.7174" stroke="#162B6E" stroke-width="1.60559"/>
<rect x="483.244" y="306.352" width="12.5637" height="42.7174" stroke="#162B6E" stroke-width="1.60559"/>
<rect x="495.808" y="306.351" width="12.5637" height="42.7174" stroke="#162B6E" stroke-width="1.60559"/>
<rect x="508.378" y="306.351" width="12.5637" height="42.7174" stroke="#162B6E" stroke-width="1.60559"/>
<rect x="520.949" y="306.351" width="12.5637" height="42.7174" stroke="#162B6E" stroke-width="1.60559"/>
<rect x="533.52" y="306.351" width="12.5637" height="42.7174" stroke="#162B6E" stroke-width="1.60559"/>
<rect x="546.09" y="306.351" width="12.5637" height="42.7174" stroke="#162B6E" stroke-width="1.60559"/>
<rect x="642.418" y="39.0237" width="37.56" height="83.063" fill="#2D61DA" stroke="#162B6E" stroke-width="2.78702"/>
<rect x="680.079" y="39.0237" width="37.6591" height="83.063" fill="#2D61DA" stroke="#162B6E" stroke-width="2.78702"/>
<rect x="717.537" y="39.0237" width="37.6591" height="83.063" fill="#2D61DA" stroke="#162B6E" stroke-width="2.78702"/>
<rect x="634.453" y="114.73" width="128.911" height="17.0869" fill="#162B6E" stroke="#162B6E" stroke-width="1.60559"/>
<rect x="654.757" y="80.5555" width="12.5637" height="42.7174" stroke="#162B6E" stroke-width="1.60559"/>
<rect x="642.519" y="80.5555" width="12.5637" height="42.7174" stroke="#162B6E" stroke-width="1.60559"/>
<rect x="667.329" y="80.5555" width="12.5637" height="42.7174" stroke="#162B6E" stroke-width="1.60559"/>
<rect x="679.888" y="80.5555" width="12.5637" height="42.7174" stroke="#162B6E" stroke-width="1.60559"/>
<rect x="692.452" y="80.5553" width="12.5637" height="42.7174" stroke="#162B6E" stroke-width="1.60559"/>
<rect x="705.022" y="80.5553" width="12.5637" height="42.7174" stroke="#162B6E" stroke-width="1.60559"/>
<rect x="717.593" y="80.5553" width="12.5637" height="42.7174" stroke="#162B6E" stroke-width="1.60559"/>
<rect x="730.164" y="80.5553" width="12.5637" height="42.7174" stroke="#162B6E" stroke-width="1.60559"/>
<rect x="742.734" y="80.5553" width="12.5637" height="42.7174" stroke="#162B6E" stroke-width="1.60559"/>
<rect x="642.418" y="148.017" width="37.56" height="83.063" fill="#2D61DA" stroke="#162B6E" stroke-width="2.78702"/>
<rect x="680.079" y="148.017" width="37.6591" height="83.063" fill="#2D61DA" stroke="#162B6E" stroke-width="2.78702"/>
<rect x="717.537" y="148.017" width="37.6591" height="83.063" fill="#2D61DA" stroke="#162B6E" stroke-width="2.78702"/>
<rect x="634.453" y="223.724" width="128.911" height="17.0869" fill="#162B6E" stroke="#162B6E" stroke-width="1.60559"/>
<rect x="654.757" y="189.549" width="12.5637" height="42.7174" stroke="#162B6E" stroke-width="1.60559"/>
<rect x="642.519" y="189.549" width="12.5637" height="42.7174" stroke="#162B6E" stroke-width="1.60559"/>
<rect x="667.329" y="189.549" width="12.5637" height="42.7174" stroke="#162B6E" stroke-width="1.60559"/>
<rect x="679.888" y="189.549" width="12.5637" height="42.7174" stroke="#162B6E" stroke-width="1.60559"/>
<rect x="692.452" y="189.549" width="12.5637" height="42.7174" stroke="#162B6E" stroke-width="1.60559"/>
<rect x="705.022" y="189.549" width="12.5637" height="42.7174" stroke="#162B6E" stroke-width="1.60559"/>
<rect x="717.593" y="189.549" width="12.5637" height="42.7174" stroke="#162B6E" stroke-width="1.60559"/>
<rect x="730.164" y="189.549" width="12.5637" height="42.7174" stroke="#162B6E" stroke-width="1.60559"/>
<rect x="742.734" y="189.549" width="12.5637" height="42.7174" stroke="#162B6E" stroke-width="1.60559"/>
<rect x="642.418" y="264.82" width="37.56" height="83.063" fill="#2D61DA" stroke="#162B6E" stroke-width="2.78702"/>
<rect x="680.079" y="264.82" width="37.6591" height="83.063" fill="#2D61DA" stroke="#162B6E" stroke-width="2.78702"/>
<rect x="717.537" y="264.82" width="37.6591" height="83.063" fill="#2D61DA" stroke="#162B6E" stroke-width="2.78702"/>
<rect x="634.453" y="340.526" width="128.911" height="17.0869" fill="#162B6E" stroke="#162B6E" stroke-width="1.60559"/>
<rect x="654.757" y="306.352" width="12.5637" height="42.7174" stroke="#162B6E" stroke-width="1.60559"/>
<rect x="642.519" y="306.352" width="12.5637" height="42.7174" stroke="#162B6E" stroke-width="1.60559"/>
<rect x="667.329" y="306.352" width="12.5637" height="42.7174" stroke="#162B6E" stroke-width="1.60559"/>
<rect x="679.888" y="306.352" width="12.5637" height="42.7174" stroke="#162B6E" stroke-width="1.60559"/>
<rect x="692.452" y="306.351" width="12.5637" height="42.7174" stroke="#162B6E" stroke-width="1.60559"/>
<rect x="705.022" y="306.351" width="12.5637" height="42.7174" stroke="#162B6E" stroke-width="1.60559"/>
<rect x="717.593" y="306.351" width="12.5637" height="42.7174" stroke="#162B6E" stroke-width="1.60559"/>
<rect x="730.164" y="306.351" width="12.5637" height="42.7174" stroke="#162B6E" stroke-width="1.60559"/>
<rect x="742.734" y="306.351" width="12.5637" height="42.7174" stroke="#162B6E" stroke-width="1.60559"/>
<rect x="839.063" y="39.0237" width="37.56" height="83.063" fill="#2D61DA" stroke="#162B6E" stroke-width="2.78702"/>
<rect x="876.722" y="39.0237" width="37.6591" height="83.063" fill="#2D61DA" stroke="#162B6E" stroke-width="2.78702"/>
<rect x="914.181" y="39.0237" width="37.6591" height="83.063" fill="#2D61DA" stroke="#162B6E" stroke-width="2.78702"/>
<rect x="831.097" y="114.73" width="128.911" height="17.0869" fill="#162B6E" stroke="#162B6E" stroke-width="1.60559"/>
<rect x="851.402" y="80.5555" width="12.5637" height="42.7174" stroke="#162B6E" stroke-width="1.60559"/>
<rect x="839.163" y="80.5555" width="12.5637" height="42.7174" stroke="#162B6E" stroke-width="1.60559"/>
<rect x="863.973" y="80.5555" width="12.5637" height="42.7174" stroke="#162B6E" stroke-width="1.60559"/>
<rect x="876.532" y="80.5555" width="12.5637" height="42.7174" stroke="#162B6E" stroke-width="1.60559"/>
<rect x="889.096" y="80.5553" width="12.5637" height="42.7174" stroke="#162B6E" stroke-width="1.60559"/>
<rect x="901.667" y="80.5553" width="12.5637" height="42.7174" stroke="#162B6E" stroke-width="1.60559"/>
<rect x="914.237" y="80.5553" width="12.5637" height="42.7174" stroke="#162B6E" stroke-width="1.60559"/>
<rect x="926.808" y="80.5553" width="12.5637" height="42.7174" stroke="#162B6E" stroke-width="1.60559"/>
<rect x="939.377" y="80.5553" width="12.5637" height="42.7174" stroke="#162B6E" stroke-width="1.60559"/>
<rect x="839.063" y="148.017" width="37.56" height="83.063" fill="#2D61DA" stroke="#162B6E" stroke-width="2.78702"/>
<rect x="876.722" y="148.017" width="37.6591" height="83.063" fill="#2D61DA" stroke="#162B6E" stroke-width="2.78702"/>
<rect x="914.181" y="148.017" width="37.6591" height="83.063" fill="#FFDC00" stroke="#162B6E" stroke-width="2.78702"/>
<rect x="831.097" y="223.724" width="128.911" height="17.0869" fill="#162B6E" stroke="#162B6E" stroke-width="1.60559"/>
<rect x="851.402" y="189.549" width="12.5637" height="42.7174" stroke="#162B6E" stroke-width="1.60559"/>
<rect x="839.163" y="189.549" width="12.5637" height="42.7174" stroke="#162B6E" stroke-width="1.60559"/>
<rect x="863.973" y="189.549" width="12.5637" height="42.7174" stroke="#162B6E" stroke-width="1.60559"/>
<rect x="876.532" y="189.549" width="12.5637" height="42.7174" stroke="#162B6E" stroke-width="1.60559"/>
<rect x="889.096" y="189.549" width="12.5637" height="42.7174" stroke="#162B6E" stroke-width="1.60559"/>
<rect x="901.667" y="189.549" width="12.5637" height="42.7174" stroke="#162B6E" stroke-width="1.60559"/>
<rect x="914.237" y="189.549" width="12.5637" height="42.7174" stroke="#162B6E" stroke-width="1.60559"/>
<rect x="926.808" y="189.549" width="12.5637" height="42.7174" stroke="#162B6E" stroke-width="1.60559"/>
<rect x="939.377" y="189.549" width="12.5637" height="42.7174" stroke="#162B6E" stroke-width="1.60559"/>
<rect x="839.063" y="264.82" width="37.56" height="83.063" fill="#2D61DA" stroke="#162B6E" stroke-width="2.78702"/>
<rect x="876.722" y="264.82" width="37.6591" height="83.063" fill="#2D61DA" stroke="#162B6E" stroke-width="2.78702"/>
<rect x="914.181" y="264.82" width="37.6591" height="83.063" fill="#2D61DA" stroke="#162B6E" stroke-width="2.78702"/>
<rect x="831.097" y="340.526" width="128.911" height="17.0869" fill="#162B6E" stroke="#162B6E" stroke-width="1.60559"/>
<rect x="851.402" y="306.352" width="12.5637" height="42.7174" stroke="#162B6E" stroke-width="1.60559"/>
<rect x="839.163" y="306.352" width="12.5637" height="42.7174" stroke="#162B6E" stroke-width="1.60559"/>
<rect x="863.973" y="306.352" width="12.5637" height="42.7174" stroke="#162B6E" stroke-width="1.60559"/>
<rect x="876.532" y="306.352" width="12.5637" height="42.7174" stroke="#162B6E" stroke-width="1.60559"/>
<rect x="889.096" y="306.351" width="12.5637" height="42.7174" stroke="#162B6E" stroke-width="1.60559"/>
<rect x="901.667" y="306.351" width="12.5637" height="42.7174" stroke="#162B6E" stroke-width="1.60559"/>
<rect x="914.237" y="306.351" width="12.5637" height="42.7174" stroke="#162B6E" stroke-width="1.60559"/>
<rect x="926.808" y="306.351" width="12.5637" height="42.7174" stroke="#162B6E" stroke-width="1.60559"/>
<rect x="939.377" y="306.351" width="12.5637" height="42.7174" stroke="#162B6E" stroke-width="1.60559"/>
<rect x="1035.71" y="39.0237" width="37.56" height="83.063" fill="#2D61DA" stroke="#162B6E" stroke-width="2.78702"/>
<rect x="1073.37" y="39.0237" width="37.6591" height="83.063" fill="#2D61DA" stroke="#162B6E" stroke-width="2.78702"/>
<rect x="1110.83" y="39.0237" width="37.6591" height="83.063" fill="#2D61DA" stroke="#162B6E" stroke-width="2.78702"/>
<rect x="1027.74" y="114.73" width="128.911" height="17.0869" fill="#162B6E" stroke="#162B6E" stroke-width="1.60559"/>
<rect x="1048.05" y="80.5555" width="12.5637" height="42.7174" stroke="#162B6E" stroke-width="1.60559"/>
<rect x="1035.81" y="80.5555" width="12.5637" height="42.7174" stroke="#162B6E" stroke-width="1.60559"/>
<rect x="1060.62" y="80.5555" width="12.5637" height="42.7174" stroke="#162B6E" stroke-width="1.60559"/>
<rect x="1073.18" y="80.5555" width="12.5637" height="42.7174" stroke="#162B6E" stroke-width="1.60559"/>
<rect x="1085.74" y="80.5553" width="12.5637" height="42.7174" stroke="#162B6E" stroke-width="1.60559"/>
<rect x="1098.31" y="80.5553" width="12.5637" height="42.7174" stroke="#162B6E" stroke-width="1.60559"/>
<rect x="1110.88" y="80.5553" width="12.5637" height="42.7174" stroke="#162B6E" stroke-width="1.60559"/>
<rect x="1123.45" y="80.5553" width="12.5637" height="42.7174" stroke="#162B6E" stroke-width="1.60559"/>
<rect x="1136.02" y="80.5553" width="12.5637" height="42.7174" stroke="#162B6E" stroke-width="1.60559"/>
<rect x="1035.71" y="148.017" width="37.56" height="83.063" fill="#2D61DA" stroke="#162B6E" stroke-width="2.78702"/>
<rect x="1073.37" y="148.017" width="37.6591" height="83.063" fill="#2D61DA" stroke="#162B6E" stroke-width="2.78702"/>
<rect x="1110.83" y="148.017" width="37.6591" height="83.063" fill="#2D61DA" stroke="#162B6E" stroke-width="2.78702"/>
<rect x="1027.74" y="223.724" width="128.911" height="17.0869" fill="#162B6E" stroke="#162B6E" stroke-width="1.60559"/>
<rect x="1048.05" y="189.549" width="12.5637" height="42.7174" stroke="#162B6E" stroke-width="1.60559"/>
<rect x="1035.81" y="189.549" width="12.5637" height="42.7174" stroke="#162B6E" stroke-width="1.60559"/>
<rect x="1060.62" y="189.549" width="12.5637" height="42.7174" stroke="#162B6E" stroke-width="1.60559"/>
<rect x="1073.18" y="189.549" width="12.5637" height="42.7174" stroke="#162B6E" stroke-width="1.60559"/>
<rect x="1085.74" y="189.549" width="12.5637" height="42.7174" stroke="#162B6E" stroke-width="1.60559"/>
<rect x="1098.31" y="189.549" width="12.5637" height="42.7174" stroke="#162B6E" stroke-width="1.60559"/>
<rect x="1110.88" y="189.549" width="12.5637" height="42.7174" stroke="#162B6E" stroke-width="1.60559"/>
<rect x="1123.45" y="189.549" width="12.5637" height="42.7174" stroke="#162B6E" stroke-width="1.60559"/>
<rect x="1136.02" y="189.549" width="12.5637" height="42.7174" stroke="#162B6E" stroke-width="1.60559"/>
<rect x="1035.71" y="264.82" width="37.56" height="83.063" fill="#2D61DA" stroke="#162B6E" stroke-width="2.78702"/>
<rect x="1073.37" y="264.82" width="37.6591" height="83.063" fill="#2D61DA" stroke="#162B6E" stroke-width="2.78702"/>
<rect x="1110.83" y="264.82" width="37.6591" height="83.063" fill="#2D61DA" stroke="#162B6E" stroke-width="2.78702"/>
<rect x="1027.74" y="340.526" width="128.911" height="17.0869" fill="#162B6E" stroke="#162B6E" stroke-width="1.60559"/>
<rect x="1048.05" y="306.352" width="12.5637" height="42.7174" stroke="#162B6E" stroke-width="1.60559"/>
<rect x="1035.81" y="306.352" width="12.5637" height="42.7174" stroke="#162B6E" stroke-width="1.60559"/>
<rect x="1060.62" y="306.352" width="12.5637" height="42.7174" stroke="#162B6E" stroke-width="1.60559"/>
<rect x="1073.18" y="306.352" width="12.5637" height="42.7174" stroke="#162B6E" stroke-width="1.60559"/>
<rect x="1085.74" y="306.351" width="12.5637" height="42.7174" stroke="#162B6E" stroke-width="1.60559"/>
<rect x="1098.31" y="306.351" width="12.5637" height="42.7174" stroke="#162B6E" stroke-width="1.60559"/>
<rect x="1110.88" y="306.351" width="12.5637" height="42.7174" stroke="#162B6E" stroke-width="1.60559"/>
<rect x="1123.45" y="306.351" width="12.5637" height="42.7174" stroke="#162B6E" stroke-width="1.60559"/>
<rect x="1136.02" y="306.351" width="12.5637" height="42.7174" stroke="#162B6E" stroke-width="1.60559"/>
<rect x="52.486" y="380.294" width="37.56" height="83.063" fill="#2D61DA" stroke="#162B6E" stroke-width="2.78702"/>
<rect x="90.1454" y="380.294" width="37.6591" height="83.063" fill="#2D61DA" stroke="#162B6E" stroke-width="2.78702"/>
<rect x="127.605" y="380.294" width="37.6591" height="83.063" fill="#2D61DA" stroke="#162B6E" stroke-width="2.78702"/>
<rect x="44.5204" y="456" width="128.911" height="17.0869" fill="#162B6E" stroke="#162B6E" stroke-width="1.60559"/>
<rect x="64.8256" y="421.826" width="12.5637" height="42.7174" stroke="#162B6E" stroke-width="1.60559"/>
<rect x="52.5868" y="421.826" width="12.5637" height="42.7174" stroke="#162B6E" stroke-width="1.60559"/>
<rect x="77.3956" y="421.826" width="12.5637" height="42.7174" stroke="#162B6E" stroke-width="1.60559"/>
<rect x="89.9564" y="421.826" width="12.5637" height="42.7174" stroke="#162B6E" stroke-width="1.60559"/>
<rect x="102.52" y="421.825" width="12.5637" height="42.7174" stroke="#162B6E" stroke-width="1.60559"/>
<rect x="115.091" y="421.825" width="12.5637" height="42.7174" stroke="#162B6E" stroke-width="1.60559"/>
<rect x="127.661" y="421.825" width="12.5637" height="42.7174" stroke="#162B6E" stroke-width="1.60559"/>
<rect x="140.232" y="421.825" width="12.5637" height="42.7174" stroke="#162B6E" stroke-width="1.60559"/>
<rect x="152.801" y="421.825" width="12.5637" height="42.7174" stroke="#162B6E" stroke-width="1.60559"/>
<rect x="52.486" y="489.288" width="37.56" height="83.063" fill="#2D61DA" stroke="#162B6E" stroke-width="2.78702"/>
<rect x="90.1454" y="489.288" width="37.6591" height="83.063" fill="#2D61DA" stroke="#162B6E" stroke-width="2.78702"/>
<rect x="127.605" y="489.288" width="37.6591" height="83.063" fill="#2D61DA" stroke="#162B6E" stroke-width="2.78702"/>
<rect x="249.129" y="380.294" width="37.56" height="83.063" fill="#2D61DA" stroke="#162B6E" stroke-width="2.78702"/>
<rect x="286.788" y="380.294" width="37.6591" height="83.063" fill="#2D61DA" stroke="#162B6E" stroke-width="2.78702"/>
<rect x="324.247" y="380.294" width="37.6591" height="83.063" fill="#2D61DA" stroke="#162B6E" stroke-width="2.78702"/>
<rect x="241.163" y="456" width="128.911" height="17.0869" fill="#162B6E" stroke="#162B6E" stroke-width="1.60559"/>
<rect x="261.468" y="421.826" width="12.5637" height="42.7174" stroke="#162B6E" stroke-width="1.60559"/>
<rect x="249.229" y="421.826" width="12.5637" height="42.7174" stroke="#162B6E" stroke-width="1.60559"/>
<rect x="274.038" y="421.826" width="12.5637" height="42.7174" stroke="#162B6E" stroke-width="1.60559"/>
<rect x="286.598" y="421.826" width="12.5637" height="42.7174" stroke="#162B6E" stroke-width="1.60559"/>
<rect x="299.162" y="421.826" width="12.5637" height="42.7174" stroke="#162B6E" stroke-width="1.60559"/>
<rect x="311.733" y="421.826" width="12.5637" height="42.7174" stroke="#162B6E" stroke-width="1.60559"/>
<rect x="324.303" y="421.826" width="12.5637" height="42.7174" stroke="#162B6E" stroke-width="1.60559"/>
<rect x="336.875" y="421.826" width="12.5637" height="42.7174" stroke="#162B6E" stroke-width="1.60559"/>
<rect x="349.443" y="421.826" width="12.5637" height="42.7174" stroke="#162B6E" stroke-width="1.60559"/>
<rect x="249.129" y="489.288" width="37.56" height="83.063" fill="#2D61DA" stroke="#162B6E" stroke-width="2.78702"/>
<rect x="286.788" y="489.288" width="37.6591" height="83.063" fill="#2D61DA" stroke="#162B6E" stroke-width="2.78702"/>
<rect x="324.247" y="489.288" width="37.6591" height="83.063" fill="#2D61DA" stroke="#162B6E" stroke-width="2.78702"/>
<rect x="445.774" y="380.294" width="37.56" height="83.063" fill="#2D61DA" stroke="#162B6E" stroke-width="2.78702"/>
<rect x="483.435" y="380.294" width="37.6591" height="83.063" fill="#2D61DA" stroke="#162B6E" stroke-width="2.78702"/>
<rect x="520.893" y="380.294" width="37.6591" height="83.063" fill="#FFDC00" stroke="#162B6E" stroke-width="2.78702"/>
<rect x="437.809" y="456" width="128.911" height="17.0869" fill="#162B6E" stroke="#162B6E" stroke-width="1.60559"/>
<rect x="458.114" y="421.826" width="12.5637" height="42.7174" stroke="#162B6E" stroke-width="1.60559"/>
<rect x="445.875" y="421.826" width="12.5637" height="42.7174" stroke="#162B6E" stroke-width="1.60559"/>
<rect x="470.685" y="421.826" width="12.5637" height="42.7174" stroke="#162B6E" stroke-width="1.60559"/>
<rect x="483.244" y="421.826" width="12.5637" height="42.7174" stroke="#162B6E" stroke-width="1.60559"/>
<rect x="495.808" y="421.825" width="12.5637" height="42.7174" stroke="#162B6E" stroke-width="1.60559"/>
<rect x="508.378" y="421.825" width="12.5637" height="42.7174" stroke="#162B6E" stroke-width="1.60559"/>
<rect x="520.949" y="421.825" width="12.5637" height="42.7174" stroke="#162B6E" stroke-width="1.60559"/>
<rect x="533.52" y="421.825" width="12.5637" height="42.7174" stroke="#162B6E" stroke-width="1.60559"/>
<rect x="546.09" y="421.825" width="12.5637" height="42.7174" stroke="#162B6E" stroke-width="1.60559"/>
<rect x="445.774" y="489.288" width="37.56" height="83.063" fill="#2D61DA" stroke="#162B6E" stroke-width="2.78702"/>
<rect x="483.435" y="489.288" width="37.6591" height="83.063" fill="#2D61DA" stroke="#162B6E" stroke-width="2.78702"/>
<rect x="520.893" y="489.288" width="37.6591" height="83.063" fill="#2D61DA" stroke="#162B6E" stroke-width="2.78702"/>
<rect x="642.418" y="380.294" width="37.56" height="83.063" fill="#2D61DA" stroke="#162B6E" stroke-width="2.78702"/>
<rect x="680.079" y="380.294" width="37.6591" height="83.063" fill="#2D61DA" stroke="#162B6E" stroke-width="2.78702"/>
<rect x="717.537" y="380.294" width="37.6591" height="83.063" fill="#2D61DA" stroke="#162B6E" stroke-width="2.78702"/>
<rect x="634.453" y="456" width="128.911" height="17.0869" fill="#162B6E" stroke="#162B6E" stroke-width="1.60559"/>
<rect x="654.757" y="421.826" width="12.5637" height="42.7174" stroke="#162B6E" stroke-width="1.60559"/>
<rect x="642.519" y="421.826" width="12.5637" height="42.7174" stroke="#162B6E" stroke-width="1.60559"/>
<rect x="667.329" y="421.826" width="12.5637" height="42.7174" stroke="#162B6E" stroke-width="1.60559"/>
<rect x="679.888" y="421.826" width="12.5637" height="42.7174" stroke="#162B6E" stroke-width="1.60559"/>
<rect x="692.452" y="421.825" width="12.5637" height="42.7174" stroke="#162B6E" stroke-width="1.60559"/>
<rect x="705.022" y="421.825" width="12.5637" height="42.7174" stroke="#162B6E" stroke-width="1.60559"/>
<rect x="717.593" y="421.825" width="12.5637" height="42.7174" stroke="#162B6E" stroke-width="1.60559"/>
<rect x="730.164" y="421.825" width="12.5637" height="42.7174" stroke="#162B6E" stroke-width="1.60559"/>
<rect x="742.734" y="421.825" width="12.5637" height="42.7174" stroke="#162B6E" stroke-width="1.60559"/>
<rect x="642.418" y="489.288" width="37.56" height="83.063" fill="#2D61DA" stroke="#162B6E" stroke-width="2.78702"/>
<rect x="680.079" y="489.288" width="37.6591" height="83.063" fill="#2D61DA" stroke="#162B6E" stroke-width="2.78702"/>
<rect x="717.537" y="489.288" width="37.6591" height="83.063" fill="#2D61DA" stroke="#162B6E" stroke-width="2.78702"/>
<rect x="839.063" y="380.294" width="37.56" height="83.063" fill="#2D61DA" stroke="#162B6E" stroke-width="2.78702"/>
<rect x="876.722" y="380.294" width="37.6591" height="83.063" fill="#2D61DA" stroke="#162B6E" stroke-width="2.78702"/>
<rect x="914.181" y="380.294" width="37.6591" height="83.063" fill="#2D61DA" stroke="#162B6E" stroke-width="2.78702"/>
<rect x="831.097" y="456" width="128.911" height="17.0869" fill="#162B6E" stroke="#162B6E" stroke-width="1.60559"/>
<rect x="851.402" y="421.826" width="12.5637" height="42.7174" stroke="#162B6E" stroke-width="1.60559"/>
<rect x="839.163" y="421.826" width="12.5637" height="42.7174" stroke="#162B6E" stroke-width="1.60559"/>
<rect x="863.973" y="421.826" width="12.5637" height="42.7174" stroke="#162B6E" stroke-width="1.60559"/>
<rect x="876.532" y="421.826" width="12.5637" height="42.7174" stroke="#162B6E" stroke-width="1.60559"/>
<rect x="889.096" y="421.825" width="12.5637" height="42.7174" stroke="#162B6E" stroke-width="1.60559"/>
<rect x="901.667" y="421.825" width="12.5637" height="42.7174" stroke="#162B6E" stroke-width="1.60559"/>
<rect x="914.237" y="421.825" width="12.5637" height="42.7174" stroke="#162B6E" stroke-width="1.60559"/>
<rect x="926.808" y="421.825" width="12.5637" height="42.7174" stroke="#162B6E" stroke-width="1.60559"/>
<rect x="939.377" y="421.825" width="12.5637" height="42.7174" stroke="#162B6E" stroke-width="1.60559"/>
<rect x="839.063" y="489.288" width="37.56" height="83.063" fill="#2D61DA" stroke="#162B6E" stroke-width="2.78702"/>
<rect x="876.722" y="489.288" width="37.6591" height="83.063" fill="#2D61DA" stroke="#162B6E" stroke-width="2.78702"/>
<rect x="914.181" y="489.288" width="37.6591" height="83.063" fill="#FFDC00" stroke="#162B6E" stroke-width="2.78702"/>
<rect x="1035.71" y="380.294" width="37.56" height="83.063" fill="#2D61DA" stroke="#162B6E" stroke-width="2.78702"/>
<rect x="1073.37" y="380.294" width="37.6591" height="83.063" fill="#2D61DA" stroke="#162B6E" stroke-width="2.78702"/>
<rect x="1110.83" y="380.294" width="37.6591" height="83.063" fill="#2D61DA" stroke="#162B6E" stroke-width="2.78702"/>
<rect x="1027.74" y="456" width="128.911" height="17.0869" fill="#162B6E" stroke="#162B6E" stroke-width="1.60559"/>
<rect x="1048.05" y="421.826" width="12.5637" height="42.7174" stroke="#162B6E" stroke-width="1.60559"/>
<rect x="1035.81" y="421.826" width="12.5637" height="42.7174" stroke="#162B6E" stroke-width="1.60559"/>
<rect x="1060.62" y="421.826" width="12.5637" height="42.7174" stroke="#162B6E" stroke-width="1.60559"/>
<rect x="1073.18" y="421.826" width="12.5637" height="42.7174" stroke="#162B6E" stroke-width="1.60559"/>
<rect x="1085.74" y="421.825" width="12.5637" height="42.7174" stroke="#162B6E" stroke-width="1.60559"/>
<rect x="1098.31" y="421.825" width="12.5637" height="42.7174" stroke="#162B6E" stroke-width="1.60559"/>
<rect x="1110.88" y="421.825" width="12.5637" height="42.7174" stroke="#162B6E" stroke-width="1.60559"/>
<rect x="1123.45" y="421.825" width="12.5637" height="42.7174" stroke="#162B6E" stroke-width="1.60559"/>
<rect x="1136.02" y="421.825" width="12.5637" height="42.7174" stroke="#162B6E" stroke-width="1.60559"/>
<rect x="1035.71" y="489.288" width="37.56" height="83.063" fill="#2D61DA" stroke="#162B6E" stroke-width="2.78702"/>
<rect x="1073.37" y="489.288" width="37.6591" height="83.063" fill="#2D61DA" stroke="#162B6E" stroke-width="2.78702"/>
<rect x="1110.83" y="489.288" width="37.6591" height="83.063" fill="#2D61DA" stroke="#162B6E" stroke-width="2.78702"/>
<path fill-rule="evenodd" clip-rule="evenodd" d="M1135.9 78.5228C1045.07 109.746 876.058 88.8822 857.221 80.5872L848.964 118.519C929.73 132.195 1040.17 138.904 1146.33 116.945L1135.9 78.5228ZM1135.39 84.3658C1135.39 85.2885 1134.65 86.0365 1133.72 86.0365C1132.8 86.0365 1132.05 85.2885 1132.05 84.3658C1132.05 83.4431 1132.8 82.6951 1133.72 82.6951C1134.65 82.6951 1135.39 83.4431 1135.39 84.3658ZM859.907 86.7328C859.907 87.6555 859.159 88.4035 858.236 88.4035C857.314 88.4035 856.566 87.6555 856.566 86.7328C856.566 85.8101 857.314 85.0621 858.236 85.0621C859.159 85.0621 859.907 85.8101 859.907 86.7328ZM853.4 116.271C854.323 116.271 855.071 115.523 855.071 114.6C855.071 113.677 854.323 112.929 853.4 112.929C852.477 112.929 851.729 113.677 851.729 114.6C851.729 115.523 852.477 116.271 853.4 116.271ZM1142 114.73C1142 115.653 1141.25 116.401 1140.33 116.401C1139.41 116.401 1138.66 115.653 1138.66 114.73C1138.66 113.807 1139.41 113.059 1140.33 113.059C1141.25 113.059 1142 113.807 1142 114.73Z" fill="#FFDC00"/>
<path d="M1133.94 83.6442C1134.94 84.3209 1138.87 81.3733 1138.87 80.0959M1142 114.783C1143.01 115.459 1148.58 113.827 1148.58 112.55M857.284 85.9089C855.744 86.4199 853.474 81.5012 853.183 80.1483M852.332 113.928C851.324 114.605 841.621 114.764 841.33 113.411" stroke="#162B6E" stroke-linecap="round"/>
<path fill-rule="evenodd" clip-rule="evenodd" d="M348.933 78.5228C258.103 109.746 89.0884 88.8822 70.2516 80.5872L61.9945 118.519C142.76 132.195 253.201 138.904 359.362 116.945L348.933 78.5228ZM348.424 84.3658C348.424 85.2885 347.676 86.0365 346.753 86.0365C345.83 86.0365 345.082 85.2885 345.082 84.3658C345.082 83.4431 345.83 82.6951 346.753 82.6951C347.676 82.6951 348.424 83.4431 348.424 84.3658ZM72.9373 86.7328C72.9373 87.6555 72.1893 88.4035 71.2666 88.4035C70.344 88.4035 69.596 87.6555 69.596 86.7328C69.596 85.8101 70.344 85.0621 71.2666 85.0621C72.1893 85.0621 72.9373 85.8101 72.9373 86.7328ZM66.43 116.271C67.3527 116.271 68.1007 115.523 68.1007 114.6C68.1007 113.677 67.3527 112.929 66.43 112.929C65.5073 112.929 64.7593 113.677 64.7593 114.6C64.7593 115.523 65.5073 116.271 66.43 116.271ZM355.029 114.73C355.029 115.653 354.281 116.401 353.358 116.401C352.435 116.401 351.688 115.653 351.688 114.73C351.688 113.807 352.435 113.059 353.358 113.059C354.281 113.059 355.029 113.807 355.029 114.73Z" fill="#FFDC00"/>
<path d="M346.965 83.6442C347.973 84.3209 351.901 81.3733 351.901 80.0959M355.029 114.783C356.037 115.459 361.615 113.827 361.615 112.55M70.3143 85.9089C68.7739 86.4199 66.5044 81.5012 66.2134 80.1483M65.3625 113.928C64.3544 114.605 54.6513 114.764 54.3604 113.411" stroke="#162B6E" stroke-linecap="round"/>
<path d="M84.3557 113.227C84.1424 113.192 83.9646 113.094 83.8224 112.925C83.698 112.756 83.6535 112.569 83.6891 112.338C84.7379 105.743 85.7779 99.1477 86.8268 92.5435C86.8623 92.3213 86.9601 92.1524 87.129 92.028C87.3156 91.9124 87.5112 91.868 87.7156 91.9036C88.8178 92.0813 89.92 92.2502 91.031 92.4191C91.3599 92.4724 91.591 92.5969 91.7244 92.8013C91.8843 92.988 91.9732 93.1391 91.9999 93.2457C93.3154 96.73 94.6487 100.214 96.0086 103.69C98.3019 100.739 100.568 97.7789 102.808 94.8101C102.888 94.7123 103.004 94.5968 103.173 94.4546C103.359 94.2946 103.635 94.2412 103.982 94.2857C105.075 94.4368 106.177 94.579 107.27 94.7301C107.493 94.7568 107.67 94.8546 107.795 95.0145C107.937 95.1745 107.999 95.3701 107.973 95.6012C107.11 102.223 106.239 108.845 105.377 115.467C105.351 115.689 105.235 115.867 105.057 115.983C104.888 116.107 104.693 116.152 104.462 116.125C103.208 115.956 101.955 115.796 100.702 115.618C100.471 115.583 100.284 115.485 100.133 115.325C100.008 115.165 99.9552 114.969 99.9907 114.747C100.515 110.925 101.04 107.112 101.564 103.29C100.097 105.254 98.6308 107.219 97.1464 109.174C97.0397 109.343 96.8886 109.494 96.7019 109.61C96.5153 109.725 96.2753 109.77 95.982 109.725C95.4398 109.645 94.8976 109.565 94.3554 109.485C94.062 109.441 93.8398 109.334 93.6976 109.174C93.5554 109.005 93.4398 108.827 93.3599 108.623C92.4977 106.321 91.6355 104.028 90.7911 101.725C90.2133 105.539 89.6355 109.343 89.0578 113.156C89.0222 113.378 88.9245 113.547 88.7556 113.672C88.5867 113.796 88.3911 113.832 88.16 113.796C86.8979 113.601 85.6357 113.405 84.3824 113.209L84.3557 113.227ZM110.453 116.898C110.221 116.872 110.044 116.774 109.91 116.614C109.786 116.436 109.733 116.24 109.759 116.036C110.586 109.405 111.421 102.783 112.248 96.1523C112.275 95.9301 112.372 95.7523 112.532 95.6279C112.719 95.5034 112.906 95.459 113.11 95.4856C114.435 95.6456 115.759 95.8145 117.083 95.9656C117.306 95.9923 117.483 96.0901 117.608 96.2501C117.732 96.4101 117.786 96.6056 117.759 96.8278C117.27 100.943 116.79 105.05 116.301 109.165C119.768 105.343 123.19 101.494 126.559 97.6278C126.683 97.4767 126.825 97.3522 127.003 97.2722C127.181 97.1656 127.403 97.13 127.67 97.1567C128.861 97.2811 130.052 97.4056 131.243 97.5211C131.447 97.5389 131.616 97.6278 131.75 97.7878C131.901 97.9478 131.963 98.1433 131.945 98.3655C131.278 105.014 130.621 111.663 129.954 118.303C129.936 118.525 129.83 118.703 129.643 118.827C129.483 118.951 129.296 119.005 129.083 118.987C127.723 118.854 126.363 118.711 125.003 118.569C124.772 118.543 124.576 118.454 124.425 118.294C124.292 118.134 124.239 117.947 124.265 117.716C124.692 113.752 125.11 109.787 125.536 105.823C122.159 109.53 118.737 113.227 115.27 116.889C115.146 117.023 114.995 117.138 114.808 117.236C114.648 117.343 114.417 117.378 114.124 117.343C112.897 117.2 111.679 117.049 110.453 116.898V116.898ZM135.083 119.574C134.852 119.556 134.665 119.467 134.532 119.307C134.398 119.147 134.336 118.96 134.363 118.729C134.994 112.081 135.616 105.432 136.247 98.7744C136.265 98.5522 136.354 98.3744 136.514 98.2411C136.674 98.1078 136.86 98.0544 137.092 98.0811C139.971 98.3478 142.851 98.6055 145.731 98.8366C147.438 98.9788 148.896 99.3611 150.113 99.9921C151.349 100.605 152.282 101.45 152.913 102.552C153.562 103.654 153.829 104.996 153.713 106.596C153.598 108.179 153.144 109.45 152.335 110.418C151.553 111.387 150.496 112.081 149.153 112.472C147.838 112.863 146.309 112.996 144.576 112.854C143.331 112.747 142.087 112.649 140.843 112.534C140.647 114.774 140.451 117.014 140.256 119.263C140.238 119.485 140.131 119.663 139.954 119.796C139.794 119.929 139.598 119.983 139.367 119.965C137.945 119.84 136.514 119.707 135.092 119.574H135.083ZM141.109 108.294C142.327 108.401 143.545 108.507 144.762 108.605C145.66 108.676 146.38 108.507 146.94 108.099C147.518 107.69 147.838 107.023 147.918 106.107C147.98 105.325 147.802 104.659 147.393 104.09C146.985 103.521 146.256 103.192 145.225 103.112C144.016 103.014 142.807 102.908 141.598 102.801C141.438 104.632 141.278 106.463 141.118 108.303L141.109 108.294ZM163.268 121.707C163.037 121.689 162.851 121.609 162.708 121.458C162.566 121.307 162.504 121.12 162.522 120.889C162.913 114.223 163.313 107.556 163.704 100.881C163.713 100.659 163.802 100.472 163.953 100.339C164.104 100.205 164.299 100.143 164.522 100.152C165.846 100.232 167.179 100.303 168.504 100.374C168.726 100.383 168.913 100.472 169.046 100.623C169.179 100.774 169.241 100.961 169.233 101.192C169.099 103.663 168.975 106.143 168.841 108.614C169.473 108.65 170.113 108.676 170.744 108.712C172.415 106.25 174.059 103.788 175.703 101.317C175.81 101.157 175.961 101.032 176.157 100.934C176.343 100.819 176.583 100.765 176.877 100.783C178.361 100.845 179.846 100.908 181.33 100.961C181.534 100.961 181.694 101.05 181.819 101.192C181.934 101.317 181.997 101.468 181.988 101.628C181.988 101.752 181.934 101.877 181.854 101.992C179.819 105.041 177.766 108.09 175.686 111.13C177.668 114.596 179.677 118.063 181.721 121.52C181.783 121.6 181.81 121.716 181.801 121.867C181.801 122.071 181.712 122.24 181.561 122.382C181.428 122.498 181.259 122.56 181.045 122.551C179.481 122.498 177.908 122.436 176.343 122.365C176.006 122.347 175.757 122.267 175.588 122.116C175.446 121.965 175.339 121.84 175.259 121.734C173.73 119.04 172.219 116.347 170.726 113.654C170.015 113.618 169.304 113.583 168.593 113.547C168.459 116.098 168.326 118.658 168.193 121.209C168.184 121.431 168.095 121.618 167.944 121.751C167.793 121.885 167.597 121.947 167.357 121.938C165.988 121.867 164.628 121.787 163.259 121.707H163.268ZM185.534 122.694C185.303 122.694 185.116 122.605 184.965 122.462C184.823 122.311 184.752 122.125 184.761 121.902C184.974 115.227 185.188 108.552 185.392 101.877C185.392 101.654 185.481 101.468 185.623 101.325C185.774 101.183 185.961 101.121 186.183 101.13C189.072 101.219 191.961 101.29 194.841 101.352C196.547 101.388 198.032 101.681 199.285 102.232C200.556 102.765 201.543 103.556 202.236 104.614C202.947 105.672 203.302 106.996 203.285 108.605C203.267 110.187 202.894 111.494 202.156 112.507C201.436 113.529 200.423 114.276 199.116 114.756C197.827 115.227 196.316 115.449 194.574 115.423C193.329 115.396 192.076 115.369 190.832 115.343C190.778 117.591 190.725 119.84 190.672 122.089C190.672 122.311 190.574 122.498 190.405 122.64C190.254 122.782 190.058 122.845 189.827 122.845C188.396 122.809 186.965 122.765 185.534 122.72V122.694ZM190.841 111.058C192.058 111.085 193.285 111.112 194.503 111.138C195.401 111.156 196.112 110.943 196.645 110.498C197.196 110.054 197.48 109.37 197.489 108.445C197.498 107.663 197.285 107.005 196.84 106.463C196.396 105.921 195.649 105.636 194.618 105.619C193.409 105.592 192.192 105.565 190.983 105.539C190.938 107.379 190.894 109.218 190.85 111.058H190.841ZM207.009 123.067C206.778 123.067 206.582 122.996 206.44 122.845C206.289 122.702 206.218 122.516 206.218 122.285C206.253 115.609 206.289 108.925 206.325 102.25C206.325 102.028 206.396 101.841 206.547 101.699C206.689 101.557 206.876 101.485 207.107 101.485C211.924 101.503 216.742 101.485 221.551 101.414C221.782 101.414 221.968 101.477 222.111 101.619C222.253 101.761 222.333 101.948 222.333 102.17C222.351 103.139 222.36 104.099 222.377 105.068C222.377 105.29 222.315 105.476 222.173 105.627C222.031 105.77 221.844 105.85 221.613 105.85C218.306 105.894 215 105.921 211.693 105.93C211.693 107.316 211.693 108.703 211.693 110.09C214.786 110.09 217.889 110.063 220.982 110.018C221.213 110.018 221.4 110.098 221.551 110.258C221.702 110.401 221.773 110.587 221.773 110.81C221.782 111.707 221.8 112.596 221.808 113.494C221.808 113.698 221.737 113.885 221.595 114.054C221.453 114.196 221.266 114.276 221.035 114.276C217.924 114.321 214.813 114.338 211.693 114.347C211.693 115.778 211.693 117.2 211.693 118.631C215.142 118.631 218.582 118.596 222.031 118.551C222.262 118.551 222.448 118.614 222.6 118.756C222.751 118.898 222.822 119.085 222.831 119.307C222.848 120.276 222.857 121.236 222.875 122.205C222.875 122.427 222.804 122.614 222.662 122.765C222.52 122.907 222.324 122.987 222.093 122.987C217.062 123.058 212.031 123.085 207 123.067H207.009ZM226.084 127.236C225.871 127.236 225.675 127.173 225.506 127.031C225.355 126.889 225.275 126.702 225.275 126.48C225.231 123.911 225.177 121.342 225.133 118.774C225.133 118.569 225.195 118.391 225.346 118.249C225.515 118.08 225.702 118 225.915 117.991C226.102 117.991 226.297 117.991 226.484 117.983C227.008 117.974 227.435 117.725 227.764 117.245C228.093 116.765 228.35 116.098 228.537 115.254C228.724 114.383 228.848 113.369 228.91 112.196C228.964 111.005 228.981 109.707 228.946 108.312C228.901 106.223 228.848 104.143 228.804 102.054C228.804 101.832 228.866 101.645 229.008 101.494C229.168 101.343 229.355 101.272 229.559 101.263C234.404 101.148 239.248 100.979 244.092 100.774C244.323 100.765 244.51 100.828 244.661 100.97C244.812 101.103 244.892 101.29 244.901 101.512C245.132 106.801 245.363 112.089 245.594 117.378C246.092 117.36 246.581 117.334 247.079 117.316C247.31 117.307 247.505 117.378 247.656 117.538C247.834 117.671 247.923 117.849 247.932 118.054C248.047 120.622 248.172 123.182 248.287 125.751C248.296 125.956 248.216 126.133 248.056 126.285C247.914 126.453 247.727 126.542 247.496 126.56C246.128 126.622 244.75 126.684 243.381 126.738C243.15 126.747 242.954 126.676 242.794 126.516C242.643 126.382 242.554 126.205 242.554 126C242.51 124.818 242.465 123.636 242.412 122.454C238.59 122.605 234.768 122.729 230.946 122.827C230.973 124.009 231.008 125.191 231.035 126.373C231.035 126.578 230.973 126.756 230.821 126.907C230.679 127.076 230.484 127.164 230.253 127.164C228.866 127.2 227.488 127.227 226.102 127.253L226.084 127.236ZM233.204 117.814C235.443 117.751 237.692 117.68 239.932 117.591C239.79 113.689 239.648 109.787 239.506 105.885C237.772 105.947 236.039 106.01 234.306 106.063C234.332 106.996 234.359 107.93 234.386 108.863C234.448 111.041 234.386 112.863 234.172 114.329C233.968 115.778 233.639 116.934 233.204 117.814ZM252.154 121.991C251.923 122 251.727 121.938 251.567 121.805C251.407 121.645 251.327 121.467 251.318 121.262C250.981 114.587 250.643 107.921 250.305 101.245C250.296 101.023 250.358 100.828 250.492 100.677C250.652 100.525 250.83 100.445 251.034 100.437C252.367 100.365 253.692 100.294 255.016 100.223C255.247 100.214 255.434 100.268 255.585 100.41C255.736 100.543 255.816 100.73 255.834 100.952C256.074 105.085 256.314 109.218 256.545 113.352C259.291 108.987 261.985 104.605 264.634 100.205C264.722 100.037 264.847 99.8944 265.007 99.7788C265.167 99.6455 265.371 99.5655 265.647 99.5477C266.838 99.4677 268.038 99.3788 269.229 99.2899C269.433 99.2722 269.62 99.3344 269.771 99.4677C269.949 99.601 270.047 99.7788 270.056 100.001C270.562 106.659 271.069 113.325 271.567 119.983C271.584 120.205 271.513 120.4 271.353 120.551C271.22 120.702 271.042 120.791 270.829 120.809C269.469 120.907 268.1 121.014 266.74 121.102C266.509 121.12 266.305 121.058 266.127 120.925C265.967 120.791 265.878 120.614 265.869 120.382C265.593 116.4 265.327 112.427 265.051 108.445C262.376 112.685 259.647 116.916 256.874 121.129C256.776 121.28 256.652 121.422 256.483 121.556C256.34 121.689 256.118 121.76 255.825 121.778C254.598 121.849 253.372 121.911 252.145 121.974L252.154 121.991ZM281.726 119.92C281.495 119.938 281.3 119.885 281.14 119.751C280.98 119.618 280.891 119.44 280.873 119.218C280.411 113.912 279.949 108.614 279.486 103.308C277.646 103.468 275.806 103.619 273.958 103.77C273.727 103.788 273.54 103.734 273.38 103.601C273.22 103.45 273.131 103.272 273.122 103.068C273.033 101.974 272.944 100.872 272.864 99.7788C272.847 99.5566 272.9 99.3611 273.033 99.2099C273.167 99.0588 273.344 98.97 273.575 98.9522C279.113 98.5078 284.642 98.0011 290.17 97.4411C290.401 97.4145 290.588 97.4678 290.748 97.6011C290.908 97.7256 290.997 97.9033 291.024 98.1344C291.139 99.2277 291.246 100.321 291.361 101.414C291.379 101.619 291.326 101.814 291.201 101.992C291.068 102.152 290.89 102.241 290.668 102.268C288.828 102.454 286.988 102.632 285.148 102.81C285.646 108.107 286.153 113.405 286.65 118.711C286.668 118.934 286.615 119.129 286.482 119.289C286.348 119.449 286.162 119.538 285.93 119.556C284.535 119.689 283.139 119.814 281.753 119.938L281.726 119.92ZM305.085 117.823C303.148 118.054 301.423 117.938 299.921 117.485C298.419 117.032 297.201 116.232 296.277 115.094C295.343 113.929 294.739 112.427 294.464 110.57C294.348 109.69 294.25 108.818 294.152 107.939C294.064 107.059 293.975 106.17 293.904 105.272C293.788 103.423 294.064 101.832 294.712 100.508C295.379 99.1566 296.375 98.0811 297.708 97.2989C299.032 96.5078 300.632 96.0101 302.499 95.7879C304.348 95.5745 306.001 95.6901 307.476 96.1523C308.97 96.6056 310.196 97.4145 311.165 98.5789C312.125 99.7166 312.765 101.201 313.058 103.032C313.218 103.921 313.352 104.81 313.467 105.681C313.583 106.561 313.672 107.441 313.743 108.321C313.903 110.187 313.663 111.796 313.023 113.138C312.383 114.463 311.387 115.52 310.027 116.312C308.667 117.103 307.023 117.609 305.085 117.84V117.823ZM304.57 113.414C305.681 113.281 306.543 112.845 307.156 112.116C307.787 111.378 308.036 110.294 307.903 108.854C307.832 107.947 307.752 107.103 307.654 106.303C307.556 105.503 307.432 104.685 307.29 103.832C307.13 102.881 306.854 102.125 306.445 101.574C306.063 100.997 305.574 100.605 304.979 100.383C304.383 100.161 303.734 100.099 303.005 100.179C302.303 100.259 301.69 100.481 301.165 100.828C300.641 101.174 300.25 101.681 299.983 102.33C299.717 102.961 299.619 103.761 299.69 104.721C299.77 105.583 299.85 106.41 299.939 107.21C300.028 108.01 300.134 108.854 300.259 109.752C300.481 111.174 300.979 112.169 301.743 112.747C302.508 113.325 303.45 113.547 304.561 113.414H304.57ZM319.298 115.716C319.067 115.752 318.872 115.698 318.703 115.583C318.534 115.458 318.436 115.289 318.409 115.058C317.52 108.436 316.632 101.814 315.734 95.2012C315.707 94.979 315.752 94.7834 315.876 94.6235C316.001 94.4635 316.178 94.3657 316.4 94.339C319.52 93.9124 322.649 93.4768 325.769 93.0146C327.529 92.7569 329.004 92.7835 330.204 93.0946C331.404 93.4057 332.347 93.9835 333.022 94.8101C333.715 95.619 334.16 96.6412 334.355 97.8767C334.471 98.6055 334.426 99.2811 334.231 99.8944C334.053 100.481 333.778 100.997 333.422 101.423C333.084 101.85 332.755 102.17 332.427 102.392C333.271 102.632 334.053 103.13 334.791 103.868C335.546 104.605 336.009 105.53 336.186 106.641C336.4 107.983 336.266 109.183 335.795 110.258C335.333 111.307 334.551 112.187 333.44 112.898C332.347 113.583 330.933 114.063 329.209 114.321C325.911 114.809 322.605 115.28 319.307 115.725L319.298 115.716ZM323.6 111.076C325.067 110.872 326.533 110.658 327.991 110.445C328.889 110.312 329.529 109.956 329.92 109.378C330.302 108.801 330.444 108.187 330.347 107.539C330.24 106.827 329.911 106.267 329.36 105.85C328.827 105.432 328.133 105.29 327.253 105.414C325.796 105.627 324.347 105.841 322.889 106.045C323.129 107.725 323.369 109.405 323.6 111.085V111.076ZM322.338 102.161C323.689 101.965 325.049 101.77 326.4 101.574C327.245 101.45 327.849 101.139 328.196 100.65C328.569 100.161 328.702 99.5744 328.596 98.9077C328.498 98.2589 328.205 97.7611 327.707 97.4233C327.236 97.0589 326.578 96.9345 325.733 97.0589C324.382 97.2545 323.04 97.45 321.689 97.6456C321.903 99.1477 322.116 100.659 322.329 102.161H322.338Z" fill="#2D61DA"/>
<path fill-rule="evenodd" clip-rule="evenodd" d="M744.438 79.1764C653.609 110.399 484.594 89.5357 465.757 81.2407L457.5 119.172C538.265 132.848 648.706 139.557 754.868 117.598L744.438 79.1764ZM743.929 85.0194C743.929 85.9421 743.181 86.6901 742.258 86.6901C741.336 86.6901 740.588 85.9421 740.588 85.0194C740.588 84.0967 741.336 83.3487 742.258 83.3487C743.181 83.3487 743.929 84.0967 743.929 85.0194ZM468.443 87.3864C468.443 88.3091 467.695 89.0571 466.772 89.0571C465.849 89.0571 465.101 88.3091 465.101 87.3864C465.101 86.4637 465.849 85.7157 466.772 85.7157C467.695 85.7157 468.443 86.4637 468.443 87.3864ZM461.935 116.924C462.858 116.924 463.606 116.176 463.606 115.254C463.606 114.331 462.858 113.583 461.935 113.583C461.013 113.583 460.265 114.331 460.265 115.254C460.265 116.176 461.013 116.924 461.935 116.924ZM750.534 115.384C750.534 116.306 749.786 117.054 748.863 117.054C747.941 117.054 747.193 116.306 747.193 115.384C747.193 114.461 747.941 113.713 748.863 113.713C749.786 113.713 750.534 114.461 750.534 115.384Z" fill="#FFDC00"/>
<path d="M742.471 84.2977C743.479 84.9745 747.407 82.0269 747.407 80.7495M750.534 115.436C751.542 116.113 757.12 114.48 757.12 113.203M465.82 86.5625C464.279 87.0735 462.01 82.1548 461.719 80.8018M460.868 114.582C459.86 115.259 450.157 115.418 449.866 114.065" stroke="#162B6E" stroke-linecap="round"/>
<path d="M469.915 111.435C469.716 111.401 469.543 111.306 469.396 111.141C469.275 110.977 469.232 110.795 469.266 110.571C470.287 104.156 471.298 97.7414 472.318 91.3181C472.353 91.102 472.448 90.9378 472.612 90.8167C472.794 90.7044 472.984 90.6611 473.183 90.6957C474.255 90.8686 475.327 91.0329 476.407 91.1971C476.727 91.249 476.952 91.37 477.082 91.5775C477.237 91.759 477.324 91.906 477.35 92.0097C478.629 95.3986 479.917 98.7875 481.24 102.168C483.47 99.2975 485.675 96.4274 487.871 93.5399C487.948 93.4535 488.061 93.3324 488.225 93.1941C488.407 93.0385 488.675 92.9866 489.012 93.0299C490.075 93.1768 491.147 93.3238 492.21 93.4621C492.427 93.4881 492.599 93.5831 492.72 93.7388C492.859 93.903 492.919 94.0846 492.885 94.3093C492.02 100.75 491.164 107.19 490.3 113.631C490.274 113.847 490.162 114.02 489.98 114.132C489.816 114.253 489.626 114.297 489.401 114.271C488.19 114.107 486.971 113.942 485.761 113.769C485.536 113.735 485.355 113.64 485.208 113.484C485.087 113.328 485.035 113.138 485.07 112.922C485.588 109.213 486.107 105.496 486.626 101.787C485.199 103.698 483.764 105.6 482.32 107.51C482.217 107.675 482.07 107.813 481.888 107.934C481.707 108.046 481.473 108.09 481.188 108.046C480.661 107.969 480.133 107.891 479.606 107.813C479.321 107.77 479.113 107.666 478.966 107.51C478.828 107.346 478.715 107.173 478.638 106.974C477.799 104.735 476.969 102.505 476.148 100.266C475.586 103.975 475.015 107.675 474.453 111.383C474.419 111.599 474.324 111.764 474.16 111.885C473.995 112.006 473.805 112.04 473.58 112.006C472.361 111.816 471.134 111.625 469.915 111.435V111.435ZM495.219 115.04C494.994 115.014 494.821 114.919 494.692 114.764C494.57 114.591 494.519 114.4 494.545 114.202C495.374 107.761 496.204 101.312 497.034 94.8713C497.06 94.6551 497.155 94.4822 497.311 94.3612C497.493 94.2402 497.674 94.1969 497.873 94.2229C499.161 94.3871 500.449 94.5514 501.729 94.707C501.945 94.7329 502.118 94.828 502.239 94.9836C502.36 95.1393 502.412 95.3294 502.386 95.5456C501.893 99.5396 501.409 103.542 500.916 107.536C504.296 103.828 507.642 100.11 510.944 96.3669C511.065 96.2199 511.204 96.1075 511.376 96.021C511.549 95.9173 511.765 95.8827 512.025 95.9087C513.183 96.0383 514.342 96.1594 515.5 96.289C515.699 96.3063 515.863 96.4014 515.984 96.5484C516.131 96.704 516.192 96.8942 516.166 97.1103C515.483 103.568 514.8 110.035 514.117 116.493C514.091 116.709 513.996 116.882 513.814 117.003C513.659 117.124 513.477 117.175 513.27 117.158C511.947 117.02 510.633 116.873 509.31 116.726C509.086 116.7 508.895 116.614 508.748 116.449C508.619 116.294 508.567 116.104 508.593 115.887C509.025 112.032 509.457 108.176 509.89 104.329C506.587 107.917 503.25 111.496 499.87 115.049C499.749 115.178 499.602 115.291 499.42 115.386C499.265 115.49 499.04 115.524 498.755 115.481C497.57 115.334 496.386 115.187 495.202 115.032L495.219 115.04ZM519.096 117.755C518.872 117.729 518.69 117.642 518.561 117.487C518.431 117.331 518.379 117.15 518.396 116.925C519.045 110.458 519.702 104 520.35 97.5339C520.367 97.3178 520.462 97.1449 520.618 97.0152C520.774 96.8942 520.955 96.8423 521.18 96.8596C523.981 97.1363 526.773 97.4043 529.574 97.655C531.234 97.8019 532.652 98.191 533.828 98.8134C535.029 99.4186 535.928 100.248 536.525 101.329C537.147 102.401 537.398 103.715 537.268 105.271C537.147 106.801 536.689 108.046 535.902 108.98C535.133 109.922 534.096 110.579 532.799 110.951C531.519 111.323 530.032 111.435 528.347 111.288C527.136 111.176 525.926 111.072 524.724 110.951C524.517 113.13 524.309 115.308 524.111 117.487C524.093 117.703 523.99 117.876 523.817 117.997C523.661 118.126 523.471 118.178 523.246 118.152C521.863 118.023 520.48 117.884 519.096 117.746V117.755ZM525.027 106.819C526.211 106.931 527.396 107.044 528.571 107.147C529.445 107.225 530.145 107.069 530.69 106.672C531.251 106.283 531.571 105.634 531.649 104.735C531.718 103.974 531.545 103.326 531.148 102.764C530.75 102.211 530.05 101.882 529.047 101.796C527.871 101.692 526.695 101.58 525.52 101.467C525.356 103.248 525.183 105.029 525.018 106.81L525.027 106.819ZM560.083 120.884C559.858 120.876 559.676 120.789 559.538 120.642C559.4 120.495 559.339 120.314 559.348 120.089C559.625 114.945 559.901 109.81 560.178 104.666C558.302 104.562 556.434 104.459 554.559 104.346C554.507 105.254 554.446 106.162 554.394 107.069C554.247 109.481 554.005 111.53 553.659 113.216C553.331 114.876 552.829 116.233 552.155 117.271C551.498 118.291 550.599 119.017 549.458 119.441C548.343 119.873 546.916 120.046 545.187 119.968C544.98 119.951 544.807 119.873 544.651 119.717C544.496 119.544 544.427 119.354 544.444 119.129C544.522 118.083 544.591 117.037 544.669 115.991C544.703 115.55 544.971 115.325 545.49 115.3C546.069 115.239 546.57 114.98 546.985 114.53C547.409 114.081 547.763 113.458 548.066 112.68C548.36 111.876 548.602 110.925 548.775 109.81C548.948 108.677 549.086 107.424 549.181 106.049C549.32 104.026 549.449 102.003 549.588 99.9718C549.605 99.7557 549.683 99.5742 549.83 99.4445C550.003 99.3148 550.193 99.2543 550.418 99.2716C555.302 99.5915 560.195 99.8681 565.08 100.11C565.296 100.119 565.477 100.197 565.607 100.344C565.737 100.491 565.806 100.672 565.788 100.897C565.477 107.389 565.175 113.873 564.863 120.366C564.855 120.582 564.768 120.763 564.621 120.893C564.474 121.023 564.284 121.083 564.059 121.074C562.737 121.014 561.414 120.945 560.083 120.876V120.884ZM577.935 121.948C576.041 121.887 574.408 121.524 573.033 120.876C571.658 120.227 570.612 119.276 569.886 118.049C569.16 116.795 568.797 115.265 568.797 113.441C568.814 112.585 568.84 111.72 568.875 110.865C568.909 110.009 568.961 109.136 569.022 108.262C569.177 106.464 569.67 104.977 570.483 103.793C571.321 102.591 572.428 101.701 573.82 101.139C575.203 100.568 576.811 100.318 578.635 100.378C580.442 100.439 582.015 100.793 583.364 101.45C584.73 102.107 585.793 103.058 586.554 104.32C587.306 105.557 587.704 107.078 587.721 108.876C587.738 109.758 587.747 110.623 587.721 111.487C587.704 112.343 587.66 113.207 587.609 114.063C587.487 115.879 587.029 117.392 586.217 118.593C585.413 119.778 584.306 120.651 582.888 121.213C581.479 121.775 579.819 122.025 577.935 121.965V121.948ZM578.073 117.634C579.154 117.668 580.044 117.374 580.736 116.752C581.445 116.129 581.842 115.127 581.929 113.726C581.998 112.844 582.041 112.023 582.058 111.236C582.084 110.458 582.084 109.646 582.058 108.807C582.041 107.865 581.886 107.104 581.574 106.516C581.289 105.911 580.883 105.453 580.338 105.159C579.802 104.865 579.18 104.701 578.479 104.683C577.796 104.657 577.174 104.778 576.621 105.038C576.067 105.297 575.618 105.721 575.272 106.309C574.926 106.879 574.719 107.631 574.641 108.565C574.589 109.404 574.555 110.208 574.52 110.994C574.494 111.772 574.468 112.602 574.459 113.484C574.468 114.885 574.797 115.913 575.454 116.579C576.102 117.245 576.975 117.59 578.056 117.625L578.073 117.634ZM591.836 121.991C591.628 121.991 591.447 121.913 591.283 121.775C591.144 121.636 591.075 121.455 591.075 121.23C591.188 114.738 591.3 108.237 591.412 101.744C591.412 101.528 591.49 101.346 591.628 101.208C591.793 101.07 591.974 101.001 592.173 101.009C593.254 101.027 594.343 101.044 595.424 101.061C595.744 101.061 595.986 101.156 596.141 101.338C596.323 101.502 596.426 101.632 596.47 101.735C598.199 104.917 599.954 108.09 601.717 111.254C603.524 108.107 605.305 104.951 607.069 101.787C607.129 101.684 607.224 101.554 607.371 101.398C607.535 101.217 607.786 101.13 608.123 101.13C609.195 101.13 610.267 101.13 611.339 101.122C611.555 101.122 611.746 101.191 611.884 101.329C612.048 101.467 612.126 101.649 612.126 101.865C612.169 108.358 612.212 114.859 612.256 121.351C612.256 121.567 612.178 121.749 612.014 121.896C611.875 122.034 611.685 122.112 611.46 122.112C610.241 122.112 609.014 122.12 607.795 122.129C607.57 122.129 607.371 122.06 607.207 121.922C607.06 121.783 606.991 121.602 606.991 121.386C606.991 117.634 606.991 113.89 606.991 110.138C605.85 112.231 604.691 114.314 603.533 116.397C603.455 116.579 603.325 116.735 603.161 116.873C602.997 117.011 602.772 117.08 602.487 117.08C601.959 117.08 601.423 117.08 600.896 117.08C600.611 117.08 600.386 117.011 600.222 116.864C600.057 116.726 599.928 116.562 599.824 116.38C598.683 114.279 597.559 112.179 596.435 110.078C596.392 113.83 596.349 117.573 596.305 121.325C596.305 121.541 596.228 121.723 596.081 121.861C595.934 121.999 595.752 122.069 595.527 122.06C594.291 122.043 593.064 122.025 591.827 122.008L591.836 121.991ZM617.33 122.043C617.105 122.043 616.915 121.974 616.777 121.844C616.63 121.706 616.552 121.524 616.552 121.308C616.474 114.815 616.405 108.314 616.327 101.822C616.327 101.606 616.397 101.424 616.535 101.277C616.673 101.139 616.855 101.061 617.071 101.061C621.878 101.001 626.676 100.897 631.482 100.759C631.707 100.759 631.888 100.819 632.027 100.949C632.191 101.087 632.278 101.26 632.286 101.485C632.312 102.488 632.347 103.482 632.373 104.485C632.373 104.701 632.303 104.9 632.148 105.064C632.01 105.211 631.828 105.28 631.612 105.289C628.335 105.384 625.059 105.461 621.782 105.522C621.8 106.715 621.826 107.899 621.843 109.092C623.261 109.066 624.679 109.041 626.096 109.006C628.526 108.954 630.453 109.464 631.888 110.562C633.324 111.66 634.076 113.181 634.136 115.144C634.162 116.06 634.024 116.925 633.695 117.737C633.375 118.524 632.883 119.233 632.226 119.855C631.586 120.452 630.782 120.936 629.805 121.299C628.828 121.662 627.696 121.861 626.399 121.896C623.382 121.965 620.356 122.017 617.339 122.051L617.33 122.043ZM622.007 118.075C623.278 118.049 624.54 118.023 625.811 117.997C626.408 117.979 626.892 117.85 627.272 117.599C627.678 117.331 627.972 116.994 628.171 116.588C628.361 116.164 628.456 115.723 628.439 115.265C628.422 114.565 628.171 113.968 627.696 113.484C627.237 112.991 626.572 112.758 625.699 112.784C624.436 112.81 623.174 112.836 621.912 112.862C621.947 114.599 621.973 116.337 622.007 118.075ZM635.58 121.628C635.416 121.628 635.26 121.576 635.113 121.463C634.983 121.325 634.923 121.178 634.914 121.023C634.914 120.919 634.914 120.832 634.932 120.755C637.136 114.262 639.28 107.761 641.381 101.251C641.433 101.027 641.545 100.836 641.718 100.663C641.908 100.473 642.176 100.378 642.522 100.361C644.009 100.3 645.487 100.231 646.974 100.162C647.311 100.145 647.579 100.223 647.769 100.395C647.977 100.542 648.115 100.733 648.184 100.949C650.847 107.242 653.553 113.527 656.319 119.795C656.363 119.873 656.389 119.959 656.397 120.063C656.406 120.219 656.345 120.374 656.207 120.521C656.095 120.651 655.939 120.72 655.757 120.729C654.495 120.798 653.233 120.867 651.971 120.936C651.66 120.953 651.426 120.893 651.253 120.763C651.106 120.608 651.003 120.478 650.959 120.357C650.51 119.363 650.06 118.36 649.611 117.366C646.879 117.504 644.147 117.625 641.424 117.729C641.078 118.766 640.724 119.795 640.378 120.832C640.343 120.953 640.257 121.1 640.119 121.265C639.98 121.412 639.738 121.489 639.384 121.507C638.122 121.55 636.859 121.602 635.597 121.645L635.58 121.628ZM642.487 113.354C644.381 113.277 646.274 113.19 648.167 113.104C647.086 110.51 646.006 107.925 644.943 105.332C644.13 108.012 643.317 110.683 642.487 113.363V113.354ZM659.63 120.495C659.406 120.512 659.216 120.452 659.06 120.322C658.913 120.193 658.826 120.02 658.809 119.795C658.42 113.311 658.031 106.827 657.642 100.344C657.625 100.127 657.685 99.9373 657.824 99.7903C657.953 99.6433 658.135 99.5655 658.351 99.5482C661.152 99.3753 663.962 99.1938 666.763 98.9949C668.422 98.8739 669.884 99.0295 671.146 99.4531C672.425 99.8595 673.445 100.542 674.206 101.502C674.993 102.462 675.442 103.715 675.572 105.271C675.693 106.801 675.442 108.098 674.811 109.153C674.197 110.199 673.281 111.02 672.062 111.591C670.86 112.161 669.408 112.507 667.722 112.628C666.512 112.715 665.302 112.792 664.091 112.879C664.238 115.066 664.385 117.245 664.524 119.432C664.541 119.648 664.472 119.838 664.316 119.985C664.178 120.132 664.005 120.219 663.78 120.227C662.397 120.322 661.014 120.409 659.622 120.487L659.63 120.495ZM663.737 108.755C664.921 108.677 666.106 108.6 667.29 108.513C668.163 108.453 668.829 108.185 669.304 107.709C669.797 107.234 670.013 106.542 669.944 105.652C669.884 104.891 669.616 104.268 669.14 103.784C668.656 103.3 667.912 103.093 666.91 103.162C665.734 103.248 664.558 103.326 663.382 103.404C663.503 105.193 663.616 106.974 663.737 108.755ZM679.505 123.27C679.298 123.288 679.108 123.236 678.935 123.106C678.779 122.976 678.693 122.803 678.676 122.587C678.468 120.098 678.269 117.608 678.062 115.118C678.044 114.919 678.105 114.746 678.235 114.591C678.382 114.418 678.563 114.323 678.762 114.305C678.944 114.288 679.134 114.271 679.315 114.262C679.825 114.219 680.223 113.951 680.508 113.467C680.794 112.983 681.001 112.317 681.139 111.487C681.269 110.631 681.33 109.637 681.312 108.496C681.295 107.337 681.226 106.075 681.105 104.718C680.932 102.695 680.75 100.672 680.577 98.6578C680.56 98.4417 680.612 98.2515 680.742 98.1045C680.889 97.9489 681.062 97.8624 681.26 97.8452C685.963 97.4302 690.658 96.9807 695.352 96.4879C695.568 96.462 695.758 96.5138 695.914 96.6435C696.069 96.7645 696.156 96.9374 696.182 97.1622C696.718 102.28 697.262 107.398 697.798 112.516C698.274 112.464 698.758 112.412 699.233 112.36C699.458 112.334 699.648 112.395 699.804 112.542C699.986 112.663 700.081 112.827 700.107 113.026C700.375 115.507 700.643 117.997 700.911 120.478C700.928 120.677 700.867 120.858 700.72 121.014C700.599 121.187 700.418 121.291 700.193 121.308C698.87 121.446 697.539 121.584 696.216 121.723C695.992 121.749 695.793 121.688 695.637 121.541C695.481 121.42 695.386 121.256 695.369 121.057C695.257 119.916 695.136 118.766 695.023 117.625C691.332 117.997 687.632 118.351 683.932 118.68C684.035 119.821 684.139 120.971 684.234 122.112C684.252 122.311 684.191 122.484 684.061 122.639C683.932 122.812 683.75 122.907 683.525 122.924C682.185 123.045 680.845 123.158 679.514 123.27H679.505ZM685.825 113.692C687.995 113.493 690.165 113.285 692.335 113.069C691.963 109.291 691.583 105.513 691.211 101.727C689.534 101.891 687.857 102.055 686.179 102.211C686.266 103.119 686.352 104.026 686.43 104.925C686.629 107.035 686.672 108.807 686.56 110.242C686.447 111.66 686.205 112.801 685.834 113.683L685.825 113.692ZM712.486 115.974C710.602 116.199 708.933 116.095 707.472 115.663C706.011 115.23 704.827 114.461 703.919 113.354C703.011 112.231 702.415 110.77 702.138 108.971C702.026 108.115 701.922 107.268 701.827 106.412C701.732 105.557 701.645 104.692 701.568 103.819C701.447 102.021 701.706 100.473 702.328 99.1765C702.977 97.8538 703.936 96.8164 705.224 96.0383C706.513 95.2689 708.06 94.7675 709.876 94.5514C711.674 94.3353 713.282 94.439 714.717 94.8885C716.169 95.3294 717.371 96.1075 718.313 97.2314C719.255 98.3379 719.869 99.7817 720.172 101.554C720.327 102.418 720.466 103.283 720.578 104.13C720.69 104.986 720.786 105.833 720.855 106.698C721.01 108.513 720.786 110.078 720.172 111.383C719.558 112.671 718.59 113.709 717.276 114.478C715.962 115.248 714.362 115.749 712.486 115.982V115.974ZM711.968 111.686C713.048 111.556 713.887 111.133 714.475 110.406C715.088 109.689 715.322 108.626 715.192 107.234C715.123 106.352 715.037 105.531 714.942 104.761C714.846 103.992 714.725 103.188 714.578 102.358C714.423 101.433 714.146 100.698 713.748 100.162C713.377 99.6088 712.893 99.2197 712.322 99.0122C711.743 98.8048 711.103 98.7356 710.403 98.8221C709.72 98.9085 709.132 99.116 708.622 99.4618C708.112 99.8076 707.732 100.292 707.481 100.923C707.23 101.537 707.135 102.315 707.204 103.248C707.282 104.087 707.368 104.891 707.455 105.66C707.55 106.438 707.654 107.26 707.775 108.124C708 109.507 708.484 110.476 709.227 111.029C709.971 111.582 710.887 111.798 711.968 111.669V111.686ZM726.267 113.882C726.042 113.916 725.852 113.873 725.687 113.752C725.523 113.631 725.428 113.467 725.402 113.251C724.52 106.81 723.638 100.378 722.757 93.9376C722.722 93.7215 722.774 93.5313 722.895 93.3757C723.016 93.2201 723.189 93.125 723.405 93.0904C726.439 92.6754 729.474 92.2345 732.508 91.785C734.22 91.5256 735.655 91.5516 736.822 91.8628C737.989 92.1654 738.897 92.7273 739.563 93.5313C740.237 94.318 740.669 95.3122 740.859 96.5138C740.972 97.2227 740.937 97.8797 740.738 98.4763C740.557 99.0468 740.297 99.5482 739.952 99.9632C739.623 100.378 739.303 100.689 738.983 100.906C739.805 101.139 740.565 101.623 741.274 102.341C742.009 103.058 742.459 103.957 742.632 105.038C742.839 106.343 742.709 107.51 742.251 108.556C741.81 109.576 741.05 110.432 739.969 111.124C738.906 111.79 737.54 112.256 735.863 112.507C732.664 112.983 729.457 113.441 726.258 113.89L726.267 113.882ZM730.425 109.36C731.843 109.153 733.269 108.945 734.687 108.738C735.56 108.608 736.182 108.262 736.554 107.701C736.926 107.139 737.064 106.542 736.969 105.911C736.865 105.219 736.546 104.675 736.01 104.268C735.499 103.862 734.817 103.724 733.969 103.845C732.56 104.052 731.142 104.26 729.733 104.467C729.967 106.101 730.2 107.735 730.433 109.36H730.425ZM729.18 100.689C730.494 100.499 731.808 100.309 733.131 100.11C733.952 99.9891 734.54 99.6866 734.877 99.2111C735.24 98.7356 735.361 98.165 735.266 97.5167C735.171 96.8856 734.886 96.4014 734.402 96.0729C733.935 95.7185 733.295 95.6061 732.482 95.7271C731.177 95.9173 729.863 96.1162 728.557 96.2977C728.765 97.7587 728.981 99.2284 729.189 100.689H729.18Z" fill="#2D61DA"/>
<path d="M896.24 118.147C896.026 118.112 895.849 118.014 895.697 117.845C895.573 117.676 895.529 117.48 895.564 117.258C896.613 110.663 897.653 104.068 898.702 97.4635C898.737 97.2412 898.835 97.0724 899.004 96.9479C899.191 96.8324 899.386 96.7879 899.6 96.8235C900.711 97.0012 901.831 97.1701 902.942 97.339C903.27 97.3923 903.51 97.5168 903.644 97.7301C903.804 97.9168 903.902 98.0679 903.928 98.1745C905.27 101.659 906.63 105.143 908.026 108.619C910.328 105.668 912.603 102.699 914.861 99.7212C914.932 99.6234 915.057 99.5078 915.226 99.3656C915.412 99.2056 915.688 99.1434 916.034 99.1967C917.146 99.3389 918.248 99.4811 919.359 99.6234C919.59 99.65 919.768 99.7478 919.892 99.9078C920.043 100.068 920.097 100.263 920.07 100.486C919.243 107.116 918.417 113.738 917.59 120.369C917.563 120.591 917.457 120.769 917.261 120.885C917.092 121.009 916.888 121.054 916.657 121.027C915.386 120.867 914.115 120.698 912.835 120.538C912.603 120.503 912.408 120.405 912.257 120.245C912.123 120.085 912.079 119.889 912.106 119.667C912.612 115.845 913.119 112.023 913.635 108.21C912.168 110.183 910.684 112.147 909.19 114.112C909.084 114.281 908.932 114.432 908.737 114.547C908.55 114.663 908.301 114.707 908.008 114.663C907.457 114.583 906.906 114.512 906.355 114.432C906.061 114.387 905.83 114.281 905.688 114.121C905.537 113.952 905.422 113.774 905.342 113.57C904.453 111.267 903.573 108.974 902.71 106.672C902.142 110.485 901.564 114.298 900.995 118.103C900.959 118.325 900.862 118.494 900.693 118.618C900.524 118.734 900.319 118.778 900.088 118.743C898.808 118.547 897.528 118.352 896.249 118.147H896.24ZM922.763 121.774C922.523 121.747 922.345 121.649 922.212 121.489C922.079 121.311 922.025 121.116 922.052 120.911C922.834 114.281 923.616 107.641 924.399 101.01C924.425 100.788 924.523 100.61 924.683 100.486C924.87 100.361 925.065 100.317 925.27 100.334C926.603 100.494 927.945 100.646 929.278 100.788C929.51 100.814 929.687 100.903 929.812 101.063C929.936 101.223 929.998 101.41 929.972 101.641C929.518 105.756 929.074 109.872 928.621 113.996C932.096 110.147 935.509 106.272 938.869 102.37C938.985 102.219 939.136 102.094 939.314 102.005C939.491 101.899 939.714 101.854 939.989 101.881C941.198 101.997 942.398 102.103 943.607 102.21C943.811 102.228 943.989 102.317 944.122 102.468C944.273 102.628 944.345 102.814 944.327 103.045C943.749 109.703 943.171 116.352 942.593 123.009C942.576 123.231 942.469 123.409 942.291 123.542C942.131 123.676 941.936 123.729 941.722 123.711C940.336 123.587 938.958 123.462 937.571 123.329C937.331 123.311 937.136 123.214 936.985 123.054C936.851 122.894 936.789 122.707 936.816 122.476L937.954 110.565C934.576 114.307 931.154 118.032 927.67 121.72C927.545 121.854 927.394 121.969 927.207 122.076C927.047 122.183 926.816 122.218 926.514 122.183C925.27 122.04 924.025 121.907 922.79 121.756L922.763 121.774ZM947.802 124.227C947.562 124.209 947.376 124.12 947.242 123.969C947.1 123.809 947.047 123.622 947.064 123.4C947.598 116.743 948.131 110.085 948.664 103.428C948.682 103.205 948.771 103.028 948.931 102.894C949.091 102.761 949.278 102.708 949.509 102.725C952.415 102.957 955.331 103.17 958.246 103.357C959.971 103.472 961.455 103.828 962.69 104.432C963.953 105.019 964.913 105.854 965.561 106.939C966.237 108.023 966.539 109.365 966.45 110.965C966.37 112.547 965.926 113.827 965.135 114.814C964.362 115.801 963.295 116.503 961.953 116.92C960.628 117.338 959.082 117.489 957.322 117.374C956.06 117.294 954.789 117.205 953.526 117.116C953.366 119.365 953.206 121.605 953.046 123.854C953.029 124.076 952.931 124.254 952.753 124.387C952.593 124.52 952.398 124.574 952.158 124.565C950.709 124.458 949.26 124.351 947.811 124.236L947.802 124.227ZM953.731 112.867C954.966 112.956 956.202 113.036 957.437 113.125C958.344 113.187 959.082 113.001 959.633 112.583C960.211 112.165 960.522 111.498 960.584 110.574C960.637 109.792 960.442 109.125 960.015 108.565C959.588 108.005 958.851 107.685 957.802 107.623C956.575 107.543 955.349 107.454 954.131 107.374C953.997 109.205 953.864 111.045 953.74 112.876L953.731 112.867ZM976.459 125.88C976.219 125.871 976.032 125.791 975.89 125.64C975.748 125.489 975.677 125.302 975.686 125.08C975.934 118.405 976.183 111.73 976.441 105.054C976.441 104.832 976.53 104.645 976.681 104.512C976.832 104.37 977.019 104.308 977.25 104.317C978.592 104.361 979.934 104.414 981.276 104.45C981.508 104.45 981.694 104.53 981.836 104.681C981.979 104.832 982.05 105.019 982.041 105.241C981.97 107.721 981.899 110.192 981.828 112.672C984.432 112.743 987.036 112.805 989.641 112.85C989.685 110.37 989.729 107.899 989.765 105.419C989.765 105.197 989.845 105.01 989.996 104.868C990.147 104.725 990.334 104.654 990.565 104.663C991.907 104.681 993.249 104.699 994.6 104.717C994.832 104.717 995.018 104.797 995.16 104.939C995.303 105.081 995.374 105.268 995.374 105.499C995.32 112.174 995.258 118.858 995.205 125.534C995.205 125.756 995.125 125.942 994.974 126.085C994.823 126.227 994.627 126.298 994.387 126.298C993 126.28 991.614 126.262 990.218 126.245C989.978 126.245 989.792 126.165 989.641 126.022C989.498 125.88 989.418 125.694 989.427 125.462C989.472 122.903 989.516 120.343 989.561 117.783C986.938 117.738 984.307 117.676 981.685 117.605C981.614 120.165 981.534 122.725 981.463 125.276C981.463 125.498 981.374 125.685 981.223 125.827C981.072 125.969 980.876 126.031 980.637 126.022C979.25 125.978 977.863 125.934 976.477 125.88H976.459ZM998.414 126.325C998.245 126.325 998.085 126.262 997.934 126.138C997.809 125.996 997.738 125.836 997.738 125.676C997.738 125.569 997.747 125.48 997.774 125.4C1000.33 118.814 1002.81 112.218 1005.22 105.605C1005.28 105.383 1005.41 105.179 1005.6 105.019C1005.8 104.832 1006.08 104.734 1006.44 104.734C1007.98 104.725 1009.52 104.699 1011.06 104.681C1011.42 104.681 1011.69 104.761 1011.88 104.948C1012.09 105.108 1012.23 105.303 1012.3 105.525C1014.85 112.076 1017.48 118.618 1020.18 125.142C1020.23 125.222 1020.25 125.311 1020.25 125.418C1020.25 125.587 1020.19 125.738 1020.04 125.889C1019.92 126.014 1019.76 126.085 1019.56 126.085C1018.24 126.12 1016.91 126.156 1015.59 126.182C1015.27 126.182 1015.02 126.12 1014.84 125.978C1014.69 125.818 1014.58 125.676 1014.54 125.551C1014.09 124.511 1013.66 123.471 1013.22 122.431C1010.37 122.485 1007.51 122.52 1004.65 122.529C1004.25 123.578 1003.85 124.627 1003.44 125.676C1003.4 125.8 1003.3 125.942 1003.16 126.111C1003.01 126.254 1002.75 126.325 1002.39 126.334C1001.06 126.334 999.738 126.334 998.414 126.334V126.325ZM1005.94 118.076C1007.92 118.058 1009.9 118.04 1011.87 118.005C1010.83 115.312 1009.79 112.61 1008.78 109.907C1007.84 112.627 1006.9 115.356 1005.94 118.076ZM1023.62 125.942C1023.38 125.942 1023.19 125.88 1023.03 125.747C1022.87 125.605 1022.79 125.427 1022.79 125.196C1022.58 118.52 1022.36 111.845 1022.15 105.17C1022.15 104.948 1022.21 104.752 1022.35 104.61C1022.49 104.459 1022.68 104.379 1022.9 104.379C1027.76 104.219 1032.63 103.997 1037.49 103.721C1037.72 103.712 1037.91 103.765 1038.07 103.908C1038.22 104.041 1038.31 104.228 1038.31 104.45C1038.37 105.41 1038.42 106.379 1038.48 107.348C1038.49 107.57 1038.43 107.765 1038.3 107.916C1038.15 108.068 1037.98 108.148 1037.75 108.165C1034.4 108.352 1031.06 108.512 1027.72 108.654C1027.77 110.041 1027.83 111.427 1027.89 112.814C1031.03 112.69 1034.15 112.538 1037.28 112.361C1037.51 112.352 1037.71 112.423 1037.87 112.574C1038.03 112.707 1038.11 112.894 1038.12 113.116C1038.17 114.005 1038.22 114.903 1038.27 115.792C1038.28 115.996 1038.22 116.183 1038.07 116.361C1037.93 116.512 1037.75 116.592 1037.51 116.609C1034.36 116.778 1031.21 116.929 1028.06 117.063C1028.12 118.494 1028.17 119.916 1028.23 121.347C1031.73 121.205 1035.22 121.036 1038.71 120.84C1038.95 120.823 1039.15 120.885 1039.3 121.027C1039.46 121.16 1039.54 121.338 1039.56 121.569C1039.61 122.538 1039.67 123.498 1039.73 124.467C1039.74 124.689 1039.67 124.885 1039.53 125.036C1039.39 125.187 1039.2 125.276 1038.96 125.285C1033.86 125.569 1028.75 125.8 1023.64 125.978L1023.62 125.942ZM1032.2 101.312C1031.99 101.321 1031.82 101.268 1031.66 101.152C1031.52 101.037 1031.46 100.859 1031.44 100.637C1031.4 99.7034 1031.35 98.7701 1031.31 97.8368C1031.3 97.6323 1031.35 97.4635 1031.47 97.339C1031.61 97.1879 1031.78 97.1079 1031.99 97.099C1032.94 97.0546 1033.88 97.0101 1034.83 96.9568C1035.03 96.9479 1035.2 97.0101 1035.34 97.1435C1035.49 97.259 1035.57 97.419 1035.58 97.6234C1035.63 98.5567 1035.67 99.49 1035.73 100.423C1035.74 100.646 1035.67 100.823 1035.54 100.957C1035.43 101.09 1035.26 101.161 1035.05 101.17C1034.1 101.223 1033.14 101.268 1032.19 101.312H1032.2ZM1025.76 101.588C1025.56 101.588 1025.39 101.543 1025.26 101.419C1025.12 101.303 1025.06 101.126 1025.05 100.903C1025.02 99.97 1024.98 99.0367 1024.95 98.1034C1024.95 97.899 1024.99 97.7301 1025.11 97.6057C1025.23 97.4546 1025.4 97.3746 1025.6 97.3746C1026.55 97.339 1027.5 97.3035 1028.45 97.259C1028.65 97.2501 1028.82 97.3124 1028.95 97.4546C1029.11 97.5701 1029.19 97.7301 1029.19 97.9345C1029.24 98.8678 1029.27 99.8011 1029.32 100.734C1029.33 100.957 1029.27 101.134 1029.12 101.268C1029.01 101.392 1028.84 101.463 1028.63 101.472C1027.68 101.517 1026.72 101.552 1025.77 101.588H1025.76ZM1044.23 124.938C1043.99 124.956 1043.79 124.894 1043.63 124.76C1043.47 124.627 1043.38 124.449 1043.37 124.218C1042.95 117.552 1042.53 110.885 1042.11 104.219C1042.09 103.997 1042.15 103.801 1042.3 103.65C1042.43 103.499 1042.62 103.41 1042.85 103.401C1047.83 103.081 1052.81 102.699 1057.79 102.272C1058.02 102.254 1058.21 102.308 1058.37 102.441C1058.54 102.565 1058.64 102.743 1058.67 102.974C1058.76 103.997 1058.85 105.019 1058.94 106.041C1058.96 106.263 1058.9 106.468 1058.75 106.645C1058.62 106.805 1058.43 106.894 1058.21 106.912C1054.8 107.205 1051.41 107.481 1048 107.721C1048.09 108.939 1048.18 110.156 1048.27 111.383C1049.75 111.276 1051.22 111.17 1052.69 111.054C1055.21 110.859 1057.25 111.267 1058.81 112.307C1060.37 113.347 1061.25 114.867 1061.42 116.867C1061.51 117.809 1061.41 118.707 1061.12 119.56C1060.83 120.387 1060.36 121.143 1059.71 121.818C1059.08 122.476 1058.26 123.018 1057.26 123.454C1056.25 123.889 1055.08 124.156 1053.73 124.262C1050.57 124.511 1047.42 124.734 1044.25 124.938H1044.23ZM1048.9 120.6C1050.23 120.503 1051.55 120.405 1052.87 120.307C1053.5 120.263 1053.99 120.094 1054.38 119.818C1054.79 119.516 1055.09 119.152 1055.26 118.725C1055.44 118.28 1055.51 117.818 1055.48 117.347C1055.42 116.627 1055.12 116.032 1054.6 115.561C1054.09 115.089 1053.38 114.885 1052.47 114.956C1051.16 115.054 1049.85 115.161 1048.54 115.249C1048.66 117.036 1048.79 118.814 1048.92 120.6H1048.9ZM1073.82 122.689C1071.84 122.903 1070.09 122.778 1068.58 122.307C1067.06 121.845 1065.83 121.027 1064.91 119.88C1063.98 118.707 1063.39 117.196 1063.13 115.338C1063.02 114.458 1062.94 113.578 1062.86 112.698C1062.78 111.818 1062.7 110.93 1062.63 110.023C1062.54 108.174 1062.84 106.583 1063.51 105.268C1064.21 103.925 1065.23 102.859 1066.58 102.086C1067.93 101.312 1069.54 100.823 1071.43 100.619C1073.3 100.414 1074.97 100.548 1076.46 101.019C1077.96 101.481 1079.19 102.299 1080.16 103.463C1081.12 104.61 1081.75 106.094 1082.05 107.925C1082.2 108.814 1082.33 109.703 1082.44 110.583C1082.54 111.463 1082.63 112.343 1082.69 113.223C1082.84 115.089 1082.59 116.698 1081.93 118.04C1081.27 119.365 1080.25 120.414 1078.86 121.196C1077.48 121.978 1075.8 122.476 1073.82 122.689H1073.82ZM1073.34 118.272C1074.46 118.147 1075.34 117.72 1075.98 116.983C1076.62 116.245 1076.89 115.161 1076.77 113.73C1076.7 112.823 1076.63 111.978 1076.54 111.178C1076.45 110.379 1076.33 109.561 1076.19 108.707C1076.04 107.756 1075.76 107.001 1075.35 106.441C1074.97 105.863 1074.48 105.463 1073.89 105.241C1073.29 105.019 1072.62 104.948 1071.9 105.028C1071.18 105.108 1070.56 105.312 1070.03 105.659C1069.5 106.005 1069.1 106.503 1068.82 107.152C1068.54 107.783 1068.44 108.574 1068.49 109.543C1068.56 110.405 1068.63 111.232 1068.71 112.032C1068.79 112.832 1068.89 113.676 1069.01 114.574C1069.22 115.996 1069.71 117 1070.47 117.587C1071.25 118.165 1072.2 118.396 1073.33 118.272H1073.34ZM1088.26 120.645C1088.03 120.671 1087.82 120.627 1087.65 120.503C1087.49 120.378 1087.39 120.209 1087.36 119.978C1086.51 113.356 1085.65 106.725 1084.79 100.103C1084.77 99.8811 1084.81 99.6856 1084.93 99.5256C1085.06 99.3656 1085.24 99.2678 1085.47 99.2412C1088.62 98.8323 1091.78 98.3967 1094.93 97.9345C1096.71 97.6768 1098.21 97.7034 1099.41 98.0145C1100.62 98.3256 1101.57 98.8945 1102.26 99.73C1102.96 100.539 1103.41 101.561 1103.6 102.797C1103.72 103.525 1103.67 104.201 1103.47 104.814C1103.28 105.401 1103.01 105.916 1102.65 106.343C1102.31 106.77 1101.97 107.09 1101.64 107.312C1102.49 107.552 1103.28 108.041 1104.03 108.779C1104.79 109.507 1105.26 110.432 1105.44 111.552C1105.65 112.894 1105.52 114.103 1105.03 115.169C1104.56 116.218 1103.77 117.107 1102.63 117.818C1101.52 118.512 1100.08 118.983 1098.33 119.24C1094.98 119.729 1091.62 120.192 1088.26 120.636V120.645ZM1092.65 116.014C1094.13 115.809 1095.63 115.596 1097.11 115.383C1098.03 115.249 1098.68 114.894 1099.07 114.316C1099.46 113.738 1099.6 113.125 1099.51 112.476C1099.41 111.765 1099.08 111.205 1098.52 110.787C1097.98 110.37 1097.27 110.227 1096.38 110.352C1094.91 110.565 1093.43 110.779 1091.96 110.974C1092.19 112.654 1092.42 114.334 1092.65 116.014V116.014ZM1091.41 107.099C1092.78 106.912 1094.16 106.716 1095.53 106.521C1096.39 106.396 1097 106.085 1097.35 105.596C1097.73 105.108 1097.87 104.521 1097.77 103.854C1097.67 103.205 1097.38 102.708 1096.88 102.37C1096.4 102.005 1095.73 101.881 1094.88 102.005C1093.52 102.201 1092.15 102.397 1090.79 102.583C1091 104.094 1091.21 105.596 1091.41 107.108V107.099Z" fill="#2D61DA"/>
</g>
<defs>
<clipPath id="clip0_213_22823">
<rect width="1200" height="500" fill="white" transform="translate(0.194336 0.753418)"/>
</clipPath>
</defs>
</svg>
