<svg width="507" height="501" viewBox="0 0 507 501" fill="none" xmlns="http://www.w3.org/2000/svg">
<g clip-path="url(#clip0_208_10518)">
<rect x="20.2875" y="10.5605" width="466.061" height="496.005" fill="#0F2F7E"/>
<rect x="0.14209" y="0.0219727" width="506" height="15.7527" fill="#0C276A"/>
<rect x="0.14209" y="102.907" width="39.5774" height="16.0559" fill="#162B6E" stroke="#162B6E" stroke-width="1.60559"/>
<rect x="12.424" y="70.7949" width="7.59917" height="40.1396" stroke="#162B6E" stroke-width="1.60559"/>
<rect x="5.02127" y="70.7949" width="7.59917" height="40.1396" stroke="#162B6E" stroke-width="1.60559"/>
<rect x="20.0268" y="70.7949" width="7.59917" height="40.1396" stroke="#162B6E" stroke-width="1.60559"/>
<rect x="27.624" y="70.7949" width="7.59917" height="40.1396" stroke="#162B6E" stroke-width="1.60559"/>
<rect width="39.395" height="16.0559" transform="matrix(-1 0 0 1 506.142 102.907)" fill="#162B6E" stroke="#162B6E" stroke-width="1.60559"/>
<rect width="7.56415" height="40.1396" transform="matrix(-1 0 0 1 493.917 70.7949)" stroke="#162B6E" stroke-width="1.60559"/>
<rect width="7.56415" height="40.1396" transform="matrix(-1 0 0 1 501.286 70.7949)" stroke="#162B6E" stroke-width="1.60559"/>
<rect width="7.56415" height="40.1396" transform="matrix(-1 0 0 1 486.349 70.7949)" stroke="#162B6E" stroke-width="1.60559"/>
<rect width="7.56415" height="40.1396" transform="matrix(-1 0 0 1 478.787 70.7949)" stroke="#162B6E" stroke-width="1.60559"/>
<rect x="0.14209" y="206.096" width="39.5774" height="16.0559" fill="#162B6E" stroke="#162B6E" stroke-width="1.60559"/>
<rect x="12.424" y="173.983" width="7.59917" height="40.1396" stroke="#162B6E" stroke-width="1.60559"/>
<rect x="5.02127" y="173.983" width="7.59917" height="40.1396" stroke="#162B6E" stroke-width="1.60559"/>
<rect x="20.0268" y="173.983" width="7.59917" height="40.1396" stroke="#162B6E" stroke-width="1.60559"/>
<rect x="27.624" y="173.983" width="7.59917" height="40.1396" stroke="#162B6E" stroke-width="1.60559"/>
<rect x="0.14209" y="315.078" width="39.5774" height="16.0559" fill="#162B6E" stroke="#162B6E" stroke-width="1.60559"/>
<rect x="12.424" y="282.965" width="7.59917" height="40.1396" stroke="#162B6E" stroke-width="1.60559"/>
<rect x="5.02127" y="282.965" width="7.59917" height="40.1396" stroke="#162B6E" stroke-width="1.60559"/>
<rect x="20.0268" y="282.965" width="7.59917" height="40.1396" stroke="#162B6E" stroke-width="1.60559"/>
<rect x="27.624" y="282.965" width="7.59917" height="40.1396" stroke="#162B6E" stroke-width="1.60559"/>
<rect x="0.14209" y="433.784" width="39.5774" height="16.0559" fill="#162B6E" stroke="#162B6E" stroke-width="1.60559"/>
<rect x="12.424" y="401.672" width="7.59917" height="40.1396" stroke="#162B6E" stroke-width="1.60559"/>
<rect x="5.02127" y="401.672" width="7.59917" height="40.1396" stroke="#162B6E" stroke-width="1.60559"/>
<rect x="20.0268" y="401.672" width="7.59917" height="40.1396" stroke="#162B6E" stroke-width="1.60559"/>
<rect x="27.624" y="401.672" width="7.59917" height="40.1396" stroke="#162B6E" stroke-width="1.60559"/>
<rect width="39.395" height="16.0559" transform="matrix(-1 0 0 1 506.142 206.096)" fill="#162B6E" stroke="#162B6E" stroke-width="1.60559"/>
<rect width="7.56415" height="40.1396" transform="matrix(-1 0 0 1 493.917 173.983)" stroke="#162B6E" stroke-width="1.60559"/>
<rect width="7.56415" height="40.1396" transform="matrix(-1 0 0 1 501.286 173.983)" stroke="#162B6E" stroke-width="1.60559"/>
<rect width="7.56415" height="40.1396" transform="matrix(-1 0 0 1 486.349 173.983)" stroke="#162B6E" stroke-width="1.60559"/>
<rect width="7.56415" height="40.1396" transform="matrix(-1 0 0 1 478.787 173.983)" stroke="#162B6E" stroke-width="1.60559"/>
<rect width="39.395" height="16.0559" transform="matrix(-1 0 0 1 506.142 315.078)" fill="#162B6E" stroke="#162B6E" stroke-width="1.60559"/>
<rect width="7.56415" height="40.1396" transform="matrix(-1 0 0 1 493.917 282.965)" stroke="#162B6E" stroke-width="1.60559"/>
<rect width="7.56415" height="40.1396" transform="matrix(-1 0 0 1 501.286 282.965)" stroke="#162B6E" stroke-width="1.60559"/>
<rect width="7.56415" height="40.1396" transform="matrix(-1 0 0 1 486.349 282.965)" stroke="#162B6E" stroke-width="1.60559"/>
<rect width="7.56415" height="40.1396" transform="matrix(-1 0 0 1 478.787 282.965)" stroke="#162B6E" stroke-width="1.60559"/>
<rect width="39.395" height="16.0559" transform="matrix(-1 0 0 1 506.142 433.784)" fill="#162B6E" stroke="#162B6E" stroke-width="1.60559"/>
<rect width="7.56415" height="40.1396" transform="matrix(-1 0 0 1 493.917 401.672)" stroke="#162B6E" stroke-width="1.60559"/>
<rect width="7.56415" height="40.1396" transform="matrix(-1 0 0 1 501.286 401.672)" stroke="#162B6E" stroke-width="1.60559"/>
<rect width="7.56415" height="40.1396" transform="matrix(-1 0 0 1 486.349 401.672)" stroke="#162B6E" stroke-width="1.60559"/>
<rect width="7.56415" height="40.1396" transform="matrix(-1 0 0 1 478.787 401.672)" stroke="#162B6E" stroke-width="1.60559"/>
<rect x="105.144" y="31.769" width="43.9707" height="43.0891" fill="#2D61DA" stroke="#162B6E" stroke-width="2.78702"/>
<rect x="149.115" y="31.769" width="22.0439" height="78.0507" fill="#2D61DA" stroke="#162B6E" stroke-width="2.78702"/>
<rect x="100.481" y="102.907" width="75.4586" height="16.0559" fill="#162B6E" stroke="#162B6E" stroke-width="1.60559"/>
<rect x="112.366" y="70.7949" width="7.35419" height="40.1396" stroke="#162B6E" stroke-width="1.60559"/>
<rect x="105.202" y="70.7949" width="7.35419" height="40.1396" stroke="#162B6E" stroke-width="1.60559"/>
<rect x="119.725" y="70.7949" width="7.35419" height="40.1396" stroke="#162B6E" stroke-width="1.60559"/>
<rect x="127.077" y="70.7949" width="7.35419" height="40.1396" stroke="#162B6E" stroke-width="1.60559"/>
<rect x="134.431" y="70.7944" width="7.35419" height="40.1396" stroke="#162B6E" stroke-width="1.60559"/>
<rect x="141.789" y="70.7944" width="7.35419" height="40.1396" stroke="#162B6E" stroke-width="1.60559"/>
<rect x="149.147" y="70.7944" width="7.35419" height="40.1396" stroke="#162B6E" stroke-width="1.60559"/>
<rect x="156.506" y="70.7944" width="7.35419" height="40.1396" stroke="#162B6E" stroke-width="1.60559"/>
<rect x="163.863" y="70.7944" width="7.35419" height="40.1396" stroke="#162B6E" stroke-width="1.60559"/>
<rect x="105.144" y="134.186" width="44.0879" height="43.2085" fill="#2D61DA" stroke="#162B6E" stroke-width="2.78702"/>
<rect x="149.115" y="134.186" width="22.0439" height="78.0507" fill="#2D61DA" stroke="#162B6E" stroke-width="2.78702"/>
<rect x="100.481" y="205.323" width="75.4586" height="16.0559" fill="#162B6E" stroke="#162B6E" stroke-width="1.60559"/>
<rect x="112.366" y="173.211" width="7.35419" height="40.1396" stroke="#162B6E" stroke-width="1.60559"/>
<rect x="105.202" y="173.211" width="7.35419" height="40.1396" stroke="#162B6E" stroke-width="1.60559"/>
<rect x="119.725" y="173.211" width="7.35419" height="40.1396" stroke="#162B6E" stroke-width="1.60559"/>
<rect x="127.077" y="173.211" width="7.35419" height="40.1396" stroke="#162B6E" stroke-width="1.60559"/>
<rect x="134.431" y="173.211" width="7.35419" height="40.1396" stroke="#162B6E" stroke-width="1.60559"/>
<rect x="141.789" y="173.211" width="7.35419" height="40.1396" stroke="#162B6E" stroke-width="1.60559"/>
<rect x="149.147" y="173.211" width="7.35419" height="40.1396" stroke="#162B6E" stroke-width="1.60559"/>
<rect x="156.506" y="173.211" width="7.35419" height="40.1396" stroke="#162B6E" stroke-width="1.60559"/>
<rect x="163.863" y="173.211" width="7.35419" height="40.1396" stroke="#162B6E" stroke-width="1.60559"/>
<rect x="105.144" y="243.94" width="21.9858" height="78.0507" fill="#2D61DA" stroke="#162B6E" stroke-width="2.78702"/>
<rect x="127.189" y="243.94" width="22.0439" height="78.0507" fill="#2D61DA" stroke="#162B6E" stroke-width="2.78702"/>
<rect x="149.115" y="243.94" width="22.0439" height="78.0507" fill="#2D61DA" stroke="#162B6E" stroke-width="2.78702"/>
<rect x="100.481" y="315.078" width="75.4586" height="16.0559" fill="#162B6E" stroke="#162B6E" stroke-width="1.60559"/>
<rect x="112.366" y="282.966" width="7.35419" height="40.1396" stroke="#162B6E" stroke-width="1.60559"/>
<rect x="105.202" y="282.966" width="7.35419" height="40.1396" stroke="#162B6E" stroke-width="1.60559"/>
<rect x="119.725" y="282.966" width="7.35419" height="40.1396" stroke="#162B6E" stroke-width="1.60559"/>
<rect x="127.077" y="282.966" width="7.35419" height="40.1396" stroke="#162B6E" stroke-width="1.60559"/>
<rect x="134.431" y="282.965" width="7.35419" height="40.1396" stroke="#162B6E" stroke-width="1.60559"/>
<rect x="141.789" y="282.965" width="7.35419" height="40.1396" stroke="#162B6E" stroke-width="1.60559"/>
<rect x="149.147" y="282.965" width="7.35419" height="40.1396" stroke="#162B6E" stroke-width="1.60559"/>
<rect x="156.506" y="282.965" width="7.35419" height="40.1396" stroke="#162B6E" stroke-width="1.60559"/>
<rect x="163.863" y="282.965" width="7.35419" height="40.1396" stroke="#162B6E" stroke-width="1.60559"/>
<rect x="105.144" y="362.646" width="21.9858" height="78.0507" fill="#2D61DA" stroke="#162B6E" stroke-width="2.78702"/>
<rect x="127.189" y="362.646" width="22.0439" height="78.0507" fill="#2D61DA" stroke="#162B6E" stroke-width="2.78702"/>
<rect x="149.115" y="362.646" width="22.0439" height="78.0507" fill="#2D61DA" stroke="#162B6E" stroke-width="2.78702"/>
<rect x="100.481" y="433.784" width="75.4586" height="16.0559" fill="#162B6E" stroke="#162B6E" stroke-width="1.60559"/>
<rect x="112.366" y="401.672" width="7.35419" height="40.1396" stroke="#162B6E" stroke-width="1.60559"/>
<rect x="105.202" y="401.672" width="7.35419" height="40.1396" stroke="#162B6E" stroke-width="1.60559"/>
<rect x="119.725" y="401.672" width="7.35419" height="40.1396" stroke="#162B6E" stroke-width="1.60559"/>
<rect x="127.077" y="401.672" width="7.35419" height="40.1396" stroke="#162B6E" stroke-width="1.60559"/>
<rect x="134.431" y="401.671" width="7.35419" height="40.1396" stroke="#162B6E" stroke-width="1.60559"/>
<rect x="141.789" y="401.671" width="7.35419" height="40.1396" stroke="#162B6E" stroke-width="1.60559"/>
<rect x="149.147" y="401.671" width="7.35419" height="40.1396" stroke="#162B6E" stroke-width="1.60559"/>
<rect x="156.506" y="401.671" width="7.35419" height="40.1396" stroke="#162B6E" stroke-width="1.60559"/>
<rect x="163.863" y="401.671" width="7.35419" height="40.1396" stroke="#162B6E" stroke-width="1.60559"/>
<rect x="220.252" y="31.769" width="44.0879" height="43.0894" fill="#2D61DA" stroke="#162B6E" stroke-width="2.78702"/>
<rect x="264.223" y="31.769" width="22.0439" height="78.0507" fill="#2D61DA" stroke="#162B6E" stroke-width="2.78702"/>
<rect x="215.589" y="102.907" width="75.4586" height="16.0559" fill="#162B6E" stroke="#162B6E" stroke-width="1.60559"/>
<rect x="227.475" y="70.7949" width="7.35419" height="40.1396" stroke="#162B6E" stroke-width="1.60559"/>
<rect x="220.311" y="70.7949" width="7.35419" height="40.1396" stroke="#162B6E" stroke-width="1.60559"/>
<rect x="234.833" y="70.7949" width="7.35419" height="40.1396" stroke="#162B6E" stroke-width="1.60559"/>
<rect x="242.185" y="70.7949" width="7.35419" height="40.1396" stroke="#162B6E" stroke-width="1.60559"/>
<rect x="249.539" y="70.7944" width="7.35419" height="40.1396" stroke="#162B6E" stroke-width="1.60559"/>
<rect x="256.898" y="70.7944" width="7.35419" height="40.1396" stroke="#162B6E" stroke-width="1.60559"/>
<rect x="264.256" y="70.7944" width="7.35419" height="40.1396" stroke="#162B6E" stroke-width="1.60559"/>
<rect x="271.614" y="70.7944" width="7.35419" height="40.1396" stroke="#162B6E" stroke-width="1.60559"/>
<rect x="278.972" y="70.7944" width="7.35419" height="40.1396" stroke="#162B6E" stroke-width="1.60559"/>
<rect x="220.252" y="134.186" width="43.9707" height="44.0635" fill="#2D61DA" stroke="#162B6E" stroke-width="2.78702"/>
<rect x="264.223" y="134.186" width="22.0439" height="78.0507" fill="#2D61DA" stroke="#162B6E" stroke-width="2.78702"/>
<rect x="215.589" y="205.323" width="75.4586" height="16.0559" fill="#162B6E" stroke="#162B6E" stroke-width="1.60559"/>
<rect x="227.475" y="173.211" width="7.35419" height="40.1396" stroke="#162B6E" stroke-width="1.60559"/>
<rect x="220.311" y="173.211" width="7.35419" height="40.1396" stroke="#162B6E" stroke-width="1.60559"/>
<rect x="234.833" y="173.211" width="7.35419" height="40.1396" stroke="#162B6E" stroke-width="1.60559"/>
<rect x="242.185" y="173.211" width="7.35419" height="40.1396" stroke="#162B6E" stroke-width="1.60559"/>
<rect x="249.539" y="173.211" width="7.35419" height="40.1396" stroke="#162B6E" stroke-width="1.60559"/>
<rect x="256.898" y="173.211" width="7.35419" height="40.1396" stroke="#162B6E" stroke-width="1.60559"/>
<rect x="264.256" y="173.211" width="7.35419" height="40.1396" stroke="#162B6E" stroke-width="1.60559"/>
<rect x="271.614" y="173.211" width="7.35419" height="40.1396" stroke="#162B6E" stroke-width="1.60559"/>
<rect x="278.972" y="173.211" width="7.35419" height="40.1396" stroke="#162B6E" stroke-width="1.60559"/>
<rect x="220.252" y="243.94" width="21.9858" height="78.0507" fill="#FFDC00" stroke="#162B6E" stroke-width="2.78702"/>
<rect x="242.296" y="243.94" width="22.0439" height="78.0507" fill="#2D61DA" stroke="#162B6E" stroke-width="2.78702"/>
<rect x="264.223" y="243.94" width="22.0439" height="78.0507" fill="#2D61DA" stroke="#162B6E" stroke-width="2.78702"/>
<rect x="215.589" y="315.078" width="75.4586" height="16.0559" fill="#162B6E" stroke="#162B6E" stroke-width="1.60559"/>
<rect x="227.475" y="282.966" width="7.35419" height="40.1396" stroke="#162B6E" stroke-width="1.60559"/>
<rect x="220.311" y="282.966" width="7.35419" height="40.1396" stroke="#162B6E" stroke-width="1.60559"/>
<rect x="234.833" y="282.966" width="7.35419" height="40.1396" stroke="#162B6E" stroke-width="1.60559"/>
<rect x="242.185" y="282.966" width="7.35419" height="40.1396" stroke="#162B6E" stroke-width="1.60559"/>
<rect x="249.539" y="282.965" width="7.35419" height="40.1396" stroke="#162B6E" stroke-width="1.60559"/>
<rect x="256.898" y="282.965" width="7.35419" height="40.1396" stroke="#162B6E" stroke-width="1.60559"/>
<rect x="264.256" y="282.965" width="7.35419" height="40.1396" stroke="#162B6E" stroke-width="1.60559"/>
<rect x="271.614" y="282.965" width="7.35419" height="40.1396" stroke="#162B6E" stroke-width="1.60559"/>
<rect x="278.972" y="282.965" width="7.35419" height="40.1396" stroke="#162B6E" stroke-width="1.60559"/>
<rect x="220.252" y="362.646" width="21.9858" height="78.0507" fill="#FFDC00" stroke="#162B6E" stroke-width="2.78702"/>
<rect x="242.296" y="362.646" width="22.0439" height="78.0507" fill="#2D61DA" stroke="#162B6E" stroke-width="2.78702"/>
<rect x="264.223" y="362.646" width="22.0439" height="78.0507" fill="#2D61DA" stroke="#162B6E" stroke-width="2.78702"/>
<rect x="215.589" y="433.784" width="75.4586" height="16.0559" fill="#162B6E" stroke="#162B6E" stroke-width="1.60559"/>
<rect x="227.475" y="401.672" width="7.35419" height="40.1396" stroke="#162B6E" stroke-width="1.60559"/>
<rect x="220.311" y="401.672" width="7.35419" height="40.1396" stroke="#162B6E" stroke-width="1.60559"/>
<rect x="234.833" y="401.672" width="7.35419" height="40.1396" stroke="#162B6E" stroke-width="1.60559"/>
<rect x="242.185" y="401.672" width="7.35419" height="40.1396" stroke="#162B6E" stroke-width="1.60559"/>
<rect x="249.539" y="401.671" width="7.35419" height="40.1396" stroke="#162B6E" stroke-width="1.60559"/>
<rect x="256.898" y="401.671" width="7.35419" height="40.1396" stroke="#162B6E" stroke-width="1.60559"/>
<rect x="264.256" y="401.671" width="7.35419" height="40.1396" stroke="#162B6E" stroke-width="1.60559"/>
<rect x="271.614" y="401.671" width="7.35419" height="40.1396" stroke="#162B6E" stroke-width="1.60559"/>
<rect x="278.972" y="401.671" width="7.35419" height="40.1396" stroke="#162B6E" stroke-width="1.60559"/>
<rect x="377.877" y="31.769" width="23.4951" height="78.0507" fill="#FFDC00" stroke="#162B6E" stroke-width="2.78702"/>
<path fill-rule="evenodd" clip-rule="evenodd" d="M390.145 33.529C390.197 33.5606 390.255 33.5832 390.317 33.5946L389.927 40.1367H387.299C387.048 40.1367 386.8 40.1615 386.558 40.2098L390.145 33.529ZM390.804 33.4201C390.879 33.3307 390.925 33.2154 390.925 33.0895C390.925 32.8057 390.695 32.5757 390.411 32.5757C390.127 32.5757 389.897 32.8057 389.897 33.0895C389.897 33.2159 389.943 33.3317 390.019 33.4212L385.193 40.7746C384.987 40.912 384.794 41.0702 384.616 41.2478C383.982 41.8815 383.596 42.716 383.52 43.6017H383.505V43.93V44.0408V44.5651V45.0042V70.1578V70.5969V71.1212V71.2362V71.5603H383.519C383.595 72.4476 383.982 73.2839 384.616 73.9186C385.328 74.6301 386.293 75.0297 387.299 75.0297H393.523C394.529 75.0297 395.494 74.6301 396.206 73.9186C396.84 73.2839 397.227 72.4476 397.303 71.5603H397.317V71.2821L397.317 71.2362V43.93H397.317V43.6017H397.302C397.225 42.7159 396.839 41.8813 396.205 41.2478C396.041 41.0839 395.864 40.9365 395.676 40.8068L390.804 33.4201ZM390.504 33.5947C390.567 33.5832 390.626 33.5603 390.679 33.5281L394.291 40.2153C394.04 40.1634 393.783 40.1367 393.523 40.1367H390.895L390.504 33.5947ZM386.42 40.2397L389.791 33.9629L385.408 40.6412C385.724 40.4595 386.065 40.3242 386.42 40.2397ZM391.036 33.9643L395.455 40.6656C395.136 40.4765 394.79 40.3353 394.429 40.2466L394.212 39.8449L391.036 33.9643ZM390.788 40.1367L390.411 33.8165V33.8162L390.331 35.1546L390.034 40.1367H390.788Z" fill="#0F2F7E"/>
<rect x="335.358" y="31.769" width="42.5195" height="43.0894" fill="#FFDC00" stroke="#162B6E" stroke-width="2.78702"/>
<rect x="330.694" y="102.907" width="75.4586" height="16.0559" fill="#162B6E" stroke="#162B6E" stroke-width="1.60559"/>
<rect x="342.58" y="70.7944" width="7.35419" height="40.1396" stroke="#162B6E" stroke-width="1.60559"/>
<rect x="335.416" y="70.7944" width="7.35419" height="40.1396" stroke="#162B6E" stroke-width="1.60559"/>
<rect x="349.939" y="70.7944" width="7.35419" height="40.1396" stroke="#162B6E" stroke-width="1.60559"/>
<rect x="357.29" y="70.7944" width="7.35419" height="40.1396" stroke="#162B6E" stroke-width="1.60559"/>
<rect x="364.645" y="70.7944" width="7.35419" height="40.1396" stroke="#162B6E" stroke-width="1.60559"/>
<path d="M342.332 91.0758C341.31 91.0758 340.428 90.9092 339.686 90.5758C338.955 90.2318 338.385 89.7372 337.977 89.092C337.579 88.4361 337.358 87.6404 337.315 86.705C337.305 86.2426 337.299 85.7534 337.299 85.2373C337.299 84.7104 337.305 84.2104 337.315 83.7373C337.358 82.8233 337.584 82.0492 337.993 81.4148C338.401 80.7804 338.977 80.2965 339.719 79.9632C340.461 79.6298 341.332 79.4632 342.332 79.4632C343.138 79.4632 343.853 79.5653 344.477 79.7696C345.1 79.9632 345.622 80.2266 346.041 80.5599C346.471 80.8933 346.794 81.2588 347.009 81.6567C347.235 82.0545 347.353 82.447 347.364 82.8341C347.374 82.9309 347.342 83.0115 347.267 83.076C347.202 83.1405 347.122 83.1728 347.025 83.1728H344.67C344.552 83.1728 344.46 83.1567 344.396 83.1244C344.342 83.0814 344.294 83.0222 344.251 82.947C344.176 82.7857 344.063 82.619 343.912 82.447C343.772 82.2642 343.573 82.1083 343.315 81.9793C343.068 81.8502 342.74 81.7857 342.332 81.7857C341.719 81.7857 341.235 81.947 340.88 82.2696C340.536 82.5921 340.348 83.1083 340.315 83.8179C340.283 84.7426 340.283 85.6781 340.315 86.6243C340.348 87.377 340.547 87.92 340.912 88.2533C341.278 88.5866 341.762 88.7533 342.364 88.7533C342.772 88.7533 343.133 88.6834 343.444 88.5436C343.767 88.4039 344.02 88.1888 344.202 87.8985C344.385 87.5974 344.477 87.2157 344.477 86.7534V86.4469H342.961C342.842 86.4469 342.74 86.4093 342.654 86.334C342.579 86.248 342.541 86.1458 342.541 86.0276V84.834C342.541 84.7158 342.579 84.619 342.654 84.5437C342.74 84.4577 342.842 84.4147 342.961 84.4147H347.025C347.143 84.4147 347.24 84.4577 347.315 84.5437C347.391 84.619 347.428 84.7158 347.428 84.834V86.6727C347.428 87.5974 347.218 88.3877 346.799 89.0436C346.38 89.6995 345.783 90.2049 345.009 90.5597C344.245 90.9038 343.353 91.0758 342.332 91.0758ZM353.94 91.0758C352.918 91.0758 352.037 90.9092 351.295 90.5758C350.563 90.2318 349.994 89.7372 349.585 89.092C349.187 88.4361 348.967 87.6404 348.924 86.705C348.913 86.2426 348.908 85.7534 348.908 85.2373C348.908 84.7104 348.913 84.2104 348.924 83.7373C348.967 82.8233 349.193 82.0492 349.601 81.4148C350.01 80.7804 350.585 80.2965 351.327 79.9632C352.069 79.6298 352.94 79.4632 353.94 79.4632C354.746 79.4632 355.461 79.5653 356.085 79.7696C356.709 79.9632 357.23 80.2266 357.649 80.5599C358.079 80.8933 358.402 81.2588 358.617 81.6567C358.843 82.0545 358.961 82.447 358.972 82.8341C358.983 82.9309 358.95 83.0115 358.875 83.076C358.811 83.1405 358.73 83.1728 358.633 83.1728H356.278C356.16 83.1728 356.069 83.1567 356.004 83.1244C355.95 83.0814 355.902 83.0222 355.859 82.947C355.784 82.7857 355.671 82.619 355.52 82.447C355.381 82.2642 355.182 82.1083 354.924 81.9793C354.676 81.8502 354.348 81.7857 353.94 81.7857C353.327 81.7857 352.843 81.947 352.488 82.2696C352.144 82.5921 351.956 83.1083 351.924 83.8179C351.891 84.7426 351.891 85.6781 351.924 86.6243C351.956 87.377 352.155 87.92 352.52 88.2533C352.886 88.5866 353.37 88.7533 353.972 88.7533C354.381 88.7533 354.741 88.6834 355.053 88.5436C355.375 88.4039 355.628 88.1888 355.811 87.8985C355.993 87.5974 356.085 87.2157 356.085 86.7534V86.4469H354.569C354.45 86.4469 354.348 86.4093 354.262 86.334C354.187 86.248 354.149 86.1458 354.149 86.0276V84.834C354.149 84.7158 354.187 84.619 354.262 84.5437C354.348 84.4577 354.45 84.4147 354.569 84.4147H358.633C358.751 84.4147 358.848 84.4577 358.924 84.5437C358.999 84.619 359.036 84.7158 359.036 84.834V86.6727C359.036 87.5974 358.827 88.3877 358.407 89.0436C357.988 89.6995 357.391 90.2049 356.617 90.5597C355.854 90.9038 354.961 91.0758 353.94 91.0758ZM365.548 91.0758C364.527 91.0758 363.645 90.9092 362.903 90.5758C362.172 90.2318 361.602 89.7372 361.193 89.092C360.795 88.4361 360.575 87.6404 360.532 86.705C360.521 86.2426 360.516 85.7534 360.516 85.2373C360.516 84.7104 360.521 84.2104 360.532 83.7373C360.575 82.8233 360.801 82.0492 361.209 81.4148C361.618 80.7804 362.193 80.2965 362.935 79.9632C363.677 79.6298 364.548 79.4632 365.548 79.4632C366.354 79.4632 367.069 79.5653 367.693 79.7696C368.317 79.9632 368.838 80.2266 369.258 80.5599C369.688 80.8933 370.01 81.2588 370.225 81.6567C370.451 82.0545 370.569 82.447 370.58 82.8341C370.591 82.9309 370.559 83.0115 370.483 83.076C370.419 83.1405 370.338 83.1728 370.241 83.1728H367.887C367.768 83.1728 367.677 83.1567 367.612 83.1244C367.559 83.0814 367.51 83.0222 367.467 82.947C367.392 82.7857 367.279 82.619 367.129 82.447C366.989 82.2642 366.79 82.1083 366.532 81.9793C366.285 81.8502 365.957 81.7857 365.548 81.7857C364.935 81.7857 364.451 81.947 364.096 82.2696C363.752 82.5921 363.564 83.1083 363.532 83.8179C363.5 84.7426 363.5 85.6781 363.532 86.6243C363.564 87.377 363.763 87.92 364.129 88.2533C364.494 88.5866 364.978 88.7533 365.58 88.7533C365.989 88.7533 366.349 88.6834 366.661 88.5436C366.983 88.4039 367.236 88.1888 367.419 87.8985C367.602 87.5974 367.693 87.2157 367.693 86.7534V86.4469H366.177C366.059 86.4469 365.957 86.4093 365.871 86.334C365.795 86.248 365.758 86.1458 365.758 86.0276V84.834C365.758 84.7158 365.795 84.619 365.871 84.5437C365.957 84.4577 366.059 84.4147 366.177 84.4147H370.241C370.36 84.4147 370.456 84.4577 370.532 84.5437C370.607 84.619 370.645 84.7158 370.645 84.834V86.6727C370.645 87.5974 370.435 88.3877 370.016 89.0436C369.596 89.6995 369 90.2049 368.225 90.5597C367.462 90.9038 366.569 91.0758 365.548 91.0758Z" fill="#2D61DA"/>
<path d="M347.003 75.6437C346.973 75.649 346.941 75.6398 346.919 75.6167L341.558 70.132L343.399 76.0313C343.415 76.0811 343.387 76.1342 343.337 76.1496C343.287 76.1651 343.234 76.1374 343.219 76.0876L341.26 69.8126C341.247 69.7709 341.265 69.7255 341.302 69.7031C341.34 69.6807 341.388 69.687 341.419 69.7181L347.054 75.4844C347.091 75.5217 347.09 75.5816 347.053 75.6181C347.039 75.6319 347.021 75.6405 347.003 75.6437L347.003 75.6437Z" fill="white"/>
<path d="M342.439 77.1287C342.439 77.1287 342.437 77.129 342.436 77.1292C342.384 77.1369 342.336 77.1011 342.328 77.0494L341.31 70.1525L338.835 76.545C338.816 76.5936 338.761 76.618 338.713 76.5992C338.664 76.5803 338.64 76.5254 338.659 76.4768L341.263 69.7499C341.278 69.7099 341.319 69.6852 341.362 69.69C341.404 69.6948 341.439 69.7277 341.445 69.7702L342.516 77.0216C342.524 77.0725 342.489 77.1199 342.439 77.1287L342.439 77.1287Z" fill="white"/>
<path d="M339.985 71.3864C339.985 71.3864 339.984 71.3866 339.983 71.3868C339.812 71.4162 339.678 71.3615 339.605 71.2326C339.519 71.082 339.508 70.9262 339.571 70.7692C339.824 70.1419 341.264 69.7113 341.325 69.6933C341.356 69.6841 341.39 69.6918 341.415 69.7135C341.439 69.7352 341.45 69.7683 341.445 69.8004C341.327 70.464 340.488 71.2978 339.985 71.3862L339.985 71.3864ZM341.215 69.9269C340.75 70.0849 339.907 70.4423 339.746 70.8403C339.705 70.9421 339.713 71.04 339.769 71.1392C339.782 71.162 339.817 71.2232 339.951 71.2003L339.952 71.2C340.343 71.1314 341.02 70.4787 341.215 69.9269Z" fill="white"/>
<path d="M343.457 70.9864C343.298 71.0143 343.075 70.9914 342.775 70.8842C342.107 70.645 341.319 69.8845 341.286 69.8522C341.258 69.8252 341.249 69.7839 341.264 69.748C341.279 69.7122 341.315 69.6891 341.354 69.6897C341.39 69.6903 342.256 69.71 343.115 70.0248C343.638 70.2164 343.836 70.5518 343.756 70.7704C343.72 70.8723 343.624 70.9571 343.457 70.9864ZM341.615 69.8955C341.889 70.1355 342.402 70.5491 342.839 70.7058C343.319 70.878 343.544 70.7999 343.578 70.7057C343.62 70.591 343.459 70.3522 343.05 70.2021C342.5 70.0006 341.935 69.9243 341.614 69.8956L341.615 69.8955Z" fill="white"/>
<path d="M341.544 73.8371C341.54 73.8378 341.536 73.8385 341.531 73.8385C341.479 73.8407 341.435 73.8005 341.433 73.7481L341.258 69.788C341.256 69.7426 341.286 69.7024 341.33 69.6917C341.374 69.6812 341.42 69.7036 341.438 69.745L343.074 73.3847C343.096 73.4323 343.074 73.4883 343.027 73.5098C342.979 73.5313 342.923 73.5101 342.902 73.4624L341.469 70.2736L341.622 73.7398C341.624 73.7879 341.59 73.829 341.544 73.8371Z" fill="white"/>
<path fill-rule="evenodd" clip-rule="evenodd" d="M343.198 78.0009C343.198 78.0009 343.254 78.3322 343.246 78.7991C343.231 79.7179 343.131 81.1695 343.121 81.904C343.104 83.0533 343.207 85.5631 345.637 86.0489C347.768 86.4751 349.903 85.2228 350.03 83.501C350.158 81.7793 349.055 79.9448 348.543 79.2111C348.031 78.4774 347.476 77.2881 347.476 77.2881L343.198 78.0007L343.198 78.0009Z" fill="#FFDC00"/>
<path fill-rule="evenodd" clip-rule="evenodd" d="M348.503 82.8189C348.877 82.0763 348.396 80.1277 347.618 79.3267C347.02 78.7108 345.884 78.114 345.155 78.5718C344.718 78.8462 344.763 79.8062 344.636 80.1513C344.501 80.5194 344.338 80.8606 344.093 81.0949C343.75 81.4252 343.565 81.8865 343.584 82.3624C343.61 82.9785 343.82 83.5403 344.306 83.7734C345.182 84.1934 347.913 83.9893 348.503 82.8187L348.503 82.8189Z" fill="#C5AD16"/>
<path fill-rule="evenodd" clip-rule="evenodd" d="M345.504 77.6169C345.504 77.6169 345.175 78.9174 346.293 80.1723C347.412 81.4272 348.618 80.795 348.975 81.3589C349.332 81.9228 349.417 83.1126 350.039 82.957C350.714 82.7884 350.788 82.2551 350.617 81.4901C350.449 80.7365 349.667 79.4665 348.963 78.8561C348.258 78.2458 347.476 77.2884 347.476 77.2884L345.504 77.6168L345.504 77.6169Z" fill="#FFDC00"/>
<path fill-rule="evenodd" clip-rule="evenodd" d="M346.283 80.182C346.601 80.5644 346.931 80.7848 347.25 80.9173C347.645 81.0814 348.02 81.1124 348.325 81.1559C348.451 81.174 348.564 81.1934 348.662 81.2275C348.764 81.2631 348.848 81.3141 348.905 81.4035C349.019 81.5756 349.107 81.8106 349.196 82.0442C349.289 82.2889 349.382 82.5327 349.499 82.7105C349.637 82.9218 349.806 83.0433 350.043 82.9741L350.035 82.9407C349.82 82.9855 349.68 82.864 349.571 82.6673C349.471 82.4863 349.399 82.2433 349.322 82.0006C349.242 81.75 349.157 81.5012 349.045 81.3151C348.977 81.2059 348.882 81.1336 348.764 81.0851C348.67 81.0462 348.56 81.0227 348.437 81.006C348.226 80.9775 347.977 80.9679 347.705 80.9192C347.488 80.8806 347.256 80.8181 347.018 80.6989C346.784 80.5824 346.544 80.4139 346.304 80.1633L346.283 80.1823L346.283 80.182Z" fill="#C5AD16"/>
<path fill-rule="evenodd" clip-rule="evenodd" d="M343.237 79.1849C343.241 79.049 343.245 78.9195 343.247 78.7991C343.255 78.3322 343.198 78.0009 343.198 78.0009L347.477 77.2884C347.477 77.2884 347.799 77.6695 348.204 78.1126C347.658 78.0908 346.351 78.0924 345.421 78.3103C344.418 78.5453 343.604 78.9714 343.237 79.1852L343.237 79.1849Z" fill="#C5AD16"/>
<path fill-rule="evenodd" clip-rule="evenodd" d="M349.677 83.5713C349.677 83.5713 349.496 82.2727 348.603 81.8275C347.255 81.1553 344.616 81.7596 344.075 82.6702C343.523 83.5987 344.16 84.9849 344.16 84.9849L349.677 83.5716L349.677 83.5713Z" fill="#FFDC00"/>
<path fill-rule="evenodd" clip-rule="evenodd" d="M349.724 83.5648C349.724 83.5648 349.642 82.9074 349.278 82.3552C349.121 82.1174 348.912 81.8998 348.637 81.7585C348.236 81.5539 347.722 81.457 347.181 81.4501C346.856 81.4459 346.52 81.4737 346.194 81.5293C345.767 81.6023 345.357 81.7224 345.006 81.8751C344.538 82.0789 344.175 82.3435 344.009 82.6308C343.839 82.9263 343.781 83.2631 343.787 83.5901C343.799 84.3234 344.124 85.0015 344.124 85.0015C344.133 85.0216 344.157 85.0302 344.177 85.0211C344.197 85.012 344.205 84.9882 344.196 84.9684C344.196 84.9684 343.903 84.3013 343.913 83.5902C343.917 83.2883 343.976 82.9777 344.141 82.7095C344.272 82.4943 344.53 82.3016 344.86 82.139C345.097 82.0217 345.371 81.9219 345.665 81.8417C345.846 81.7922 346.035 81.7503 346.227 81.7171C346.542 81.6629 346.865 81.6329 347.18 81.6328C347.694 81.6324 348.184 81.7102 348.568 81.8971C348.891 82.053 349.118 82.3255 349.278 82.6046C349.551 83.0814 349.629 83.5786 349.629 83.5786C349.632 83.6051 349.657 83.6233 349.683 83.6197C349.71 83.6162 349.728 83.5918 349.724 83.5653L349.724 83.5648Z" fill="#C5AD16"/>
<path fill-rule="evenodd" clip-rule="evenodd" d="M345.349 77.6401C345.349 77.6401 346.055 80.0808 345.747 80.1443C345.439 80.2081 345.107 77.6804 345.107 77.6804L345.349 77.6401Z" fill="#C5AD16" stroke="#162B6E" stroke-width="0.190846" stroke-linecap="round" stroke-linejoin="round"/>
<path d="M345.888 80.5966C345.871 80.5995 345.854 80.5912 345.846 80.576C345.844 80.5723 345.843 80.5685 345.842 80.5646C345.839 80.5477 345.848 80.531 345.863 80.5231C345.882 80.5134 345.9 80.5005 345.918 80.4843C345.933 80.4701 345.959 80.4712 345.973 80.4867C345.988 80.5026 345.987 80.5274 345.971 80.542C345.949 80.5625 345.924 80.5797 345.899 80.5927C345.895 80.5947 345.892 80.5959 345.888 80.5966ZM345.736 80.6198C345.732 80.6205 345.727 80.6207 345.723 80.6199C345.696 80.6155 345.667 80.6074 345.639 80.5955C345.627 80.5901 345.618 80.5793 345.616 80.5663C345.615 80.5587 345.615 80.5513 345.618 80.5444C345.626 80.525 345.65 80.5152 345.669 80.5234C345.692 80.5326 345.714 80.5391 345.736 80.5426C345.757 80.5461 345.771 80.5661 345.768 80.5873C345.765 80.6038 345.752 80.6168 345.736 80.6197L345.736 80.6198ZM346.044 80.4265C346.036 80.428 346.027 80.4266 346.019 80.4226C346.009 80.417 346.001 80.407 345.999 80.3951C345.997 80.3862 345.999 80.3774 346.003 80.3697C346.014 80.3491 346.024 80.3263 346.033 80.3024C346.041 80.2829 346.065 80.2726 346.084 80.2804C346.094 80.2843 346.102 80.2915 346.106 80.3012C346.11 80.3107 346.11 80.3214 346.106 80.3312C346.096 80.3574 346.085 80.3827 346.072 80.4063C346.066 80.417 346.056 80.4244 346.045 80.4265L346.044 80.4265ZM345.528 80.516C345.517 80.518 345.506 80.5149 345.497 80.5076C345.477 80.4915 345.456 80.4734 345.436 80.4537C345.436 80.4537 345.436 80.4537 345.436 80.4537C345.43 80.4481 345.426 80.4407 345.424 80.4326C345.422 80.4202 345.426 80.4075 345.435 80.3984C345.449 80.3833 345.475 80.383 345.49 80.3975C345.509 80.4156 345.528 80.4325 345.546 80.4472C345.563 80.4609 345.566 80.4853 345.552 80.5022C345.546 80.5097 345.538 80.5146 345.528 80.5163L345.528 80.516ZM345.365 80.348C345.35 80.3505 345.336 80.3452 345.327 80.3342C345.322 80.3279 345.317 80.3213 345.312 80.3147C345.3 80.3001 345.289 80.2846 345.278 80.2691C345.275 80.2643 345.273 80.2593 345.272 80.2538C345.27 80.2387 345.276 80.2231 345.289 80.2145C345.306 80.2026 345.331 80.2076 345.343 80.2248C345.353 80.2394 345.363 80.2534 345.373 80.2661C345.378 80.2724 345.383 80.2788 345.388 80.2847C345.402 80.3016 345.399 80.3262 345.382 80.3398C345.377 80.3439 345.371 80.3469 345.365 80.348ZM346.122 80.2055C346.117 80.2064 346.111 80.2062 346.106 80.2052C346.091 80.2017 346.079 80.1893 346.076 80.174C346.075 80.1688 346.076 80.1635 346.077 80.1585C346.082 80.1342 346.087 80.1093 346.091 80.0839C346.094 80.063 346.115 80.0478 346.135 80.0512C346.146 80.0528 346.155 80.0582 346.161 80.0667C346.167 80.0753 346.17 80.0856 346.168 80.0958C346.164 80.1225 346.159 80.1494 346.153 80.1753C346.15 80.1909 346.137 80.2027 346.122 80.2055ZM345.239 80.1501C345.222 80.153 345.205 80.1445 345.197 80.129C345.185 80.1058 345.174 80.0813 345.163 80.0565C345.161 80.0535 345.161 80.0504 345.16 80.047C345.157 80.0294 345.166 80.0121 345.183 80.005C345.202 79.9962 345.226 80.0055 345.234 80.0249C345.245 80.0485 345.256 80.0718 345.267 80.0942C345.277 80.1134 345.269 80.137 345.25 80.1466C345.246 80.1482 345.242 80.1494 345.239 80.1501ZM346.152 79.9727C346.149 79.9732 346.146 79.9732 346.143 79.9732C346.125 79.9724 346.11 79.9592 346.106 79.941C346.106 79.9381 346.105 79.9353 346.106 79.9322C346.107 79.9071 346.108 79.8813 346.108 79.8558C346.108 79.8344 346.125 79.8166 346.147 79.8165C346.157 79.8166 346.167 79.8208 346.174 79.828C346.182 79.8353 346.186 79.8453 346.186 79.8557C346.186 79.8817 346.185 79.9086 346.184 79.936C346.183 79.9541 346.17 79.9695 346.152 79.9727ZM345.148 79.9337C345.129 79.937 345.11 79.9263 345.104 79.9084C345.096 79.8847 345.087 79.8594 345.078 79.8333C345.078 79.8312 345.078 79.8292 345.077 79.8273C345.074 79.8084 345.085 79.7897 345.104 79.7838C345.124 79.7771 345.147 79.7886 345.153 79.8087C345.161 79.8338 345.17 79.8583 345.178 79.882C345.182 79.8918 345.181 79.9024 345.176 79.9118C345.172 79.9213 345.164 79.9284 345.154 79.932C345.152 79.9326 345.15 79.9333 345.148 79.9337L345.148 79.9337ZM346.146 79.7378L346.143 79.7384C346.123 79.7401 346.104 79.7259 346.101 79.7058C346.101 79.7048 346.1 79.7038 346.1 79.703C346.099 79.697 346.099 79.6911 346.099 79.6853C346.097 79.6659 346.094 79.6459 346.092 79.6256C346.09 79.6043 346.106 79.5847 346.127 79.5825C346.137 79.5812 346.148 79.5843 346.156 79.5909C346.164 79.5975 346.169 79.6068 346.17 79.6173C346.172 79.6352 346.174 79.6541 346.177 79.6773C346.177 79.6834 346.178 79.6897 346.178 79.6958C346.18 79.7158 346.166 79.7344 346.146 79.7379L346.146 79.7378ZM345.077 79.7094C345.057 79.7129 345.038 79.701 345.033 79.6816C345.025 79.6537 345.019 79.6286 345.012 79.605L345.012 79.6019C345.008 79.5821 345.021 79.5625 345.041 79.5575C345.062 79.5521 345.083 79.5648 345.088 79.5855C345.095 79.6135 345.102 79.638 345.108 79.6606C345.111 79.6705 345.11 79.6812 345.105 79.6901C345.1 79.6993 345.091 79.7059 345.081 79.7087L345.077 79.7094ZM346.12 79.5044L346.118 79.5047C346.098 79.507 346.078 79.493 346.075 79.4724C346.075 79.4719 346.075 79.4711 346.075 79.4706C346.072 79.4475 346.068 79.4221 346.065 79.393C346.062 79.3718 346.076 79.3519 346.099 79.3493C346.12 79.3466 346.14 79.3616 346.142 79.3831C346.146 79.4085 346.149 79.4345 346.152 79.4607C346.155 79.4817 346.141 79.5008 346.12 79.5044L346.12 79.5044ZM345.021 79.4813C345 79.485 344.98 79.4718 344.976 79.4514C344.97 79.4264 344.965 79.4006 344.959 79.3742L344.959 79.3732C344.955 79.3521 344.969 79.3324 344.99 79.3279C345.012 79.3234 345.031 79.3372 345.036 79.3584C345.041 79.3827 345.046 79.4077 345.052 79.4343C345.055 79.4446 345.053 79.4551 345.047 79.4639C345.041 79.4727 345.033 79.479 345.022 79.4811L345.021 79.4813ZM346.089 79.2713L346.088 79.2715C346.068 79.2746 346.048 79.2601 346.044 79.2393L346.044 79.2383C346.04 79.21 346.036 79.1849 346.033 79.1611C346.03 79.14 346.044 79.1204 346.065 79.1167L346.066 79.1165C346.087 79.1136 346.107 79.1283 346.11 79.1497C346.114 79.1732 346.117 79.1986 346.122 79.2273C346.125 79.2482 346.11 79.2676 346.089 79.2713ZM344.974 79.251L344.974 79.251C344.953 79.2547 344.933 79.2406 344.929 79.2196L344.915 79.1421C344.911 79.1208 344.926 79.1006 344.947 79.0969C344.968 79.0932 344.989 79.1075 344.992 79.1288C344.994 79.1361 344.995 79.1436 344.996 79.1512C345 79.1722 345.003 79.1896 345.006 79.2055C345.01 79.2268 344.996 79.2472 344.974 79.251ZM346.054 79.0392L346.054 79.0393C346.033 79.0429 346.013 79.0285 346.009 79.0078L346.009 79.007C346.004 78.982 346 78.9559 345.996 78.9299C345.992 78.9088 346.006 78.8887 346.028 78.8849C346.049 78.8812 346.07 78.8955 346.073 78.9169C346.078 78.9455 346.082 78.9697 346.086 78.9942C346.09 79.0153 346.075 79.0355 346.054 79.0392ZM344.935 79.0193L344.935 79.0194C344.924 79.021 344.914 79.0185 344.906 79.0122C344.897 79.0059 344.892 78.997 344.89 78.9865C344.886 78.9628 344.882 78.9372 344.878 78.9087C344.875 78.8873 344.889 78.8677 344.911 78.8643C344.933 78.8614 344.952 78.8754 344.956 78.8965L344.956 78.8978C344.96 78.9229 344.963 78.949 344.967 78.9748C344.971 78.9956 344.956 79.0156 344.935 79.0193ZM346.014 78.8077L346.014 78.8078C345.993 78.8115 345.972 78.7973 345.969 78.7763C345.964 78.7477 345.959 78.7229 345.954 78.6998C345.952 78.6894 345.954 78.6792 345.96 78.6703C345.966 78.6618 345.975 78.656 345.985 78.6539L345.986 78.6538C346.007 78.6501 346.027 78.664 346.031 78.685C346.036 78.7111 346.041 78.7373 346.046 78.762C346.047 78.7724 346.045 78.7827 346.039 78.7915C346.034 78.8 346.024 78.8059 346.014 78.8077ZM344.903 78.7865L344.901 78.7868C344.88 78.7895 344.86 78.7742 344.857 78.7529C344.854 78.7264 344.851 78.7005 344.848 78.6748C344.845 78.6535 344.859 78.6338 344.882 78.6313C344.903 78.6287 344.921 78.6428 344.925 78.6633L344.925 78.6654C344.929 78.6933 344.932 78.7187 344.935 78.7428C344.937 78.7638 344.923 78.7829 344.903 78.7865ZM345.968 78.5773C345.947 78.581 345.927 78.5676 345.923 78.5468C345.917 78.5187 345.912 78.4939 345.907 78.4707C345.902 78.4495 345.915 78.4287 345.936 78.4239C345.958 78.4194 345.978 78.4326 345.983 78.4538C345.988 78.4765 345.993 78.5008 346 78.5307L346 78.5318C346.004 78.5528 345.99 78.5726 345.969 78.577L345.968 78.5773ZM344.876 78.553C344.876 78.553 344.874 78.5533 344.873 78.5532C344.863 78.5545 344.852 78.5515 344.844 78.5449C344.836 78.5383 344.831 78.529 344.83 78.5184C344.827 78.4921 344.824 78.4661 344.822 78.4403C344.82 78.4192 344.835 78.3996 344.857 78.3974C344.877 78.3954 344.896 78.4096 344.899 78.4296C344.9 78.4303 344.9 78.4314 344.9 78.4324C344.902 78.4548 344.905 78.4788 344.908 78.5101C344.91 78.5306 344.896 78.5494 344.876 78.553L344.876 78.553ZM345.917 78.3481C345.896 78.3517 345.876 78.3388 345.872 78.3187C345.865 78.2909 345.859 78.266 345.853 78.2431C345.848 78.2221 345.861 78.2008 345.882 78.1956C345.903 78.1902 345.924 78.2031 345.929 78.2239C345.936 78.2506 345.942 78.2774 345.948 78.3005L345.948 78.3026C345.952 78.3228 345.939 78.3427 345.919 78.3476L345.917 78.3481ZM344.853 78.319C344.853 78.319 344.851 78.3194 344.85 78.3193C344.839 78.3203 344.829 78.317 344.821 78.3104C344.813 78.3035 344.808 78.2942 344.807 78.2836C344.805 78.2585 344.803 78.2324 344.801 78.2054C344.799 78.1838 344.815 78.1649 344.837 78.1632C344.857 78.1616 344.875 78.1753 344.878 78.1951L344.879 78.199C344.881 78.2275 344.883 78.2529 344.885 78.2769C344.887 78.297 344.873 78.3155 344.853 78.319ZM345.858 78.1206C345.838 78.1241 345.819 78.1119 345.814 78.0922C345.807 78.0669 345.8 78.0416 345.793 78.0174C345.79 78.0072 345.791 77.9968 345.796 77.9876C345.801 77.9784 345.809 77.9719 345.82 77.9687C345.84 77.963 345.862 77.9752 345.868 77.9956C345.876 78.0229 345.883 78.0477 345.889 78.0717L345.89 78.0756C345.894 78.0954 345.881 78.1144 345.862 78.1197C345.861 78.1199 345.86 78.1201 345.858 78.1203L345.858 78.1206ZM344.835 78.0845C344.835 78.0845 344.832 78.0847 344.831 78.0849C344.809 78.0863 344.791 78.07 344.789 78.0486C344.787 78.0197 344.785 77.9929 344.784 77.9704C344.782 77.9487 344.799 77.93 344.82 77.9286C344.841 77.9272 344.858 77.9413 344.862 77.9613C344.862 77.9626 344.862 77.9639 344.862 77.9652L344.862 77.9658C344.864 77.9917 344.866 78.0195 344.867 78.0431C344.869 78.0633 344.855 78.081 344.835 78.0844L344.835 78.0845ZM345.792 77.8951C345.773 77.8984 345.754 77.887 345.748 77.8682C345.739 77.8416 345.732 77.8175 345.724 77.7944C345.717 77.7739 345.728 77.7516 345.749 77.7448C345.769 77.738 345.792 77.7496 345.798 77.7696C345.806 77.7937 345.814 77.8183 345.822 77.8447C345.823 77.8465 345.824 77.848 345.824 77.8495C345.827 77.8688 345.816 77.8879 345.797 77.8939C345.795 77.8942 345.794 77.8945 345.792 77.8948L345.792 77.8951ZM344.821 77.8497C344.819 77.85 344.818 77.8503 344.816 77.8501C344.806 77.8505 344.796 77.8472 344.788 77.84C344.78 77.8331 344.776 77.8234 344.775 77.813C344.774 77.7851 344.773 77.7593 344.772 77.7364C344.772 77.7348 344.772 77.7341 344.771 77.7338C344.771 77.7338 344.771 77.7335 344.772 77.7332C344.771 77.7124 344.788 77.6944 344.809 77.6934C344.82 77.6932 344.83 77.6968 344.838 77.704C344.845 77.7113 344.849 77.7209 344.85 77.7313C344.85 77.7313 344.85 77.7318 344.85 77.7329C344.851 77.7603 344.853 77.7895 344.853 77.8092C344.854 77.8289 344.841 77.8463 344.821 77.8497ZM345.716 77.6728C345.697 77.6761 345.679 77.6654 345.673 77.6477C345.666 77.6286 345.659 77.61 345.652 77.5927C345.644 77.5724 345.654 77.5497 345.674 77.5419C345.694 77.5344 345.717 77.5448 345.725 77.5643C345.733 77.5859 345.74 77.6038 345.746 77.6207C345.747 77.6227 345.747 77.625 345.748 77.6273C345.751 77.646 345.741 77.6642 345.723 77.6708C345.721 77.6718 345.719 77.6724 345.716 77.6728Z" fill="#162B6E"/>
<path fill-rule="evenodd" clip-rule="evenodd" d="M347.865 75.5812C347.85 75.4985 347.803 75.425 347.735 75.3768C347.666 75.3285 347.581 75.3097 347.498 75.3243L345.1 75.7451C345.017 75.7596 344.944 75.8063 344.895 75.875C344.847 75.9438 344.828 76.0289 344.843 76.1115L345.151 77.8646C345.165 77.9473 345.212 78.0211 345.281 78.0691C345.349 78.1173 345.434 78.1364 345.517 78.1219L347.915 77.7011C347.998 77.6866 348.071 77.6399 348.12 77.5708C348.168 77.5021 348.187 77.417 348.172 77.3343L347.865 75.5812Z" fill="#FFDC00"/>
<path fill-rule="evenodd" clip-rule="evenodd" d="M346.473 75.8255C346.443 75.6531 346.279 75.538 346.106 75.5682L345.099 75.745C344.927 75.7753 344.811 75.9394 344.842 76.1118L345.149 77.8649C345.18 78.0373 345.344 78.1524 345.516 78.1221L346.524 77.9453C346.696 77.9151 346.811 77.751 346.781 77.5786L346.473 75.8255Z" fill="#C5AD16"/>
<path fill-rule="evenodd" clip-rule="evenodd" d="M345.766 75.7789C345.751 75.6962 345.704 75.6224 345.636 75.5742C345.567 75.5259 345.482 75.5071 345.399 75.5217L342.76 75.9848C342.677 75.9993 342.603 76.046 342.555 76.1148C342.507 76.1836 342.488 76.2686 342.503 76.3515L342.869 78.4367C342.883 78.5193 342.93 78.5931 342.999 78.6411C343.067 78.6893 343.152 78.7084 343.235 78.6939L345.874 78.2308C345.957 78.2162 346.031 78.1693 346.079 78.1005C346.127 78.0317 346.146 77.9467 346.132 77.864L345.766 75.7789Z" fill="#FFDC00"/>
<path fill-rule="evenodd" clip-rule="evenodd" d="M345.181 76.2768C345.15 76.1044 344.986 75.9893 344.814 76.0196L342.516 76.4229L342.857 78.3655L345.155 77.9622C345.327 77.932 345.442 77.7679 345.412 77.5955L345.181 76.2768Z" fill="#FF4DC2"/>
<path d="M346.366 77.763C346.358 77.7643 346.35 77.7638 346.343 77.7614L345.611 77.5338C345.585 77.5258 345.571 77.4983 345.579 77.4725C345.587 77.4467 345.615 77.4322 345.64 77.4403L346.372 77.6678C346.398 77.6759 346.412 77.7034 346.404 77.7292C346.398 77.7473 346.383 77.7599 346.366 77.763Z" fill="#213D5E"/>
<path d="M345.672 77.9003C345.654 77.9034 345.635 77.8963 345.624 77.8806C345.608 77.8587 345.613 77.8281 345.635 77.8124L346.273 77.3578C346.295 77.3421 346.325 77.3472 346.341 77.3691C346.356 77.391 346.351 77.4217 346.329 77.4373L345.692 77.892C345.686 77.8963 345.679 77.8991 345.672 77.9003Z" fill="#213D5E"/>
<path d="M346.329 77.2221C346.321 77.2235 346.313 77.2229 346.305 77.22L345.582 76.9655C345.557 76.9565 345.543 76.9286 345.552 76.9029C345.561 76.8775 345.589 76.864 345.615 76.8729L346.337 77.1275C346.362 77.1364 346.376 77.1643 346.367 77.19C346.361 77.2072 346.346 77.2191 346.329 77.2221Z" fill="#213D5E"/>
<path d="M345.631 77.3336C345.613 77.3369 345.593 77.3291 345.582 77.3123C345.567 77.2897 345.573 77.2594 345.596 77.2444L346.25 76.8137C346.272 76.7988 346.303 76.805 346.318 76.8275C346.333 76.8501 346.326 76.8804 346.304 76.8954L345.65 77.3261C345.644 77.3298 345.638 77.3322 345.631 77.3334L345.631 77.3336Z" fill="#213D5E"/>
<path d="M346.264 76.6777C346.255 76.6791 346.247 76.6784 346.239 76.6756L345.516 76.421C345.491 76.4121 345.477 76.3842 345.486 76.3585C345.495 76.3331 345.523 76.3196 345.549 76.3285L346.271 76.5831C346.297 76.592 346.31 76.6199 346.301 76.6456C346.295 76.6627 346.28 76.6747 346.264 76.6777Z" fill="#213D5E"/>
<path d="M345.565 76.7892C345.546 76.7925 345.526 76.7847 345.515 76.7678C345.5 76.7453 345.507 76.715 345.529 76.7L346.183 76.2693C346.206 76.2543 346.236 76.2605 346.251 76.2831C346.266 76.3057 346.26 76.336 346.237 76.3509L345.583 76.7817C345.577 76.7853 345.571 76.7878 345.565 76.7889L345.565 76.7892Z" fill="#213D5E"/>
<path d="M346.139 76.1104C346.131 76.1118 346.124 76.1113 346.116 76.1089L345.386 75.8754C345.36 75.8671 345.346 75.8395 345.354 75.814C345.363 75.7882 345.39 75.7739 345.416 75.7823L346.145 76.0158C346.171 76.0241 346.185 76.0516 346.177 76.0772C346.171 76.0951 346.156 76.1074 346.139 76.1104Z" fill="#213D5E"/>
<path d="M345.444 76.2423C345.426 76.2455 345.407 76.2382 345.396 76.2222C345.38 76.2 345.386 76.1695 345.408 76.1539L346.048 75.7043C346.07 75.6889 346.101 75.694 346.117 75.7161C346.132 75.7384 346.127 75.7688 346.105 75.7844L345.464 76.2341C345.458 76.2383 345.451 76.2411 345.444 76.2423Z" fill="#213D5E"/>
<path d="M345.56 76.4983C345.532 76.5031 345.504 76.4971 345.478 76.4803C345.443 76.458 345.421 76.424 345.416 76.3815C345.393 76.195 345.712 75.8535 345.749 75.8153C345.763 75.7998 345.786 75.7955 345.806 75.8053C345.825 75.8148 345.835 75.8354 345.832 75.8566C345.819 75.9501 345.741 76.4199 345.588 76.4899C345.579 76.4942 345.569 76.4969 345.56 76.4985L345.56 76.4983ZM345.703 76.0168C345.601 76.144 345.504 76.2935 345.513 76.3698C345.515 76.3832 345.52 76.3915 345.53 76.3979C345.54 76.404 345.543 76.4023 345.547 76.4008C345.6 76.3765 345.661 76.2053 345.703 76.017L345.703 76.0168Z" fill="#1B314B"/>
<path d="M346.23 76.4498C346.214 76.4525 346.196 76.4523 346.174 76.4454C346.01 76.3933 345.784 75.9576 345.74 75.8709C345.73 75.8512 345.735 75.8273 345.751 75.8127C345.767 75.7978 345.791 75.7957 345.81 75.8075C345.978 75.9133 346.324 76.1843 346.319 76.3471C346.317 76.387 346.297 76.4199 346.26 76.4394C346.252 76.4437 346.242 76.4477 346.23 76.4498ZM345.928 76.0115C346.024 76.1731 346.138 76.3312 346.204 76.3523C346.206 76.353 346.212 76.3546 346.214 76.3532C346.221 76.3495 346.221 76.3477 346.221 76.3439C346.223 76.2835 346.094 76.1414 345.929 76.0114L345.928 76.0115Z" fill="#1B314B"/>
<path d="M345.777 77.0535C345.774 77.054 345.771 77.0543 345.768 77.0543C345.741 77.054 345.719 77.0318 345.719 77.0046L345.735 75.8482C345.735 75.8211 345.757 75.7995 345.785 75.7998C345.812 75.8001 345.833 75.8223 345.833 75.8495L345.817 77.0057C345.817 77.0296 345.8 77.0492 345.777 77.0532L345.777 77.0535Z" fill="#1B314B"/>
<path d="M346.044 76.996C346.019 77.0005 345.994 76.9842 345.988 76.9587L345.736 75.8594C345.73 75.8331 345.746 75.8069 345.773 75.8007C345.799 75.7942 345.825 75.811 345.832 75.8375L346.084 76.9369C346.09 76.9632 346.073 76.9893 346.047 76.9956C346.046 76.9957 346.045 76.9959 346.044 76.996Z" fill="#1B314B"/>
<path fill-rule="evenodd" clip-rule="evenodd" d="M340.426 78.6128C340.426 78.6128 339.751 79.7723 340.48 81.2868C341.209 82.8014 342.543 82.5266 342.731 83.1669C342.918 83.8074 342.671 84.9742 343.313 84.9964C344.008 85.0204 344.226 84.5283 344.273 83.7458C344.319 82.9752 343.917 81.5387 343.408 80.7576C342.899 79.9765 342.412 78.841 342.412 78.841L340.426 78.6128Z" fill="#FFDC00"/>
<path fill-rule="evenodd" clip-rule="evenodd" d="M343.306 84.9964L343.306 84.9959L343.131 81.6198C343.131 81.6198 343.451 82.2127 343.685 83.1254C343.763 83.4267 343.899 84.0662 343.853 84.5097C343.828 84.748 343.687 84.948 343.647 84.9599C343.55 84.9884 343.439 85.0011 343.313 84.9965C343.31 84.9964 343.308 84.9963 343.306 84.9964L343.306 84.9964Z" fill="#C5AD16"/>
<path fill-rule="evenodd" clip-rule="evenodd" d="M338.104 78.3463C338.104 78.3463 338.066 78.6803 337.93 79.1269C337.661 80.0056 337.165 81.3735 336.953 82.0767C336.621 83.1771 336.027 85.6176 338.229 86.7548C340.159 87.7522 342.557 87.1371 343.154 85.5173C343.751 83.8977 343.198 81.83 342.908 80.9836C342.618 80.1372 342.412 78.8411 342.412 78.8411L338.104 78.3463Z" fill="#FFDC00"/>
<path fill-rule="evenodd" clip-rule="evenodd" d="M343.326 84.99C343.326 84.99 343.41 84.724 343.461 84.2429C343.471 84.1435 343.48 84.0351 343.486 83.9178C343.492 83.7837 343.495 83.6385 343.491 83.4829C343.489 83.39 343.485 83.2935 343.477 83.1933C343.459 82.9706 343.426 82.7305 343.379 82.4759C343.319 82.1488 343.231 81.7982 343.115 81.4259C343.11 81.4079 343.091 81.3973 343.073 81.4023C343.056 81.4071 343.045 81.4258 343.05 81.4437C343.14 81.819 343.198 82.1715 343.242 82.4976C343.275 82.7501 343.297 82.9867 343.312 83.2058C343.319 83.304 343.326 83.3985 343.332 83.4894C343.341 83.6422 343.348 83.7844 343.351 83.916C343.353 84.0313 343.354 84.1383 343.353 84.2366C343.349 84.7139 343.301 84.9839 343.301 84.9839C343.299 84.9907 343.303 84.9977 343.31 84.9992C343.316 85.001 343.323 84.9968 343.325 84.9898L343.326 84.99Z" fill="#C5AD16"/>
<path fill-rule="evenodd" clip-rule="evenodd" d="M337.815 79.4949C337.856 79.3656 337.896 79.2419 337.931 79.1266C338.067 78.68 338.104 78.346 338.104 78.346L342.413 78.8408C342.413 78.8408 342.617 79.296 342.886 79.8336C342.366 79.6621 341.11 79.3033 340.155 79.2561C339.126 79.2054 338.227 79.3906 337.814 79.4946L337.815 79.4949Z" fill="#C5AD16"/>
<path fill-rule="evenodd" clip-rule="evenodd" d="M343.259 77.1577C343.277 76.9843 343.152 76.8286 342.978 76.8095C342.029 76.7051 339.193 76.3937 338.241 76.2892C338.157 76.28 338.073 76.3044 338.008 76.3574C337.942 76.4103 337.9 76.487 337.891 76.5708C337.835 77.0979 337.724 78.1503 337.668 78.676C337.649 78.8494 337.775 79.0051 337.948 79.0243C338.898 79.1286 341.733 79.44 342.686 79.5446C342.77 79.5537 342.854 79.5293 342.919 79.4763C342.985 79.4235 343.027 79.3468 343.035 79.2629C343.091 78.7359 343.203 77.6834 343.259 77.1577Z" fill="#FFDC00"/>
<path fill-rule="evenodd" clip-rule="evenodd" d="M342.939 77.4959C342.957 77.322 342.831 77.1659 342.657 77.1476C341.547 77.0299 337.884 76.6414 337.884 76.6414L337.676 78.6026L342.449 79.1088C342.623 79.1274 342.779 79.0014 342.798 78.8272C342.836 78.4615 342.9 77.8616 342.939 77.4959L342.939 77.4959Z" fill="#FF4DC2"/>
<path d="M341.392 70.014C341.52 69.9917 341.604 69.8706 341.582 69.7436C341.56 69.6165 341.439 69.5316 341.312 69.5539C341.185 69.5762 341.1 69.6973 341.122 69.8243C341.144 69.9514 341.265 70.0363 341.392 70.014Z" fill="#151E27"/>
<rect x="372.003" y="70.7944" width="7.35419" height="40.1396" stroke="#162B6E" stroke-width="1.60559"/>
<rect x="379.361" y="70.7944" width="7.35419" height="40.1396" stroke="#162B6E" stroke-width="1.60559"/>
<rect x="386.72" y="70.7944" width="7.35419" height="40.1396" stroke="#162B6E" stroke-width="1.60559"/>
<rect x="394.077" y="70.7944" width="7.35419" height="40.1396" stroke="#162B6E" stroke-width="1.60559"/>
<rect x="335.357" y="134.186" width="43.9707" height="44.0635" fill="#2D61DA" stroke="#162B6E" stroke-width="2.78702"/>
<rect x="379.328" y="134.186" width="22.0439" height="78.0507" fill="#2D61DA" stroke="#162B6E" stroke-width="2.78702"/>
<rect x="330.694" y="205.323" width="75.4586" height="16.0559" fill="#162B6E" stroke="#162B6E" stroke-width="1.60559"/>
<rect x="342.58" y="173.211" width="7.35419" height="40.1396" stroke="#162B6E" stroke-width="1.60559"/>
<rect x="335.416" y="173.211" width="7.35419" height="40.1396" stroke="#162B6E" stroke-width="1.60559"/>
<rect x="349.939" y="173.211" width="7.35419" height="40.1396" stroke="#162B6E" stroke-width="1.60559"/>
<rect x="357.29" y="173.211" width="7.35419" height="40.1396" stroke="#162B6E" stroke-width="1.60559"/>
<rect x="364.645" y="173.211" width="7.35419" height="40.1396" stroke="#162B6E" stroke-width="1.60559"/>
<rect x="372.003" y="173.211" width="7.35419" height="40.1396" stroke="#162B6E" stroke-width="1.60559"/>
<rect x="379.361" y="173.211" width="7.35419" height="40.1396" stroke="#162B6E" stroke-width="1.60559"/>
<rect x="386.72" y="173.211" width="7.35419" height="40.1396" stroke="#162B6E" stroke-width="1.60559"/>
<rect x="394.077" y="173.211" width="7.35419" height="40.1396" stroke="#162B6E" stroke-width="1.60559"/>
<rect x="335.357" y="243.94" width="21.9858" height="78.0507" fill="#2D61DA" stroke="#162B6E" stroke-width="2.78702"/>
<rect x="357.402" y="243.94" width="22.0439" height="78.0507" fill="#2D61DA" stroke="#162B6E" stroke-width="2.78702"/>
<rect x="379.328" y="243.94" width="22.0439" height="78.0507" fill="#2D61DA" stroke="#162B6E" stroke-width="2.78702"/>
<rect x="330.694" y="315.078" width="75.4586" height="16.0559" fill="#162B6E" stroke="#162B6E" stroke-width="1.60559"/>
<rect x="342.58" y="282.966" width="7.35419" height="40.1396" stroke="#162B6E" stroke-width="1.60559"/>
<rect x="335.416" y="282.966" width="7.35419" height="40.1396" stroke="#162B6E" stroke-width="1.60559"/>
<rect x="349.939" y="282.966" width="7.35419" height="40.1396" stroke="#162B6E" stroke-width="1.60559"/>
<rect x="357.29" y="282.966" width="7.35419" height="40.1396" stroke="#162B6E" stroke-width="1.60559"/>
<rect x="364.645" y="282.965" width="7.35419" height="40.1396" stroke="#162B6E" stroke-width="1.60559"/>
<rect x="372.003" y="282.965" width="7.35419" height="40.1396" stroke="#162B6E" stroke-width="1.60559"/>
<rect x="379.361" y="282.965" width="7.35419" height="40.1396" stroke="#162B6E" stroke-width="1.60559"/>
<rect x="386.72" y="282.965" width="7.35419" height="40.1396" stroke="#162B6E" stroke-width="1.60559"/>
<rect x="394.077" y="282.965" width="7.35419" height="40.1396" stroke="#162B6E" stroke-width="1.60559"/>
<rect x="335.357" y="362.646" width="21.9858" height="78.0507" fill="#2D61DA" stroke="#162B6E" stroke-width="2.78702"/>
<rect x="357.402" y="362.646" width="22.0439" height="78.0507" fill="#2D61DA" stroke="#162B6E" stroke-width="2.78702"/>
<rect x="379.328" y="362.646" width="22.0439" height="78.0507" fill="#2D61DA" stroke="#162B6E" stroke-width="2.78702"/>
<rect x="330.694" y="433.784" width="75.4586" height="16.0559" fill="#162B6E" stroke="#162B6E" stroke-width="1.60559"/>
<rect x="342.58" y="401.672" width="7.35419" height="40.1396" stroke="#162B6E" stroke-width="1.60559"/>
<rect x="335.416" y="401.672" width="7.35419" height="40.1396" stroke="#162B6E" stroke-width="1.60559"/>
<rect x="349.939" y="401.672" width="7.35419" height="40.1396" stroke="#162B6E" stroke-width="1.60559"/>
<rect x="357.29" y="401.672" width="7.35419" height="40.1396" stroke="#162B6E" stroke-width="1.60559"/>
<rect x="364.645" y="401.671" width="7.35419" height="40.1396" stroke="#162B6E" stroke-width="1.60559"/>
<rect x="372.003" y="401.671" width="7.35419" height="40.1396" stroke="#162B6E" stroke-width="1.60559"/>
<rect x="379.361" y="401.671" width="7.35419" height="40.1396" stroke="#162B6E" stroke-width="1.60559"/>
<rect x="386.72" y="401.671" width="7.35419" height="40.1396" stroke="#162B6E" stroke-width="1.60559"/>
<rect x="394.077" y="401.671" width="7.35419" height="40.1396" stroke="#162B6E" stroke-width="1.60559"/>
</g>
<defs>
<clipPath id="clip0_208_10518">
<rect width="506" height="500" fill="white" transform="translate(0.14209 0.185547)"/>
</clipPath>
</defs>
</svg>
