<svg width="609" height="501" viewBox="0 0 609 501" fill="none" xmlns="http://www.w3.org/2000/svg">
<g clip-path="url(#clip0_208_13968)">
<rect x="24.52" y="10.5605" width="563.98" height="521.435" fill="#0F2F7E"/>
<rect x="0.14209" y="0.0217285" width="612.311" height="15.7527" fill="#0C276A"/>
<rect x="0.14209" y="102.907" width="47.8926" height="16.0559" fill="#162B6E" stroke="#162B6E" stroke-width="1.60559"/>
<rect x="15.004" y="70.7944" width="9.19576" height="40.1396" stroke="#162B6E" stroke-width="1.60559"/>
<rect x="6.04626" y="70.7944" width="9.19576" height="40.1396" stroke="#162B6E" stroke-width="1.60559"/>
<rect x="24.205" y="70.7944" width="9.19576" height="40.1396" stroke="#162B6E" stroke-width="1.60559"/>
<rect x="33.3978" y="70.7944" width="9.19576" height="40.1396" stroke="#162B6E" stroke-width="1.60559"/>
<rect x="0.14209" y="309.283" width="47.8926" height="16.0559" fill="#162B6E" stroke="#162B6E" stroke-width="1.60559"/>
<rect x="15.004" y="277.171" width="9.19576" height="40.1396" stroke="#162B6E" stroke-width="1.60559"/>
<rect x="6.04626" y="277.171" width="9.19576" height="40.1396" stroke="#162B6E" stroke-width="1.60559"/>
<rect x="24.205" y="277.171" width="9.19576" height="40.1396" stroke="#162B6E" stroke-width="1.60559"/>
<rect x="33.3978" y="277.171" width="9.19576" height="40.1396" stroke="#162B6E" stroke-width="1.60559"/>
<rect width="47.6719" height="16.0559" transform="matrix(-1 0 0 1 612.453 102.907)" fill="#162B6E" stroke="#162B6E" stroke-width="1.60559"/>
<rect width="9.15338" height="40.1396" transform="matrix(-1 0 0 1 597.659 70.7944)" stroke="#162B6E" stroke-width="1.60559"/>
<rect width="9.15338" height="40.1396" transform="matrix(-1 0 0 1 606.576 70.7944)" stroke="#162B6E" stroke-width="1.60559"/>
<rect width="9.15338" height="40.1396" transform="matrix(-1 0 0 1 588.501 70.7944)" stroke="#162B6E" stroke-width="1.60559"/>
<rect width="9.15338" height="40.1396" transform="matrix(-1 0 0 1 579.35 70.7944)" stroke="#162B6E" stroke-width="1.60559"/>
<rect width="47.6719" height="16.0559" transform="matrix(-1 0 0 1 612.453 309.283)" fill="#162B6E" stroke="#162B6E" stroke-width="1.60559"/>
<rect width="9.15338" height="40.1396" transform="matrix(-1 0 0 1 597.659 277.171)" stroke="#162B6E" stroke-width="1.60559"/>
<rect width="9.15338" height="40.1396" transform="matrix(-1 0 0 1 606.576 277.171)" stroke="#162B6E" stroke-width="1.60559"/>
<rect width="9.15338" height="40.1396" transform="matrix(-1 0 0 1 588.501 277.171)" stroke="#162B6E" stroke-width="1.60559"/>
<rect width="9.15338" height="40.1396" transform="matrix(-1 0 0 1 579.35 277.171)" stroke="#162B6E" stroke-width="1.60559"/>
<rect x="0.14209" y="206.095" width="47.8926" height="16.0559" fill="#162B6E" stroke="#162B6E" stroke-width="1.60559"/>
<rect x="15.004" y="173.983" width="9.19576" height="40.1396" stroke="#162B6E" stroke-width="1.60559"/>
<rect x="6.04626" y="173.983" width="9.19576" height="40.1396" stroke="#162B6E" stroke-width="1.60559"/>
<rect x="24.205" y="173.983" width="9.19576" height="40.1396" stroke="#162B6E" stroke-width="1.60559"/>
<rect x="33.3978" y="173.983" width="9.19576" height="40.1396" stroke="#162B6E" stroke-width="1.60559"/>
<rect x="0.14209" y="431.521" width="47.8926" height="16.0559" fill="#162B6E" stroke="#162B6E" stroke-width="1.60559"/>
<rect x="15.004" y="399.409" width="9.19576" height="40.1396" stroke="#162B6E" stroke-width="1.60559"/>
<rect x="6.04626" y="399.409" width="9.19576" height="40.1396" stroke="#162B6E" stroke-width="1.60559"/>
<rect x="24.205" y="399.409" width="9.19576" height="40.1396" stroke="#162B6E" stroke-width="1.60559"/>
<rect x="33.3978" y="399.409" width="9.19576" height="40.1396" stroke="#162B6E" stroke-width="1.60559"/>
<rect width="47.6719" height="16.0559" transform="matrix(-1 0 0 1 612.453 206.095)" fill="#162B6E" stroke="#162B6E" stroke-width="1.60559"/>
<rect width="9.15338" height="40.1396" transform="matrix(-1 0 0 1 597.659 173.983)" stroke="#162B6E" stroke-width="1.60559"/>
<rect width="9.15338" height="40.1396" transform="matrix(-1 0 0 1 606.576 173.983)" stroke="#162B6E" stroke-width="1.60559"/>
<rect width="9.15338" height="40.1396" transform="matrix(-1 0 0 1 588.501 173.983)" stroke="#162B6E" stroke-width="1.60559"/>
<rect width="9.15338" height="40.1396" transform="matrix(-1 0 0 1 579.35 173.983)" stroke="#162B6E" stroke-width="1.60559"/>
<rect width="47.6719" height="16.0559" transform="matrix(-1 0 0 1 612.453 431.521)" fill="#162B6E" stroke="#162B6E" stroke-width="1.60559"/>
<rect width="9.15338" height="40.1396" transform="matrix(-1 0 0 1 597.659 399.409)" stroke="#162B6E" stroke-width="1.60559"/>
<rect width="9.15338" height="40.1396" transform="matrix(-1 0 0 1 606.576 399.409)" stroke="#162B6E" stroke-width="1.60559"/>
<rect width="9.15338" height="40.1396" transform="matrix(-1 0 0 1 588.501 399.409)" stroke="#162B6E" stroke-width="1.60559"/>
<rect width="9.15338" height="40.1396" transform="matrix(-1 0 0 1 579.35 399.409)" stroke="#162B6E" stroke-width="1.60559"/>
<rect x="127.207" y="31.7688" width="26.6051" height="78.0507" fill="#2D61DA" stroke="#162B6E" stroke-width="2.78702"/>
<rect x="153.882" y="31.7688" width="26.6753" height="78.0507" fill="#2D61DA" stroke="#162B6E" stroke-width="2.78702"/>
<rect x="180.416" y="31.7688" width="26.6753" height="78.0507" fill="#2D61DA" stroke="#162B6E" stroke-width="2.78702"/>
<rect x="121.564" y="102.907" width="91.3125" height="16.0559" fill="#162B6E" stroke="#162B6E" stroke-width="1.60559"/>
<rect x="135.947" y="70.7944" width="8.89931" height="40.1396" stroke="#162B6E" stroke-width="1.60559"/>
<rect x="127.278" y="70.7944" width="8.89931" height="40.1396" stroke="#162B6E" stroke-width="1.60559"/>
<rect x="144.851" y="70.7944" width="8.89931" height="40.1396" stroke="#162B6E" stroke-width="1.60559"/>
<rect x="153.748" y="70.7944" width="8.89931" height="40.1396" stroke="#162B6E" stroke-width="1.60559"/>
<rect x="162.647" y="70.7942" width="8.89931" height="40.1396" stroke="#162B6E" stroke-width="1.60559"/>
<rect x="171.551" y="70.7942" width="8.89931" height="40.1396" stroke="#162B6E" stroke-width="1.60559"/>
<rect x="180.456" y="70.7942" width="8.89931" height="40.1396" stroke="#162B6E" stroke-width="1.60559"/>
<rect x="189.36" y="70.7942" width="8.89931" height="40.1396" stroke="#162B6E" stroke-width="1.60559"/>
<rect x="198.263" y="70.7942" width="8.89931" height="40.1396" stroke="#162B6E" stroke-width="1.60559"/>
<rect x="127.207" y="134.185" width="26.6051" height="78.0507" fill="#2D61DA" stroke="#162B6E" stroke-width="2.78702"/>
<rect x="153.882" y="134.185" width="26.6753" height="78.0507" fill="#2D61DA" stroke="#162B6E" stroke-width="2.78702"/>
<rect x="180.416" y="134.185" width="26.6753" height="78.0507" fill="#2D61DA" stroke="#162B6E" stroke-width="2.78702"/>
<rect x="121.564" y="205.323" width="91.3125" height="16.0559" fill="#162B6E" stroke="#162B6E" stroke-width="1.60559"/>
<rect x="135.947" y="173.211" width="8.89931" height="40.1396" stroke="#162B6E" stroke-width="1.60559"/>
<rect x="127.278" y="173.211" width="8.89931" height="40.1396" stroke="#162B6E" stroke-width="1.60559"/>
<rect x="144.851" y="173.211" width="8.89931" height="40.1396" stroke="#162B6E" stroke-width="1.60559"/>
<rect x="153.748" y="173.211" width="8.89931" height="40.1396" stroke="#162B6E" stroke-width="1.60559"/>
<rect x="162.647" y="173.211" width="8.89931" height="40.1396" stroke="#162B6E" stroke-width="1.60559"/>
<rect x="171.551" y="173.211" width="8.89931" height="40.1396" stroke="#162B6E" stroke-width="1.60559"/>
<rect x="180.456" y="173.211" width="8.89931" height="40.1396" stroke="#162B6E" stroke-width="1.60559"/>
<rect x="189.36" y="173.211" width="8.89931" height="40.1396" stroke="#162B6E" stroke-width="1.60559"/>
<rect x="198.263" y="173.211" width="8.89931" height="40.1396" stroke="#162B6E" stroke-width="1.60559"/>
<rect x="127.207" y="243.939" width="26.6051" height="78.0507" fill="#2D61DA" stroke="#162B6E" stroke-width="2.78702"/>
<rect x="153.882" y="243.939" width="26.6753" height="78.0507" fill="#2D61DA" stroke="#162B6E" stroke-width="2.78702"/>
<rect x="180.416" y="243.939" width="26.6753" height="78.0507" fill="#2D61DA" stroke="#162B6E" stroke-width="2.78702"/>
<rect x="121.564" y="315.077" width="91.3125" height="16.0559" fill="#162B6E" stroke="#162B6E" stroke-width="1.60559"/>
<rect x="135.947" y="282.965" width="8.89931" height="40.1396" stroke="#162B6E" stroke-width="1.60559"/>
<rect x="127.278" y="282.965" width="8.89931" height="40.1396" stroke="#162B6E" stroke-width="1.60559"/>
<rect x="144.851" y="282.965" width="8.89931" height="40.1396" stroke="#162B6E" stroke-width="1.60559"/>
<rect x="153.748" y="282.965" width="8.89931" height="40.1396" stroke="#162B6E" stroke-width="1.60559"/>
<rect x="162.647" y="282.965" width="8.89931" height="40.1396" stroke="#162B6E" stroke-width="1.60559"/>
<rect x="171.551" y="282.965" width="8.89931" height="40.1396" stroke="#162B6E" stroke-width="1.60559"/>
<rect x="180.456" y="282.965" width="8.89931" height="40.1396" stroke="#162B6E" stroke-width="1.60559"/>
<rect x="189.36" y="282.965" width="8.89931" height="40.1396" stroke="#162B6E" stroke-width="1.60559"/>
<rect x="198.263" y="282.965" width="8.89931" height="40.1396" stroke="#162B6E" stroke-width="1.60559"/>
<rect x="266.497" y="31.7688" width="26.6051" height="78.0507" fill="#2D61DA" stroke="#162B6E" stroke-width="2.78702"/>
<rect x="293.172" y="31.7688" width="26.6753" height="78.0507" fill="#2D61DA" stroke="#162B6E" stroke-width="2.78702"/>
<rect x="319.706" y="31.7688" width="26.6753" height="78.0507" fill="#2D61DA" stroke="#162B6E" stroke-width="2.78702"/>
<rect x="260.854" y="102.907" width="91.3125" height="16.0559" fill="#162B6E" stroke="#162B6E" stroke-width="1.60559"/>
<rect x="275.237" y="70.7944" width="8.89931" height="40.1396" stroke="#162B6E" stroke-width="1.60559"/>
<rect x="266.568" y="70.7944" width="8.89931" height="40.1396" stroke="#162B6E" stroke-width="1.60559"/>
<rect x="284.141" y="70.7944" width="8.89931" height="40.1396" stroke="#162B6E" stroke-width="1.60559"/>
<rect x="293.038" y="70.7944" width="8.89931" height="40.1396" stroke="#162B6E" stroke-width="1.60559"/>
<rect x="301.937" y="70.7942" width="8.89931" height="40.1396" stroke="#162B6E" stroke-width="1.60559"/>
<rect x="310.841" y="70.7942" width="8.89931" height="40.1396" stroke="#162B6E" stroke-width="1.60559"/>
<rect x="319.746" y="70.7942" width="8.89931" height="40.1396" stroke="#162B6E" stroke-width="1.60559"/>
<rect x="328.65" y="70.7942" width="8.89931" height="40.1396" stroke="#162B6E" stroke-width="1.60559"/>
<rect x="337.553" y="70.7942" width="8.89931" height="40.1396" stroke="#162B6E" stroke-width="1.60559"/>
<rect x="266.497" y="134.185" width="26.6051" height="78.0507" fill="#2D61DA" stroke="#162B6E" stroke-width="2.78702"/>
<rect x="293.172" y="134.185" width="26.6753" height="78.0507" fill="#2D61DA" stroke="#162B6E" stroke-width="2.78702"/>
<rect x="319.706" y="134.185" width="26.6753" height="78.0507" fill="#2D61DA" stroke="#162B6E" stroke-width="2.78702"/>
<rect x="260.854" y="205.323" width="91.3125" height="16.0559" fill="#162B6E" stroke="#162B6E" stroke-width="1.60559"/>
<rect x="275.237" y="173.211" width="8.89931" height="40.1396" stroke="#162B6E" stroke-width="1.60559"/>
<rect x="266.568" y="173.211" width="8.89931" height="40.1396" stroke="#162B6E" stroke-width="1.60559"/>
<rect x="284.141" y="173.211" width="8.89931" height="40.1396" stroke="#162B6E" stroke-width="1.60559"/>
<rect x="293.038" y="173.211" width="8.89931" height="40.1396" stroke="#162B6E" stroke-width="1.60559"/>
<rect x="301.937" y="173.211" width="8.89931" height="40.1396" stroke="#162B6E" stroke-width="1.60559"/>
<rect x="310.841" y="173.211" width="8.89931" height="40.1396" stroke="#162B6E" stroke-width="1.60559"/>
<rect x="319.746" y="173.211" width="8.89931" height="40.1396" stroke="#162B6E" stroke-width="1.60559"/>
<rect x="328.65" y="173.211" width="8.89931" height="40.1396" stroke="#162B6E" stroke-width="1.60559"/>
<rect x="337.553" y="173.211" width="8.89931" height="40.1396" stroke="#162B6E" stroke-width="1.60559"/>
<rect x="266.497" y="243.939" width="26.6051" height="78.0507" fill="#FFDC00" stroke="#162B6E" stroke-width="2.78702"/>
<rect x="293.172" y="243.939" width="26.6753" height="78.0507" fill="#2D61DA" stroke="#162B6E" stroke-width="2.78702"/>
<rect x="319.706" y="243.939" width="26.6753" height="78.0507" fill="#2D61DA" stroke="#162B6E" stroke-width="2.78702"/>
<rect x="260.854" y="315.077" width="91.3125" height="16.0559" fill="#162B6E" stroke="#162B6E" stroke-width="1.60559"/>
<rect x="275.237" y="282.965" width="8.89931" height="40.1396" stroke="#162B6E" stroke-width="1.60559"/>
<rect x="266.568" y="282.965" width="8.89931" height="40.1396" stroke="#162B6E" stroke-width="1.60559"/>
<rect x="284.141" y="282.965" width="8.89931" height="40.1396" stroke="#162B6E" stroke-width="1.60559"/>
<rect x="293.038" y="282.965" width="8.89931" height="40.1396" stroke="#162B6E" stroke-width="1.60559"/>
<rect x="301.937" y="282.965" width="8.89931" height="40.1396" stroke="#162B6E" stroke-width="1.60559"/>
<rect x="310.841" y="282.965" width="8.89931" height="40.1396" stroke="#162B6E" stroke-width="1.60559"/>
<rect x="319.746" y="282.965" width="8.89931" height="40.1396" stroke="#162B6E" stroke-width="1.60559"/>
<rect x="328.65" y="282.965" width="8.89931" height="40.1396" stroke="#162B6E" stroke-width="1.60559"/>
<rect x="337.553" y="282.965" width="8.89931" height="40.1396" stroke="#162B6E" stroke-width="1.60559"/>
<rect x="405.787" y="31.7688" width="26.6051" height="78.0507" fill="#2D61DA" stroke="#162B6E" stroke-width="2.78702"/>
<rect x="432.462" y="31.7688" width="26.6753" height="78.0507" fill="#2D61DA" stroke="#162B6E" stroke-width="2.78702"/>
<rect x="458.996" y="31.7688" width="26.6753" height="78.0507" fill="#FFDC00" stroke="#162B6E" stroke-width="2.78702"/>
<rect x="400.144" y="102.907" width="91.3125" height="16.0559" fill="#162B6E" stroke="#162B6E" stroke-width="1.60559"/>
<rect x="414.527" y="70.7944" width="8.89931" height="40.1396" stroke="#162B6E" stroke-width="1.60559"/>
<rect x="405.858" y="70.7944" width="8.89931" height="40.1396" stroke="#162B6E" stroke-width="1.60559"/>
<rect x="423.431" y="70.7944" width="8.89931" height="40.1396" stroke="#162B6E" stroke-width="1.60559"/>
<rect x="432.328" y="70.7944" width="8.89931" height="40.1396" stroke="#162B6E" stroke-width="1.60559"/>
<rect x="441.227" y="70.7942" width="8.89931" height="40.1396" stroke="#162B6E" stroke-width="1.60559"/>
<rect x="450.131" y="70.7942" width="8.89931" height="40.1396" stroke="#162B6E" stroke-width="1.60559"/>
<rect x="459.036" y="70.7942" width="8.89931" height="40.1396" stroke="#162B6E" stroke-width="1.60559"/>
<rect x="467.94" y="70.7942" width="8.89931" height="40.1396" stroke="#162B6E" stroke-width="1.60559"/>
<rect x="476.843" y="70.7942" width="8.89931" height="40.1396" stroke="#162B6E" stroke-width="1.60559"/>
<rect x="405.787" y="134.185" width="26.6051" height="78.0507" fill="#2D61DA" stroke="#162B6E" stroke-width="2.78702"/>
<rect x="432.462" y="134.185" width="26.6753" height="78.0507" fill="#2D61DA" stroke="#162B6E" stroke-width="2.78702"/>
<rect x="458.996" y="134.185" width="26.6753" height="78.0507" fill="#2D61DA" stroke="#162B6E" stroke-width="2.78702"/>
<rect x="400.144" y="205.323" width="91.3125" height="16.0559" fill="#162B6E" stroke="#162B6E" stroke-width="1.60559"/>
<rect x="414.527" y="173.211" width="8.89931" height="40.1396" stroke="#162B6E" stroke-width="1.60559"/>
<rect x="405.858" y="173.211" width="8.89931" height="40.1396" stroke="#162B6E" stroke-width="1.60559"/>
<rect x="423.431" y="173.211" width="8.89931" height="40.1396" stroke="#162B6E" stroke-width="1.60559"/>
<rect x="432.328" y="173.211" width="8.89931" height="40.1396" stroke="#162B6E" stroke-width="1.60559"/>
<rect x="441.227" y="173.211" width="8.89931" height="40.1396" stroke="#162B6E" stroke-width="1.60559"/>
<rect x="450.131" y="173.211" width="8.89931" height="40.1396" stroke="#162B6E" stroke-width="1.60559"/>
<rect x="459.036" y="173.211" width="8.89931" height="40.1396" stroke="#162B6E" stroke-width="1.60559"/>
<rect x="467.94" y="173.211" width="8.89931" height="40.1396" stroke="#162B6E" stroke-width="1.60559"/>
<rect x="476.843" y="173.211" width="8.89931" height="40.1396" stroke="#162B6E" stroke-width="1.60559"/>
<rect x="405.787" y="243.939" width="26.6051" height="78.0507" fill="#2D61DA" stroke="#162B6E" stroke-width="2.78702"/>
<rect x="432.462" y="243.939" width="26.6753" height="78.0507" fill="#2D61DA" stroke="#162B6E" stroke-width="2.78702"/>
<rect x="458.996" y="243.939" width="26.6753" height="78.0507" fill="#2D61DA" stroke="#162B6E" stroke-width="2.78702"/>
<rect x="400.144" y="315.077" width="91.3125" height="16.0559" fill="#162B6E" stroke="#162B6E" stroke-width="1.60559"/>
<rect x="414.527" y="282.965" width="8.89931" height="40.1396" stroke="#162B6E" stroke-width="1.60559"/>
<rect x="405.858" y="282.965" width="8.89931" height="40.1396" stroke="#162B6E" stroke-width="1.60559"/>
<rect x="423.431" y="282.965" width="8.89931" height="40.1396" stroke="#162B6E" stroke-width="1.60559"/>
<rect x="432.328" y="282.965" width="8.89931" height="40.1396" stroke="#162B6E" stroke-width="1.60559"/>
<rect x="441.227" y="282.965" width="8.89931" height="40.1396" stroke="#162B6E" stroke-width="1.60559"/>
<rect x="450.131" y="282.965" width="8.89931" height="40.1396" stroke="#162B6E" stroke-width="1.60559"/>
<rect x="459.036" y="282.965" width="8.89931" height="40.1396" stroke="#162B6E" stroke-width="1.60559"/>
<rect x="467.94" y="282.965" width="8.89931" height="40.1396" stroke="#162B6E" stroke-width="1.60559"/>
<rect x="476.843" y="282.965" width="8.89931" height="40.1396" stroke="#162B6E" stroke-width="1.60559"/>
<rect x="127.207" y="360.383" width="26.6051" height="78.0507" fill="#2D61DA" stroke="#162B6E" stroke-width="2.78702"/>
<rect x="153.882" y="360.383" width="26.6753" height="78.0507" fill="#2D61DA" stroke="#162B6E" stroke-width="2.78702"/>
<rect x="180.416" y="360.383" width="26.6753" height="78.0507" fill="#2D61DA" stroke="#162B6E" stroke-width="2.78702"/>
<rect x="121.564" y="431.521" width="91.3125" height="16.0559" fill="#162B6E" stroke="#162B6E" stroke-width="1.60559"/>
<rect x="135.947" y="399.408" width="8.89931" height="40.1396" stroke="#162B6E" stroke-width="1.60559"/>
<rect x="127.278" y="399.408" width="8.89931" height="40.1396" stroke="#162B6E" stroke-width="1.60559"/>
<rect x="144.851" y="399.408" width="8.89931" height="40.1396" stroke="#162B6E" stroke-width="1.60559"/>
<rect x="153.748" y="399.408" width="8.89931" height="40.1396" stroke="#162B6E" stroke-width="1.60559"/>
<rect x="162.647" y="399.408" width="8.89931" height="40.1396" stroke="#162B6E" stroke-width="1.60559"/>
<rect x="171.551" y="399.408" width="8.89931" height="40.1396" stroke="#162B6E" stroke-width="1.60559"/>
<rect x="180.456" y="399.408" width="8.89931" height="40.1396" stroke="#162B6E" stroke-width="1.60559"/>
<rect x="189.36" y="399.408" width="8.89931" height="40.1396" stroke="#162B6E" stroke-width="1.60559"/>
<rect x="198.263" y="399.408" width="8.89931" height="40.1396" stroke="#162B6E" stroke-width="1.60559"/>
<rect x="127.207" y="462.8" width="26.6051" height="78.0507" fill="#2D61DA" stroke="#162B6E" stroke-width="2.78702"/>
<rect x="153.882" y="462.8" width="26.6753" height="78.0507" fill="#2D61DA" stroke="#162B6E" stroke-width="2.78702"/>
<rect x="180.416" y="462.8" width="26.6753" height="78.0507" fill="#2D61DA" stroke="#162B6E" stroke-width="2.78702"/>
<rect x="266.497" y="360.383" width="26.6051" height="78.0507" fill="#2D61DA" stroke="#162B6E" stroke-width="2.78702"/>
<rect x="293.172" y="360.383" width="26.6753" height="78.0507" fill="#2D61DA" stroke="#162B6E" stroke-width="2.78702"/>
<rect x="319.706" y="360.383" width="26.6753" height="78.0507" fill="#2D61DA" stroke="#162B6E" stroke-width="2.78702"/>
<rect x="260.854" y="431.521" width="91.3125" height="16.0559" fill="#162B6E" stroke="#162B6E" stroke-width="1.60559"/>
<rect x="275.237" y="399.408" width="8.89931" height="40.1396" stroke="#162B6E" stroke-width="1.60559"/>
<rect x="266.568" y="399.408" width="8.89931" height="40.1396" stroke="#162B6E" stroke-width="1.60559"/>
<rect x="284.141" y="399.408" width="8.89931" height="40.1396" stroke="#162B6E" stroke-width="1.60559"/>
<rect x="293.038" y="399.408" width="8.89931" height="40.1396" stroke="#162B6E" stroke-width="1.60559"/>
<rect x="301.937" y="399.408" width="8.89931" height="40.1396" stroke="#162B6E" stroke-width="1.60559"/>
<rect x="310.841" y="399.408" width="8.89931" height="40.1396" stroke="#162B6E" stroke-width="1.60559"/>
<rect x="319.746" y="399.408" width="8.89931" height="40.1396" stroke="#162B6E" stroke-width="1.60559"/>
<rect x="328.65" y="399.408" width="8.89931" height="40.1396" stroke="#162B6E" stroke-width="1.60559"/>
<rect x="337.553" y="399.408" width="8.89931" height="40.1396" stroke="#162B6E" stroke-width="1.60559"/>
<rect x="266.497" y="462.8" width="26.6051" height="78.0507" fill="#2D61DA" stroke="#162B6E" stroke-width="2.78702"/>
<rect x="293.172" y="462.8" width="26.6753" height="78.0507" fill="#2D61DA" stroke="#162B6E" stroke-width="2.78702"/>
<rect x="319.706" y="462.8" width="26.6753" height="78.0507" fill="#2D61DA" stroke="#162B6E" stroke-width="2.78702"/>
<rect x="405.787" y="360.383" width="26.6051" height="78.0507" fill="#2D61DA" stroke="#162B6E" stroke-width="2.78702"/>
<rect x="432.462" y="360.383" width="26.6753" height="78.0507" fill="#2D61DA" stroke="#162B6E" stroke-width="2.78702"/>
<rect x="458.996" y="360.383" width="26.6753" height="78.0507" fill="#FFDC00" stroke="#162B6E" stroke-width="2.78702"/>
<rect x="400.144" y="431.521" width="91.3125" height="16.0559" fill="#162B6E" stroke="#162B6E" stroke-width="1.60559"/>
<rect x="414.527" y="399.408" width="8.89931" height="40.1396" stroke="#162B6E" stroke-width="1.60559"/>
<rect x="405.858" y="399.408" width="8.89931" height="40.1396" stroke="#162B6E" stroke-width="1.60559"/>
<rect x="423.431" y="399.408" width="8.89931" height="40.1396" stroke="#162B6E" stroke-width="1.60559"/>
<rect x="432.328" y="399.408" width="8.89931" height="40.1396" stroke="#162B6E" stroke-width="1.60559"/>
<rect x="441.227" y="399.408" width="8.89931" height="40.1396" stroke="#162B6E" stroke-width="1.60559"/>
<rect x="450.131" y="399.408" width="8.89931" height="40.1396" stroke="#162B6E" stroke-width="1.60559"/>
<rect x="459.036" y="399.408" width="8.89931" height="40.1396" stroke="#162B6E" stroke-width="1.60559"/>
<rect x="467.94" y="399.408" width="8.89931" height="40.1396" stroke="#162B6E" stroke-width="1.60559"/>
<rect x="476.843" y="399.408" width="8.89931" height="40.1396" stroke="#162B6E" stroke-width="1.60559"/>
<rect x="405.787" y="462.8" width="26.6051" height="78.0507" fill="#2D61DA" stroke="#162B6E" stroke-width="2.78702"/>
<rect x="432.462" y="462.8" width="26.6753" height="78.0507" fill="#2D61DA" stroke="#162B6E" stroke-width="2.78702"/>
<rect x="458.996" y="462.8" width="26.6753" height="78.0507" fill="#2D61DA" stroke="#162B6E" stroke-width="2.78702"/>
</g>
<defs>
<clipPath id="clip0_208_13968">
<rect width="608" height="500" fill="white" transform="translate(0.14209 0.185303)"/>
</clipPath>
</defs>
</svg>
