<svg width="867" height="500" viewBox="0 0 867 500" fill="none" xmlns="http://www.w3.org/2000/svg">
<g clip-path="url(#clip0_208_2364)">
<rect x="24.5205" y="10.375" width="817.243" height="660.861" fill="#0F2F7E"/>
<rect x="0.142578" y="-0.163574" width="873.73" height="15.7527" fill="#0C276A"/>
<rect x="0.142578" y="102.721" width="47.8926" height="16.0559" fill="#162B6E" stroke="#162B6E" stroke-width="1.60559"/>
<rect x="15.0044" y="70.6091" width="9.19576" height="40.1396" stroke="#162B6E" stroke-width="1.60559"/>
<rect x="6.04688" y="70.6091" width="9.19576" height="40.1396" stroke="#162B6E" stroke-width="1.60559"/>
<rect x="24.2053" y="70.6091" width="9.19576" height="40.1396" stroke="#162B6E" stroke-width="1.60559"/>
<rect x="33.3982" y="70.6091" width="9.19576" height="40.1396" stroke="#162B6E" stroke-width="1.60559"/>
<rect x="0.142578" y="314.892" width="47.8926" height="16.0559" fill="#162B6E" stroke="#162B6E" stroke-width="1.60559"/>
<rect x="15.0044" y="282.78" width="9.19576" height="40.1396" stroke="#162B6E" stroke-width="1.60559"/>
<rect x="6.04688" y="282.78" width="9.19576" height="40.1396" stroke="#162B6E" stroke-width="1.60559"/>
<rect x="24.2053" y="282.78" width="9.19576" height="40.1396" stroke="#162B6E" stroke-width="1.60559"/>
<rect x="33.3982" y="282.78" width="9.19576" height="40.1396" stroke="#162B6E" stroke-width="1.60559"/>
<rect width="47.6719" height="16.0559" transform="matrix(-1 0 0 1 866.143 102.721)" fill="#162B6E" stroke="#162B6E" stroke-width="1.60559"/>
<rect width="9.15338" height="40.1396" transform="matrix(-1 0 0 1 851.349 70.6091)" stroke="#162B6E" stroke-width="1.60559"/>
<rect width="9.15338" height="40.1396" transform="matrix(-1 0 0 1 860.266 70.6091)" stroke="#162B6E" stroke-width="1.60559"/>
<rect width="9.15338" height="40.1396" transform="matrix(-1 0 0 1 842.191 70.6091)" stroke="#162B6E" stroke-width="1.60559"/>
<rect width="9.15338" height="40.1396" transform="matrix(-1 0 0 1 833.04 70.6091)" stroke="#162B6E" stroke-width="1.60559"/>
<rect width="47.6719" height="16.0559" transform="matrix(-1 0 0 1 866.143 314.892)" fill="#162B6E" stroke="#162B6E" stroke-width="1.60559"/>
<rect width="9.15338" height="40.1396" transform="matrix(-1 0 0 1 851.349 282.78)" stroke="#162B6E" stroke-width="1.60559"/>
<rect width="9.15338" height="40.1396" transform="matrix(-1 0 0 1 860.266 282.78)" stroke="#162B6E" stroke-width="1.60559"/>
<rect width="9.15338" height="40.1396" transform="matrix(-1 0 0 1 842.191 282.78)" stroke="#162B6E" stroke-width="1.60559"/>
<rect width="9.15338" height="40.1396" transform="matrix(-1 0 0 1 833.04 282.78)" stroke="#162B6E" stroke-width="1.60559"/>
<rect x="0.142578" y="205.91" width="47.8926" height="16.0559" fill="#162B6E" stroke="#162B6E" stroke-width="1.60559"/>
<rect x="15.0044" y="173.798" width="9.19576" height="40.1396" stroke="#162B6E" stroke-width="1.60559"/>
<rect x="6.04688" y="173.798" width="9.19576" height="40.1396" stroke="#162B6E" stroke-width="1.60559"/>
<rect x="24.2053" y="173.798" width="9.19576" height="40.1396" stroke="#162B6E" stroke-width="1.60559"/>
<rect x="33.3982" y="173.798" width="9.19576" height="40.1396" stroke="#162B6E" stroke-width="1.60559"/>
<rect x="0.142578" y="443.01" width="47.8926" height="16.0559" fill="#162B6E" stroke="#162B6E" stroke-width="1.60559"/>
<rect x="15.0044" y="410.897" width="9.19576" height="40.1396" stroke="#162B6E" stroke-width="1.60559"/>
<rect x="6.04688" y="410.897" width="9.19576" height="40.1396" stroke="#162B6E" stroke-width="1.60559"/>
<rect x="24.2053" y="410.897" width="9.19576" height="40.1396" stroke="#162B6E" stroke-width="1.60559"/>
<rect x="33.3982" y="410.897" width="9.19576" height="40.1396" stroke="#162B6E" stroke-width="1.60559"/>
<rect width="47.6719" height="16.0559" transform="matrix(-1 0 0 1 866.143 205.91)" fill="#162B6E" stroke="#162B6E" stroke-width="1.60559"/>
<rect width="9.15338" height="40.1396" transform="matrix(-1 0 0 1 851.349 173.798)" stroke="#162B6E" stroke-width="1.60559"/>
<rect width="9.15338" height="40.1396" transform="matrix(-1 0 0 1 860.266 173.798)" stroke="#162B6E" stroke-width="1.60559"/>
<rect width="9.15338" height="40.1396" transform="matrix(-1 0 0 1 842.191 173.798)" stroke="#162B6E" stroke-width="1.60559"/>
<rect width="9.15338" height="40.1396" transform="matrix(-1 0 0 1 833.04 173.798)" stroke="#162B6E" stroke-width="1.60559"/>
<rect width="47.6719" height="16.0559" transform="matrix(-1 0 0 1 866.143 442.165)" fill="#162B6E" stroke="#162B6E" stroke-width="1.60559"/>
<rect width="9.15338" height="40.1396" transform="matrix(-1 0 0 1 851.349 410.052)" stroke="#162B6E" stroke-width="1.60559"/>
<rect width="9.15338" height="40.1396" transform="matrix(-1 0 0 1 860.266 410.052)" stroke="#162B6E" stroke-width="1.60559"/>
<rect width="9.15338" height="40.1396" transform="matrix(-1 0 0 1 842.191 410.052)" stroke="#162B6E" stroke-width="1.60559"/>
<rect width="9.15338" height="40.1396" transform="matrix(-1 0 0 1 833.04 410.052)" stroke="#162B6E" stroke-width="1.60559"/>
<rect x="114.549" y="31.5835" width="26.6051" height="78.0507" fill="#2D61DA" stroke="#162B6E" stroke-width="2.78702"/>
<rect x="141.225" y="31.5835" width="26.6753" height="78.0507" fill="#2D61DA" stroke="#162B6E" stroke-width="2.78702"/>
<rect x="167.758" y="31.5835" width="26.6753" height="78.0507" fill="#2D61DA" stroke="#162B6E" stroke-width="2.78702"/>
<rect x="108.906" y="102.721" width="91.3125" height="16.0559" fill="#162B6E" stroke="#162B6E" stroke-width="1.60559"/>
<rect x="123.289" y="70.6091" width="8.89931" height="40.1396" stroke="#162B6E" stroke-width="1.60559"/>
<rect x="114.62" y="70.6091" width="8.89931" height="40.1396" stroke="#162B6E" stroke-width="1.60559"/>
<rect x="132.193" y="70.6091" width="8.89931" height="40.1396" stroke="#162B6E" stroke-width="1.60559"/>
<rect x="141.09" y="70.6091" width="8.89931" height="40.1396" stroke="#162B6E" stroke-width="1.60559"/>
<rect x="149.989" y="70.6089" width="8.89931" height="40.1396" stroke="#162B6E" stroke-width="1.60559"/>
<rect x="158.894" y="70.6089" width="8.89931" height="40.1396" stroke="#162B6E" stroke-width="1.60559"/>
<rect x="167.798" y="70.6089" width="8.89931" height="40.1396" stroke="#162B6E" stroke-width="1.60559"/>
<rect x="176.702" y="70.6089" width="8.89931" height="40.1396" stroke="#162B6E" stroke-width="1.60559"/>
<rect x="185.605" y="70.6089" width="8.89931" height="40.1396" stroke="#162B6E" stroke-width="1.60559"/>
<rect x="114.549" y="134" width="26.6051" height="78.0507" fill="#2D61DA" stroke="#162B6E" stroke-width="2.78702"/>
<rect x="141.225" y="134" width="26.6753" height="78.0507" fill="#2D61DA" stroke="#162B6E" stroke-width="2.78702"/>
<rect x="167.758" y="134" width="26.6753" height="78.0507" fill="#2D61DA" stroke="#162B6E" stroke-width="2.78702"/>
<rect x="108.906" y="205.138" width="91.3125" height="16.0559" fill="#162B6E" stroke="#162B6E" stroke-width="1.60559"/>
<rect x="123.289" y="173.026" width="8.89931" height="40.1396" stroke="#162B6E" stroke-width="1.60559"/>
<rect x="114.62" y="173.026" width="8.89931" height="40.1396" stroke="#162B6E" stroke-width="1.60559"/>
<rect x="132.193" y="173.026" width="8.89931" height="40.1396" stroke="#162B6E" stroke-width="1.60559"/>
<rect x="141.09" y="173.026" width="8.89931" height="40.1396" stroke="#162B6E" stroke-width="1.60559"/>
<rect x="149.989" y="173.025" width="8.89931" height="40.1396" stroke="#162B6E" stroke-width="1.60559"/>
<rect x="158.894" y="173.025" width="8.89931" height="40.1396" stroke="#162B6E" stroke-width="1.60559"/>
<rect x="167.798" y="173.025" width="8.89931" height="40.1396" stroke="#162B6E" stroke-width="1.60559"/>
<rect x="176.702" y="173.025" width="8.89931" height="40.1396" stroke="#162B6E" stroke-width="1.60559"/>
<rect x="185.605" y="173.025" width="8.89931" height="40.1396" stroke="#162B6E" stroke-width="1.60559"/>
<rect x="114.549" y="243.754" width="26.6051" height="78.0507" fill="#2D61DA" stroke="#162B6E" stroke-width="2.78702"/>
<rect x="141.225" y="243.754" width="26.6753" height="78.0507" fill="#2D61DA" stroke="#162B6E" stroke-width="2.78702"/>
<rect x="167.758" y="243.754" width="26.6753" height="78.0507" fill="#2D61DA" stroke="#162B6E" stroke-width="2.78702"/>
<rect x="108.906" y="314.892" width="91.3125" height="16.0559" fill="#162B6E" stroke="#162B6E" stroke-width="1.60559"/>
<rect x="123.289" y="282.78" width="8.89931" height="40.1396" stroke="#162B6E" stroke-width="1.60559"/>
<rect x="114.62" y="282.78" width="8.89931" height="40.1396" stroke="#162B6E" stroke-width="1.60559"/>
<rect x="132.193" y="282.78" width="8.89931" height="40.1396" stroke="#162B6E" stroke-width="1.60559"/>
<rect x="141.09" y="282.78" width="8.89931" height="40.1396" stroke="#162B6E" stroke-width="1.60559"/>
<rect x="149.989" y="282.78" width="8.89931" height="40.1396" stroke="#162B6E" stroke-width="1.60559"/>
<rect x="158.894" y="282.78" width="8.89931" height="40.1396" stroke="#162B6E" stroke-width="1.60559"/>
<rect x="167.798" y="282.78" width="8.89931" height="40.1396" stroke="#162B6E" stroke-width="1.60559"/>
<rect x="176.702" y="282.78" width="8.89931" height="40.1396" stroke="#162B6E" stroke-width="1.60559"/>
<rect x="185.605" y="282.78" width="8.89931" height="40.1396" stroke="#162B6E" stroke-width="1.60559"/>
<rect x="253.839" y="31.5835" width="26.6051" height="78.0507" fill="#2D61DA" stroke="#162B6E" stroke-width="2.78702"/>
<rect x="280.515" y="31.5835" width="26.6753" height="78.0507" fill="#2D61DA" stroke="#162B6E" stroke-width="2.78702"/>
<rect x="307.048" y="31.5835" width="26.6753" height="78.0507" fill="#2D61DA" stroke="#162B6E" stroke-width="2.78702"/>
<rect x="248.196" y="102.721" width="91.3125" height="16.0559" fill="#162B6E" stroke="#162B6E" stroke-width="1.60559"/>
<rect x="262.579" y="70.6091" width="8.89931" height="40.1396" stroke="#162B6E" stroke-width="1.60559"/>
<rect x="253.91" y="70.6091" width="8.89931" height="40.1396" stroke="#162B6E" stroke-width="1.60559"/>
<rect x="271.483" y="70.6091" width="8.89931" height="40.1396" stroke="#162B6E" stroke-width="1.60559"/>
<rect x="280.38" y="70.6091" width="8.89931" height="40.1396" stroke="#162B6E" stroke-width="1.60559"/>
<rect x="289.279" y="70.6089" width="8.89931" height="40.1396" stroke="#162B6E" stroke-width="1.60559"/>
<rect x="298.184" y="70.6089" width="8.89931" height="40.1396" stroke="#162B6E" stroke-width="1.60559"/>
<rect x="307.088" y="70.6089" width="8.89931" height="40.1396" stroke="#162B6E" stroke-width="1.60559"/>
<rect x="315.992" y="70.6089" width="8.89931" height="40.1396" stroke="#162B6E" stroke-width="1.60559"/>
<rect x="324.896" y="70.6089" width="8.89931" height="40.1396" stroke="#162B6E" stroke-width="1.60559"/>
<rect x="253.839" y="134" width="26.6051" height="78.0507" fill="#2D61DA" stroke="#162B6E" stroke-width="2.78702"/>
<rect x="280.515" y="134" width="26.6753" height="78.0507" fill="#2D61DA" stroke="#162B6E" stroke-width="2.78702"/>
<rect x="307.048" y="134" width="26.6753" height="78.0507" fill="#2D61DA" stroke="#162B6E" stroke-width="2.78702"/>
<rect x="248.196" y="205.138" width="91.3125" height="16.0559" fill="#162B6E" stroke="#162B6E" stroke-width="1.60559"/>
<rect x="262.579" y="173.026" width="8.89931" height="40.1396" stroke="#162B6E" stroke-width="1.60559"/>
<rect x="253.91" y="173.026" width="8.89931" height="40.1396" stroke="#162B6E" stroke-width="1.60559"/>
<rect x="271.483" y="173.026" width="8.89931" height="40.1396" stroke="#162B6E" stroke-width="1.60559"/>
<rect x="280.38" y="173.026" width="8.89931" height="40.1396" stroke="#162B6E" stroke-width="1.60559"/>
<rect x="289.279" y="173.025" width="8.89931" height="40.1396" stroke="#162B6E" stroke-width="1.60559"/>
<rect x="298.184" y="173.025" width="8.89931" height="40.1396" stroke="#162B6E" stroke-width="1.60559"/>
<rect x="307.088" y="173.025" width="8.89931" height="40.1396" stroke="#162B6E" stroke-width="1.60559"/>
<rect x="315.992" y="173.025" width="8.89931" height="40.1396" stroke="#162B6E" stroke-width="1.60559"/>
<rect x="324.896" y="173.025" width="8.89931" height="40.1396" stroke="#162B6E" stroke-width="1.60559"/>
<rect x="253.839" y="243.754" width="26.6051" height="78.0507" fill="#FFDC00" stroke="#162B6E" stroke-width="2.78702"/>
<rect x="280.515" y="243.754" width="26.6753" height="78.0507" fill="#2D61DA" stroke="#162B6E" stroke-width="2.78702"/>
<rect x="307.048" y="243.754" width="26.6753" height="78.0507" fill="#2D61DA" stroke="#162B6E" stroke-width="2.78702"/>
<rect x="248.196" y="314.892" width="91.3125" height="16.0559" fill="#162B6E" stroke="#162B6E" stroke-width="1.60559"/>
<rect x="262.579" y="282.78" width="8.89931" height="40.1396" stroke="#162B6E" stroke-width="1.60559"/>
<rect x="253.91" y="282.78" width="8.89931" height="40.1396" stroke="#162B6E" stroke-width="1.60559"/>
<rect x="271.483" y="282.78" width="8.89931" height="40.1396" stroke="#162B6E" stroke-width="1.60559"/>
<rect x="280.38" y="282.78" width="8.89931" height="40.1396" stroke="#162B6E" stroke-width="1.60559"/>
<rect x="289.279" y="282.78" width="8.89931" height="40.1396" stroke="#162B6E" stroke-width="1.60559"/>
<rect x="298.184" y="282.78" width="8.89931" height="40.1396" stroke="#162B6E" stroke-width="1.60559"/>
<rect x="307.088" y="282.78" width="8.89931" height="40.1396" stroke="#162B6E" stroke-width="1.60559"/>
<rect x="315.992" y="282.78" width="8.89931" height="40.1396" stroke="#162B6E" stroke-width="1.60559"/>
<rect x="324.896" y="282.78" width="8.89931" height="40.1396" stroke="#162B6E" stroke-width="1.60559"/>
<rect x="393.129" y="31.5835" width="26.6051" height="78.0507" fill="#2D61DA" stroke="#162B6E" stroke-width="2.78702"/>
<rect x="419.805" y="31.5835" width="26.6753" height="78.0507" fill="#2D61DA" stroke="#162B6E" stroke-width="2.78702"/>
<rect x="446.338" y="31.5835" width="26.6753" height="78.0507" fill="#FFDC00" stroke="#162B6E" stroke-width="2.78702"/>
<rect x="387.486" y="102.721" width="91.3125" height="16.0559" fill="#162B6E" stroke="#162B6E" stroke-width="1.60559"/>
<rect x="401.869" y="70.6091" width="8.89931" height="40.1396" stroke="#162B6E" stroke-width="1.60559"/>
<rect x="393.2" y="70.6091" width="8.89931" height="40.1396" stroke="#162B6E" stroke-width="1.60559"/>
<rect x="410.773" y="70.6091" width="8.89931" height="40.1396" stroke="#162B6E" stroke-width="1.60559"/>
<rect x="419.67" y="70.6091" width="8.89931" height="40.1396" stroke="#162B6E" stroke-width="1.60559"/>
<rect x="428.569" y="70.6089" width="8.89931" height="40.1396" stroke="#162B6E" stroke-width="1.60559"/>
<rect x="437.474" y="70.6089" width="8.89931" height="40.1396" stroke="#162B6E" stroke-width="1.60559"/>
<rect x="446.378" y="70.6089" width="8.89931" height="40.1396" stroke="#162B6E" stroke-width="1.60559"/>
<rect x="455.282" y="70.6089" width="8.89931" height="40.1396" stroke="#162B6E" stroke-width="1.60559"/>
<rect x="464.186" y="70.6089" width="8.89931" height="40.1396" stroke="#162B6E" stroke-width="1.60559"/>
<rect x="393.129" y="134" width="26.6051" height="78.0507" fill="#2D61DA" stroke="#162B6E" stroke-width="2.78702"/>
<rect x="419.805" y="134" width="26.6753" height="78.0507" fill="#2D61DA" stroke="#162B6E" stroke-width="2.78702"/>
<rect x="446.338" y="134" width="26.6753" height="78.0507" fill="#2D61DA" stroke="#162B6E" stroke-width="2.78702"/>
<rect x="387.486" y="205.138" width="91.3125" height="16.0559" fill="#162B6E" stroke="#162B6E" stroke-width="1.60559"/>
<rect x="401.869" y="173.026" width="8.89931" height="40.1396" stroke="#162B6E" stroke-width="1.60559"/>
<rect x="393.2" y="173.026" width="8.89931" height="40.1396" stroke="#162B6E" stroke-width="1.60559"/>
<rect x="410.773" y="173.026" width="8.89931" height="40.1396" stroke="#162B6E" stroke-width="1.60559"/>
<rect x="419.67" y="173.026" width="8.89931" height="40.1396" stroke="#162B6E" stroke-width="1.60559"/>
<rect x="428.569" y="173.025" width="8.89931" height="40.1396" stroke="#162B6E" stroke-width="1.60559"/>
<rect x="437.474" y="173.025" width="8.89931" height="40.1396" stroke="#162B6E" stroke-width="1.60559"/>
<rect x="446.378" y="173.025" width="8.89931" height="40.1396" stroke="#162B6E" stroke-width="1.60559"/>
<rect x="455.282" y="173.025" width="8.89931" height="40.1396" stroke="#162B6E" stroke-width="1.60559"/>
<rect x="464.186" y="173.025" width="8.89931" height="40.1396" stroke="#162B6E" stroke-width="1.60559"/>
<rect x="393.129" y="243.754" width="26.6051" height="78.0507" fill="#2D61DA" stroke="#162B6E" stroke-width="2.78702"/>
<rect x="419.805" y="243.754" width="26.6753" height="78.0507" fill="#2D61DA" stroke="#162B6E" stroke-width="2.78702"/>
<rect x="446.338" y="243.754" width="26.6753" height="78.0507" fill="#2D61DA" stroke="#162B6E" stroke-width="2.78702"/>
<rect x="387.486" y="314.892" width="91.3125" height="16.0559" fill="#162B6E" stroke="#162B6E" stroke-width="1.60559"/>
<rect x="401.869" y="282.78" width="8.89931" height="40.1396" stroke="#162B6E" stroke-width="1.60559"/>
<rect x="393.2" y="282.78" width="8.89931" height="40.1396" stroke="#162B6E" stroke-width="1.60559"/>
<rect x="410.773" y="282.78" width="8.89931" height="40.1396" stroke="#162B6E" stroke-width="1.60559"/>
<rect x="419.67" y="282.78" width="8.89931" height="40.1396" stroke="#162B6E" stroke-width="1.60559"/>
<rect x="428.569" y="282.78" width="8.89931" height="40.1396" stroke="#162B6E" stroke-width="1.60559"/>
<rect x="437.474" y="282.78" width="8.89931" height="40.1396" stroke="#162B6E" stroke-width="1.60559"/>
<rect x="446.378" y="282.78" width="8.89931" height="40.1396" stroke="#162B6E" stroke-width="1.60559"/>
<rect x="455.282" y="282.78" width="8.89931" height="40.1396" stroke="#162B6E" stroke-width="1.60559"/>
<rect x="464.186" y="282.78" width="8.89931" height="40.1396" stroke="#162B6E" stroke-width="1.60559"/>
<rect x="532.419" y="31.5835" width="26.6051" height="78.0507" fill="#2D61DA" stroke="#162B6E" stroke-width="2.78702"/>
<rect x="559.095" y="31.5835" width="26.6753" height="78.0507" fill="#2D61DA" stroke="#162B6E" stroke-width="2.78702"/>
<rect x="585.628" y="31.5835" width="26.6753" height="78.0507" fill="#2D61DA" stroke="#162B6E" stroke-width="2.78702"/>
<rect x="526.776" y="102.721" width="91.3125" height="16.0559" fill="#162B6E" stroke="#162B6E" stroke-width="1.60559"/>
<rect x="541.159" y="70.6091" width="8.89931" height="40.1396" stroke="#162B6E" stroke-width="1.60559"/>
<rect x="532.49" y="70.6091" width="8.89931" height="40.1396" stroke="#162B6E" stroke-width="1.60559"/>
<rect x="550.063" y="70.6091" width="8.89931" height="40.1396" stroke="#162B6E" stroke-width="1.60559"/>
<rect x="558.96" y="70.6091" width="8.89931" height="40.1396" stroke="#162B6E" stroke-width="1.60559"/>
<rect x="567.859" y="70.6089" width="8.89931" height="40.1396" stroke="#162B6E" stroke-width="1.60559"/>
<rect x="576.764" y="70.6089" width="8.89931" height="40.1396" stroke="#162B6E" stroke-width="1.60559"/>
<rect x="585.668" y="70.6089" width="8.89931" height="40.1396" stroke="#162B6E" stroke-width="1.60559"/>
<rect x="594.572" y="70.6089" width="8.89931" height="40.1396" stroke="#162B6E" stroke-width="1.60559"/>
<rect x="603.476" y="70.6089" width="8.89931" height="40.1396" stroke="#162B6E" stroke-width="1.60559"/>
<rect x="532.419" y="134" width="26.6051" height="78.0507" fill="#2D61DA" stroke="#162B6E" stroke-width="2.78702"/>
<rect x="559.095" y="134" width="26.6753" height="78.0507" fill="#2D61DA" stroke="#162B6E" stroke-width="2.78702"/>
<rect x="585.628" y="134" width="26.6753" height="78.0507" fill="#2D61DA" stroke="#162B6E" stroke-width="2.78702"/>
<rect x="526.776" y="205.138" width="91.3125" height="16.0559" fill="#162B6E" stroke="#162B6E" stroke-width="1.60559"/>
<rect x="541.159" y="173.026" width="8.89931" height="40.1396" stroke="#162B6E" stroke-width="1.60559"/>
<rect x="532.49" y="173.026" width="8.89931" height="40.1396" stroke="#162B6E" stroke-width="1.60559"/>
<rect x="550.063" y="173.026" width="8.89931" height="40.1396" stroke="#162B6E" stroke-width="1.60559"/>
<rect x="558.96" y="173.026" width="8.89931" height="40.1396" stroke="#162B6E" stroke-width="1.60559"/>
<rect x="567.859" y="173.025" width="8.89931" height="40.1396" stroke="#162B6E" stroke-width="1.60559"/>
<rect x="576.764" y="173.025" width="8.89931" height="40.1396" stroke="#162B6E" stroke-width="1.60559"/>
<rect x="585.668" y="173.025" width="8.89931" height="40.1396" stroke="#162B6E" stroke-width="1.60559"/>
<rect x="594.572" y="173.025" width="8.89931" height="40.1396" stroke="#162B6E" stroke-width="1.60559"/>
<rect x="603.476" y="173.025" width="8.89931" height="40.1396" stroke="#162B6E" stroke-width="1.60559"/>
<rect x="532.419" y="243.754" width="26.6051" height="78.0507" fill="#2D61DA" stroke="#162B6E" stroke-width="2.78702"/>
<rect x="559.095" y="243.754" width="26.6753" height="78.0507" fill="#2D61DA" stroke="#162B6E" stroke-width="2.78702"/>
<rect x="585.628" y="243.754" width="26.6753" height="78.0507" fill="#2D61DA" stroke="#162B6E" stroke-width="2.78702"/>
<rect x="526.776" y="314.892" width="91.3125" height="16.0559" fill="#162B6E" stroke="#162B6E" stroke-width="1.60559"/>
<rect x="541.159" y="282.78" width="8.89931" height="40.1396" stroke="#162B6E" stroke-width="1.60559"/>
<rect x="532.49" y="282.78" width="8.89931" height="40.1396" stroke="#162B6E" stroke-width="1.60559"/>
<rect x="550.063" y="282.78" width="8.89931" height="40.1396" stroke="#162B6E" stroke-width="1.60559"/>
<rect x="558.96" y="282.78" width="8.89931" height="40.1396" stroke="#162B6E" stroke-width="1.60559"/>
<rect x="567.859" y="282.78" width="8.89931" height="40.1396" stroke="#162B6E" stroke-width="1.60559"/>
<rect x="576.764" y="282.78" width="8.89931" height="40.1396" stroke="#162B6E" stroke-width="1.60559"/>
<rect x="585.668" y="282.78" width="8.89931" height="40.1396" stroke="#162B6E" stroke-width="1.60559"/>
<rect x="594.572" y="282.78" width="8.89931" height="40.1396" stroke="#162B6E" stroke-width="1.60559"/>
<rect x="603.476" y="282.78" width="8.89931" height="40.1396" stroke="#162B6E" stroke-width="1.60559"/>
<rect x="671.709" y="31.5835" width="26.6051" height="78.0507" fill="#2D61DA" stroke="#162B6E" stroke-width="2.78702"/>
<rect x="698.385" y="31.5835" width="26.6753" height="78.0507" fill="#2D61DA" stroke="#162B6E" stroke-width="2.78702"/>
<rect x="724.918" y="31.5835" width="26.6753" height="78.0507" fill="#2D61DA" stroke="#162B6E" stroke-width="2.78702"/>
<rect x="666.066" y="102.721" width="91.3125" height="16.0559" fill="#162B6E" stroke="#162B6E" stroke-width="1.60559"/>
<rect x="680.449" y="70.6091" width="8.89931" height="40.1396" stroke="#162B6E" stroke-width="1.60559"/>
<rect x="671.78" y="70.6091" width="8.89931" height="40.1396" stroke="#162B6E" stroke-width="1.60559"/>
<rect x="689.354" y="70.6091" width="8.89931" height="40.1396" stroke="#162B6E" stroke-width="1.60559"/>
<rect x="698.25" y="70.6091" width="8.89931" height="40.1396" stroke="#162B6E" stroke-width="1.60559"/>
<rect x="707.149" y="70.6089" width="8.89931" height="40.1396" stroke="#162B6E" stroke-width="1.60559"/>
<rect x="716.054" y="70.6089" width="8.89931" height="40.1396" stroke="#162B6E" stroke-width="1.60559"/>
<rect x="724.958" y="70.6089" width="8.89931" height="40.1396" stroke="#162B6E" stroke-width="1.60559"/>
<rect x="733.862" y="70.6089" width="8.89931" height="40.1396" stroke="#162B6E" stroke-width="1.60559"/>
<rect x="742.766" y="70.6089" width="8.89931" height="40.1396" stroke="#162B6E" stroke-width="1.60559"/>
<rect x="671.709" y="134" width="26.6051" height="78.0507" fill="#2D61DA" stroke="#162B6E" stroke-width="2.78702"/>
<rect x="698.385" y="134" width="26.6753" height="78.0507" fill="#2D61DA" stroke="#162B6E" stroke-width="2.78702"/>
<rect x="724.918" y="134" width="26.6753" height="78.0507" fill="#2D61DA" stroke="#162B6E" stroke-width="2.78702"/>
<rect x="666.066" y="205.138" width="91.3125" height="16.0559" fill="#162B6E" stroke="#162B6E" stroke-width="1.60559"/>
<rect x="680.449" y="173.026" width="8.89931" height="40.1396" stroke="#162B6E" stroke-width="1.60559"/>
<rect x="671.78" y="173.026" width="8.89931" height="40.1396" stroke="#162B6E" stroke-width="1.60559"/>
<rect x="689.354" y="173.026" width="8.89931" height="40.1396" stroke="#162B6E" stroke-width="1.60559"/>
<rect x="698.25" y="173.026" width="8.89931" height="40.1396" stroke="#162B6E" stroke-width="1.60559"/>
<rect x="707.149" y="173.025" width="8.89931" height="40.1396" stroke="#162B6E" stroke-width="1.60559"/>
<rect x="716.054" y="173.025" width="8.89931" height="40.1396" stroke="#162B6E" stroke-width="1.60559"/>
<rect x="724.958" y="173.025" width="8.89931" height="40.1396" stroke="#162B6E" stroke-width="1.60559"/>
<rect x="733.862" y="173.025" width="8.89931" height="40.1396" stroke="#162B6E" stroke-width="1.60559"/>
<rect x="742.766" y="173.025" width="8.89931" height="40.1396" stroke="#162B6E" stroke-width="1.60559"/>
<rect x="671.709" y="243.754" width="26.6051" height="78.0507" fill="#2D61DA" stroke="#162B6E" stroke-width="2.78702"/>
<rect x="698.385" y="243.754" width="26.6753" height="78.0507" fill="#2D61DA" stroke="#162B6E" stroke-width="2.78702"/>
<rect x="724.918" y="243.754" width="26.6753" height="78.0507" fill="#2D61DA" stroke="#162B6E" stroke-width="2.78702"/>
<rect x="666.066" y="314.892" width="91.3125" height="16.0559" fill="#162B6E" stroke="#162B6E" stroke-width="1.60559"/>
<rect x="680.449" y="282.78" width="8.89931" height="40.1396" stroke="#162B6E" stroke-width="1.60559"/>
<rect x="671.78" y="282.78" width="8.89931" height="40.1396" stroke="#162B6E" stroke-width="1.60559"/>
<rect x="689.354" y="282.78" width="8.89931" height="40.1396" stroke="#162B6E" stroke-width="1.60559"/>
<rect x="698.25" y="282.78" width="8.89931" height="40.1396" stroke="#162B6E" stroke-width="1.60559"/>
<rect x="707.149" y="282.78" width="8.89931" height="40.1396" stroke="#162B6E" stroke-width="1.60559"/>
<rect x="716.054" y="282.78" width="8.89931" height="40.1396" stroke="#162B6E" stroke-width="1.60559"/>
<rect x="724.958" y="282.78" width="8.89931" height="40.1396" stroke="#162B6E" stroke-width="1.60559"/>
<rect x="733.862" y="282.78" width="8.89931" height="40.1396" stroke="#162B6E" stroke-width="1.60559"/>
<rect x="742.766" y="282.78" width="8.89931" height="40.1396" stroke="#162B6E" stroke-width="1.60559"/>
<rect x="114.425" y="371.872" width="26.6051" height="78.0507" fill="#2D61DA" stroke="#162B6E" stroke-width="2.78702"/>
<rect x="141.101" y="371.872" width="26.6753" height="78.0507" fill="#2D61DA" stroke="#162B6E" stroke-width="2.78702"/>
<rect x="167.634" y="371.872" width="26.6753" height="78.0507" fill="#2D61DA" stroke="#162B6E" stroke-width="2.78702"/>
<rect x="108.783" y="443.01" width="91.3125" height="16.0559" fill="#162B6E" stroke="#162B6E" stroke-width="1.60559"/>
<rect x="123.166" y="410.897" width="8.89931" height="40.1396" stroke="#162B6E" stroke-width="1.60559"/>
<rect x="114.497" y="410.897" width="8.89931" height="40.1396" stroke="#162B6E" stroke-width="1.60559"/>
<rect x="132.07" y="410.897" width="8.89931" height="40.1396" stroke="#162B6E" stroke-width="1.60559"/>
<rect x="140.966" y="410.897" width="8.89931" height="40.1396" stroke="#162B6E" stroke-width="1.60559"/>
<rect x="149.866" y="410.897" width="8.89931" height="40.1396" stroke="#162B6E" stroke-width="1.60559"/>
<rect x="158.77" y="410.897" width="8.89931" height="40.1396" stroke="#162B6E" stroke-width="1.60559"/>
<rect x="167.674" y="410.897" width="8.89931" height="40.1396" stroke="#162B6E" stroke-width="1.60559"/>
<rect x="176.579" y="410.897" width="8.89931" height="40.1396" stroke="#162B6E" stroke-width="1.60559"/>
<rect x="185.482" y="410.897" width="8.89931" height="40.1396" stroke="#162B6E" stroke-width="1.60559"/>
<rect x="114.425" y="474.288" width="26.6051" height="78.0507" fill="#2D61DA" stroke="#162B6E" stroke-width="2.78702"/>
<rect x="141.101" y="474.288" width="26.6753" height="78.0507" fill="#2D61DA" stroke="#162B6E" stroke-width="2.78702"/>
<rect x="167.634" y="474.288" width="26.6753" height="78.0507" fill="#2D61DA" stroke="#162B6E" stroke-width="2.78702"/>
<rect x="253.715" y="371.872" width="26.6051" height="78.0507" fill="#2D61DA" stroke="#162B6E" stroke-width="2.78702"/>
<rect x="280.391" y="371.872" width="26.6753" height="78.0507" fill="#2D61DA" stroke="#162B6E" stroke-width="2.78702"/>
<rect x="306.924" y="371.872" width="26.6753" height="78.0507" fill="#2D61DA" stroke="#162B6E" stroke-width="2.78702"/>
<rect x="248.073" y="443.01" width="91.3125" height="16.0559" fill="#162B6E" stroke="#162B6E" stroke-width="1.60559"/>
<rect x="262.456" y="410.897" width="8.89931" height="40.1396" stroke="#162B6E" stroke-width="1.60559"/>
<rect x="253.787" y="410.897" width="8.89931" height="40.1396" stroke="#162B6E" stroke-width="1.60559"/>
<rect x="271.36" y="410.897" width="8.89931" height="40.1396" stroke="#162B6E" stroke-width="1.60559"/>
<rect x="280.256" y="410.897" width="8.89931" height="40.1396" stroke="#162B6E" stroke-width="1.60559"/>
<rect x="289.156" y="410.897" width="8.89931" height="40.1396" stroke="#162B6E" stroke-width="1.60559"/>
<rect x="298.06" y="410.897" width="8.89931" height="40.1396" stroke="#162B6E" stroke-width="1.60559"/>
<rect x="306.964" y="410.897" width="8.89931" height="40.1396" stroke="#162B6E" stroke-width="1.60559"/>
<rect x="315.869" y="410.897" width="8.89931" height="40.1396" stroke="#162B6E" stroke-width="1.60559"/>
<rect x="324.772" y="410.897" width="8.89931" height="40.1396" stroke="#162B6E" stroke-width="1.60559"/>
<rect x="253.715" y="474.288" width="26.6051" height="78.0507" fill="#2D61DA" stroke="#162B6E" stroke-width="2.78702"/>
<rect x="280.391" y="474.288" width="26.6753" height="78.0507" fill="#2D61DA" stroke="#162B6E" stroke-width="2.78702"/>
<rect x="306.924" y="474.288" width="26.6753" height="78.0507" fill="#2D61DA" stroke="#162B6E" stroke-width="2.78702"/>
<rect x="393.005" y="371.872" width="26.6051" height="78.0507" fill="#2D61DA" stroke="#162B6E" stroke-width="2.78702"/>
<rect x="419.681" y="371.872" width="26.6753" height="78.0507" fill="#2D61DA" stroke="#162B6E" stroke-width="2.78702"/>
<rect x="446.214" y="371.872" width="26.6753" height="78.0507" fill="#FFDC00" stroke="#162B6E" stroke-width="2.78702"/>
<rect x="387.363" y="443.01" width="91.3125" height="16.0559" fill="#162B6E" stroke="#162B6E" stroke-width="1.60559"/>
<rect x="401.746" y="410.897" width="8.89931" height="40.1396" stroke="#162B6E" stroke-width="1.60559"/>
<rect x="393.077" y="410.897" width="8.89931" height="40.1396" stroke="#162B6E" stroke-width="1.60559"/>
<rect x="410.65" y="410.897" width="8.89931" height="40.1396" stroke="#162B6E" stroke-width="1.60559"/>
<rect x="419.546" y="410.897" width="8.89931" height="40.1396" stroke="#162B6E" stroke-width="1.60559"/>
<rect x="428.446" y="410.897" width="8.89931" height="40.1396" stroke="#162B6E" stroke-width="1.60559"/>
<rect x="437.35" y="410.897" width="8.89931" height="40.1396" stroke="#162B6E" stroke-width="1.60559"/>
<rect x="446.254" y="410.897" width="8.89931" height="40.1396" stroke="#162B6E" stroke-width="1.60559"/>
<rect x="455.159" y="410.897" width="8.89931" height="40.1396" stroke="#162B6E" stroke-width="1.60559"/>
<rect x="464.062" y="410.897" width="8.89931" height="40.1396" stroke="#162B6E" stroke-width="1.60559"/>
<rect x="393.005" y="474.288" width="26.6051" height="78.0507" fill="#2D61DA" stroke="#162B6E" stroke-width="2.78702"/>
<rect x="419.681" y="474.288" width="26.6753" height="78.0507" fill="#2D61DA" stroke="#162B6E" stroke-width="2.78702"/>
<rect x="446.214" y="474.288" width="26.6753" height="78.0507" fill="#2D61DA" stroke="#162B6E" stroke-width="2.78702"/>
<rect x="532.295" y="371.872" width="26.6051" height="78.0507" fill="#2D61DA" stroke="#162B6E" stroke-width="2.78702"/>
<rect x="558.971" y="371.872" width="26.6753" height="78.0507" fill="#2D61DA" stroke="#162B6E" stroke-width="2.78702"/>
<rect x="585.504" y="371.872" width="26.6753" height="78.0507" fill="#2D61DA" stroke="#162B6E" stroke-width="2.78702"/>
<rect x="526.653" y="443.01" width="91.3125" height="16.0559" fill="#162B6E" stroke="#162B6E" stroke-width="1.60559"/>
<rect x="541.036" y="410.897" width="8.89931" height="40.1396" stroke="#162B6E" stroke-width="1.60559"/>
<rect x="532.367" y="410.897" width="8.89931" height="40.1396" stroke="#162B6E" stroke-width="1.60559"/>
<rect x="549.94" y="410.897" width="8.89931" height="40.1396" stroke="#162B6E" stroke-width="1.60559"/>
<rect x="558.836" y="410.897" width="8.89931" height="40.1396" stroke="#162B6E" stroke-width="1.60559"/>
<rect x="567.736" y="410.897" width="8.89931" height="40.1396" stroke="#162B6E" stroke-width="1.60559"/>
<rect x="576.64" y="410.897" width="8.89931" height="40.1396" stroke="#162B6E" stroke-width="1.60559"/>
<rect x="585.544" y="410.897" width="8.89931" height="40.1396" stroke="#162B6E" stroke-width="1.60559"/>
<rect x="594.449" y="410.897" width="8.89931" height="40.1396" stroke="#162B6E" stroke-width="1.60559"/>
<rect x="603.352" y="410.897" width="8.89931" height="40.1396" stroke="#162B6E" stroke-width="1.60559"/>
<rect x="532.295" y="474.288" width="26.6051" height="78.0507" fill="#2D61DA" stroke="#162B6E" stroke-width="2.78702"/>
<rect x="558.971" y="474.288" width="26.6753" height="78.0507" fill="#2D61DA" stroke="#162B6E" stroke-width="2.78702"/>
<rect x="585.504" y="474.288" width="26.6753" height="78.0507" fill="#2D61DA" stroke="#162B6E" stroke-width="2.78702"/>
<rect x="671.585" y="371.872" width="26.6051" height="78.0507" fill="#2D61DA" stroke="#162B6E" stroke-width="2.78702"/>
<rect x="698.261" y="371.872" width="26.6753" height="78.0507" fill="#2D61DA" stroke="#162B6E" stroke-width="2.78702"/>
<rect x="724.794" y="371.872" width="26.6753" height="78.0507" fill="#2D61DA" stroke="#162B6E" stroke-width="2.78702"/>
<rect x="665.943" y="443.01" width="91.3125" height="16.0559" fill="#162B6E" stroke="#162B6E" stroke-width="1.60559"/>
<rect x="680.326" y="410.897" width="8.89931" height="40.1396" stroke="#162B6E" stroke-width="1.60559"/>
<rect x="671.657" y="410.897" width="8.89931" height="40.1396" stroke="#162B6E" stroke-width="1.60559"/>
<rect x="689.23" y="410.897" width="8.89931" height="40.1396" stroke="#162B6E" stroke-width="1.60559"/>
<rect x="698.126" y="410.897" width="8.89931" height="40.1396" stroke="#162B6E" stroke-width="1.60559"/>
<rect x="707.026" y="410.897" width="8.89931" height="40.1396" stroke="#162B6E" stroke-width="1.60559"/>
<rect x="715.93" y="410.897" width="8.89931" height="40.1396" stroke="#162B6E" stroke-width="1.60559"/>
<rect x="724.834" y="410.897" width="8.89931" height="40.1396" stroke="#162B6E" stroke-width="1.60559"/>
<rect x="733.739" y="410.897" width="8.89931" height="40.1396" stroke="#162B6E" stroke-width="1.60559"/>
<rect x="742.642" y="410.897" width="8.89931" height="40.1396" stroke="#162B6E" stroke-width="1.60559"/>
<rect x="671.585" y="474.288" width="26.6051" height="78.0507" fill="#2D61DA" stroke="#162B6E" stroke-width="2.78702"/>
<rect x="698.261" y="474.288" width="26.6753" height="78.0507" fill="#2D61DA" stroke="#162B6E" stroke-width="2.78702"/>
<rect x="724.794" y="474.288" width="26.6753" height="78.0507" fill="#2D61DA" stroke="#162B6E" stroke-width="2.78702"/>
</g>
<defs>
<clipPath id="clip0_208_2364">
<rect width="866" height="500" fill="white" transform="translate(0.142578)"/>
</clipPath>
</defs>
</svg>
