<svg width="867" height="500" viewBox="0 0 867 500" fill="none" xmlns="http://www.w3.org/2000/svg">
<g clip-path="url(#clip0_208_10066)">
<rect x="24.52" y="10.375" width="817.243" height="489.625" fill="#0F2F7E"/>
<rect x="0.14209" y="-0.163574" width="873.73" height="15.7527" fill="#0C276A"/>
<rect x="0.14209" y="102.721" width="47.8926" height="16.0559" fill="#162B6E" stroke="#162B6E" stroke-width="1.60559"/>
<rect x="15.004" y="70.6091" width="9.19576" height="40.1396" stroke="#162B6E" stroke-width="1.60559"/>
<rect x="6.04626" y="70.6091" width="9.19576" height="40.1396" stroke="#162B6E" stroke-width="1.60559"/>
<rect x="24.205" y="70.6091" width="9.19576" height="40.1396" stroke="#162B6E" stroke-width="1.60559"/>
<rect x="33.3978" y="70.6091" width="9.19576" height="40.1396" stroke="#162B6E" stroke-width="1.60559"/>
<rect x="0.14209" y="315.953" width="47.8926" height="16.0559" fill="#162B6E" stroke="#162B6E" stroke-width="1.60559"/>
<rect x="15.004" y="283.84" width="9.19576" height="40.1396" stroke="#162B6E" stroke-width="1.60559"/>
<rect x="6.04626" y="283.84" width="9.19576" height="40.1396" stroke="#162B6E" stroke-width="1.60559"/>
<rect x="24.205" y="283.84" width="9.19576" height="40.1396" stroke="#162B6E" stroke-width="1.60559"/>
<rect x="33.3978" y="283.84" width="9.19576" height="40.1396" stroke="#162B6E" stroke-width="1.60559"/>
<rect width="47.6719" height="16.0559" transform="matrix(-1 0 0 1 866.142 102.721)" fill="#162B6E" stroke="#162B6E" stroke-width="1.60559"/>
<rect width="9.15338" height="40.1396" transform="matrix(-1 0 0 1 851.349 70.6091)" stroke="#162B6E" stroke-width="1.60559"/>
<rect width="9.15338" height="40.1396" transform="matrix(-1 0 0 1 860.265 70.6091)" stroke="#162B6E" stroke-width="1.60559"/>
<rect width="9.15338" height="40.1396" transform="matrix(-1 0 0 1 842.19 70.6091)" stroke="#162B6E" stroke-width="1.60559"/>
<rect width="9.15338" height="40.1396" transform="matrix(-1 0 0 1 833.04 70.6091)" stroke="#162B6E" stroke-width="1.60559"/>
<rect width="47.6719" height="16.0559" transform="matrix(-1 0 0 1 866.142 315.953)" fill="#162B6E" stroke="#162B6E" stroke-width="1.60559"/>
<rect width="9.15338" height="40.1396" transform="matrix(-1 0 0 1 851.349 283.84)" stroke="#162B6E" stroke-width="1.60559"/>
<rect width="9.15338" height="40.1396" transform="matrix(-1 0 0 1 860.265 283.84)" stroke="#162B6E" stroke-width="1.60559"/>
<rect width="9.15338" height="40.1396" transform="matrix(-1 0 0 1 842.19 283.84)" stroke="#162B6E" stroke-width="1.60559"/>
<rect width="9.15338" height="40.1396" transform="matrix(-1 0 0 1 833.04 283.84)" stroke="#162B6E" stroke-width="1.60559"/>
<rect x="0.14209" y="205.91" width="47.8926" height="16.0559" fill="#162B6E" stroke="#162B6E" stroke-width="1.60559"/>
<rect x="15.004" y="173.798" width="9.19576" height="40.1396" stroke="#162B6E" stroke-width="1.60559"/>
<rect x="6.04626" y="173.798" width="9.19576" height="40.1396" stroke="#162B6E" stroke-width="1.60559"/>
<rect x="24.205" y="173.798" width="9.19576" height="40.1396" stroke="#162B6E" stroke-width="1.60559"/>
<rect x="33.3978" y="173.798" width="9.19576" height="40.1396" stroke="#162B6E" stroke-width="1.60559"/>
<rect x="0.14209" y="430.656" width="47.8926" height="16.0559" fill="#162B6E" stroke="#162B6E" stroke-width="1.60559"/>
<rect x="15.004" y="398.544" width="9.19576" height="40.1396" stroke="#162B6E" stroke-width="1.60559"/>
<rect x="6.04626" y="398.544" width="9.19576" height="40.1396" stroke="#162B6E" stroke-width="1.60559"/>
<rect x="24.205" y="398.544" width="9.19576" height="40.1396" stroke="#162B6E" stroke-width="1.60559"/>
<rect x="33.3978" y="398.544" width="9.19576" height="40.1396" stroke="#162B6E" stroke-width="1.60559"/>
<rect width="47.6719" height="16.0559" transform="matrix(-1 0 0 1 866.142 205.91)" fill="#162B6E" stroke="#162B6E" stroke-width="1.60559"/>
<rect width="9.15338" height="40.1396" transform="matrix(-1 0 0 1 851.349 173.798)" stroke="#162B6E" stroke-width="1.60559"/>
<rect width="9.15338" height="40.1396" transform="matrix(-1 0 0 1 860.265 173.798)" stroke="#162B6E" stroke-width="1.60559"/>
<rect width="9.15338" height="40.1396" transform="matrix(-1 0 0 1 842.19 173.798)" stroke="#162B6E" stroke-width="1.60559"/>
<rect width="9.15338" height="40.1396" transform="matrix(-1 0 0 1 833.04 173.798)" stroke="#162B6E" stroke-width="1.60559"/>
<rect width="47.6719" height="16.0559" transform="matrix(-1 0 0 1 866.142 430.656)" fill="#162B6E" stroke="#162B6E" stroke-width="1.60559"/>
<rect width="9.15338" height="40.1396" transform="matrix(-1 0 0 1 851.349 398.544)" stroke="#162B6E" stroke-width="1.60559"/>
<rect width="9.15338" height="40.1396" transform="matrix(-1 0 0 1 860.265 398.544)" stroke="#162B6E" stroke-width="1.60559"/>
<rect width="9.15338" height="40.1396" transform="matrix(-1 0 0 1 842.19 398.544)" stroke="#162B6E" stroke-width="1.60559"/>
<rect width="9.15338" height="40.1396" transform="matrix(-1 0 0 1 833.04 398.544)" stroke="#162B6E" stroke-width="1.60559"/>
<rect x="114.548" y="31.5835" width="26.6051" height="78.0507" fill="#0D41BC" stroke="#162B6E" stroke-width="2.78702"/>
<rect x="141.224" y="31.5835" width="26.6753" height="78.0507" fill="#0D41BC" stroke="#162B6E" stroke-width="2.78702"/>
<rect x="167.757" y="31.5835" width="26.6753" height="78.0507" fill="#0D41BC" stroke="#162B6E" stroke-width="2.78702"/>
<rect x="108.906" y="102.721" width="91.3125" height="16.0559" fill="#162B6E" stroke="#162B6E" stroke-width="1.60559"/>
<rect x="123.289" y="70.6091" width="8.89931" height="40.1396" stroke="#162B6E" stroke-width="1.60559"/>
<rect x="114.62" y="70.6091" width="8.89931" height="40.1396" stroke="#162B6E" stroke-width="1.60559"/>
<rect x="132.193" y="70.6091" width="8.89931" height="40.1396" stroke="#162B6E" stroke-width="1.60559"/>
<rect x="141.089" y="70.6091" width="8.89931" height="40.1396" stroke="#162B6E" stroke-width="1.60559"/>
<rect x="149.989" y="70.6089" width="8.89931" height="40.1396" stroke="#162B6E" stroke-width="1.60559"/>
<rect x="158.893" y="70.6089" width="8.89931" height="40.1396" stroke="#162B6E" stroke-width="1.60559"/>
<rect x="167.797" y="70.6089" width="8.89931" height="40.1396" stroke="#162B6E" stroke-width="1.60559"/>
<rect x="176.702" y="70.6089" width="8.89931" height="40.1396" stroke="#162B6E" stroke-width="1.60559"/>
<rect x="185.605" y="70.6089" width="8.89931" height="40.1396" stroke="#162B6E" stroke-width="1.60559"/>
<rect x="114.548" y="134" width="26.6051" height="78.0507" fill="#0D41BC" stroke="#162B6E" stroke-width="2.78702"/>
<rect x="141.224" y="134" width="26.6753" height="78.0507" fill="#0D41BC" stroke="#162B6E" stroke-width="2.78702"/>
<rect x="167.757" y="134" width="26.6753" height="78.0507" fill="#0D41BC" stroke="#162B6E" stroke-width="2.78702"/>
<rect x="108.906" y="205.138" width="91.3125" height="16.0559" fill="#162B6E" stroke="#162B6E" stroke-width="1.60559"/>
<rect x="123.289" y="173.026" width="8.89931" height="40.1396" stroke="#162B6E" stroke-width="1.60559"/>
<rect x="114.62" y="173.026" width="8.89931" height="40.1396" stroke="#162B6E" stroke-width="1.60559"/>
<rect x="132.193" y="173.026" width="8.89931" height="40.1396" stroke="#162B6E" stroke-width="1.60559"/>
<rect x="141.089" y="173.026" width="8.89931" height="40.1396" stroke="#162B6E" stroke-width="1.60559"/>
<rect x="149.989" y="173.025" width="8.89931" height="40.1396" stroke="#162B6E" stroke-width="1.60559"/>
<rect x="158.893" y="173.025" width="8.89931" height="40.1396" stroke="#162B6E" stroke-width="1.60559"/>
<rect x="167.797" y="173.025" width="8.89931" height="40.1396" stroke="#162B6E" stroke-width="1.60559"/>
<rect x="176.702" y="173.025" width="8.89931" height="40.1396" stroke="#162B6E" stroke-width="1.60559"/>
<rect x="185.605" y="173.025" width="8.89931" height="40.1396" stroke="#162B6E" stroke-width="1.60559"/>
<rect x="114.548" y="243.754" width="26.6051" height="78.0507" fill="#0D41BC" stroke="#162B6E" stroke-width="2.78702"/>
<rect x="141.224" y="243.754" width="26.6753" height="78.0507" fill="#0D41BC" stroke="#162B6E" stroke-width="2.78702"/>
<rect x="167.757" y="243.754" width="26.6753" height="78.0507" fill="#0D41BC" stroke="#162B6E" stroke-width="2.78702"/>
<rect x="108.906" y="314.892" width="91.3125" height="16.0559" fill="#162B6E" stroke="#162B6E" stroke-width="1.60559"/>
<rect x="123.289" y="282.78" width="8.89931" height="40.1396" stroke="#162B6E" stroke-width="1.60559"/>
<rect x="114.62" y="282.78" width="8.89931" height="40.1396" stroke="#162B6E" stroke-width="1.60559"/>
<rect x="132.193" y="282.78" width="8.89931" height="40.1396" stroke="#162B6E" stroke-width="1.60559"/>
<rect x="141.089" y="282.78" width="8.89931" height="40.1396" stroke="#162B6E" stroke-width="1.60559"/>
<rect x="149.989" y="282.78" width="8.89931" height="40.1396" stroke="#162B6E" stroke-width="1.60559"/>
<rect x="158.893" y="282.78" width="8.89931" height="40.1396" stroke="#162B6E" stroke-width="1.60559"/>
<rect x="167.797" y="282.78" width="8.89931" height="40.1396" stroke="#162B6E" stroke-width="1.60559"/>
<rect x="176.702" y="282.78" width="8.89931" height="40.1396" stroke="#162B6E" stroke-width="1.60559"/>
<rect x="185.605" y="282.78" width="8.89931" height="40.1396" stroke="#162B6E" stroke-width="1.60559"/>
<rect x="114.548" y="359.519" width="26.6051" height="78.0507" fill="#0D41BC" stroke="#162B6E" stroke-width="2.78702"/>
<rect x="141.224" y="359.519" width="26.6753" height="78.0507" fill="#0D41BC" stroke="#162B6E" stroke-width="2.78702"/>
<rect x="167.757" y="359.519" width="26.6753" height="78.0507" fill="#0D41BC" stroke="#162B6E" stroke-width="2.78702"/>
<rect x="108.906" y="430.656" width="91.3125" height="16.0559" fill="#162B6E" stroke="#162B6E" stroke-width="1.60559"/>
<rect x="123.289" y="398.544" width="8.89931" height="40.1396" stroke="#162B6E" stroke-width="1.60559"/>
<rect x="114.62" y="398.544" width="8.89931" height="40.1396" stroke="#162B6E" stroke-width="1.60559"/>
<rect x="132.193" y="398.544" width="8.89931" height="40.1396" stroke="#162B6E" stroke-width="1.60559"/>
<rect x="141.089" y="398.544" width="8.89931" height="40.1396" stroke="#162B6E" stroke-width="1.60559"/>
<rect x="149.989" y="398.544" width="8.89931" height="40.1396" stroke="#162B6E" stroke-width="1.60559"/>
<rect x="158.893" y="398.544" width="8.89931" height="40.1396" stroke="#162B6E" stroke-width="1.60559"/>
<rect x="167.797" y="398.544" width="8.89931" height="40.1396" stroke="#162B6E" stroke-width="1.60559"/>
<rect x="176.702" y="398.544" width="8.89931" height="40.1396" stroke="#162B6E" stroke-width="1.60559"/>
<rect x="185.605" y="398.544" width="8.89931" height="40.1396" stroke="#162B6E" stroke-width="1.60559"/>
<rect x="114.548" y="461.935" width="26.6051" height="78.0507" fill="#0D41BC" stroke="#162B6E" stroke-width="2.78702"/>
<rect x="141.224" y="461.935" width="26.6753" height="78.0507" fill="#0D41BC" stroke="#162B6E" stroke-width="2.78702"/>
<rect x="167.757" y="461.935" width="26.6753" height="78.0507" fill="#0D41BC" stroke="#162B6E" stroke-width="2.78702"/>
<rect x="253.838" y="31.5835" width="26.6051" height="78.0507" fill="#0D41BC" stroke="#162B6E" stroke-width="2.78702"/>
<rect x="280.514" y="31.5835" width="26.6753" height="78.0507" fill="#0D41BC" stroke="#162B6E" stroke-width="2.78702"/>
<rect x="307.047" y="31.5835" width="26.6753" height="78.0507" fill="#0D41BC" stroke="#162B6E" stroke-width="2.78702"/>
<rect x="248.196" y="102.721" width="91.3125" height="16.0559" fill="#162B6E" stroke="#162B6E" stroke-width="1.60559"/>
<rect x="262.579" y="70.6091" width="8.89931" height="40.1396" stroke="#162B6E" stroke-width="1.60559"/>
<rect x="253.91" y="70.6091" width="8.89931" height="40.1396" stroke="#162B6E" stroke-width="1.60559"/>
<rect x="271.483" y="70.6091" width="8.89931" height="40.1396" stroke="#162B6E" stroke-width="1.60559"/>
<rect x="280.379" y="70.6091" width="8.89931" height="40.1396" stroke="#162B6E" stroke-width="1.60559"/>
<rect x="289.279" y="70.6089" width="8.89931" height="40.1396" stroke="#162B6E" stroke-width="1.60559"/>
<rect x="298.183" y="70.6089" width="8.89931" height="40.1396" stroke="#162B6E" stroke-width="1.60559"/>
<rect x="307.087" y="70.6089" width="8.89931" height="40.1396" stroke="#162B6E" stroke-width="1.60559"/>
<rect x="315.992" y="70.6089" width="8.89931" height="40.1396" stroke="#162B6E" stroke-width="1.60559"/>
<rect x="324.895" y="70.6089" width="8.89931" height="40.1396" stroke="#162B6E" stroke-width="1.60559"/>
<rect x="253.838" y="134" width="26.6051" height="78.0507" fill="#0D41BC" stroke="#162B6E" stroke-width="2.78702"/>
<rect x="280.514" y="134" width="26.6753" height="78.0507" fill="#0D41BC" stroke="#162B6E" stroke-width="2.78702"/>
<rect x="307.047" y="134" width="26.6753" height="78.0507" fill="#0D41BC" stroke="#162B6E" stroke-width="2.78702"/>
<rect x="248.196" y="205.138" width="91.3125" height="16.0559" fill="#162B6E" stroke="#162B6E" stroke-width="1.60559"/>
<rect x="262.579" y="173.026" width="8.89931" height="40.1396" stroke="#162B6E" stroke-width="1.60559"/>
<rect x="253.91" y="173.026" width="8.89931" height="40.1396" stroke="#162B6E" stroke-width="1.60559"/>
<rect x="271.483" y="173.026" width="8.89931" height="40.1396" stroke="#162B6E" stroke-width="1.60559"/>
<rect x="280.379" y="173.026" width="8.89931" height="40.1396" stroke="#162B6E" stroke-width="1.60559"/>
<rect x="289.279" y="173.025" width="8.89931" height="40.1396" stroke="#162B6E" stroke-width="1.60559"/>
<rect x="298.183" y="173.025" width="8.89931" height="40.1396" stroke="#162B6E" stroke-width="1.60559"/>
<rect x="307.087" y="173.025" width="8.89931" height="40.1396" stroke="#162B6E" stroke-width="1.60559"/>
<rect x="315.992" y="173.025" width="8.89931" height="40.1396" stroke="#162B6E" stroke-width="1.60559"/>
<rect x="324.895" y="173.025" width="8.89931" height="40.1396" stroke="#162B6E" stroke-width="1.60559"/>
<rect x="253.838" y="243.754" width="26.6051" height="78.0507" fill="#FFDC00" stroke="#162B6E" stroke-width="2.78702"/>
<rect x="280.514" y="243.754" width="26.6753" height="78.0507" fill="#0D41BC" stroke="#162B6E" stroke-width="2.78702"/>
<rect x="307.047" y="243.754" width="26.6753" height="78.0507" fill="#0D41BC" stroke="#162B6E" stroke-width="2.78702"/>
<rect x="248.196" y="314.892" width="91.3125" height="16.0559" fill="#162B6E" stroke="#162B6E" stroke-width="1.60559"/>
<rect x="262.579" y="282.78" width="8.89931" height="40.1396" stroke="#162B6E" stroke-width="1.60559"/>
<rect x="253.91" y="282.78" width="8.89931" height="40.1396" stroke="#162B6E" stroke-width="1.60559"/>
<rect x="271.483" y="282.78" width="8.89931" height="40.1396" stroke="#162B6E" stroke-width="1.60559"/>
<rect x="280.379" y="282.78" width="8.89931" height="40.1396" stroke="#162B6E" stroke-width="1.60559"/>
<rect x="289.279" y="282.78" width="8.89931" height="40.1396" stroke="#162B6E" stroke-width="1.60559"/>
<rect x="298.183" y="282.78" width="8.89931" height="40.1396" stroke="#162B6E" stroke-width="1.60559"/>
<rect x="307.087" y="282.78" width="8.89931" height="40.1396" stroke="#162B6E" stroke-width="1.60559"/>
<rect x="315.992" y="282.78" width="8.89931" height="40.1396" stroke="#162B6E" stroke-width="1.60559"/>
<rect x="324.895" y="282.78" width="8.89931" height="40.1396" stroke="#162B6E" stroke-width="1.60559"/>
<rect x="253.838" y="359.519" width="26.6051" height="78.0507" fill="#0D41BC" stroke="#162B6E" stroke-width="2.78702"/>
<rect x="280.514" y="359.519" width="26.6753" height="78.0507" fill="#0D41BC" stroke="#162B6E" stroke-width="2.78702"/>
<rect x="307.047" y="359.519" width="26.6753" height="78.0507" fill="#0D41BC" stroke="#162B6E" stroke-width="2.78702"/>
<rect x="248.196" y="430.656" width="91.3125" height="16.0559" fill="#162B6E" stroke="#162B6E" stroke-width="1.60559"/>
<rect x="262.579" y="398.544" width="8.89931" height="40.1396" stroke="#162B6E" stroke-width="1.60559"/>
<rect x="253.91" y="398.544" width="8.89931" height="40.1396" stroke="#162B6E" stroke-width="1.60559"/>
<rect x="271.483" y="398.544" width="8.89931" height="40.1396" stroke="#162B6E" stroke-width="1.60559"/>
<rect x="280.379" y="398.544" width="8.89931" height="40.1396" stroke="#162B6E" stroke-width="1.60559"/>
<rect x="289.279" y="398.544" width="8.89931" height="40.1396" stroke="#162B6E" stroke-width="1.60559"/>
<rect x="298.183" y="398.544" width="8.89931" height="40.1396" stroke="#162B6E" stroke-width="1.60559"/>
<rect x="307.087" y="398.544" width="8.89931" height="40.1396" stroke="#162B6E" stroke-width="1.60559"/>
<rect x="315.992" y="398.544" width="8.89931" height="40.1396" stroke="#162B6E" stroke-width="1.60559"/>
<rect x="324.895" y="398.544" width="8.89931" height="40.1396" stroke="#162B6E" stroke-width="1.60559"/>
<rect x="253.838" y="461.935" width="26.6051" height="78.0507" fill="#0D41BC" stroke="#162B6E" stroke-width="2.78702"/>
<rect x="280.514" y="461.935" width="26.6753" height="78.0507" fill="#0D41BC" stroke="#162B6E" stroke-width="2.78702"/>
<rect x="307.047" y="461.935" width="26.6753" height="78.0507" fill="#0D41BC" stroke="#162B6E" stroke-width="2.78702"/>
<rect x="393.128" y="31.5835" width="26.6051" height="78.0507" fill="#0D41BC" stroke="#162B6E" stroke-width="2.78702"/>
<rect x="419.804" y="31.5835" width="26.6753" height="78.0507" fill="#0D41BC" stroke="#162B6E" stroke-width="2.78702"/>
<rect x="446.337" y="31.5835" width="26.6753" height="78.0507" fill="#FFDC00" stroke="#162B6E" stroke-width="2.78702"/>
<rect x="387.486" y="102.721" width="91.3125" height="16.0559" fill="#162B6E" stroke="#162B6E" stroke-width="1.60559"/>
<rect x="401.869" y="70.6091" width="8.89931" height="40.1396" stroke="#162B6E" stroke-width="1.60559"/>
<rect x="393.2" y="70.6091" width="8.89931" height="40.1396" stroke="#162B6E" stroke-width="1.60559"/>
<rect x="410.773" y="70.6091" width="8.89931" height="40.1396" stroke="#162B6E" stroke-width="1.60559"/>
<rect x="419.669" y="70.6091" width="8.89931" height="40.1396" stroke="#162B6E" stroke-width="1.60559"/>
<rect x="428.569" y="70.6089" width="8.89931" height="40.1396" stroke="#162B6E" stroke-width="1.60559"/>
<rect x="437.473" y="70.6089" width="8.89931" height="40.1396" stroke="#162B6E" stroke-width="1.60559"/>
<rect x="446.377" y="70.6089" width="8.89931" height="40.1396" stroke="#162B6E" stroke-width="1.60559"/>
<rect x="455.282" y="70.6089" width="8.89931" height="40.1396" stroke="#162B6E" stroke-width="1.60559"/>
<rect x="464.185" y="70.6089" width="8.89931" height="40.1396" stroke="#162B6E" stroke-width="1.60559"/>
<rect x="393.128" y="134" width="26.6051" height="78.0507" fill="#0D41BC" stroke="#162B6E" stroke-width="2.78702"/>
<rect x="419.804" y="134" width="26.6753" height="78.0507" fill="#0D41BC" stroke="#162B6E" stroke-width="2.78702"/>
<rect x="446.337" y="134" width="26.6753" height="78.0507" fill="#0D41BC" stroke="#162B6E" stroke-width="2.78702"/>
<rect x="387.486" y="205.138" width="91.3125" height="16.0559" fill="#162B6E" stroke="#162B6E" stroke-width="1.60559"/>
<rect x="401.869" y="173.026" width="8.89931" height="40.1396" stroke="#162B6E" stroke-width="1.60559"/>
<rect x="393.2" y="173.026" width="8.89931" height="40.1396" stroke="#162B6E" stroke-width="1.60559"/>
<rect x="410.773" y="173.026" width="8.89931" height="40.1396" stroke="#162B6E" stroke-width="1.60559"/>
<rect x="419.669" y="173.026" width="8.89931" height="40.1396" stroke="#162B6E" stroke-width="1.60559"/>
<rect x="428.569" y="173.025" width="8.89931" height="40.1396" stroke="#162B6E" stroke-width="1.60559"/>
<rect x="437.473" y="173.025" width="8.89931" height="40.1396" stroke="#162B6E" stroke-width="1.60559"/>
<rect x="446.377" y="173.025" width="8.89931" height="40.1396" stroke="#162B6E" stroke-width="1.60559"/>
<rect x="455.282" y="173.025" width="8.89931" height="40.1396" stroke="#162B6E" stroke-width="1.60559"/>
<rect x="464.185" y="173.025" width="8.89931" height="40.1396" stroke="#162B6E" stroke-width="1.60559"/>
<rect x="393.128" y="243.754" width="26.6051" height="78.0507" fill="#0D41BC" stroke="#162B6E" stroke-width="2.78702"/>
<rect x="419.804" y="243.754" width="26.6753" height="78.0507" fill="#0D41BC" stroke="#162B6E" stroke-width="2.78702"/>
<rect x="446.337" y="243.754" width="26.6753" height="78.0507" fill="#0D41BC" stroke="#162B6E" stroke-width="2.78702"/>
<rect x="387.486" y="314.892" width="91.3125" height="16.0559" fill="#162B6E" stroke="#162B6E" stroke-width="1.60559"/>
<rect x="401.869" y="282.78" width="8.89931" height="40.1396" stroke="#162B6E" stroke-width="1.60559"/>
<rect x="393.2" y="282.78" width="8.89931" height="40.1396" stroke="#162B6E" stroke-width="1.60559"/>
<rect x="410.773" y="282.78" width="8.89931" height="40.1396" stroke="#162B6E" stroke-width="1.60559"/>
<rect x="419.669" y="282.78" width="8.89931" height="40.1396" stroke="#162B6E" stroke-width="1.60559"/>
<rect x="428.569" y="282.78" width="8.89931" height="40.1396" stroke="#162B6E" stroke-width="1.60559"/>
<rect x="437.473" y="282.78" width="8.89931" height="40.1396" stroke="#162B6E" stroke-width="1.60559"/>
<rect x="446.377" y="282.78" width="8.89931" height="40.1396" stroke="#162B6E" stroke-width="1.60559"/>
<rect x="455.282" y="282.78" width="8.89931" height="40.1396" stroke="#162B6E" stroke-width="1.60559"/>
<rect x="464.185" y="282.78" width="8.89931" height="40.1396" stroke="#162B6E" stroke-width="1.60559"/>
<rect x="393.128" y="359.519" width="26.6051" height="78.0507" fill="#0D41BC" stroke="#162B6E" stroke-width="2.78702"/>
<rect x="419.804" y="359.519" width="26.6753" height="78.0507" fill="#0D41BC" stroke="#162B6E" stroke-width="2.78702"/>
<rect x="446.337" y="359.519" width="26.6753" height="78.0507" fill="#FFDC00" stroke="#162B6E" stroke-width="2.78702"/>
<rect x="387.486" y="430.656" width="91.3125" height="16.0559" fill="#162B6E" stroke="#162B6E" stroke-width="1.60559"/>
<rect x="401.869" y="398.544" width="8.89931" height="40.1396" stroke="#162B6E" stroke-width="1.60559"/>
<rect x="393.2" y="398.544" width="8.89931" height="40.1396" stroke="#162B6E" stroke-width="1.60559"/>
<rect x="410.773" y="398.544" width="8.89931" height="40.1396" stroke="#162B6E" stroke-width="1.60559"/>
<rect x="419.669" y="398.544" width="8.89931" height="40.1396" stroke="#162B6E" stroke-width="1.60559"/>
<rect x="428.569" y="398.544" width="8.89931" height="40.1396" stroke="#162B6E" stroke-width="1.60559"/>
<rect x="437.473" y="398.544" width="8.89931" height="40.1396" stroke="#162B6E" stroke-width="1.60559"/>
<rect x="446.377" y="398.544" width="8.89931" height="40.1396" stroke="#162B6E" stroke-width="1.60559"/>
<rect x="455.282" y="398.544" width="8.89931" height="40.1396" stroke="#162B6E" stroke-width="1.60559"/>
<rect x="464.185" y="398.544" width="8.89931" height="40.1396" stroke="#162B6E" stroke-width="1.60559"/>
<rect x="393.128" y="461.935" width="26.6051" height="78.0507" fill="#0D41BC" stroke="#162B6E" stroke-width="2.78702"/>
<rect x="419.804" y="461.935" width="26.6753" height="78.0507" fill="#0D41BC" stroke="#162B6E" stroke-width="2.78702"/>
<rect x="446.337" y="461.935" width="26.6753" height="78.0507" fill="#0D41BC" stroke="#162B6E" stroke-width="2.78702"/>
<rect x="532.418" y="31.5835" width="26.6051" height="78.0507" fill="#0D41BC" stroke="#162B6E" stroke-width="2.78702"/>
<rect x="559.094" y="31.5835" width="26.6753" height="78.0507" fill="#0D41BC" stroke="#162B6E" stroke-width="2.78702"/>
<rect x="585.627" y="31.5835" width="26.6753" height="78.0507" fill="#0D41BC" stroke="#162B6E" stroke-width="2.78702"/>
<rect x="526.776" y="102.721" width="91.3125" height="16.0559" fill="#162B6E" stroke="#162B6E" stroke-width="1.60559"/>
<rect x="541.159" y="70.6091" width="8.89931" height="40.1396" stroke="#162B6E" stroke-width="1.60559"/>
<rect x="532.49" y="70.6091" width="8.89931" height="40.1396" stroke="#162B6E" stroke-width="1.60559"/>
<rect x="550.063" y="70.6091" width="8.89931" height="40.1396" stroke="#162B6E" stroke-width="1.60559"/>
<rect x="558.959" y="70.6091" width="8.89931" height="40.1396" stroke="#162B6E" stroke-width="1.60559"/>
<rect x="567.859" y="70.6089" width="8.89931" height="40.1396" stroke="#162B6E" stroke-width="1.60559"/>
<rect x="576.763" y="70.6089" width="8.89931" height="40.1396" stroke="#162B6E" stroke-width="1.60559"/>
<rect x="585.667" y="70.6089" width="8.89931" height="40.1396" stroke="#162B6E" stroke-width="1.60559"/>
<rect x="594.572" y="70.6089" width="8.89931" height="40.1396" stroke="#162B6E" stroke-width="1.60559"/>
<rect x="603.475" y="70.6089" width="8.89931" height="40.1396" stroke="#162B6E" stroke-width="1.60559"/>
<rect x="532.418" y="134" width="26.6051" height="78.0507" fill="#0D41BC" stroke="#162B6E" stroke-width="2.78702"/>
<rect x="559.094" y="134" width="26.6753" height="78.0507" fill="#0D41BC" stroke="#162B6E" stroke-width="2.78702"/>
<rect x="585.627" y="134" width="26.6753" height="78.0507" fill="#0D41BC" stroke="#162B6E" stroke-width="2.78702"/>
<rect x="526.776" y="205.138" width="91.3125" height="16.0559" fill="#162B6E" stroke="#162B6E" stroke-width="1.60559"/>
<rect x="541.159" y="173.026" width="8.89931" height="40.1396" stroke="#162B6E" stroke-width="1.60559"/>
<rect x="532.49" y="173.026" width="8.89931" height="40.1396" stroke="#162B6E" stroke-width="1.60559"/>
<rect x="550.063" y="173.026" width="8.89931" height="40.1396" stroke="#162B6E" stroke-width="1.60559"/>
<rect x="558.959" y="173.026" width="8.89931" height="40.1396" stroke="#162B6E" stroke-width="1.60559"/>
<rect x="567.859" y="173.025" width="8.89931" height="40.1396" stroke="#162B6E" stroke-width="1.60559"/>
<rect x="576.763" y="173.025" width="8.89931" height="40.1396" stroke="#162B6E" stroke-width="1.60559"/>
<rect x="585.667" y="173.025" width="8.89931" height="40.1396" stroke="#162B6E" stroke-width="1.60559"/>
<rect x="594.572" y="173.025" width="8.89931" height="40.1396" stroke="#162B6E" stroke-width="1.60559"/>
<rect x="603.475" y="173.025" width="8.89931" height="40.1396" stroke="#162B6E" stroke-width="1.60559"/>
<rect x="532.418" y="243.754" width="26.6051" height="78.0507" fill="#0D41BC" stroke="#162B6E" stroke-width="2.78702"/>
<rect x="559.094" y="243.754" width="26.6753" height="78.0507" fill="#0D41BC" stroke="#162B6E" stroke-width="2.78702"/>
<rect x="585.627" y="243.754" width="26.6753" height="78.0507" fill="#0D41BC" stroke="#162B6E" stroke-width="2.78702"/>
<rect x="526.776" y="314.892" width="91.3125" height="16.0559" fill="#162B6E" stroke="#162B6E" stroke-width="1.60559"/>
<rect x="541.159" y="282.78" width="8.89931" height="40.1396" stroke="#162B6E" stroke-width="1.60559"/>
<rect x="532.49" y="282.78" width="8.89931" height="40.1396" stroke="#162B6E" stroke-width="1.60559"/>
<rect x="550.063" y="282.78" width="8.89931" height="40.1396" stroke="#162B6E" stroke-width="1.60559"/>
<rect x="558.959" y="282.78" width="8.89931" height="40.1396" stroke="#162B6E" stroke-width="1.60559"/>
<rect x="567.859" y="282.78" width="8.89931" height="40.1396" stroke="#162B6E" stroke-width="1.60559"/>
<rect x="576.763" y="282.78" width="8.89931" height="40.1396" stroke="#162B6E" stroke-width="1.60559"/>
<rect x="585.667" y="282.78" width="8.89931" height="40.1396" stroke="#162B6E" stroke-width="1.60559"/>
<rect x="594.572" y="282.78" width="8.89931" height="40.1396" stroke="#162B6E" stroke-width="1.60559"/>
<rect x="603.475" y="282.78" width="8.89931" height="40.1396" stroke="#162B6E" stroke-width="1.60559"/>
<rect x="532.418" y="359.519" width="26.6051" height="78.0507" fill="#0D41BC" stroke="#162B6E" stroke-width="2.78702"/>
<rect x="559.094" y="359.519" width="26.6753" height="78.0507" fill="#0D41BC" stroke="#162B6E" stroke-width="2.78702"/>
<rect x="585.627" y="359.519" width="26.6753" height="78.0507" fill="#0D41BC" stroke="#162B6E" stroke-width="2.78702"/>
<rect x="526.776" y="430.656" width="91.3125" height="16.0559" fill="#162B6E" stroke="#162B6E" stroke-width="1.60559"/>
<rect x="541.159" y="398.544" width="8.89931" height="40.1396" stroke="#162B6E" stroke-width="1.60559"/>
<rect x="532.49" y="398.544" width="8.89931" height="40.1396" stroke="#162B6E" stroke-width="1.60559"/>
<rect x="550.063" y="398.544" width="8.89931" height="40.1396" stroke="#162B6E" stroke-width="1.60559"/>
<rect x="558.959" y="398.544" width="8.89931" height="40.1396" stroke="#162B6E" stroke-width="1.60559"/>
<rect x="567.859" y="398.544" width="8.89931" height="40.1396" stroke="#162B6E" stroke-width="1.60559"/>
<rect x="576.763" y="398.544" width="8.89931" height="40.1396" stroke="#162B6E" stroke-width="1.60559"/>
<rect x="585.667" y="398.544" width="8.89931" height="40.1396" stroke="#162B6E" stroke-width="1.60559"/>
<rect x="594.572" y="398.544" width="8.89931" height="40.1396" stroke="#162B6E" stroke-width="1.60559"/>
<rect x="603.475" y="398.544" width="8.89931" height="40.1396" stroke="#162B6E" stroke-width="1.60559"/>
<rect x="532.418" y="461.935" width="26.6051" height="78.0507" fill="#0D41BC" stroke="#162B6E" stroke-width="2.78702"/>
<rect x="559.094" y="461.935" width="26.6753" height="78.0507" fill="#0D41BC" stroke="#162B6E" stroke-width="2.78702"/>
<rect x="585.627" y="461.935" width="26.6753" height="78.0507" fill="#0D41BC" stroke="#162B6E" stroke-width="2.78702"/>
<rect x="671.708" y="31.5835" width="26.6051" height="78.0507" fill="#0D41BC" stroke="#162B6E" stroke-width="2.78702"/>
<rect x="698.384" y="31.5835" width="26.6753" height="78.0507" fill="#0D41BC" stroke="#162B6E" stroke-width="2.78702"/>
<rect x="724.917" y="31.5835" width="26.6753" height="78.0507" fill="#0D41BC" stroke="#162B6E" stroke-width="2.78702"/>
<rect x="666.066" y="102.721" width="91.3125" height="16.0559" fill="#162B6E" stroke="#162B6E" stroke-width="1.60559"/>
<rect x="680.449" y="70.6091" width="8.89931" height="40.1396" stroke="#162B6E" stroke-width="1.60559"/>
<rect x="671.78" y="70.6091" width="8.89931" height="40.1396" stroke="#162B6E" stroke-width="1.60559"/>
<rect x="689.353" y="70.6091" width="8.89931" height="40.1396" stroke="#162B6E" stroke-width="1.60559"/>
<rect x="698.25" y="70.6091" width="8.89931" height="40.1396" stroke="#162B6E" stroke-width="1.60559"/>
<rect x="707.149" y="70.6089" width="8.89931" height="40.1396" stroke="#162B6E" stroke-width="1.60559"/>
<rect x="716.053" y="70.6089" width="8.89931" height="40.1396" stroke="#162B6E" stroke-width="1.60559"/>
<rect x="724.958" y="70.6089" width="8.89931" height="40.1396" stroke="#162B6E" stroke-width="1.60559"/>
<rect x="733.862" y="70.6089" width="8.89931" height="40.1396" stroke="#162B6E" stroke-width="1.60559"/>
<rect x="742.765" y="70.6089" width="8.89931" height="40.1396" stroke="#162B6E" stroke-width="1.60559"/>
<rect x="671.708" y="134" width="26.6051" height="78.0507" fill="#0D41BC" stroke="#162B6E" stroke-width="2.78702"/>
<rect x="698.384" y="134" width="26.6753" height="78.0507" fill="#0D41BC" stroke="#162B6E" stroke-width="2.78702"/>
<rect x="724.917" y="134" width="26.6753" height="78.0507" fill="#0D41BC" stroke="#162B6E" stroke-width="2.78702"/>
<rect x="666.066" y="205.138" width="91.3125" height="16.0559" fill="#162B6E" stroke="#162B6E" stroke-width="1.60559"/>
<rect x="680.449" y="173.026" width="8.89931" height="40.1396" stroke="#162B6E" stroke-width="1.60559"/>
<rect x="671.78" y="173.026" width="8.89931" height="40.1396" stroke="#162B6E" stroke-width="1.60559"/>
<rect x="689.353" y="173.026" width="8.89931" height="40.1396" stroke="#162B6E" stroke-width="1.60559"/>
<rect x="698.25" y="173.026" width="8.89931" height="40.1396" stroke="#162B6E" stroke-width="1.60559"/>
<rect x="707.149" y="173.025" width="8.89931" height="40.1396" stroke="#162B6E" stroke-width="1.60559"/>
<rect x="716.053" y="173.025" width="8.89931" height="40.1396" stroke="#162B6E" stroke-width="1.60559"/>
<rect x="724.958" y="173.025" width="8.89931" height="40.1396" stroke="#162B6E" stroke-width="1.60559"/>
<rect x="733.862" y="173.025" width="8.89931" height="40.1396" stroke="#162B6E" stroke-width="1.60559"/>
<rect x="742.765" y="173.025" width="8.89931" height="40.1396" stroke="#162B6E" stroke-width="1.60559"/>
<rect x="671.708" y="243.754" width="26.6051" height="78.0507" fill="#0D41BC" stroke="#162B6E" stroke-width="2.78702"/>
<rect x="698.384" y="243.754" width="26.6753" height="78.0507" fill="#0D41BC" stroke="#162B6E" stroke-width="2.78702"/>
<rect x="724.917" y="243.754" width="26.6753" height="78.0507" fill="#0D41BC" stroke="#162B6E" stroke-width="2.78702"/>
<rect x="666.066" y="314.892" width="91.3125" height="16.0559" fill="#162B6E" stroke="#162B6E" stroke-width="1.60559"/>
<rect x="680.449" y="282.78" width="8.89931" height="40.1396" stroke="#162B6E" stroke-width="1.60559"/>
<rect x="671.78" y="282.78" width="8.89931" height="40.1396" stroke="#162B6E" stroke-width="1.60559"/>
<rect x="689.353" y="282.78" width="8.89931" height="40.1396" stroke="#162B6E" stroke-width="1.60559"/>
<rect x="698.25" y="282.78" width="8.89931" height="40.1396" stroke="#162B6E" stroke-width="1.60559"/>
<rect x="707.149" y="282.78" width="8.89931" height="40.1396" stroke="#162B6E" stroke-width="1.60559"/>
<rect x="716.053" y="282.78" width="8.89931" height="40.1396" stroke="#162B6E" stroke-width="1.60559"/>
<rect x="724.958" y="282.78" width="8.89931" height="40.1396" stroke="#162B6E" stroke-width="1.60559"/>
<rect x="733.862" y="282.78" width="8.89931" height="40.1396" stroke="#162B6E" stroke-width="1.60559"/>
<rect x="742.765" y="282.78" width="8.89931" height="40.1396" stroke="#162B6E" stroke-width="1.60559"/>
<rect x="671.708" y="359.519" width="26.6051" height="78.0507" fill="#0D41BC" stroke="#162B6E" stroke-width="2.78702"/>
<rect x="698.384" y="359.519" width="26.6753" height="78.0507" fill="#0D41BC" stroke="#162B6E" stroke-width="2.78702"/>
<rect x="724.917" y="359.519" width="26.6753" height="78.0507" fill="#0D41BC" stroke="#162B6E" stroke-width="2.78702"/>
<rect x="666.066" y="430.656" width="91.3125" height="16.0559" fill="#162B6E" stroke="#162B6E" stroke-width="1.60559"/>
<rect x="680.449" y="398.544" width="8.89931" height="40.1396" stroke="#162B6E" stroke-width="1.60559"/>
<rect x="671.78" y="398.544" width="8.89931" height="40.1396" stroke="#162B6E" stroke-width="1.60559"/>
<rect x="689.353" y="398.544" width="8.89931" height="40.1396" stroke="#162B6E" stroke-width="1.60559"/>
<rect x="698.25" y="398.544" width="8.89931" height="40.1396" stroke="#162B6E" stroke-width="1.60559"/>
<rect x="707.149" y="398.544" width="8.89931" height="40.1396" stroke="#162B6E" stroke-width="1.60559"/>
<rect x="716.053" y="398.544" width="8.89931" height="40.1396" stroke="#162B6E" stroke-width="1.60559"/>
<rect x="724.958" y="398.544" width="8.89931" height="40.1396" stroke="#162B6E" stroke-width="1.60559"/>
<rect x="733.862" y="398.544" width="8.89931" height="40.1396" stroke="#162B6E" stroke-width="1.60559"/>
<rect x="742.765" y="398.544" width="8.89931" height="40.1396" stroke="#162B6E" stroke-width="1.60559"/>
<rect x="671.708" y="461.935" width="26.6051" height="78.0507" fill="#0D41BC" stroke="#162B6E" stroke-width="2.78702"/>
<rect x="698.384" y="461.935" width="26.6753" height="78.0507" fill="#0D41BC" stroke="#162B6E" stroke-width="2.78702"/>
<rect x="724.917" y="461.935" width="26.6753" height="78.0507" fill="#0D41BC" stroke="#162B6E" stroke-width="2.78702"/>
<path fill-rule="evenodd" clip-rule="evenodd" d="M743.589 70.6089C557.722 97.3698 431.094 100.65 256.539 73.5283L252.161 117.805C420.511 144.08 557.722 139.701 748.941 112.94L743.589 70.6089ZM741.15 78.2042C741.15 79.7836 739.87 81.0638 738.291 81.0638C736.711 81.0638 735.431 79.7836 735.431 78.2042C735.431 76.6249 736.711 75.3447 738.291 75.3447C739.87 75.3447 741.15 76.6249 741.15 78.2042ZM265.845 81.8547C265.845 83.434 264.564 84.7143 262.985 84.7143C261.406 84.7143 260.125 83.434 260.125 81.8547C260.125 80.2754 261.406 78.9951 262.985 78.9951C264.564 78.9951 265.845 80.2754 265.845 81.8547ZM259.172 115.564C260.751 115.564 262.032 114.284 262.032 112.704C262.032 111.125 260.751 109.845 259.172 109.845C257.593 109.845 256.313 111.125 256.313 112.704C256.313 114.284 257.593 115.564 259.172 115.564ZM745.006 107.736C745.006 109.315 743.726 110.595 742.146 110.595C740.567 110.595 739.287 109.315 739.287 107.736C739.287 106.157 740.567 104.876 742.146 104.876C743.726 104.876 745.006 106.157 745.006 107.736Z" fill="#2D61DA"/>
<path d="M739.345 76.0493C741.07 77.2077 747.794 72.1625 747.794 69.9761M744.49 108.187C746.216 109.345 753.146 103.492 753.146 101.305M261.857 79.7837C259.22 80.6583 255.335 72.2394 254.837 69.9236M257.931 110.669C256.206 111.828 251.094 103.014 250.596 100.698" stroke="#162B6E" stroke-linecap="round"/>
<path d="M280.956 106.191C280.776 106.165 280.641 106.086 280.54 105.955C280.444 105.824 280.409 105.671 280.435 105.496C281.078 101.353 281.717 97.2099 282.36 93.067C280.925 92.8439 279.486 92.6208 278.051 92.3933C277.872 92.3671 277.736 92.2883 277.644 92.1571C277.552 92.0127 277.517 91.8596 277.544 91.6977C277.679 90.849 277.815 89.9916 277.95 89.1385C277.977 88.9635 278.055 88.8279 278.187 88.7317C278.318 88.6354 278.471 88.6048 278.646 88.6311C282.973 89.3135 287.304 89.9785 291.634 90.6215C291.809 90.6478 291.949 90.7265 292.046 90.8534C292.142 90.9803 292.177 91.1334 292.151 91.3128C292.024 92.1702 291.897 93.0276 291.77 93.8807C291.748 94.0426 291.669 94.1782 291.538 94.2876C291.407 94.3838 291.254 94.4188 291.079 94.3926C289.64 94.1782 288.205 93.9638 286.77 93.7451C286.14 97.888 285.514 102.035 284.884 106.178C284.858 106.353 284.779 106.489 284.648 106.585C284.517 106.681 284.364 106.712 284.184 106.686C283.108 106.524 282.032 106.357 280.96 106.191H280.956ZM298.94 109.096C297.44 108.886 296.167 108.457 295.13 107.819C294.089 107.18 293.332 106.331 292.855 105.281C292.378 104.214 292.216 102.945 292.365 101.48C292.448 100.788 292.544 100.097 292.645 99.4104C292.746 98.7235 292.855 98.0279 292.978 97.3236C293.253 95.8931 293.769 94.7338 294.526 93.8457C295.3 92.9445 296.272 92.3277 297.44 91.9865C298.608 91.6496 299.925 91.584 301.39 91.7896C302.838 91.9952 304.081 92.4196 305.104 93.0714C306.15 93.7232 306.915 94.5894 307.41 95.6656C307.904 96.7287 308.083 97.9886 307.935 99.4366C307.869 100.145 307.795 100.845 307.698 101.536C307.607 102.228 307.493 102.915 307.37 103.597C307.108 105.049 306.6 106.222 305.848 107.114C305.095 107.994 304.133 108.597 302.961 108.921C301.784 109.249 300.445 109.306 298.945 109.096H298.94ZM299.43 105.636C300.292 105.758 301.027 105.601 301.635 105.163C302.261 104.726 302.668 103.951 302.856 102.831C302.987 102.131 303.096 101.466 303.184 100.841C303.271 100.215 303.346 99.5635 303.407 98.8854C303.481 98.1286 303.42 97.4986 303.223 96.9955C303.048 96.4793 302.759 96.0812 302.353 95.7968C301.946 95.5125 301.464 95.3287 300.896 95.25C300.345 95.1713 299.837 95.215 299.369 95.3769C298.901 95.5387 298.503 95.8406 298.175 96.2868C297.851 96.7155 297.615 97.3017 297.475 98.0498C297.361 98.7191 297.26 99.3666 297.173 99.9922C297.085 100.618 296.998 101.283 296.91 101.991C296.797 103.12 296.972 103.978 297.435 104.568C297.899 105.159 298.564 105.513 299.426 105.636H299.43ZM320.888 111.778C320.709 111.756 320.569 111.681 320.468 111.555C320.368 111.428 320.328 111.275 320.35 111.1C320.871 106.965 321.391 102.831 321.912 98.6973C320.407 98.5092 318.902 98.3167 317.397 98.1198C317.301 98.8504 317.209 99.581 317.113 100.312C316.863 102.254 316.553 103.894 316.181 105.233C315.827 106.559 315.35 107.622 314.75 108.427C314.169 109.214 313.407 109.752 312.476 110.037C311.557 110.325 310.411 110.391 309.037 110.242C308.875 110.22 308.735 110.146 308.617 110.015C308.503 109.87 308.46 109.708 308.482 109.529C308.595 108.689 308.709 107.845 308.823 107.005C308.871 106.651 309.103 106.48 309.514 106.484C309.982 106.467 310.393 106.283 310.756 105.942C311.115 105.596 311.439 105.119 311.719 104.503C312.003 103.873 312.244 103.111 312.441 102.223C312.642 101.318 312.817 100.316 312.961 99.2091C313.176 97.5817 313.39 95.9543 313.609 94.3226C313.631 94.1476 313.709 94.0076 313.836 93.9113C313.981 93.8151 314.142 93.7801 314.317 93.802C318.255 94.3226 322.192 94.8213 326.129 95.3069C326.308 95.3287 326.444 95.4031 326.545 95.53C326.645 95.6568 326.685 95.81 326.663 95.985C326.024 101.204 325.381 106.427 324.742 111.646C324.72 111.821 324.646 111.961 324.519 112.058C324.392 112.154 324.235 112.193 324.056 112.171C323.001 112.04 321.947 111.909 320.893 111.778H320.888ZM328.701 112.736C328.522 112.714 328.382 112.639 328.281 112.513C328.181 112.386 328.141 112.237 328.163 112.058C328.793 106.834 329.419 101.615 330.049 96.3918C330.071 96.2168 330.145 96.0768 330.272 95.9762C330.399 95.8756 330.552 95.8406 330.727 95.8581C331.768 95.985 332.809 96.1074 333.85 96.2299C334.03 96.2518 334.165 96.3262 334.266 96.4487C334.367 96.5755 334.406 96.7243 334.384 96.9036C334.183 98.6317 333.977 100.36 333.776 102.088C334.638 102.188 335.495 102.289 336.357 102.39C338.435 102.63 339.997 103.269 341.047 104.314C342.101 105.342 342.526 106.773 342.324 108.61C342.202 109.722 341.839 110.675 341.239 111.471C340.64 112.268 339.813 112.845 338.763 113.199C337.731 113.554 336.502 113.65 335.08 113.488C332.954 113.243 330.828 112.994 328.706 112.74L328.701 112.736ZM332.871 109.831C333.702 109.927 334.533 110.023 335.364 110.12C336.064 110.198 336.62 110.054 337.027 109.673C337.451 109.284 337.7 108.755 337.775 108.099C337.858 107.377 337.731 106.817 337.398 106.419C337.066 106.021 336.554 105.784 335.872 105.706C335.04 105.609 334.214 105.513 333.382 105.417C333.212 106.887 333.037 108.357 332.866 109.831H332.871ZM344.849 114.577C344.669 114.556 344.529 114.486 344.424 114.359C344.324 114.232 344.28 114.083 344.302 113.904C344.87 108.676 345.439 103.444 346.008 98.2161C346.025 98.0411 346.1 97.9011 346.227 97.8005C346.353 97.6998 346.502 97.6605 346.682 97.678C347.723 97.7917 348.768 97.9011 349.809 98.0148C349.989 98.0323 350.129 98.1067 350.229 98.2292C350.33 98.356 350.374 98.5048 350.352 98.6798C350.146 100.618 349.941 102.56 349.739 104.498C350.234 104.551 350.733 104.603 351.227 104.656C352.636 102.792 354.04 100.928 355.44 99.0648C355.532 98.9423 355.658 98.8504 355.812 98.7848C355.969 98.7016 356.157 98.6754 356.385 98.6973C357.548 98.8154 358.712 98.9335 359.88 99.0473C360.042 99.0648 360.164 99.1304 360.252 99.2529C360.339 99.3579 360.379 99.476 360.366 99.6072C360.357 99.7035 360.313 99.7953 360.239 99.8872C358.493 102.188 356.739 104.485 354.976 106.777C356.367 109.595 357.767 112.412 359.176 115.225C359.219 115.295 359.233 115.387 359.224 115.496C359.206 115.658 359.136 115.789 359.014 115.89C358.904 115.977 358.769 116.012 358.607 115.995C357.395 115.877 356.183 115.754 354.972 115.632C354.709 115.606 354.521 115.527 354.399 115.404C354.294 115.282 354.215 115.172 354.158 115.085C353.099 112.902 352.045 110.719 350.995 108.536C350.439 108.479 349.888 108.418 349.333 108.361C349.123 110.365 348.908 112.368 348.698 114.372C348.681 114.547 348.606 114.687 348.48 114.787C348.353 114.888 348.2 114.927 348.02 114.91C346.966 114.796 345.912 114.687 344.853 114.569L344.849 114.577ZM368.455 117.18C366.945 117.045 365.659 116.677 364.592 116.091C363.524 115.505 362.724 114.696 362.199 113.668C361.674 112.626 361.446 111.366 361.525 109.897C361.577 109.201 361.634 108.51 361.7 107.814C361.766 107.123 361.844 106.423 361.927 105.714C362.133 104.271 362.592 103.089 363.301 102.166C364.032 101.23 364.968 100.561 366.114 100.167C367.26 99.7735 368.573 99.6422 370.043 99.7778C371.499 99.9091 372.755 100.277 373.814 100.872C374.885 101.471 375.695 102.298 376.242 103.352C376.788 104.389 377.025 105.636 376.95 107.092C376.92 107.805 376.876 108.505 376.819 109.201C376.758 109.892 376.683 110.588 376.591 111.279C376.399 112.74 375.953 113.939 375.244 114.866C374.54 115.781 373.608 116.428 372.449 116.813C371.294 117.198 369.959 117.32 368.45 117.185L368.455 117.18ZM368.774 113.698C369.64 113.777 370.366 113.584 370.952 113.116C371.552 112.648 371.919 111.856 372.055 110.728C372.151 110.023 372.226 109.354 372.282 108.724C372.339 108.094 372.379 107.442 372.409 106.76C372.444 105.999 372.352 105.373 372.134 104.883C371.932 104.376 371.626 103.991 371.206 103.728C370.786 103.461 370.296 103.304 369.728 103.251C369.176 103.199 368.669 103.269 368.214 103.453C367.755 103.636 367.374 103.96 367.068 104.419C366.766 104.861 366.56 105.461 366.46 106.217C366.381 106.891 366.311 107.543 366.25 108.173C366.193 108.803 366.136 109.472 366.088 110.181C366.031 111.314 366.25 112.163 366.74 112.727C367.23 113.291 367.912 113.615 368.774 113.694V113.698ZM383.512 121.643C383.346 121.63 383.206 121.56 383.084 121.437C382.979 121.315 382.93 121.166 382.948 120.986C383.11 118.97 383.276 116.953 383.438 114.936C383.451 114.774 383.521 114.643 383.644 114.538C383.784 114.42 383.937 114.368 384.098 114.381C384.247 114.394 384.392 114.403 384.54 114.416C384.947 114.451 385.297 114.289 385.59 113.939C385.883 113.589 386.133 113.09 386.351 112.443C386.57 111.778 386.745 110.99 386.885 110.076C387.025 109.144 387.139 108.129 387.222 107.035C387.349 105.399 387.48 103.759 387.607 102.123C387.62 101.943 387.69 101.803 387.813 101.698C387.953 101.598 388.101 101.55 388.263 101.563C392.069 101.86 395.88 102.145 399.686 102.411C399.865 102.425 400.005 102.49 400.11 102.613C400.215 102.735 400.263 102.884 400.25 103.059C399.961 107.215 399.668 111.375 399.379 115.531C399.764 115.557 400.149 115.584 400.534 115.61C400.714 115.623 400.858 115.697 400.963 115.833C401.086 115.956 401.142 116.096 401.129 116.257C400.989 118.274 400.854 120.295 400.714 122.312C400.701 122.474 400.626 122.605 400.486 122.71C400.364 122.833 400.211 122.885 400.027 122.872C398.968 122.798 397.905 122.723 396.846 122.649C396.667 122.636 396.523 122.561 396.418 122.421C396.313 122.299 396.265 122.159 396.273 121.997C396.339 121.07 396.405 120.142 396.475 119.21C393.513 119 390.556 118.777 387.594 118.545C387.52 119.473 387.45 120.4 387.375 121.328C387.362 121.49 387.296 121.621 387.17 121.726C387.043 121.844 386.89 121.901 386.71 121.883C385.643 121.8 384.575 121.713 383.504 121.63L383.512 121.643ZM389.764 114.827C391.505 114.958 393.246 115.089 394.987 115.216C395.21 112.15 395.433 109.083 395.656 106.016C394.3 105.916 392.944 105.815 391.588 105.714C391.531 106.449 391.479 107.184 391.422 107.919C391.291 109.63 391.085 111.051 390.805 112.18C390.525 113.296 390.175 114.179 389.764 114.827ZM414.966 120.422C414.787 120.413 414.643 120.348 414.533 120.225C414.424 120.107 414.376 119.958 414.389 119.779C414.634 115.619 414.879 111.458 415.124 107.298C413.61 107.21 412.101 107.119 410.587 107.022C410.544 107.757 410.496 108.492 410.452 109.227C410.329 111.183 410.128 112.841 409.848 114.201C409.586 115.549 409.179 116.642 408.632 117.482C408.103 118.309 407.381 118.895 406.471 119.241C405.574 119.587 404.437 119.735 403.059 119.674C402.892 119.661 402.752 119.595 402.625 119.473C402.503 119.333 402.446 119.175 402.459 119C402.516 118.152 402.573 117.303 402.63 116.459C402.652 116.104 402.87 115.916 403.286 115.894C403.75 115.846 404.148 115.636 404.485 115.269C404.822 114.901 405.11 114.403 405.346 113.768C405.587 113.121 405.775 112.346 405.915 111.445C406.055 110.531 406.165 109.516 406.235 108.4C406.34 106.76 406.449 105.124 406.554 103.483C406.567 103.304 406.633 103.164 406.751 103.059C406.886 102.954 407.044 102.906 407.223 102.919C411.178 103.177 415.137 103.413 419.092 103.636C419.271 103.645 419.411 103.711 419.521 103.829C419.626 103.947 419.678 104.096 419.665 104.275C419.372 109.525 419.079 114.779 418.786 120.028C418.777 120.208 418.711 120.348 418.589 120.457C418.466 120.562 418.318 120.61 418.138 120.601C417.079 120.54 416.021 120.479 414.962 120.418L414.966 120.422ZM432.22 121.328C432.054 121.319 431.91 121.258 431.783 121.135C431.674 121.017 431.621 120.868 431.63 120.689C431.713 118.952 431.792 117.215 431.875 115.474C430.785 115.422 429.701 115.369 428.611 115.317C427.417 115.26 426.376 114.98 425.483 114.481C424.591 113.983 423.908 113.304 423.427 112.456C422.963 111.603 422.767 110.614 422.823 109.481C422.88 108.396 423.187 107.451 423.733 106.637C424.298 105.811 425.081 105.176 426.078 104.743C427.076 104.31 428.283 104.126 429.692 104.196C431.849 104.301 434.005 104.402 436.166 104.498C436.328 104.507 436.464 104.568 436.573 104.686C436.7 104.804 436.757 104.953 436.748 105.132C436.521 110.387 436.289 115.641 436.061 120.895C436.053 121.074 435.983 121.214 435.847 121.323C435.729 121.433 435.585 121.481 435.423 121.476C434.355 121.428 433.288 121.38 432.22 121.332V121.328ZM422.369 120.838C422.22 120.829 422.102 120.776 422.005 120.671C421.914 120.553 421.87 120.431 421.879 120.3C421.883 120.221 421.914 120.133 421.966 120.037C423.327 118.003 424.678 115.969 426.03 113.93C427.391 114.241 428.751 114.551 430.112 114.862C428.974 116.712 427.833 118.558 426.686 120.405C426.581 120.562 426.45 120.706 426.293 120.846C426.14 120.969 425.912 121.021 425.619 121.008C424.534 120.951 423.453 120.895 422.369 120.838ZM429.416 111.935C430.287 111.979 431.162 112.018 432.037 112.062C432.107 110.605 432.172 109.153 432.242 107.696C431.372 107.657 430.501 107.613 429.631 107.574C428.948 107.539 428.41 107.731 428.012 108.151C427.618 108.554 427.404 109.078 427.369 109.722C427.334 110.382 427.487 110.911 427.828 111.301C428.169 111.69 428.699 111.905 429.416 111.94V111.935ZM451.771 122.343C450.209 122.29 448.879 121.997 447.781 121.455C446.701 120.912 445.865 120.147 445.279 119.153C444.71 118.16 444.417 116.944 444.408 115.501C444.417 114.836 444.435 114.127 444.465 113.366C444.496 112.604 444.531 111.878 444.57 111.183C444.688 109.778 445.078 108.602 445.729 107.657C446.386 106.694 447.274 105.981 448.394 105.517C449.518 105.041 450.83 104.826 452.34 104.874C453.411 104.909 454.396 105.08 455.297 105.382C456.198 105.666 456.981 106.082 457.651 106.616C458.32 107.136 458.832 107.766 459.182 108.505C459.554 109.227 459.733 110.041 459.724 110.951C459.737 111.095 459.685 111.218 459.567 111.31C459.466 111.406 459.344 111.45 459.195 111.445C458.092 111.415 456.994 111.384 455.892 111.349C455.682 111.345 455.52 111.296 455.406 111.213C455.297 111.113 455.201 110.942 455.126 110.693C454.925 109.827 454.566 109.236 454.055 108.912C453.56 108.571 452.939 108.392 452.191 108.365C451.299 108.335 450.581 108.562 450.043 109.048C449.505 109.516 449.194 110.321 449.102 111.467C449.006 112.793 448.958 114.149 448.962 115.544C448.971 116.695 449.229 117.53 449.737 118.047C450.244 118.55 450.949 118.817 451.85 118.847C452.602 118.873 453.25 118.729 453.783 118.423C454.317 118.117 454.702 117.544 454.943 116.708C455.017 116.467 455.109 116.31 455.227 116.231C455.363 116.139 455.533 116.096 455.748 116.1C456.85 116.135 457.957 116.166 459.059 116.196C459.208 116.196 459.326 116.253 459.422 116.354C459.536 116.454 459.58 116.577 459.558 116.721C459.519 117.627 459.291 118.436 458.876 119.153C458.477 119.853 457.931 120.453 457.226 120.951C456.522 121.433 455.708 121.796 454.776 122.045C453.849 122.277 452.843 122.373 451.758 122.338L451.771 122.343ZM473.566 122.644C473.386 122.644 473.238 122.583 473.124 122.465C473.01 122.351 472.958 122.203 472.958 122.023C473.032 117.859 473.106 113.689 473.181 109.525C471.667 109.498 470.154 109.468 468.64 109.437C468.622 110.172 468.609 110.911 468.592 111.646C468.552 113.606 468.417 115.269 468.194 116.638C467.984 117.994 467.625 119.101 467.113 119.967C466.619 120.816 465.923 121.428 465.026 121.813C464.147 122.198 463.014 122.391 461.636 122.386C461.47 122.386 461.325 122.321 461.198 122.207C461.072 122.076 461.01 121.918 461.015 121.739C461.037 120.89 461.059 120.042 461.08 119.193C461.089 118.838 461.299 118.642 461.71 118.602C462.17 118.532 462.563 118.309 462.883 117.929C463.202 117.548 463.469 117.036 463.683 116.393C463.898 115.732 464.055 114.954 464.156 114.048C464.261 113.129 464.326 112.11 464.353 110.995C464.392 109.354 464.431 107.709 464.471 106.069C464.471 105.889 464.536 105.745 464.65 105.636C464.781 105.526 464.939 105.474 465.118 105.478C469.077 105.57 473.041 105.649 477 105.706C477.179 105.706 477.324 105.767 477.437 105.881C477.551 105.994 477.604 106.143 477.599 106.318C477.521 111.576 477.446 116.835 477.367 122.098C477.367 122.277 477.306 122.421 477.188 122.531C477.07 122.644 476.921 122.697 476.742 122.693C475.683 122.675 474.62 122.658 473.561 122.64L473.566 122.644ZM479.817 122.741C479.686 122.741 479.564 122.688 479.45 122.592C479.354 122.478 479.305 122.356 479.305 122.225C479.305 122.146 479.314 122.071 479.332 122.006C481.331 116.835 483.308 111.664 485.264 106.484C485.316 106.305 485.413 106.152 485.561 106.025C485.723 105.881 485.946 105.811 486.222 105.811C487.425 105.819 488.624 105.828 489.827 105.837C490.102 105.837 490.312 105.911 490.457 106.06C490.618 106.191 490.723 106.344 490.772 106.524C492.644 111.73 494.538 116.931 496.454 122.128C496.489 122.194 496.502 122.264 496.502 122.347C496.502 122.478 496.446 122.596 496.332 122.71C496.231 122.806 496.109 122.854 495.96 122.854C494.949 122.854 493.939 122.854 492.928 122.846C492.683 122.846 492.495 122.789 492.364 122.675C492.25 122.544 492.176 122.43 492.145 122.334C491.83 121.507 491.511 120.68 491.196 119.853C489.009 119.845 486.817 119.827 484.629 119.805C484.31 120.628 483.991 121.45 483.671 122.273C483.636 122.369 483.562 122.483 483.448 122.609C483.33 122.723 483.133 122.776 482.853 122.771C481.843 122.763 480.832 122.749 479.822 122.736L479.817 122.741ZM485.666 116.323C487.189 116.336 488.707 116.349 490.229 116.358C489.472 114.219 488.72 112.075 487.967 109.936C487.202 112.066 486.436 114.197 485.662 116.327L485.666 116.323ZM499.062 122.859C498.882 122.859 498.734 122.802 498.62 122.688C498.506 122.574 498.445 122.43 498.445 122.251C498.445 116.992 498.445 111.73 498.445 106.471C498.445 106.292 498.502 106.147 498.615 106.034C498.729 105.92 498.874 105.863 499.053 105.863C501.529 105.863 504.005 105.854 506.481 105.837C507.877 105.828 509.023 106.016 509.92 106.397C510.817 106.777 511.481 107.329 511.91 108.055C512.356 108.763 512.584 109.608 512.593 110.597C512.597 111.178 512.488 111.699 512.265 112.154C512.059 112.591 511.792 112.959 511.468 113.252C511.162 113.545 510.869 113.759 510.593 113.891C511.215 114.175 511.77 114.647 512.247 115.308C512.746 115.969 513 116.743 513.008 117.631C513.021 118.698 512.785 119.626 512.3 120.405C511.831 121.17 511.132 121.77 510.2 122.198C509.285 122.609 508.152 122.819 506.805 122.828C504.224 122.846 501.647 122.854 499.066 122.854L499.062 122.859ZM502.846 119.696C503.992 119.696 505.143 119.687 506.289 119.678C506.993 119.678 507.527 119.468 507.881 119.062C508.24 118.655 508.415 118.191 508.41 117.675C508.41 117.11 508.214 116.634 507.837 116.249C507.474 115.864 506.949 115.671 506.262 115.676C505.116 115.68 503.974 115.689 502.828 115.693C502.833 117.027 502.837 118.362 502.841 119.7L502.846 119.696ZM502.824 112.609C503.891 112.609 504.963 112.6 506.031 112.596C506.7 112.596 507.194 112.421 507.518 112.075C507.859 111.734 508.025 111.296 508.021 110.763C508.021 110.247 507.842 109.827 507.5 109.503C507.172 109.166 506.674 109 506.009 109.004C504.941 109.008 503.878 109.013 502.811 109.017C502.811 110.216 502.82 111.415 502.824 112.609ZM525.831 122.592C525.664 122.592 525.516 122.539 525.384 122.43C525.266 122.321 525.209 122.176 525.205 121.997C525.17 120.256 525.139 118.519 525.104 116.778C524.015 116.8 522.926 116.817 521.841 116.835C520.647 116.857 519.588 116.642 518.665 116.205C517.742 115.763 517.016 115.137 516.482 114.315C515.966 113.497 515.699 112.521 515.686 111.388C515.672 110.303 515.913 109.337 516.407 108.492C516.915 107.626 517.654 106.948 518.621 106.445C519.588 105.946 520.778 105.684 522.191 105.662C524.352 105.627 526.509 105.583 528.67 105.535C528.832 105.535 528.972 105.583 529.085 105.697C529.217 105.806 529.287 105.951 529.291 106.13C529.409 111.388 529.523 116.647 529.641 121.905C529.641 122.085 529.584 122.229 529.453 122.347C529.339 122.461 529.203 122.522 529.037 122.526C527.97 122.548 526.902 122.57 525.835 122.592H525.831ZM515.97 122.749C515.821 122.749 515.699 122.706 515.598 122.609C515.497 122.496 515.449 122.378 515.445 122.246C515.445 122.163 515.467 122.076 515.515 121.98C516.736 119.862 517.956 117.74 519.163 115.619C520.542 115.842 521.92 116.061 523.298 116.279C522.283 118.2 521.268 120.116 520.244 122.036C520.148 122.198 520.025 122.356 519.881 122.504C519.737 122.636 519.513 122.706 519.216 122.71C518.131 122.728 517.046 122.741 515.961 122.754L515.97 122.749ZM522.418 113.405C523.293 113.392 524.164 113.374 525.039 113.357C525.012 111.9 524.982 110.443 524.956 108.987C524.085 109.004 523.214 109.017 522.344 109.035C521.661 109.048 521.136 109.275 520.769 109.717C520.402 110.146 520.222 110.68 520.231 111.327C520.24 111.992 520.428 112.504 520.795 112.871C521.158 113.239 521.701 113.414 522.418 113.401V113.405ZM533.696 122.417C533.517 122.421 533.368 122.369 533.25 122.259C533.132 122.15 533.071 122.006 533.066 121.826C532.939 116.568 532.808 111.31 532.681 106.051C532.681 105.872 532.729 105.727 532.839 105.609C532.948 105.491 533.093 105.434 533.272 105.43C534.318 105.404 535.367 105.377 536.413 105.347C536.592 105.342 536.741 105.395 536.855 105.504C536.973 105.614 537.034 105.758 537.039 105.937C537.091 107.889 537.148 109.835 537.2 111.786C539.213 111.73 541.23 111.673 543.242 111.607C543.181 109.656 543.119 107.709 543.054 105.758C543.049 105.579 543.102 105.434 543.211 105.316C543.321 105.198 543.465 105.137 543.644 105.132C544.69 105.097 545.74 105.062 546.785 105.027C546.965 105.023 547.114 105.071 547.232 105.181C547.35 105.29 547.411 105.434 547.415 105.609C547.599 110.868 547.783 116.122 547.967 121.38C547.971 121.56 547.918 121.704 547.809 121.822C547.7 121.94 547.551 122.001 547.372 122.006C546.313 122.041 545.254 122.076 544.191 122.111C544.012 122.115 543.859 122.063 543.741 121.953C543.623 121.844 543.561 121.7 543.553 121.52C543.487 119.508 543.426 117.491 543.36 115.479C541.339 115.544 539.322 115.601 537.301 115.658C537.358 117.67 537.41 119.687 537.467 121.7C537.472 121.879 537.419 122.023 537.305 122.141C537.192 122.259 537.047 122.316 536.868 122.325C535.809 122.356 534.751 122.382 533.688 122.408L533.696 122.417ZM551.064 123.699C550.933 123.703 550.815 123.651 550.714 123.541C550.613 123.449 550.565 123.327 550.578 123.183C550.775 121.59 550.972 119.993 551.165 118.401C551.191 118.191 551.265 117.999 551.388 117.832C551.528 117.649 551.738 117.552 552.018 117.539C552.976 117.504 553.934 117.465 554.892 117.425C555.023 117.421 555.132 117.465 555.216 117.557C555.316 117.649 555.373 117.754 555.377 117.867C555.377 117.964 555.369 118.064 555.338 118.16C554.778 119.744 554.218 121.332 553.654 122.916C553.592 123.082 553.501 123.239 553.378 123.388C553.251 123.537 553.059 123.62 552.796 123.629C552.219 123.651 551.646 123.673 551.068 123.694L551.064 123.699ZM568.637 121.113C568.475 121.122 568.322 121.074 568.187 120.965C568.068 120.855 568.003 120.715 567.994 120.536C567.806 116.69 567.618 112.841 567.425 108.995C566.354 109.901 565.277 110.802 564.201 111.703C564.061 111.821 563.908 111.87 563.742 111.848C563.593 111.821 563.457 111.738 563.339 111.598C562.828 110.999 562.32 110.4 561.813 109.796C561.708 109.656 561.659 109.503 561.668 109.341C561.694 109.162 561.786 109.022 561.944 108.917C563.751 107.394 565.553 105.867 567.347 104.336C567.443 104.266 567.526 104.223 567.609 104.201C567.705 104.166 567.81 104.144 567.924 104.135C568.939 104.087 569.95 104.034 570.965 103.982C571.126 103.973 571.266 104.021 571.389 104.131C571.524 104.236 571.594 104.38 571.608 104.555C571.883 109.809 572.154 115.059 572.43 120.313C572.439 120.492 572.382 120.641 572.255 120.759C572.146 120.877 572.01 120.943 571.844 120.951C570.776 121.008 569.709 121.061 568.642 121.113H568.637ZM581.634 120.409C581.468 120.418 581.319 120.37 581.179 120.265C581.057 120.16 580.991 120.015 580.983 119.84C580.676 114.591 580.37 109.337 580.064 104.087C580.055 103.908 580.103 103.759 580.208 103.641C580.331 103.518 580.475 103.457 580.637 103.444C581.512 103.391 582.387 103.339 583.262 103.286C583.52 103.269 583.721 103.33 583.857 103.47C584.01 103.593 584.106 103.689 584.146 103.768C585.729 106.231 587.322 108.694 588.918 111.152C590.191 108.51 591.451 105.863 592.707 103.216C592.751 103.133 592.825 103.024 592.93 102.884C593.048 102.731 593.249 102.643 593.525 102.626C594.391 102.569 595.257 102.508 596.128 102.446C596.307 102.433 596.456 102.481 596.578 102.586C596.714 102.691 596.793 102.831 596.802 103.011C597.169 108.256 597.537 113.506 597.908 118.751C597.922 118.93 597.865 119.079 597.742 119.202C597.637 119.324 597.493 119.39 597.313 119.403C596.338 119.473 595.362 119.538 594.387 119.604C594.207 119.617 594.046 119.569 593.91 119.464C593.787 119.359 593.722 119.219 593.709 119.04C593.503 116.012 593.302 112.985 593.096 109.958C592.291 111.708 591.478 113.458 590.664 115.203C590.607 115.352 590.52 115.487 590.393 115.61C590.27 115.732 590.091 115.798 589.863 115.816C589.439 115.842 589.015 115.872 588.586 115.899C588.358 115.912 588.175 115.868 588.035 115.763C587.895 115.658 587.781 115.536 587.693 115.396C586.661 113.768 585.633 112.136 584.609 110.505C584.793 113.532 584.981 116.564 585.165 119.591C585.174 119.77 585.125 119.919 585.02 120.037C584.911 120.155 584.767 120.221 584.587 120.234C583.603 120.295 582.619 120.352 581.634 120.409ZM612.909 118.226C612.73 118.239 612.577 118.195 612.454 118.09C612.332 117.985 612.262 117.845 612.249 117.67C611.916 113.514 611.579 109.363 611.247 105.207C609.738 105.329 608.224 105.447 606.715 105.566C606.772 106.301 606.828 107.035 606.885 107.766C607.034 109.717 607.065 111.388 606.977 112.775C606.903 114.144 606.653 115.282 606.229 116.192C605.818 117.084 605.188 117.762 604.335 118.235C603.495 118.703 602.388 119.005 601.014 119.136C600.853 119.149 600.699 119.101 600.559 119C600.419 118.882 600.341 118.733 600.328 118.554C600.266 117.705 600.205 116.861 600.144 116.012C600.118 115.658 600.31 115.439 600.713 115.365C601.163 115.251 601.531 114.989 601.815 114.577C602.099 114.166 602.314 113.633 602.462 112.972C602.611 112.294 602.69 111.502 602.703 110.592C602.716 109.665 602.681 108.645 602.598 107.534C602.476 105.898 602.353 104.258 602.235 102.621C602.222 102.442 602.266 102.293 602.371 102.175C602.493 102.053 602.642 101.983 602.821 101.97C606.776 101.676 610.726 101.361 614.677 101.033C614.856 101.02 615.005 101.064 615.127 101.165C615.25 101.27 615.32 101.41 615.333 101.585C615.77 106.825 616.208 112.066 616.645 117.307C616.658 117.487 616.615 117.635 616.51 117.758C616.405 117.88 616.26 117.95 616.081 117.964C615.022 118.051 613.968 118.139 612.909 118.222V118.226ZM620.744 117.57C620.565 117.587 620.412 117.544 620.289 117.439C620.167 117.334 620.097 117.194 620.079 117.019C619.629 111.778 619.178 106.537 618.728 101.296C618.71 101.116 618.758 100.968 618.859 100.845C618.964 100.723 619.104 100.653 619.283 100.64C620.329 100.548 621.37 100.456 622.416 100.364C622.595 100.347 622.744 100.39 622.866 100.495C622.989 100.6 623.059 100.736 623.076 100.915C623.251 102.858 623.422 104.8 623.597 106.742C625.605 106.563 627.613 106.379 629.621 106.191C629.441 104.249 629.258 102.306 629.078 100.364C629.061 100.185 629.104 100.036 629.209 99.9134C629.314 99.791 629.454 99.721 629.629 99.7035C630.675 99.6072 631.716 99.5066 632.762 99.406C632.941 99.3885 633.09 99.4322 633.212 99.5328C633.335 99.6335 633.409 99.7735 633.422 99.9528C633.93 105.189 634.433 110.422 634.94 115.658C634.958 115.837 634.914 115.986 634.809 116.109C634.704 116.231 634.564 116.301 634.385 116.319C633.33 116.419 632.272 116.52 631.217 116.62C631.038 116.638 630.885 116.594 630.758 116.494C630.631 116.393 630.561 116.253 630.544 116.074C630.356 114.066 630.168 112.062 629.984 110.054C627.971 110.242 625.955 110.426 623.942 110.605C624.122 112.613 624.301 114.621 624.48 116.625C624.498 116.804 624.45 116.953 624.345 117.075C624.24 117.198 624.1 117.268 623.916 117.285C622.857 117.377 621.803 117.474 620.744 117.561V117.57ZM648.06 114.945C647.881 114.962 647.728 114.923 647.601 114.822C647.474 114.722 647.404 114.582 647.382 114.407C646.945 110.238 646.503 106.069 646.065 101.9C644.622 102.053 643.178 102.201 641.734 102.35C641.555 102.368 641.406 102.328 641.279 102.228C641.152 102.11 641.082 101.97 641.065 101.812C640.977 100.95 640.89 100.088 640.802 99.2266C640.785 99.0516 640.824 98.8985 640.929 98.776C641.03 98.6535 641.17 98.5792 641.349 98.5617C645.698 98.1154 650.051 97.6517 654.395 97.1661C654.574 97.1443 654.723 97.188 654.85 97.2842C654.977 97.3849 655.047 97.5205 655.068 97.6998C655.165 98.5617 655.261 99.4191 655.357 100.281C655.375 100.443 655.335 100.592 655.235 100.736C655.134 100.863 654.994 100.933 654.815 100.955C653.371 101.116 651.932 101.274 650.488 101.431C650.939 105.601 651.394 109.765 651.844 113.934C651.862 114.109 651.822 114.263 651.722 114.389C651.621 114.516 651.477 114.586 651.297 114.608C650.217 114.726 649.136 114.84 648.056 114.954L648.06 114.945ZM665.699 113.213C664.408 113.366 663.21 113.326 662.107 113.094C661.018 112.845 660.108 112.412 659.378 111.795C658.647 111.178 658.166 110.378 657.938 109.393C657.908 109.249 657.934 109.127 658.021 109.017C658.126 108.908 658.249 108.847 658.398 108.829C659.456 108.707 660.515 108.589 661.574 108.466C661.771 108.444 661.919 108.457 662.024 108.51C662.129 108.562 662.239 108.663 662.357 108.812C662.562 109.162 662.89 109.433 663.345 109.625C663.813 109.813 664.43 109.866 665.2 109.774C666.145 109.66 666.845 109.293 667.3 108.667C667.773 108.042 667.943 107.21 667.821 106.182C667.803 106.056 667.79 105.924 667.773 105.797C666.193 105.986 664.618 106.174 663.039 106.362C662.86 106.384 662.707 106.336 662.575 106.222C662.449 106.108 662.37 105.959 662.352 105.784C662.278 105.141 662.204 104.498 662.129 103.855C662.107 103.68 662.147 103.518 662.247 103.378C662.348 103.238 662.484 103.155 662.663 103.133C664.238 102.949 665.813 102.761 667.388 102.573C667.375 102.46 667.361 102.35 667.348 102.236C667.213 101.112 666.854 100.325 666.276 99.8697C665.695 99.4016 664.925 99.2266 663.971 99.336C663.21 99.4279 662.628 99.6247 662.221 99.9353C661.832 100.242 661.6 100.578 661.526 100.946C661.447 101.116 661.372 101.239 661.298 101.313C661.224 101.388 661.092 101.436 660.896 101.458C659.832 101.58 658.769 101.703 657.711 101.825C657.566 101.843 657.431 101.808 657.304 101.725C657.177 101.624 657.116 101.501 657.116 101.357C657.129 100.298 657.418 99.3841 657.986 98.6185C658.555 97.853 659.329 97.2449 660.305 96.7855C661.281 96.3131 662.4 96.0024 663.66 95.8537C665.082 95.6875 666.364 95.7837 667.506 96.1512C668.661 96.5012 669.619 97.1399 670.376 98.0761C671.146 98.9904 671.653 100.233 671.898 101.803C671.977 102.298 672.038 102.731 672.082 103.103C672.143 103.453 672.187 103.816 672.217 104.188C672.261 104.542 672.305 104.966 672.353 105.469C672.502 107.066 672.322 108.409 671.81 109.498C671.299 110.588 670.524 111.441 669.488 112.058C668.451 112.657 667.195 113.042 665.721 113.217L665.699 113.213ZM676.688 111.625C676.509 111.646 676.356 111.611 676.225 111.511C676.098 111.415 676.019 111.275 675.997 111.1C675.341 105.881 674.685 100.662 674.024 95.4425C674.002 95.2675 674.042 95.1144 674.138 94.9875C674.238 94.8606 674.374 94.7863 674.553 94.7644C675.595 94.6332 676.636 94.5019 677.677 94.3663C677.856 94.3444 678.005 94.3794 678.136 94.48C678.263 94.5763 678.338 94.7163 678.359 94.8913C678.609 96.8249 678.858 98.7585 679.108 100.692C681.111 100.434 683.11 100.172 685.114 99.9047C684.856 97.9711 684.598 96.0374 684.34 94.1038C684.318 93.9288 684.353 93.7757 684.453 93.6489C684.55 93.522 684.69 93.4476 684.865 93.4214C685.906 93.2814 686.947 93.1414 687.984 93.0014C688.163 92.9751 688.312 93.0145 688.443 93.1108C688.57 93.207 688.649 93.3426 688.671 93.522C689.384 98.7323 690.092 103.943 690.805 109.157C690.827 109.332 690.792 109.485 690.692 109.612C690.591 109.739 690.456 109.818 690.276 109.84C689.222 109.984 688.172 110.124 687.118 110.264C686.938 110.286 686.785 110.251 686.654 110.155C686.523 110.058 686.448 109.923 686.426 109.743C686.16 107.744 685.893 105.749 685.626 103.75C683.618 104.017 681.614 104.279 679.606 104.542C679.864 106.541 680.122 108.54 680.381 110.535C680.402 110.71 680.363 110.863 680.267 110.99C680.166 111.117 680.026 111.191 679.847 111.218C678.793 111.353 677.738 111.489 676.688 111.62V111.625ZM694.935 109.201C694.756 109.227 694.603 109.192 694.471 109.096C694.34 109 694.266 108.864 694.24 108.689C693.513 103.479 692.792 98.2686 692.065 93.0583C692.039 92.8833 692.079 92.7302 692.175 92.6033C692.271 92.4764 692.411 92.3977 692.586 92.3758C696.06 91.8902 699.533 91.3915 703.002 90.884C703.182 90.8578 703.335 90.8928 703.462 90.989C703.593 91.0853 703.667 91.2209 703.693 91.3959C703.812 92.1964 703.93 92.997 704.048 93.7976C704.074 93.9726 704.039 94.1344 703.947 94.2788C703.851 94.4057 703.715 94.4844 703.536 94.5107C701.3 94.8388 699.061 95.1625 696.825 95.4819C697.42 99.6816 698.019 103.877 698.614 108.077C698.641 108.252 698.601 108.405 698.505 108.532C698.409 108.659 698.269 108.737 698.089 108.763C697.039 108.912 695.985 109.061 694.935 109.205V109.201ZM708.742 107.206C708.562 107.232 708.409 107.197 708.278 107.105C708.147 107.009 708.068 106.874 708.042 106.699C707.268 101.497 706.489 96.2956 705.715 91.094C705.688 90.919 705.723 90.7659 705.82 90.6347C705.916 90.5078 706.051 90.4291 706.231 90.4028C709.993 89.8385 713.751 89.261 717.509 88.6704C717.684 88.6442 717.841 88.6748 717.968 88.771C718.095 88.8673 718.174 88.9985 718.2 89.1779C718.318 89.9303 718.436 90.6784 718.559 91.4309C718.585 91.6059 718.554 91.759 718.462 91.8902C718.366 92.0215 718.226 92.1002 718.051 92.1264C715.479 92.5333 712.907 92.9314 710.33 93.3207C710.496 94.4013 710.658 95.4819 710.824 96.5624C713.226 96.1949 715.628 95.8231 718.029 95.4469C718.204 95.4206 718.362 95.46 718.493 95.5694C718.624 95.6612 718.703 95.7968 718.734 95.9762C718.843 96.6718 718.952 97.3674 719.062 98.0629C719.088 98.2248 719.053 98.3735 718.961 98.5223C718.869 98.6535 718.729 98.7323 718.554 98.7585C716.148 99.1391 713.738 99.511 711.332 99.8784C711.502 100.99 711.669 102.101 711.839 103.216C714.495 102.814 717.154 102.398 719.81 101.983C719.989 101.952 720.142 101.987 720.274 102.079C720.405 102.171 720.484 102.306 720.514 102.481L720.873 104.734C720.899 104.909 720.864 105.062 720.768 105.194C720.672 105.325 720.536 105.404 720.352 105.43C716.485 106.042 712.618 106.637 708.746 107.215L708.742 107.206Z" fill="#FFDC00"/>
</g>
<defs>
<clipPath id="clip0_208_10066">
<rect width="866" height="500" fill="white" transform="translate(0.14209)"/>
</clipPath>
</defs>
</svg>
