<svg width="1200" height="501" viewBox="0 0 1200 501" fill="none" xmlns="http://www.w3.org/2000/svg">
<g clip-path="url(#clip0_350_687)">
<rect x="7.22412" y="0.753418" width="1185.55" height="504.347" fill="#0F2F7E"/>
<rect y="0.589844" width="1200" height="15.7527" fill="#0C276A"/>
<rect x="52.292" y="39.0237" width="37.56" height="83.063" fill="#2D61DA" stroke="#162B6E" stroke-width="2.78702"/>
<rect x="89.9512" y="39.0237" width="37.6591" height="83.063" fill="#2D61DA" stroke="#162B6E" stroke-width="2.78702"/>
<rect x="127.411" y="39.0237" width="37.6591" height="83.063" fill="#2D61DA" stroke="#162B6E" stroke-width="2.78702"/>
<rect x="44.3262" y="114.73" width="128.911" height="17.0869" fill="#162B6E" stroke="#162B6E" stroke-width="1.60559"/>
<rect x="64.6313" y="80.5555" width="12.5637" height="42.7174" stroke="#162B6E" stroke-width="1.60559"/>
<rect x="52.3926" y="80.5555" width="12.5637" height="42.7174" stroke="#162B6E" stroke-width="1.60559"/>
<rect x="77.2012" y="80.5557" width="12.5637" height="42.7174" stroke="#162B6E" stroke-width="1.60559"/>
<rect x="89.7622" y="80.5557" width="12.5637" height="42.7174" stroke="#162B6E" stroke-width="1.60559"/>
<rect x="102.325" y="80.5553" width="12.5637" height="42.7174" stroke="#162B6E" stroke-width="1.60559"/>
<rect x="114.896" y="80.5553" width="12.5637" height="42.7174" stroke="#162B6E" stroke-width="1.60559"/>
<rect x="127.466" y="80.5553" width="12.5637" height="42.7174" stroke="#162B6E" stroke-width="1.60559"/>
<rect x="140.038" y="80.5553" width="12.5637" height="42.7174" stroke="#162B6E" stroke-width="1.60559"/>
<rect x="152.606" y="80.5553" width="12.5637" height="42.7174" stroke="#162B6E" stroke-width="1.60559"/>
<rect x="52.292" y="148.017" width="37.56" height="83.063" fill="#2D61DA" stroke="#162B6E" stroke-width="2.78702"/>
<rect x="89.9512" y="148.017" width="37.6591" height="83.063" fill="#2D61DA" stroke="#162B6E" stroke-width="2.78702"/>
<rect x="127.411" y="148.017" width="37.6591" height="83.063" fill="#2D61DA" stroke="#162B6E" stroke-width="2.78702"/>
<rect x="44.3262" y="223.724" width="128.911" height="17.0869" fill="#162B6E" stroke="#162B6E" stroke-width="1.60559"/>
<rect x="64.6313" y="189.549" width="12.5637" height="42.7174" stroke="#162B6E" stroke-width="1.60559"/>
<rect x="52.3926" y="189.549" width="12.5637" height="42.7174" stroke="#162B6E" stroke-width="1.60559"/>
<rect x="77.2012" y="189.549" width="12.5637" height="42.7174" stroke="#162B6E" stroke-width="1.60559"/>
<rect x="89.7622" y="189.549" width="12.5637" height="42.7174" stroke="#162B6E" stroke-width="1.60559"/>
<rect x="102.325" y="189.549" width="12.5637" height="42.7174" stroke="#162B6E" stroke-width="1.60559"/>
<rect x="114.896" y="189.549" width="12.5637" height="42.7174" stroke="#162B6E" stroke-width="1.60559"/>
<rect x="127.466" y="189.549" width="12.5637" height="42.7174" stroke="#162B6E" stroke-width="1.60559"/>
<rect x="140.038" y="189.549" width="12.5637" height="42.7174" stroke="#162B6E" stroke-width="1.60559"/>
<rect x="152.606" y="189.549" width="12.5637" height="42.7174" stroke="#162B6E" stroke-width="1.60559"/>
<rect x="52.292" y="264.82" width="37.56" height="83.063" fill="#2D61DA" stroke="#162B6E" stroke-width="2.78702"/>
<rect x="89.9512" y="264.82" width="37.6591" height="83.063" fill="#2D61DA" stroke="#162B6E" stroke-width="2.78702"/>
<rect x="127.411" y="264.82" width="37.6591" height="83.063" fill="#2D61DA" stroke="#162B6E" stroke-width="2.78702"/>
<rect x="44.3262" y="340.526" width="128.911" height="17.0869" fill="#162B6E" stroke="#162B6E" stroke-width="1.60559"/>
<rect x="64.6313" y="306.352" width="12.5637" height="42.7174" stroke="#162B6E" stroke-width="1.60559"/>
<rect x="52.3926" y="306.352" width="12.5637" height="42.7174" stroke="#162B6E" stroke-width="1.60559"/>
<rect x="77.2012" y="306.352" width="12.5637" height="42.7174" stroke="#162B6E" stroke-width="1.60559"/>
<rect x="89.7622" y="306.352" width="12.5637" height="42.7174" stroke="#162B6E" stroke-width="1.60559"/>
<rect x="102.325" y="306.351" width="12.5637" height="42.7174" stroke="#162B6E" stroke-width="1.60559"/>
<rect x="114.896" y="306.351" width="12.5637" height="42.7174" stroke="#162B6E" stroke-width="1.60559"/>
<rect x="127.466" y="306.351" width="12.5637" height="42.7174" stroke="#162B6E" stroke-width="1.60559"/>
<rect x="140.038" y="306.351" width="12.5637" height="42.7174" stroke="#162B6E" stroke-width="1.60559"/>
<rect x="152.606" y="306.351" width="12.5637" height="42.7174" stroke="#162B6E" stroke-width="1.60559"/>
<rect x="248.935" y="39.0237" width="37.56" height="83.063" fill="#2D61DA" stroke="#162B6E" stroke-width="2.78702"/>
<rect x="286.594" y="39.0237" width="37.6591" height="83.063" fill="#2D61DA" stroke="#162B6E" stroke-width="2.78702"/>
<rect x="324.053" y="39.0237" width="37.6591" height="83.063" fill="#2D61DA" stroke="#162B6E" stroke-width="2.78702"/>
<rect x="240.969" y="114.73" width="128.911" height="17.0869" fill="#162B6E" stroke="#162B6E" stroke-width="1.60559"/>
<rect x="261.274" y="80.5555" width="12.5637" height="42.7174" stroke="#162B6E" stroke-width="1.60559"/>
<rect x="249.035" y="80.5555" width="12.5637" height="42.7174" stroke="#162B6E" stroke-width="1.60559"/>
<rect x="273.844" y="80.5557" width="12.5637" height="42.7174" stroke="#162B6E" stroke-width="1.60559"/>
<rect x="286.404" y="80.5557" width="12.5637" height="42.7174" stroke="#162B6E" stroke-width="1.60559"/>
<rect x="298.968" y="80.5553" width="12.5637" height="42.7174" stroke="#162B6E" stroke-width="1.60559"/>
<rect x="311.539" y="80.5553" width="12.5637" height="42.7174" stroke="#162B6E" stroke-width="1.60559"/>
<rect x="324.109" y="80.5553" width="12.5637" height="42.7174" stroke="#162B6E" stroke-width="1.60559"/>
<rect x="336.68" y="80.5553" width="12.5637" height="42.7174" stroke="#162B6E" stroke-width="1.60559"/>
<rect x="349.249" y="80.5553" width="12.5637" height="42.7174" stroke="#162B6E" stroke-width="1.60559"/>
<rect x="248.935" y="148.017" width="37.56" height="83.063" fill="#2D61DA" stroke="#162B6E" stroke-width="2.78702"/>
<rect x="286.594" y="148.017" width="37.6591" height="83.063" fill="#2D61DA" stroke="#162B6E" stroke-width="2.78702"/>
<rect x="324.053" y="148.017" width="37.6591" height="83.063" fill="#2D61DA" stroke="#162B6E" stroke-width="2.78702"/>
<rect x="240.969" y="223.724" width="128.911" height="17.0869" fill="#162B6E" stroke="#162B6E" stroke-width="1.60559"/>
<rect x="261.274" y="189.549" width="12.5637" height="42.7174" stroke="#162B6E" stroke-width="1.60559"/>
<rect x="249.035" y="189.549" width="12.5637" height="42.7174" stroke="#162B6E" stroke-width="1.60559"/>
<rect x="273.844" y="189.549" width="12.5637" height="42.7174" stroke="#162B6E" stroke-width="1.60559"/>
<rect x="286.404" y="189.549" width="12.5637" height="42.7174" stroke="#162B6E" stroke-width="1.60559"/>
<rect x="298.968" y="189.549" width="12.5637" height="42.7174" stroke="#162B6E" stroke-width="1.60559"/>
<rect x="311.539" y="189.549" width="12.5637" height="42.7174" stroke="#162B6E" stroke-width="1.60559"/>
<rect x="324.109" y="189.549" width="12.5637" height="42.7174" stroke="#162B6E" stroke-width="1.60559"/>
<rect x="336.68" y="189.549" width="12.5637" height="42.7174" stroke="#162B6E" stroke-width="1.60559"/>
<rect x="349.249" y="189.549" width="12.5637" height="42.7174" stroke="#162B6E" stroke-width="1.60559"/>
<rect x="248.935" y="264.82" width="37.56" height="83.063" fill="#FFDC00" stroke="#162B6E" stroke-width="2.78702"/>
<rect x="286.594" y="264.82" width="37.6591" height="83.063" fill="#2D61DA" stroke="#162B6E" stroke-width="2.78702"/>
<rect x="324.053" y="264.82" width="37.6591" height="83.063" fill="#2D61DA" stroke="#162B6E" stroke-width="2.78702"/>
<rect x="240.969" y="340.526" width="128.911" height="17.0869" fill="#162B6E" stroke="#162B6E" stroke-width="1.60559"/>
<rect x="261.274" y="306.352" width="12.5637" height="42.7174" stroke="#162B6E" stroke-width="1.60559"/>
<rect x="249.035" y="306.352" width="12.5637" height="42.7174" stroke="#162B6E" stroke-width="1.60559"/>
<rect x="273.844" y="306.352" width="12.5637" height="42.7174" stroke="#162B6E" stroke-width="1.60559"/>
<rect x="286.404" y="306.352" width="12.5637" height="42.7174" stroke="#162B6E" stroke-width="1.60559"/>
<rect x="298.968" y="306.351" width="12.5637" height="42.7174" stroke="#162B6E" stroke-width="1.60559"/>
<rect x="311.539" y="306.351" width="12.5637" height="42.7174" stroke="#162B6E" stroke-width="1.60559"/>
<rect x="324.109" y="306.351" width="12.5637" height="42.7174" stroke="#162B6E" stroke-width="1.60559"/>
<rect x="336.68" y="306.351" width="12.5637" height="42.7174" stroke="#162B6E" stroke-width="1.60559"/>
<rect x="349.249" y="306.351" width="12.5637" height="42.7174" stroke="#162B6E" stroke-width="1.60559"/>
<rect x="445.58" y="39.0237" width="37.56" height="83.063" fill="#2D61DA" stroke="#162B6E" stroke-width="2.78702"/>
<rect x="483.24" y="39.0237" width="37.6591" height="83.063" fill="#2D61DA" stroke="#162B6E" stroke-width="2.78702"/>
<rect x="520.698" y="39.0237" width="37.6591" height="83.063" fill="#FFDC00" stroke="#162B6E" stroke-width="2.78702"/>
<rect x="437.614" y="114.73" width="128.911" height="17.0869" fill="#162B6E" stroke="#162B6E" stroke-width="1.60559"/>
<rect x="457.919" y="80.5555" width="12.5637" height="42.7174" stroke="#162B6E" stroke-width="1.60559"/>
<rect x="445.681" y="80.5555" width="12.5637" height="42.7174" stroke="#162B6E" stroke-width="1.60559"/>
<rect x="470.49" y="80.5555" width="12.5637" height="42.7174" stroke="#162B6E" stroke-width="1.60559"/>
<rect x="483.05" y="80.5555" width="12.5637" height="42.7174" stroke="#162B6E" stroke-width="1.60559"/>
<rect x="495.613" y="80.5553" width="12.5637" height="42.7174" stroke="#162B6E" stroke-width="1.60559"/>
<rect x="508.184" y="80.5553" width="12.5637" height="42.7174" stroke="#162B6E" stroke-width="1.60559"/>
<rect x="520.755" y="80.5553" width="12.5637" height="42.7174" stroke="#162B6E" stroke-width="1.60559"/>
<rect x="533.326" y="80.5553" width="12.5637" height="42.7174" stroke="#162B6E" stroke-width="1.60559"/>
<rect x="545.895" y="80.5553" width="12.5637" height="42.7174" stroke="#162B6E" stroke-width="1.60559"/>
<rect x="445.58" y="148.017" width="37.56" height="83.063" fill="#2D61DA" stroke="#162B6E" stroke-width="2.78702"/>
<rect x="483.24" y="148.017" width="37.6591" height="83.063" fill="#2D61DA" stroke="#162B6E" stroke-width="2.78702"/>
<rect x="520.698" y="148.017" width="37.6591" height="83.063" fill="#2D61DA" stroke="#162B6E" stroke-width="2.78702"/>
<rect x="437.614" y="223.724" width="128.911" height="17.0869" fill="#162B6E" stroke="#162B6E" stroke-width="1.60559"/>
<rect x="457.919" y="189.549" width="12.5637" height="42.7174" stroke="#162B6E" stroke-width="1.60559"/>
<rect x="445.681" y="189.549" width="12.5637" height="42.7174" stroke="#162B6E" stroke-width="1.60559"/>
<rect x="470.49" y="189.549" width="12.5637" height="42.7174" stroke="#162B6E" stroke-width="1.60559"/>
<rect x="483.05" y="189.549" width="12.5637" height="42.7174" stroke="#162B6E" stroke-width="1.60559"/>
<rect x="495.613" y="189.549" width="12.5637" height="42.7174" stroke="#162B6E" stroke-width="1.60559"/>
<rect x="508.184" y="189.549" width="12.5637" height="42.7174" stroke="#162B6E" stroke-width="1.60559"/>
<rect x="520.755" y="189.549" width="12.5637" height="42.7174" stroke="#162B6E" stroke-width="1.60559"/>
<rect x="533.326" y="189.549" width="12.5637" height="42.7174" stroke="#162B6E" stroke-width="1.60559"/>
<rect x="545.895" y="189.549" width="12.5637" height="42.7174" stroke="#162B6E" stroke-width="1.60559"/>
<rect x="445.58" y="264.82" width="37.56" height="83.063" fill="#2D61DA" stroke="#162B6E" stroke-width="2.78702"/>
<rect x="483.24" y="264.82" width="37.6591" height="83.063" fill="#2D61DA" stroke="#162B6E" stroke-width="2.78702"/>
<rect x="520.698" y="264.82" width="37.6591" height="83.063" fill="#2D61DA" stroke="#162B6E" stroke-width="2.78702"/>
<rect x="437.614" y="340.526" width="128.911" height="17.0869" fill="#162B6E" stroke="#162B6E" stroke-width="1.60559"/>
<rect x="457.919" y="306.352" width="12.5637" height="42.7174" stroke="#162B6E" stroke-width="1.60559"/>
<rect x="445.681" y="306.352" width="12.5637" height="42.7174" stroke="#162B6E" stroke-width="1.60559"/>
<rect x="470.49" y="306.352" width="12.5637" height="42.7174" stroke="#162B6E" stroke-width="1.60559"/>
<rect x="483.05" y="306.352" width="12.5637" height="42.7174" stroke="#162B6E" stroke-width="1.60559"/>
<rect x="495.613" y="306.351" width="12.5637" height="42.7174" stroke="#162B6E" stroke-width="1.60559"/>
<rect x="508.184" y="306.351" width="12.5637" height="42.7174" stroke="#162B6E" stroke-width="1.60559"/>
<rect x="520.755" y="306.351" width="12.5637" height="42.7174" stroke="#162B6E" stroke-width="1.60559"/>
<rect x="533.326" y="306.351" width="12.5637" height="42.7174" stroke="#162B6E" stroke-width="1.60559"/>
<rect x="545.895" y="306.351" width="12.5637" height="42.7174" stroke="#162B6E" stroke-width="1.60559"/>
<rect x="642.224" y="39.0237" width="37.56" height="83.063" fill="#2D61DA" stroke="#162B6E" stroke-width="2.78702"/>
<rect x="679.884" y="39.0237" width="37.6591" height="83.063" fill="#2D61DA" stroke="#162B6E" stroke-width="2.78702"/>
<rect x="717.342" y="39.0237" width="37.6591" height="83.063" fill="#2D61DA" stroke="#162B6E" stroke-width="2.78702"/>
<rect x="634.258" y="114.73" width="128.911" height="17.0869" fill="#162B6E" stroke="#162B6E" stroke-width="1.60559"/>
<rect x="654.563" y="80.5555" width="12.5637" height="42.7174" stroke="#162B6E" stroke-width="1.60559"/>
<rect x="642.325" y="80.5555" width="12.5637" height="42.7174" stroke="#162B6E" stroke-width="1.60559"/>
<rect x="667.134" y="80.5555" width="12.5637" height="42.7174" stroke="#162B6E" stroke-width="1.60559"/>
<rect x="679.694" y="80.5555" width="12.5637" height="42.7174" stroke="#162B6E" stroke-width="1.60559"/>
<rect x="692.258" y="80.5553" width="12.5637" height="42.7174" stroke="#162B6E" stroke-width="1.60559"/>
<rect x="704.828" y="80.5553" width="12.5637" height="42.7174" stroke="#162B6E" stroke-width="1.60559"/>
<rect x="717.399" y="80.5553" width="12.5637" height="42.7174" stroke="#162B6E" stroke-width="1.60559"/>
<rect x="729.97" y="80.5553" width="12.5637" height="42.7174" stroke="#162B6E" stroke-width="1.60559"/>
<rect x="742.539" y="80.5553" width="12.5637" height="42.7174" stroke="#162B6E" stroke-width="1.60559"/>
<rect x="642.224" y="148.017" width="37.56" height="83.063" fill="#2D61DA" stroke="#162B6E" stroke-width="2.78702"/>
<rect x="679.884" y="148.017" width="37.6591" height="83.063" fill="#2D61DA" stroke="#162B6E" stroke-width="2.78702"/>
<rect x="717.342" y="148.017" width="37.6591" height="83.063" fill="#2D61DA" stroke="#162B6E" stroke-width="2.78702"/>
<rect x="634.258" y="223.724" width="128.911" height="17.0869" fill="#162B6E" stroke="#162B6E" stroke-width="1.60559"/>
<rect x="654.563" y="189.549" width="12.5637" height="42.7174" stroke="#162B6E" stroke-width="1.60559"/>
<rect x="642.325" y="189.549" width="12.5637" height="42.7174" stroke="#162B6E" stroke-width="1.60559"/>
<rect x="667.134" y="189.549" width="12.5637" height="42.7174" stroke="#162B6E" stroke-width="1.60559"/>
<rect x="679.694" y="189.549" width="12.5637" height="42.7174" stroke="#162B6E" stroke-width="1.60559"/>
<rect x="692.258" y="189.549" width="12.5637" height="42.7174" stroke="#162B6E" stroke-width="1.60559"/>
<rect x="704.828" y="189.549" width="12.5637" height="42.7174" stroke="#162B6E" stroke-width="1.60559"/>
<rect x="717.399" y="189.549" width="12.5637" height="42.7174" stroke="#162B6E" stroke-width="1.60559"/>
<rect x="729.97" y="189.549" width="12.5637" height="42.7174" stroke="#162B6E" stroke-width="1.60559"/>
<rect x="742.539" y="189.549" width="12.5637" height="42.7174" stroke="#162B6E" stroke-width="1.60559"/>
<rect x="642.224" y="264.82" width="37.56" height="83.063" fill="#2D61DA" stroke="#162B6E" stroke-width="2.78702"/>
<rect x="679.884" y="264.82" width="37.6591" height="83.063" fill="#2D61DA" stroke="#162B6E" stroke-width="2.78702"/>
<rect x="717.342" y="264.82" width="37.6591" height="83.063" fill="#2D61DA" stroke="#162B6E" stroke-width="2.78702"/>
<rect x="634.258" y="340.526" width="128.911" height="17.0869" fill="#162B6E" stroke="#162B6E" stroke-width="1.60559"/>
<rect x="654.563" y="306.352" width="12.5637" height="42.7174" stroke="#162B6E" stroke-width="1.60559"/>
<rect x="642.325" y="306.352" width="12.5637" height="42.7174" stroke="#162B6E" stroke-width="1.60559"/>
<rect x="667.134" y="306.352" width="12.5637" height="42.7174" stroke="#162B6E" stroke-width="1.60559"/>
<rect x="679.694" y="306.352" width="12.5637" height="42.7174" stroke="#162B6E" stroke-width="1.60559"/>
<rect x="692.258" y="306.351" width="12.5637" height="42.7174" stroke="#162B6E" stroke-width="1.60559"/>
<rect x="704.828" y="306.351" width="12.5637" height="42.7174" stroke="#162B6E" stroke-width="1.60559"/>
<rect x="717.399" y="306.351" width="12.5637" height="42.7174" stroke="#162B6E" stroke-width="1.60559"/>
<rect x="729.97" y="306.351" width="12.5637" height="42.7174" stroke="#162B6E" stroke-width="1.60559"/>
<rect x="742.539" y="306.351" width="12.5637" height="42.7174" stroke="#162B6E" stroke-width="1.60559"/>
<rect x="838.868" y="39.0237" width="37.56" height="83.063" fill="#2D61DA" stroke="#162B6E" stroke-width="2.78702"/>
<rect x="876.528" y="39.0237" width="37.6591" height="83.063" fill="#2D61DA" stroke="#162B6E" stroke-width="2.78702"/>
<rect x="913.986" y="39.0237" width="37.6591" height="83.063" fill="#2D61DA" stroke="#162B6E" stroke-width="2.78702"/>
<rect x="830.902" y="114.73" width="128.911" height="17.0869" fill="#162B6E" stroke="#162B6E" stroke-width="1.60559"/>
<rect x="851.207" y="80.5555" width="12.5637" height="42.7174" stroke="#162B6E" stroke-width="1.60559"/>
<rect x="838.969" y="80.5555" width="12.5637" height="42.7174" stroke="#162B6E" stroke-width="1.60559"/>
<rect x="863.778" y="80.5555" width="12.5637" height="42.7174" stroke="#162B6E" stroke-width="1.60559"/>
<rect x="876.338" y="80.5555" width="12.5637" height="42.7174" stroke="#162B6E" stroke-width="1.60559"/>
<rect x="888.902" y="80.5553" width="12.5637" height="42.7174" stroke="#162B6E" stroke-width="1.60559"/>
<rect x="901.472" y="80.5553" width="12.5637" height="42.7174" stroke="#162B6E" stroke-width="1.60559"/>
<rect x="914.043" y="80.5553" width="12.5637" height="42.7174" stroke="#162B6E" stroke-width="1.60559"/>
<rect x="926.614" y="80.5553" width="12.5637" height="42.7174" stroke="#162B6E" stroke-width="1.60559"/>
<rect x="939.183" y="80.5553" width="12.5637" height="42.7174" stroke="#162B6E" stroke-width="1.60559"/>
<rect x="838.868" y="148.017" width="37.56" height="83.063" fill="#2D61DA" stroke="#162B6E" stroke-width="2.78702"/>
<rect x="876.528" y="148.017" width="37.6591" height="83.063" fill="#2D61DA" stroke="#162B6E" stroke-width="2.78702"/>
<rect x="913.986" y="148.017" width="37.6591" height="83.063" fill="#FFDC00" stroke="#162B6E" stroke-width="2.78702"/>
<rect x="830.902" y="223.724" width="128.911" height="17.0869" fill="#162B6E" stroke="#162B6E" stroke-width="1.60559"/>
<rect x="851.207" y="189.549" width="12.5637" height="42.7174" stroke="#162B6E" stroke-width="1.60559"/>
<rect x="838.969" y="189.549" width="12.5637" height="42.7174" stroke="#162B6E" stroke-width="1.60559"/>
<rect x="863.778" y="189.549" width="12.5637" height="42.7174" stroke="#162B6E" stroke-width="1.60559"/>
<rect x="876.338" y="189.549" width="12.5637" height="42.7174" stroke="#162B6E" stroke-width="1.60559"/>
<rect x="888.902" y="189.549" width="12.5637" height="42.7174" stroke="#162B6E" stroke-width="1.60559"/>
<rect x="901.472" y="189.549" width="12.5637" height="42.7174" stroke="#162B6E" stroke-width="1.60559"/>
<rect x="914.043" y="189.549" width="12.5637" height="42.7174" stroke="#162B6E" stroke-width="1.60559"/>
<rect x="926.614" y="189.549" width="12.5637" height="42.7174" stroke="#162B6E" stroke-width="1.60559"/>
<rect x="939.183" y="189.549" width="12.5637" height="42.7174" stroke="#162B6E" stroke-width="1.60559"/>
<rect x="838.868" y="264.82" width="37.56" height="83.063" fill="#2D61DA" stroke="#162B6E" stroke-width="2.78702"/>
<rect x="876.528" y="264.82" width="37.6591" height="83.063" fill="#2D61DA" stroke="#162B6E" stroke-width="2.78702"/>
<rect x="913.986" y="264.82" width="37.6591" height="83.063" fill="#2D61DA" stroke="#162B6E" stroke-width="2.78702"/>
<rect x="830.902" y="340.526" width="128.911" height="17.0869" fill="#162B6E" stroke="#162B6E" stroke-width="1.60559"/>
<rect x="851.207" y="306.352" width="12.5637" height="42.7174" stroke="#162B6E" stroke-width="1.60559"/>
<rect x="838.969" y="306.352" width="12.5637" height="42.7174" stroke="#162B6E" stroke-width="1.60559"/>
<rect x="863.778" y="306.352" width="12.5637" height="42.7174" stroke="#162B6E" stroke-width="1.60559"/>
<rect x="876.338" y="306.352" width="12.5637" height="42.7174" stroke="#162B6E" stroke-width="1.60559"/>
<rect x="888.902" y="306.351" width="12.5637" height="42.7174" stroke="#162B6E" stroke-width="1.60559"/>
<rect x="901.472" y="306.351" width="12.5637" height="42.7174" stroke="#162B6E" stroke-width="1.60559"/>
<rect x="914.043" y="306.351" width="12.5637" height="42.7174" stroke="#162B6E" stroke-width="1.60559"/>
<rect x="926.614" y="306.351" width="12.5637" height="42.7174" stroke="#162B6E" stroke-width="1.60559"/>
<rect x="939.183" y="306.351" width="12.5637" height="42.7174" stroke="#162B6E" stroke-width="1.60559"/>
<rect x="1035.51" y="39.0237" width="37.56" height="83.063" fill="#2D61DA" stroke="#162B6E" stroke-width="2.78702"/>
<rect x="1073.17" y="39.0237" width="37.6591" height="83.063" fill="#2D61DA" stroke="#162B6E" stroke-width="2.78702"/>
<rect x="1110.63" y="39.0237" width="37.6591" height="83.063" fill="#2D61DA" stroke="#162B6E" stroke-width="2.78702"/>
<rect x="1027.55" y="114.73" width="128.911" height="17.0869" fill="#162B6E" stroke="#162B6E" stroke-width="1.60559"/>
<rect x="1047.85" y="80.5555" width="12.5637" height="42.7174" stroke="#162B6E" stroke-width="1.60559"/>
<rect x="1035.61" y="80.5555" width="12.5637" height="42.7174" stroke="#162B6E" stroke-width="1.60559"/>
<rect x="1060.42" y="80.5555" width="12.5637" height="42.7174" stroke="#162B6E" stroke-width="1.60559"/>
<rect x="1072.98" y="80.5555" width="12.5637" height="42.7174" stroke="#162B6E" stroke-width="1.60559"/>
<rect x="1085.55" y="80.5553" width="12.5637" height="42.7174" stroke="#162B6E" stroke-width="1.60559"/>
<rect x="1098.12" y="80.5553" width="12.5637" height="42.7174" stroke="#162B6E" stroke-width="1.60559"/>
<rect x="1110.69" y="80.5553" width="12.5637" height="42.7174" stroke="#162B6E" stroke-width="1.60559"/>
<rect x="1123.26" y="80.5553" width="12.5637" height="42.7174" stroke="#162B6E" stroke-width="1.60559"/>
<rect x="1135.83" y="80.5553" width="12.5637" height="42.7174" stroke="#162B6E" stroke-width="1.60559"/>
<rect x="1035.51" y="148.017" width="37.56" height="83.063" fill="#2D61DA" stroke="#162B6E" stroke-width="2.78702"/>
<rect x="1073.17" y="148.017" width="37.6591" height="83.063" fill="#2D61DA" stroke="#162B6E" stroke-width="2.78702"/>
<rect x="1110.63" y="148.017" width="37.6591" height="83.063" fill="#2D61DA" stroke="#162B6E" stroke-width="2.78702"/>
<rect x="1027.55" y="223.724" width="128.911" height="17.0869" fill="#162B6E" stroke="#162B6E" stroke-width="1.60559"/>
<rect x="1047.85" y="189.549" width="12.5637" height="42.7174" stroke="#162B6E" stroke-width="1.60559"/>
<rect x="1035.61" y="189.549" width="12.5637" height="42.7174" stroke="#162B6E" stroke-width="1.60559"/>
<rect x="1060.42" y="189.549" width="12.5637" height="42.7174" stroke="#162B6E" stroke-width="1.60559"/>
<rect x="1072.98" y="189.549" width="12.5637" height="42.7174" stroke="#162B6E" stroke-width="1.60559"/>
<rect x="1085.55" y="189.549" width="12.5637" height="42.7174" stroke="#162B6E" stroke-width="1.60559"/>
<rect x="1098.12" y="189.549" width="12.5637" height="42.7174" stroke="#162B6E" stroke-width="1.60559"/>
<rect x="1110.69" y="189.549" width="12.5637" height="42.7174" stroke="#162B6E" stroke-width="1.60559"/>
<rect x="1123.26" y="189.549" width="12.5637" height="42.7174" stroke="#162B6E" stroke-width="1.60559"/>
<rect x="1135.83" y="189.549" width="12.5637" height="42.7174" stroke="#162B6E" stroke-width="1.60559"/>
<rect x="1035.51" y="264.82" width="37.56" height="83.063" fill="#2D61DA" stroke="#162B6E" stroke-width="2.78702"/>
<rect x="1073.17" y="264.82" width="37.6591" height="83.063" fill="#2D61DA" stroke="#162B6E" stroke-width="2.78702"/>
<rect x="1110.63" y="264.82" width="37.6591" height="83.063" fill="#2D61DA" stroke="#162B6E" stroke-width="2.78702"/>
<rect x="1027.55" y="340.526" width="128.911" height="17.0869" fill="#162B6E" stroke="#162B6E" stroke-width="1.60559"/>
<rect x="1047.85" y="306.352" width="12.5637" height="42.7174" stroke="#162B6E" stroke-width="1.60559"/>
<rect x="1035.61" y="306.352" width="12.5637" height="42.7174" stroke="#162B6E" stroke-width="1.60559"/>
<rect x="1060.42" y="306.352" width="12.5637" height="42.7174" stroke="#162B6E" stroke-width="1.60559"/>
<rect x="1072.98" y="306.352" width="12.5637" height="42.7174" stroke="#162B6E" stroke-width="1.60559"/>
<rect x="1085.55" y="306.351" width="12.5637" height="42.7174" stroke="#162B6E" stroke-width="1.60559"/>
<rect x="1098.12" y="306.351" width="12.5637" height="42.7174" stroke="#162B6E" stroke-width="1.60559"/>
<rect x="1110.69" y="306.351" width="12.5637" height="42.7174" stroke="#162B6E" stroke-width="1.60559"/>
<rect x="1123.26" y="306.351" width="12.5637" height="42.7174" stroke="#162B6E" stroke-width="1.60559"/>
<rect x="1135.83" y="306.351" width="12.5637" height="42.7174" stroke="#162B6E" stroke-width="1.60559"/>
<rect x="52.292" y="380.294" width="37.56" height="83.063" fill="#2D61DA" stroke="#162B6E" stroke-width="2.78702"/>
<rect x="89.9512" y="380.294" width="37.6591" height="83.063" fill="#2D61DA" stroke="#162B6E" stroke-width="2.78702"/>
<rect x="127.411" y="380.294" width="37.6591" height="83.063" fill="#2D61DA" stroke="#162B6E" stroke-width="2.78702"/>
<rect x="44.3262" y="456" width="128.911" height="17.0869" fill="#162B6E" stroke="#162B6E" stroke-width="1.60559"/>
<rect x="64.6313" y="421.826" width="12.5637" height="42.7174" stroke="#162B6E" stroke-width="1.60559"/>
<rect x="52.3926" y="421.826" width="12.5637" height="42.7174" stroke="#162B6E" stroke-width="1.60559"/>
<rect x="77.2012" y="421.826" width="12.5637" height="42.7174" stroke="#162B6E" stroke-width="1.60559"/>
<rect x="89.7622" y="421.826" width="12.5637" height="42.7174" stroke="#162B6E" stroke-width="1.60559"/>
<rect x="102.325" y="421.825" width="12.5637" height="42.7174" stroke="#162B6E" stroke-width="1.60559"/>
<rect x="114.896" y="421.825" width="12.5637" height="42.7174" stroke="#162B6E" stroke-width="1.60559"/>
<rect x="127.466" y="421.825" width="12.5637" height="42.7174" stroke="#162B6E" stroke-width="1.60559"/>
<rect x="140.038" y="421.825" width="12.5637" height="42.7174" stroke="#162B6E" stroke-width="1.60559"/>
<rect x="152.606" y="421.825" width="12.5637" height="42.7174" stroke="#162B6E" stroke-width="1.60559"/>
<rect x="52.292" y="489.288" width="37.56" height="83.063" fill="#2D61DA" stroke="#162B6E" stroke-width="2.78702"/>
<rect x="89.9512" y="489.288" width="37.6591" height="83.063" fill="#2D61DA" stroke="#162B6E" stroke-width="2.78702"/>
<rect x="127.411" y="489.288" width="37.6591" height="83.063" fill="#2D61DA" stroke="#162B6E" stroke-width="2.78702"/>
<rect x="248.935" y="380.294" width="37.56" height="83.063" fill="#2D61DA" stroke="#162B6E" stroke-width="2.78702"/>
<rect x="286.594" y="380.294" width="37.6591" height="83.063" fill="#2D61DA" stroke="#162B6E" stroke-width="2.78702"/>
<rect x="324.053" y="380.294" width="37.6591" height="83.063" fill="#2D61DA" stroke="#162B6E" stroke-width="2.78702"/>
<rect x="240.969" y="456" width="128.911" height="17.0869" fill="#162B6E" stroke="#162B6E" stroke-width="1.60559"/>
<rect x="261.274" y="421.826" width="12.5637" height="42.7174" stroke="#162B6E" stroke-width="1.60559"/>
<rect x="249.035" y="421.826" width="12.5637" height="42.7174" stroke="#162B6E" stroke-width="1.60559"/>
<rect x="273.844" y="421.826" width="12.5637" height="42.7174" stroke="#162B6E" stroke-width="1.60559"/>
<rect x="286.404" y="421.826" width="12.5637" height="42.7174" stroke="#162B6E" stroke-width="1.60559"/>
<rect x="298.968" y="421.826" width="12.5637" height="42.7174" stroke="#162B6E" stroke-width="1.60559"/>
<rect x="311.539" y="421.826" width="12.5637" height="42.7174" stroke="#162B6E" stroke-width="1.60559"/>
<rect x="324.109" y="421.826" width="12.5637" height="42.7174" stroke="#162B6E" stroke-width="1.60559"/>
<rect x="336.68" y="421.826" width="12.5637" height="42.7174" stroke="#162B6E" stroke-width="1.60559"/>
<rect x="349.249" y="421.826" width="12.5637" height="42.7174" stroke="#162B6E" stroke-width="1.60559"/>
<rect x="248.935" y="489.288" width="37.56" height="83.063" fill="#2D61DA" stroke="#162B6E" stroke-width="2.78702"/>
<rect x="286.594" y="489.288" width="37.6591" height="83.063" fill="#2D61DA" stroke="#162B6E" stroke-width="2.78702"/>
<rect x="324.053" y="489.288" width="37.6591" height="83.063" fill="#2D61DA" stroke="#162B6E" stroke-width="2.78702"/>
<rect x="445.58" y="380.294" width="37.56" height="83.063" fill="#2D61DA" stroke="#162B6E" stroke-width="2.78702"/>
<rect x="483.24" y="380.294" width="37.6591" height="83.063" fill="#2D61DA" stroke="#162B6E" stroke-width="2.78702"/>
<rect x="520.698" y="380.294" width="37.6591" height="83.063" fill="#FFDC00" stroke="#162B6E" stroke-width="2.78702"/>
<rect x="437.614" y="456" width="128.911" height="17.0869" fill="#162B6E" stroke="#162B6E" stroke-width="1.60559"/>
<rect x="457.919" y="421.826" width="12.5637" height="42.7174" stroke="#162B6E" stroke-width="1.60559"/>
<rect x="445.681" y="421.826" width="12.5637" height="42.7174" stroke="#162B6E" stroke-width="1.60559"/>
<rect x="470.49" y="421.826" width="12.5637" height="42.7174" stroke="#162B6E" stroke-width="1.60559"/>
<rect x="483.05" y="421.826" width="12.5637" height="42.7174" stroke="#162B6E" stroke-width="1.60559"/>
<rect x="495.613" y="421.825" width="12.5637" height="42.7174" stroke="#162B6E" stroke-width="1.60559"/>
<rect x="508.184" y="421.825" width="12.5637" height="42.7174" stroke="#162B6E" stroke-width="1.60559"/>
<rect x="520.755" y="421.825" width="12.5637" height="42.7174" stroke="#162B6E" stroke-width="1.60559"/>
<rect x="533.326" y="421.825" width="12.5637" height="42.7174" stroke="#162B6E" stroke-width="1.60559"/>
<rect x="545.895" y="421.825" width="12.5637" height="42.7174" stroke="#162B6E" stroke-width="1.60559"/>
<rect x="445.58" y="489.288" width="37.56" height="83.063" fill="#2D61DA" stroke="#162B6E" stroke-width="2.78702"/>
<rect x="483.24" y="489.288" width="37.6591" height="83.063" fill="#2D61DA" stroke="#162B6E" stroke-width="2.78702"/>
<rect x="520.698" y="489.288" width="37.6591" height="83.063" fill="#2D61DA" stroke="#162B6E" stroke-width="2.78702"/>
<rect x="642.224" y="380.294" width="37.56" height="83.063" fill="#2D61DA" stroke="#162B6E" stroke-width="2.78702"/>
<rect x="679.884" y="380.294" width="37.6591" height="83.063" fill="#2D61DA" stroke="#162B6E" stroke-width="2.78702"/>
<rect x="717.342" y="380.294" width="37.6591" height="83.063" fill="#2D61DA" stroke="#162B6E" stroke-width="2.78702"/>
<rect x="634.258" y="456" width="128.911" height="17.0869" fill="#162B6E" stroke="#162B6E" stroke-width="1.60559"/>
<rect x="654.563" y="421.826" width="12.5637" height="42.7174" stroke="#162B6E" stroke-width="1.60559"/>
<rect x="642.325" y="421.826" width="12.5637" height="42.7174" stroke="#162B6E" stroke-width="1.60559"/>
<rect x="667.134" y="421.826" width="12.5637" height="42.7174" stroke="#162B6E" stroke-width="1.60559"/>
<rect x="679.694" y="421.826" width="12.5637" height="42.7174" stroke="#162B6E" stroke-width="1.60559"/>
<rect x="692.258" y="421.825" width="12.5637" height="42.7174" stroke="#162B6E" stroke-width="1.60559"/>
<rect x="704.828" y="421.825" width="12.5637" height="42.7174" stroke="#162B6E" stroke-width="1.60559"/>
<rect x="717.399" y="421.825" width="12.5637" height="42.7174" stroke="#162B6E" stroke-width="1.60559"/>
<rect x="729.97" y="421.825" width="12.5637" height="42.7174" stroke="#162B6E" stroke-width="1.60559"/>
<rect x="742.539" y="421.825" width="12.5637" height="42.7174" stroke="#162B6E" stroke-width="1.60559"/>
<rect x="642.224" y="489.288" width="37.56" height="83.063" fill="#2D61DA" stroke="#162B6E" stroke-width="2.78702"/>
<rect x="679.884" y="489.288" width="37.6591" height="83.063" fill="#2D61DA" stroke="#162B6E" stroke-width="2.78702"/>
<rect x="717.342" y="489.288" width="37.6591" height="83.063" fill="#2D61DA" stroke="#162B6E" stroke-width="2.78702"/>
<rect x="838.868" y="380.294" width="37.56" height="83.063" fill="#2D61DA" stroke="#162B6E" stroke-width="2.78702"/>
<rect x="876.528" y="380.294" width="37.6591" height="83.063" fill="#2D61DA" stroke="#162B6E" stroke-width="2.78702"/>
<rect x="913.986" y="380.294" width="37.6591" height="83.063" fill="#2D61DA" stroke="#162B6E" stroke-width="2.78702"/>
<rect x="830.902" y="456" width="128.911" height="17.0869" fill="#162B6E" stroke="#162B6E" stroke-width="1.60559"/>
<rect x="851.207" y="421.826" width="12.5637" height="42.7174" stroke="#162B6E" stroke-width="1.60559"/>
<rect x="838.969" y="421.826" width="12.5637" height="42.7174" stroke="#162B6E" stroke-width="1.60559"/>
<rect x="863.778" y="421.826" width="12.5637" height="42.7174" stroke="#162B6E" stroke-width="1.60559"/>
<rect x="876.338" y="421.826" width="12.5637" height="42.7174" stroke="#162B6E" stroke-width="1.60559"/>
<rect x="888.902" y="421.825" width="12.5637" height="42.7174" stroke="#162B6E" stroke-width="1.60559"/>
<rect x="901.472" y="421.825" width="12.5637" height="42.7174" stroke="#162B6E" stroke-width="1.60559"/>
<rect x="914.043" y="421.825" width="12.5637" height="42.7174" stroke="#162B6E" stroke-width="1.60559"/>
<rect x="926.614" y="421.825" width="12.5637" height="42.7174" stroke="#162B6E" stroke-width="1.60559"/>
<rect x="939.183" y="421.825" width="12.5637" height="42.7174" stroke="#162B6E" stroke-width="1.60559"/>
<rect x="838.868" y="489.288" width="37.56" height="83.063" fill="#2D61DA" stroke="#162B6E" stroke-width="2.78702"/>
<rect x="876.528" y="489.288" width="37.6591" height="83.063" fill="#2D61DA" stroke="#162B6E" stroke-width="2.78702"/>
<rect x="913.986" y="489.288" width="37.6591" height="83.063" fill="#FFDC00" stroke="#162B6E" stroke-width="2.78702"/>
<rect x="1035.51" y="380.294" width="37.56" height="83.063" fill="#2D61DA" stroke="#162B6E" stroke-width="2.78702"/>
<rect x="1073.17" y="380.294" width="37.6591" height="83.063" fill="#2D61DA" stroke="#162B6E" stroke-width="2.78702"/>
<rect x="1110.63" y="380.294" width="37.6591" height="83.063" fill="#2D61DA" stroke="#162B6E" stroke-width="2.78702"/>
<rect x="1027.55" y="456" width="128.911" height="17.0869" fill="#162B6E" stroke="#162B6E" stroke-width="1.60559"/>
<rect x="1047.85" y="421.826" width="12.5637" height="42.7174" stroke="#162B6E" stroke-width="1.60559"/>
<rect x="1035.61" y="421.826" width="12.5637" height="42.7174" stroke="#162B6E" stroke-width="1.60559"/>
<rect x="1060.42" y="421.826" width="12.5637" height="42.7174" stroke="#162B6E" stroke-width="1.60559"/>
<rect x="1072.98" y="421.826" width="12.5637" height="42.7174" stroke="#162B6E" stroke-width="1.60559"/>
<rect x="1085.55" y="421.825" width="12.5637" height="42.7174" stroke="#162B6E" stroke-width="1.60559"/>
<rect x="1098.12" y="421.825" width="12.5637" height="42.7174" stroke="#162B6E" stroke-width="1.60559"/>
<rect x="1110.69" y="421.825" width="12.5637" height="42.7174" stroke="#162B6E" stroke-width="1.60559"/>
<rect x="1123.26" y="421.825" width="12.5637" height="42.7174" stroke="#162B6E" stroke-width="1.60559"/>
<rect x="1135.83" y="421.825" width="12.5637" height="42.7174" stroke="#162B6E" stroke-width="1.60559"/>
<rect x="1035.51" y="489.288" width="37.56" height="83.063" fill="#2D61DA" stroke="#162B6E" stroke-width="2.78702"/>
<rect x="1073.17" y="489.288" width="37.6591" height="83.063" fill="#2D61DA" stroke="#162B6E" stroke-width="2.78702"/>
<rect x="1110.63" y="489.288" width="37.6591" height="83.063" fill="#2D61DA" stroke="#162B6E" stroke-width="2.78702"/>
</g>
<defs>
<clipPath id="clip0_350_687">
<rect width="1200" height="500" fill="white" transform="translate(0 0.753418)"/>
</clipPath>
</defs>
</svg>
