<svg width="48" height="48" viewBox="0 0 48 48" fill="none" xmlns="http://www.w3.org/2000/svg">
<rect x="2.64502" y="37.0281" width="2.64487" height="2.64487" fill="#DEFF57"/>
<rect x="2.64502" y="39.6728" width="2.64487" height="2.64487" fill="#DEFF57"/>
<rect x="5.28979" y="39.6728" width="2.64487" height="2.64487" fill="#DEFF57"/>
<rect x="5.28979" y="42.3176" width="2.64487" height="2.64487" fill="#DEFF57"/>
<rect x="5.28979" y="34.3831" width="2.64487" height="2.64487" fill="#DEFF57"/>
<rect x="5.28979" y="37.0281" width="2.64487" height="2.64487" fill="#DEFF57"/>
<rect x="7.93481" y="37.0281" width="2.64487" height="2.64487" fill="#DEFF57"/>
<rect x="7.93457" y="39.6728" width="2.64487" height="2.64487" fill="#DEFF57"/>
<rect x="7.93457" y="31.7383" width="2.64487" height="2.64487" fill="#DEFF57"/>
<rect x="7.93481" y="34.3831" width="2.64487" height="2.64487" fill="#DEFF57"/>
<rect x="10.5796" y="34.3831" width="2.64487" height="2.64487" fill="#DEFF57"/>
<rect x="10.5793" y="37.0281" width="2.64487" height="2.64487" fill="#DEFF57"/>
<rect x="10.5793" y="29.0935" width="2.64487" height="2.64487" fill="#DEFF57"/>
<rect x="10.5793" y="31.7383" width="2.64487" height="2.64487" fill="#DEFF57"/>
<rect x="13.2244" y="31.7383" width="2.64487" height="2.64487" fill="#DEFF57"/>
<rect x="13.2241" y="34.3831" width="2.64487" height="2.64487" fill="#DEFF57"/>
<rect x="13.2241" y="26.4485" width="2.64487" height="2.64487" fill="#DEFF57"/>
<rect x="13.2244" y="29.0935" width="2.64487" height="2.64487" fill="#DEFF57"/>
<rect x="15.8691" y="29.0935" width="2.64487" height="2.64487" fill="#DEFF57"/>
<rect x="15.8691" y="31.7383" width="2.64487" height="2.64487" fill="#DEFF57"/>
<rect x="15.8691" y="23.8038" width="2.64487" height="2.64487" fill="#DEFF57"/>
<rect x="15.8691" y="26.4485" width="2.64487" height="2.64487" fill="#DEFF57"/>
<rect x="18.5142" y="26.4485" width="2.64487" height="2.64487" fill="#DEFF57"/>
<rect x="18.5142" y="29.0935" width="2.64487" height="2.64487" fill="#DEFF57"/>
<rect x="18.5142" y="21.1588" width="2.64487" height="2.64487" fill="#DEFF57"/>
<rect x="18.5142" y="23.8038" width="2.64487" height="2.64487" fill="#DEFF57"/>
<rect x="21.1589" y="23.8038" width="2.64487" height="2.64487" fill="#DEFF57"/>
<rect x="21.1589" y="26.4485" width="2.64487" height="2.64487" fill="#DEFF57"/>
<rect x="21.1589" y="18.514" width="2.64487" height="2.64487" fill="#DEFF57"/>
<rect x="21.1589" y="21.1588" width="2.64487" height="2.64487" fill="#DEFF57"/>
<rect x="23.804" y="21.1588" width="2.64487" height="2.64487" fill="#DEFF57"/>
<rect x="23.804" y="23.8038" width="2.64487" height="2.64487" fill="#DEFF57"/>
<rect x="21.7866" y="15.869" width="4.66201" height="2.64487" fill="#DEFF57"/>
<rect x="23.804" y="18.514" width="2.64487" height="2.64487" fill="#DEFF57"/>
<rect x="26.4485" y="18.514" width="2.64487" height="2.64487" fill="#DEFF57"/>
<rect x="26.4485" y="21.1588" width="2.64487" height="2.64487" fill="#DEFF57"/>
<rect x="26.4485" y="13.2242" width="2.64487" height="2.64487" fill="#DEFF57"/>
<rect x="26.4485" y="15.869" width="2.64487" height="2.64487" fill="#DEFF57"/>
<rect x="29.0935" y="15.869" width="2.64487" height="2.64487" fill="#DEFF57"/>
<rect x="29.0935" y="18.514" width="2.64487" height="2.64487" fill="#DEFF57"/>
<rect x="29.0935" y="10.5793" width="2.64487" height="2.64487" fill="#DEFF57"/>
<rect x="29.0935" y="13.2242" width="2.64487" height="2.64487" fill="#DEFF57"/>
<rect x="31.7383" y="13.2242" width="2.64487" height="2.64487" fill="#DEFF57"/>
<rect x="31.7383" y="15.869" width="2.64487" height="2.64487" fill="#DEFF57"/>
<rect x="31.7383" y="7.93445" width="2.64487" height="2.64487" fill="#DEFF57"/>
<rect x="31.7383" y="10.5793" width="2.64487" height="2.64487" fill="#DEFF57"/>
<rect x="34.3831" y="10.5793" width="2.64487" height="2.64487" fill="#DEFF57"/>
<rect x="34.3831" y="13.2242" width="2.64487" height="2.64487" fill="#DEFF57"/>
<rect x="34.3831" y="5.28964" width="2.64487" height="2.64487" fill="#DEFF57"/>
<rect x="34.3831" y="7.93445" width="2.64487" height="2.64487" fill="#DEFF57"/>
<rect x="37.0281" y="7.93445" width="2.64487" height="2.64487" fill="#DEFF57"/>
<rect x="37.0281" y="10.5793" width="2.64487" height="2.64487" fill="#DEFF57"/>
<rect x="37.0281" y="2.64465" width="2.64487" height="2.64487" fill="#DEFF57"/>
<rect x="37.0281" y="5.28964" width="2.64487" height="2.64487" fill="#DEFF57"/>
<rect x="39.6729" y="5.28964" width="2.64487" height="2.64487" fill="#DEFF57"/>
<rect x="39.6731" y="7.93445" width="2.64487" height="2.64487" fill="#DEFF57"/>
<rect x="39.6729" y="2.64465" width="2.64487" height="2.64487" fill="#DEFF57"/>
<rect x="42.3179" y="5.28964" width="2.64487" height="2.64487" fill="#DEFF57"/>
<rect x="7.6272" y="42.3177" width="2.64487" height="2.64487" fill="#DEFF57"/>
<rect x="10.2722" y="39.6729" width="2.64487" height="2.64487" fill="#DEFF57"/>
<rect x="12.917" y="37.0279" width="2.64487" height="2.64487" fill="#DEFF57"/>
<rect x="15.5618" y="34.3831" width="2.64487" height="2.64487" fill="#DEFF57"/>
<rect x="18.2068" y="31.7383" width="2.64487" height="2.64487" fill="#DEFF57"/>
<rect x="20.8516" y="29.0935" width="2.64487" height="2.64487" fill="#DEFF57"/>
<rect x="23.4963" y="26.4485" width="2.64487" height="2.64487" fill="#DEFF57"/>
<rect x="26.1414" y="23.8037" width="2.64487" height="2.64487" fill="#DEFF57"/>
<rect x="28.7861" y="21.1588" width="2.64487" height="2.64487" fill="#DEFF57"/>
<rect x="31.4312" y="18.5139" width="2.64487" height="2.64487" fill="#DEFF57"/>
<rect x="34.0759" y="15.8689" width="2.64487" height="2.64487" fill="#DEFF57"/>
<rect x="36.7207" y="13.2242" width="2.64487" height="2.64487" fill="#DEFF57"/>
<rect x="39.3657" y="10.5794" width="2.64487" height="2.64487" fill="#DEFF57"/>
<rect x="42.0105" y="7.93442" width="2.64487" height="2.64487" fill="#DEFF57"/>
<rect x="7.6272" y="44.9625" width="2.64487" height="2.64487" fill="#C3E82D"/>
<rect x="10.272" y="42.3176" width="2.64487" height="2.64487" fill="#C3E82D"/>
<rect x="12.9167" y="39.6728" width="2.64487" height="2.64487" fill="#C3E82D"/>
<rect x="15.5618" y="37.0279" width="2.64487" height="2.64487" fill="#C3E82D"/>
<rect x="18.2065" y="34.383" width="2.64487" height="2.64487" fill="#C3E82D"/>
<rect x="20.8513" y="31.7382" width="2.64487" height="2.64487" fill="#C3E82D"/>
<rect x="26.1414" y="26.4485" width="2.64487" height="2.64487" fill="#C3E82D"/>
<rect x="28.7861" y="23.8037" width="2.64487" height="2.64487" fill="#C3E82D"/>
<rect x="31.4309" y="21.1587" width="2.64487" height="2.64487" fill="#C3E82D"/>
<rect x="34.0757" y="18.5139" width="2.64487" height="2.64487" fill="#C3E82D"/>
<rect x="36.7207" y="15.869" width="2.64487" height="2.64487" fill="#C3E82D"/>
<rect x="39.3655" y="13.2242" width="2.64487" height="2.64487" fill="#C3E82D"/>
<rect x="42.0105" y="10.5793" width="2.64487" height="2.64487" fill="#C3E82D"/>
<rect x="44.6553" y="7.93436" width="2.64487" height="2.64487" fill="#C3E82D"/>
<rect x="2.64502" y="39.6731" width="2.64487" height="2.64487" fill="#C3E82D"/>
<rect x="4.98242" y="42.3041" width="2.64487" height="2.64487" fill="#C3E82D"/>
<rect y="37.0281" width="2.64487" height="2.64487" fill="#C3E82D"/>
<rect x="2.64502" y="34.3831" width="2.64487" height="2.64487" fill="#C3E82D"/>
<rect x="5.28979" y="31.7383" width="2.64487" height="2.64487" fill="#C3E82D"/>
<rect x="7.93481" y="29.0935" width="2.64487" height="2.64487" fill="#C3E82D"/>
<rect x="10.5796" y="26.4485" width="2.64487" height="2.64487" fill="#C3E82D"/>
<rect x="13.2244" y="23.8038" width="2.64487" height="2.64487" fill="#C3E82D"/>
<rect x="15.8691" y="21.159" width="2.64487" height="2.64487" fill="#C3E82D"/>
<rect x="18.5144" y="18.514" width="2.64487" height="2.64487" fill="#C3E82D"/>
<rect x="22.5591" y="13.2243" width="3.8898" height="2.64487" fill="#C3E82D"/>
<rect x="26.4487" y="10.5793" width="2.64487" height="2.64487" fill="#C3E82D"/>
<rect x="29.0935" y="7.93463" width="2.64487" height="2.64487" fill="#C3E82D"/>
<rect x="31.7385" y="5.28964" width="2.64487" height="2.64487" fill="#C3E82D"/>
<rect x="34.3833" y="2.64484" width="2.64487" height="2.64487" fill="#C3E82D"/>
<rect x="37.0281" y="3.05176e-05" width="2.64487" height="2.64487" fill="#C3E82D"/>
<rect x="39.6731" y="2.64343" width="2.64487" height="2.64487" fill="#C3E82D"/>
<rect x="42.3181" y="5.28973" width="2.64487" height="2.64487" fill="#C3E82D"/>
<rect width="2.64487" height="2.64487" transform="matrix(-1 0 0 1 44.655 37.028)" fill="#DEFF57"/>
<rect width="2.64487" height="2.64487" transform="matrix(-1 0 0 1 44.655 39.6592)" fill="#DEFF57"/>
<rect width="2.64487" height="2.64487" transform="matrix(-1 0 0 1 42.0103 39.6592)" fill="#DEFF57"/>
<rect width="2.64487" height="2.64487" transform="matrix(-1 0 0 1 42.0103 42.3041)" fill="#DEFF57"/>
<rect width="2.64487" height="2.64487" transform="matrix(-1 0 0 1 42.0103 34.3831)" fill="#DEFF57"/>
<rect width="2.64487" height="2.64487" transform="matrix(-1 0 0 1 42.0103 37.028)" fill="#DEFF57"/>
<rect width="2.64487" height="2.64487" transform="matrix(-1 0 0 1 39.3652 37.028)" fill="#DEFF57"/>
<rect width="2.64487" height="2.64487" transform="matrix(-1 0 0 1 39.3655 39.6592)" fill="#DEFF57"/>
<rect width="2.64487" height="2.64487" transform="matrix(-1 0 0 1 39.3655 31.7383)" fill="#DEFF57"/>
<rect width="2.64487" height="2.64487" transform="matrix(-1 0 0 1 39.3652 34.3831)" fill="#DEFF57"/>
<rect width="2.64487" height="2.64487" transform="matrix(-1 0 0 1 36.7205 34.3831)" fill="#DEFF57"/>
<rect width="2.64487" height="2.64487" transform="matrix(-1 0 0 1 36.7205 37.028)" fill="#DEFF57"/>
<rect width="2.64487" height="2.64487" transform="matrix(-1 0 0 1 36.7205 29.0934)" fill="#DEFF57"/>
<rect width="2.64487" height="2.64487" transform="matrix(-1 0 0 1 36.7205 31.7383)" fill="#DEFF57"/>
<rect width="2.64487" height="2.64487" transform="matrix(-1 0 0 1 34.0757 31.7383)" fill="#DEFF57"/>
<rect width="2.64487" height="2.64487" transform="matrix(-1 0 0 1 34.0757 34.3831)" fill="#DEFF57"/>
<rect width="2.64487" height="2.64487" transform="matrix(-1 0 0 1 34.0757 26.4485)" fill="#DEFF57"/>
<rect width="2.64487" height="2.64487" transform="matrix(-1 0 0 1 34.0757 29.0934)" fill="#DEFF57"/>
<rect width="2.64487" height="2.64487" transform="matrix(-1 0 0 1 31.4307 29.0934)" fill="#DEFF57"/>
<rect width="2.64487" height="2.64487" transform="matrix(-1 0 0 1 31.4307 31.7383)" fill="#DEFF57"/>
<rect width="2.64487" height="2.64487" transform="matrix(-1 0 0 1 31.4307 23.8037)" fill="#DEFF57"/>
<rect width="2.64487" height="2.64487" transform="matrix(-1 0 0 1 31.4307 26.4485)" fill="#DEFF57"/>
<rect width="2.64487" height="2.64487" transform="matrix(-1 0 0 1 28.7859 26.4485)" fill="#DEFF57"/>
<rect width="2.64487" height="2.64487" transform="matrix(-1 0 0 1 28.7859 29.0934)" fill="#DEFF57"/>
<rect width="2.64487" height="2.64487" transform="matrix(-1 0 0 1 28.7859 21.1588)" fill="#DEFF57"/>
<rect width="2.64487" height="2.64487" transform="matrix(-1 0 0 1 28.7859 23.8037)" fill="#DEFF57"/>
<rect width="2.64487" height="2.64487" transform="matrix(-1 0 0 1 26.1411 23.8037)" fill="#DEFF57"/>
<rect width="2.64487" height="2.64487" transform="matrix(-1 0 0 1 26.1411 26.4485)" fill="#DEFF57"/>
<rect width="2.64487" height="2.64487" transform="matrix(-1 0 0 1 26.1411 18.5139)" fill="#DEFF57"/>
<rect width="2.64487" height="2.64487" transform="matrix(-1 0 0 1 26.1411 21.1588)" fill="#DEFF57"/>
<rect width="2.64487" height="2.64487" transform="matrix(-1 0 0 1 23.4961 21.1588)" fill="#DEFF57"/>
<rect width="2.64487" height="2.64487" transform="matrix(-1 0 0 1 23.4961 23.8037)" fill="#DEFF57"/>
<rect width="2.64487" height="2.64487" transform="matrix(-1 0 0 1 23.4961 15.8689)" fill="#DEFF57"/>
<rect width="2.64487" height="2.64487" transform="matrix(-1 0 0 1 23.4961 18.5139)" fill="#DEFF57"/>
<rect width="2.64487" height="2.64487" transform="matrix(-1 0 0 1 20.8513 18.5139)" fill="#DEFF57"/>
<rect width="2.64487" height="2.64487" transform="matrix(-1 0 0 1 20.8513 21.1588)" fill="#DEFF57"/>
<rect width="2.64487" height="2.64487" transform="matrix(-1 0 0 1 20.8513 13.2241)" fill="#DEFF57"/>
<rect width="2.64487" height="2.64487" transform="matrix(-1 0 0 1 20.8513 15.8689)" fill="#DEFF57"/>
<rect width="2.64487" height="2.64487" transform="matrix(-1 0 0 1 18.2065 15.8689)" fill="#DEFF57"/>
<rect width="2.64487" height="2.64487" transform="matrix(-1 0 0 1 18.2065 18.5139)" fill="#DEFF57"/>
<rect width="2.64487" height="2.64487" transform="matrix(-1 0 0 1 18.2065 10.5793)" fill="#DEFF57"/>
<rect width="2.64487" height="2.64487" transform="matrix(-1 0 0 1 18.2065 13.2241)" fill="#DEFF57"/>
<rect width="2.64487" height="2.64487" transform="matrix(-1 0 0 1 15.5618 13.2241)" fill="#DEFF57"/>
<rect width="2.64487" height="2.64487" transform="matrix(-1 0 0 1 15.5615 15.8689)" fill="#DEFF57"/>
<rect width="2.64487" height="2.64487" transform="matrix(-1 0 0 1 15.5618 7.93442)" fill="#DEFF57"/>
<rect width="2.64487" height="2.64487" transform="matrix(-1 0 0 1 15.5618 10.5793)" fill="#DEFF57"/>
<rect width="2.64487" height="2.64487" transform="matrix(-1 0 0 1 12.9167 10.5793)" fill="#DEFF57"/>
<rect width="2.64487" height="2.64487" transform="matrix(-1 0 0 1 12.9167 13.2241)" fill="#DEFF57"/>
<rect width="2.64487" height="2.64487" transform="matrix(-1 0 0 1 12.9167 5.28961)" fill="#DEFF57"/>
<rect width="2.64487" height="2.64487" transform="matrix(-1 0 0 1 12.9167 7.93442)" fill="#DEFF57"/>
<rect width="2.64487" height="2.64487" transform="matrix(-1 0 0 1 10.272 7.93442)" fill="#DEFF57"/>
<rect width="2.64487" height="2.64487" transform="matrix(-1 0 0 1 10.2717 10.5793)" fill="#DEFF57"/>
<rect width="2.64487" height="2.64487" transform="matrix(-1 0 0 1 10.272 2.64462)" fill="#DEFF57"/>
<rect width="2.64487" height="2.64487" transform="matrix(-1 0 0 1 10.272 5.28961)" fill="#DEFF57"/>
<rect width="2.64487" height="2.64487" transform="matrix(-1 0 0 1 7.6272 5.28961)" fill="#DEFF57"/>
<rect width="2.64487" height="2.64487" transform="matrix(-1 0 0 1 7.6272 7.93442)" fill="#DEFF57"/>
<rect width="2.64487" height="2.64487" transform="matrix(-1 0 0 1 39.6729 42.3176)" fill="#DEFF57"/>
<rect width="2.64487" height="2.64487" transform="matrix(-1 0 0 1 37.0281 39.6728)" fill="#DEFF57"/>
<rect width="2.64487" height="2.64487" transform="matrix(-1 0 0 1 34.3831 37.0278)" fill="#DEFF57"/>
<rect width="2.64487" height="2.64487" transform="matrix(-1 0 0 1 31.7383 34.383)" fill="#DEFF57"/>
<rect width="2.64487" height="2.64487" transform="matrix(-1 0 0 1 29.0933 31.7383)" fill="#DEFF57"/>
<rect width="4.33115" height="2.64487" transform="matrix(-1 0 0 1 26.4485 29.0935)" fill="#DEFF57"/>
<rect width="2.64487" height="2.64487" transform="matrix(-1 0 0 1 23.8037 26.4485)" fill="#DEFF57"/>
<rect width="2.64487" height="2.64487" transform="matrix(-1 0 0 1 21.1587 23.8037)" fill="#DEFF57"/>
<rect width="2.64487" height="2.64487" transform="matrix(-1 0 0 1 18.5139 21.1587)" fill="#DEFF57"/>
<rect width="2.64487" height="2.64487" transform="matrix(-1 0 0 1 15.8691 18.5139)" fill="#DEFF57"/>
<rect width="2.64487" height="2.64487" transform="matrix(-1 0 0 1 13.2241 15.8689)" fill="#DEFF57"/>
<rect width="2.64487" height="2.64487" transform="matrix(-1 0 0 1 10.5793 13.2242)" fill="#DEFF57"/>
<rect width="2.64487" height="2.64487" transform="matrix(-1 0 0 1 7.93457 10.5794)" fill="#DEFF57"/>
<rect width="2.64487" height="2.64487" transform="matrix(-1 0 0 1 5.28955 7.93439)" fill="#DEFF57"/>
<rect width="2.64487" height="2.64487" transform="matrix(-1 0 0 1 39.6729 44.9625)" fill="#C3E82D"/>
<rect width="2.64487" height="2.64487" transform="matrix(-1 0 0 1 37.0281 42.3176)" fill="#C3E82D"/>
<rect width="2.64487" height="2.64487" transform="matrix(-1 0 0 1 34.3831 39.6728)" fill="#C3E82D"/>
<rect width="2.64487" height="2.64487" transform="matrix(-1 0 0 1 31.7383 37.0279)" fill="#C3E82D"/>
<rect width="2.64487" height="2.64487" transform="matrix(-1 0 0 1 29.0933 34.383)" fill="#C3E82D"/>
<rect width="4.05538" height="2.64487" transform="matrix(-1 0 0 1 26.4485 31.7382)" fill="#C3E82D"/>
<rect width="2.64487" height="2.64487" transform="matrix(-1 0 0 1 15.8689 21.1586)" fill="#C3E82D"/>
<rect width="2.64487" height="2.64487" transform="matrix(-1 0 0 1 13.2241 18.5138)" fill="#C3E82D"/>
<rect width="2.64487" height="2.64487" transform="matrix(-1 0 0 1 10.5791 15.8689)" fill="#C3E82D"/>
<rect width="2.64487" height="2.64487" transform="matrix(-1 0 0 1 7.93433 13.2241)" fill="#C3E82D"/>
<rect width="2.64487" height="2.64487" transform="matrix(-1 0 0 1 5.28931 10.5793)" fill="#C3E82D"/>
<rect width="2.64487" height="2.64487" transform="matrix(-1 0 0 1 2.64453 7.93433)" fill="#C3E82D"/>
<rect width="2.64487" height="2.64487" transform="matrix(-1 0 0 1 44.9624 39.6592)" fill="#C3E82D"/>
<rect width="2.64487" height="2.64487" transform="matrix(-1 0 0 1 42.3176 42.3041)" fill="#C3E82D"/>
<rect width="2.64487" height="2.64487" transform="matrix(-1 0 0 1 47.2998 37.028)" fill="#C3E82D"/>
<rect width="2.64487" height="2.64487" transform="matrix(-1 0 0 1 44.655 34.3831)" fill="#C3E82D"/>
<rect width="2.64487" height="2.64487" transform="matrix(-1 0 0 1 42.0103 31.7383)" fill="#C3E82D"/>
<rect width="2.64487" height="2.64487" transform="matrix(-1 0 0 1 39.3652 29.0934)" fill="#C3E82D"/>
<rect width="2.64487" height="2.64487" transform="matrix(-1 0 0 1 36.7205 26.4485)" fill="#C3E82D"/>
<rect width="2.64487" height="2.64487" transform="matrix(-1 0 0 1 34.0757 23.8037)" fill="#C3E82D"/>
<rect width="2.64487" height="2.64487" transform="matrix(-1 0 0 1 23.4961 13.2243)" fill="#C3E82D"/>
<rect width="2.64487" height="2.64487" transform="matrix(-1 0 0 1 20.8513 10.5793)" fill="#C3E82D"/>
<rect width="2.64487" height="2.64487" transform="matrix(-1 0 0 1 18.2063 7.9346)" fill="#C3E82D"/>
<rect width="2.64487" height="2.64487" transform="matrix(-1 0 0 1 15.5615 5.28961)" fill="#C3E82D"/>
<rect width="2.64487" height="2.64487" transform="matrix(-1 0 0 1 12.9165 2.64481)" fill="#C3E82D"/>
<rect width="2.64487" height="2.64487" transform="matrix(-1 0 0 1 10.272 0)" fill="#C3E82D"/>
<rect width="2.64487" height="2.64487" transform="matrix(-1 0 0 1 7.62671 2.64783)" fill="#C3E82D"/>
<rect width="2.64487" height="2.64487" transform="matrix(-1 0 0 1 4.98193 5.29272)" fill="#C3E82D"/>
</svg>
