<svg width="11534" height="580" viewBox="0 0 11534 580" fill="none" xmlns="http://www.w3.org/2000/svg">
<path d="M720.288 86.7576H853.548H858V77.9697L851.174 71H820.901L817.339 74.6364H794.189L788.847 80.0909H703.371L698.622 75.8485H585.247L576.64 84.6364H466.233L460 91H716.133L720.288 86.7576Z" fill="white" fill-opacity="0.5"/>
<path d="M260.288 188.758H393.548H398V179.97L391.174 173H360.901L357.339 176.636H334.189L328.847 182.091H243.371L238.622 177.848H125.247L116.64 186.636H6.23266L0 193H256.133L260.288 188.758Z" fill="white" fill-opacity="0.5"/>
<path d="M1112.5 231.5L1109.23 227.638H1028.76L1024.89 224.5H967.284L963.126 227.879H901.951H846.715H606.767L603.5 231.5L972.926 230.052V231.5H1112.5Z" fill="white" fill-opacity="0.5"/>
<path d="M1325.14 297.582L1312.92 282.746H1298.96V287.982H1279.76L1271.91 280.128H1230.89L1217.8 297.582H1198.6L1189 301.945L1194.24 311.545L1212.56 321.144H1341.72L1357.43 306.308L1341.72 297.582H1325.14Z" fill="white" fill-opacity="0.5"/>
<path d="M636.142 176.655L623.925 161.819H609.962V167.055H590.763L582.909 159.201H541.892L528.802 176.655H509.603L500.004 181.018L505.24 190.618L523.566 200.217H652.723L668.432 185.382L652.723 176.655H636.142Z" fill="white" fill-opacity="0.5"/>
<path d="M1371.29 116.525H1291L1301.47 102.562H1321.54L1327.65 90.3449H1352.09L1359.94 79H1393.1L1422.78 108.671L1413.18 123.507H1383.5L1371.29 116.525Z" fill="white" fill-opacity="0.5"/>
<path d="M160.287 323.525H80L90.4722 309.562H110.544L116.653 297.345H141.088L148.942 286H182.104L211.775 315.671L202.176 330.507H172.505L160.287 323.525Z" fill="white" fill-opacity="0.5"/>
<path d="M1446.04 240.016L1436.44 249.616H1400.66L1405.03 235.653H1436.44L1446.04 240.016Z" fill="white" fill-opacity="0.5"/>
<path d="M159.414 336.616L149.815 346.215H114.035L118.398 332.252H149.815L159.414 336.616Z" fill="white" fill-opacity="0.5"/>
<path d="M1215.11 202.963V189H1174.96L1161 202.963L1171.47 213.435H1204.63L1215.11 202.963Z" fill="white" fill-opacity="0.5"/>
<path d="M426.493 148.729V134.766H466.636L480.599 148.729L470.127 159.201H436.965L426.493 148.729Z" fill="white" fill-opacity="0.5"/>
<path d="M4855.9 139.734H4664.4H4658V125.94L4667.81 115H4711.31L4716.43 120.708H4749.7L4757.37 129.27H4880.21L4887.03 122.611H5049.95L5062.32 136.405H5220.98L5229.94 146.394H4861.87L4855.9 139.734Z" fill="white" fill-opacity="0.5"/>
<path d="M6002.96 239.841H5811.46H5805.06V226.047L5814.87 215.107H5858.38L5863.49 220.815H5896.76L5904.44 229.377H6027.27L6034.09 222.717H6197.02L6209.39 236.512H6368.04L6377 246.501H6008.93L6002.96 239.841Z" fill="white" fill-opacity="0.5"/>
<path d="M4658 390.988L4662.69 384.926H4778.34L4783.89 380H4866.68L4872.65 385.304H4960.56H5039.94H5384.75L5389.45 390.988L4858.57 388.714V390.988H4658Z" fill="white" fill-opacity="0.5"/>
<path d="M4050.74 430.208L4068.3 406.921H4088.37V415.14H4115.96L4127.24 402.811H4186.18L4204.99 430.208H4232.58L4246.38 437.057L4238.85 452.125L4212.52 467.193H4026.92L4004.34 443.906L4026.92 430.208H4050.74Z" fill="white" fill-opacity="0.5"/>
<path d="M5462.85 220.844L5480.41 197.557H5500.47V205.776H5528.06L5539.35 193.447H5598.29L5617.1 220.844H5644.69L5658.48 227.693L5650.96 242.761L5624.62 257.83H5439.02L5416.45 234.542L5439.02 220.844H5462.85Z" fill="white" fill-opacity="0.5"/>
<path d="M4040.99 134.903H4156.36L4141.32 112.986H4112.47L4103.69 93.8079H4068.58L4057.29 76H4009.64L3967 122.574L3980.79 145.862H4023.43L4040.99 134.903Z" fill="white" fill-opacity="0.5"/>
<path d="M6146.66 451.384H6262.04L6246.99 429.467H6218.15L6209.37 410.289H6174.25L6162.97 392.481H6115.31L6072.67 439.055L6086.47 462.343H6129.11L6146.66 451.384Z" fill="white" fill-opacity="0.5"/>
<path d="M3877 339.849L3890.79 354.917H3942.21L3935.94 333H3890.79L3877 339.849Z" fill="white" fill-opacity="0.5"/>
<path d="M6147.92 471.932L6161.71 487H6213.13L6206.86 465.083H6161.71L6147.92 471.932Z" fill="white" fill-opacity="0.5"/>
<path d="M4430 279.917V258H4487.69L4507.75 279.917L4492.7 296.355H4445.05L4430 279.917Z" fill="white" fill-opacity="0.5"/>
<path d="M5764.12 177.009V155.091H5706.43L5686.37 177.009L5701.42 193.447H5749.07L5764.12 177.009Z" fill="white" fill-opacity="0.5"/>
<path d="M7483.9 134.734H7292.4H7286V120.94L7295.81 110H7339.31L7344.43 115.708H7377.7L7385.37 124.27H7508.21L7515.03 117.611H7677.95L7690.32 131.405H7848.98L7857.94 141.394H7489.87L7483.9 134.734Z" fill="white" fill-opacity="0.5"/>
<path d="M8630.96 234.841H8439.46H8433.06V221.047L8442.87 210.107H8486.38L8491.49 215.815H8524.76L8532.44 224.377H8655.27L8662.09 217.717H8825.02L8837.39 231.512H8996.04L9005 241.501H8636.93L8630.96 234.841Z" fill="white" fill-opacity="0.5"/>
<path d="M7286 385.988L7290.69 379.926H7406.34L7411.89 375H7494.68L7500.65 380.304H7588.56H7667.94H8012.75L8017.45 385.988L7486.57 383.714V385.988H7286Z" fill="white" fill-opacity="0.5"/>
<path d="M6678.74 425.208L6696.3 401.921H6716.37V410.14H6743.96L6755.24 397.811H6814.18L6832.99 425.208H6860.58L6874.38 432.057L6866.85 447.125L6840.52 462.193H6654.92L6632.34 438.906L6654.92 425.208H6678.74Z" fill="white" fill-opacity="0.5"/>
<path d="M8090.85 215.844L8108.41 192.557H8128.47V200.776H8156.06L8167.35 188.447H8226.29L8245.1 215.844H8272.69L8286.48 222.693L8278.96 237.761L8252.62 252.83H8067.02L8044.45 229.542L8067.02 215.844H8090.85Z" fill="white" fill-opacity="0.5"/>
<path d="M6668.99 129.903H6784.36L6769.32 107.986H6740.47L6731.69 88.8079H6696.58L6685.29 71H6637.64L6595 117.574L6608.79 140.862H6651.43L6668.99 129.903Z" fill="white" fill-opacity="0.5"/>
<path d="M8774.66 446.384H8890.04L8874.99 424.467H8846.15L8837.37 405.289H8802.25L8790.97 387.481H8743.31L8700.67 434.055L8714.47 457.343H8757.11L8774.66 446.384Z" fill="white" fill-opacity="0.5"/>
<path d="M6505 334.849L6518.79 349.917H6570.21L6563.94 328H6518.79L6505 334.849Z" fill="white" fill-opacity="0.5"/>
<path d="M8775.92 466.932L8789.71 482H8841.13L8834.86 460.083H8789.71L8775.92 466.932Z" fill="white" fill-opacity="0.5"/>
<path d="M7058 274.917V253H7115.69L7135.75 274.917L7120.7 291.355H7073.05L7058 274.917Z" fill="white" fill-opacity="0.5"/>
<path d="M8392.12 172.009V150.091H8334.43L8314.37 172.009L8329.42 188.447H8377.07L8392.12 172.009Z" fill="white" fill-opacity="0.5"/>
<path d="M10012.9 149.734H9821.4H9815V135.94L9824.81 125H9868.31L9873.43 130.708H9906.7L9914.37 139.27H10037.2L10044 132.611H10207L10219.3 146.405H10378L10386.9 156.394H10018.9L10012.9 149.734Z" fill="white" fill-opacity="0.5"/>
<path d="M11160 249.841H10968.5H10962.1V236.047L10971.9 225.107H11015.4L11020.5 230.815H11053.8L11061.4 239.377H11184.3L11191.1 232.717H11354L11366.4 246.512H11525L11534 256.501H11165.9L11160 249.841Z" fill="white" fill-opacity="0.5"/>
<path d="M9815 400.988L9819.69 394.926H9935.34L9940.89 390H10023.7L10029.7 395.304H10117.6H10196.9H10541.8L10546.4 400.988L10015.6 398.714V400.988H9815Z" fill="white" fill-opacity="0.5"/>
<path d="M9207.74 440.208L9225.3 416.921H9245.37V425.14H9272.96L9284.24 412.811H9343.18L9361.99 440.208H9389.58L9403.38 447.057L9395.85 462.125L9369.52 477.193H9183.92L9161.34 453.906L9183.92 440.208H9207.74Z" fill="white" fill-opacity="0.5"/>
<path d="M10619.8 230.844L10637.4 207.557H10657.5V215.776H10685.1L10696.3 203.447H10755.3L10774.1 230.844H10801.7L10815.5 237.693L10808 252.761L10781.6 267.83H10596L10573.4 244.542L10596 230.844H10619.8Z" fill="white" fill-opacity="0.5"/>
<path d="M9197.99 144.903H9313.36L9298.32 122.986H9269.47L9260.69 103.808H9225.58L9214.29 86H9166.64L9124 132.574L9137.79 155.862H9180.43L9197.99 144.903Z" fill="white" fill-opacity="0.5"/>
<path d="M11303.7 461.384H11419L11404 439.467H11375.1L11366.4 420.289H11331.3L11320 402.481H11272.3L11229.7 449.055L11243.5 472.343H11286.1L11303.7 461.384Z" fill="white" fill-opacity="0.5"/>
<path d="M9034 349.849L9047.79 364.917H9099.21L9092.94 343H9047.79L9034 349.849Z" fill="white" fill-opacity="0.5"/>
<path d="M11304.9 481.932L11318.7 497H11370.1L11363.9 475.083H11318.7L11304.9 481.932Z" fill="white" fill-opacity="0.5"/>
<path d="M9587 289.917V268H9644.69L9664.75 289.917L9649.7 306.355H9602.05L9587 289.917Z" fill="white" fill-opacity="0.5"/>
<path d="M10921.1 187.009V165.091H10863.4L10843.4 187.009L10858.4 203.447H10906.1L10921.1 187.009Z" fill="white" fill-opacity="0.5"/>
<path d="M2693.67 23.8449H2522.48H2516.76V11.1045L2525.53 1H2564.42L2568.99 6.2719H2598.73L2605.6 14.1798H2715.4L2721.5 8.02921H2867.15L2878.21 20.7696H3020.05L3028.05 29.9955H2699.01L2693.67 23.8449Z" fill="white" fill-opacity="0.5"/>
<path d="M3284.62 171.721H3113.42H3107.7V158.981L3116.47 148.876H3155.36L3159.94 154.148H3189.68L3196.54 162.056H3306.35L3312.45 155.906H3458.1L3469.16 168.646H3610.99L3619 177.872H3289.96L3284.62 171.721Z" fill="white" fill-opacity="0.5"/>
<path d="M2189.81 233.689L2194.01 228.09H2297.39L2302.35 223.541H2376.36L2381.71 228.44H2460.3H2531.25H2839.51L2843.7 233.689L2369.12 231.589V233.689H2189.81Z" fill="white" fill-opacity="0.5"/>
<path d="M1764.48 296.304L1780.18 274.796H1798.11V282.387H1822.78L1832.87 271H1885.56L1902.38 296.304H1927.04L1939.37 302.63L1932.65 316.547L1909.1 330.464H1743.18L1723 308.956L1743.18 296.304H1764.48Z" fill="white" fill-opacity="0.5"/>
<path d="M2801.77 154.176L2817.47 132.667H2835.4V140.258H2860.07L2870.16 128.872H2922.85L2939.67 154.176H2964.33L2976.66 160.501L2969.94 174.419L2946.39 188.336H2780.47L2760.29 166.827L2780.47 154.176H2801.77Z" fill="white" fill-opacity="0.5"/>
<path d="M1640.15 177.403H1743.29L1729.83 157.16H1704.05L1696.2 139.448H1664.81L1654.72 123H1612.12L1574 166.017L1586.33 187.525H1624.45L1640.15 177.403Z" fill="white" fill-opacity="0.5"/>
<path d="M3413.08 367.105H3516.23L3502.77 346.861H3476.99L3469.14 329.149H3437.75L3427.66 312.701H3385.06L3346.94 355.718L3359.27 377.226H3397.39L3413.08 367.105Z" fill="white" fill-opacity="0.5"/>
<path d="M1694.32 120.382L1706.65 134.299H1752.62L1747.01 114.056H1706.65L1694.32 120.382Z" fill="white" fill-opacity="0.5"/>
<path d="M3414.21 386.083L3426.54 400H3472.5L3466.9 379.757H3426.54L3414.21 386.083Z" fill="white" fill-opacity="0.5"/>
<path d="M2058 192.316V172.073H2109.57L2127.5 192.316L2114.05 207.499H2071.45L2058 192.316Z" fill="white" fill-opacity="0.5"/>
<path d="M3071.1 113.689V93.4458H3019.53L3001.59 113.689L3015.04 128.871H3057.65L3071.1 113.689Z" fill="white" fill-opacity="0.5"/>
<circle opacity="0.07" cx="2469.83" cy="289.831" r="289.831" fill="white"/>
<circle opacity="0.07" cx="2469.83" cy="289.831" r="184.419" fill="white"/>
<circle opacity="0.46" cx="2469.83" cy="289.828" r="128.42" fill="#FFDC00"/>
<circle cx="2469.83" cy="289.83" r="63.9042" fill="#FFDC00"/>
</svg>
