<svg width="12" height="8" viewBox="0 0 12 8" fill="none" xmlns="http://www.w3.org/2000/svg">
<path fill-rule="evenodd" clip-rule="evenodd" d="M0.000366211 2.42981H11.591V6.25443H10.6372V7.2083H11.591V7.20849H0.000366211V7.20835H0.954239V6.25447H0.000366211V2.42981Z" fill="#F3D448"/>
<rect x="4.95056" width="1.69181" height="0.809913" fill="#F3D448"/>
<rect x="4.96814" y="4.98291" width="1.69181" height="0.740598" fill="#5583F5"/>
<rect x="10.6381" y="4.91357" width="0.953871" height="0.809913" fill="#5583F5"/>
<rect width="0.973342" height="0.809913" transform="matrix(-1 0 0 1 0.973999 4.91357)" fill="#5583F5"/>
<rect x="6.64197" y="4.98291" width="1.69181" height="0.809913" transform="rotate(-90 6.64197 4.98291)" fill="#5583F5"/>
<rect x="4.14099" y="4.98291" width="1.69181" height="0.809913" transform="rotate(-90 4.14099 4.98291)" fill="#5583F5"/>
<rect x="9.82751" y="4.93152" width="1.69181" height="0.809913" transform="rotate(-90 9.82751 4.93152)" fill="#5583F5"/>
<rect width="1.69181" height="0.826445" transform="matrix(4.46026e-08 -1 -1 -4.2838e-08 1.80017 4.93152)" fill="#5583F5"/>
<rect x="4.95056" y="2.48108" width="1.69181" height="0.809913" fill="#5583F5"/>
<rect x="10.6381" y="2.42981" width="0.953871" height="0.809913" fill="#5583F5"/>
<rect width="0.973342" height="0.809913" transform="matrix(-1 0 0 1 0.973999 2.42993)" fill="#5583F5"/>
<rect x="10.7103" width="0.881896" height="0.809913" fill="#F3D448"/>
<rect width="0.881896" height="0.809913" transform="matrix(-1 0 0 1 0.882202 0)" fill="#F3D448"/>
<rect x="4.14099" y="0.810059" width="3.31161" height="0.809913" fill="#F3D448"/>
<rect x="9.8988" y="0.810059" width="1.6918" height="0.809913" fill="#F3D448"/>
<rect width="1.6918" height="0.809913" transform="matrix(-1 0 0 1 1.69177 0.810059)" fill="#F3D448"/>
<rect x="3.34802" y="1.61987" width="4.89545" height="0.809913" fill="#F3D448"/>
<rect x="9.10779" y="1.61987" width="2.48373" height="0.809913" fill="#F3D448"/>
<rect width="2.48373" height="0.809913" transform="matrix(-1 0 0 1 2.48376 1.61987)" fill="#F3D448"/>
</svg>
