<svg width="749" height="327" viewBox="0 0 749 327" fill="none" xmlns="http://www.w3.org/2000/svg">
<path d="M25.6024 8.37201C29.9259 2.68324 46.9186 7.74086 52.6665 21.2691C58.4144 34.7973 105.782 156.787 105.782 156.787L91.2611 156.299L39.9941 35.6376C32.6403 20.7888 20.8605 17.6088 25.6024 8.37201Z" fill="#FF4DC2"/>
<path d="M68.2264 72.9597C67.0139 70.1058 63.7183 68.7749 60.8655 69.987C58.0128 71.1991 56.6832 74.4952 57.8957 77.349L91.0982 155.494L101.429 151.105L68.2264 72.9597Z" fill="#16101C"/>
<path d="M3.0199 26.0602C6.43386 19.7832 23.9958 22.2142 31.7225 34.7182C39.4492 47.2221 104.712 160.651 104.712 160.651L90.2842 162.363L21.3676 50.8371C11.8538 37.2705 -0.271329 35.9076 3.0199 26.0602Z" fill="#FF4DC2"/>
<path d="M54.9169 83.4631C53.2869 80.8253 49.828 80.0078 47.1913 81.6372C44.5545 83.2665 43.7384 86.7258 45.3684 89.3636L90.0014 161.592L99.5499 155.691L54.9169 83.4631Z" fill="#16101C"/>
<g clip-path="url(#clip0_35_697)">
<path fill-rule="evenodd" clip-rule="evenodd" d="M175.692 75.757L162.059 77.2186C161.341 74.3874 161.372 71.5206 161.543 69.0565C161.679 67.0813 161.948 63.8452 162.32 62.1721C164.786 51.0859 170.794 46.945 172.636 48.3553C173.686 49.1587 173.3 49.9915 171.676 52.4549C174.09 48.5776 176.459 47.2923 178.227 48.6384C179.994 49.9844 177.19 52.6175 176.119 54.1717C177.259 52.6287 179.84 49.3697 181.941 50.927C183.213 51.8702 183.074 53.4551 180.86 56.205C181.292 55.5715 183.585 53.0016 184.746 55.6559C185.864 59.0436 179.925 62.3589 178.836 66.982C178.534 68.2629 175.689 75.7536 175.689 75.7536L175.692 75.757Z" fill="#FDD000"/>
<path d="M155.656 31.6617C166.285 36.2954 166.029 42.9217 165.811 44.4655L157.522 63.4894L157.64 63.5413C157.592 63.6098 157.545 63.6751 157.494 63.7469C157.494 63.7469 153.1 70.5637 141.001 65.2907C120.019 56.1474 128.493 39.8322 128.493 39.8322C128.493 39.8322 134.673 22.5184 155.656 31.6617V31.6617Z" fill="#B4020A"/>
<path d="M181.803 67.6736C176.803 64.1075 171.42 61.2089 165.531 59.1938C165.153 59.0644 164.772 58.9382 164.391 58.8153C162.98 58.3656 161.542 57.965 160.074 57.6168L163.018 50.8588C164.272 51.6992 165.544 52.4803 166.834 53.2055C167.184 53.4039 167.534 53.5957 167.888 53.7842C173.373 56.7244 179.16 58.6912 185.176 59.9282L181.8 67.6703L181.803 67.6736Z" fill="#294563"/>
<path d="M164.399 58.8171C161.863 59.4874 159.654 60.7227 157.64 63.5425L157.522 63.4907L160.079 57.6185C161.548 57.9634 162.989 58.3641 164.396 58.817L164.399 58.8171Z" fill="#E3CF9E"/>
<path d="M165.81 44.4649C165.78 44.6793 165.751 44.7945 165.751 44.7945C164.978 48.3155 165.575 50.8402 166.841 53.2087C165.551 52.4835 164.279 51.7023 163.025 50.862L165.81 44.4682L165.81 44.4649Z" fill="#E3CF9E"/>
<path fill-rule="evenodd" clip-rule="evenodd" d="M161.558 69.6947C162.303 69.4639 161.663 64.2595 161.553 60.2292C161.463 56.9367 164.53 54.3846 164.945 53.764C165.918 52.3071 168.608 52.5988 168.929 53.9939C169.104 54.7446 167.089 57.2833 166.932 59.8039C166.799 61.9676 168.53 64.2126 168.53 64.2126L161.555 69.6913L161.558 69.6947Z" fill="#FDD000"/>
<path d="M158.557 73.3613L179.614 74.0691L166.781 113.057L112.482 85.0908L118.931 83.3494L150.421 94.5809L158.557 73.3613Z" fill="#1E1E1E"/>
<path d="M221.908 61.6932C221.908 61.6932 229.325 133.415 220.015 137.686C210.704 141.957 192.428 139.521 192.428 139.521L193.336 90.9213C193.336 90.9213 199.042 45.2386 204.966 40.0577C210.89 34.8768 259.406 42.7687 259.406 42.7687C259.406 42.7687 253.251 49.3575 249.749 59.9117L221.908 61.6932V61.6932Z" fill="#2C2C2C"/>
<path d="M197.148 96.8643C197.148 96.8643 199.491 138.58 202.382 139.957C205.273 141.334 216.719 141.548 221.947 140.323C227.176 139.097 262.456 89.4862 262.456 89.4862L289.331 125.78C289.331 125.78 308.334 122.239 310.537 115.887C311.631 112.723 297.97 91.7839 288.866 80.058C279.762 68.3322 271.796 51.7924 267.956 51.4461C234.735 48.4406 198.233 110.296 197.148 96.8643V96.8643Z" fill="#2C2C2C"/>
<path d="M194.568 93.1973L213.904 149.466L192.248 143.858L109.965 142.423L104.019 83.5117L114.35 83.7048L152.891 103.095L194.568 93.1973Z" fill="#2C2C2C"/>
<path fill-rule="evenodd" clip-rule="evenodd" d="M121.216 87.5949L123.864 88.491L152.881 103.089L141.984 102.886L119.438 94.239L121.216 87.5949Z" fill="#E2E2E2"/>
<path d="M249.794 59.3005L259.765 72.6069L288.209 31.3213C288.209 31.3213 280.687 26.2562 275.565 29.0278C273.202 30.3066 266.694 35.2583 261.524 42.388C248.876 46.4941 249.794 59.2972 249.794 59.2972L249.794 59.3005Z" fill="#3D3D3D"/>
<path d="M287.948 31.693C287.74 31.3353 287.494 31.0132 287.212 30.7169C286.384 30.2483 285.1 29.5893 283.608 29.0653C279.233 29.3837 272.94 36.0824 270.043 40.3045C264.1 48.9578 263.171 53.0084 263.171 53.0084L265.842 54.8839C265.842 54.8839 257.786 65.4456 257.562 69.6681L259.185 71.8349C259.531 71.9109 259.904 71.9046 260.303 71.8195L270.44 57.103L270.248 56.9506C270.248 56.9506 270.364 56.9429 270.566 56.9202L287.945 31.693L287.948 31.693Z" fill="white"/>
<path d="M282.943 52.4353C279.689 57.5073 271.583 58.0503 271.583 58.0503L274.314 60.1982C274.314 60.1982 262.752 77.3585 259.136 71.9232C257.219 69.0398 267.177 55.9836 267.177 55.9836L264.506 54.1081C264.506 54.1081 265.435 50.0542 271.378 41.4043C274.765 36.467 282.808 28.1275 286.982 30.5967C291.156 33.0659 292.164 38.0457 282.943 52.4386L282.943 52.4353Z" fill="#E2E2E2"/>
<path d="M290.766 121.679L290.475 137.25L335.703 138.096L335.793 133.299C335.861 129.652 333.317 126.479 329.742 125.754L313.374 122.432L308.834 116.741L290.766 121.679Z" fill="#2C2C2C"/>
<path d="M336.364 138.108L289.811 137.238L289.746 140.716L336.299 141.586L336.364 138.108Z" fill="white"/>
<path fill-rule="evenodd" clip-rule="evenodd" d="M111.412 90.7649L121.179 95.161L121.286 89.4347L123.86 88.4973L115.977 84.5333L111.412 90.7649Z" fill="#FCFCFC"/>
<path d="M111.421 90.7686L151.807 102.56L165.908 102.823L151.834 106.992L122.299 104.003L125.476 98.767L114.14 96.5972L111.421 90.7686Z" fill="#161616"/>
<path d="M121.246 92.0314L124.795 92.8717L126.117 90.7996L123.086 88.7784L121.294 89.4295L121.246 92.0314Z" fill="#453FFF"/>
<path d="M126.116 90.8043L148.042 100.402L167.473 142.681L162.676 150.543L156.049 141.83L143.836 101.259L124.794 92.8764" fill="#453FFF"/>
<path fill-rule="evenodd" clip-rule="evenodd" d="M171.742 142.549L179.888 125.735C182.563 127.016 184.325 129.344 186.329 130.787C187.934 131.941 190.551 133.872 191.778 135.069C199.908 142.996 200.275 150.283 198.106 151.112C196.871 151.582 196.366 150.818 195.123 148.139C197.153 152.232 196.997 154.924 194.925 155.716C192.829 156.517 192.083 152.742 191.328 151.012C192.039 152.791 193.458 156.704 191.025 157.67C189.556 158.255 188.277 157.305 187.106 153.975C187.417 154.676 188.397 157.978 185.527 157.567C182.057 156.739 182.362 149.941 179.002 146.584C178.07 145.654 171.745 142.549 171.745 142.549L171.742 142.549Z" fill="#FDD000"/>
<path d="M108.021 85.6452C104.927 82.5744 89.2287 78.2395 83.8362 91.9532C78.4435 105.67 99.1093 138.835 106.792 142.359C114.475 145.882 171.729 143.367 171.729 143.367L184.466 125.068L122.561 120.458C122.561 120.458 113.976 91.5509 108.021 85.6452Z" fill="#333333"/>
<path fill-rule="evenodd" clip-rule="evenodd" d="M97.9817 40.2323C97.9817 40.2323 104.89 26.8313 109.507 28.0355C114.125 29.2397 113.672 47.0773 113.672 47.0773L97.9816 40.2356L97.9817 40.2323Z" fill="#FDD000"/>
<path fill-rule="evenodd" clip-rule="evenodd" d="M99.65 40.0772C99.65 40.0772 105.233 29.251 108.962 30.2236C112.691 31.1962 112.326 45.6058 112.326 45.6058L99.65 40.0772Z" fill="#CEAA11"/>
<path fill-rule="evenodd" clip-rule="evenodd" d="M81.1172 47.7186C81.1172 47.7186 66.5449 43.8479 64.3392 48.0796C62.1335 52.3114 75.6611 63.9446 75.6611 63.9446L81.1172 47.7186Z" fill="#FDD000"/>
<path fill-rule="evenodd" clip-rule="evenodd" d="M79.8701 48.8512C79.8701 48.8512 68.0951 45.724 66.3147 49.1435C64.5342 52.563 75.4645 61.9583 75.4645 61.9583L79.8734 48.8513L79.8701 48.8512Z" fill="#CEAA11"/>
<path fill-rule="evenodd" clip-rule="evenodd" d="M124.515 59.3394C124.344 58.9459 124.169 58.559 123.991 58.172C123.94 58.0686 123.889 57.9618 123.835 57.8582C123.708 57.5979 123.58 57.3375 123.449 57.0837C123.341 56.87 123.232 56.6597 123.124 56.4493C123.12 56.4492 123.117 56.4392 123.117 56.4326C122.955 56.122 122.788 55.8212 122.625 55.5172C122.459 55.2032 122.289 54.9057 122.123 54.6149C122.11 54.5915 122.101 54.5715 122.084 54.5513C122.03 54.4577 121.979 54.3674 121.924 54.2738C121.729 53.9361 121.533 53.605 121.338 53.2806C121.023 52.7654 120.727 52.3034 120.474 51.9051C120.454 51.8717 120.438 51.8449 120.412 51.8147C120.297 51.6273 120.171 51.4398 120.046 51.2555C120.01 51.2053 119.982 51.1584 119.949 51.1115L119.821 50.9206L119.708 50.7564C119.676 50.7095 119.644 50.6626 119.611 50.6157C119.595 50.5989 119.582 50.5755 119.569 50.5554C119.534 50.5018 119.495 50.4515 119.457 50.3978L119.161 49.9624L119.16 49.9657C118.649 49.2186 118.13 48.4978 117.61 47.8101L117.61 47.8035C117.61 47.8035 117.6 47.7934 117.597 47.79C116.109 45.4934 114.338 43.423 112.075 41.737C106.564 36.8417 100.71 34.8802 94.5533 35.5093C93.4797 35.6182 92.3947 35.8063 91.2983 36.0735C89.8664 36.4205 88.4155 36.8993 86.9456 37.5069C86.9457 37.5036 86.799 37.567 86.7222 37.6019C86.6455 37.6369 86.5021 37.7003 86.502 37.7036C85.0672 38.3846 83.7368 39.1369 82.5208 39.9675C81.5895 40.6016 80.7202 41.2799 79.9196 42.0024C75.3244 46.1465 72.8506 51.8054 72.7824 59.1694C72.5114 61.9854 72.8609 64.6973 73.5688 67.3465C73.5688 67.3465 73.5688 67.3465 73.5687 67.3498C73.7248 68.1994 73.9104 69.0627 74.1222 69.9431L74.2449 70.4547L74.2571 70.5112C74.3029 70.7138 74.3486 70.923 74.401 71.129C74.4319 71.2421 74.4562 71.3583 74.4872 71.4713C74.5486 71.7205 74.6134 71.973 74.6814 72.2257C74.8021 72.6711 74.9413 73.183 75.1094 73.7484C75.1934 74.0311 75.2871 74.3239 75.3776 74.6133C75.4402 74.8063 75.4994 74.9992 75.5652 75.1923C75.565 75.2055 75.5713 75.2189 75.5778 75.2289C75.972 76.4335 76.4219 77.6656 76.9307 78.9319C76.9466 78.9653 76.9591 79.0052 76.975 79.0385C77.1397 79.4286 77.3076 79.822 77.4822 80.2122L77.4915 80.2454C77.4915 80.2454 77.4946 80.2554 77.5012 80.2589C77.7934 80.9026 78.1023 81.5434 78.4345 82.1681C79.4248 84.0387 80.5964 85.7671 81.9455 87.016C82.3202 87.3207 82.7216 87.6093 83.1431 87.8818C83.5647 88.1542 84.013 88.4074 84.4816 88.641C84.5111 88.6581 84.5406 88.6719 84.5734 88.6857C84.6062 88.6996 84.6324 88.7133 84.6652 88.7304C87.7561 90.2203 91.8811 90.8828 97.2189 90.1822C97.2189 90.1822 109.111 92.0217 113.447 88.9973C117.783 85.9761 118.539 80.897 118.669 80.6679C122.769 77.176 125.044 73.6797 126.015 70.3807C126.036 70.3182 126.054 70.2524 126.072 70.1866C126.284 69.4299 126.427 68.6818 126.507 67.9491C126.535 67.7049 126.553 67.4605 126.567 67.2193C126.563 66.9117 126.546 66.6005 126.518 66.2858C126.318 64.0761 125.53 61.6569 124.541 59.3895L124.541 59.3796L124.541 59.3696L124.518 59.3394L124.515 59.3394Z" fill="#FDD000"/>
<path d="M91.6796 37.0358C93.6441 37.7472 95.4858 37.947 97.149 37.4357C95.3526 38.7019 93.8037 40.0025 93.0167 41.4099C92.9962 41.4459 92.9757 41.4819 92.9585 41.5179L92.7045 41.6587L92.0869 40.7244C92.0869 40.7244 93.606 38.9008 94.5078 38.6067C95.4095 38.3127 92.1687 39.1815 91.3833 38.0291C90.5978 36.8767 90.2805 36.335 90.2805 36.335C90.6056 36.1062 95.0529 35.2733 95.8241 35.42C93.1239 36.3848 91.6797 37.0325 91.6797 37.0325L91.6796 37.0358Z" fill="#2C2C2C"/>
<path d="M88.6274 38.7443C88.2089 40.7903 87.4202 42.4655 86.1121 43.6185C88.1293 42.7467 90.0495 42.1079 91.6591 42.1678C91.702 42.1686 91.7417 42.1693 91.7846 42.1734L92.0386 42.0326L91.5649 41.0151C91.5649 41.0151 89.2169 41.3581 88.4943 41.9763C87.7716 42.5945 90.2027 40.2818 89.6345 39.0111C89.0662 37.7404 88.6749 36.9129 88.6749 36.9129C88.6749 36.9129 85.4576 40.2361 84.8197 40.922C87.0527 39.1249 88.6308 38.741 88.6308 38.741L88.6274 38.7443Z" fill="#2C2C2C"/>
<path d="M91.6796 37.0358C93.6441 37.7472 95.4858 37.947 97.149 37.4357C95.3526 38.7019 93.8037 40.0025 93.0167 41.4099C92.9962 41.4459 92.9757 41.4819 92.9585 41.5179L92.7045 41.6587L92.0869 40.7244C92.0869 40.7244 93.606 38.9008 94.5078 38.6067C95.4095 38.3127 92.1687 39.1815 91.3833 38.0291C90.5978 36.8767 90.2805 36.335 90.2805 36.335C90.6056 36.1062 95.0529 35.2733 95.8241 35.42C93.1239 36.3848 91.6797 37.0325 91.6797 37.0325L91.6796 37.0358Z" fill="#2C2C2C"/>
<path d="M88.6274 38.7443C88.2089 40.7903 87.4202 42.4655 86.1121 43.6185C88.1293 42.7467 90.0495 42.1079 91.6591 42.1678C91.702 42.1686 91.7417 42.1693 91.7846 42.1734L92.0386 42.0326L91.5649 41.0151C91.5649 41.0151 89.2169 41.3581 88.4943 41.9763C87.7716 42.5945 90.2027 40.2818 89.6345 39.0111C89.0662 37.7404 88.6749 36.9129 88.6749 36.9129C88.6749 36.9129 85.4576 40.2361 84.8197 40.922C87.0527 39.1249 88.6308 38.741 88.6308 38.741L88.6274 38.7443Z" fill="#2C2C2C"/>
<path fill-rule="evenodd" clip-rule="evenodd" d="M124.518 59.34C124.346 58.9466 124.172 58.5596 123.994 58.1727C123.987 58.2023 123.98 58.2253 123.969 58.2549C122.993 61.6597 119.11 63.0588 114.715 64.1012C113.528 65.8484 111.099 70.0131 104.627 68.5891C102.397 73.9416 89.6835 76.4291 87.5888 76.1353C83.8667 78.6917 80.2254 80.6345 77.0433 79.0702C77.0203 79.0598 76.9974 79.0495 76.9712 79.0357C77.1358 79.4258 77.3038 79.8192 77.4784 80.2094L77.4877 80.2426C77.4877 80.2426 77.4908 80.2526 77.4974 80.2561C80.4964 82.5908 84.7107 83.255 89.0574 83.7364L84.7998 88.7501C84.7503 88.7425 84.7042 88.735 84.6548 88.7242C87.7457 90.214 91.8707 90.8765 97.2085 90.1759C97.2085 90.1759 106.568 92.6759 112.544 90.0426C117.066 88.0501 118.705 80.9966 118.76 80.8984C118.76 80.8951 125.231 75.6649 126.008 70.3745C125.984 70.4171 125.957 70.4595 125.93 70.4987L119.359 70.2899C121.915 66.746 124.257 63.1782 124.537 59.3867C124.537 59.3867 124.537 59.3701 124.537 59.3668L124.521 59.3368L124.518 59.34Z" fill="#FCFCFC"/>
<path d="M111.901 60.711C112.574 62.2284 111.365 62.8143 109.855 63.4872C108.344 64.1601 107.091 64.6593 106.418 63.1452C105.745 61.6311 105.204 57.8474 106.998 57.0508C108.786 56.2574 111.231 59.197 111.901 60.711Z" fill="#65523D"/>
<path d="M123.985 58.1797C123.978 58.2093 123.971 58.2323 123.96 58.2619C122.984 61.6667 119.102 63.0659 114.707 64.1082C117.409 60.1999 118.896 55.4883 119.158 49.9767C119.258 50.1208 119.358 50.2582 119.454 50.4056C119.489 50.4591 119.528 50.5095 119.567 50.5631C119.58 50.5832 119.592 50.6033 119.609 50.6234C119.638 50.6703 119.67 50.7172 119.705 50.7641L119.818 50.9283L119.947 51.1192C119.979 51.1661 120.008 51.213 120.043 51.2632C120.169 51.4475 120.294 51.635 120.41 51.8224C120.436 51.8526 120.452 51.8827 120.471 51.9128C120.725 52.3111 121.02 52.7698 121.335 53.2883C121.531 53.6127 121.726 53.9438 121.922 54.2815C121.976 54.3751 122.027 54.4654 122.078 54.5623C122.085 54.5723 122.091 54.5823 122.094 54.5923C122.101 54.6024 122.107 54.6124 122.11 54.6224L122.114 54.6224L122.113 54.6324C122.28 54.9265 122.45 55.224 122.616 55.5281C122.779 55.8321 122.945 56.1329 123.108 56.4435C123.108 56.4534 123.108 56.46 123.114 56.4602C123.223 56.6672 123.335 56.881 123.44 57.0946C123.571 57.3517 123.698 57.6088 123.826 57.8691C123.88 57.9727 123.931 58.0794 123.982 58.1829L123.985 58.1797Z" fill="#2C2C2C"/>
<path d="M124.533 59.3868C125.662 61.9777 126.533 64.7655 126.56 67.2167C126.505 68.1814 126.344 69.1706 126.064 70.1807C126.043 70.2464 126.029 70.3123 126.008 70.3747C125.984 70.4173 125.957 70.4598 125.929 70.4989L119.358 70.2901C121.915 66.7462 124.257 63.1784 124.536 59.3869L124.533 59.3868Z" fill="#2C2C2C"/>
<path d="M107.813 69.317C107.842 69.5358 107.861 69.7446 107.871 69.9498L107.867 69.9497C107.941 71.4691 107.481 72.5751 106.443 73.2304C106.426 73.2466 106.403 73.2561 106.383 73.2689C106.376 73.2754 106.37 73.2786 106.363 73.2818C106.366 73.2918 106.239 73.3655 106.172 73.3907C106.109 73.4226 105.966 73.4695 105.963 73.4595C105.956 73.4594 105.949 73.4659 105.94 73.4657C105.913 73.4718 105.89 73.4813 105.866 73.4842C104.683 73.8126 103.559 73.4113 102.481 72.3394L102.478 72.3394C102.332 72.1977 102.193 72.043 102.047 71.8749C100.778 70.3861 101.721 68.9452 103.613 68.2232C103.687 68.1948 103.763 68.1664 103.84 68.1381C103.913 68.0965 103.987 68.0615 104.057 68.0264C105.863 67.1077 107.565 67.3743 107.813 69.317V69.317Z" fill="#2C2C2C"/>
<path d="M95.8509 67.836C96.5237 69.3534 95.3121 69.9426 93.8014 70.6122C92.2907 71.2818 91.0378 71.7842 90.3649 70.2701C89.6921 68.756 89.151 64.9723 90.9452 64.1757C92.7394 63.3791 95.1814 66.322 95.8509 67.836V67.836Z" fill="#65523D"/>
<path d="M72.776 59.174C75.1845 63.5549 78.1683 66.8783 82.2 68.2898C79.0191 70.7273 75.9857 71.8215 73.5591 67.351C72.8512 64.7019 72.5017 61.99 72.7727 59.174L72.776 59.174Z" fill="#2C2C2C"/>
<path d="M87.5892 76.1447C83.867 78.7011 80.2257 80.6439 77.0436 79.0796C77.0206 79.0692 76.9977 79.0589 76.9715 79.0451C76.9556 79.0118 76.9431 78.9719 76.9272 78.9385C76.4184 77.6722 75.9685 76.4401 75.5743 75.2355C75.5711 75.2255 75.5648 75.2122 75.5617 75.1989C75.4959 75.0058 75.4366 74.8129 75.3741 74.6199C75.2836 74.3305 75.1898 74.041 75.1058 73.755C74.9411 73.1897 74.7986 72.6777 74.6779 72.2323C74.6065 71.9829 74.5451 71.7304 74.4837 71.4779C74.4527 71.3649 74.4284 71.2486 74.3974 71.1356C74.3484 70.9297 74.2993 70.7237 74.2536 70.5178C74.2506 70.4979 74.2443 70.4812 74.2414 70.4613L74.1187 69.9497C78.379 73.459 82.8714 75.524 87.586 76.138L87.5892 76.1447Z" fill="#2C2C2C"/>
<path d="M89.0591 83.7406L84.8015 88.7543C84.752 88.7467 84.7058 88.7392 84.6564 88.7284C84.5942 88.6975 84.5351 88.6732 84.4761 88.6423C83.539 88.175 82.6927 87.6267 81.9401 87.0174C80.1456 85.35 78.6614 82.8352 77.499 80.2603C80.4981 82.595 84.7124 83.2592 89.0591 83.7406Z" fill="#2C2C2C"/>
<path d="M99.8708 56.3832C99.8708 56.3832 99.5726 53.0505 99.4479 52.466C99.3235 51.8684 98.4848 51.264 98.4879 51.274C98.4882 51.2608 99.6498 50.6872 100.391 50.3075C101.134 49.8616 102.795 48.0307 102.791 48.0604C102.797 48.0804 101.504 48.2513 99.554 48.3835C97.6156 48.5755 97.1103 48.5396 97.1043 48.5031C97.0743 48.3405 100.51 46.2219 100.69 46.1525C100.854 45.9108 100.626 45.685 100.671 45.4444C100.773 44.7253 106.588 43.984 106.46 44.4579C106.486 44.4782 104.906 43.8964 103.095 43.9981C101.3 43.9976 99.2693 44.6807 98.7862 44.8701C97.8486 45.137 96.825 45.4023 96.8281 45.4089C96.7614 45.4408 99.0486 43.218 101.461 42.2379C103.878 41.0759 106.413 41.1563 106.914 41.599C105.776 40.1721 102.935 39.3318 100.508 39.8057C98.0613 40.1271 96.0264 41.7659 96.0804 41.7073C97.6205 41.0581 99.1431 41.1726 100.575 41.7285C98.9007 42.8151 97.2327 44.2887 95.7063 46.1519C95.8916 46.3241 99.1179 45.1706 99.4734 45.2633C100.234 45.1022 100.005 45.852 99.8925 46.0185C99.7506 46.0027 96.1799 48.595 96.2228 48.7777C96.687 49.0675 98.2114 49.0827 99.7307 49.3658C98.8684 49.8524 98.0139 50.4449 97.1841 51.1372C97.1779 51.1139 98.4298 51.9046 98.7026 52.5282C98.9662 53.1119 99.8643 56.3764 99.8674 56.3864L99.8708 56.3832Z" fill="#2C2C2C"/>
<path d="M99.0253 58.2067C99.0428 58.1541 96.8177 54.5804 96.4315 54.0076C96.063 53.3756 96.0149 52.2337 96.0149 52.2337C96.015 52.2271 95.0403 52.5297 94.2936 52.6679C93.5617 52.7203 90.9094 52.3599 90.905 52.4193C90.905 52.4193 92.1366 51.8206 93.3018 50.5227C94.467 49.2315 94.5215 48.6174 94.5249 48.6109C94.5433 48.512 91.2215 49.6405 90.9161 49.7042C90.6258 49.6624 90.5954 49.3411 90.3828 49.2147C90.1524 48.8003 84.5914 52.7742 84.6325 53.0528C84.5914 52.7709 90.2399 47.6576 91.0106 47.3016C91.6968 46.6828 92.2844 45.857 92.2844 45.857C92.3205 45.8742 89.8598 46.407 87.3933 47.9616C84.9128 49.3804 82.423 51.8242 82.0683 52.5782C82.8931 48.7936 89.6965 42.0515 89.7318 42.4656C88.7335 43.8526 88.07 45.378 87.6011 46.9303C89.4698 46.0425 91.3721 45.4761 93.2256 45.2264C93.418 45.7227 91.1946 47.8938 90.955 48.1539C90.4031 48.6595 91.1017 48.9735 91.2994 49.0103C91.5128 48.9217 95.0611 47.88 95.0392 47.9921C95.1176 48.7509 94.5945 50.193 93.9559 51.4478C94.803 51.252 95.6388 51.1254 96.4502 51.0645C96.4502 51.0645 96.5233 52.8154 96.8365 53.5753C97.1604 54.2924 99.0392 58.1706 99.0286 58.2068L99.0253 58.2067Z" fill="#2C2C2C"/>
<path d="M112.064 41.7388C113.696 46.4623 114.159 50.906 112.497 54.8437C116.44 54.1203 119.286 52.6059 117.6 47.8086C116.112 45.5053 114.335 43.4282 112.064 41.7388Z" fill="#2C2C2C"/>
<path fill-rule="evenodd" clip-rule="evenodd" d="M115.501 72.9765C114.682 77.1615 113.851 81.0585 109.72 83.0185C109.714 83.025 109.71 83.025 109.704 83.0248C109.634 83.0632 109.56 83.0982 109.487 83.1299C109.413 83.1616 109.337 83.1966 109.264 83.2216C109.257 83.2281 109.253 83.2281 109.247 83.228C105.024 84.9746 101.579 82.9755 97.9222 80.7772C101.074 80.4095 105.462 78.8677 106.999 78.2283L107.039 78.2092C107.122 78.1777 107.196 78.1427 107.262 78.1142C107.329 78.0857 107.402 78.0506 107.482 78.0125L107.522 77.9934C109.027 77.2807 113.114 75.0618 115.501 72.9732L115.501 72.9765Z" fill="#2C2C2C"/>
<path d="M109.239 82.0139C111.3 81.0999 112.787 79.9404 112.555 79.4267C112.323 78.9131 110.472 79.2357 108.411 80.1496C106.35 81.0636 104.863 82.2231 105.095 82.7368C105.327 83.2504 107.178 82.9279 109.239 82.0139Z" fill="#EF9F9A"/>
<path d="M95.3969 76.316C99.2409 74.3333 100.75 69.6099 98.767 65.7659C96.7843 61.922 92.0609 60.4131 88.2169 62.3958C84.373 64.3785 82.8641 69.102 84.8468 72.9459C86.8295 76.7899 91.553 78.2987 95.3969 76.316Z" stroke="#FCFCFC" stroke-width="1.48903" stroke-miterlimit="10"/>
<path d="M114.772 66.3224C118.616 64.3397 120.125 59.6162 118.142 55.7723C116.159 51.9283 111.436 50.4195 107.592 52.4022C103.748 54.3849 102.239 59.1083 104.222 62.9523C106.205 66.7962 110.928 68.3051 114.772 66.3224Z" stroke="#FCFCFC" stroke-width="1.48903" stroke-miterlimit="10"/>
<path d="M98.7675 65.7631C100.336 63.8202 102.073 62.5589 104.221 62.9502" stroke="#FCFCFC" stroke-width="1.48903" stroke-miterlimit="10"/>
</g>
<g filter="url(#filter0_ii_35_697)">
<path d="M47.1838 141.929C47.1838 140.165 48.6138 138.735 50.3778 138.735H197.057C198.821 138.735 200.251 140.165 200.251 141.929V323.125C200.251 324.889 198.821 326.319 197.057 326.319L50.3778 326.32C48.6138 326.32 47.1838 324.89 47.1838 323.126L47.1836 250.238C47.1836 248.474 48.6136 247.044 50.3776 247.044H95.1524C96.9164 247.044 98.3464 248.474 98.3464 250.238V273.438C98.3464 275.202 99.7764 276.632 101.54 276.632H142.345C144.109 276.632 145.539 275.202 145.539 273.438V191.616C145.539 189.852 144.109 188.422 142.345 188.422H50.3778C48.6138 188.422 47.1838 186.992 47.1838 185.228V141.929Z" fill="#FFDC00"/>
<path fill-rule="evenodd" clip-rule="evenodd" d="M222.726 138.735C220.962 138.735 219.532 140.165 219.532 141.929V323.125C219.532 324.889 220.962 326.319 222.726 326.319H271.05C272.814 326.319 274.244 324.889 274.244 323.125V285.408C274.244 283.644 275.674 282.214 277.438 282.214H322.085C323.849 282.214 325.279 283.644 325.279 285.408V323.125C325.279 324.889 326.709 326.319 328.473 326.319H376.796C378.56 326.319 379.99 324.889 379.99 323.125V141.929C379.99 140.165 378.56 138.735 376.796 138.735H222.726ZM322.085 232.526C323.849 232.526 325.279 231.096 325.279 229.332V191.616C325.279 189.852 323.849 188.422 322.085 188.422H277.438C275.674 188.422 274.244 189.852 274.244 191.616V229.332C274.244 231.096 275.674 232.526 277.438 232.526H322.085Z" fill="#FFDC00"/>
<path d="M458.283 138.735C459.425 138.735 460.48 139.344 461.05 140.334L513.556 231.413V141.929C513.556 140.165 514.986 138.735 516.75 138.735H565.074C566.838 138.735 568.268 140.165 568.268 141.929V323.125C568.268 324.889 566.838 326.319 565.074 326.319H509.266C508.124 326.319 507.069 325.709 506.499 324.72L453.993 233.641V323.125C453.993 324.889 452.563 326.319 450.799 326.319H402.475C400.711 326.319 399.281 324.889 399.281 323.125V141.929C399.281 140.165 400.711 138.735 402.475 138.735H458.283Z" fill="#FFDC00"/>
<path fill-rule="evenodd" clip-rule="evenodd" d="M590.746 138.735C588.982 138.735 587.552 140.165 587.552 141.929V323.125C587.552 324.889 588.982 326.319 590.746 326.319H639.07C640.834 326.319 642.264 324.889 642.264 323.125V285.408C642.264 283.644 643.694 282.214 645.458 282.214H690.105C691.869 282.214 693.299 283.644 693.299 285.408V323.125C693.299 324.889 694.729 326.319 696.493 326.319H744.816C746.58 326.319 748.01 324.889 748.01 323.125V141.929C748.01 140.165 746.58 138.735 744.816 138.735H590.746ZM690.105 232.526C691.869 232.526 693.299 231.096 693.299 229.332V191.616C693.299 189.852 691.869 188.422 690.105 188.422H645.458C643.694 188.422 642.264 189.852 642.264 191.616V229.332C642.264 231.096 643.694 232.526 645.458 232.526H690.105Z" fill="#FFDC00"/>
</g>
<defs>
<filter id="filter0_ii_35_697" x="47.1836" y="138.735" width="700.827" height="187.584" filterUnits="userSpaceOnUse" color-interpolation-filters="sRGB">
<feFlood flood-opacity="0" result="BackgroundImageFix"/>
<feBlend mode="normal" in="SourceGraphic" in2="BackgroundImageFix" result="shape"/>
<feColorMatrix in="SourceAlpha" type="matrix" values="0 0 0 0 0 0 0 0 0 0 0 0 0 0 0 0 0 0 127 0" result="hardAlpha"/>
<feOffset dx="7.71472" dy="7.71472"/>
<feComposite in2="hardAlpha" operator="arithmetic" k2="-1" k3="1"/>
<feColorMatrix type="matrix" values="0 0 0 0 0.990769 0 0 0 0 1 0 0 0 0 0.538427 0 0 0 1 0"/>
<feBlend mode="normal" in2="shape" result="effect1_innerShadow_35_697"/>
<feColorMatrix in="SourceAlpha" type="matrix" values="0 0 0 0 0 0 0 0 0 0 0 0 0 0 0 0 0 0 127 0" result="hardAlpha"/>
<feOffset dx="-7.71472" dy="-7.71472"/>
<feComposite in2="hardAlpha" operator="arithmetic" k2="-1" k3="1"/>
<feColorMatrix type="matrix" values="0 0 0 0 0.835692 0 0 0 0 0.720989 0 0 0 0 0 0 0 0 1 0"/>
<feBlend mode="normal" in2="effect1_innerShadow_35_697" result="effect2_innerShadow_35_697"/>
</filter>
<clipPath id="clip0_35_697">
<rect width="273.884" height="131.266" fill="white" transform="translate(64.5596 24.1914) rotate(1.07091)"/>
</clipPath>
</defs>
</svg>
