<svg width="48" height="48" viewBox="0 0 48 48" fill="none" xmlns="http://www.w3.org/2000/svg">
<path d="M24.1711 47.9633C37.1774 47.9633 47.7211 37.4196 47.7211 24.4133C47.7211 11.407 37.1774 0.863281 24.1711 0.863281C11.1648 0.863281 0.621094 11.407 0.621094 24.4133C0.621094 37.4196 11.1648 47.9633 24.1711 47.9633Z" fill="#2B64F3"/>
<path d="M24.1712 17.3047C20.0912 17.3047 16.7812 20.6147 16.7812 24.6947C16.7812 28.7747 20.0912 32.0847 24.1712 32.0847C28.2512 32.0847 31.5613 28.7747 31.5613 24.6947C31.5613 20.6147 28.2512 17.3047 24.1712 17.3047ZM24.1712 29.4847C21.5212 29.4847 19.3713 27.3347 19.3713 24.6847C19.3713 22.0347 21.5212 19.8847 24.1712 19.8847C26.8212 19.8847 28.9713 22.0347 28.9713 24.6847C28.9713 27.3347 26.8212 29.4847 24.1712 29.4847Z" fill="white"/>
<path d="M37.8013 15.263C37.4413 14.303 36.8713 13.433 36.1413 12.713C35.4213 11.983 34.5513 11.413 33.5913 11.053C32.6713 10.693 31.6312 10.453 30.1012 10.383C28.5712 10.313 28.0812 10.293 24.1712 10.293C20.2612 10.293 19.7713 10.313 18.2413 10.383C16.7113 10.453 15.6613 10.693 14.7513 11.053C13.7913 11.413 12.9213 11.983 12.2013 12.713C11.4713 13.433 10.9013 14.303 10.5413 15.263C10.1813 16.183 9.94125 17.223 9.87125 18.753C9.80125 20.283 9.78125 20.773 9.78125 24.683C9.78125 28.593 9.80125 29.083 9.87125 30.613C9.94125 32.143 10.1813 33.193 10.5413 34.103C10.9013 35.063 11.4713 35.933 12.2013 36.653C12.9213 37.383 13.7913 37.953 14.7513 38.313C15.6613 38.673 16.7113 38.913 18.2413 38.983C19.7713 39.053 20.2612 39.073 24.1712 39.073C28.0812 39.073 28.5712 39.053 30.1012 38.983C31.6312 38.913 32.6813 38.673 33.5913 38.313C35.5213 37.563 37.0513 36.043 37.8013 34.103C38.1613 33.183 38.4012 32.143 38.4712 30.613C38.5412 29.083 38.5612 28.593 38.5612 24.683C38.5612 20.773 38.5412 20.283 38.4712 18.753C38.4012 17.223 38.1613 16.173 37.8013 15.263V15.263ZM35.8812 30.503C35.8212 31.903 35.5812 32.663 35.3812 33.173C34.9012 34.423 33.9012 35.423 32.6512 35.903C32.1412 36.103 31.3813 36.333 29.9813 36.403C28.4613 36.473 28.0112 36.483 24.1712 36.483C20.3312 36.483 19.8712 36.473 18.3612 36.403C16.9612 36.343 16.2012 36.103 15.6912 35.903C15.0712 35.673 14.5013 35.303 14.0413 34.823C13.5613 34.363 13.1913 33.793 12.9613 33.173C12.7613 32.663 12.5313 31.903 12.4713 30.503C12.4013 28.983 12.3913 28.533 12.3913 24.693C12.3913 20.853 12.4013 20.393 12.4713 18.883C12.5313 17.483 12.7713 16.723 12.9613 16.213C13.1913 15.593 13.5613 15.023 14.0413 14.563C14.5013 14.083 15.0712 13.713 15.6912 13.483C16.2012 13.283 16.9612 13.053 18.3612 12.983C19.8812 12.913 20.3312 12.903 24.1712 12.903C28.0112 12.903 28.4713 12.923 29.9813 12.983C31.3813 13.043 32.1412 13.283 32.6512 13.483C33.2712 13.713 33.8413 14.083 34.3013 14.563C34.7813 15.023 35.1512 15.593 35.3812 16.213C35.5812 16.723 35.8112 17.483 35.8812 18.883C35.9512 20.403 35.9613 20.853 35.9613 24.693C35.9613 28.533 35.9512 28.993 35.8812 30.503Z" fill="white"/>
</svg>
