<svg width="114" height="283" viewBox="0 0 114 283" fill="none" xmlns="http://www.w3.org/2000/svg">
<path fill-rule="evenodd" clip-rule="evenodd" d="M86.8887 174.742L108.403 165.283C109.921 168.69 109.709 172.359 110.454 175.375C111.053 177.791 111.98 181.772 112.18 183.919C113.503 198.145 107.908 205.421 105.158 204.443C103.59 203.886 103.732 202.742 104.726 199.164C103.332 204.738 100.986 207.189 98.353 206.261C95.6908 205.321 98.0577 201.095 98.744 198.823C97.9745 201.111 96.14 206.011 93.0243 204.955C91.14 204.314 90.6907 202.363 92.2839 198.22C92.0094 199.144 90.2539 203.108 87.8413 200.375C85.1956 196.752 91.0318 190.491 90.5493 184.534C90.4162 182.887 86.8928 174.751 86.8928 174.751L86.8887 174.742Z" fill="#FDD000"/>
<path fill-rule="evenodd" clip-rule="evenodd" d="M62.2919 51.062L77.2297 57.8716L84.9004 60.226L70.6198 112.872L41.8716 57.6386L62.2919 51.062Z" fill="#E2E2E2"/>
<path fill-rule="evenodd" clip-rule="evenodd" d="M46.772 54.359L58.9726 68.573L73.8771 67.8367L77.2049 57.3416L70.6866 43.3356L56.9426 43.0569L46.772 54.359Z" fill="#FDD000"/>
<path fill-rule="evenodd" clip-rule="evenodd" d="M84.9009 60.2283L77.7377 56.343L69.31 64.0719L67.8125 71.0894L77.2053 73.7725L84.9009 60.2283Z" fill="#FCFCFC"/>
<path fill-rule="evenodd" clip-rule="evenodd" d="M41.8716 57.6385L46.7718 54.3564L62.5956 64.0695L64.9334 71.0871L55.9899 75.0181L41.8716 57.6385Z" fill="#FCFCFC"/>
<path d="M61.9424 63.986L69.7794 63.4785L67.8118 71.0909L64.1471 71.0701L61.9424 63.986Z" fill="#453FFF"/>
<path d="M64.1484 70.737L65.6293 105.105L77.2309 103.72L67.5303 70.1089L64.1484 70.737Z" fill="#453FFF"/>
<path fill-rule="evenodd" clip-rule="evenodd" d="M75.4993 7.87072C75.4993 7.87072 88.6109 -2.67017 92.7748 0.645177C96.9388 3.96052 88.4029 21.9516 88.4029 21.9516L75.4951 7.87072H75.4993Z" fill="#FDD000"/>
<path fill-rule="evenodd" clip-rule="evenodd" d="M77.2676 8.46703C77.2676 8.46703 87.8625 -0.0522029 91.2278 2.6267C94.5931 5.3056 87.6962 19.8399 87.6962 19.8399L77.2676 8.46287V8.46703Z" fill="#CEAA11"/>
<path fill-rule="evenodd" clip-rule="evenodd" d="M54.9119 7.87072C54.9119 7.87072 41.8003 -2.67017 37.6364 0.645177C33.4724 3.96468 42.0083 21.9516 42.0083 21.9516L54.9161 7.87072H54.9119Z" fill="#FDD000"/>
<path fill-rule="evenodd" clip-rule="evenodd" d="M53.1433 8.46703C53.1433 8.46703 42.5484 -0.0522029 39.1831 2.6267C35.8178 5.3056 42.7147 19.8399 42.7147 19.8399L53.1433 8.46287V8.46703Z" fill="#CEAA11"/>
<path fill-rule="evenodd" clip-rule="evenodd" d="M93.9152 39.3653C93.9193 38.8869 93.9152 38.4127 93.9069 37.9385C93.9069 37.8095 93.8985 37.6764 93.8902 37.5475C93.8777 37.223 93.8653 36.9027 93.8486 36.5824C93.8361 36.3162 93.8195 36.0499 93.8029 35.7879C93.8029 35.7879 93.8029 35.7754 93.8029 35.7671C93.7779 35.376 93.7446 34.9933 93.7155 34.6106C93.6864 34.2155 93.6489 33.8328 93.6115 33.4625C93.6073 33.4334 93.6073 33.4085 93.6032 33.3794C93.5907 33.2587 93.5782 33.1422 93.5658 33.0258C93.52 32.5932 93.4701 32.1689 93.416 31.7487C93.3286 31.079 93.2371 30.4758 93.1581 29.9559C93.1539 29.9143 93.1498 29.8768 93.1373 29.8352C93.104 29.5898 93.0624 29.3444 93.0167 29.0989C93.0042 29.0324 92.9959 28.97 92.9834 28.9076L92.9376 28.6538L92.896 28.4334C92.8835 28.371 92.8711 28.3086 92.8627 28.2462C92.8544 28.2212 92.8503 28.1921 92.8461 28.1671C92.8336 28.0964 92.817 28.0257 92.8045 27.955L92.7005 27.3768C92.7005 27.3768 92.7005 27.3809 92.6964 27.3809C92.5133 26.3868 92.3095 25.4175 92.089 24.4816V24.4733C92.089 24.4733 92.089 24.4608 92.0849 24.4525C91.6065 21.4366 90.7371 18.5248 89.1897 15.7793C85.7828 8.29171 80.6995 3.64108 74.1354 1.49463C72.9915 1.12025 71.7976 0.820744 70.5622 0.596116C68.944 0.300772 67.2468 0.134381 65.4747 0.088623C65.4747 0.088623 65.2959 0.088623 65.2044 0.088623C65.1128 0.088623 64.934 0.088623 64.934 0.088623C63.1619 0.134381 61.4647 0.300772 59.8466 0.596116C58.6111 0.820744 57.4172 1.12025 56.2733 1.49463C49.7092 3.64108 44.6259 8.29171 41.2232 15.7752C39.6716 18.5248 38.8022 21.4491 38.3239 24.4691C38.3239 24.4691 38.3239 24.4691 38.3239 24.4733C38.0992 25.4134 37.8954 26.3743 37.7124 27.3685L37.6042 27.9467L37.5917 28.0091C37.546 28.2379 37.5002 28.4708 37.4586 28.7038C37.4378 28.8327 37.4129 28.9617 37.3921 29.0906C37.3421 29.3735 37.2922 29.6605 37.2506 29.9475C37.1716 30.455 37.0842 31.0416 36.9969 31.6946C36.9553 32.0233 36.9178 32.3602 36.8804 32.6971C36.8554 32.9218 36.8305 33.1464 36.8097 33.371C36.8055 33.3835 36.8055 33.4001 36.8055 33.4126C36.6641 34.8186 36.5643 36.2787 36.5102 37.8012C36.5102 37.8428 36.506 37.8886 36.506 37.9302C36.4977 38.4044 36.4894 38.8786 36.4935 39.357V39.3944C36.4935 39.3944 36.4894 39.4069 36.4935 39.411C36.4977 40.2014 36.5268 40.9918 36.5809 41.7779C36.7473 44.1365 37.1591 46.4286 37.9661 48.313C38.2115 48.7913 38.4902 49.2697 38.7981 49.7356C39.1059 50.2015 39.447 50.6632 39.8172 51.1167C39.838 51.1458 39.8671 51.1749 39.8879 51.1999C39.9087 51.2248 39.9337 51.2581 39.9586 51.2872C42.4379 54.2074 46.3439 56.749 52.1052 58.4503C52.1052 58.4503 63.4032 65.7092 69.1936 64.586C74.984 63.4629 78.0539 58.6292 78.291 58.4545H78.2952C84.0565 56.749 87.9584 54.2115 90.4418 51.2872C90.4917 51.2331 90.5374 51.1749 90.5873 51.1167C91.1448 50.4386 91.6315 49.7439 92.0433 49.0326C92.1805 48.7955 92.3137 48.5584 92.4343 48.3171C92.5674 48.001 92.6922 47.6765 92.8087 47.3437C93.6032 44.9976 93.8944 42.1773 93.911 39.4152L93.9152 39.4069V39.357V39.3653Z" fill="#FDD000"/>
<path d="M70.5443 1.76162C72.2249 3.37562 74.0136 4.41556 75.9437 4.64851C73.5394 5.12688 71.368 5.75085 69.9287 6.82823C69.8913 6.85735 69.8538 6.88231 69.8164 6.91143L69.4961 6.94055L69.2881 5.70509C69.2881 5.70509 71.6633 4.53203 72.7157 4.64435C73.7682 4.75666 70.0701 4.17013 69.7914 2.64349C69.5127 1.11685 69.4337 0.413851 69.4337 0.413851C69.8663 0.326496 74.7832 1.48707 75.5028 1.99041C72.3122 1.7533 70.5485 1.76162 70.5485 1.76162H70.5443Z" fill="#2C2C2C"/>
<path d="M66.6546 2.12404C65.2985 4.0209 63.7386 5.37283 61.8833 5.95936C64.3376 5.98432 66.5838 6.19647 68.1978 6.99099C68.2394 7.01179 68.281 7.03258 68.3226 7.05338L68.6429 7.02426L68.618 5.77217C68.618 5.77217 66.068 5.05669 65.053 5.36035C64.0381 5.66402 67.5656 4.40776 67.5572 2.852C67.5489 1.29625 67.524 0.2771 67.524 0.2771C67.524 0.2771 62.736 2.20724 61.7793 2.62322C64.87 1.79958 66.6546 2.12404 66.6546 2.12404V2.12404Z" fill="#2C2C2C"/>
<path d="M70.5443 1.76162C72.2249 3.37562 74.0136 4.41556 75.9437 4.64851C73.5394 5.12688 71.368 5.75085 69.9287 6.82823C69.8913 6.85735 69.8538 6.88231 69.8164 6.91143L69.4961 6.94055L69.2881 5.70509C69.2881 5.70509 71.6633 4.53203 72.7157 4.64435C73.7682 4.75666 70.0701 4.17013 69.7914 2.64349C69.5127 1.11685 69.4337 0.413851 69.4337 0.413851C69.8663 0.326496 74.7832 1.48707 75.5028 1.99041C72.3122 1.7533 70.5485 1.76162 70.5485 1.76162H70.5443Z" fill="#2C2C2C"/>
<path d="M66.6546 2.12404C65.2985 4.0209 63.7386 5.37283 61.8833 5.95936C64.3376 5.98432 66.5838 6.19647 68.1978 6.99099C68.2394 7.01179 68.281 7.03258 68.3226 7.05338L68.6429 7.02426L68.618 5.77217C68.618 5.77217 66.068 5.05669 65.053 5.36035C64.0381 5.66402 67.5656 4.40776 67.5572 2.852C67.5489 1.29625 67.524 0.2771 67.524 0.2771C67.524 0.2771 62.736 2.20724 61.7793 2.62322C64.87 1.79958 66.6546 2.12404 66.6546 2.12404V2.12404Z" fill="#2C2C2C"/>
<path fill-rule="evenodd" clip-rule="evenodd" d="M93.9157 39.3675C93.9198 38.8891 93.9157 38.4149 93.9073 37.9407C93.8865 37.9656 93.8699 37.9864 93.8449 38.0114C91.3075 41.0439 86.7151 40.7111 81.7608 39.7876C79.7599 41.0314 75.3963 44.1803 69.4395 39.8001C64.7431 44.2469 50.6498 41.0314 48.6489 39.7876C43.6946 40.7111 39.1022 41.0439 36.5648 38.0072C36.544 37.9864 36.5273 37.9656 36.5065 37.9407C36.4982 38.4149 36.4899 38.8891 36.494 39.3675V39.4049C36.494 39.4049 36.4899 39.4174 36.494 39.4216C38.4949 43.1612 42.4924 45.7444 46.7105 48.2029L40.1006 51.3892C40.0548 51.3601 40.0091 51.331 39.9633 51.2977C42.4425 54.2179 46.3486 56.7595 52.1099 58.4609C52.1099 58.4609 60.5209 65.2496 67.813 65.2663C73.3247 65.2788 78.1917 58.8269 78.2915 58.7521C78.2957 58.7479 87.26 56.3435 90.4464 51.2977C90.4006 51.331 90.3549 51.3601 90.3091 51.3892L83.6992 48.2029C87.9131 45.7444 91.9148 43.1654 93.9157 39.4257C93.9157 39.4257 93.9198 39.4091 93.9198 39.4049V39.3675H93.9157Z" fill="#FCFCFC"/>
<path d="M80.4382 35.0588C80.4382 36.91 78.9407 36.964 77.0937 36.964C75.2468 36.964 73.7451 36.91 73.7451 35.0588C73.7451 33.2077 74.9057 29.1062 77.0937 29.1062C79.2818 29.1062 80.4382 33.2119 80.4382 35.0588Z" fill="#65523D"/>
<path d="M93.9073 37.9423C93.8865 37.9672 93.8699 37.988 93.8449 38.013C91.3074 41.0455 86.715 40.7127 81.7607 39.7892C86.2866 37.0271 89.9347 32.8923 92.6968 27.3889C92.7343 27.5803 92.7717 27.7675 92.805 27.9588C92.8174 28.0295 92.8341 28.1002 92.8466 28.171C92.8507 28.1959 92.8549 28.225 92.8632 28.25C92.8715 28.3124 92.884 28.3748 92.8965 28.4372L92.9381 28.6576L92.9838 28.9114C92.9963 28.9738 93.0046 29.0362 93.0171 29.1027C93.0629 29.3482 93.1045 29.5936 93.1377 29.839C93.1502 29.8806 93.1544 29.9181 93.1585 29.9597C93.2376 30.4796 93.3291 31.0828 93.4165 31.7525C93.4705 32.1727 93.5204 32.597 93.5662 33.0296C93.5787 33.1502 93.5912 33.2667 93.5995 33.3873C93.6036 33.3998 93.6036 33.4123 93.6036 33.4248C93.6078 33.4372 93.6078 33.4497 93.6078 33.4622H93.612C93.612 33.4622 93.612 33.4747 93.6078 33.4747C93.6452 33.8491 93.6827 34.2318 93.716 34.6145C93.7451 34.9972 93.7784 35.3799 93.8033 35.7709C93.8033 35.7792 93.8033 35.7875 93.8033 35.7917C93.8199 36.0537 93.8366 36.32 93.8491 36.5862C93.8657 36.9065 93.8782 37.2268 93.8907 37.5513C93.899 37.6802 93.9031 37.8133 93.9073 37.9423V37.9423Z" fill="#2C2C2C"/>
<path d="M93.9156 39.4241C93.8948 42.5772 93.5205 45.8135 92.4389 48.326C91.9481 49.2869 91.3366 50.2229 90.592 51.1255C90.5421 51.1838 90.4963 51.242 90.4464 51.2961C90.4006 51.3294 90.3549 51.3585 90.3091 51.3876L83.6992 48.2012C87.9131 45.7428 91.9148 43.1637 93.9156 39.4241V39.4241Z" fill="#2C2C2C"/>
<path d="M72.3809 41.9827C72.3102 42.2199 72.2353 42.4403 72.1521 42.6525H72.148C71.5365 44.2332 70.5673 45.1525 69.2112 45.3522C69.1862 45.3605 69.1571 45.3605 69.1321 45.3647C69.1238 45.3688 69.1155 45.3688 69.1072 45.3688C69.1072 45.3813 68.9449 45.3979 68.8617 45.3938C68.7827 45.3979 68.6163 45.3813 68.6163 45.3688C68.608 45.3688 68.5997 45.3688 68.5914 45.3647C68.5622 45.3605 68.5331 45.3563 68.5082 45.3522C67.1521 45.1525 66.187 44.2332 65.5755 42.6525H65.5714C65.4882 42.4403 65.4133 42.2199 65.3426 41.9827C64.7228 39.8904 66.3368 38.8463 68.5914 38.9669C68.6787 38.9711 68.7702 38.9752 68.8617 38.9835C68.9533 38.9752 69.0448 38.9711 69.1321 38.9669C71.3909 38.8463 73.0049 39.8904 72.3809 41.9827Z" fill="#2C2C2C"/>
<path d="M60.832 35.0588C60.832 36.91 59.3303 36.964 57.4834 36.964C55.6364 36.964 54.1348 36.91 54.1348 35.0588C54.1348 33.2077 55.2953 29.1062 57.4834 29.1062C59.6714 29.1062 60.832 33.2119 60.832 35.0588Z" fill="#65523D"/>
<path d="M41.2236 15.782C41.6978 21.3395 43.2369 26.0816 46.7103 29.3429C42.3634 30.3911 38.7735 30.1332 38.3242 24.4759C38.8026 21.4559 39.672 18.5316 41.2236 15.782Z" fill="#2C2C2C"/>
<path d="M48.6478 39.7892C43.6935 40.7127 39.1011 41.0455 36.5636 38.0089C36.5428 37.9881 36.5262 37.9673 36.5054 37.9423C36.5054 37.9007 36.5095 37.8549 36.5095 37.8133C36.5636 36.2909 36.6634 34.8308 36.8049 33.4248C36.8049 33.4123 36.8049 33.3957 36.809 33.3832C36.8298 33.1586 36.8548 32.9339 36.8798 32.7093C36.9172 32.3724 36.9546 32.0354 36.9962 31.7068C37.0836 31.0537 37.1709 30.4672 37.25 29.9597C37.2916 29.6727 37.3415 29.3856 37.3914 29.1028C37.4122 28.9738 37.4372 28.8449 37.458 28.7159C37.4996 28.483 37.5453 28.25 37.5911 28.0212C37.5911 28.0004 37.5994 27.9796 37.6036 27.9588L37.7117 27.3806C40.4696 32.8882 44.1178 37.0271 48.6478 39.7892V39.7892Z" fill="#2C2C2C"/>
<path d="M46.7111 48.202L40.1012 51.3883C40.0554 51.3592 40.0096 51.3301 39.9639 51.2968C39.914 51.2386 39.8641 51.1845 39.8183 51.1263C39.0737 50.2236 38.458 49.2835 37.9672 48.3226C36.8898 45.8101 36.5154 42.5738 36.4946 39.4207C38.4955 43.1603 42.493 45.7435 46.7111 48.202V48.202Z" fill="#2C2C2C"/>
<path d="M69.4189 26.7922C69.4189 26.7922 70.6128 22.5242 70.7709 21.7963C70.9206 21.0475 70.4714 20.0824 70.4714 20.0824C70.4672 20.0699 71.7151 19.6789 72.6095 19.4002C73.4831 19.0092 76.1204 17.3952 76.1204 17.4576C76.1245 17.4659 74.5688 17.391 72.7093 16.9293C70.8666 16.505 70.5504 16.1265 70.5421 16.1015C70.4922 15.9226 74.523 14.8203 74.835 14.8078C75.1095 14.604 74.9889 14.2795 75.147 14.0341C75.3258 13.2687 82.3267 14.7912 82.2394 15.2987C82.3434 14.7163 74.7102 12.0665 73.6286 12.599C72.6469 12.4617 71.6819 12.1747 71.6819 12.1747C71.6028 12.208 74.4731 10.856 77.4598 11.0557C80.4507 11.0349 83.558 12.5574 84.0572 13.2895C83.0921 11.4134 80.2302 9.09228 77.622 8.14385C75.0139 7.04983 72.6594 7.33269 72.7052 7.2911C74.2859 7.76531 75.6295 8.80942 76.7901 10.1073C74.6187 10.3569 72.4473 11.1098 70.4464 12.3577C70.4464 12.8236 73.7118 13.1689 74.0779 13.3561C74.8724 13.5016 74.3108 14.2213 74.1237 14.3669C73.8865 14.3003 69.6644 15.7854 69.7309 15.9892C69.9597 16.6423 71.1494 17.3952 72.4265 18.1315C71.4073 18.4601 70.4173 18.901 69.4772 19.4626C69.4772 19.4585 70.1427 20.8894 70.1095 21.7089C70.072 22.5159 69.4189 26.7838 69.4189 26.7922Z" fill="#2C2C2C"/>
<path d="M68.3912 26.6105C68.3912 26.6105 67.1973 22.4382 67.0393 21.7185C66.8895 20.9823 67.3388 20.0297 67.3388 20.0338C67.3429 20.0214 66.0908 19.6387 65.2006 19.3683C64.3229 18.9897 61.6898 17.3965 61.6898 17.4589C61.6856 17.4673 63.2414 17.3799 65.1008 16.9265C66.9436 16.5105 67.2597 16.1528 67.2681 16.1195C67.318 15.9406 63.2871 14.8258 62.9752 14.8133C62.7006 14.6095 62.8213 14.285 62.6632 14.0438C62.4843 13.2784 55.4834 14.7676 55.5708 15.2792C55.4668 14.6885 63.1 12.072 64.1815 12.6294C65.1632 12.5005 66.1283 12.2384 66.1283 12.2384C66.2073 12.2717 63.3371 10.8906 60.3503 11.0487C57.3595 10.9905 54.2521 12.4714 53.7529 13.2035C54.718 11.3149 57.5799 9.0229 60.1881 8.12854C62.7963 7.08444 65.1507 7.43386 65.105 7.3881C63.5243 7.8124 62.1806 8.82739 61.0201 10.1044C63.1915 10.3873 65.3629 11.1652 67.3637 12.4339C67.3637 12.8832 64.0983 13.1827 63.7322 13.3699C62.9377 13.5071 63.4993 14.2268 63.6865 14.3724C63.9236 14.3058 68.1458 15.8075 68.0792 16.0113C67.8504 16.6478 66.6607 17.3716 65.3837 18.1037C66.4028 18.424 67.3929 18.8649 68.333 19.4182C68.333 19.414 67.6674 20.8159 67.7007 21.6229C67.7381 22.4174 68.3912 26.598 68.3912 26.6021V26.6105Z" fill="#2C2C2C"/>
<path d="M89.1909 15.782C88.7166 21.3395 87.1775 26.0816 83.7041 29.3429C88.0511 30.3911 91.641 30.1332 92.0902 24.4759C91.6118 21.4559 90.7425 18.5316 89.1909 15.782Z" fill="#2C2C2C"/>
<path fill-rule="evenodd" clip-rule="evenodd" d="M78.5446 49.1909C75.8157 53.0886 73.2034 56.6868 68.1035 56.8158C68.0952 56.82 68.091 56.82 68.0827 56.8158C67.9953 56.8241 67.9038 56.8241 67.8123 56.8241C67.7208 56.8241 67.6293 56.8241 67.5419 56.8158C67.5336 56.82 67.5295 56.82 67.5211 56.8158C62.4212 56.6868 59.8131 53.0886 57.0801 49.1909C60.462 50.2433 65.6367 50.6552 67.492 50.7009H67.5419C67.6418 50.7051 67.7333 50.7051 67.8123 50.7051C67.8914 50.7051 67.9829 50.7051 68.0827 50.7009H68.1326C69.992 50.6552 75.1627 50.2433 78.5446 49.1909V49.1909Z" fill="#2C2C2C"/>
<path d="M68.0833 55.5808C70.5999 55.5808 72.6382 55.0692 72.6382 54.441C72.6382 53.8129 70.5999 53.3013 68.0833 53.3013C65.5666 53.3013 63.5283 53.8129 63.5283 54.441C63.5283 55.0692 65.5666 55.5808 68.0833 55.5808Z" fill="#EF9F9A"/>
<path d="M87.7617 263.452L89.2093 254.854H64.7622L63.3146 263.452L60.8604 278.011H103.311V276.347L87.7617 263.452Z" fill="#2C2C2C"/>
<path d="M101.919 275.773H62.8295C61.2949 275.773 60.0508 277.018 60.0508 278.552V278.556C60.0508 280.091 61.2949 281.335 62.8295 281.335H101.919C103.454 281.335 104.698 280.091 104.698 278.556V278.552C104.698 277.018 103.454 275.773 101.919 275.773Z" fill="white"/>
<path d="M50.0016 264.14L51.4492 255.546H27.0022L25.5546 264.14L23.1045 278.699H65.5509V277.035L50.0016 264.14Z" fill="#2C2C2C"/>
<path d="M64.1558 276.466H25.0663C23.5317 276.466 22.2876 277.71 22.2876 279.244V279.248C22.2876 280.783 23.5317 282.027 25.0663 282.027H64.1558C65.6905 282.027 66.9345 280.783 66.9345 279.248V279.244C66.9345 277.71 65.6905 276.466 64.1558 276.466Z" fill="white"/>
<path d="M41.8728 57.6406L21.1196 67.8363L33.0041 187.476L76.2367 179.639L71.037 103.989L41.8728 57.6406Z" fill="#2C2C2C"/>
<path d="M92.1366 105.143C88.336 104.581 84.8014 107.19 84.242 110.971C83.6825 114.751 86.3102 118.272 90.1108 118.834C93.9114 119.397 97.4459 116.788 98.0054 113.007C98.5648 109.226 95.9373 105.706 92.1366 105.143ZM95.9298 112.946C95.8209 113.113 95.8112 113.138 95.7589 113.18C95.7355 113.199 95.7521 113.182 95.5924 113.281C95.5384 113.315 95.4857 113.348 95.4112 113.365C95.3772 113.373 95.3538 113.373 95.3308 113.369C95.2848 113.361 95.2753 113.34 95.2374 113.327C95.1807 113.307 95.1125 113.324 95.0697 113.356C95.0396 113.379 95.0242 113.414 94.9945 113.485C94.9668 113.55 94.9525 113.6 94.9323 113.668C94.9196 113.71 94.8995 113.777 94.8733 113.862C94.8192 113.861 94.7801 113.86 94.726 113.859C94.6792 113.857 94.6077 113.834 94.539 113.837C94.5065 113.839 94.4843 113.84 94.4608 113.851C94.4042 113.877 94.3618 113.938 94.3568 114.014C94.3421 114.241 94.3017 114.382 94.287 114.568C94.2842 114.603 94.2582 114.661 94.2048 114.703C94.1659 114.733 94.1242 114.743 94.1096 114.745C94.0944 114.748 93.6725 114.653 93.5714 114.63C93.3968 114.589 93.2495 114.543 93.0758 114.5C92.9241 114.462 92.7467 114.425 92.5955 114.385C92.4487 114.346 92.3763 114.322 92.2304 114.28C92.1166 114.248 92.0457 114.292 91.9696 114.35C91.7826 114.494 91.5725 114.651 91.3822 114.79C91.2121 114.914 91.1441 114.804 91.0196 114.633C90.8131 114.35 90.6466 114.123 90.442 113.838C90.3472 113.706 90.2498 113.71 90.1559 113.699C90.0352 113.686 89.916 113.662 89.7958 113.644L89.732 113.635C89.6639 113.578 89.6118 113.53 89.5792 113.499C89.4236 113.349 89.277 113.206 89.148 113.062C89.1388 113.052 89.113 113.025 89.0725 113C89.0463 112.984 89.0222 112.974 89.0046 112.967C88.9881 112.969 88.9643 112.972 88.937 112.98C88.8947 112.993 88.8678 113.011 88.8211 113.039C88.7849 113.062 88.748 113.083 88.7116 113.105C88.6751 113.127 88.6222 113.159 88.5552 113.195C88.5017 113.34 88.4442 113.822 88.4252 113.942C88.4136 114.015 88.3653 114.069 88.286 114.074C88.2541 114.076 88.1863 114.096 88.0839 113.993C87.7778 113.687 87.4768 113.374 87.1733 113.066C87.1429 113.035 87.1516 113.045 87.13 113.003C87.0922 112.931 87.1423 112.816 87.2112 112.761C87.3513 112.65 87.4163 112.539 87.557 112.508C87.5799 112.502 87.6187 112.488 87.6527 112.453C87.6852 112.419 87.6964 112.38 87.7161 112.309C87.7257 112.274 87.7374 112.226 87.7455 112.165C87.7182 112.08 87.6574 111.936 87.5273 111.887C87.4837 111.87 87.4034 111.879 87.2443 111.899C87.058 111.922 86.9756 111.941 86.8059 111.958C86.7423 111.964 86.6904 111.967 86.6578 111.969C86.6362 111.957 86.6027 111.935 86.5702 111.9C86.531 111.857 86.5125 111.816 86.5059 111.802C86.4705 111.727 86.3659 111.542 86.2091 111.271C86.2077 111.253 86.2074 111.225 86.2152 111.193C86.2274 111.142 86.253 111.108 86.2578 111.101C86.2873 111.059 86.3266 110.917 86.3763 110.529C86.5377 110.495 86.6989 110.462 86.8603 110.429C86.9518 110.373 87.0247 110.325 87.0742 110.291C87.1834 110.216 87.2963 110.148 87.4061 110.074C87.4637 110.035 87.5068 110.006 87.569 110.005C87.643 110.004 87.6989 110.044 87.7226 110.06C87.7621 110.088 87.9865 110.207 88.4354 110.445C88.485 110.471 88.5629 110.511 88.6613 110.557C88.6902 110.564 88.7349 110.575 88.79 110.586C88.9186 110.611 88.9275 110.604 89.045 110.627C89.1625 110.65 89.1867 110.663 89.263 110.667C89.2864 110.668 89.3097 110.668 89.3479 110.673C89.4301 110.683 89.4332 110.697 89.4773 110.697C89.4931 110.697 89.5802 110.694 89.6279 110.63C89.6316 110.625 89.6476 110.602 89.6527 110.566C89.6614 110.507 89.6331 110.47 89.6034 110.393C89.5914 110.362 89.5764 110.317 89.5649 110.26C89.6594 110.111 89.7227 110.005 89.7642 109.935C89.7993 109.875 89.8398 109.819 89.8704 109.757C89.897 109.703 89.9079 109.672 89.942 109.641C89.9943 109.593 90.0588 109.586 90.083 109.583C90.2062 109.567 90.8496 109.471 91.7348 109.342C91.8153 109.334 91.8805 109.324 91.9256 109.316C92.0235 109.299 92.0542 109.288 92.1096 109.298C92.138 109.303 92.1698 109.316 92.2337 109.341C92.2908 109.364 92.3342 109.385 92.3496 109.392C92.3496 109.392 92.3511 109.393 92.353 109.394C92.3828 109.408 92.4684 109.45 92.7249 109.577C92.8041 109.704 92.8514 109.813 92.8812 109.894C92.9165 109.992 92.9399 110.086 93.0266 110.14C93.0638 110.163 93.0982 110.169 93.1256 110.174C93.3289 110.209 93.5683 110.218 93.7633 110.236C93.8812 110.247 94.0388 110.247 94.1099 110.338C94.1632 110.406 94.2656 110.492 94.3314 110.55C94.4794 110.68 94.4756 110.776 94.3222 110.857C94.3126 110.862 94.2606 110.869 94.2316 110.881C94.4063 111.115 94.4841 111.367 94.6849 111.495C95.0818 111.745 95.5768 111.994 95.9616 112.249C96.0067 112.279 96.0942 112.328 96.1289 112.368C96.1548 112.399 96.1732 112.425 96.1792 112.456C96.1918 112.523 96.157 112.58 96.1191 112.64C96.0553 112.742 95.9954 112.846 95.9298 112.946Z" fill="#3CB1AC"/>
<path d="M99.634 175.691L69.7793 180.724L71.0356 103.988L84.9001 60.2275L95.7155 67.8358L99.634 175.691Z" fill="#2C2C2C"/>
<path d="M84.9005 60.2275L89.9754 66.5046L85.7325 74.6162L89.9754 74.7077L71.0359 120.474L70.6865 103.439L84.9005 60.2275Z" fill="#161616"/>
<path d="M33.4824 61.763L41.8727 57.6406L72.2849 104.692L72.418 123.777L38.1289 77.021L45.2463 73.0443L33.4824 61.763Z" fill="#161616"/>
<path d="M90.7256 175.953L113.65 174.289C108.864 140.078 111.846 78.0758 95.7173 67.8362L90.7256 175.953Z" fill="#2C2C2C"/>
<path d="M32.392 181.294C32.392 181.294 34.5884 213.366 33.4819 220.209C32.3754 227.052 20.208 260.039 20.208 260.039L53.9355 261.253C53.9355 261.253 67.0638 228.899 67.9873 219.656C68.9107 210.413 71.7103 167.151 71.7103 167.151L32.392 181.298V181.294Z" fill="#2C2C2C"/>
<path d="M63.9194 166.222C63.9194 166.222 72.2265 215.216 71.1158 222.055C70.0052 228.894 60.5791 262.53 60.5791 262.53L88.6826 261.248C88.6826 261.248 101.811 228.894 102.734 219.651C103.658 210.408 98.3374 163.631 98.3374 163.631L63.9236 166.218L63.9194 166.222Z" fill="#2C2C2C"/>
<path d="M71.7115 130.481C72.5143 130.481 72.5143 129.233 71.7115 129.233C70.9087 129.233 70.9087 130.481 71.7115 130.481Z" fill="#E2E2E2"/>
<path d="M72.1471 142.798C72.9499 142.798 72.9499 141.551 72.1471 141.551C71.3442 141.551 71.3442 142.798 72.1471 142.798Z" fill="#E2E2E2"/>
<path d="M71.5455 157.121C72.3483 157.121 72.3483 155.873 71.5455 155.873C70.7426 155.873 70.7426 157.121 71.5455 157.121Z" fill="#E2E2E2"/>
<path d="M57.0812 41.5156C61.2946 41.5156 64.7102 38.1 64.7102 33.8866C64.7102 29.6732 61.2946 26.2576 57.0812 26.2576C52.8678 26.2576 49.4521 29.6732 49.4521 33.8866C49.4521 38.1 52.8678 41.5156 57.0812 41.5156Z" stroke="#FCFCFC" stroke-width="2.42302" stroke-miterlimit="10"/>
<path d="M78.3204 41.5156C82.5338 41.5156 85.9495 38.1 85.9495 33.8866C85.9495 29.6732 82.5338 26.2576 78.3204 26.2576C74.107 26.2576 70.6914 29.6732 70.6914 33.8866C70.6914 38.1 74.107 41.5156 78.3204 41.5156Z" stroke="#FCFCFC" stroke-width="2.42302" stroke-miterlimit="10"/>
<path d="M64.7109 33.8892C66.9364 32.9075 69.0038 32.5913 70.6885 33.8892" stroke="#FCFCFC" stroke-width="2.42302" stroke-miterlimit="10"/>
<path fill-rule="evenodd" clip-rule="evenodd" d="M30.0285 182.51C29.0801 182.777 29.7082 189.341 29.7082 194.412C29.7082 198.559 25.7647 201.658 25.2198 202.428C23.9427 204.225 20.5733 203.767 20.2156 201.999C20.0242 201.046 22.6407 197.927 22.9236 194.761C23.1648 192.045 21.0683 189.162 21.0683 189.162L30.0285 182.51V182.51Z" fill="#FDD000"/>
<path d="M36.1527 230.544C22.9454 224.354 23.4945 216.026 23.8231 214.096L34.9048 190.46L34.7592 190.393C34.8216 190.31 34.884 190.227 34.9464 190.14C34.9464 190.14 40.7077 181.72 55.737 188.767C81.8105 200.988 70.5915 221.213 70.5915 221.213C70.5915 221.213 62.2221 242.773 36.1486 230.548L36.1527 230.544Z" fill="#A53D3C"/>
<path d="M4.50504 184.357C10.6698 189.011 17.3421 192.843 24.6717 195.58C25.1417 195.754 25.6159 195.929 26.0943 196.096C27.8497 196.711 29.6468 197.264 31.4854 197.751L27.5502 206.15C26.0028 205.052 24.4262 204.024 22.833 203.067C22.4004 202.805 21.9636 202.552 21.5269 202.302C14.7339 198.417 7.52089 195.742 0 193.978L4.5092 184.357H4.50504Z" fill="#294563"/>
<path d="M26.0977 196.099C29.309 195.342 32.1293 193.865 34.7625 190.392L34.9081 190.458L31.4887 197.755C29.6543 197.268 27.8572 196.715 26.0977 196.099V196.099Z" fill="#E3CF9E"/>
<path d="M23.8228 214.1C23.8686 213.834 23.9102 213.688 23.9102 213.688C25.0042 209.287 24.3386 206.093 22.8286 203.073C24.426 204.029 25.9984 205.057 27.5458 206.155L23.8228 214.1Z" fill="#E3CF9E"/>
<path fill-rule="evenodd" clip-rule="evenodd" d="M8.01665 174.879L31.4529 173.116C31.7524 176.835 30.3297 180.225 30.0302 183.311C29.7889 185.791 29.3438 189.851 28.8156 191.943C25.3297 205.799 17.6382 210.799 15.367 208.965C14.0733 207.916 14.5849 206.885 16.7148 203.84C13.545 208.632 10.5208 210.167 8.34527 208.411C6.16971 206.656 9.78456 203.441 11.1864 201.527C9.6972 203.428 6.34026 207.438 3.75288 205.404C2.1888 204.173 2.41759 202.184 5.29199 198.807C4.72626 199.589 1.75202 202.742 0.387613 199.36C-0.901919 195.063 6.68136 191.098 8.208 185.321C8.62814 183.723 8.01249 174.879 8.01249 174.879H8.01665Z" fill="#FDD000"/>
<path d="M6.47286 180.94L34.9424 182.662C32.3675 140.124 30.1004 87.9438 21.1236 67.8313C-8.02144 97.0038 3.34466 142.863 6.47286 180.94Z" fill="#2C2C2C"/>
<path d="M55.2855 88.9454C53.7881 89.7775 53.2453 91.6596 54.0731 93.1492C54.9008 94.6387 56.7858 95.1716 58.2831 94.3394C59.7805 93.5073 60.3233 91.6252 59.4956 90.1357C58.6678 88.6461 56.7829 88.1132 55.2855 88.9454ZM58.7446 90.6771C58.7512 90.7657 58.7546 90.7772 58.7475 90.8063C58.7444 90.8193 58.7457 90.8088 58.7161 90.8873C58.7061 90.9139 58.6966 90.94 58.6748 90.9661C58.6648 90.9781 58.6567 90.9847 58.6475 90.9895C58.629 90.9991 58.6198 90.9941 58.6028 90.9997C58.5775 91.0081 58.558 91.0327 58.5515 91.0557C58.547 91.0718 58.5512 91.0886 58.5598 91.1216C58.5678 91.1523 58.5762 91.1737 58.5874 91.2031C58.5944 91.2216 58.6055 91.2508 58.6193 91.288C58.5999 91.3022 58.5858 91.3126 58.5662 91.3267C58.5492 91.3388 58.5175 91.3499 58.4942 91.3698C58.4831 91.3792 58.4757 91.3857 58.4702 91.3958C58.4573 91.4204 58.4588 91.4535 58.4778 91.482C58.534 91.566 58.558 91.6269 58.6033 91.6966C58.612 91.7101 58.6185 91.7376 58.6109 91.7668C58.6053 91.7881 58.5931 91.8027 58.5886 91.8075C58.584 91.8127 58.409 91.8937 58.3669 91.9128C58.2941 91.9457 58.2294 91.9694 58.1562 92.0012C58.0923 92.029 58.0196 92.0641 57.9552 92.0909C57.8927 92.117 57.8605 92.1281 57.7976 92.1529C57.7485 92.1723 57.7355 92.2073 57.7243 92.2485C57.6971 92.35 57.6653 92.4625 57.6356 92.5633C57.6092 92.6534 57.5553 92.6329 57.4649 92.6063C57.3149 92.562 57.1944 92.5269 57.0448 92.4816C56.9754 92.4607 56.942 92.4884 56.9059 92.5102C56.8596 92.5382 56.8109 92.5621 56.7636 92.5884L56.7385 92.6024C56.699 92.6009 56.6675 92.5979 56.6474 92.5956C56.5517 92.5849 56.4611 92.574 56.3765 92.5583C56.3705 92.5571 56.3541 92.5547 56.3329 92.5568C56.3193 92.5582 56.3079 92.561 56.2999 92.5635C56.2945 92.5685 56.2869 92.5761 56.2795 92.5865C56.268 92.6025 56.2633 92.616 56.2546 92.6388C56.2478 92.6565 56.2406 92.6741 56.2337 92.6918C56.2268 92.7096 56.2166 92.735 56.2027 92.7659C56.2231 92.8318 56.3336 93.0181 56.3594 93.0656C56.3751 93.0946 56.3728 93.127 56.3459 93.1501C56.3351 93.1593 56.3165 93.1848 56.2525 93.1763C56.0612 93.1511 55.8698 93.1221 55.6787 93.0952C55.6596 93.0926 55.6653 93.0937 55.6464 93.0848C55.6133 93.0694 55.5998 93.0151 55.6095 92.9772C55.629 92.9 55.6219 92.843 55.663 92.7936C55.6697 92.7856 55.6797 92.7701 55.682 92.7483C55.6843 92.7275 55.6778 92.7108 55.6653 92.68C55.6594 92.6653 55.6504 92.645 55.6369 92.6214C55.6041 92.5986 55.5435 92.5642 55.484 92.5819C55.4641 92.5879 55.4382 92.613 55.3873 92.6631C55.3276 92.7219 55.3036 92.7509 55.248 92.8028C55.2272 92.8222 55.2098 92.8375 55.1988 92.8471C55.1878 92.8486 55.17 92.8499 55.1489 92.8463C55.1236 92.8419 55.1059 92.8324 55.0998 92.8293C55.0668 92.8123 54.9795 92.775 54.8505 92.7216C54.8453 92.7158 54.8376 92.7061 54.8316 92.6925C54.822 92.6711 54.822 92.6523 54.8218 92.6485C54.8209 92.6257 54.796 92.5645 54.7084 92.4138C54.7564 92.3582 54.8044 92.3026 54.8525 92.247C54.8698 92.2025 54.8824 92.1657 54.8908 92.1403C54.9092 92.0843 54.9305 92.0293 54.9494 91.9735C54.9593 91.9442 54.9666 91.9221 54.9883 91.9049C55.0142 91.8844 55.0448 91.8834 55.0577 91.8828C55.0791 91.8818 55.1908 91.863 55.4141 91.8254C55.4388 91.8212 55.4773 91.8143 55.5246 91.8039C55.5368 91.7986 55.5554 91.7901 55.5778 91.779C55.6303 91.7532 55.6316 91.7484 55.6794 91.7246C55.7272 91.7008 55.7393 91.6989 55.7673 91.6795C55.7759 91.6736 55.7841 91.6672 55.7989 91.6586C55.8309 91.64 55.8358 91.6441 55.8514 91.6321C55.8569 91.6278 55.8868 91.6029 55.8865 91.5676C55.8865 91.5648 55.8857 91.5521 55.8777 91.5379C55.8649 91.5149 55.8448 91.5094 55.8135 91.4903C55.8008 91.4825 55.7833 91.4708 55.7638 91.4537C55.7566 91.3751 55.7504 91.3206 55.746 91.2844C55.7423 91.2539 55.7414 91.223 55.7354 91.1928C55.7302 91.1665 55.7255 91.1524 55.7292 91.1322C55.7348 91.1012 55.7555 91.081 55.7633 91.0734C55.8026 91.0344 56.0042 90.8259 56.2825 90.5401C56.3087 90.5153 56.329 90.4941 56.3428 90.479C56.3729 90.4464 56.3808 90.4342 56.4031 90.4227C56.4145 90.4168 56.4292 90.4127 56.4588 90.4045C56.4853 90.3972 56.5061 90.3926 56.5135 90.391C56.5135 90.391 56.5143 90.3908 56.5152 90.3906C56.5296 90.3876 56.5713 90.3792 56.6966 90.3547C56.7589 90.3779 56.8054 90.4038 56.8379 90.4245C56.8768 90.4493 56.9107 90.4764 56.9559 90.4718C56.9753 90.4699 56.9893 90.4629 57.0003 90.4571C57.0818 90.4145 57.169 90.3527 57.2429 90.3062C57.2874 90.278 57.3432 90.2352 57.3931 90.2481C57.4304 90.2577 57.4899 90.2603 57.5288 90.2629C57.6166 90.2689 57.6413 90.3039 57.6089 90.3741C57.6069 90.3785 57.5903 90.395 57.5835 90.4074C57.7089 90.4428 57.8047 90.5108 57.9103 90.5013C58.1187 90.4824 58.3614 90.4361 58.5668 90.4221C58.5909 90.4204 58.6352 90.414 58.6583 90.4187C58.6757 90.4224 58.6893 90.4267 58.7 90.4363C58.7224 90.4563 58.7256 90.4859 58.7286 90.5176C58.7336 90.5708 58.7406 90.6239 58.7446 90.6771Z" fill="#3CB1AC"/>
<path d="M46.9952 109.166C46.8259 108.244 46.0075 107.68 45.0855 107.849L41.7894 108.454C40.9136 108.615 40.3145 109.44 40.4837 110.362L41.4147 115.432C41.584 116.354 42.4024 116.919 43.3244 116.75L46.609 116.147C47.5309 115.977 48.0955 115.159 47.9262 114.237L46.9952 109.166ZM44.3139 110.135L45.0756 114.284L44.096 114.464L43.3343 110.315L44.3139 110.135Z" fill="white"/>
<path d="M47.6939 108.442L47.9266 109.71L49.3672 109.445L50.4463 115.323L53.2123 114.815L51.7311 106.748L49.6567 107.129L47.6939 108.442Z" fill="white"/>
</svg>
