<svg width="981" height="301" viewBox="0 0 981 301" fill="none" xmlns="http://www.w3.org/2000/svg">
<g clip-path="url(#clip0_32_72)">
<rect x="24.3779" y="6.375" width="932.67" height="294.564" fill="#0F2F7E"/>
<rect y="-4.16357" width="986.49" height="15.7527" fill="#0C276A"/>
<rect y="98.7217" width="47.8926" height="16.0559" fill="#162B6E" stroke="#162B6E" stroke-width="1.60559"/>
<rect x="14.8623" y="66.6094" width="9.19576" height="40.1396" stroke="#162B6E" stroke-width="1.60559"/>
<rect x="5.9043" y="66.6094" width="9.19576" height="40.1396" stroke="#162B6E" stroke-width="1.60559"/>
<rect x="24.0625" y="66.6094" width="9.19576" height="40.1396" stroke="#162B6E" stroke-width="1.60559"/>
<rect x="33.2559" y="66.6094" width="9.19576" height="40.1396" stroke="#162B6E" stroke-width="1.60559"/>
<rect y="201.91" width="47.8926" height="16.0559" fill="#162B6E" stroke="#162B6E" stroke-width="1.60559"/>
<rect x="14.8623" y="169.798" width="9.19576" height="40.1396" stroke="#162B6E" stroke-width="1.60559"/>
<rect x="5.9043" y="169.798" width="9.19576" height="40.1396" stroke="#162B6E" stroke-width="1.60559"/>
<rect x="24.0625" y="169.798" width="9.19576" height="40.1396" stroke="#162B6E" stroke-width="1.60559"/>
<rect x="33.2559" y="169.798" width="9.19576" height="40.1396" stroke="#162B6E" stroke-width="1.60559"/>
<rect x="114.406" y="27.5835" width="26.6051" height="78.0507" fill="#2D61DA" stroke="#162B6E" stroke-width="2.78702"/>
<rect x="141.082" y="27.5835" width="26.6753" height="78.0507" fill="#2D61DA" stroke="#162B6E" stroke-width="2.78702"/>
<rect x="167.615" y="27.5835" width="26.6753" height="78.0507" fill="#2D61DA" stroke="#162B6E" stroke-width="2.78702"/>
<rect x="108.764" y="98.7217" width="91.3125" height="16.0559" fill="#162B6E" stroke="#162B6E" stroke-width="1.60559"/>
<rect x="123.146" y="66.6094" width="8.89931" height="40.1396" stroke="#162B6E" stroke-width="1.60559"/>
<rect x="114.478" y="66.6094" width="8.89931" height="40.1396" stroke="#162B6E" stroke-width="1.60559"/>
<rect x="132.051" y="66.6094" width="8.89931" height="40.1396" stroke="#162B6E" stroke-width="1.60559"/>
<rect x="140.947" y="66.6094" width="8.89931" height="40.1396" stroke="#162B6E" stroke-width="1.60559"/>
<rect x="149.847" y="66.6089" width="8.89931" height="40.1396" stroke="#162B6E" stroke-width="1.60559"/>
<rect x="158.751" y="66.6089" width="8.89931" height="40.1396" stroke="#162B6E" stroke-width="1.60559"/>
<rect x="167.655" y="66.6089" width="8.89931" height="40.1396" stroke="#162B6E" stroke-width="1.60559"/>
<rect x="176.56" y="66.6089" width="8.89931" height="40.1396" stroke="#162B6E" stroke-width="1.60559"/>
<rect x="185.463" y="66.6089" width="8.89931" height="40.1396" stroke="#162B6E" stroke-width="1.60559"/>
<rect x="114.406" y="130" width="26.6051" height="78.0507" fill="#2D61DA" stroke="#162B6E" stroke-width="2.78702"/>
<rect x="141.082" y="130" width="26.6753" height="78.0507" fill="#2D61DA" stroke="#162B6E" stroke-width="2.78702"/>
<rect x="167.615" y="130" width="26.6753" height="78.0507" fill="#2D61DA" stroke="#162B6E" stroke-width="2.78702"/>
<rect x="108.764" y="201.138" width="91.3125" height="16.0559" fill="#162B6E" stroke="#162B6E" stroke-width="1.60559"/>
<rect x="123.146" y="169.025" width="8.89931" height="40.1396" stroke="#162B6E" stroke-width="1.60559"/>
<rect x="114.478" y="169.025" width="8.89931" height="40.1396" stroke="#162B6E" stroke-width="1.60559"/>
<rect x="132.051" y="169.025" width="8.89931" height="40.1396" stroke="#162B6E" stroke-width="1.60559"/>
<rect x="140.947" y="169.025" width="8.89931" height="40.1396" stroke="#162B6E" stroke-width="1.60559"/>
<rect x="149.847" y="169.025" width="8.89931" height="40.1396" stroke="#162B6E" stroke-width="1.60559"/>
<rect x="158.751" y="169.025" width="8.89931" height="40.1396" stroke="#162B6E" stroke-width="1.60559"/>
<rect x="167.655" y="169.025" width="8.89931" height="40.1396" stroke="#162B6E" stroke-width="1.60559"/>
<rect x="176.56" y="169.025" width="8.89931" height="40.1396" stroke="#162B6E" stroke-width="1.60559"/>
<rect x="185.463" y="169.025" width="8.89931" height="40.1396" stroke="#162B6E" stroke-width="1.60559"/>
<rect x="114.406" y="239.754" width="26.6051" height="78.0507" fill="#2D61DA" stroke="#162B6E" stroke-width="2.78702"/>
<rect x="141.082" y="239.754" width="26.6753" height="78.0507" fill="#2D61DA" stroke="#162B6E" stroke-width="2.78702"/>
<rect x="167.615" y="239.754" width="26.6753" height="78.0507" fill="#2D61DA" stroke="#162B6E" stroke-width="2.78702"/>
<rect x="123.146" y="278.78" width="8.89931" height="40.1396" stroke="#162B6E" stroke-width="1.60559"/>
<rect x="114.478" y="278.78" width="8.89931" height="40.1396" stroke="#162B6E" stroke-width="1.60559"/>
<rect x="132.051" y="278.78" width="8.89931" height="40.1396" stroke="#162B6E" stroke-width="1.60559"/>
<rect x="140.947" y="278.78" width="8.89931" height="40.1396" stroke="#162B6E" stroke-width="1.60559"/>
<rect x="149.847" y="278.78" width="8.89931" height="40.1396" stroke="#162B6E" stroke-width="1.60559"/>
<rect x="158.751" y="278.78" width="8.89931" height="40.1396" stroke="#162B6E" stroke-width="1.60559"/>
<rect x="167.655" y="278.78" width="8.89931" height="40.1396" stroke="#162B6E" stroke-width="1.60559"/>
<rect x="176.56" y="278.78" width="8.89931" height="40.1396" stroke="#162B6E" stroke-width="1.60559"/>
<rect x="185.463" y="278.78" width="8.89931" height="40.1396" stroke="#162B6E" stroke-width="1.60559"/>
<rect x="253.696" y="27.5835" width="26.6051" height="78.0507" fill="#2D61DA" stroke="#162B6E" stroke-width="2.78702"/>
<rect x="280.372" y="27.5835" width="26.6753" height="78.0507" fill="#2D61DA" stroke="#162B6E" stroke-width="2.78702"/>
<rect x="306.905" y="27.5835" width="26.6753" height="78.0507" fill="#2D61DA" stroke="#162B6E" stroke-width="2.78702"/>
<rect x="248.054" y="98.7217" width="91.3125" height="16.0559" fill="#162B6E" stroke="#162B6E" stroke-width="1.60559"/>
<rect x="262.437" y="66.6094" width="8.89931" height="40.1396" stroke="#162B6E" stroke-width="1.60559"/>
<rect x="253.768" y="66.6094" width="8.89931" height="40.1396" stroke="#162B6E" stroke-width="1.60559"/>
<rect x="271.341" y="66.6094" width="8.89931" height="40.1396" stroke="#162B6E" stroke-width="1.60559"/>
<rect x="280.237" y="66.6094" width="8.89931" height="40.1396" stroke="#162B6E" stroke-width="1.60559"/>
<rect x="289.137" y="66.6089" width="8.89931" height="40.1396" stroke="#162B6E" stroke-width="1.60559"/>
<rect x="298.041" y="66.6089" width="8.89931" height="40.1396" stroke="#162B6E" stroke-width="1.60559"/>
<rect x="306.945" y="66.6089" width="8.89931" height="40.1396" stroke="#162B6E" stroke-width="1.60559"/>
<rect x="315.85" y="66.6089" width="8.89931" height="40.1396" stroke="#162B6E" stroke-width="1.60559"/>
<rect x="324.753" y="66.6089" width="8.89931" height="40.1396" stroke="#162B6E" stroke-width="1.60559"/>
<rect x="253.696" y="130" width="26.6051" height="78.0507" fill="#2D61DA" stroke="#162B6E" stroke-width="2.78702"/>
<rect x="280.372" y="130" width="26.6753" height="78.0507" fill="#2D61DA" stroke="#162B6E" stroke-width="2.78702"/>
<rect x="306.905" y="130" width="26.6753" height="78.0507" fill="#2D61DA" stroke="#162B6E" stroke-width="2.78702"/>
<rect x="248.054" y="201.138" width="91.3125" height="16.0559" fill="#162B6E" stroke="#162B6E" stroke-width="1.60559"/>
<rect x="262.437" y="169.025" width="8.89931" height="40.1396" stroke="#162B6E" stroke-width="1.60559"/>
<rect x="253.768" y="169.025" width="8.89931" height="40.1396" stroke="#162B6E" stroke-width="1.60559"/>
<rect x="271.341" y="169.025" width="8.89931" height="40.1396" stroke="#162B6E" stroke-width="1.60559"/>
<rect x="280.237" y="169.025" width="8.89931" height="40.1396" stroke="#162B6E" stroke-width="1.60559"/>
<rect x="289.137" y="169.025" width="8.89931" height="40.1396" stroke="#162B6E" stroke-width="1.60559"/>
<rect x="298.041" y="169.025" width="8.89931" height="40.1396" stroke="#162B6E" stroke-width="1.60559"/>
<rect x="306.945" y="169.025" width="8.89931" height="40.1396" stroke="#162B6E" stroke-width="1.60559"/>
<rect x="315.85" y="169.025" width="8.89931" height="40.1396" stroke="#162B6E" stroke-width="1.60559"/>
<rect x="324.753" y="169.025" width="8.89931" height="40.1396" stroke="#162B6E" stroke-width="1.60559"/>
<rect x="253.696" y="239.754" width="26.6051" height="78.0507" fill="#FFDC00" stroke="#162B6E" stroke-width="2.78702"/>
<rect x="280.372" y="239.754" width="26.6753" height="78.0507" fill="#2D61DA" stroke="#162B6E" stroke-width="2.78702"/>
<rect x="306.905" y="239.754" width="26.6753" height="78.0507" fill="#2D61DA" stroke="#162B6E" stroke-width="2.78702"/>
<rect x="262.437" y="278.78" width="8.89931" height="40.1396" stroke="#162B6E" stroke-width="1.60559"/>
<rect x="253.768" y="278.78" width="8.89931" height="40.1396" stroke="#162B6E" stroke-width="1.60559"/>
<rect x="271.341" y="278.78" width="8.89931" height="40.1396" stroke="#162B6E" stroke-width="1.60559"/>
<rect x="280.237" y="278.78" width="8.89931" height="40.1396" stroke="#162B6E" stroke-width="1.60559"/>
<rect x="289.137" y="278.78" width="8.89931" height="40.1396" stroke="#162B6E" stroke-width="1.60559"/>
<rect x="298.041" y="278.78" width="8.89931" height="40.1396" stroke="#162B6E" stroke-width="1.60559"/>
<rect x="306.945" y="278.78" width="8.89931" height="40.1396" stroke="#162B6E" stroke-width="1.60559"/>
<rect x="315.85" y="278.78" width="8.89931" height="40.1396" stroke="#162B6E" stroke-width="1.60559"/>
<rect x="324.753" y="278.78" width="8.89931" height="40.1396" stroke="#162B6E" stroke-width="1.60559"/>
<rect x="392.986" y="27.5835" width="26.6051" height="78.0507" fill="#2D61DA" stroke="#162B6E" stroke-width="2.78702"/>
<rect x="419.662" y="27.5835" width="26.6753" height="78.0507" fill="#2D61DA" stroke="#162B6E" stroke-width="2.78702"/>
<rect x="446.195" y="27.5835" width="26.6753" height="78.0507" fill="#FFDC00" stroke="#162B6E" stroke-width="2.78702"/>
<rect x="387.344" y="98.7217" width="91.3125" height="16.0559" fill="#162B6E" stroke="#162B6E" stroke-width="1.60559"/>
<rect x="401.727" y="66.6094" width="8.89931" height="40.1396" stroke="#162B6E" stroke-width="1.60559"/>
<rect x="393.058" y="66.6094" width="8.89931" height="40.1396" stroke="#162B6E" stroke-width="1.60559"/>
<rect x="410.631" y="66.6094" width="8.89931" height="40.1396" stroke="#162B6E" stroke-width="1.60559"/>
<rect x="419.527" y="66.6094" width="8.89931" height="40.1396" stroke="#162B6E" stroke-width="1.60559"/>
<rect x="428.427" y="66.6089" width="8.89931" height="40.1396" stroke="#162B6E" stroke-width="1.60559"/>
<rect x="437.331" y="66.6089" width="8.89931" height="40.1396" stroke="#162B6E" stroke-width="1.60559"/>
<rect x="446.235" y="66.6089" width="8.89931" height="40.1396" stroke="#162B6E" stroke-width="1.60559"/>
<rect x="455.14" y="66.6089" width="8.89931" height="40.1396" stroke="#162B6E" stroke-width="1.60559"/>
<rect x="464.043" y="66.6089" width="8.89931" height="40.1396" stroke="#162B6E" stroke-width="1.60559"/>
<rect x="392.986" y="130" width="26.6051" height="78.0507" fill="#2D61DA" stroke="#162B6E" stroke-width="2.78702"/>
<rect x="419.662" y="130" width="26.6753" height="78.0507" fill="#2D61DA" stroke="#162B6E" stroke-width="2.78702"/>
<rect x="446.195" y="130" width="26.6753" height="78.0507" fill="#2D61DA" stroke="#162B6E" stroke-width="2.78702"/>
<rect x="387.344" y="201.138" width="91.3125" height="16.0559" fill="#162B6E" stroke="#162B6E" stroke-width="1.60559"/>
<rect x="401.727" y="169.025" width="8.89931" height="40.1396" stroke="#162B6E" stroke-width="1.60559"/>
<rect x="393.058" y="169.025" width="8.89931" height="40.1396" stroke="#162B6E" stroke-width="1.60559"/>
<rect x="410.631" y="169.025" width="8.89931" height="40.1396" stroke="#162B6E" stroke-width="1.60559"/>
<rect x="419.527" y="169.025" width="8.89931" height="40.1396" stroke="#162B6E" stroke-width="1.60559"/>
<rect x="428.427" y="169.025" width="8.89931" height="40.1396" stroke="#162B6E" stroke-width="1.60559"/>
<rect x="437.331" y="169.025" width="8.89931" height="40.1396" stroke="#162B6E" stroke-width="1.60559"/>
<rect x="446.235" y="169.025" width="8.89931" height="40.1396" stroke="#162B6E" stroke-width="1.60559"/>
<rect x="455.14" y="169.025" width="8.89931" height="40.1396" stroke="#162B6E" stroke-width="1.60559"/>
<rect x="464.043" y="169.025" width="8.89931" height="40.1396" stroke="#162B6E" stroke-width="1.60559"/>
<rect x="392.986" y="239.754" width="26.6051" height="78.0507" fill="#2D61DA" stroke="#162B6E" stroke-width="2.78702"/>
<rect x="419.662" y="239.754" width="26.6753" height="78.0507" fill="#2D61DA" stroke="#162B6E" stroke-width="2.78702"/>
<rect x="446.195" y="239.754" width="26.6753" height="78.0507" fill="#2D61DA" stroke="#162B6E" stroke-width="2.78702"/>
<rect x="401.727" y="278.78" width="8.89931" height="40.1396" stroke="#162B6E" stroke-width="1.60559"/>
<rect x="393.058" y="278.78" width="8.89931" height="40.1396" stroke="#162B6E" stroke-width="1.60559"/>
<rect x="410.631" y="278.78" width="8.89931" height="40.1396" stroke="#162B6E" stroke-width="1.60559"/>
<rect x="419.527" y="278.78" width="8.89931" height="40.1396" stroke="#162B6E" stroke-width="1.60559"/>
<rect x="428.427" y="278.78" width="8.89931" height="40.1396" stroke="#162B6E" stroke-width="1.60559"/>
<rect x="437.331" y="278.78" width="8.89931" height="40.1396" stroke="#162B6E" stroke-width="1.60559"/>
<rect x="446.235" y="278.78" width="8.89931" height="40.1396" stroke="#162B6E" stroke-width="1.60559"/>
<rect x="455.14" y="278.78" width="8.89931" height="40.1396" stroke="#162B6E" stroke-width="1.60559"/>
<rect x="464.043" y="278.78" width="8.89931" height="40.1396" stroke="#162B6E" stroke-width="1.60559"/>
<rect x="532.276" y="27.5835" width="26.6051" height="78.0507" fill="#2D61DA" stroke="#162B6E" stroke-width="2.78702"/>
<rect x="558.952" y="27.5835" width="26.6753" height="78.0507" fill="#2D61DA" stroke="#162B6E" stroke-width="2.78702"/>
<rect x="585.485" y="27.5835" width="26.6753" height="78.0507" fill="#2D61DA" stroke="#162B6E" stroke-width="2.78702"/>
<rect x="526.634" y="98.7217" width="91.3125" height="16.0559" fill="#162B6E" stroke="#162B6E" stroke-width="1.60559"/>
<rect x="541.017" y="66.6094" width="8.89931" height="40.1396" stroke="#162B6E" stroke-width="1.60559"/>
<rect x="532.348" y="66.6094" width="8.89931" height="40.1396" stroke="#162B6E" stroke-width="1.60559"/>
<rect x="549.921" y="66.6094" width="8.89931" height="40.1396" stroke="#162B6E" stroke-width="1.60559"/>
<rect x="558.817" y="66.6094" width="8.89931" height="40.1396" stroke="#162B6E" stroke-width="1.60559"/>
<rect x="567.717" y="66.6089" width="8.89931" height="40.1396" stroke="#162B6E" stroke-width="1.60559"/>
<rect x="576.621" y="66.6089" width="8.89931" height="40.1396" stroke="#162B6E" stroke-width="1.60559"/>
<rect x="585.525" y="66.6089" width="8.89931" height="40.1396" stroke="#162B6E" stroke-width="1.60559"/>
<rect x="594.43" y="66.6089" width="8.89931" height="40.1396" stroke="#162B6E" stroke-width="1.60559"/>
<rect x="603.333" y="66.6089" width="8.89931" height="40.1396" stroke="#162B6E" stroke-width="1.60559"/>
<rect x="532.276" y="130" width="26.6051" height="78.0507" fill="#2D61DA" stroke="#162B6E" stroke-width="2.78702"/>
<rect x="558.952" y="130" width="26.6753" height="78.0507" fill="#2D61DA" stroke="#162B6E" stroke-width="2.78702"/>
<rect x="585.485" y="130" width="26.6753" height="78.0507" fill="#2D61DA" stroke="#162B6E" stroke-width="2.78702"/>
<rect x="526.634" y="201.138" width="91.3125" height="16.0559" fill="#162B6E" stroke="#162B6E" stroke-width="1.60559"/>
<rect x="541.017" y="169.025" width="8.89931" height="40.1396" stroke="#162B6E" stroke-width="1.60559"/>
<rect x="532.348" y="169.025" width="8.89931" height="40.1396" stroke="#162B6E" stroke-width="1.60559"/>
<rect x="549.921" y="169.025" width="8.89931" height="40.1396" stroke="#162B6E" stroke-width="1.60559"/>
<rect x="558.817" y="169.025" width="8.89931" height="40.1396" stroke="#162B6E" stroke-width="1.60559"/>
<rect x="567.717" y="169.025" width="8.89931" height="40.1396" stroke="#162B6E" stroke-width="1.60559"/>
<rect x="576.621" y="169.025" width="8.89931" height="40.1396" stroke="#162B6E" stroke-width="1.60559"/>
<rect x="585.525" y="169.025" width="8.89931" height="40.1396" stroke="#162B6E" stroke-width="1.60559"/>
<rect x="594.43" y="169.025" width="8.89931" height="40.1396" stroke="#162B6E" stroke-width="1.60559"/>
<rect x="603.333" y="169.025" width="8.89931" height="40.1396" stroke="#162B6E" stroke-width="1.60559"/>
<rect x="532.276" y="239.754" width="26.6051" height="78.0507" fill="#2D61DA" stroke="#162B6E" stroke-width="2.78702"/>
<rect x="558.952" y="239.754" width="26.6753" height="78.0507" fill="#2D61DA" stroke="#162B6E" stroke-width="2.78702"/>
<rect x="585.485" y="239.754" width="26.6753" height="78.0507" fill="#2D61DA" stroke="#162B6E" stroke-width="2.78702"/>
<rect x="541.017" y="278.78" width="8.89931" height="40.1396" stroke="#162B6E" stroke-width="1.60559"/>
<rect x="532.348" y="278.78" width="8.89931" height="40.1396" stroke="#162B6E" stroke-width="1.60559"/>
<rect x="549.921" y="278.78" width="8.89931" height="40.1396" stroke="#162B6E" stroke-width="1.60559"/>
<rect x="558.817" y="278.78" width="8.89931" height="40.1396" stroke="#162B6E" stroke-width="1.60559"/>
<rect x="567.717" y="278.78" width="8.89931" height="40.1396" stroke="#162B6E" stroke-width="1.60559"/>
<rect x="576.621" y="278.78" width="8.89931" height="40.1396" stroke="#162B6E" stroke-width="1.60559"/>
<rect x="585.525" y="278.78" width="8.89931" height="40.1396" stroke="#162B6E" stroke-width="1.60559"/>
<rect x="594.43" y="278.78" width="8.89931" height="40.1396" stroke="#162B6E" stroke-width="1.60559"/>
<rect x="603.333" y="278.78" width="8.89931" height="40.1396" stroke="#162B6E" stroke-width="1.60559"/>
<rect x="671.566" y="27.5835" width="26.6051" height="78.0507" fill="#2D61DA" stroke="#162B6E" stroke-width="2.78702"/>
<rect x="698.242" y="27.5835" width="26.6753" height="78.0507" fill="#2D61DA" stroke="#162B6E" stroke-width="2.78702"/>
<rect x="724.775" y="27.5835" width="26.6753" height="78.0507" fill="#2D61DA" stroke="#162B6E" stroke-width="2.78702"/>
<rect x="665.924" y="98.7217" width="91.3125" height="16.0559" fill="#162B6E" stroke="#162B6E" stroke-width="1.60559"/>
<rect x="680.307" y="66.6094" width="8.89931" height="40.1396" stroke="#162B6E" stroke-width="1.60559"/>
<rect x="671.638" y="66.6094" width="8.89931" height="40.1396" stroke="#162B6E" stroke-width="1.60559"/>
<rect x="689.211" y="66.6094" width="8.89931" height="40.1396" stroke="#162B6E" stroke-width="1.60559"/>
<rect x="698.107" y="66.6094" width="8.89931" height="40.1396" stroke="#162B6E" stroke-width="1.60559"/>
<rect x="707.007" y="66.6089" width="8.89931" height="40.1396" stroke="#162B6E" stroke-width="1.60559"/>
<rect x="715.911" y="66.6089" width="8.89931" height="40.1396" stroke="#162B6E" stroke-width="1.60559"/>
<rect x="724.815" y="66.6089" width="8.89931" height="40.1396" stroke="#162B6E" stroke-width="1.60559"/>
<rect x="733.72" y="66.6089" width="8.89931" height="40.1396" stroke="#162B6E" stroke-width="1.60559"/>
<rect x="742.623" y="66.6089" width="8.89931" height="40.1396" stroke="#162B6E" stroke-width="1.60559"/>
<rect x="671.566" y="130" width="26.6051" height="78.0507" fill="#2D61DA" stroke="#162B6E" stroke-width="2.78702"/>
<rect x="698.242" y="130" width="26.6753" height="78.0507" fill="#2D61DA" stroke="#162B6E" stroke-width="2.78702"/>
<rect x="724.775" y="130" width="26.6753" height="78.0507" fill="#FFDC00" stroke="#162B6E" stroke-width="2.78702"/>
<rect x="665.924" y="201.138" width="91.3125" height="16.0559" fill="#162B6E" stroke="#162B6E" stroke-width="1.60559"/>
<rect x="680.307" y="169.025" width="8.89931" height="40.1396" stroke="#162B6E" stroke-width="1.60559"/>
<rect x="671.638" y="169.025" width="8.89931" height="40.1396" stroke="#162B6E" stroke-width="1.60559"/>
<rect x="689.211" y="169.025" width="8.89931" height="40.1396" stroke="#162B6E" stroke-width="1.60559"/>
<rect x="698.107" y="169.025" width="8.89931" height="40.1396" stroke="#162B6E" stroke-width="1.60559"/>
<rect x="707.007" y="169.025" width="8.89931" height="40.1396" stroke="#162B6E" stroke-width="1.60559"/>
<rect x="715.911" y="169.025" width="8.89931" height="40.1396" stroke="#162B6E" stroke-width="1.60559"/>
<rect x="724.815" y="169.025" width="8.89931" height="40.1396" stroke="#162B6E" stroke-width="1.60559"/>
<rect x="733.72" y="169.025" width="8.89931" height="40.1396" stroke="#162B6E" stroke-width="1.60559"/>
<rect x="742.623" y="169.025" width="8.89931" height="40.1396" stroke="#162B6E" stroke-width="1.60559"/>
<rect x="671.566" y="239.754" width="26.6051" height="78.0507" fill="#2D61DA" stroke="#162B6E" stroke-width="2.78702"/>
<rect x="698.242" y="239.754" width="26.6753" height="78.0507" fill="#2D61DA" stroke="#162B6E" stroke-width="2.78702"/>
<rect x="724.775" y="239.754" width="26.6753" height="78.0507" fill="#2D61DA" stroke="#162B6E" stroke-width="2.78702"/>
<rect x="680.307" y="278.78" width="8.89931" height="40.1396" stroke="#162B6E" stroke-width="1.60559"/>
<rect x="671.638" y="278.78" width="8.89931" height="40.1396" stroke="#162B6E" stroke-width="1.60559"/>
<rect x="689.211" y="278.78" width="8.89931" height="40.1396" stroke="#162B6E" stroke-width="1.60559"/>
<rect x="698.107" y="278.78" width="8.89931" height="40.1396" stroke="#162B6E" stroke-width="1.60559"/>
<rect x="707.007" y="278.78" width="8.89931" height="40.1396" stroke="#162B6E" stroke-width="1.60559"/>
<rect x="715.911" y="278.78" width="8.89931" height="40.1396" stroke="#162B6E" stroke-width="1.60559"/>
<rect x="724.815" y="278.78" width="8.89931" height="40.1396" stroke="#162B6E" stroke-width="1.60559"/>
<rect x="733.72" y="278.78" width="8.89931" height="40.1396" stroke="#162B6E" stroke-width="1.60559"/>
<rect x="742.623" y="278.78" width="8.89931" height="40.1396" stroke="#162B6E" stroke-width="1.60559"/>
<rect x="810.856" y="27.5835" width="26.6051" height="78.0507" fill="#2D61DA" stroke="#162B6E" stroke-width="2.78702"/>
<rect x="837.532" y="27.5835" width="26.6753" height="78.0507" fill="#2D61DA" stroke="#162B6E" stroke-width="2.78702"/>
<rect x="864.065" y="27.5835" width="26.6753" height="78.0507" fill="#2D61DA" stroke="#162B6E" stroke-width="2.78702"/>
<rect x="805.214" y="98.7217" width="91.3125" height="16.0559" fill="#162B6E" stroke="#162B6E" stroke-width="1.60559"/>
<rect x="819.597" y="66.6094" width="8.89931" height="40.1396" stroke="#162B6E" stroke-width="1.60559"/>
<rect x="810.928" y="66.6094" width="8.89931" height="40.1396" stroke="#162B6E" stroke-width="1.60559"/>
<rect x="828.501" y="66.6094" width="8.89931" height="40.1396" stroke="#162B6E" stroke-width="1.60559"/>
<rect x="837.397" y="66.6094" width="8.89931" height="40.1396" stroke="#162B6E" stroke-width="1.60559"/>
<rect x="846.297" y="66.6089" width="8.89931" height="40.1396" stroke="#162B6E" stroke-width="1.60559"/>
<rect x="855.201" y="66.6089" width="8.89931" height="40.1396" stroke="#162B6E" stroke-width="1.60559"/>
<rect x="864.105" y="66.6089" width="8.89931" height="40.1396" stroke="#162B6E" stroke-width="1.60559"/>
<rect x="873.01" y="66.6089" width="8.89931" height="40.1396" stroke="#162B6E" stroke-width="1.60559"/>
<rect x="881.913" y="66.6089" width="8.89931" height="40.1396" stroke="#162B6E" stroke-width="1.60559"/>
<rect x="810.856" y="130" width="26.6051" height="78.0507" fill="#2D61DA" stroke="#162B6E" stroke-width="2.78702"/>
<rect x="837.532" y="130" width="26.6753" height="78.0507" fill="#2D61DA" stroke="#162B6E" stroke-width="2.78702"/>
<rect x="864.065" y="130" width="26.6753" height="78.0507" fill="#2D61DA" stroke="#162B6E" stroke-width="2.78702"/>
<rect x="805.214" y="201.138" width="91.3125" height="16.0559" fill="#162B6E" stroke="#162B6E" stroke-width="1.60559"/>
<rect x="819.597" y="169.025" width="8.89931" height="40.1396" stroke="#162B6E" stroke-width="1.60559"/>
<rect x="810.928" y="169.025" width="8.89931" height="40.1396" stroke="#162B6E" stroke-width="1.60559"/>
<rect x="828.501" y="169.025" width="8.89931" height="40.1396" stroke="#162B6E" stroke-width="1.60559"/>
<rect x="837.397" y="169.025" width="8.89931" height="40.1396" stroke="#162B6E" stroke-width="1.60559"/>
<rect x="846.297" y="169.025" width="8.89931" height="40.1396" stroke="#162B6E" stroke-width="1.60559"/>
<rect x="855.201" y="169.025" width="8.89931" height="40.1396" stroke="#162B6E" stroke-width="1.60559"/>
<rect x="864.105" y="169.025" width="8.89931" height="40.1396" stroke="#162B6E" stroke-width="1.60559"/>
<rect x="873.01" y="169.025" width="8.89931" height="40.1396" stroke="#162B6E" stroke-width="1.60559"/>
<rect x="881.913" y="169.025" width="8.89931" height="40.1396" stroke="#162B6E" stroke-width="1.60559"/>
<rect x="810.856" y="239.754" width="26.6051" height="78.0507" fill="#2D61DA" stroke="#162B6E" stroke-width="2.78702"/>
<rect x="837.532" y="239.754" width="26.6753" height="78.0507" fill="#2D61DA" stroke="#162B6E" stroke-width="2.78702"/>
<rect x="864.065" y="239.754" width="26.6753" height="78.0507" fill="#2D61DA" stroke="#162B6E" stroke-width="2.78702"/>
<rect x="819.597" y="278.78" width="8.89931" height="40.1396" stroke="#162B6E" stroke-width="1.60559"/>
<rect x="810.928" y="278.78" width="8.89931" height="40.1396" stroke="#162B6E" stroke-width="1.60559"/>
<rect x="828.501" y="278.78" width="8.89931" height="40.1396" stroke="#162B6E" stroke-width="1.60559"/>
<rect x="837.397" y="278.78" width="8.89931" height="40.1396" stroke="#162B6E" stroke-width="1.60559"/>
<rect x="846.297" y="278.78" width="8.89931" height="40.1396" stroke="#162B6E" stroke-width="1.60559"/>
<rect x="855.201" y="278.78" width="8.89931" height="40.1396" stroke="#162B6E" stroke-width="1.60559"/>
<rect x="864.105" y="278.78" width="8.89931" height="40.1396" stroke="#162B6E" stroke-width="1.60559"/>
<rect x="873.01" y="278.78" width="8.89931" height="40.1396" stroke="#162B6E" stroke-width="1.60559"/>
<rect x="881.913" y="278.78" width="8.89931" height="40.1396" stroke="#162B6E" stroke-width="1.60559"/>
<rect width="47.6719" height="16.0559" transform="matrix(-1 0 0 1 981 98.7217)" fill="#162B6E" stroke="#162B6E" stroke-width="1.60559"/>
<rect width="9.15338" height="40.1396" transform="matrix(-1 0 0 1 966.207 66.6094)" stroke="#162B6E" stroke-width="1.60559"/>
<rect width="9.15338" height="40.1396" transform="matrix(-1 0 0 1 975.123 66.6094)" stroke="#162B6E" stroke-width="1.60559"/>
<rect width="9.15338" height="40.1396" transform="matrix(-1 0 0 1 957.048 66.6094)" stroke="#162B6E" stroke-width="1.60559"/>
<rect width="9.15338" height="40.1396" transform="matrix(-1 0 0 1 947.897 66.6094)" stroke="#162B6E" stroke-width="1.60559"/>
<rect width="47.6719" height="16.0559" transform="matrix(-1 0 0 1 981 201.91)" fill="#162B6E" stroke="#162B6E" stroke-width="1.60559"/>
<rect width="9.15338" height="40.1396" transform="matrix(-1 0 0 1 966.207 169.798)" stroke="#162B6E" stroke-width="1.60559"/>
<rect width="9.15338" height="40.1396" transform="matrix(-1 0 0 1 975.123 169.798)" stroke="#162B6E" stroke-width="1.60559"/>
<rect width="9.15338" height="40.1396" transform="matrix(-1 0 0 1 957.048 169.798)" stroke="#162B6E" stroke-width="1.60559"/>
<rect width="9.15338" height="40.1396" transform="matrix(-1 0 0 1 947.897 169.798)" stroke="#162B6E" stroke-width="1.60559"/>
</g>
<defs>
<clipPath id="clip0_32_72">
<rect width="981" height="301" fill="white"/>
</clipPath>
</defs>
</svg>
