<svg width="867" height="269" viewBox="0 0 867 269" fill="none" xmlns="http://www.w3.org/2000/svg">
<g clip-path="url(#clip0_208_10734)">
<rect x="24.52" y="11.1898" width="817.243" height="294.564" fill="#0F2F7E"/>
<g clip-path="url(#clip1_208_10734)">
<rect x="70.9106" y="46.7356" width="737.723" height="127.825" fill="#FFDC00"/>
<path fill-rule="evenodd" clip-rule="evenodd" d="M636.623 172.23C637.004 171.683 637.679 170.968 638.621 171.048C640.115 171.172 641.452 170.487 641.452 170.487C641.452 170.487 647.653 162.644 648.084 159.521C648.268 158.188 648.283 156.435 648.3 154.554C648.322 152.017 648.347 149.248 648.788 146.965C649.047 145.644 649.399 144.937 649.751 144.572C649.751 144.572 649.751 144.557 649.758 144.557C649.769 144.546 649.78 144.537 649.791 144.528C649.801 144.519 649.812 144.51 649.823 144.499C649.837 144.488 649.85 144.475 649.863 144.463C649.868 144.456 649.874 144.45 649.881 144.445C649.887 144.438 649.894 144.432 649.902 144.426C650.829 143.587 652.417 143.171 653.574 142.967C654.023 142.882 654.405 142.831 654.658 142.797C654.863 142.77 654.982 142.754 654.982 142.741L654.86 140.18L654.824 139.37C654.307 138.896 653.876 138.217 653.624 137.247C653.163 137.725 653.403 138.029 653.719 138.429C654.077 138.883 654.533 139.461 654.17 140.559C654.17 140.559 654.177 139.129 653.423 139.056C652.668 138.983 651.67 138.276 652.367 135.985C651.627 134.883 651.059 132.191 652.934 130.644L652.927 130.637C652.245 129.638 652.367 128.587 653.308 127.945C653.617 127.726 654.019 127.558 654.515 127.441C654.731 127.39 654.961 127.347 655.212 127.325C657.49 127.091 657.777 128.762 657.785 129.594C658.396 128.936 659.18 129.809 659.927 130.641C660.383 131.148 660.824 131.639 661.205 131.761C663.454 132.476 661.952 135.292 661.305 135.693C660.659 136.094 661.291 137.378 661.291 137.378C660.493 136.557 660.653 135.834 660.778 135.265C660.889 134.764 660.973 134.383 660.35 134.161C660.334 134.154 660.318 134.146 660.301 134.138C660.282 134.128 660.262 134.118 660.242 134.11C660.299 134.467 660.343 134.869 660.371 135.284C660.616 138.363 659.452 139.844 658.381 140.26L658.604 141.085L659.013 142.595C659.013 142.595 659.732 142.595 660.637 142.66C660.802 142.668 660.975 142.682 661.147 142.704C661.262 142.719 661.384 142.733 661.528 142.748C662.678 142.879 663.605 143.769 663.871 144.915L664.108 145.922C664.108 145.922 664.517 147.359 666.299 148.738C667.586 149.737 666.371 151.671 665.437 152.145L666.299 155.209C666.714 155.627 667.112 156.223 667.451 156.73C667.959 157.49 668.334 158.051 668.433 157.522C668.513 157.077 668.599 156.566 668.692 156.004C669.403 151.488 670.273 143.565 670.934 137.174C670.776 137.094 670.632 136.984 670.524 136.846C670.359 136.634 670.273 136.372 670.215 136.116C670.187 135.999 670.158 135.883 670.136 135.766C670.079 135.489 670.036 135.211 670.007 134.934C669.928 134.285 669.914 133.621 669.935 132.964C669.935 132.811 669.942 132.659 669.948 132.508C669.951 132.436 669.954 132.364 669.957 132.293C669.971 132.089 670.043 131.25 670.122 130.367H670.108C670.118 130.217 670.133 130.071 670.147 129.925C670.162 129.779 670.176 129.634 670.187 129.484H670.194C670.219 129.208 670.243 128.947 670.263 128.72L670.264 128.711C670.294 128.367 670.318 128.105 670.33 127.996C670.35 127.772 670.375 127.553 670.401 127.33L670.409 127.259H670.417C670.481 126.726 670.575 125.96 670.675 125.151H670.647C670.675 124.903 670.704 124.654 670.74 124.414H670.769C670.799 124.178 670.828 123.945 670.855 123.718C670.887 123.459 670.918 123.21 670.948 122.976H670.927C670.963 122.699 670.999 122.422 671.042 122.145H671.049C671.099 121.729 671.135 121.452 671.142 121.408C671.178 121.145 671.229 120.868 671.401 120.678C671.617 120.445 671.926 120.416 672.249 120.481C672.278 120.065 672.292 119.825 672.292 119.825C672.292 119.825 671.897 115.856 671.401 112.398C671.336 111.909 671.954 111.639 672.249 112.055C672.576 112.513 672.842 113.14 673.127 113.814C673.583 114.889 674.089 116.083 674.972 116.899C676.517 118.329 676.172 119.613 675.432 120.737C675.339 120.883 675.288 121.204 675.267 121.656C675.526 121.78 675.763 121.919 675.95 122.079C676.309 122.378 676.467 122.845 676.532 123.363C676.56 123.575 676.575 123.801 676.575 124.027C676.575 124.288 676.562 124.552 676.551 124.801V124.802C676.542 124.976 676.534 125.143 676.532 125.297V125.428V125.917C676.532 126.668 676.553 127.427 676.596 128.178C676.603 128.368 676.618 128.565 676.632 128.755C676.675 129.283 676.725 129.805 676.775 130.326L676.775 130.332L676.776 130.338C676.787 130.429 676.796 130.52 676.805 130.611C676.814 130.703 676.823 130.794 676.833 130.885C676.898 131.454 676.984 132.031 677.078 132.592C677.081 132.618 677.087 132.643 677.092 132.669C677.097 132.695 677.103 132.72 677.106 132.746C677.164 133.088 677.293 133.789 677.336 134.008C677.466 134.621 677.588 135.241 677.595 135.861V136.167C677.595 136.255 677.581 136.342 677.566 136.43C677.466 137.065 677.164 137.685 676.632 138.028C676.608 138.044 676.583 138.056 676.557 138.069L676.557 138.069C676.537 138.078 676.517 138.088 676.496 138.101L676.496 138.132C676.503 138.499 676.51 138.846 676.503 139.166C676.503 139.399 676.51 139.676 676.532 139.983C677.185 139.728 677.868 139.618 678.551 139.618C678.924 139.618 679.305 139.647 679.686 139.698C679.866 139.72 680.045 139.757 680.225 139.793C681.488 140.045 682.729 140.523 683.849 140.954C684.124 141.06 684.392 141.163 684.651 141.26C684.795 141.128 684.953 141.012 685.133 140.953C685.384 140.866 685.65 140.888 685.916 140.917C686.828 141.026 687.705 141.289 688.567 141.632C688.747 141.697 688.934 141.77 689.113 141.858C689.645 142.084 690.177 142.339 690.694 142.595C690.727 142.614 690.812 142.655 690.931 142.714C690.991 142.744 691.059 142.778 691.135 142.816C691.201 142.849 691.273 142.885 691.348 142.923C691.499 142.989 691.643 143.062 691.786 143.142C692.277 143.385 692.817 143.661 693.163 143.837L693.389 143.952C693.44 143.976 693.49 144.002 693.539 144.028C693.578 144.048 693.617 144.068 693.656 144.089L693.658 144.09C693.714 144.12 693.771 144.149 693.827 144.178C694.215 144.39 694.826 144.718 695.501 145.075L695.523 145.053C695.731 145.163 695.94 145.28 696.148 145.396C696.148 145.396 696.141 145.411 696.134 145.418C696.637 145.688 697.14 145.958 697.585 146.206L697.599 146.192C697.808 146.301 698.016 146.418 698.225 146.542C698.713 146.804 699.065 146.994 699.13 147.038L699.15 147.05C699.367 147.178 699.601 147.315 699.712 147.541C699.856 147.84 699.762 148.161 699.575 148.453C699.727 148.536 699.85 148.604 699.941 148.654C700.058 148.718 700.122 148.752 700.122 148.752C700.122 148.752 703.858 149.964 707.178 150.89C707.652 151.021 707.638 151.707 707.156 151.817C706.572 151.944 705.858 151.909 705.091 151.872C704.009 151.819 702.822 151.761 701.745 152.145C699.662 152.889 698.756 152.444 698.038 151.313C697.959 151.189 697.729 151.058 697.391 150.912C697.197 151.094 696.996 151.255 696.802 151.372C696.241 151.7 695.523 151.547 694.84 151.291C694.574 151.189 694.316 151.08 694.064 150.963C693.987 150.931 693.91 150.898 693.835 150.865L693.835 150.865C693.723 150.816 693.614 150.769 693.511 150.73C693.417 150.694 693.324 150.657 693.23 150.621L693.224 150.618C692.996 150.529 692.766 150.44 692.534 150.358C692.377 150.299 692.218 150.243 692.057 150.186C691.939 150.144 691.819 150.102 691.7 150.058C690.982 149.818 690.263 149.591 689.537 149.394C689.279 149.314 689.02 149.249 688.761 149.183C688.028 148.986 687.288 148.818 686.541 148.672C686.261 148.614 685.988 148.563 685.7 148.519C685.571 148.49 685.442 148.468 685.312 148.446L685.133 148.416C684.755 148.354 684.378 148.292 684.012 148.198C683.76 148.132 683.509 148.045 683.264 147.935C683.257 147.935 683.243 147.928 683.228 147.921C682.747 147.695 682.301 147.322 682.05 146.856C681.26 146.593 680.577 146.338 680.052 146.075C679.959 146.031 679.887 146.214 679.815 146.593C679.693 147.279 679.6 148.585 679.506 150.233C679.485 150.576 679.463 150.934 679.442 151.299C679.276 154.253 679.061 157.974 678.644 161.184C678.543 163.636 678.227 165.781 677.53 167.269C675.641 171.289 671.444 173.419 666.005 172.311C663.734 171.851 661.693 170.603 660.17 168.838C658.331 166.7 655.787 163.045 654.357 157.931C654.098 157.42 653.847 156.916 653.603 156.413C653.509 156.216 653.409 156.026 653.315 155.837C653.171 155.545 653.028 155.253 652.884 154.976L652.819 154.844C652.769 154.742 652.712 154.64 652.661 154.538C652.439 157.61 651.979 160.586 651.634 162.184C650.915 165.467 645.275 170.771 643.507 172.369C643.169 172.668 642.738 172.836 642.293 172.836H636.896C636.594 172.836 636.415 172.493 636.587 172.245L636.623 172.23ZM693.08 136.43C692.52 133.49 691.047 130.608 689.445 128.098C688.59 126.763 687.562 125.508 686.29 124.56C685.34 123.851 684.282 123.334 683.224 122.817C682.865 122.642 682.506 122.466 682.151 122.283C682.022 122.218 682.115 121.999 682.252 122.05C685.327 123.086 687.799 124.793 689.61 127.544C690.522 128.923 691.255 130.418 691.938 131.921L691.954 131.956C692.596 133.361 693.267 134.83 693.274 136.408C693.274 136.525 693.095 136.554 693.066 136.437L693.08 136.43ZM685.276 130.097C685.355 130.192 685.47 130.075 685.427 129.98L685.434 129.973C684.421 127.799 682.244 125.96 680.088 125.041C679.923 124.968 679.83 125.238 679.973 125.326C681.022 125.99 682.072 126.675 682.991 127.522C683.608 128.09 684.131 128.722 684.658 129.359C684.861 129.606 685.066 129.853 685.276 130.097Z" fill="#0F2F7E"/>
<path fill-rule="evenodd" clip-rule="evenodd" d="M652.001 139.849C650.776 136.873 649.022 134.201 646.786 131.907C644.552 129.612 641.949 127.811 639.052 126.553C636.051 125.249 632.865 124.589 629.579 124.589C629.275 124.589 628.97 124.594 628.667 124.607L628.668 124.606L628.664 124.606C628.617 124.607 628.569 124.608 628.524 124.611C628.5 124.612 628.476 124.613 628.452 124.614C628.427 124.616 628.403 124.617 628.379 124.618V124.619L628.376 124.619C627.942 124.641 627.51 124.674 627.08 124.719C627.068 124.649 627.009 124.596 626.938 124.596C626.86 124.596 626.795 124.662 626.795 124.743V124.75C624.492 125.018 622.252 125.621 620.106 126.553C617.208 127.811 614.605 129.612 612.371 131.907C610.137 134.201 608.383 136.873 607.156 139.849C605.887 142.929 605.243 146.202 605.243 149.574C605.243 152.946 605.887 156.219 607.156 159.301C608.383 162.276 610.136 164.948 612.371 167.243C612.739 167.621 613.118 167.986 613.506 168.338L613.427 169.148L613.409 169.331C613.216 171.308 613.079 172.651 613.079 172.651C613.076 172.684 613.075 172.717 613.075 172.749C613.075 173.474 613.625 174.09 614.34 174.142L619.385 174.504C620.132 174.558 620.784 173.976 620.836 173.209L620.843 172.902C623.627 174.003 626.562 174.561 629.578 174.561C632.862 174.561 636.05 173.899 639.051 172.597C641.948 171.339 644.551 169.537 646.785 167.243C649.02 164.948 650.775 162.276 652 159.301C653.269 156.219 653.913 152.948 653.913 149.574C653.913 146.201 653.269 142.929 652 139.849H652.001ZM626.795 126.057C621.687 126.684 616.961 129.032 613.267 132.826C608.91 137.299 606.51 143.247 606.51 149.574C606.51 155.901 608.909 161.85 613.267 166.324C613.397 166.458 613.529 166.59 613.662 166.72C614.072 162.45 614.573 157.021 614.759 154.453C614.95 151.644 615.204 145.058 615.354 141.001C615.37 140.588 615.385 140.208 615.398 139.854C615.444 138.482 615.471 137.594 615.471 137.594C615.523 136.827 616.175 136.245 616.922 136.3L619.761 136.504C619.781 136.506 619.801 136.507 619.821 136.51L621.967 136.664C622.714 136.718 623.281 137.387 623.228 138.154C623.228 138.154 623.122 139.023 622.961 140.375L622.962 140.374C622.946 140.527 622.928 140.689 622.909 140.859C622.885 141.079 622.859 141.311 622.835 141.551L622.834 141.552C622.363 145.586 621.628 152.114 621.435 154.934C621.241 157.789 621.054 164.248 620.937 168.675L620.938 168.675C620.933 169.101 620.927 169.503 620.914 169.882L620.912 169.882L620.912 169.883L620.914 169.882C620.9 170.499 620.887 171.053 620.876 171.524C623.603 172.664 626.547 173.261 629.579 173.261C635.741 173.261 641.534 170.797 645.892 166.324H645.893C650.25 161.85 652.65 155.901 652.65 149.574C652.65 143.247 650.25 137.299 645.893 132.826C641.536 128.351 635.742 125.887 629.581 125.887C629.276 125.887 628.97 125.893 628.667 125.905V153.733C628.905 153.797 629.081 154.015 629.081 154.272V156.261C629.081 156.568 628.83 156.819 628.523 156.819C628.216 156.819 627.965 156.568 627.965 156.261V154.272C627.965 154.015 628.141 153.797 628.379 153.733V125.919L628.378 125.919C627.943 125.942 627.511 125.977 627.082 126.024V140.729C627.286 140.813 627.43 141.013 627.43 141.246V143.235C627.43 143.542 627.179 143.793 626.872 143.793C626.564 143.793 626.314 143.542 626.314 143.235V141.246C626.314 140.965 626.524 140.731 626.795 140.693V126.057Z" fill="#0F2F7E"/>
<path fill-rule="evenodd" clip-rule="evenodd" d="M86.7154 122.028L104.183 169.409H95.7295C94.0786 169.409 92.728 170.76 92.728 172.411C92.728 174.062 94.0786 175.412 95.7295 175.412H182.533C184.184 175.412 185.534 174.062 185.534 172.411C185.534 170.76 184.184 169.409 182.533 169.409H122.067L110.999 139.39H117.305C117.353 139.39 117.402 139.384 117.448 139.376L130.02 136.937C130.4 136.862 130.66 136.512 130.623 136.128C130.586 135.742 130.262 135.448 129.876 135.448H109.545L104.119 120.732C103.762 119.757 102.681 119.263 101.71 119.62C101.115 119.839 100.698 120.327 100.546 120.896L90.4323 121.263L90.2365 120.732C89.8781 119.757 88.7963 119.263 87.8275 119.62C86.8546 119.978 86.3571 121.057 86.7154 122.028ZM110.099 136.951L110.445 137.888H117.235L122.069 136.951H110.099ZM106.445 137.888L103.763 130.613L94.194 131.466L96.5614 137.888H106.445ZM97.1152 139.39L108.182 169.409H118.067L106.999 139.39H97.1152Z" fill="#0F2F7E"/>
<path fill-rule="evenodd" clip-rule="evenodd" d="M278.748 89.3357C279.373 88.6976 279.206 87.6378 278.417 87.2175C277.62 86.7944 276.37 86.1825 275.302 85.8931C273.726 85.4659 272.164 85.9552 271.55 86.2776C271.566 86.1784 271.606 86.0434 271.7 85.9083C271.7 85.9083 271.424 86.104 271.384 86.3769C271.355 86.3975 271.343 86.4127 271.351 86.4168C271.351 86.4168 271.038 86.3603 270.839 86.4499C270.839 86.4499 270.979 86.4292 271.029 86.5202C271.034 86.5298 271.042 86.5381 271.051 86.545C268.713 87.675 267.931 90.4382 269.25 92.2242C269.99 93.2269 271.26 95.1726 271.484 95.5163L271.502 95.546C271.536 95.8379 271.548 96.107 271.544 96.3641C271.533 97.023 271.413 97.6007 271.269 98.2871C271.215 98.5468 271.158 98.822 271.102 99.123L271.102 99.1245C271.02 99.1303 267.178 99.412 265.121 100.523C263.041 101.646 260.559 107.225 260.559 107.225C260.559 107.225 260.724 107.763 261.355 108.439C260.299 111.98 258.937 118.401 259.072 121.131L259.074 121.132C259.151 121.161 261.946 122.209 266.344 122.621L266.211 129.195C266.53 129.3 266.848 129.399 267.165 129.49C266.861 132.222 266.749 136.92 266.65 141.074C266.631 141.899 266.612 142.702 266.592 143.464C266.439 149.294 268.27 173.407 268.27 173.407C268.336 173.424 268.402 173.439 268.469 173.453C268.364 173.892 268.272 174.483 268.23 175.27L273.253 175.226H273.255C273.255 175.226 273.128 174.238 272.843 173.341C273.041 173.302 273.154 173.275 273.154 173.275L276.44 149.461C276.571 150.076 276.684 150.642 276.776 151.148L276.78 151.169C276.822 151.412 276.862 151.639 276.894 151.852C276.965 152.299 277.009 152.676 277.024 152.975C277.338 159.113 282.191 173.147 283.059 173.475C283.155 173.511 283.256 173.539 283.359 173.56C283.375 174.31 283.478 175.016 283.787 175.204V175.203H293.624C293.521 174.849 293.186 174.251 292.105 174.076C290.951 173.889 289.153 173.333 288.102 172.223C288.268 172.016 288.347 171.747 288.289 171.475C285.885 160.43 285.002 144.523 284.681 135.107L284.677 135.011L284.709 135.03L284.714 135.022C285.116 135.241 285.564 135.396 286.046 135.472C286.448 135.535 286.845 135.538 287.228 135.488C287.525 136.486 288.199 137.353 289.114 137.911L290.225 138.565L290.23 138.555C290.669 138.794 291.156 138.963 291.68 139.045C294.051 139.419 296.264 137.871 296.624 135.589C296.888 133.91 296.075 132.301 294.683 131.42L294.684 131.418L294.615 131.378C294.553 131.34 294.49 131.304 294.426 131.269L293.706 130.855C293.218 130.554 292.66 130.341 292.053 130.246C291.47 130.154 290.895 130.179 290.356 130.302C290.182 129.875 289.93 129.481 289.615 129.138C289.206 126.198 288.423 121.243 287.736 119.444C287.35 118.433 286.843 115.883 286.28 113.051L286.28 113.049C286.061 111.948 285.833 110.805 285.601 109.693C286.575 109.287 287.049 108.814 287.049 108.814C287.049 108.814 284.764 102.556 283.509 101.481C282.253 100.406 277.135 99.4703 277.135 99.4703C277.124 99.4636 277.114 99.4577 277.106 99.4526C277.128 99.2709 277.117 99.152 277.117 99.152L277.12 98.5649L277.121 98.5635L277.126 97.6939L277.137 97.6898V96.9752C277.3 96.9502 277.393 96.9318 277.393 96.9318C277.877 96.8023 278.147 96.0402 278.274 95.041C278.484 93.3719 278.292 91.0439 278.027 89.9117C278.284 89.7312 278.538 89.5479 278.748 89.3343V89.3357ZM266.424 118.667L266.583 110.862L266.534 110.853C265.783 113.066 264.851 115.706 264.018 117.749C264.67 118.061 265.508 118.371 266.424 118.667ZM284.512 127.523C285.074 127.345 285.686 127.287 286.312 127.374C285.411 125.364 284.43 123.096 283.891 121.599C283.96 122.25 284.031 122.909 284.1 123.553L284.101 123.561L284.101 123.563C284.263 125.074 284.416 126.498 284.512 127.523Z" fill="#0F2F7E"/>
<path fill-rule="evenodd" clip-rule="evenodd" d="M145.155 96.0651C145.202 96.0169 145.306 95.9838 145.532 95.9865C145.532 95.9865 145.359 95.8611 145.119 95.8391C145.093 95.5221 144.962 94.9543 144.431 94.7834C144.431 94.7834 144.711 94.9571 144.728 95.2947C144.145 94.6098 142.833 94.053 139.098 94.0999C134.175 94.1619 135.583 97.4032 136.192 97.8194C136.405 97.9649 136.746 97.9472 137.151 97.87C136.76 99.5053 136.491 103.343 137.555 103.658C137.555 103.658 137.912 103.741 138.444 103.802C138.438 103.902 138.413 104.451 138.465 105.358L138.468 105.437C138.482 105.794 138.508 106.434 138.458 106.806C136.552 107.444 134.686 108.688 134.395 110.906C134.094 113.198 133.973 115.087 133.973 115.087C133.973 115.087 134.056 115.329 134.247 115.642C133.886 116.832 133.606 117.934 133.397 118.755C133.202 119.526 133.069 120.049 132.99 120.167C132.656 120.674 127.545 119.495 125.456 118.988L125.457 118.986L125.459 118.987C125.459 118.987 125.384 118.804 125.257 118.534C124.909 117.792 124.162 116.396 123.451 116.315C123.346 116.307 123.241 116.329 123.136 116.378C122.13 116.916 121.495 118.769 121.785 119.377L121.812 119.435C122.165 119.947 124.551 120.418 124.796 120.465C127.527 122.107 134.012 125.802 135.209 124.619C135.675 124.159 136.389 123.016 137.165 121.601C138.278 126.523 137.508 130.788 137.489 130.893C137.348 131.215 137.196 131.571 137.034 131.955C135.049 136.686 131.73 145.716 132.379 147.579C133.142 149.769 141.403 158.511 143.575 160.786C143.507 160.807 143.481 160.824 143.47 160.833L143.464 160.843L143.463 160.845C143.463 160.845 142.869 163.309 142.819 164.061C142.747 165.184 142.257 165.968 141.934 166.486C141.871 166.586 141.815 166.676 141.769 166.757C141.655 166.958 141.639 167.201 141.73 167.413C141.834 167.658 141.986 167.955 142.154 168.093C142.185 168.119 142.216 168.139 142.247 168.152C142.264 168.159 142.281 168.165 142.298 168.168L146.025 164.549V164.532C146.025 164.448 146.054 164.056 146.569 163.671C146.75 163.536 146.92 163.437 147.091 163.338C147.24 163.251 147.389 163.164 147.547 163.052L148.425 162.201L148.427 162.202C148.868 161.651 148.906 161.392 148.882 161.28C148.871 161.222 148.842 161.203 148.842 161.203C148.842 161.203 148.593 161.092 148.258 160.922L148.258 160.923C147.704 160.639 146.919 160.19 146.649 159.8C146.457 159.523 146.22 159.378 146.014 159.305L146.013 159.304H146.014C145.754 159.21 145.546 159.227 145.546 159.227L145.546 159.228C145.546 159.228 145.549 159.283 145.55 159.371C144.477 156.418 141.864 149.578 140.03 147.663C138.343 145.899 139.177 145.024 139.923 144.243C139.99 144.172 140.056 144.102 140.12 144.033L140.119 144.03C140.259 143.878 140.539 143.596 140.904 143.228L140.905 143.226C141.404 142.723 142.062 142.059 142.742 141.347L142.743 141.348C142.883 141.2 143.025 141.051 143.167 140.9C144.25 143.52 145.644 146.297 147.391 148.732C151.246 154.106 153.69 161.661 154.634 164.946L154.628 164.946L154.625 164.946L154.614 164.949C154.614 164.949 152.482 166.317 151.925 166.827C151.096 167.588 150.2 167.816 149.608 167.966C149.494 167.995 149.391 168.021 149.302 168.048C149.079 168.114 148.9 168.279 148.819 168.495C148.698 168.815 148.575 169.248 148.707 169.434L153.903 169.398C153.903 169.398 153.905 169.394 153.914 169.386C153.971 169.325 154.264 169.061 154.902 169.141C155.126 169.169 155.318 169.215 155.51 169.261C155.677 169.302 155.845 169.342 156.036 169.371L157.258 169.363V169.361C158.31 169.222 158.249 168.929 158.249 168.929C158.249 168.929 158.146 168.676 158.022 168.321C157.818 167.734 157.561 166.865 157.636 166.397C157.69 166.065 157.617 165.796 157.519 165.6C157.41 165.377 157.267 165.248 157.239 165.224C156.979 161.422 155.954 148.685 153.731 145.52C152.249 143.411 151.458 135.669 151.509 133.563C151.53 132.695 151.386 131.746 151.209 130.93C152.153 130.312 151.984 129.541 151.639 128.016C151.912 127.656 152.202 127.153 152.434 126.719C153.494 125.929 159.922 121.044 159.153 119.234C158.662 118.08 156.182 115.156 153.904 112.742C154.042 112.314 154.073 112.035 154.073 112.035C154.073 112.035 150.296 108.457 149.313 107.846C147.18 106.521 144.206 106.387 144.206 106.387H144.205C143.906 106.345 143.6 106.311 143.29 106.284C142.964 105.751 142.491 104.691 142.406 102.95C142.666 102.686 142.866 102.351 142.977 101.927L142.979 101.929L143.785 101.168C144.591 100.408 145.528 97.0215 145.235 96.2663C145.223 96.2358 145.211 96.2051 145.199 96.1741C145.185 96.1378 145.171 96.1008 145.156 96.0637L145.155 96.0651ZM150.712 117.023C150.868 118.851 150.953 120.707 150.951 122.357C150.951 123.322 151.005 124.171 151.088 124.923L151.118 124.917C151.209 124.9 151.29 124.885 151.36 124.873C152.029 123.915 154.576 120.201 154.196 119.654C154.115 119.538 153.678 119.221 153.034 118.756C152.409 118.303 151.589 117.71 150.712 117.023Z" fill="#0F2F7E"/>
<path fill-rule="evenodd" clip-rule="evenodd" d="M96.763 95.7778C94.8474 100.452 91.6708 101.09 90.5201 100.592C90.1424 100.428 89.2293 99.7998 88.1559 99.0611C85.9514 97.5439 83.0709 95.5615 82.7641 96.1871C82.308 97.1173 85.5121 101.617 88.4075 102.684C88.4075 102.684 80.9478 107.078 77.8098 104.161C76.0666 102.542 75.463 100.927 74.9328 99.5095C74.5082 98.3739 74.1306 97.3642 73.2524 96.5785C71.2803 94.8131 69.3151 94.204 69.9312 95.5711C70.1624 96.0826 70.8453 96.7306 71.6401 97.4849C72.9673 98.7444 74.6066 100.3 74.9764 102.011C75.0203 102.214 75.0647 102.413 75.1079 102.607C75.6454 105.014 75.989 106.553 72.6212 104.92C68.9816 103.158 63.647 98.432 64.3691 95.148C63.9652 95.0974 63.2683 95.2914 62.4819 95.5916C62.8182 94.9026 63.1696 94.2163 63.5348 93.5313C64.5513 92.6063 65.0679 91.899 65.0925 91.8651C65.0886 91.856 64.9852 91.6121 64.8459 91.2025C65.9994 89.2497 67.2783 87.3245 68.6922 85.4351L68.693 85.4341C68.7712 85.3299 68.8497 85.2251 68.9293 85.1195C70.0001 83.7056 71.1467 82.3123 72.3718 80.9397C73.3957 80.9604 74.4555 81.0968 75.3747 81.4455C75.3747 81.4455 68.8369 87.3121 70.0028 88.4614C71.1701 89.6108 76.8176 81.3986 76.8176 81.3986C76.8176 81.3986 85.5355 83.2136 87.848 85.3689C87.848 85.3689 78.7717 89.0375 80.1857 89.863C81.5996 90.6898 91.2216 87.3135 91.2216 87.3135C91.2216 87.3135 98.6799 91.106 96.763 95.7792V95.7778ZM64.4558 94.7579C64.3847 94.9748 64.3721 95.116 64.3702 95.1431C64.4 95.0098 64.4285 94.8814 64.4558 94.7579Z" fill="#0F2F7E"/>
<path d="M58.2969 106.688C58.4181 106.249 58.5436 105.812 58.6745 105.375C58.8536 104.771 59.0438 104.169 59.2409 103.568C59.8789 103.6 60.5335 103.703 61.1041 103.936C61.1041 103.936 59.369 105.419 58.2983 106.69L58.2969 106.688Z" fill="#0F2F7E"/>
<path d="M74.5517 113.424C73.2576 116.383 71.2166 116.74 70.4876 116.404C70.2476 116.294 69.6705 115.876 68.9929 115.385C67.6081 114.383 65.8035 113.076 65.5981 113.471C65.2908 114.058 67.2711 116.985 69.1054 117.709C69.1054 117.709 64.2696 120.403 62.3085 118.492C61.2186 117.43 60.8578 116.389 60.5408 115.475C60.287 114.743 60.0614 114.093 59.5124 113.577C58.2803 112.418 57.0331 111.998 57.4052 112.881C57.5453 113.213 57.9729 113.639 58.4704 114.134C59.2996 114.959 60.3229 115.977 60.5322 117.076C60.5571 117.208 60.5825 117.336 60.6072 117.461C60.9123 119.007 61.1073 119.994 58.9818 118.901C58.1439 118.47 57.1682 117.785 56.2917 116.984C56.4667 115.514 56.6872 114.045 56.9546 112.58C57.0896 111.834 57.2371 111.091 57.4011 110.348C57.4484 110.118 57.5002 109.889 57.5524 109.658L57.5692 109.584C57.6588 109.189 57.7525 108.794 57.8476 108.401C58.9708 108.146 62.0233 103.931 62.0233 103.931C62.0233 103.931 67.5674 105.226 69.0144 106.64C69.0144 106.64 63.1561 108.844 64.0491 109.393C64.9394 109.943 71.1408 107.931 71.1408 107.931C71.1408 107.931 75.8485 110.471 74.5517 113.429V113.424Z" fill="#0F2F7E"/>
<path d="M799.885 161.72L802.44 161.708L802.443 162.313L799.888 162.325L799.885 161.72Z" fill="#0F2F7E"/>
<path d="M804.402 166.073C804.4 165.178 804.014 164.369 803.402 163.801C803.137 163.555 802.83 163.355 802.493 163.212C802.461 163.198 802.432 163.18 802.408 163.157C802.333 163.087 802.297 162.981 802.313 162.876C802.32 162.825 802.322 162.774 802.322 162.721V162.323L802.321 162.323V162.322L800.025 162.329V162.727C800.025 162.774 800.029 162.819 800.035 162.865C800.057 163.021 799.966 163.171 799.822 163.234C798.73 163.721 797.963 164.82 797.967 166.088L797.989 173.541C797.992 174.485 798.768 175.255 799.712 175.253L802.805 175.243C803.117 175.242 803.409 175.152 803.657 174.997C804.118 174.708 804.426 174.195 804.424 173.614L804.402 166.073Z" fill="#0F2F7E"/>
<path d="M813.29 172.108C812.89 173.147 812.471 174.201 812.037 175.27C811.994 175.381 811.948 175.491 811.9 175.603H809.727L565.687 175.782H68.6145C68.4696 175.611 68.3194 175.441 68.1719 175.269C67.284 174.245 66.3962 173.19 65.5083 172.106H813.29V172.108Z" fill="#162B6E"/>
<path d="M770.228 106.511C769.968 106.5 768.716 106.721 766.411 107.708C766.411 107.708 766.275 107.776 765.358 107.758C762.517 107.644 759.481 107.448 756.188 107.547C755.046 107.581 753.348 107.362 751.44 107.071C750.918 106.368 749.602 104.862 749.298 104.661C748.957 104.434 747.95 104.458 747.788 104.463C747.779 104.463 747.769 104.462 747.759 104.46C747.55 104.35 747.495 103.478 747.497 102.557C747.497 102.119 747.512 101.673 747.529 101.292C747.983 101.33 748.285 101.326 748.285 101.326C749.134 101.26 749.665 98.9945 749.855 97.1633C749.855 97.1633 750.877 94.713 749.728 93.3271C749.514 93.0689 749.315 92.9003 749.131 92.7949C749.08 92.7422 749.027 92.6934 748.974 92.6473C748.177 91.7673 744.921 88.4488 742.816 90.4447C742.045 90.0231 740.174 89.3196 738.566 91.2614C736.485 93.779 734.774 100.96 728.603 102.588C728.603 102.588 728.607 102.596 728.615 102.613C729.252 102.725 731.068 102.569 735.171 99.3067C735.171 99.3067 733.812 102.188 729.197 103.64C729.865 104.687 731.099 106.278 732.897 107.25C733.627 106.933 734.683 106.388 735.552 105.591C735.495 105.664 734.557 106.839 733.589 107.582C733.918 107.718 734.263 107.833 734.625 107.92C734.711 107.941 734.88 107.92 735.096 107.868C735.749 107.445 736.67 106.583 737.34 104.884C737.34 104.884 737.468 105.72 737.415 106.602C739.278 104.219 740.539 101.621 741.394 99.2263C741.762 99.4727 742.132 99.5399 742.426 99.3805C743.095 99.0169 743.601 100.183 743.601 100.183L743.605 100.177C743.498 102.583 742.786 104.08 742.331 104.263C742.317 104.263 742.304 104.265 742.291 104.267C742.215 104.296 742.141 104.326 742.069 104.358C742.045 104.368 742.022 104.38 742 104.39C741.951 104.413 741.903 104.435 741.857 104.459C741.83 104.472 741.804 104.487 741.779 104.501C741.736 104.524 741.694 104.547 741.653 104.571C741.627 104.587 741.6 104.603 741.574 104.62C741.534 104.643 741.496 104.668 741.457 104.693C741.431 104.711 741.406 104.728 741.381 104.746C741.343 104.772 741.306 104.799 741.269 104.827C741.246 104.845 741.222 104.862 741.198 104.881C741.161 104.91 741.125 104.94 741.089 104.97C741.068 104.989 741.046 105.006 741.025 105.024C740.986 105.058 740.949 105.093 740.911 105.128C740.894 105.144 740.876 105.16 740.859 105.176C740.81 105.224 740.761 105.273 740.714 105.323C740.71 105.327 740.706 105.331 740.703 105.335C740.651 105.39 740.601 105.447 740.554 105.505C740.542 105.518 740.531 105.533 740.521 105.547C740.485 105.592 740.449 105.637 740.413 105.681C740.399 105.701 740.384 105.722 740.368 105.742C740.338 105.783 740.309 105.824 740.28 105.866C740.264 105.888 740.249 105.912 740.233 105.934C740.207 105.975 740.18 106.016 740.154 106.057C740.139 106.081 740.124 106.106 740.109 106.129C740.084 106.172 740.059 106.214 740.035 106.257C740.022 106.281 740.007 106.306 739.994 106.331C739.969 106.376 739.945 106.421 739.922 106.467C739.911 106.49 739.899 106.513 739.887 106.536C739.862 106.587 739.838 106.638 739.813 106.689C739.803 106.708 739.794 106.727 739.786 106.746C739.756 106.813 739.727 106.88 739.698 106.949C739.696 106.953 739.694 106.957 739.692 106.961C739.66 107.036 739.631 107.113 739.602 107.19C739.601 107.194 739.6 107.199 739.597 107.203C739.571 107.274 739.545 107.345 739.522 107.416C739.515 107.435 739.51 107.453 739.503 107.472C739.483 107.53 739.465 107.589 739.446 107.648C739.44 107.671 739.433 107.694 739.425 107.718C739.409 107.773 739.392 107.83 739.377 107.885C739.371 107.91 739.364 107.936 739.357 107.961C739.343 108.016 739.328 108.073 739.314 108.129C739.307 108.154 739.302 108.179 739.295 108.203C739.282 108.261 739.268 108.32 739.256 108.379C739.25 108.402 739.245 108.424 739.241 108.447C739.228 108.511 739.215 108.577 739.201 108.643C739.199 108.66 739.195 108.676 739.192 108.693C739.144 108.947 739.105 109.204 739.073 109.464C739.073 109.472 739.072 109.479 739.07 109.486C739.061 109.564 739.052 109.642 739.044 109.719C739.043 109.736 739.041 109.752 739.039 109.769C739.032 109.839 739.025 109.909 739.019 109.979C739.017 109.997 739.016 110.017 739.013 110.035C739.008 110.104 739.003 110.172 738.998 110.242C738.998 110.261 738.995 110.279 738.994 110.298C738.988 110.369 738.984 110.439 738.982 110.51C738.982 110.525 738.98 110.541 738.979 110.557C738.975 110.635 738.972 110.711 738.968 110.789C738.968 110.797 738.968 110.806 738.968 110.814C738.957 111.17 738.954 111.524 738.962 111.873C738.962 111.873 738.962 111.876 738.962 111.877C738.963 111.961 738.966 112.046 738.968 112.13C738.968 112.137 738.968 112.143 738.968 112.15C738.971 112.23 738.974 112.309 738.978 112.388C738.978 112.395 738.978 112.4 738.978 112.407C738.982 112.488 738.986 112.57 738.99 112.65C738.99 112.653 738.99 112.654 738.99 112.657C739.078 114.283 739.324 115.715 739.483 116.496C739.515 116.651 739.543 116.78 739.565 116.881C739.567 116.888 739.569 116.896 739.571 116.904C739.573 116.919 739.577 116.932 739.58 116.945C739.582 116.956 739.585 116.965 739.586 116.974C739.588 116.982 739.59 116.99 739.592 116.998C739.594 117.008 739.597 117.019 739.598 117.028C739.602 117.043 739.605 117.057 739.608 117.068C739.61 117.081 739.613 117.091 739.615 117.099C739.888 118.129 740.055 119.074 740.145 119.839C740.219 120.456 740.243 120.955 740.235 121.288C740.22 121.929 739.983 122.536 739.512 123.527C739.475 123.511 739.453 123.502 739.453 123.502L738.3 125.723C738.3 125.723 738.333 125.74 738.396 125.769C737.922 126.488 736.65 128.786 736.025 133.486C735.969 133.869 735.924 134.225 735.89 134.549C735.809 135.294 735.776 135.864 735.763 136.207C735.757 136.229 735.752 136.251 735.747 136.275C735.424 137.686 735.143 139.126 734.9 140.525C734.733 141.491 734.584 142.435 734.451 143.34C733.905 147.068 733.646 150.092 733.586 150.831V150.835C733.577 150.944 733.519 151.038 733.446 151.119C727.648 157.549 728.05 168.079 728.328 171.29C728.316 171.299 728.188 171.411 728.09 171.612C728.008 171.778 727.947 172.008 727.995 172.29C728.061 172.687 727.848 173.426 727.677 173.926C727.574 174.229 727.486 174.443 727.486 174.443C727.486 174.443 727.436 174.692 728.335 174.804H729.377C729.727 174.749 729.985 174.649 730.343 174.603C730.887 174.532 731.138 174.754 731.187 174.804C731.194 174.811 731.196 174.815 731.196 174.815H735.629C735.74 174.657 735.633 174.289 735.528 174.019C735.458 173.836 735.303 173.697 735.113 173.641C734.643 173.505 733.717 173.386 732.868 172.62C732.39 172.191 730.563 171.041 730.563 171.041L730.553 171.038H730.551C732.07 166.84 735.977 156.358 737.816 154.407C739.954 152.139 742.575 146.217 744.727 140.663C745.216 141.987 745.735 143.29 746.248 144.515C747.872 148.388 749.437 151.511 749.801 152.226C749.801 152.226 749.801 152.227 749.802 152.228C749.852 152.326 749.851 152.437 749.831 152.545C748.308 160.706 753.476 168.553 755.537 171.288C755.517 171.305 755.395 171.415 755.3 171.61C755.218 171.776 755.157 172.005 755.204 172.287C755.271 172.685 755.058 173.424 754.887 173.923C754.784 174.226 754.696 174.441 754.696 174.441C754.696 174.441 754.646 174.69 755.545 174.802H756.587C756.936 174.746 757.194 174.646 757.553 174.6C758.097 174.529 758.348 174.752 758.397 174.802C758.404 174.808 758.406 174.812 758.406 174.812H762.838C762.949 174.654 762.841 174.287 762.737 174.017C762.667 173.834 762.512 173.694 762.322 173.639C761.852 173.503 760.926 173.383 760.076 172.618C759.617 172.205 757.913 171.128 757.781 171.045C756.878 166.668 754.728 155.705 755.276 153.087C756.051 149.378 754.602 140.671 753.262 134.063C752.304 129.346 751.402 125.696 751.402 125.696L751.337 125.712L751.104 124.889C750.775 123.564 750.607 122.433 750.546 121.444C752.532 120.235 754.58 118.468 755.775 117.375C755.775 117.38 755.777 117.386 755.779 117.392C755.779 117.392 756.801 116.401 756.861 116.379C756.922 116.355 757.819 115.856 758.208 115.283C758.598 114.708 758.859 114.234 758.338 113.37C757.818 112.506 756.33 112.259 756.157 112.432C755.984 112.604 755.513 114.752 755.513 114.752C755.513 114.752 755.46 114.915 754.756 115.412C754.756 115.412 754.759 115.416 754.76 115.417L750.91 117.326C750.923 117.264 750.937 117.202 750.951 117.14C750.951 117.135 750.953 117.131 750.955 117.126C751.045 116.737 751.137 116.363 751.225 115.991C751.236 115.943 751.247 115.894 751.258 115.846C751.27 115.796 751.28 115.746 751.292 115.695C751.313 115.603 751.333 115.509 751.352 115.417C751.357 115.389 751.362 115.362 751.367 115.334C751.383 115.255 751.399 115.176 751.414 115.097C751.42 115.06 751.427 115.023 751.434 114.987C751.447 114.915 751.459 114.841 751.469 114.767C751.475 114.735 751.48 114.7 751.485 114.667C751.5 114.566 751.514 114.464 751.526 114.362C751.526 114.359 751.526 114.356 751.526 114.354C751.533 114.292 751.538 114.23 751.543 114.168C751.549 114.107 751.555 114.047 751.561 113.985C751.565 113.939 751.566 113.891 751.569 113.844C751.573 113.766 751.578 113.69 751.58 113.611C751.582 113.553 751.58 113.494 751.58 113.436C751.58 113.366 751.583 113.297 751.58 113.226C751.578 113.096 751.573 112.963 751.565 112.827C751.555 112.678 751.541 112.528 751.522 112.378C751.517 112.33 751.509 112.282 751.504 112.234C751.494 112.162 751.485 112.088 751.475 112.015C752.9 111.975 754.235 111.917 755.338 111.889C758.713 111.807 763.02 110.663 765.044 110.07C765.044 110.071 765.044 110.072 765.043 110.074C765.043 110.074 766.112 109.744 766.205 109.748C766.297 109.754 768.449 109.923 769.211 109.84C769.973 109.757 770.37 109.815 770.444 108.447C770.518 107.077 770.481 106.522 770.221 106.509L770.228 106.511Z" fill="#0F2F7E"/>
<path d="M342.959 131.111C342.587 129.755 341.122 128.963 339.685 129.34C339.317 129.437 338.987 129.601 338.705 129.814L338.189 130.181C338.189 130.181 338.186 130.183 338.186 130.184L338.139 130.218L338.142 130.221C338.043 130.298 337.951 130.38 337.866 130.469C337.77 130.302 337.694 130.148 337.647 130.049C336.485 127.216 335.145 121.712 334.702 120.699C334.252 119.67 332.642 107.941 331.03 104.463C330.903 104.189 330.53 103.957 330.047 103.762C328.867 103.262 327.321 103.095 327.321 103.095V103.097C326.88 103.029 326.528 102.986 326.365 102.968C325.909 102.609 325.297 101.178 325.197 98.9853L325.201 98.9906C325.201 98.9906 325.712 97.8341 326.386 98.1944C327.438 98.7574 329.471 96.4788 328.821 93.4808C328.751 93.1563 328.666 92.8608 328.573 92.5892C328.792 92.6833 329.039 92.7588 329.271 92.7588C329.883 92.7588 330.807 91.2287 330.932 90.7147C331.056 90.2007 330.92 88.5102 330.083 88.0095C329.247 87.5074 327.911 88.1075 327.911 88.1075C328.373 87.4703 330.059 87.6796 330.059 87.6796C326.692 86.9775 325.997 89.0931 325.942 89.2813C323.819 87.4027 320.586 90.6498 319.789 91.5162C319.735 91.5612 319.682 91.6102 319.629 91.6619C319.444 91.7666 319.244 91.9335 319.028 92.1905C317.87 93.5656 318.901 95.9979 318.901 95.9979C319.093 97.8142 319.628 100.062 320.483 100.129C320.483 100.129 320.787 100.134 321.245 100.095C321.261 100.474 321.276 100.917 321.276 101.351C321.279 102.251 321.224 103.104 321.021 103.234C320.57 103.272 319.41 103.398 318.328 103.729C317.754 103.899 317.501 104.034 317.501 104.034C317.501 104.034 317.501 104.034 317.502 104.035C316.821 104.345 316.276 104.767 316.122 105.343C315.324 108.312 314.58 115.228 314.58 115.228L312.352 112.519C313.441 112.352 314.372 111.605 314.666 110.527C314.964 109.442 314.533 108.328 313.661 107.651V107.648L313.612 107.612C313.603 107.604 313.592 107.598 313.583 107.591L313.048 107.211C312.741 106.979 312.383 106.8 311.983 106.696C311.597 106.594 311.21 106.571 310.839 106.615C310.687 106.102 310.371 105.64 309.931 105.298L309.933 105.295L309.886 105.262C309.886 105.262 309.883 105.261 309.882 105.259L309.367 104.894C309.086 104.681 308.755 104.516 308.387 104.42C306.95 104.042 305.485 104.834 305.114 106.191C304.837 107.204 305.249 108.244 306.074 108.863L306.716 109.329L306.723 109.321C306.977 109.493 307.265 109.63 307.582 109.713C307.678 109.739 307.774 109.757 307.87 109.773C308.055 110.099 308.238 110.333 308.275 110.38H308.274C308.274 110.38 312.23 120.807 315.569 120.322C316.476 120.191 317.305 118.869 318.033 117.016C318.328 118.744 318.382 120.881 317.462 124.171C317.45 124.164 317.443 124.159 317.443 124.159L317.224 124.82C317.224 124.82 317.225 124.821 317.227 124.823C316.908 125.86 316.259 128.454 315.77 133.586C315.77 133.586 315.788 133.583 315.82 133.581C315.449 137.762 315.358 143.509 316.345 150.311C317.204 156.237 316.948 162.122 316.581 166.026C316.516 166.716 316.447 167.343 316.381 167.898C316.381 167.903 316.381 167.909 316.378 167.915C316.322 168.282 315.784 171.203 312.814 171.564C310.759 171.813 311.071 172.354 311.846 172.821H315.177C316.005 172.601 318.075 172.831 318.955 172.821C319.835 172.81 319.374 171.595 319.11 170.854C318.804 169.99 319.024 169.264 319.121 169.012C319.121 169.011 319.124 169.008 319.124 169.005C319.132 168.986 319.141 168.967 319.148 168.947C319.151 168.941 319.154 168.934 319.155 168.929C319.155 168.926 319.158 168.923 319.158 168.922C319.158 168.919 319.16 168.917 319.16 168.917C319.455 168.248 319.812 167.398 320.186 166.418C321.826 162.126 323.815 155.303 322.492 149.984C322.492 149.984 323.011 147.042 323.718 143.118C323.906 142.071 324.107 140.956 324.315 139.807C326.434 145.128 328.955 150.643 331.026 152.806C332.599 154.449 335.299 161.591 336.886 166.051C337.15 166.788 337.381 167.453 337.571 168.005C337.571 168.005 337.571 168.007 337.574 168.012C337.678 168.318 337.771 168.588 337.851 168.82C337.984 169.698 337.644 171.04 334.643 171.562C332.606 171.916 332.902 172.353 333.677 172.819H337.008C337.836 172.6 339.906 172.83 340.786 172.819C341.665 172.809 341.203 171.594 340.941 170.852C340.674 170.098 340.66 168.905 340.678 168.262C340.685 168.119 340.691 167.971 340.697 167.817C340.725 167.099 340.734 166.262 340.713 165.344C340.595 160.763 339.613 154.11 335.427 149.543C335.353 149.462 335.293 149.368 335.285 149.261V149.257C335.189 148.083 334.576 141.103 333.091 134.745C333.058 133.93 332.913 131.796 332.25 129.128C331.664 126.761 330.899 125.231 330.507 124.547L330.251 124.073C329.146 121.798 328.606 120.908 328.583 119.942C328.563 119.092 328.941 118.179 329.682 116.21C330.181 118.013 330.633 119.7 330.801 120.485C331.251 122.578 336.196 130.622 336.196 130.622C336.196 130.622 336.346 130.721 336.52 131.211C336.545 131.28 336.595 131.391 336.662 131.531C336.47 131.545 336.278 131.575 336.085 131.627C335.685 131.731 335.326 131.91 335.02 132.142L334.488 132.521C334.477 132.529 334.466 132.537 334.456 132.545L334.406 132.58V132.583C333.537 133.26 333.106 134.374 333.403 135.459C333.807 136.935 335.401 137.797 336.965 137.385C337.311 137.294 337.625 137.15 337.901 136.962L337.906 136.968L338.605 136.461C339.178 136.03 339.567 135.412 339.695 134.735C339.956 134.741 340.224 134.712 340.489 134.642C340.806 134.558 341.094 134.422 341.348 134.25L341.355 134.258L341.996 133.791C342.822 133.171 343.234 132.131 342.957 131.118L342.959 131.111Z" fill="#0F2F7E"/>
<path d="M786.006 90.6037L780.54 90.1708C777.252 89.9103 774.348 92.3881 774.088 95.6763L769 160.004H767.861C766.264 160.004 764.956 161.312 764.956 162.909V172.587C764.956 174.184 766.264 175.492 767.861 175.492H793.711C795.309 175.492 796.616 174.186 796.616 172.587V162.909C796.616 161.312 795.309 160.004 793.711 160.004H793.01L797.947 97.5642L797.949 97.5656C798.208 94.2761 795.731 91.3724 792.442 91.1133L786.005 90.6034L786.006 90.6037Z" fill="#0F2F7E"/>
<path fill-rule="evenodd" clip-rule="evenodd" d="M596.682 174.296C596.588 174.134 596.579 174.019 596.566 173.867C596.562 173.815 596.558 173.758 596.549 173.694C596.509 173.35 596.337 173.091 596.086 172.926C596.112 172.575 596.152 171.966 596.185 171.172C596.271 169.318 596.351 166.451 596.218 163.393C596.172 162.208 596.086 161.003 595.967 159.804C595.305 153.363 595.377 149.377 595.775 146.458C595.808 146.226 595.841 145.955 595.874 145.65C595.96 144.902 596.046 143.975 596.112 142.936C596.218 141.181 596.278 139.109 596.178 137.07C605.248 134.978 611.471 131.284 611.471 127.65C611.471 127.524 611.465 127.405 611.451 127.285C610.975 123.134 602.388 120.725 591.193 121.314C591.041 120.771 590.935 120.208 590.889 119.646C590.862 118.732 590.902 117.904 591.028 117.295C591.081 117.037 591.154 116.825 591.226 116.647C591.27 116.557 591.318 116.467 591.366 116.378C591.47 116.184 591.576 115.988 591.643 115.779C591.882 115.058 591.677 114.283 591.365 113.575C591.451 113.482 594.272 110.172 594.556 109.828C594.55 109.831 594.542 109.836 594.533 109.841C594.525 109.846 594.517 109.851 594.51 109.854C595.007 109.265 595.404 108.788 595.543 108.616C595.576 108.574 595.61 108.532 595.644 108.49L595.644 108.49C595.711 108.406 595.779 108.323 595.841 108.239C597.132 106.577 598.244 104.809 597.979 103.942C597.271 101.327 596.205 98.8115 595.099 96.3421C594.603 95.2166 594.073 94.0581 593.477 92.9657C593.166 92.403 592.835 91.8469 592.471 91.3239C592.358 91.1584 592.213 91.026 592.041 90.9333C591.22 90.4765 589.876 90.7943 589.373 91.6019C589.081 92.072 589.234 92.7075 589.571 93.1378C589.664 93.257 589.763 93.3563 589.869 93.4556C590.145 93.707 590.461 93.913 590.78 94.1209L590.856 94.1706C591.193 94.4023 591.458 94.6671 591.67 94.9651C592.164 95.6622 592.36 96.5041 592.563 97.3735L592.563 97.3735C592.624 97.6352 592.685 97.8993 592.756 98.1627C592.998 99.0811 593.243 99.9995 593.488 100.919C593.766 101.961 594.044 103.003 594.318 104.048C594.318 104.048 593.689 104.776 592.776 105.65C592.733 105.693 592.688 105.733 592.643 105.773C592.598 105.812 592.554 105.852 592.511 105.895C592.292 106.087 592.001 106.326 591.663 106.597C591.661 106.582 591.656 106.567 591.652 106.552L591.652 106.552C591.645 106.526 591.637 106.5 591.637 106.471C591.629 106.34 591.641 106.206 591.653 106.072C591.671 105.867 591.689 105.663 591.637 105.471C591.531 105.094 591.346 104.849 591.087 104.578C590.985 104.471 590.872 104.384 590.759 104.298C590.573 104.156 590.39 104.017 590.266 103.79C590.175 103.624 590.151 103.436 590.127 103.248C590.093 102.985 590.059 102.722 589.843 102.525C589.697 102.391 589.504 102.339 589.306 102.286C589.154 102.244 588.999 102.203 588.863 102.122C588.697 102.022 588.578 101.877 588.486 101.705C588.402 101.561 588.335 101.404 588.268 101.247C588.239 101.181 588.211 101.114 588.181 101.049C587.804 100.241 587.089 99.6258 586.314 99.2021C585.189 98.593 584.05 98.2222 582.785 98.4209C581.647 98.6062 580.442 98.9703 579.608 99.8045C578.966 100.453 578.337 101.155 578.059 102.042C577.971 102.33 577.912 102.62 577.853 102.911L577.853 102.911C577.784 103.256 577.714 103.601 577.595 103.942C577.397 104.505 577.132 104.637 576.589 104.909C576.245 105.081 575.894 105.313 575.775 105.683C575.694 105.937 575.676 106.193 575.658 106.449C575.637 106.741 575.616 107.033 575.503 107.319C575.424 107.522 575.293 107.739 575.158 107.963C575.02 108.19 574.878 108.426 574.782 108.662C572.405 107.881 571.478 106.749 571.478 106.749L571.26 100.659C571.25 100.392 571.232 100.127 571.214 99.8638V99.8638V99.8638C571.16 99.0683 571.107 98.2933 571.286 97.5668C571.392 97.1233 571.584 96.7062 571.908 96.2957C572.047 96.1302 572.186 95.9581 572.319 95.786C572.524 95.5278 572.709 95.2497 572.829 94.932C573.027 94.4222 572.987 93.7668 572.57 93.4027C571.696 92.6347 569.863 92.9392 569.518 94.0382C569.432 94.2964 569.359 94.5546 569.293 94.8194C569.187 95.2181 569.099 95.6286 569.012 96.0342L568.995 96.1104C568.764 97.2755 568.611 98.4606 568.472 99.6191C568.135 102.3 567.857 105.021 567.936 107.729C567.936 108.788 571.015 110.86 573.934 112.588C574.345 112.833 574.755 113.072 575.152 113.297C575.549 113.527 575.958 113.738 576.369 113.951L576.369 113.951C576.548 114.043 576.728 114.136 576.907 114.23C577.205 114.409 577.489 114.614 577.761 114.866C578.595 115.647 579.158 116.481 579.594 117.54C580.27 119.169 580.674 120.903 580.819 122.664C576.986 123.472 573.504 124.578 570.697 125.908C566.314 127.987 564.05 130.404 564.315 132.714C564.58 135.025 567.34 136.865 572.08 137.898C574.338 138.388 576.933 138.672 579.727 138.745C579.839 140.083 579.985 141.38 580.151 142.559V142.585C580.197 142.923 580.243 143.247 580.296 143.558C580.296 143.571 580.296 143.591 580.303 143.605C580.322 143.719 580.34 143.834 580.358 143.946C580.39 144.145 580.421 144.339 580.455 144.525C580.541 145.048 580.634 145.518 580.713 145.915C580.745 146.073 580.778 146.222 580.81 146.362L580.81 146.362C580.838 146.485 580.864 146.601 580.885 146.709C581.547 149.583 581.971 153.542 581.885 160.023C581.872 161.181 581.898 162.353 581.951 163.499C582.097 166.603 582.435 169.503 582.693 171.364C582.819 172.29 582.925 172.959 582.977 173.257C582.878 173.303 582.785 173.363 582.739 173.462C582.706 173.548 582.713 173.641 582.726 173.734C582.733 173.79 582.741 173.847 582.75 173.904C582.788 174.168 582.827 174.436 582.746 174.687C582.704 174.827 582.597 174.976 582.489 175.126C582.46 175.167 582.43 175.208 582.402 175.25C582.203 175.541 582.057 175.839 582.435 176.117C582.673 176.296 582.997 176.315 583.295 176.329L583.352 176.331H583.352C583.863 176.35 584.38 176.369 584.891 176.395C585.069 176.402 585.255 176.408 585.427 176.349C585.784 176.216 585.97 175.792 585.924 175.415C585.894 175.182 585.789 175.023 585.68 174.858C585.619 174.765 585.557 174.671 585.506 174.561C585.425 174.382 585.426 174.266 585.427 174.106C585.428 174.06 585.428 174.009 585.427 173.952C585.414 173.661 585.314 173.409 585.142 173.23C585.144 173.211 585.145 173.191 585.146 173.171C585.146 173.158 585.147 173.144 585.147 173.131L585.147 173.131C585.15 173.065 585.153 172.999 585.162 172.933C585.181 172.764 585.695 166.209 586.337 158.024L586.337 158.023L586.338 158.015C586.831 151.73 587.399 144.485 587.877 138.434C587.923 138.434 587.969 138.427 588.009 138.421L588.451 141.046L588.453 141.056C590.606 153.825 593.358 170.146 593.636 171.655C593.709 172.085 593.795 172.529 593.881 172.966C593.898 173.043 593.91 173.124 593.922 173.203L593.922 173.203C593.928 173.246 593.934 173.288 593.941 173.33C593.901 173.369 593.861 173.409 593.841 173.462C593.815 173.548 593.828 173.648 593.848 173.734C593.86 173.789 593.873 173.844 593.886 173.9C593.946 174.159 594.008 174.425 593.954 174.687C593.922 174.834 593.828 174.994 593.734 175.153L593.734 175.154C593.71 175.195 593.686 175.235 593.663 175.276C593.491 175.587 593.378 175.892 593.775 176.137C594.033 176.296 594.351 176.282 594.649 176.269C595.179 176.243 595.708 176.216 596.245 176.19C596.423 176.183 596.609 176.17 596.774 176.09C597.118 175.925 597.264 175.488 597.185 175.117C597.139 174.892 597.02 174.743 596.898 174.591C596.826 174.502 596.754 174.411 596.695 174.303L596.682 174.296ZM594.338 122.122C603.322 122.122 610.207 124.181 610.578 127.385C610.942 130.569 604.785 134.111 596.125 136.157C596.113 136.03 596.106 135.898 596.1 135.771L596.099 135.753C595.94 133.939 595.642 132.218 595.119 130.841C595.046 130.642 594.967 130.437 594.881 130.225L594.836 130.115L594.836 130.114C594.724 129.836 594.605 129.543 594.477 129.245C594.389 129.034 594.294 128.819 594.197 128.6L594.197 128.6L594.113 128.411C594.08 128.341 594.048 128.27 594.017 128.199C593.985 128.128 593.954 128.057 593.921 127.987C593.881 127.904 593.843 127.82 593.805 127.736C593.767 127.651 593.729 127.567 593.689 127.484C593.663 127.431 593.638 127.38 593.613 127.328C593.588 127.277 593.563 127.226 593.537 127.173C593.431 126.954 593.325 126.736 593.212 126.524C593.196 126.491 593.179 126.46 593.163 126.428C593.146 126.397 593.13 126.365 593.113 126.332C593.092 126.292 593.072 126.253 593.052 126.214C593.022 126.155 592.993 126.097 592.961 126.041C592.939 126.002 592.908 125.946 592.872 125.88C592.82 125.786 592.758 125.673 592.696 125.564L592.676 125.524C592.676 125.521 592.673 125.516 592.67 125.511C592.666 125.506 592.663 125.501 592.663 125.498C592.653 125.481 592.643 125.463 592.633 125.445C592.623 125.427 592.613 125.409 592.603 125.392C592.875 124.807 592.377 123.923 592.045 123.334C592.021 123.29 591.997 123.248 591.974 123.207C591.789 122.876 591.637 122.532 591.491 122.188C592.458 122.141 593.404 122.115 594.331 122.115L594.338 122.122ZM565.189 132.615C564.97 130.741 567.115 128.59 571.074 126.709C573.788 125.419 577.152 124.353 580.866 123.565C580.879 124.061 580.879 124.558 580.846 125.054C580.806 125.69 580.826 126.074 581.064 126.312C581.058 126.339 581.051 126.359 581.038 126.385C580.647 127.616 580.283 128.788 580.051 130.013C579.992 130.218 579.945 130.43 579.899 130.655C579.873 130.768 579.853 130.887 579.833 131.013L579.833 131.013C579.813 131.119 579.793 131.225 579.78 131.337C579.773 131.386 579.766 131.434 579.759 131.483C579.744 131.58 579.729 131.677 579.72 131.774C579.714 131.817 579.709 131.86 579.704 131.903L579.704 131.903C579.699 131.946 579.694 131.989 579.687 132.032C579.628 132.588 579.581 133.171 579.561 133.773C579.561 133.866 579.555 133.965 579.548 134.058C579.548 134.137 579.547 134.217 579.545 134.298C579.543 134.381 579.542 134.464 579.542 134.548V134.972V135.369V135.501V135.501C579.542 135.574 579.542 135.647 579.548 135.726C579.548 136.011 579.561 136.296 579.575 136.58L579.575 136.58C579.575 136.667 579.58 136.748 579.587 136.834L579.588 136.852C579.601 137.189 579.621 137.52 579.647 137.858C576.946 137.779 574.437 137.501 572.253 137.024C567.976 136.097 565.394 134.488 565.182 132.608L565.189 132.615ZM569.015 120.374C566.162 121.36 563.315 122.896 561.051 124.902C560.018 125.816 559.085 126.868 558.37 128.053C558.332 128.115 558.284 128.19 558.23 128.274L558.23 128.274C557.862 128.847 557.209 129.862 557.694 130.324C557.787 130.41 557.906 130.284 557.827 130.192C557.569 129.869 558.262 128.839 558.575 128.374L558.575 128.374C558.615 128.314 558.649 128.264 558.674 128.226C559.025 127.696 559.416 127.186 559.833 126.709C560.647 125.783 561.574 124.962 562.574 124.233C564.064 123.153 565.685 122.357 567.316 121.556L567.316 121.556C567.923 121.258 568.531 120.959 569.134 120.645C569.28 120.566 569.181 120.321 569.022 120.374H569.015ZM612.417 133.882C612.576 133.738 612.735 133.594 612.895 133.449C613.028 133.336 613.266 133.489 613.154 133.648C610.605 137.222 605.58 139.679 601.277 140.049C601.164 140.063 601.144 139.884 601.25 139.857C603.468 139.354 605.593 138.712 607.599 137.606C609.427 136.593 610.897 135.26 612.417 133.882Z" fill="#0F2F7E"/>
<path d="M400.434 165.061H401.968V163.888C401.968 163.434 402.335 163.067 402.788 163.067C403.242 163.067 403.609 163.434 403.609 163.888V161.001C403.609 160.547 403.976 160.18 404.43 160.18C404.883 160.18 405.25 160.547 405.25 161.001V159.9C405.25 159.446 405.617 159.079 406.071 159.079C406.524 159.079 406.892 159.446 406.892 159.9V165.061H408.029C408.144 164.91 408.303 164.795 408.519 164.737C408.785 164.672 409.066 164.586 409.368 164.485C410.901 163.996 412.91 163.161 415.055 162.196C415.055 162.196 416.783 160.08 420.029 158.244C420.62 157.905 421.268 157.574 421.959 157.272C426.3 155.371 428.394 153.752 428.524 153.651C430.676 146.344 435.392 138.915 435.392 138.915C435.19 136.921 434.571 130.91 434.348 129.549C434.312 129.333 434.269 129.11 434.225 128.88C434.146 128.506 434.06 128.124 433.966 127.742C433.916 127.534 433.858 127.332 433.794 127.138C433.196 127.426 432.599 127.685 432.051 127.93C430.936 128.426 429.791 128.88 428.711 129.434C427.977 129.808 427.279 130.24 426.638 130.759C426.472 130.896 426.307 131.039 426.213 131.227C426.105 131.464 426.127 131.738 426.148 132.004C426.422 135.02 426.278 138.814 427.963 141.449C428.157 141.759 428.402 142.039 428.711 142.291L429.539 141.118C428.913 140.671 428.762 139.808 429.208 139.181C429.654 138.555 430.518 138.404 431.144 138.85L432.613 139.887C433.239 140.333 433.39 141.197 432.944 141.823C432.498 142.45 431.634 142.601 431.008 142.154L430.18 143.321C430.281 143.414 430.381 143.508 430.475 143.616C430.856 144.077 431.051 144.76 430.748 145.279C430.273 146.099 429.042 146.488 428.142 146.215L427.516 147.1C428.142 147.546 428.294 148.41 427.847 149.037C427.401 149.663 426.537 149.814 425.911 149.368L424.442 148.331C423.816 147.885 423.665 147.021 424.111 146.395C424.557 145.768 425.421 145.617 426.048 146.063L426.854 144.926C426.602 144.544 426.357 144.149 426.134 143.753C425.486 142.63 424.91 141.471 424.363 140.326C423.521 138.584 422.693 136.827 421.98 135.035C421.354 133.451 420.749 131.111 421.188 129.42C421.498 128.239 422.362 127.289 423.233 126.439C423.895 125.784 424.579 125.129 425.292 124.51C427.711 122.358 430.417 120.522 433.7 120.184C433.966 120.126 434.24 120.112 434.513 120.09C435.01 120.054 435.514 119.975 436.004 119.867C436.4 119.781 436.795 119.673 437.184 119.543C437.443 119.457 437.71 119.356 437.918 119.176C438.473 118.694 438.098 118.024 438.077 117.419C438.048 116.807 437.976 116.188 437.918 115.706C437.047 115.591 436.313 114.475 436.371 113.669C436.328 113.546 436.292 113.417 436.263 113.294C436.112 112.718 435.968 112.143 435.816 111.574C435.708 111.171 435.608 110.753 435.629 110.336C435.658 109.918 435.838 109.486 436.198 109.263C436.709 108.946 437.436 109.112 437.882 108.716C438.106 108.522 438.206 108.219 438.437 108.032C438.969 107.607 439.74 108.032 440.424 108.032C441.345 108.039 442.101 107.262 443.015 107.118C443.714 107.01 444.448 107.319 444.916 107.852C445.34 108.342 445.578 109.047 445.571 109.695C445.564 110.257 445.283 110.552 445.045 111.063C444.822 111.523 444.757 112.056 444.649 112.56C444.779 112.603 444.916 112.69 445.06 112.855C445.636 113.546 444.815 114.792 444.037 115.08C443.843 116.282 443.39 116.98 442.72 117.347L442.799 118.19C442.799 118.19 442.857 118.744 442.857 118.751L442.936 119.601H443.116C443.159 119.601 443.21 119.601 443.26 119.601C443.541 119.601 443.98 119.615 444.498 119.644C444.808 119.658 445.153 119.694 445.499 119.723C445.65 119.737 445.801 119.745 445.952 119.766C446.104 119.788 446.255 119.802 446.406 119.824C447.061 119.917 447.939 119.903 448.335 120.126C449.372 120.198 450.351 120.961 451.15 121.566C452.647 122.703 454.123 123.862 455.584 125.057C456.239 125.583 456.895 126.123 457.542 126.67C459.357 128.182 461.084 130.003 463.042 131.299C464.633 132.357 474.431 136.583 474.431 136.583C474.431 136.583 474.431 136.59 474.438 136.597C474.704 136.489 475.057 136.381 475.46 136.316L475.813 135.064C475.072 134.855 474.64 134.092 474.848 133.35C475.057 132.609 475.82 132.177 476.562 132.386L478.297 132.868C479.038 133.077 479.47 133.84 479.261 134.581C479.052 135.323 478.289 135.755 477.548 135.546L477.296 136.446C478.016 136.683 479.592 137.05 479.592 137.05L479.571 137.396C479.326 137.756 478.592 137.727 478.081 137.67C478.498 138.094 478.527 138.757 478.469 139.333C478.433 139.721 478.383 140.117 478.217 140.47C478.052 140.823 477.75 141.139 477.361 141.211C477.145 141.255 476.922 141.219 476.713 141.175C476.475 141.125 476.252 141.046 476.043 140.931L475.921 141.37C476.662 141.579 477.094 142.342 476.886 143.083C476.677 143.825 475.914 144.257 475.172 144.048L473.437 143.565C472.696 143.357 472.264 142.594 472.473 141.852C472.682 141.111 473.445 140.679 474.186 140.887L474.452 139.93C474.308 139.88 474.179 139.829 474.057 139.793C473.682 139.664 473.452 139.599 473.445 139.584C471.134 139.081 464.655 137.569 461.113 135.762C460.091 135.244 457.413 133.876 454.555 132.306C453.266 131.608 452.086 130.917 450.948 129.996C450.855 129.916 450.754 129.844 450.653 129.772C449.876 129.218 448.99 128.844 448.184 128.333C447.896 132.27 447.522 136.367 447.335 138.346C450.308 138.346 468.981 144.379 471.436 146.337C473.891 148.302 474.2 163.204 472.286 164.442C472.25 165.983 472.221 167.394 472.242 168.545C472.242 168.545 472.242 168.545 472.242 168.553C472.242 169.028 472.437 169.481 472.782 169.805C472.876 169.884 472.969 169.956 473.063 170.028C473.164 170.1 473.272 170.172 473.38 170.237C473.473 170.295 473.56 170.352 473.661 170.403C473.869 170.511 474.085 170.611 474.301 170.691C475.439 171.115 476.655 171.252 477.8 171.655C478.052 171.742 478.318 171.857 478.455 172.094C478.491 172.152 478.513 172.217 478.498 172.289C478.477 172.368 478.412 172.418 478.347 172.461C478.225 172.541 478.073 172.591 477.908 172.627C477.908 172.627 477.901 172.627 477.893 172.627C477.735 172.663 477.555 172.677 477.375 172.692C477.361 172.692 477.354 172.692 477.339 172.692C477.159 172.699 476.979 172.699 476.799 172.699C476.634 172.699 476.475 172.699 476.324 172.699C476.288 172.699 476.252 172.699 476.216 172.699C476.202 172.699 476.187 172.699 476.166 172.699C475.575 172.728 474.985 172.764 474.395 172.778C474.049 172.793 473.704 172.8 473.351 172.814C473.164 172.814 472.969 172.821 472.782 172.829C472.653 172.829 472.523 172.829 472.386 172.836C472.185 172.836 471.983 172.836 471.774 172.836C471.667 172.836 471.559 172.836 471.458 172.836C471.148 172.836 470.846 172.821 470.536 172.807C470.018 172.778 469.406 172.821 468.96 172.497C468.117 171.9 468.751 170.914 468.708 170.086C468.708 169.963 468.693 169.834 468.686 169.712C468.672 169.496 468.65 169.28 468.621 169.049C468.355 168.07 467.945 166.479 467.498 164.636C465.051 160.094 464.856 151.851 464.856 151.851C464.856 151.851 450.804 150.807 445.24 150.807C444.03 150.807 443.116 151.052 442.367 151.484C439.639 153.053 438.977 157.063 434.168 160.814C431.461 162.93 427.718 164.24 424.385 165.047H446.37V159.885C446.37 159.432 446.737 159.064 447.191 159.064C447.644 159.064 448.011 159.432 448.011 159.885V160.987C448.011 160.533 448.378 160.166 448.832 160.166C449.285 160.166 449.653 160.533 449.653 160.987V163.873C449.653 163.42 450.02 163.053 450.473 163.053C450.927 163.053 451.294 163.42 451.294 163.873V165.047H452.115C452.381 165.047 452.597 165.263 452.597 165.529C452.597 165.795 452.381 166.011 452.115 166.011H451.294V167.185C451.294 167.638 450.927 168.005 450.473 168.005C450.02 168.005 449.653 167.638 449.653 167.185V170.071C449.653 170.525 449.285 170.892 448.832 170.892C448.378 170.892 448.011 170.525 448.011 170.071V171.446C448.011 171.9 447.644 172.267 447.191 172.267C446.737 172.267 446.37 171.9 446.37 171.446V166.011H419.173C417.611 166.213 416.617 166.278 416.617 166.278C415.105 166.638 413.586 166.969 412.068 167.25C411.902 167.278 411.34 167.379 411.225 167.401C411.189 168.157 411.29 169.121 411.636 169.798C411.916 170.338 412.24 170.892 412.845 171.108C412.953 171.144 413.075 171.18 413.162 171.252C413.414 171.454 413.306 171.893 413.047 172.08C412.787 172.274 412.449 172.289 412.125 172.296C411.038 172.317 409.814 172.411 409.296 171.331C408.972 170.662 408.727 169.949 408.49 169.244C408.259 168.545 407.741 167.098 407.755 166.019H406.892V171.454C406.892 171.907 406.524 172.274 406.071 172.274C405.617 172.274 405.25 171.907 405.25 171.454V170.079C405.25 170.532 404.883 170.899 404.43 170.899C403.976 170.899 403.609 170.532 403.609 170.079V167.192C403.609 167.645 403.242 168.013 402.788 168.013C402.335 168.013 401.968 167.645 401.968 167.192V166.019H400.434C400.168 166.019 399.952 165.803 399.952 165.536C399.952 165.27 400.168 165.054 400.434 165.054V165.061Z" fill="#0F2F7E"/>
<path fill-rule="evenodd" clip-rule="evenodd" d="M528.815 118.079C528.815 118.079 528.809 118.072 528.799 118.059C528.892 118.262 528.957 118.463 528.996 118.66C529.139 118.998 529.296 119.312 529.463 119.606C529.547 119.755 529.632 119.898 529.72 120.036C531.442 122.734 533.87 123.446 533.96 123.472C533.962 123.472 533.965 123.473 533.965 123.473C537.565 124.727 540.361 129.89 542.307 137.505C542.965 140.106 543.76 142.141 544.532 144.119L544.541 144.141L544.541 144.142L544.542 144.144C544.634 144.381 544.727 144.617 544.818 144.853L546.451 148.791C548.539 153.353 547.19 159.071 546.162 159.585C545.922 159.705 545.502 159.811 544.993 159.903H548.713C549.317 159.903 549.806 160.392 549.806 160.996V168.826C550.01 168.785 550.219 168.762 550.43 168.758V168.755L550.537 168.757C550.567 168.758 550.596 168.758 550.625 168.76L551.327 168.777C551.783 168.774 552.249 168.859 552.701 169.045C554.465 169.77 555.329 171.736 554.632 173.433L554.63 173.432C554.109 174.701 552.863 175.462 551.531 175.465L550.506 175.45V175.442C550.174 175.426 549.838 175.363 549.509 175.248C549.309 175.459 549.027 175.591 548.713 175.591H546.261C546.16 175.6 546.059 175.604 545.958 175.604L545.108 175.591H525.052C524.448 175.591 523.959 175.101 523.959 174.499V160.996C523.959 160.392 524.45 159.903 525.052 159.903H535.524C532.291 159.498 529.443 158.643 527.332 158.009C525.068 157.328 523.651 156.903 523.516 157.56C522.726 161.404 519.729 166.439 517.903 169.508L517.902 169.509C517.599 170.017 517.329 170.471 517.106 170.857L517.128 170.833L517.138 170.82C517.138 170.82 517.321 170.972 517.458 171.253C517.568 171.475 517.648 171.781 517.585 172.157C517.496 172.688 517.78 173.673 518.006 174.34C518.144 174.744 518.26 175.03 518.26 175.03C518.26 175.03 518.326 175.364 517.134 175.513L517.133 175.514H515.746C515.529 175.48 515.338 175.433 515.148 175.385C514.932 175.331 514.716 175.278 514.463 175.244C513.74 175.149 513.408 175.445 513.341 175.514C513.333 175.522 513.329 175.528 513.329 175.528H507.44C507.292 175.317 507.435 174.827 507.574 174.465C507.668 174.22 507.873 174.034 508.125 173.961C508.225 173.932 508.34 173.904 508.468 173.872C509.14 173.707 510.161 173.456 511.108 172.598C511.742 172.025 514.17 170.491 514.17 170.491L514.178 170.489C514.514 168.045 515.134 163.773 515.875 159.763C514.002 162.686 511.258 165.279 508.988 167.423C507.476 168.853 506.174 170.083 505.482 171.078C505.529 171.122 505.663 171.257 505.768 171.474C505.871 171.685 505.947 171.974 505.888 172.331C505.804 172.834 506.074 173.768 506.288 174.401C506.418 174.784 506.527 175.055 506.527 175.055C506.527 175.055 506.589 175.371 505.459 175.513L505.461 175.514H504.146C503.94 175.482 503.759 175.437 503.579 175.392C503.374 175.341 503.17 175.29 502.929 175.258C502.243 175.168 501.927 175.449 501.865 175.514L501.853 175.527H496.27C496.129 175.327 496.265 174.861 496.397 174.519C496.486 174.286 496.679 174.111 496.919 174.041C497.014 174.014 497.123 173.987 497.244 173.957C497.881 173.801 498.849 173.563 499.747 172.75C500.348 172.207 502.651 170.752 502.651 170.752L502.663 170.749C502.679 170.749 502.715 170.756 502.79 170.796C503.316 169.856 505.147 165.945 511.117 149.705C511.398 148.941 512.829 148.364 514.759 147.922C514.213 145.53 514.172 138.338 514.303 136.354C514.452 134.069 519.144 130.863 523.181 128.515C524.657 127.656 526.046 126.912 527.092 126.37L527.516 125.663L527.537 125.66C527.419 125.461 527.309 125.27 527.207 125.088C527.156 124.998 527.106 124.91 527.059 124.824C526.593 123.982 526.298 123.359 526.151 123.031C525.76 123.288 525.49 123.43 525.49 123.43C524.186 124.018 520.884 119.278 520.58 118.144C520.514 117.901 520.462 117.642 520.451 117.371C518.606 117.606 518.553 115.021 518.585 114.52C518.585 114.52 520.94 113.349 523.396 112.212C528.55 109.824 528.874 117.188 528.815 118.08V118.079ZM527.786 145.068C527.621 145.593 527.335 146.08 526.951 146.488C527.233 146.47 527.501 146.453 527.756 146.437L527.748 146.435C528.752 146.355 529.519 146.312 530.098 146.292C529.251 145.866 528.461 145.442 527.786 145.068ZM518.603 147.263C519.265 147.176 519.935 147.097 520.6 147.027C520.241 146.627 519.97 146.143 519.823 145.594C519.443 144.175 519.994 142.717 521.11 141.832L521.108 141.829L521.898 141.256C522.291 140.951 522.751 140.718 523.264 140.581C523.757 140.448 524.253 140.417 524.728 140.474C524.923 139.803 525.33 139.198 525.893 138.751L525.892 138.749L525.941 138.713C525.99 138.676 526.039 138.64 526.089 138.606L526.618 138.223C526.834 138.056 527.072 137.912 527.33 137.796C527.042 137.064 526.746 136.287 526.439 135.46C525.594 135.616 524.695 135.702 523.824 135.786C521.83 135.978 519.984 136.155 519.265 137.117C518.285 138.432 517.156 144.142 516.718 146.524C517.082 146.461 517.415 146.458 517.65 146.458C518.015 146.458 518.44 146.834 518.603 147.263Z" fill="#0F2F7E"/>
<path d="M245.891 134.321H244.284V133.09C244.284 132.614 243.899 132.229 243.424 132.229C242.949 132.229 242.564 132.614 242.564 133.09V130.061C242.564 129.586 242.179 129.201 241.704 129.201C241.229 129.201 240.844 129.586 240.844 130.061V128.906C240.844 128.43 240.459 128.045 239.984 128.045C239.509 128.045 239.124 128.43 239.124 128.906V134.321H234.877C234.877 134.253 234.877 134.192 234.877 134.124C234.854 133.739 234.839 133.384 234.824 133.097C234.809 132.561 234.816 132.214 234.816 132.214C234.816 132.214 234.809 132.206 234.801 132.199C235.005 129.948 235.503 123.627 234.929 119.897C234.771 118.855 234.145 116.355 233.391 113.516C232.81 111.281 232.365 108.789 231.58 106.47C230.924 104.53 230.026 102.71 228.6 101.282C228.442 101.124 228.261 100.958 228.072 100.837C227.974 100.776 227.846 100.716 227.672 100.648C227.016 100.376 225.884 100.082 224.225 99.8174C223.644 99.7267 223.01 99.6663 222.354 99.6588C222.339 99.6588 222.316 99.6588 222.301 99.6588C222.279 99.6588 222.248 99.6588 222.218 99.6588C222.105 99.6512 221.984 99.6512 221.864 99.6588C221.864 99.6588 221.849 99.183 221.849 98.5185C221.849 98.1334 221.849 97.6954 221.871 97.2498C221.879 96.6079 221.924 95.9509 221.984 95.445C223.063 95.2638 223.9 93.6175 223.395 92.8246C223.576 92.598 223.689 92.3186 223.734 92.0468C223.817 91.5559 223.78 91.0424 223.999 90.5969C224.112 90.3703 224.285 90.1664 224.346 89.9172C224.406 89.668 224.323 89.3886 224.142 89.2074C224.014 89.0715 223.825 88.9808 223.765 88.7996C223.727 88.6939 223.75 88.5731 223.742 88.4673C223.719 88.1275 223.463 87.8406 223.161 87.682C222.859 87.5234 222.52 87.4705 222.18 87.4026C221.849 87.3346 221.502 87.2515 221.23 87.0476C221.102 86.9495 220.996 86.8286 220.86 86.7607C220.619 86.6323 220.325 86.655 220.053 86.7003C219.54 86.7909 219.042 86.9344 218.567 87.1458C218.386 87.2213 218.212 87.3119 218.016 87.3346C217.73 87.3724 217.428 87.2817 217.141 87.3346C216.704 87.4177 216.402 87.8179 216.191 88.2106C216.13 88.3239 216.07 88.4447 215.957 88.5202C215.836 88.6033 215.693 88.6108 215.557 88.6561C215.195 88.7694 214.946 89.1168 214.848 89.4792C214.742 89.8644 214.78 90.2495 214.825 90.6346C214.863 91.0198 214.855 91.3898 214.954 91.7674C215.006 91.9637 215.052 92.145 215.097 92.3111C214.886 92.3035 214.652 92.3866 214.418 92.6811C213.837 93.4212 214.742 94.7049 215.557 94.9843C215.798 96.2455 216.296 96.9553 217.005 97.3253L216.953 98.2089L216.862 99.689C216.862 99.689 216.794 99.689 216.674 99.689C216.628 99.689 216.575 99.689 216.523 99.6965C216.447 99.6965 216.364 99.7041 216.274 99.7116C215.572 99.7418 214.358 99.8325 213.234 100.029C212.698 100.119 212.011 100.15 211.521 100.286C211.046 100.331 210.08 100.98 209.816 101.358C208.421 103.284 207.613 105.043 207.063 106.742C206.323 109 206.052 111.167 205.441 113.516C204.686 116.355 204.06 118.862 203.902 119.897C203.329 123.627 203.819 129.956 204.03 132.199C204.03 132.199 204.023 132.206 204.015 132.214C204.015 132.214 204.023 132.561 204.007 133.097C204 133.429 203.962 133.777 203.924 134.124C203.924 134.192 203.917 134.26 203.909 134.328H197.761V128.914C197.761 128.438 197.376 128.053 196.901 128.053C196.426 128.053 196.041 128.438 196.041 128.914V130.069C196.041 129.593 195.657 129.208 195.181 129.208C194.706 129.208 194.321 129.593 194.321 130.069V133.097C194.321 132.621 193.937 132.236 193.461 132.236C192.986 132.236 192.601 132.621 192.601 133.097V134.328H191.741C191.462 134.328 191.236 134.555 191.236 134.834C191.236 135.113 191.462 135.34 191.741 135.34H192.601V136.571C192.601 137.047 192.986 137.432 193.461 137.432C193.937 137.432 194.321 137.047 194.321 136.571V139.599C194.321 140.075 194.706 140.46 195.181 140.46C195.657 140.46 196.041 140.075 196.041 139.599V141.041C196.041 141.517 196.426 141.902 196.901 141.902C197.376 141.902 197.761 141.517 197.761 141.041V135.34H203.917C204.09 136.473 205.426 136.435 206.369 136.299C206.693 136.254 207.07 136.125 207.176 135.816C207.236 135.65 207.244 135.491 207.259 135.34H209.341C209.084 138.179 208.903 141.389 208.881 144.991C208.873 145.852 207.749 150.156 207.304 156.658C207.266 157.194 207.236 157.745 207.206 158.319C207.153 159.407 207.123 160.547 207.123 161.733C207.123 163.643 207.191 165.675 207.364 167.812H207.372C207.116 168.053 206.934 168.363 206.844 168.71C206.701 169.292 206.384 170.311 205.81 171.15C205.622 171.421 205.516 171.716 205.494 171.995C205.396 173.007 206.286 173.966 207.96 173.944C210.058 173.913 211.476 174.178 211.604 172.441C211.604 172.403 211.612 172.365 211.612 172.328C211.634 171.044 211.408 169.722 211.25 169.028C211.204 168.846 211.136 168.673 211.046 168.514L211.121 168.529C211.121 168.529 211.898 165.697 212.751 161.77C212.985 160.668 213.226 159.467 213.467 158.229C213.535 157.844 213.611 157.459 213.679 157.066C214.327 153.464 214.855 149.56 214.923 146.229C214.923 146.229 216.387 141.117 217.73 135.34H221.222C222.558 141.117 224.029 146.229 224.029 146.229C224.089 149.575 224.625 153.494 225.281 157.104C225.364 157.542 225.439 157.98 225.522 158.402C225.809 159.898 226.103 161.325 226.397 162.601C227.174 166.09 227.838 168.522 227.838 168.522L227.929 168.507C227.823 168.695 227.74 168.899 227.695 169.111C227.544 169.79 227.325 170.976 227.356 172.161C227.356 172.214 227.356 172.267 227.356 172.32C227.393 174.185 228.857 173.906 231.007 173.936C232.893 173.966 233.783 172.75 233.398 171.61C233.345 171.452 233.262 171.293 233.157 171.142C232.606 170.342 232.289 169.375 232.138 168.786C232.04 168.416 231.852 168.076 231.588 167.812H231.595C231.731 166.12 231.806 164.497 231.829 162.949C231.852 161.242 231.829 159.633 231.746 158.131C231.723 157.564 231.686 157.013 231.648 156.484C231.195 150.073 230.094 145.852 230.079 144.991C230.049 141.396 229.875 138.179 229.611 135.34H231.497C231.49 135.393 231.482 135.446 231.482 135.506C231.482 135.982 231.814 136.14 232.221 136.224C232.508 136.276 232.802 136.337 233.089 136.382C233.549 136.45 234.047 136.488 234.454 136.261C234.515 136.224 234.582 136.186 234.62 136.125C234.658 136.072 234.681 136.005 234.696 135.944C234.756 135.74 234.794 135.544 234.824 135.348H239.124V141.049C239.124 141.525 239.509 141.91 239.984 141.91C240.459 141.91 240.844 141.525 240.844 141.049V139.607C240.844 140.082 241.229 140.467 241.704 140.467C242.179 140.467 242.564 140.082 242.564 139.607V136.578C242.564 137.054 242.949 137.439 243.424 137.439C243.899 137.439 244.284 137.054 244.284 136.578V135.348H245.891C246.17 135.348 246.396 135.121 246.396 134.842C246.396 134.562 246.17 134.336 245.891 134.336V134.321ZM208.141 134.321C208.232 134.29 208.33 134.268 208.436 134.253C208.519 133.837 208.3 133.414 208.013 133.105C207.727 132.795 207.364 132.561 207.063 132.266C207.017 132.221 206.972 132.176 206.927 132.131C207.048 130.937 207.893 122.027 208.33 120.395C208.473 119.859 210.457 115.321 211.868 112.217C211.868 112.209 211.891 112.172 211.913 112.111L212.034 120.509C211.581 121.913 210.299 126.338 209.507 133.58C209.484 133.815 209.454 134.064 209.431 134.305H208.134L208.141 134.321ZM217.963 134.321C218.122 133.618 218.273 132.916 218.424 132.214C218.846 130.228 219.216 128.257 219.48 126.474C219.834 128.883 220.393 131.632 220.989 134.29C220.989 134.305 220.989 134.313 220.996 134.328H217.963V134.321ZM229.438 133.528C229.377 132.976 229.317 132.455 229.249 131.934C229.249 131.896 229.241 131.859 229.234 131.828C229.174 131.345 229.113 130.877 229.045 130.424C229.045 130.394 229.038 130.371 229.03 130.341C228.962 129.873 228.894 129.427 228.827 128.997C228.827 128.989 228.827 128.982 228.827 128.974C228.54 127.169 228.231 125.621 227.944 124.36C227.929 124.284 227.914 124.216 227.891 124.141C227.838 123.892 227.778 123.65 227.725 123.431C227.68 123.235 227.635 123.054 227.589 122.872C227.567 122.782 227.544 122.691 227.521 122.608C227.476 122.427 227.431 122.261 227.386 122.102C227.371 122.034 227.348 121.966 227.333 121.898C227.288 121.74 227.25 121.604 227.212 121.468C227.197 121.415 227.182 121.354 227.167 121.302C227.129 121.173 227.091 121.052 227.061 120.947C227.046 120.901 227.039 120.864 227.024 120.818C226.993 120.72 226.963 120.63 226.941 120.546C226.926 120.509 226.918 120.478 226.903 120.441C226.895 120.411 226.88 120.365 226.873 120.335L226.556 111.349C227.348 113.085 228.555 115.751 229.075 116.944C229.83 118.681 230.433 120.108 230.509 120.395C230.946 122.027 231.799 130.945 231.912 132.131C231.867 132.176 231.821 132.221 231.776 132.266C231.474 132.561 231.112 132.795 230.826 133.105C230.539 133.414 230.328 133.837 230.403 134.253C230.403 134.26 230.494 134.29 230.614 134.321H229.521C229.49 134.056 229.468 133.784 229.438 133.528Z" fill="#0F2F7E"/>
<rect x="70.2749" y="46.6678" width="45.8463" height="129.114" stroke="#162B6E" stroke-width="2.78702"/>
<rect x="116.442" y="46.6678" width="45.8463" height="129.114" stroke="#162B6E" stroke-width="2.78702"/>
<rect x="162.61" y="46.6678" width="45.8463" height="129.114" stroke="#162B6E" stroke-width="2.78702"/>
<rect x="208.777" y="46.6678" width="45.8463" height="129.114" stroke="#162B6E" stroke-width="2.78702"/>
<rect x="254.945" y="46.6678" width="45.8463" height="129.114" stroke="#162B6E" stroke-width="2.78702"/>
<rect x="301.112" y="46.6678" width="45.8463" height="129.114" stroke="#162B6E" stroke-width="2.78702"/>
<rect x="347.28" y="46.6678" width="45.8463" height="129.114" stroke="#162B6E" stroke-width="2.78702"/>
<rect x="393.447" y="46.6678" width="45.8463" height="129.114" stroke="#162B6E" stroke-width="2.78702"/>
<rect x="439.615" y="46.6678" width="45.8463" height="129.114" stroke="#162B6E" stroke-width="2.78702"/>
<rect x="485.782" y="46.6678" width="45.8463" height="129.114" stroke="#162B6E" stroke-width="2.78702"/>
<rect x="531.95" y="46.6678" width="45.8463" height="129.114" stroke="#162B6E" stroke-width="2.78702"/>
<rect x="578.117" y="46.6678" width="45.8463" height="129.114" stroke="#162B6E" stroke-width="2.78702"/>
<rect x="624.285" y="46.6678" width="45.8463" height="129.114" stroke="#162B6E" stroke-width="2.78702"/>
<rect x="670.452" y="46.6678" width="45.8463" height="129.114" stroke="#162B6E" stroke-width="2.78702"/>
<rect x="716.62" y="46.6678" width="45.8463" height="129.114" stroke="#162B6E" stroke-width="2.78702"/>
<rect x="762.787" y="46.6678" width="45.8463" height="129.114" stroke="#162B6E" stroke-width="2.78702"/>
</g>
<g clip-path="url(#clip2_208_10734)">
<rect x="70.9106" y="221.815" width="737.723" height="127.825" fill="#113DA3"/>
<rect x="70.2749" y="221.747" width="45.8463" height="129.114" stroke="#162B6E" stroke-width="2.78702"/>
<rect x="116.442" y="221.747" width="45.8463" height="129.114" stroke="#162B6E" stroke-width="2.78702"/>
<rect x="162.61" y="221.747" width="45.8463" height="129.114" stroke="#162B6E" stroke-width="2.78702"/>
<rect x="208.777" y="221.747" width="45.8463" height="129.114" stroke="#162B6E" stroke-width="2.78702"/>
<rect x="254.945" y="221.747" width="45.8463" height="129.114" stroke="#162B6E" stroke-width="2.78702"/>
<rect x="301.112" y="221.747" width="45.8463" height="129.114" stroke="#162B6E" stroke-width="2.78702"/>
<rect x="347.28" y="221.747" width="45.8463" height="129.114" stroke="#162B6E" stroke-width="2.78702"/>
<rect x="393.447" y="221.747" width="45.8463" height="129.114" stroke="#162B6E" stroke-width="2.78702"/>
<rect x="439.615" y="221.747" width="45.8463" height="129.114" stroke="#162B6E" stroke-width="2.78702"/>
<rect x="485.782" y="221.747" width="45.8463" height="129.114" stroke="#162B6E" stroke-width="2.78702"/>
<rect x="531.95" y="221.747" width="45.8463" height="129.114" stroke="#162B6E" stroke-width="2.78702"/>
<rect x="578.117" y="221.747" width="45.8463" height="129.114" stroke="#162B6E" stroke-width="2.78702"/>
<rect x="624.285" y="221.747" width="45.8463" height="129.114" fill="#FFDC00" stroke="#162B6E" stroke-width="2.78702"/>
<rect x="670.452" y="221.747" width="45.8463" height="129.114" fill="#FFDC00" stroke="#162B6E" stroke-width="2.78702"/>
<rect x="716.62" y="221.747" width="45.8463" height="129.114" stroke="#162B6E" stroke-width="2.78702"/>
<rect x="762.787" y="221.747" width="45.8463" height="129.114" stroke="#162B6E" stroke-width="2.78702"/>
</g>
<rect x="0.14209" y="0.651123" width="873.73" height="15.7527" fill="#0C276A"/>
<path d="M197.785 162.719C197.646 162.447 197.345 161.631 197.624 160.138C197.653 159.962 197.697 159.778 197.741 159.579C197.969 158.675 198.285 155.006 192.093 154.947C185.908 155.013 186.216 158.675 186.444 159.579C186.503 159.815 186.547 160.035 186.584 160.248C186.826 161.675 186.532 162.454 186.4 162.719C186.385 162.748 186.371 162.778 186.356 162.8C185.827 163.763 185.533 164.837 185.533 165.984C185.533 169.609 188.471 172.55 192.093 172.55C195.714 172.55 198.652 169.609 198.652 165.984C198.652 164.837 198.358 163.763 197.844 162.829C197.815 162.771 197.8 162.748 197.785 162.719ZM193.371 160.138C192.298 159.807 191.674 159.8 190.242 160.271C189.529 160.506 189.125 160.403 188.897 160.248C188.765 160.16 188.692 160.05 188.655 159.969C188.618 159.881 188.589 159.778 188.574 159.66C188.537 159.432 188.523 159.16 188.545 158.837C188.67 156.587 192.1 156.822 192.1 156.822C192.1 156.822 195.53 156.587 195.655 158.837C195.677 159.219 195.655 159.535 195.596 159.785C195.589 159.815 195.582 159.851 195.574 159.881C195.494 160.035 195.383 160.153 195.258 160.226C194.84 160.484 194.193 160.388 193.378 160.138H193.371Z" fill="#0F2F7E"/>
</g>
<defs>
<clipPath id="clip0_208_10734">
<rect width="866" height="268" fill="white" transform="translate(0.14209 0.814697)"/>
</clipPath>
<clipPath id="clip1_208_10734">
<rect width="737.723" height="127.825" fill="white" transform="translate(70.9106 46.7356)"/>
</clipPath>
<clipPath id="clip2_208_10734">
<rect width="737.723" height="127.825" fill="white" transform="translate(70.9106 221.815)"/>
</clipPath>
</defs>
</svg>
