<svg width="27" height="27" viewBox="0 0 27 27" fill="none" xmlns="http://www.w3.org/2000/svg">
<circle cx="13.2979" cy="13.6088" r="13.1171" fill="#3770F6"/>
<path d="M18.2134 11.8858H17.3459V10.7427C17.3459 8.53669 15.5299 6.74197 13.2977 6.74197C11.0654 6.74197 9.24948 8.53669 9.24948 10.7427V11.8858H8.382C8.22217 11.8858 8.09283 12.0136 8.09283 12.1716V19.3158C8.09283 19.9463 8.61156 20.4589 9.24948 20.4589H17.3459C17.9838 20.4589 18.5025 19.9463 18.5025 19.3158V12.1716C18.5025 12.0136 18.3732 11.8858 18.2134 11.8858ZM14.1635 17.8554C14.1725 17.9361 14.1463 18.017 14.0915 18.0776C14.0367 18.1381 13.9582 18.1728 13.876 18.1728H12.7194C12.6372 18.1728 12.5587 18.1381 12.5039 18.0776C12.4491 18.017 12.4229 17.9361 12.4319 17.8554L12.6143 16.2343C12.3181 16.0214 12.1411 15.6846 12.1411 15.3151C12.1411 14.6846 12.6598 14.172 13.2977 14.172C13.9356 14.172 14.4543 14.6846 14.4543 15.3151C14.4543 15.6846 14.2773 16.0214 13.9811 16.2343L14.1635 17.8554ZM15.6109 11.8858H10.9844V10.7427C10.9844 9.48217 12.0222 8.45659 13.2977 8.45659C14.5732 8.45659 15.6109 9.48217 15.6109 10.7427V11.8858Z" fill="white"/>
</svg>
