<svg width="48" height="19" viewBox="0 0 48 19" fill="none" xmlns="http://www.w3.org/2000/svg">
<path d="M38.3176 3.56121L35.1263 18.8777C35.1823 18.8931 35.239 18.9054 35.2963 18.9145C35.7464 18.9145 36.1966 18.9139 36.6468 18.9133L36.6503 18.9133C37.553 18.9121 38.4556 18.911 39.3583 18.9145C39.507 18.9145 39.5601 18.8559 39.5866 18.7227C39.6482 18.4377 39.7142 18.1551 39.7803 17.8717C39.8168 17.7152 39.8534 17.5584 39.8893 17.401C40.3424 15.3829 40.7973 13.3667 41.254 11.3522C41.4499 10.4867 41.647 9.62187 41.8441 8.75723L41.8447 8.75457C42.2191 7.11261 42.5934 5.47068 42.9584 3.82715C43.0115 3.59266 43.1018 3.53403 43.3301 3.53403C44.0381 3.54114 44.746 3.53877 45.454 3.5364C45.808 3.53522 46.1621 3.53403 46.5161 3.53403C47.1479 3.53403 47.1586 3.53403 47.2966 2.91103C47.4161 2.36811 47.5252 1.82518 47.6343 1.28225C47.6997 0.956499 47.7652 0.630743 47.8329 0.304987C47.8701 0.129118 47.8223 0.0651662 47.6364 0.0704955C47.4096 0.0784836 47.1858 0.0774917 46.9604 0.0764932C46.8851 0.0761594 46.8096 0.0758248 46.7338 0.0758248C42.6097 0.0829306 38.4875 0.0864835 34.367 0.0864835C34.1546 0.0864835 34.0537 0.134448 34.0113 0.363609C33.9275 0.831267 33.8288 1.2968 33.7301 1.76289L33.7299 1.76401C33.6723 2.03584 33.6147 2.30787 33.5599 2.58062C33.5195 2.77678 33.4833 2.97295 33.4447 3.18274C33.4224 3.30337 33.3993 3.42899 33.3741 3.56121H38.3176Z" fill="white"/>
<path d="M10.6767 18.2847C10.6336 18.4816 10.5904 18.6791 10.5462 18.8777C10.586 18.897 10.6294 18.9079 10.6736 18.9096H14.7888C14.9322 18.9096 14.9853 18.851 15.0118 18.7125C15.1212 18.1549 15.2407 17.5973 15.3595 17.0424C15.3906 16.8972 15.4217 16.7522 15.4525 16.6074C15.5434 16.1853 15.6346 15.7639 15.7257 15.3428C16.0072 14.0412 16.2882 12.7425 16.557 11.4379C16.6101 11.1821 16.7004 11.1128 16.9499 11.1128C18.1574 11.1192 19.3668 11.1199 20.5769 11.1205C21.3836 11.1209 22.1909 11.1213 22.9979 11.1235C23.2103 11.1235 23.2899 11.0595 23.3271 10.8517C23.405 10.4253 23.4923 10.0037 23.5796 9.58212C23.6233 9.37133 23.6669 9.16049 23.7094 8.9491C23.7602 8.70379 23.8072 8.45656 23.8561 8.19947C23.8889 8.02658 23.9227 7.84898 23.959 7.66473H17.4915C17.4871 7.62582 17.4853 7.58665 17.4862 7.54749C17.5748 7.16887 17.6649 6.79076 17.7549 6.41284L17.7551 6.41191C17.9565 5.5667 18.1577 4.72235 18.3411 3.87557C18.4048 3.58246 18.527 3.52916 18.7978 3.52916C20.1328 3.53556 21.4697 3.5362 22.8074 3.53684C23.6989 3.53726 24.591 3.53769 25.4829 3.53982C25.6847 3.53982 25.759 3.47054 25.7962 3.27868C25.8741 2.85591 25.9614 2.43313 26.0487 2.01036C26.0924 1.79894 26.136 1.58753 26.1785 1.37611C26.2417 1.07076 26.302 0.762462 26.3637 0.446821C26.3849 0.33827 26.4063 0.22885 26.4281 0.118384C26.3984 0.115405 26.3716 0.112426 26.3469 0.10968C26.2833 0.102601 26.2336 0.0970664 26.1838 0.0970664C22.4315 0.102396 18.681 0.102396 14.9322 0.0970664C14.7623 0.0970664 14.6879 0.139701 14.6507 0.320899C14.4384 1.32814 14.2153 2.33006 13.9923 3.33198C13.7873 4.22876 13.5872 5.12808 13.387 6.02819L13.3867 6.02988C13.2967 6.43438 13.2067 6.83905 13.1162 7.24372C12.9702 7.89708 12.8259 8.55206 12.6814 9.20776C12.563 9.74471 12.4445 10.2823 12.325 10.8197C12.0684 11.9904 11.81 13.1646 11.5498 14.3424C11.433 14.8727 11.3148 15.4043 11.1967 15.9359C11.0785 16.4675 10.9604 16.9991 10.8436 17.5293C10.7869 17.7807 10.7319 18.0324 10.6767 18.2847Z" fill="white"/>
<path d="M7.29189 3.00691C7.26005 3.02541 7.2261 3.04178 7.19203 3.05821C7.11815 3.09385 7.04374 3.12974 6.98922 3.1881C6.44583 3.75595 5.90628 4.32572 5.3671 4.8951C5.01065 5.27153 4.65424 5.64791 4.29711 6.02331C3.97612 6.35913 3.65374 6.69215 3.32782 7.02882C3.01764 7.34923 2.70398 7.67324 2.38555 8.00583L0.155396 6.04996C0.359419 5.82991 0.556457 5.61511 0.750516 5.40357C0.894838 5.24624 1.03753 5.09069 1.1802 4.93613C2.60325 3.41194 4.02453 1.88952 5.44404 0.368882C5.51971 0.280311 5.61453 0.21026 5.72128 0.164079C5.82803 0.117898 5.94388 0.0968065 6.05999 0.102415C7.60102 0.110408 9.13906 0.10941 10.6786 0.108411C11.192 0.108078 11.7056 0.107744 12.2195 0.107744H12.5221C12.4828 0.28887 12.4455 0.464936 12.4089 0.637707C12.3615 0.861397 12.3152 1.07972 12.2673 1.29619C11.8637 3.10816 11.4566 4.92192 11.046 6.73745C10.9047 7.36554 10.7626 7.99287 10.6206 8.61972C10.3892 9.64152 10.158 10.6625 9.9309 11.6831C9.5539 13.3778 9.18752 15.0725 8.82113 16.7673C8.75566 17.0666 8.69463 17.3671 8.63346 17.6681C8.5607 18.0262 8.48773 18.3855 8.40696 18.7445C8.39103 18.8137 8.29015 18.915 8.22643 18.915C7.27065 18.9185 6.31487 18.9174 5.35909 18.9162L5.35543 18.9162C4.87876 18.9156 4.40209 18.915 3.92542 18.915C3.90309 18.9025 3.88179 18.8882 3.8617 18.8724C5.02456 13.6283 6.18743 8.37 7.3503 3.09751L7.29189 3.00691Z" fill="white"/>
<path d="M32.2808 1.66324C32.3976 1.15695 32.5144 0.645335 32.6312 0.123059C32.5936 0.109325 32.5543 0.100547 32.5144 0.0969452H28.2399C28.0806 0.0916158 28.0329 0.166227 28.001 0.310119C27.8331 1.10471 27.6607 1.89707 27.4882 2.69009C27.3934 3.12571 27.2986 3.56153 27.2045 3.99802C27.0319 4.80278 26.8594 5.60888 26.6868 6.41497C26.5142 7.221 26.3416 8.02704 26.1691 8.83174C25.8788 10.1676 25.5903 11.5017 25.3036 12.8341C25.0115 14.1824 24.7195 15.5361 24.4327 16.8844C24.3459 17.2848 24.261 17.6872 24.1756 18.0915C24.1201 18.3545 24.0644 18.6183 24.008 18.8829C24.0479 18.8948 24.0888 18.9038 24.1301 18.9095C24.7991 18.9122 25.4682 18.9122 26.1366 18.9122C26.8049 18.9122 27.4727 18.9122 28.139 18.9149C28.2877 18.9202 28.3196 18.8509 28.3514 18.7177L29.5302 13.585C29.9887 11.5883 30.4488 9.5933 30.9108 7.60013C31.3675 5.61939 31.8241 3.64042 32.2808 1.66324Z" fill="white"/>
</svg>
