<svg width="3900" height="643" viewBox="0 0 3900 643" fill="none" xmlns="http://www.w3.org/2000/svg">
<path d="M736.192 303.011C738.73 303.011 759.278 310.236 769.235 313.849V362.223H0.000119981L0 275.519H57.0978L86.4399 264.681H125.827C135.343 264.681 137.987 254.636 144.331 254.636C149.406 254.636 174.113 268.558 185.832 275.519H209.359C219.668 275.519 223.898 274.462 232.357 275.519C240.816 276.577 251.918 281.335 259.584 281.335C267.25 281.335 348.667 272.347 362.677 275.519C373.885 278.057 389.376 276.841 395.72 281.335C406.382 283.009 429.873 286.357 438.543 286.357C447.214 286.357 463.303 290.234 470.264 292.173L514.145 286.357H534.499C544.227 286.357 559.7 295.345 566.22 299.839H597.413L620.411 303.011H660.591L673.808 313.849L700.506 286.357H710.022C717.688 291.908 733.655 303.011 736.192 303.011Z" fill="#2F70DF"/>
<path d="M1602.99 338.479C1605.53 338.479 1626.08 342.933 1636.04 345.16V374.983H866.802V301.16H923.9L953.242 314.849H992.628C1002.14 314.849 1004.79 308.656 1011.13 308.656C1016.21 308.656 1040.91 317.239 1052.63 321.531H1076.16C1086.47 321.531 1090.7 320.879 1099.16 321.531C1107.62 322.182 1118.72 325.116 1126.39 325.116C1134.05 325.116 1215.47 312.893 1229.48 314.849C1240.69 316.413 1256.18 322.345 1262.52 325.116C1273.18 326.148 1296.67 328.212 1305.34 328.212C1314.02 328.212 1330.1 330.602 1337.07 331.797L1380.95 328.212H1401.3C1411.03 328.212 1426.5 333.753 1433.02 336.523H1464.21L1487.21 338.479H1527.39L1540.61 345.16L1567.31 328.212H1576.82C1584.49 331.634 1600.46 338.479 1602.99 338.479Z" fill="#2F70DF"/>
<path d="M3097.01 360.817C3099.54 360.817 3120.09 365.271 3130.05 367.498V397.321H2360.81V323.498H2417.91L2447.25 337.187H2486.64C2496.16 337.187 2498.8 330.994 2505.14 330.994C2510.22 330.994 2534.93 339.577 2546.65 343.868H2570.17C2580.48 343.868 2584.71 343.217 2593.17 343.868C2601.63 344.52 2612.73 347.454 2620.4 347.454C2628.06 347.454 2709.48 335.231 2723.49 337.187C2734.7 338.751 2750.19 344.683 2756.53 347.454C2767.2 348.486 2790.69 350.55 2799.36 350.55C2808.03 350.55 2824.12 352.94 2831.08 354.135L2874.96 350.55H2895.31C2905.04 350.55 2920.51 356.091 2927.03 358.861H2958.23L2981.22 360.817H3021.4L3034.62 367.498L3061.32 350.55H3070.84C3078.5 353.972 3094.47 360.817 3097.01 360.817Z" fill="#2F70DF"/>
<path d="M1599.24 335.244C1596.7 335.244 1576.15 341.72 1566.2 344.958V388.313L2464 424.235L2460.91 335.244L2275.24 298.552L2245.9 273.521C2235.94 273.521 2227.65 268.309 2220.03 268.309C2210.52 268.309 2207.87 259.306 2201.53 259.306C2196.46 259.306 2182.9 231.756 2171.18 237.995C2166.78 237.995 2125.06 223.069 2116.81 223.069C2106.51 223.069 2085.71 231.835 2077.25 232.782C2068.79 233.73 2057.69 237.995 2050.02 237.995C2042.36 237.995 1960.94 220.226 1946.93 223.069C1935.72 225.343 1920.23 233.967 1913.89 237.995C1903.22 239.495 1885.38 268.309 1876.71 268.309C1868.04 268.309 1851.95 271.784 1844.99 273.521L1821.29 320.318H1800.93C1791.21 320.318 1775.73 328.373 1769.21 332.401H1738.02L1715.02 335.244H1674.84L1661.63 344.958L1634.93 320.318H1625.41C1617.74 325.294 1601.78 335.244 1599.24 335.244Z" fill="#2F70DF"/>
<path d="M3559.12 406.064C3563.69 406.064 3600.74 408.14 3618.69 409.178V423.077H2231.79V389.185L2334.73 388.672L2387.63 395.052H2458.65C2475.81 395.052 2480.57 392.166 2492.01 392.166C2501.16 392.166 2545.71 396.166 2566.84 398.166H2609.25C2627.84 398.166 2635.47 397.862 2650.72 398.166C2665.97 398.469 2685.99 399.836 2699.81 399.836C2713.63 399.836 2860.42 394.14 2885.68 395.052C2905.89 395.781 2933.82 398.545 2945.26 399.836C2964.48 400.317 3006.83 401.279 3022.47 401.279C3038.1 401.279 3067.11 402.393 3079.66 402.95L3158.77 401.279H3195.47C3213.01 401.279 3240.91 403.862 3252.66 405.153H3308.9L3350.37 406.064H3422.81L3446.64 409.178L3494.78 401.279H3511.93C3525.76 402.874 3554.54 406.064 3559.12 406.064Z" fill="#2F70DF"/>
<path d="M0 343.637L3843.64 379.003V642.253H0V343.637Z" fill="#2F70DF"/>
<path fill-rule="evenodd" clip-rule="evenodd" d="M92.9952 0H94.1979L95.55 63.1447H97.2055V65.5502H95.6016L96.1038 89.0037H100.212V99.8285H96.3356L96.4386 104.639H100.212V105.842H96.4643L96.6833 116.066H100.212V117.268H96.709L97.1855 139.52H103.82L101.415 150.344H97.4173L97.5589 156.96H100.212V158.162H97.5847L98.0998 182.217H100.212V183.42H98.1255L99.4133 243.557H101.415V246.564H99.4777L100.212 280.843H86.9814L87.7154 246.564H85.7788V243.557H87.7798L89.0675 183.42H86.9814V182.217H89.0933L89.6084 158.162H86.9814V156.96H89.6341L89.7758 150.344H85.779L83.3735 139.52H90.0076L90.4841 117.268H86.9814V116.066H90.5098L90.7287 105.842H86.9814V104.639H90.7545L90.8575 99.8285H86.9814V89.0037H91.0893L91.5915 65.5502H89.989V63.1447H91.643L92.9952 0Z" fill="#2F70DF"/>
<path d="M1937.73 213.292L1916.81 218.481C1905.81 231.167 1883.07 257.701 1880.17 262.356C1876.56 268.174 1849.19 274.465 1837.87 278.868C1828.81 282.391 1767.84 344.601 1738.49 375.267H1799.97C1814.23 351.049 1844.04 300.978 1849.19 294.436C1855.64 286.259 1869.17 283.428 1880.17 280.912C1888.98 278.899 1914.25 242.122 1925.78 223.985H1933.96L1937.73 213.292Z" fill="#2F70DF"/>
<path d="M1945.28 192.653L1922.19 198.377C1910.03 212.369 1884.92 241.636 1881.72 246.77C1877.73 253.188 1847.51 260.126 1835.01 264.982C1825.01 268.868 1757.67 337.485 1725.25 371.309H1793.16C1808.9 344.597 1841.82 289.37 1847.51 282.154C1854.63 273.135 1869.57 270.012 1881.72 267.237C1891.45 265.017 1919.35 224.452 1932.08 204.448H1941.12L1945.28 192.653Z" fill="#2F70DF"/>
<path fill-rule="evenodd" clip-rule="evenodd" d="M1514.39 100.082H1488.3L1459.38 116.112V168.917L1439.58 178.347V362.223H1522.87V164.517H1514.39V161.688H1516.9V157.979H1514.39V156.124H1516.9V152.415H1514.39V150.561H1516.9V146.852H1514.39V144.997H1516.9V141.288H1514.39V139.434H1516.9V135.725H1514.39V133.871H1516.9V130.162H1514.39V128.307H1516.9V124.598H1514.39V100.082ZM1484.51 362.222V240.096H1488.25V362.222H1484.51Z" fill="#2F70DF"/>
<path d="M655.226 272.458L649.587 278.1V364.63H930.476V274.221L920.256 269.284V220.618L916.026 218.855L914.617 212.507L908.978 208.981L895.938 185.706L881.84 208.981H872.325V217.444L865.981 212.507L819.812 213.918L815.583 218.855V256.589H808.182L806.772 268.226L790.208 269.284V238.603L787.741 235.782L787.036 225.555L785.274 222.029L778.93 226.966L773.291 220.618H752.145V211.097L749.678 208.981V205.454L747.211 204.396V199.812H745.801V196.991L743.334 195.58V192.054L736.991 187.117L723.246 160.315L705.272 187.117H693.641V200.517H684.126L678.487 206.16V278.1H660.865L655.226 272.458Z" fill="#2F70DF"/>
<path d="M591.551 354.619L585.912 360.262L585.912 432.218H866.801L866.801 356.383L856.58 351.445V302.78L852.351 301.016L850.942 294.669L845.303 291.142L832.263 267.867L818.165 291.142H808.65V299.606L802.306 294.669L756.137 296.079L751.908 301.016V338.75H744.507L743.097 350.387L726.533 351.445V320.765L724.066 317.944L723.361 307.717L721.599 304.19L715.255 309.127L709.616 302.78H688.47V293.258L686.003 291.142V287.616L683.536 286.558V281.973H682.126V279.152L679.659 277.742V274.215L673.315 269.278L659.571 242.477L641.597 269.278H629.966V282.679H620.451L614.812 288.321V360.262H597.19L591.551 354.619Z" fill="#2F70DF"/>
<path d="M1911.05 291.463H1914.78L1908.72 283.812L1914.44 277.659H1910.89L1904.78 284.108V277.659H1901.6V291.463H1904.78V287.973L1906.63 286.04L1911.05 291.463Z" fill="#2F70DF"/>
<path d="M1916.2 291.463H1919.4V277.659H1916.2V291.463Z" fill="#2F70DF"/>
<path d="M1932.18 277.659V286.04L1925.31 277.659H1922.67V291.463H1925.83V283.082L1932.71 291.463H1935.33V277.659H1932.18Z" fill="#2F70DF"/>
<path d="M1964.75 277.659H1958.77V291.463H1961.97V287.657H1964.75C1968.43 287.657 1970.74 285.744 1970.74 282.668C1970.74 279.572 1968.43 277.659 1964.75 277.659ZM1964.57 285.054H1961.97V280.262H1964.57C1966.52 280.262 1967.51 281.15 1967.51 282.668C1967.51 284.167 1966.52 285.054 1964.57 285.054Z" fill="#2F70DF"/>
<path d="M1982.64 291.463H1985.99L1979.82 277.659H1976.67L1970.51 291.463H1973.79L1975.01 288.505H1981.42L1982.64 291.463ZM1976.04 286.079L1978.22 280.795L1980.41 286.079H1976.04Z" fill="#2F70DF"/>
<path d="M1999.65 291.463L1996.56 287.026C1998.35 286.257 1999.4 284.739 1999.4 282.668C1999.4 279.572 1997.09 277.659 1993.4 277.659H1987.43V291.463H1990.62V287.618H1993.4H1993.56L1996.22 291.463H1999.65ZM1996.16 282.668C1996.16 284.167 1995.18 285.074 1993.22 285.074H1990.62V280.262H1993.22C1995.18 280.262 1996.16 281.15 1996.16 282.668Z" fill="#2F70DF"/>
<path d="M2011.37 291.463H2015.1L2009.05 283.812L2014.76 277.659H2011.21L2005.1 284.108V277.659H2001.93V291.463H2005.1V287.973L2006.96 286.04L2011.37 291.463Z" fill="#2F70DF"/>
<path d="M1952.83 281.981C1952.83 286.102 1949.62 289.119 1945.28 289.119V286.398C1947.75 286.398 1949.6 284.603 1949.6 281.981C1949.6 279.358 1947.75 277.563 1945.28 277.563C1945.28 277.563 1945.28 277.563 1945.28 277.563L1945.28 274.842C1945.28 274.842 1945.28 274.842 1945.28 274.842C1949.62 274.842 1952.83 277.859 1952.83 281.981Z" fill="#2F70DF"/>
<path d="M1937.73 287.141C1937.73 291.262 1940.94 294.279 1945.28 294.279V291.558C1942.82 291.558 1940.96 289.764 1940.96 287.141C1940.96 284.518 1942.82 282.724 1945.28 282.724C1945.28 282.724 1945.28 282.724 1945.28 282.724L1945.28 280.002C1945.28 280.002 1945.28 280.002 1945.28 280.002C1940.94 280.002 1937.73 283.02 1937.73 287.141Z" fill="#2F70DF"/>
<rect x="1851.19" y="126.17" width="66.9129" height="33.7258" fill="#2F70DF"/>
<rect x="1851.19" y="135.316" width="1.69661" height="149.244" fill="#2F70DF"/>
<path fill-rule="evenodd" clip-rule="evenodd" d="M3359.23 234.809H3358.14C3358.14 234.226 3357.66 233.753 3357.08 233.753C3356.49 233.753 3356.01 234.226 3356.01 234.809H3354.93C3352.68 234.809 3350.84 236.63 3350.84 238.87H3351.29V242.293H3350.84L3351.39 245.658C3346.97 246.053 3342.69 246.904 3338.58 248.162L3338.59 248.078H3338.15V244.662H3338.59C3338.59 242.422 3336.76 240.601 3334.51 240.601H3333.42C3333.42 240.018 3332.94 239.545 3332.35 239.545C3332.11 239.545 3331.89 239.624 3331.72 239.757C3331.58 239.855 3331.48 239.983 3331.4 240.131C3331.33 240.273 3331.29 240.432 3331.29 240.601H3330.21C3327.95 240.601 3326.12 242.422 3326.12 244.662H3326.56V248.078H3326.12L3326.95 253.061C3323.61 254.884 3320.45 257.002 3317.51 259.379V258.948H3317.96C3317.96 256.709 3316.12 254.887 3313.87 254.887H3312.79C3312.79 254.303 3312.31 253.832 3311.72 253.832C3311.14 253.832 3310.66 254.303 3310.66 254.887H3309.57C3307.32 254.887 3305.48 256.709 3305.48 258.948H3305.93V262.364H3305.48L3306.43 268.08C3306.54 268.731 3306.98 269.253 3307.57 269.491C3306.2 271.23 3304.93 273.041 3303.76 274.921C3303.56 274.798 3303.34 274.693 3303.12 274.606C3303 274.562 3302.89 274.523 3302.76 274.488C3302.68 274.465 3302.6 274.445 3302.51 274.426C3302.38 274.398 3302.24 274.376 3302.11 274.36C3302.06 274.354 3302.01 274.35 3301.96 274.346C3301.9 274.342 3301.84 274.339 3301.78 274.337L3301.65 274.335H3300.57C3300.57 273.751 3300.09 273.28 3299.5 273.28C3298.92 273.28 3298.44 273.751 3298.44 274.335H3297.35C3295.1 274.335 3293.26 276.157 3293.26 278.397H3293.71V281.82H3293.26L3294.21 287.536C3294.36 288.432 3295.14 289.085 3296.05 289.085H3297.24C3296.19 292.394 3295.42 295.821 3294.95 299.342C3294.84 299.507 3294.78 299.705 3294.78 299.917H3293.68C3291.43 299.917 3289.6 301.739 3289.6 303.978H3290.05V307.402H3289.6L3290.55 313.117C3290.7 314.014 3291.48 314.666 3292.39 314.666H3294.77C3294.84 315.283 3294.92 315.897 3295.01 316.508C3295.11 317.237 3295.23 317.962 3295.36 318.682C3295.58 319.943 3295.84 321.19 3296.14 322.422C3294.48 322.935 3293.26 324.481 3293.26 326.303H3293.71V329.719H3293.26L3294.21 335.435C3294.3 335.938 3294.58 336.363 3294.97 336.641C3295.28 336.858 3295.65 336.984 3296.05 336.984H3301.72C3303.42 340.152 3305.39 343.158 3307.59 345.971C3306.34 346.665 3305.48 347.998 3305.48 349.524H3305.93V352.94H3305.48L3306.43 358.656C3306.5 359.053 3306.69 359.402 3306.96 359.667C3307.17 359.87 3307.42 360.024 3307.7 360.114C3307.76 360.136 3307.83 360.154 3307.9 360.168C3308.02 360.192 3308.15 360.205 3308.27 360.205H3315.17C3316.09 360.205 3316.86 359.552 3317.01 358.656L3317.45 355.996C3320.22 358.245 3323.19 360.263 3326.33 362.022C3326.19 362.422 3326.12 362.851 3326.12 363.295H3326.56V366.718H3326.12L3327.07 372.434C3327.22 373.33 3328 373.983 3328.91 373.983H3335.81C3336.72 373.983 3337.5 373.33 3337.65 372.434L3338.51 367.241L3338.99 367.388L3339.5 367.537C3339.83 367.633 3340.16 367.726 3340.5 367.817L3331.38 407.065C3331.22 407.778 3331.39 408.514 3331.84 409.083C3332.13 409.443 3332.52 409.709 3332.95 409.854C3333.05 409.887 3333.15 409.914 3333.25 409.934C3333.4 409.964 3333.56 409.979 3333.71 409.979H3380.44C3381.17 409.979 3381.86 409.652 3382.31 409.083C3382.48 408.875 3382.61 408.644 3382.69 408.4C3382.75 408.237 3382.79 408.068 3382.81 407.896C3382.84 407.621 3382.83 407.34 3382.77 407.065L3373.66 367.817L3374.22 367.662L3375.01 372.434C3375.16 373.33 3375.94 373.983 3376.85 373.983H3383.75C3384.66 373.983 3385.44 373.33 3385.59 372.434L3386.53 366.718H3386.08V363.295H3386.53C3386.53 363.201 3386.52 363.109 3386.52 363.018C3386.51 362.928 3386.5 362.838 3386.49 362.749C3389.75 361.025 3392.83 359.025 3395.72 356.779L3396.03 358.656C3396.18 359.552 3396.96 360.205 3397.87 360.205H3404.77C3405.68 360.205 3406.46 359.552 3406.61 358.656L3407.55 352.94H3407.11V349.524H3407.55C3407.55 348.31 3407.01 347.219 3406.16 346.473C3408.53 343.517 3410.63 340.342 3412.43 336.984H3418.1C3419.02 336.984 3419.8 336.331 3419.94 335.435L3420.89 329.719H3420.44V326.303H3420.89C3420.89 324.481 3419.67 322.935 3418.01 322.422C3418.62 319.894 3419.08 317.304 3419.38 314.666H3421.76C3422.68 314.666 3423.45 314.014 3423.6 313.117L3424.55 307.402H3424.1V303.978H3424.55C3424.55 301.739 3422.71 299.917 3420.46 299.917H3419.38C3419.38 299.703 3419.31 299.505 3419.2 299.34C3418.73 295.82 3417.96 292.393 3416.92 289.085H3418.1C3419.02 289.085 3419.8 288.432 3419.94 287.536L3420.89 281.82H3420.44V278.397H3420.89C3420.89 276.157 3419.06 274.335 3416.8 274.335H3415.71C3415.71 273.751 3415.24 273.28 3414.65 273.28C3414.06 273.28 3413.59 273.751 3413.59 274.335H3412.5C3411.73 274.335 3411.01 274.549 3410.39 274.921C3409.1 272.858 3407.7 270.876 3406.18 268.983C3406.23 268.929 3406.28 268.872 3406.32 268.812C3406.34 268.775 3406.36 268.737 3406.39 268.698C3406.41 268.656 3406.43 268.613 3406.45 268.569C3406.53 268.417 3406.58 268.253 3406.61 268.08L3407.55 262.364H3407.11V258.948H3407.55C3407.55 256.709 3405.72 254.887 3403.47 254.887H3402.37C3402.37 254.304 3401.9 253.832 3401.31 253.832C3400.73 253.832 3400.25 254.304 3400.25 254.887H3399.17C3397.17 254.887 3395.5 256.321 3395.15 258.209C3392.23 255.991 3389.12 254.022 3385.83 252.332L3386.53 248.078H3386.08V244.662H3386.53C3386.53 242.422 3384.7 240.601 3382.45 240.601H3381.36C3381.36 240.151 3381.08 239.768 3380.68 239.616C3380.56 239.57 3380.43 239.545 3380.29 239.545C3379.71 239.545 3379.23 240.016 3379.23 240.601H3378.15C3375.89 240.601 3374.06 242.422 3374.06 244.662H3374.51V247.846C3370.72 246.76 3366.79 246.018 3362.75 245.658L3363.31 242.293H3362.86V238.87H3363.32C3363.32 236.63 3361.48 234.809 3359.23 234.809ZM3362 242.293V238.87H3357.5V242.286H3359.65V242.293H3362ZM3356.65 238.87V242.286H3354.5V242.293H3352.14V238.87H3356.65ZM3357.83 249.558H3360.52C3360.7 249.558 3360.87 249.534 3361.03 249.488C3361.23 249.431 3361.42 249.343 3361.59 249.229C3361.8 249.08 3361.99 248.886 3362.12 248.659C3366.41 249.016 3370.57 249.825 3374.55 251.036L3375.01 253.794C3375.16 254.69 3375.94 255.343 3376.85 255.343H3378.09L3377.38 257.054C3371.32 254.652 3364.72 253.295 3357.83 253.203V249.558ZM3352.03 248.659C3352.36 249.204 3352.95 249.558 3353.62 249.558H3356.33V253.203C3349.43 253.295 3342.83 254.653 3336.77 257.055L3336.05 255.327C3336.86 255.223 3337.51 254.609 3337.65 253.794L3338.02 251.541C3342.48 250.048 3347.17 249.064 3352.03 248.659ZM3336.89 366.718C3336.35 366.539 3335.83 366.352 3335.3 366.158C3334.45 365.846 3333.61 365.516 3332.78 365.168V366.718H3336.89ZM3331.93 366.718V364.803L3331.58 364.65C3331.26 364.509 3330.94 364.364 3330.62 364.218C3329.98 363.92 3329.35 363.613 3328.72 363.295H3327.42V366.718H3331.93ZM3336.34 363.295C3336.66 363.412 3336.98 363.526 3337.29 363.637V363.295H3336.34ZM3338.15 363.295V363.928C3338.39 364.008 3338.63 364.085 3338.86 364.161L3339.3 364.3C3339.93 364.493 3340.55 364.676 3341.19 364.848L3342.26 360.217C3340.39 359.696 3338.56 359.079 3336.77 358.371L3336.25 359.621C3337.63 360.272 3338.59 361.674 3338.59 363.295H3338.15ZM3334.79 359.243L3335.39 357.801C3329.19 355.148 3323.59 351.394 3318.83 346.786L3317.64 347.962C3317.84 348.443 3317.96 348.971 3317.96 349.524H3317.51V352.055C3320.82 354.974 3324.46 357.532 3328.37 359.668C3328.92 359.389 3329.55 359.233 3330.21 359.233H3331.29C3331.29 358.894 3331.45 358.594 3331.7 358.401C3331.74 358.373 3331.77 358.347 3331.81 358.323C3331.86 358.294 3331.92 358.269 3331.97 358.248L3332.01 358.235L3332.05 358.22C3332.08 358.212 3332.11 358.205 3332.14 358.2L3332.19 358.19C3332.21 358.186 3332.24 358.184 3332.26 358.183C3332.29 358.18 3332.32 358.178 3332.35 358.178C3332.94 358.178 3333.42 358.649 3333.42 359.233H3334.51L3334.64 359.235L3334.72 359.239L3334.79 359.243ZM3337.29 248.078V244.662H3332.78V248.078H3337.29ZM3331.93 244.662V248.078H3327.42V244.662H3331.93ZM3329.14 255.343H3334.44L3335.39 257.625C3329.19 260.278 3323.59 264.032 3318.83 268.64L3317.19 267.011L3317.84 263.088C3321.28 260.097 3325.07 257.492 3329.14 255.343ZM3385.23 366.718V363.398C3383.76 364.134 3382.26 364.814 3380.72 365.435V366.718H3385.23ZM3379.87 366.718V365.774L3379.21 366.026L3378.67 366.226C3378.41 366.32 3378.15 366.412 3377.89 366.503C3377.68 366.576 3377.47 366.648 3377.27 366.718H3379.87ZM3384.97 360.106C3388.6 358.193 3392.01 355.918 3395.14 353.329L3395.08 352.94H3395.52V349.524H3395.08C3395.08 348.681 3395.34 347.898 3395.78 347.248L3395.32 346.789C3390.56 351.397 3384.95 355.151 3378.76 357.804L3379.26 359.004C3379.36 358.531 3379.79 358.178 3380.29 358.178C3380.49 358.178 3380.68 358.231 3380.84 358.325C3380.9 358.364 3380.97 358.411 3381.02 358.463C3381.23 358.656 3381.36 358.929 3381.36 359.233H3382.44C3383.39 359.233 3384.27 359.56 3384.97 360.106ZM3377.74 359.252L3377.38 358.373C3375.59 359.079 3373.76 359.696 3371.89 360.216L3372.97 364.848C3373.23 364.776 3373.5 364.702 3373.76 364.625C3374.01 364.553 3374.26 364.48 3374.51 364.404V363.295H3374.05C3374.05 361.189 3375.68 359.452 3377.74 359.252ZM3375.36 363.295V364.138C3376.13 363.892 3376.9 363.63 3377.65 363.353L3377.81 363.295H3375.36ZM3385.23 248.078V244.662H3380.72V248.078H3385.23ZM3379.87 244.662V248.078H3375.36V244.662H3379.87ZM3378.76 257.623L3379.71 255.343H3383.75C3384.06 255.343 3384.35 255.267 3384.61 255.133C3388.5 257.149 3392.14 259.579 3395.47 262.364H3395.08L3396.01 267.956L3395.32 268.638C3390.56 264.03 3384.95 260.275 3378.76 257.623ZM3297.86 314.666C3298.12 316.917 3298.51 319.13 3299.02 321.297C3299.17 321.226 3299.33 321.187 3299.5 321.187C3300.08 321.187 3300.56 321.66 3300.56 322.242H3301.65C3301.89 322.242 3302.12 322.262 3302.34 322.301C3302.5 322.327 3302.65 322.362 3302.8 322.405C3302.9 322.435 3303 322.469 3303.1 322.507C3303.26 322.565 3303.41 322.633 3303.55 322.709C3303.92 322.901 3304.25 323.147 3304.54 323.437C3303.11 318.684 3302.3 313.659 3302.23 308.457H3301.9L3301.13 313.117C3300.99 314.014 3300.21 314.666 3299.29 314.666H3297.86ZM3294.39 307.402L3294.39 306.937C3294.4 306.608 3294.4 306.28 3294.41 305.953C3294.43 305.292 3294.46 304.634 3294.5 303.978H3290.9V307.402H3294.39ZM3297.57 303.978C3297.5 304.968 3297.47 305.966 3297.45 306.969H3300.77V303.978H3297.57ZM3301.63 303.978V306.969H3302.23C3302.32 300.111 3303.69 293.559 3306.11 287.537L3304.87 287.03L3304.79 287.536C3304.64 288.432 3303.87 289.085 3302.95 289.085H3300.45C3299.3 292.564 3298.45 296.186 3297.96 299.917H3297.98C3300.24 299.917 3302.07 301.739 3302.07 303.978H3301.63ZM3416.3 314.666C3416.03 316.918 3415.64 319.132 3415.13 321.3C3415.08 321.274 3415.02 321.252 3414.97 321.235C3414.87 321.204 3414.76 321.187 3414.65 321.187C3414.4 321.187 3414.17 321.272 3413.99 321.414C3413.9 321.486 3413.82 321.573 3413.75 321.671C3413.65 321.836 3413.59 322.032 3413.59 322.242H3412.5C3412.4 322.242 3412.3 322.246 3412.2 322.253C3412.06 322.264 3411.93 322.28 3411.8 322.303C3411.52 322.351 3411.25 322.428 3410.99 322.529C3410.47 322.736 3410 323.047 3409.61 323.437C3411.05 318.684 3411.85 313.658 3411.92 308.457H3412.25L3413.02 313.117C3413.17 314.014 3413.95 314.666 3414.86 314.666H3416.3ZM3419.76 307.402C3419.76 306.833 3419.75 306.266 3419.73 305.7C3419.71 305.124 3419.69 304.55 3419.66 303.978H3423.25V307.402H3419.76ZM3413.7 289.085C3414.86 292.564 3415.7 296.186 3416.19 299.917H3416.16C3413.91 299.917 3412.07 301.739 3412.07 303.978H3412.52V306.969H3411.92C3411.83 300.11 3410.46 293.558 3408.05 287.535L3409.28 287.027L3409.36 287.536C3409.52 288.432 3410.29 289.085 3411.2 289.085H3413.7ZM3416.59 303.978H3413.38V306.969H3416.7C3416.69 306.633 3416.69 306.298 3416.68 305.964C3416.66 305.299 3416.63 304.637 3416.59 303.978ZM3297.97 328.517C3297.71 327.786 3297.46 327.047 3297.23 326.303H3294.56V329.719H3298.41C3298.26 329.32 3298.11 328.92 3297.97 328.517ZM3304.79 335.435C3304.76 335.613 3304.71 335.782 3304.63 335.937C3306.39 339.161 3308.44 342.205 3310.75 345.033C3310.92 344.664 3311.29 344.408 3311.72 344.408C3312.31 344.408 3312.79 344.879 3312.79 345.463H3313.87C3315.02 345.463 3316.05 345.935 3316.8 346.692L3317.76 345.731C3313.13 340.996 3309.35 335.426 3306.68 329.269L3305.59 329.719H3305.74L3304.79 335.435ZM3300.44 326.303C3300.82 327.456 3301.24 328.593 3301.69 329.713L3304.44 328.583V326.303H3300.44ZM3305.7 325.762C3305.63 325.236 3305.46 324.743 3305.2 324.301C3303.59 319.298 3302.68 313.977 3302.61 308.457H3333.26C3333.34 311.137 3333.87 313.705 3334.78 316.09L3306.45 327.753C3306.19 327.096 3305.94 326.431 3305.7 325.762ZM3305.29 326.303H3305.5L3305.58 326.531C3305.64 326.697 3305.71 326.863 3305.77 327.027L3305.84 327.228C3305.93 327.451 3306.02 327.673 3306.11 327.895L3305.29 328.231V326.303ZM3299.07 281.82H3294.56V278.397H3299.07V281.82ZM3300.04 281.82H3299.92V278.397H3301.75C3301.14 279.518 3300.57 280.659 3300.04 281.82ZM3305.12 285.523L3305.74 281.82H3305.29V278.397H3305.74C3305.74 278.147 3305.71 277.902 3305.67 277.665C3307.35 274.826 3309.27 272.139 3311.39 269.628H3315.17C3315.43 269.628 3315.68 269.574 3315.91 269.476C3316.28 269.321 3316.58 269.055 3316.78 268.717L3317.76 269.695C3313.13 274.432 3309.35 280.005 3306.68 286.163L3305.12 285.523ZM3304.44 281.82H3303.43C3303.75 281.156 3304.09 280.498 3304.44 279.847V281.82ZM3419.58 329.719V326.303H3416.93C3416.57 327.457 3416.17 328.595 3415.74 329.719H3419.58ZM3408.42 329.719H3408.57L3407.47 329.269C3404.8 335.427 3401.02 340.998 3396.38 345.734L3396.84 346.187C3397.5 345.731 3398.3 345.463 3399.17 345.463H3400.25C3400.25 344.88 3400.73 344.408 3401.31 344.408C3401.9 344.408 3402.37 344.88 3402.37 345.463H3403.04C3405.5 342.513 3407.67 339.323 3409.52 335.934C3409.45 335.779 3409.39 335.612 3409.36 335.435L3408.42 329.719ZM3408.65 326.303H3408.86V328.231L3408.05 327.895L3408.2 327.514L3408.4 326.996L3408.52 326.655L3408.65 326.303ZM3408.95 324.301C3408.69 324.743 3408.52 325.236 3408.45 325.762C3408.21 326.431 3407.96 327.096 3407.7 327.753L3379.37 316.09C3380.28 313.705 3380.81 311.137 3380.89 308.457H3411.55C3411.47 313.977 3410.57 319.298 3408.95 324.301ZM3409.71 326.303H3413.71L3413.57 326.729C3413.22 327.736 3412.86 328.731 3412.46 329.713L3409.71 328.583V326.303ZM3414.22 281.82H3414.11C3413.98 281.533 3413.85 281.247 3413.71 280.962C3413.29 280.096 3412.86 279.24 3412.41 278.397H3414.22V281.82ZM3415.08 281.82V278.397H3419.58V281.82H3415.08ZM3410.73 281.82L3410.53 281.418C3410.26 280.89 3409.99 280.366 3409.71 279.847V281.82H3410.73ZM3408.86 281.82V278.397H3408.42C3408.42 278.147 3408.44 277.901 3408.48 277.664C3406.8 274.825 3404.88 272.139 3402.76 269.628H3397.87C3397.47 269.628 3397.1 269.503 3396.79 269.287L3396.38 269.693C3401.02 274.43 3404.8 280.002 3407.47 286.161L3409.03 285.52L3408.42 281.82H3408.86ZM3313.96 352.94C3313.34 352.36 3312.74 351.766 3312.14 351.162V352.94H3313.96ZM3311.29 352.94V350.271C3311.06 350.024 3310.83 349.775 3310.6 349.524H3306.78V352.94H3311.29ZM3316.07 349.524L3315.45 350.144C3315.66 350.35 3315.87 350.554 3316.09 350.758C3316.28 350.935 3316.47 351.11 3316.66 351.285V349.524H3316.07ZM3312.14 262.364V258.948H3316.66V260.084C3315.78 260.821 3314.92 261.581 3314.09 262.364H3312.14ZM3311.29 258.948V262.364H3306.78V258.948H3311.29ZM3406.25 352.94V349.524H3403.56C3402.96 350.173 3402.36 350.809 3401.74 351.433V352.94H3406.25ZM3400.89 352.94V352.279C3400.66 352.501 3400.43 352.721 3400.19 352.94H3400.89ZM3396.38 349.524V352.282C3397.17 351.591 3397.95 350.879 3398.7 350.147L3398.07 349.524H3396.38ZM3406.25 262.364V258.948H3401.74V262.364H3406.25ZM3400.89 258.948V262.364H3400.07C3398.88 261.253 3397.65 260.188 3396.38 259.17V258.948H3400.89ZM3336.72 405.219L3345.16 368.894C3345.94 369.045 3346.74 369.181 3347.53 369.302C3348.63 369.468 3349.73 369.606 3350.85 369.716C3350.84 369.757 3350.84 369.797 3350.84 369.838H3351.29V373.254H3350.84L3351.78 378.97C3351.84 379.271 3351.96 379.545 3352.13 379.775C3352.28 379.979 3352.48 380.148 3352.7 380.274C3352.97 380.43 3353.29 380.518 3353.62 380.518H3360.52C3360.66 380.518 3360.79 380.504 3360.92 380.477C3361.04 380.45 3361.17 380.411 3361.28 380.36C3361.44 380.289 3361.59 380.197 3361.72 380.088C3362.05 379.812 3362.29 379.422 3362.36 378.97L3363.31 373.254H3362.86V369.838H3363.32C3363.32 369.797 3363.32 369.756 3363.31 369.715C3363.55 369.691 3363.79 369.666 3364.03 369.64L3364.31 369.609C3364.52 369.586 3364.72 369.562 3364.93 369.536C3366.3 369.365 3367.66 369.151 3369 368.894L3377.43 405.219H3336.72ZM3362 373.254V369.838H3361.9C3360.45 369.948 3358.98 370.009 3357.5 370.018V373.254H3362ZM3356.65 373.254V370.018C3355.17 370.008 3353.71 369.947 3352.26 369.838H3352.14V373.254H3356.65ZM3358.14 365.777C3358.14 365.483 3358.02 365.219 3357.83 365.028V362.223C3361.04 362.18 3364.18 361.864 3367.23 361.295L3368.31 365.926C3367.3 366.117 3366.29 366.282 3365.27 366.421C3364.16 366.573 3363.04 366.694 3361.92 366.783C3361.2 366.157 3360.26 365.777 3359.23 365.777H3358.14ZM3354.4 365.811C3354.58 365.788 3354.75 365.777 3354.93 365.777H3356.01C3356.01 365.483 3356.13 365.218 3356.33 365.027V362.223C3353.12 362.18 3349.97 361.864 3346.92 361.295L3345.84 365.926C3347.04 366.153 3348.25 366.344 3349.47 366.499C3349.84 366.546 3350.22 366.59 3350.6 366.63C3350.81 366.653 3351.02 366.675 3351.23 366.696C3351.57 366.728 3351.9 366.757 3352.24 366.784C3352.74 366.344 3353.36 366.026 3354.03 365.875C3354.16 365.848 3354.28 365.826 3354.4 365.811ZM3364.9 330.091L3371.81 359.853C3372.63 359.624 3373.44 359.378 3374.25 359.112C3375.26 358.779 3376.25 358.418 3377.23 358.029L3365.5 329.875C3365.3 329.95 3365.1 330.022 3364.9 330.091ZM3366.88 329.305L3378.61 357.46C3384.76 354.827 3390.33 351.1 3395.06 346.526L3373.38 324.983C3371.48 326.757 3369.29 328.224 3366.88 329.305ZM3378.8 317.465L3407.13 329.127C3404.47 335.24 3400.72 340.77 3396.12 345.471L3374.44 323.928C3376.23 322.038 3377.71 319.857 3378.8 317.465ZM3411.55 306.969C3411.45 300.161 3410.1 293.657 3407.7 287.677L3379.37 299.339C3380.28 301.723 3380.81 304.29 3380.89 306.969H3411.55ZM3378.8 297.965L3407.13 286.303C3404.47 280.19 3400.72 274.657 3396.12 269.955L3374.44 291.498C3376.23 293.388 3377.71 295.571 3378.8 297.965ZM3366.88 286.12L3378.61 257.967C3384.76 260.6 3390.33 264.327 3395.06 268.901L3373.38 290.443C3371.48 288.669 3369.29 287.202 3366.88 286.12ZM3365.5 285.551L3377.23 257.398C3371.22 255.015 3364.67 253.667 3357.83 253.575V284.04C3360.52 284.123 3363.1 284.65 3365.5 285.551ZM3335.53 257.968C3329.38 260.602 3323.82 264.33 3319.09 268.903L3340.77 290.447C3342.67 288.673 3344.86 287.205 3347.27 286.123L3335.53 257.968ZM3318.03 269.958C3313.43 274.66 3309.67 280.192 3307.02 286.306L3335.35 297.968C3336.44 295.575 3337.92 293.394 3339.7 291.505L3318.03 269.958ZM3306.45 287.679C3304.05 293.658 3302.7 300.162 3302.61 306.969H3333.26C3333.34 304.291 3333.87 301.724 3334.78 299.342L3306.45 287.679ZM3307.03 329.127C3309.68 335.238 3313.43 340.767 3318.03 345.468L3339.7 323.924C3337.92 322.035 3336.44 319.856 3335.35 317.465L3307.03 329.127ZM3319.09 346.522C3323.82 351.096 3329.38 354.824 3335.53 357.458L3347.27 329.303C3344.86 328.221 3342.67 326.753 3340.77 324.979L3319.09 346.522ZM3339.58 359.003C3340.49 359.31 3341.41 359.594 3342.35 359.853L3349.26 330.091C3349.05 330.021 3348.85 329.948 3348.65 329.873L3336.91 358.027C3337.31 358.183 3337.7 358.334 3338.1 358.481C3338.59 358.661 3339.08 358.836 3339.58 359.003ZM3347 360.932C3350.03 361.495 3353.15 361.808 3356.33 361.851V331.386C3355.91 331.373 3355.5 331.349 3355.09 331.316C3354.7 331.283 3354.3 331.241 3353.91 331.189L3347 360.932ZM3357.83 331.386V361.851C3359.72 361.825 3361.6 361.703 3363.45 361.489C3364.7 361.345 3365.93 361.159 3367.15 360.932L3360.24 331.189C3359.92 331.231 3359.6 331.267 3359.28 331.297C3359.07 331.315 3358.87 331.331 3358.66 331.345C3358.39 331.363 3358.11 331.377 3357.83 331.386ZM3356.33 253.575C3349.48 253.667 3342.93 255.015 3336.91 257.399L3348.65 285.554C3351.05 284.652 3353.63 284.123 3356.33 284.04V253.575ZM3371.74 323.346C3370.05 324.908 3368.11 326.204 3365.99 327.166L3361.99 317.573L3360.81 312.487L3371.74 323.346ZM3372.8 322.291C3374.37 320.616 3375.68 318.689 3376.65 316.578L3362.04 310.564C3362 310.622 3361.97 310.679 3361.93 310.736C3361.84 310.89 3361.73 311.04 3361.62 311.183L3372.8 322.291ZM3352.53 311.18L3341.35 322.287C3339.78 320.613 3338.48 318.688 3337.51 316.578L3352.11 310.564C3352.17 310.659 3352.23 310.752 3352.29 310.843C3352.33 310.903 3352.37 310.962 3352.41 311.021C3352.45 311.074 3352.49 311.127 3352.53 311.18ZM3351.54 309.19L3336.93 315.204C3336.14 313.094 3335.67 310.824 3335.59 308.457H3351.39C3351.43 308.706 3351.48 308.95 3351.54 309.19ZM3351.4 306.969H3335.59C3335.67 304.604 3336.14 302.337 3336.93 300.228L3351.54 306.244C3351.53 306.297 3351.51 306.352 3351.5 306.406C3351.46 306.594 3351.42 306.781 3351.4 306.969ZM3352.11 304.869L3337.5 298.854C3338.47 296.743 3339.78 294.817 3341.35 293.141L3352.53 304.254C3352.44 304.366 3352.36 304.483 3352.28 304.602C3352.22 304.689 3352.17 304.778 3352.11 304.869ZM3353.59 303.196C3353.79 303.047 3354 302.911 3354.21 302.788L3348.16 288.263C3346.03 289.226 3344.1 290.522 3342.41 292.083L3353.59 303.196ZM3355.59 302.218C3355.83 302.153 3356.08 302.105 3356.33 302.072V286.357C3353.95 286.438 3351.66 286.903 3349.54 287.693L3355.59 302.218ZM3357.83 302.074V286.357C3360.2 286.438 3362.49 286.902 3364.61 287.691L3358.55 302.218L3358.47 302.197L3358.4 302.179C3358.21 302.134 3358.02 302.099 3357.83 302.074ZM3359.94 302.784L3365.99 288.26C3368.11 289.222 3370.05 290.518 3371.74 292.08L3360.55 303.194C3360.36 303.045 3360.15 302.908 3359.94 302.784ZM3361.62 304.248L3372.8 293.135C3374.37 294.811 3375.68 296.739 3376.65 298.852L3362.03 304.868L3361.98 304.779C3361.93 304.693 3361.87 304.608 3361.82 304.525C3361.78 304.466 3361.74 304.408 3361.69 304.351L3361.62 304.248ZM3377.22 300.226L3362.61 306.242C3362.67 306.48 3362.72 306.722 3362.75 306.969H3378.56C3378.48 304.603 3378.01 302.336 3377.22 300.226ZM3362.76 308.457H3378.56C3378.48 310.824 3378.01 313.094 3377.22 315.204L3362.61 309.189C3362.62 309.137 3362.64 309.084 3362.65 309.031C3362.66 308.967 3362.68 308.902 3362.69 308.838C3362.7 308.782 3362.71 308.727 3362.72 308.671C3362.73 308.599 3362.75 308.528 3362.76 308.457ZM3349.78 327.821L3349.54 327.732L3350.13 326.305L3349.78 327.821ZM3355.15 328.996C3355.04 328.987 3354.94 328.977 3354.83 328.966C3354.7 328.953 3354.57 328.939 3354.44 328.922L3356.33 320.773V329.069C3355.93 329.056 3355.54 329.031 3355.15 328.996ZM3358.64 329.026C3358.37 329.045 3358.1 329.06 3357.83 329.069V320.777L3359.72 328.922C3359.36 328.966 3359 329.001 3358.64 329.026ZM3364.37 327.821L3364.03 326.345L3364.61 327.735L3364.37 327.821ZM3348.16 327.163C3346.03 326.2 3344.1 324.904 3342.41 323.342L3353.34 312.477L3352.17 317.533L3348.16 327.163Z" fill="#2F70DF"/>
<path fill-rule="evenodd" clip-rule="evenodd" d="M39.0774 223.417H38.6856C38.6856 223.208 38.5152 223.038 38.305 223.038C38.0947 223.038 37.9243 223.208 37.9243 223.417H37.5354C36.7274 223.417 36.07 224.07 36.07 224.873H36.2288V226.101H36.0673L36.2674 227.307C34.6823 227.449 33.1447 227.754 31.6717 228.205L31.6768 228.175H31.5179V226.95H31.6768C31.6768 226.147 31.0196 225.494 30.2116 225.494H29.82C29.82 225.285 29.6494 225.115 29.4391 225.115C29.3533 225.115 29.2741 225.144 29.2104 225.191C29.1634 225.226 29.1246 225.272 29.0981 225.325C29.0727 225.376 29.0585 225.433 29.0585 225.494H28.6696C27.8616 225.494 27.2041 226.147 27.2041 226.95H27.363V228.175H27.2041L27.5002 229.962C26.302 230.616 25.1703 231.376 24.1175 232.228V232.073H24.2764C24.2764 231.27 23.619 230.617 22.8109 230.617H22.422C22.422 230.407 22.2522 230.239 22.0414 230.239C21.8304 230.239 21.6608 230.407 21.6608 230.617H21.269C20.461 230.617 19.8038 231.27 19.8038 232.073H19.9627V233.298H19.8038L20.1435 235.348C20.1831 235.581 20.3414 235.769 20.55 235.854C20.0619 236.478 19.6067 237.127 19.1862 237.801C19.1132 237.757 19.0361 237.72 18.9559 237.689C18.9142 237.673 18.8716 237.658 18.828 237.646C18.7984 237.638 18.7684 237.631 18.7382 237.624C18.6906 237.614 18.6419 237.606 18.5927 237.6C18.5745 237.598 18.5563 237.597 18.5381 237.595C18.5181 237.594 18.4975 237.593 18.4769 237.592L18.4287 237.591H18.0398C18.0398 237.382 17.87 237.213 17.6592 237.213C17.4482 237.213 17.2786 237.382 17.2786 237.591H16.8868C16.0787 237.591 15.4215 238.245 15.4215 239.048H15.5804V240.275H15.4215L15.7612 242.325C15.8158 242.646 16.0953 242.881 16.4211 242.881H16.8461C16.4724 244.067 16.1959 245.296 16.0252 246.559C15.9864 246.618 15.9637 246.689 15.9637 246.765H15.5721C14.7641 246.765 14.1069 247.419 14.1069 248.221H14.2685V249.449H14.1069L14.4464 251.499C14.5012 251.82 14.7807 252.054 15.1065 252.054H15.9626C15.9872 252.275 16.0151 252.496 16.0464 252.715C16.0835 252.976 16.1253 253.236 16.1713 253.495C16.252 253.946 16.3465 254.394 16.4543 254.836C15.8567 255.019 15.4215 255.574 15.4215 256.227H15.5804V257.452H15.4215L15.7612 259.502C15.7917 259.683 15.8931 259.835 16.0338 259.935C16.144 260.012 16.278 260.058 16.4211 260.058H18.4544C19.064 261.194 19.7693 262.272 20.5599 263.28C20.1092 263.529 19.8038 264.007 19.8038 264.555H19.9627V265.78H19.8038L20.1435 267.829C20.1675 267.972 20.236 268.097 20.3328 268.192C20.4067 268.265 20.4971 268.32 20.5974 268.352C20.6212 268.36 20.6455 268.366 20.6704 268.372C20.7134 268.38 20.7578 268.385 20.8033 268.385H23.2766C23.6053 268.385 23.8846 268.151 23.9367 267.829L24.0948 266.875C25.0887 267.682 26.1533 268.406 27.278 269.036C27.2301 269.18 27.2041 269.334 27.2041 269.493H27.363V270.72H27.2041L27.5438 272.77C27.5987 273.091 27.8779 273.326 28.2039 273.326H30.6772C31.0057 273.326 31.2852 273.091 31.3371 272.77L31.6457 270.908L31.8185 270.961L32.0009 271.014C32.12 271.049 32.2393 271.082 32.3591 271.115L29.0914 285.189C29.031 285.445 29.0941 285.709 29.2556 285.913C29.3589 286.042 29.498 286.137 29.6528 286.189C29.6884 286.201 29.7248 286.211 29.762 286.218C29.816 286.229 29.8711 286.234 29.9267 286.234H46.6832C46.9434 286.234 47.1927 286.117 47.3543 285.913C47.4142 285.838 47.4602 285.755 47.4912 285.668C47.5121 285.609 47.5263 285.549 47.5337 285.487C47.5458 285.389 47.541 285.288 47.5185 285.189L44.2508 271.115L44.4525 271.059L44.736 272.77C44.7906 273.091 45.0701 273.326 45.3959 273.326H47.8691C48.1979 273.326 48.4771 273.091 48.5293 272.77L48.869 270.72H48.7074V269.493H48.866C48.866 269.459 48.8647 269.426 48.8625 269.394C48.8604 269.361 48.8572 269.329 48.8529 269.297C50.0209 268.679 51.1277 267.962 52.1618 267.156L52.2733 267.829C52.3281 268.151 52.6074 268.385 52.9334 268.385H55.4067C55.7352 268.385 56.0147 268.151 56.0666 267.829L56.4063 265.78H56.2474V264.555H56.4063C56.4063 264.119 56.2129 263.728 55.9072 263.461C56.7558 262.4 57.5096 261.262 58.1555 260.058H60.1888C60.5173 260.058 60.7968 259.823 60.8487 259.502L61.1884 257.452H61.0268V256.227H61.1884C61.1884 255.574 60.7532 255.019 60.1557 254.836C60.3766 253.929 60.5416 253 60.6473 252.054H61.5008C61.8292 252.054 62.1087 251.82 62.1606 251.499L62.5003 249.449H62.3414V248.221H62.5003C62.5003 247.419 61.8431 246.765 61.0351 246.765H60.6462C60.6462 246.689 60.6237 246.618 60.5847 246.558C60.414 245.296 60.1375 244.067 59.7638 242.881H60.1888C60.5173 242.881 60.7968 242.646 60.8487 242.325L61.1884 240.275H61.0268V239.048H61.1884C61.1884 238.245 60.5312 237.591 59.7232 237.591H59.3316C59.3316 237.382 59.1617 237.213 58.9507 237.213C58.7399 237.213 58.5701 237.382 58.5701 237.591H58.1812C57.9041 237.591 57.6449 237.668 57.4237 237.801C56.9621 237.062 56.4584 236.351 55.9157 235.672C55.9326 235.652 55.9481 235.632 55.9625 235.611C55.9716 235.597 55.9802 235.584 55.9882 235.57C55.9968 235.555 56.0048 235.539 56.0123 235.524C56.038 235.469 56.0564 235.41 56.0666 235.348L56.4063 233.298H56.2474V232.073H56.4063C56.4063 231.27 55.7491 230.617 54.9411 230.617H54.5492C54.5492 230.408 54.3788 230.239 54.1686 230.239C53.9584 230.239 53.788 230.408 53.788 230.617H53.3991C52.682 230.617 52.0837 231.131 51.958 231.808C50.9124 231.013 49.7949 230.307 48.6162 229.701L48.869 228.175H48.7074V226.95H48.869C48.869 226.147 48.2115 225.494 47.4035 225.494H47.0119C47.0119 225.333 46.9113 225.195 46.769 225.141C46.7262 225.124 46.68 225.115 46.6313 225.115C46.4203 225.115 46.2504 225.284 46.2504 225.494H45.8615C45.0535 225.494 44.3963 226.147 44.3963 226.95H44.5552V228.092C43.1983 227.702 41.789 227.437 40.3399 227.307L40.5399 226.101H40.3784V224.873H40.5426C40.5426 224.07 39.8854 223.417 39.0774 223.417ZM40.0716 226.101V224.873H38.4582V226.098H39.228V226.101H40.0716ZM38.1517 224.873V226.098H37.3819V226.101H36.5356V224.873H38.1517ZM38.5735 228.706H39.5401C39.6038 228.706 39.6656 228.697 39.7244 228.681C39.7958 228.661 39.8627 228.629 39.9223 228.588C40.0002 228.535 40.0662 228.465 40.1152 228.384C41.6529 228.512 43.1443 228.802 44.572 229.236L44.736 230.225C44.7906 230.546 45.0701 230.78 45.3959 230.78H45.8401L45.5844 231.394C43.4112 230.533 41.0473 230.046 38.5735 230.013V228.706ZM36.4939 228.384C36.6124 228.579 36.8269 228.706 37.0671 228.706H38.0367V230.013C35.5615 230.046 33.1968 230.533 31.0231 231.394L30.7647 230.775C31.0541 230.738 31.2897 230.517 31.3371 230.225L31.4711 229.417C33.0692 228.882 34.7519 228.529 36.4939 228.384ZM31.0645 270.72C30.8738 270.656 30.6842 270.589 30.4959 270.52C30.1918 270.408 29.8906 270.289 29.5926 270.165V270.72H31.0645ZM29.2859 270.72V270.034L29.1615 269.979C29.0467 269.928 28.9325 269.876 28.8191 269.824C28.5888 269.717 28.3607 269.607 28.1349 269.493H27.6698V270.72H29.2859ZM30.869 269.493C30.9827 269.535 31.0966 269.576 31.2111 269.616V269.493H30.869ZM31.5179 269.493V269.72C31.603 269.749 31.6885 269.776 31.7741 269.804L31.9319 269.853C32.1553 269.922 32.3802 269.988 32.6065 270.05L32.9922 268.389C32.3206 268.202 31.6637 267.981 31.0231 267.727L30.8361 268.175C31.3325 268.409 31.6768 268.912 31.6768 269.493H31.5179ZM30.3121 268.04L30.5275 267.523C28.3061 266.572 26.2966 265.225 24.588 263.573L24.1635 263.994C24.2363 264.167 24.2764 264.356 24.2764 264.555H24.1175V265.462C25.3043 266.509 26.6096 267.426 28.01 268.192C28.2085 268.092 28.4324 268.036 28.6696 268.036H29.0585C29.0585 267.915 29.1155 267.807 29.2046 267.738C29.2177 267.728 29.2316 267.719 29.246 267.71C29.2639 267.699 29.2829 267.69 29.3027 267.683L29.3156 267.678L29.3316 267.673C29.3418 267.67 29.3522 267.668 29.3626 267.666L29.3813 267.662C29.3891 267.661 29.3969 267.66 29.4049 267.66C29.4161 267.659 29.4276 267.658 29.4391 267.658C29.6502 267.658 29.82 267.827 29.82 268.036H30.2116L30.2597 268.037L30.2881 268.038L30.3121 268.04ZM31.2111 228.175V226.95H29.5926V228.175H31.2111ZM29.2859 226.95V228.175H27.6698V226.95H29.2859ZM28.2866 230.78H30.1864L30.5275 231.599C28.3061 232.55 26.2966 233.897 24.588 235.549L24.0001 234.965L24.2334 233.558C25.4675 232.485 26.8267 231.551 28.2866 230.78ZM48.4006 270.72V269.53C47.8734 269.794 47.3345 270.038 46.7846 270.26V270.72H48.4006ZM46.4778 270.72V270.382L46.2416 270.472L46.0474 270.544C45.9549 270.578 45.8621 270.611 45.769 270.643C45.6943 270.669 45.6197 270.695 45.5448 270.72H46.4778ZM48.3075 268.349C49.6096 267.663 50.8316 266.847 51.9566 265.919L51.9336 265.78H52.0925V264.555H51.9336C51.9336 264.252 52.027 263.971 52.1861 263.738L52.0206 263.574C50.3117 265.226 48.3016 266.573 46.08 267.524L46.2592 267.954C46.297 267.785 46.4486 267.658 46.6313 267.658C46.7022 267.658 46.7685 267.677 46.8252 267.711C46.8493 267.725 46.8718 267.741 46.8921 267.76C46.9659 267.829 47.0119 267.927 47.0119 268.036H47.4008C47.7429 268.036 48.058 268.154 48.3075 268.349ZM45.716 268.043L45.5847 267.728C44.9449 267.981 44.2888 268.202 43.618 268.389L44.0037 270.05C44.0986 270.024 44.1936 269.997 44.288 269.97C44.3773 269.944 44.4664 269.918 44.5552 269.891V269.493H44.3936C44.3936 268.738 44.9749 268.115 45.716 268.043ZM44.862 269.493V269.795C45.1385 269.707 45.4127 269.613 45.6842 269.514L45.7414 269.493H44.862ZM48.4006 228.175V226.95H46.7846V228.175H48.4006ZM46.4778 226.95V228.175H44.862V226.95H46.4778ZM46.0798 231.598L46.4205 230.78H47.8691C47.9807 230.78 48.0866 230.753 48.1797 230.705C49.5745 231.428 50.8793 232.3 52.0722 233.298H51.9336L52.2661 235.304L52.02 235.548C50.3111 233.896 48.3011 232.549 46.0798 231.598ZM17.0681 252.054C17.163 252.862 17.3032 253.655 17.4867 254.432C17.5378 254.407 17.5955 254.393 17.6565 254.393C17.8668 254.393 18.0371 254.562 18.0371 254.771H18.4287C18.5135 254.771 18.5964 254.778 18.6772 254.792C18.7328 254.801 18.7874 254.814 18.8406 254.829C18.8778 254.84 18.9142 254.852 18.95 254.866C19.0051 254.887 19.0586 254.911 19.1102 254.938C19.2418 255.007 19.3617 255.095 19.466 255.199C18.9505 253.495 18.6625 251.693 18.6373 249.828H18.5197L18.2426 251.499C18.1904 251.82 17.9112 252.054 17.5824 252.054H17.0681ZM15.8244 249.449L15.826 249.283C15.8273 249.165 15.8297 249.047 15.8329 248.93C15.8393 248.693 15.8498 248.457 15.8637 248.221H14.5753V249.449H15.8244ZM16.964 248.221C16.9418 248.577 16.9285 248.934 16.9239 249.294H18.1139V248.221H16.964ZM18.4207 248.221V249.294H18.6373C18.6705 246.835 19.1602 244.485 20.0263 242.326L19.5845 242.144L19.5545 242.325C19.5023 242.646 19.2231 242.881 18.8944 242.881H17.9997C17.5846 244.128 17.2823 245.427 17.1055 246.765H17.1141C17.9221 246.765 18.5796 247.419 18.5796 248.221H18.4207ZM59.5418 252.054C59.4469 252.862 59.3064 253.656 59.123 254.433C59.1045 254.424 59.0852 254.416 59.0654 254.41C59.0293 254.399 58.9908 254.393 58.9507 254.393C58.8614 254.393 58.7793 254.423 58.7143 254.474C58.6814 254.5 58.6527 254.531 58.63 254.566C58.592 254.625 58.5701 254.696 58.5701 254.771H58.1812C58.1448 254.771 58.1087 254.772 58.0729 254.775C58.0239 254.779 57.9758 254.785 57.9284 254.793C57.8287 254.81 57.7324 254.838 57.6404 254.874C57.4529 254.948 57.2844 255.06 57.1442 255.199C57.6596 253.495 57.9474 251.693 57.9726 249.828H58.0902L58.3673 251.499C58.4222 251.82 58.7014 252.054 59.0275 252.054H59.5418ZM60.7855 249.449C60.7845 249.245 60.7807 249.042 60.7743 248.839C60.7676 248.632 60.7583 248.427 60.7462 248.221H62.0346V249.449H60.7855ZM58.6099 242.881C59.0251 244.128 59.3273 245.427 59.5044 246.765H59.4931C58.6851 246.765 58.0277 247.419 58.0277 248.221H58.1892V249.294H57.9726C57.9394 246.834 57.4494 244.485 56.5831 242.325L57.0252 242.143L57.0554 242.325C57.1102 242.646 57.3895 242.881 57.7155 242.881H58.6099ZM59.6459 248.221H58.496V249.294H59.686C59.6844 249.174 59.682 249.053 59.6785 248.934C59.6715 248.695 59.6606 248.458 59.6459 248.221ZM17.1079 257.021C17.0146 256.759 16.9258 256.494 16.8418 256.227H15.8872V257.452H17.2666C17.2123 257.309 17.1593 257.166 17.1079 257.021ZM19.5545 259.502C19.5441 259.566 19.5248 259.626 19.4978 259.682C20.129 260.838 20.8654 261.93 21.6935 262.944C21.7526 262.812 21.8858 262.72 22.0414 262.72C22.2522 262.72 22.422 262.889 22.422 263.098H22.8109C23.2218 263.098 23.5938 263.267 23.8602 263.539L24.2071 263.194C22.5445 261.496 21.1901 259.499 20.2328 257.291L19.8407 257.452H19.8942L19.5545 259.502ZM17.9954 256.227C18.1326 256.641 18.2824 257.049 18.444 257.45L19.4285 257.045V256.227H17.9954ZM19.8813 256.033C19.8559 255.845 19.7944 255.668 19.7035 255.509C19.1233 253.715 18.7986 251.807 18.7716 249.828H29.7636C29.7935 250.789 29.9842 251.71 30.3097 252.565L20.1512 256.747C20.0568 256.512 19.9667 256.273 19.8813 256.033ZM19.7353 256.227H19.8086L19.8388 256.309C19.8608 256.369 19.883 256.428 19.9054 256.487L19.933 256.559C19.9637 256.639 19.9953 256.719 20.0271 256.798L19.7353 256.919V256.227ZM17.503 240.275H15.8872V239.048H17.503V240.275ZM17.8512 240.275H17.8098V239.048H18.4632C18.2471 239.45 18.0428 239.859 17.8512 240.275ZM19.6741 241.603L19.8942 240.275H19.7353V239.048H19.8942C19.8942 238.958 19.8862 238.87 19.8704 238.785C20.4738 237.767 21.1604 236.804 21.9208 235.903H23.2766C23.371 235.903 23.4614 235.884 23.5435 235.849C23.6735 235.793 23.7827 235.698 23.8543 235.576L24.2071 235.927C22.544 237.626 21.189 239.624 20.2317 241.833L19.6741 241.603ZM19.4285 240.275H19.0656C19.1822 240.037 19.3033 239.801 19.4285 239.568V240.275ZM60.72 257.452V256.227H59.7681C59.6381 256.641 59.4963 257.049 59.3433 257.452H60.72ZM56.7157 257.452H56.7692L56.3771 257.291C55.4196 259.499 54.0646 261.497 52.4012 263.196L52.5646 263.358C52.8016 263.194 53.0894 263.098 53.3991 263.098H53.788C53.788 262.889 53.9584 262.72 54.1686 262.72C54.3788 262.72 54.5492 262.889 54.5492 263.098H54.7897C55.6699 262.041 56.4493 260.896 57.1126 259.681C57.0856 259.625 57.0661 259.566 57.0554 259.502L56.7157 257.452ZM56.8013 256.227H56.8746V256.919L56.5828 256.798L56.6371 256.662L56.7085 256.476L56.7548 256.354L56.8013 256.227ZM56.9064 255.509C56.8155 255.668 56.754 255.845 56.7286 256.033C56.6432 256.273 56.5531 256.512 56.4587 256.747L46.3002 252.565C46.6257 251.71 46.8164 250.789 46.8463 249.828H57.8383C57.8113 251.807 57.4866 253.715 56.9064 255.509ZM57.1814 256.227H58.6145L58.5631 256.38C58.4401 256.741 58.3077 257.098 58.1659 257.45L57.1814 257.045V256.227ZM58.7974 240.275H58.7584C58.7111 240.173 58.6629 240.07 58.614 239.968C58.4652 239.657 58.3093 239.35 58.1467 239.048H58.7974V240.275ZM59.1042 240.275V239.048H60.72V240.275H59.1042ZM57.5443 240.275L57.4729 240.131C57.3785 239.942 57.2812 239.754 57.1814 239.568V240.275H57.5443ZM56.8746 240.275V239.048H56.7157C56.7157 238.958 56.7237 238.87 56.7395 238.785C56.1358 237.767 55.4493 236.804 54.6891 235.903H52.9334C52.7906 235.903 52.6569 235.858 52.5469 235.781L52.4006 235.927C54.0643 237.625 55.4198 239.623 56.3774 241.832L56.9356 241.602L56.7157 240.275H56.8746ZM22.8422 265.78C22.6213 265.571 22.4044 265.359 22.192 265.142V265.78H22.8422ZM21.8852 265.78V264.822C21.8018 264.734 21.7191 264.644 21.6373 264.555H20.2694V265.78H21.8852ZM23.6 264.555L23.3764 264.777C23.4526 264.851 23.5294 264.924 23.6069 264.997C23.6746 265.06 23.7425 265.123 23.8107 265.186V264.555H23.6ZM22.192 233.298V232.073H23.8107V232.481C23.4959 232.745 23.1886 233.018 22.8888 233.298H22.192ZM21.8852 232.073V233.298H20.2694V232.073H21.8852ZM55.9406 265.78V264.555H54.9726C54.7605 264.787 54.5436 265.016 54.3221 265.239V265.78H55.9406ZM54.0153 265.78V265.543C53.9335 265.622 53.8508 265.701 53.7677 265.78H54.0153ZM52.3993 264.555V265.544C52.6836 265.296 52.9615 265.041 53.2322 264.778L53.0073 264.555H52.3993ZM55.9406 233.298V232.073H54.3221V233.298H55.9406ZM54.0153 232.073V233.298H53.7211C53.2959 232.9 52.8548 232.518 52.3993 232.153V232.073H54.0153ZM31.0057 284.527L34.03 271.501C34.3124 271.555 34.5967 271.604 34.8829 271.647C35.2756 271.707 35.6714 271.756 36.0705 271.796C36.07 271.81 36.07 271.825 36.07 271.839H36.2288V273.064H36.0673L36.407 275.114C36.4254 275.222 36.4693 275.32 36.5316 275.403C36.5867 275.476 36.6563 275.537 36.7357 275.582C36.8341 275.638 36.9475 275.669 37.0671 275.669H39.5401C39.5885 275.669 39.6359 275.664 39.6816 275.654C39.7274 275.645 39.7715 275.631 39.8132 275.612C39.8705 275.587 39.9234 275.554 39.9708 275.515C40.09 275.416 40.174 275.276 40.2002 275.114L40.5399 273.064H40.3784V271.839H40.5426C40.5426 271.825 40.5426 271.81 40.5421 271.795C40.6279 271.787 40.7135 271.778 40.7991 271.768L40.8983 271.757C40.9727 271.749 41.0471 271.74 41.1211 271.731C41.6125 271.67 42.099 271.593 42.5799 271.501L45.6042 284.527H31.0057ZM40.0716 273.064V271.839H40.0333C39.5131 271.879 38.9878 271.901 38.4582 271.904V273.064H40.0716ZM38.1517 273.064V271.904C37.6224 271.9 37.0973 271.878 36.5774 271.839H36.5356V273.064H38.1517ZM38.6856 270.383C38.6856 270.278 38.6428 270.183 38.5735 270.114V269.108C39.7247 269.093 40.8518 268.98 41.9471 268.776L42.3328 270.437C41.9722 270.505 41.6082 270.564 41.2415 270.614C40.8451 270.668 40.4452 270.712 40.0422 270.744C39.7843 270.519 39.4465 270.383 39.0774 270.383H38.6856ZM37.3469 270.395C37.4087 270.387 37.4715 270.383 37.5354 270.383H37.9243C37.9243 270.278 37.9671 270.183 38.0367 270.114V269.108C36.8855 269.093 35.7581 268.98 34.6628 268.776L34.2771 270.437C34.7061 270.518 35.1397 270.586 35.5773 270.642C35.7116 270.659 35.8464 270.674 35.9814 270.689C36.0574 270.697 36.1336 270.705 36.2099 270.712C36.3297 270.724 36.45 270.735 36.5704 270.744C36.7515 270.586 36.9716 270.472 37.2142 270.418C37.2578 270.408 37.3019 270.401 37.3469 270.395ZM41.1096 257.586L43.5878 268.259C43.8822 268.177 44.174 268.088 44.4626 267.993C44.8243 267.874 45.1813 267.744 45.5333 267.605L41.3252 257.508C41.2538 257.535 41.1819 257.561 41.1096 257.586ZM41.8208 257.304L46.0287 267.4C48.234 266.456 50.229 265.12 51.9256 263.48L44.1527 255.754C43.4709 256.39 42.684 256.916 41.8208 257.304ZM46.0945 253.058L56.253 257.24C55.3024 259.432 53.957 261.415 52.3062 263.101L44.5333 255.376C45.1739 254.698 45.7037 253.916 46.0945 253.058ZM57.8383 249.294C57.8051 246.853 57.3189 244.52 56.4589 242.376L46.301 246.558C46.6262 247.413 46.8167 248.333 46.8463 249.294H57.8383ZM46.0953 246.065L56.2533 241.883C55.3024 239.691 53.9573 237.707 52.3059 236.021L44.5333 243.746C45.1744 244.424 45.7045 245.206 46.0953 246.065ZM41.8208 241.818L46.0284 231.721C48.2334 232.666 50.2285 234.002 51.9251 235.643L44.1527 243.368C43.4709 242.731 42.684 242.205 41.8208 241.818ZM41.3252 241.613L45.5331 231.517C43.3757 230.663 41.0291 230.18 38.5735 230.147V241.072C39.5396 241.101 40.4656 241.29 41.3252 241.613ZM30.5788 231.722C28.3738 232.667 26.379 234.003 24.683 235.643L32.4559 243.369C33.1374 242.733 33.9238 242.206 34.7867 241.819L30.5788 231.722ZM24.3021 236.022C22.6513 237.708 21.3062 239.692 20.3558 241.884L30.5144 246.066C30.9046 245.208 31.4342 244.426 32.0745 243.748L24.3021 236.022ZM20.1504 242.377C19.2908 244.521 18.8048 246.853 18.7716 249.294H29.7636C29.7933 248.334 29.9837 247.413 30.3087 246.559L20.1504 242.377ZM20.3569 257.24C21.3072 259.432 22.6518 261.414 24.3021 263.1L32.0753 255.374C31.4353 254.697 30.9059 253.915 30.5154 253.058L20.3569 257.24ZM24.683 263.478C26.379 265.118 28.3738 266.455 30.5788 267.4L34.7867 257.303C33.9238 256.915 33.1374 256.389 32.4559 255.753L24.683 263.478ZM32.0298 267.954C32.357 268.064 32.6878 268.166 33.0224 268.259L35.5003 257.586C35.4272 257.561 35.3545 257.535 35.2823 257.507L31.0744 267.604C31.2154 267.66 31.3571 267.714 31.4997 267.766C31.6752 267.831 31.852 267.894 32.0298 267.954ZM34.693 268.646C35.7787 268.847 36.8959 268.96 38.0367 268.975V258.05C37.8882 258.045 37.7406 258.037 37.594 258.025C37.4515 258.013 37.3097 257.998 37.1693 257.98L34.693 268.646ZM38.5735 258.05V268.975C39.2547 268.966 39.9274 268.922 40.5902 268.846C41.0372 268.794 41.4796 268.727 41.9169 268.646L39.4404 257.98C39.3254 257.995 39.2098 258.007 39.0935 258.018C39.0207 258.025 38.9477 258.031 38.8744 258.035C38.7746 258.042 38.6743 258.047 38.5735 258.05ZM38.0367 230.147C35.5797 230.18 33.2324 230.663 31.0744 231.518L35.2823 241.614C36.1427 241.291 37.0695 241.101 38.0367 241.072V230.147ZM43.5621 255.167C42.9576 255.727 42.2624 256.192 41.501 256.537L40.0673 253.097L39.6439 251.273L43.5621 255.167ZM43.9427 254.789C44.5068 254.188 44.9749 253.497 45.3226 252.74L40.0842 250.583C40.0721 250.604 40.0598 250.625 40.047 250.645C40.0119 250.7 39.9748 250.754 39.9349 250.805L43.9427 254.789ZM36.6734 250.804L32.6659 254.787C32.1023 254.187 31.6348 253.496 31.2873 252.74L36.5252 250.583C36.545 250.617 36.5656 250.651 36.5873 250.683C36.6014 250.705 36.6161 250.726 36.6311 250.747C36.6448 250.766 36.6589 250.785 36.6734 250.804ZM36.3198 250.09L31.0817 252.247C30.7965 251.49 30.6286 250.676 30.5994 249.828H36.2671C36.2789 249.917 36.2965 250.004 36.3198 250.09ZM36.2679 249.294H30.5994C30.6286 248.446 30.7963 247.633 31.0809 246.877L36.3203 249.034C36.3152 249.053 36.3102 249.073 36.3056 249.092C36.2896 249.16 36.277 249.227 36.2679 249.294ZM36.5255 248.541L31.2863 246.384C31.6337 245.627 32.1013 244.936 32.6648 244.335L36.6737 248.321C36.6426 248.361 36.6129 248.402 36.5846 248.445C36.564 248.477 36.5442 248.508 36.5255 248.541ZM37.0561 247.941C37.1267 247.888 37.2006 247.839 37.2773 247.795L35.1065 242.586C34.3453 242.931 33.6507 243.396 33.0465 243.956L37.0561 247.941ZM37.773 247.59C37.8591 247.567 37.9473 247.55 38.0367 247.538V241.902C37.1826 241.931 36.3639 242.098 35.6022 242.382L37.773 247.59ZM38.5735 247.539V241.902C39.4267 241.931 40.2446 242.098 41.0056 242.381L38.8343 247.59L38.8057 247.583L38.7781 247.576C38.7099 247.56 38.6417 247.548 38.5735 247.539ZM39.3304 247.793L41.501 242.585C42.2624 242.93 42.9576 243.395 43.5621 243.955L39.5522 247.94C39.4821 247.887 39.408 247.838 39.3304 247.793ZM39.933 248.318L43.9427 244.333C44.507 244.934 44.9757 245.625 45.3234 246.383L40.0826 248.541L40.0636 248.509C40.0448 248.478 40.0256 248.447 40.0053 248.418C39.9908 248.397 39.9761 248.376 39.9609 248.355L39.933 248.318ZM45.5288 246.876L40.2888 249.033C40.3118 249.119 40.3294 249.206 40.3412 249.294H46.0105C45.9813 248.446 45.8134 247.633 45.5288 246.876ZM40.3415 249.828H46.0105C45.9813 250.676 45.8134 251.49 45.5282 252.247L40.289 250.09C40.2941 250.071 40.2987 250.052 40.3032 250.034C40.3088 250.01 40.3139 249.987 40.3187 249.964C40.3227 249.944 40.3265 249.924 40.3297 249.904C40.334 249.879 40.338 249.853 40.3415 249.828ZM35.6894 256.772L35.6022 256.74L35.8156 256.228L35.6894 256.772ZM37.6138 257.193C37.5756 257.19 37.5373 257.186 37.4991 257.182C37.452 257.178 37.4049 257.172 37.3581 257.167L38.0367 254.244V257.219C37.8947 257.214 37.7537 257.206 37.6138 257.193ZM38.864 257.204C38.7677 257.211 38.6709 257.216 38.5735 257.219V254.246L39.2518 257.167C39.1234 257.182 38.9942 257.195 38.864 257.204ZM40.9205 256.772L40.7978 256.243L41.0053 256.741L40.9205 256.772ZM35.1065 256.536C34.3453 256.19 33.6507 255.726 33.0465 255.166L36.9668 251.269L36.5458 253.082L35.1065 256.536Z" fill="#2F70DF"/>
<path d="M2769.1 199.063C2769.33 198.031 2769.55 197.011 2769.78 195.992C2770.31 193.576 2770.86 191.148 2771.39 188.732C2771.98 186.049 2772.57 183.374 2773.16 180.707C2773.76 177.988 2774.35 175.268 2774.96 172.561C2775.62 169.587 2776.28 166.612 2776.95 163.65C2777.46 161.368 2777.97 159.085 2778.45 156.791C2778.54 156.378 2778.71 156.281 2779.1 156.281C2787.64 156.293 2796.18 156.293 2804.73 156.281C2804.88 156.281 2805.04 156.305 2805.28 156.329C2805.09 157.313 2804.91 158.26 2804.71 159.195C2804.42 160.639 2804.11 162.084 2803.84 163.529C2803.76 163.966 2803.59 164.123 2803.13 164.123C2798.05 164.111 2792.97 164.123 2787.9 164.099C2787.28 164.099 2787.01 164.221 2786.86 164.888C2786.26 167.681 2785.57 170.461 2784.91 173.253C2784.91 173.342 2784.92 173.431 2784.93 173.52H2799.66C2799.45 174.564 2799.28 175.511 2799.09 176.446C2798.8 177.89 2798.49 179.323 2798.22 180.78C2798.13 181.253 2797.95 181.399 2797.47 181.399C2792.87 181.387 2788.28 181.399 2783.69 181.375C2783.12 181.375 2782.92 181.533 2782.8 182.115C2781.99 186.049 2781.13 189.958 2780.28 193.891C2779.94 195.482 2779.59 197.084 2779.28 198.687C2779.22 199.002 2779.1 199.136 2778.77 199.136H2769.39C2769.29 199.132 2769.2 199.107 2769.1 199.063Z" fill="#2F70DF"/>
<path d="M2825.09 199.062L2832.36 164.172H2821.1C2821.26 163.346 2821.38 162.642 2821.52 161.938C2821.86 160.25 2822.25 158.575 2822.55 156.887C2822.65 156.365 2822.88 156.256 2823.36 156.256C2832.75 156.256 2842.14 156.248 2851.53 156.232C2852.22 156.232 2852.9 156.244 2853.59 156.22C2854.01 156.208 2854.12 156.353 2854.04 156.754C2853.62 158.733 2853.25 160.712 2852.81 162.69C2852.5 164.11 2852.48 164.11 2851.04 164.11C2848.62 164.11 2846.2 164.134 2843.78 164.11C2843.26 164.11 2843.05 164.243 2842.93 164.777C2841.66 170.495 2840.34 176.201 2839.05 181.919C2838.01 186.508 2836.97 191.101 2835.94 195.698C2835.71 196.706 2835.47 197.702 2835.25 198.709C2835.19 199.013 2835.07 199.146 2834.73 199.146C2831.65 199.134 2828.56 199.146 2825.48 199.146C2825.35 199.125 2825.22 199.097 2825.09 199.062Z" fill="#2F70DF"/>
<path d="M2761.69 162.906C2761.46 163.04 2761.18 163.125 2761 163.319C2758.94 165.468 2756.91 167.629 2754.87 169.778C2753.44 171.271 2752 172.74 2750.51 174.294L2745.43 169.838C2746.24 168.964 2747 168.127 2747.77 167.301C2751.01 163.829 2754.24 160.361 2757.48 156.897C2757.65 156.695 2757.87 156.536 2758.11 156.43C2758.35 156.325 2758.62 156.277 2758.88 156.29C2763.56 156.314 2768.23 156.302 2772.91 156.302H2773.6C2773.4 157.249 2773.21 158.135 2773.02 159.009C2772.1 163.137 2771.17 167.269 2770.24 171.404C2769.39 175.168 2768.53 178.919 2767.7 182.671C2766.84 186.531 2766.01 190.392 2765.17 194.252C2764.84 195.746 2764.57 197.251 2764.23 198.756C2764.19 198.914 2763.96 199.145 2763.82 199.145C2760.55 199.157 2757.28 199.145 2754.02 199.145C2753.97 199.116 2753.92 199.084 2753.87 199.048C2756.52 187.102 2759.17 175.123 2761.82 163.113L2761.69 162.906Z" fill="#2F70DF"/>
<path d="M2819.41 156.341C2819.14 157.531 2818.88 158.696 2818.61 159.85C2817.57 164.354 2816.53 168.862 2815.49 173.374C2814.44 177.914 2813.39 182.459 2812.34 187.007L2809.66 198.699C2809.59 199.003 2809.51 199.161 2809.18 199.149C2806.14 199.136 2803.09 199.149 2800.04 199.136C2799.95 199.123 2799.86 199.103 2799.76 199.076C2800.09 197.546 2800.41 196.029 2800.73 194.523C2801.39 191.452 2802.05 188.368 2802.72 185.297C2803.37 182.262 2804.03 179.222 2804.69 176.179C2805.47 172.513 2806.26 168.834 2807.05 165.168C2807.65 162.364 2808.27 159.572 2808.86 156.767C2808.93 156.439 2809.04 156.269 2809.4 156.282H2819.14C2819.23 156.29 2819.32 156.31 2819.41 156.341Z" fill="#2F70DF"/>
<rect x="2736.01" y="199.15" width="127.469" height="255.845" fill="#2F70DF"/>
<path d="M3464.59 303.877C3546.51 283.278 3592.37 281.166 3671.77 303.877V317.863C3593.87 297.107 3548.07 299.809 3464.59 317.863V303.877Z" fill="#2F70DF"/>
<path d="M3472.62 308.749C3551.02 293.674 3592.68 294.411 3663.73 308.749V391.314H3472.62V308.749Z" fill="#2F70DF"/>
<path d="M3568.09 323.781H3583.66C3583.66 323.781 3581.39 319.015 3574.58 319.015C3567.78 319.015 3568.09 323.781 3568.09 323.781Z" fill="#2F70DF"/>
<path d="M3568.09 323.782L3555.5 332.933C3555.5 332.933 3560.13 335.454 3565.64 331.453C3571.15 327.451 3568.09 323.782 3568.09 323.782Z" fill="#2F70DF"/>
<path d="M3568.09 323.78L3555.5 314.629C3555.5 314.629 3554.53 319.818 3560.04 323.82C3565.55 327.822 3568.09 323.78 3568.09 323.78Z" fill="#2F70DF"/>
<path d="M3568.09 323.779L3572.9 308.973C3572.9 308.973 3567.67 309.659 3565.57 316.133C3563.46 322.608 3568.09 323.779 3568.09 323.779Z" fill="#2F70DF"/>
<path d="M3568.09 323.783L3572.9 338.589C3572.9 338.589 3576.73 334.958 3574.63 328.483C3572.53 322.008 3568.09 323.783 3568.09 323.783Z" fill="#2F70DF"/>
<path d="M3180.67 320.726L3533.88 354.638V411.879H3180.67V320.726Z" fill="#2F70DF"/>
<rect x="3617.58" y="369.364" width="282.109" height="40.4009" fill="#2F70DF"/>
<rect x="3164.04" y="261.277" width="29.6923" height="123.537" fill="#2F70DF"/>
<rect x="3160.83" y="249.541" width="36.111" height="17.1048" fill="#2F70DF"/>
<path d="M3164.23 247.306L3165.94 242.267L3167.66 247.306V261.756H3164.23V247.306Z" fill="#2F70DF"/>
<path d="M3190.11 247.306L3191.83 242.267L3193.54 247.306V261.756H3190.11V247.306Z" fill="#2F70DF"/>
<rect x="3232.36" y="261.278" width="29.6923" height="123.537" fill="#2F70DF"/>
<rect x="3229.15" y="249.541" width="36.111" height="17.1048" fill="#2F70DF"/>
<path d="M3232.55 247.307L3234.26 242.268L3235.98 247.307V261.757H3232.55V247.307Z" fill="#2F70DF"/>
<path d="M3258.43 247.307L3260.15 242.268L3261.86 247.307V261.757H3258.43V247.307Z" fill="#2F70DF"/>
<rect x="3693.8" y="261.277" width="29.6923" height="123.537" fill="#2F70DF"/>
<rect x="3690.59" y="249.541" width="36.111" height="17.1048" fill="#2F70DF"/>
<path d="M3693.99 247.306L3695.7 242.267L3697.41 247.306V261.757H3693.99V247.306Z" fill="#2F70DF"/>
<path d="M3719.87 247.306L3721.58 242.267L3723.3 247.306V261.757H3719.87V247.306Z" fill="#2F70DF"/>
<rect x="3760.04" y="261.277" width="29.6923" height="123.537" fill="#2F70DF"/>
<rect x="3756.83" y="249.541" width="36.111" height="17.1048" fill="#2F70DF"/>
<path d="M3760.23 247.306L3761.95 242.267L3763.66 247.306V261.757H3760.23V247.306Z" fill="#2F70DF"/>
<path d="M3786.11 247.306L3787.83 242.267L3789.54 247.306V261.757H3786.11V247.306Z" fill="#2F70DF"/>
</svg>
