<svg width="895" height="119" viewBox="0 0 895 119" fill="none" xmlns="http://www.w3.org/2000/svg">
<rect x="101.349" y="94.1564" width="22.8809" height="10.3616" fill="#C4C4C4"/>
<rect x="115.126" y="97.6103" width="22.8809" height="13.8154" fill="#C4C4C4"/>
<rect x="129.444" y="104.518" width="29.61" height="13.8154" fill="#C4C4C4"/>
<rect x="35.7768" y="48.4888" width="201.091" height="21.4906" fill="white"/>
<rect x="0.838684" y="69.9795" width="7.4301" height="13.8154" fill="white"/>
<rect x="15.2988" y="63.0718" width="7.4301" height="13.8154" fill="white"/>
<rect x="7.86874" y="63.0718" width="7.4301" height="13.8154" fill="white"/>
<rect x="22.0546" y="63.0718" width="7.4301" height="6.9077" fill="white"/>
<rect x="22.7289" y="69.9794" width="192.648" height="6.9077" fill="#0057A8"/>
<rect x="207.702" y="56.164" width="29.1659" height="6.9077" fill="#0057A8"/>
<rect x="223.052" y="63.0717" width="21.4906" height="6.9077" fill="#0057A8"/>
<rect x="229.96" y="69.9794" width="20.7231" height="6.9077" fill="#0057A8"/>
<rect x="8.2688" y="76.8871" width="185.618" height="6.9077" fill="#0057A8"/>
<rect x="8.2688" y="83.7949" width="84.7883" height="6.9077" fill="#0057A8"/>
<rect x="143.998" y="83.7949" width="35.306" height="6.9077" fill="#0057A8"/>
<rect x="151.673" y="90.7026" width="19.9556" height="6.9077" fill="#0057A8"/>
<rect x="21.9614" y="90.7026" width="79.0548" height="6.9077" fill="#0057A8"/>
<rect x="200.794" y="41.5811" width="36.0736" height="6.9077" fill="#0057A8"/>
<rect x="207.702" y="34.6734" width="35.306" height="6.9077" fill="#0057A8"/>
<rect x="215.377" y="27.7657" width="27.6308" height="6.9077" fill="#0057A8"/>
<rect x="223.052" y="20.858" width="27.6308" height="6.9077" fill="#0057A8"/>
<rect x="229.96" y="13.9503" width="20.7231" height="6.9077" fill="#0057A8"/>
<rect x="236.868" y="7.04257" width="13.8154" height="6.9077" fill="#0057A8"/>
<rect x="92.5735" y="83.7949" width="51.424" height="6.90769" fill="white"/>
<rect x="101.016" y="90.7026" width="50.6565" height="6.9077" fill="white"/>
<rect x="115.126" y="97.6103" width="50.6565" height="6.9077" fill="white"/>
<rect x="129.444" y="104.518" width="36.3391" height="6.9077" fill="white"/>
<rect x="143.998" y="111.426" width="21.7562" height="6.9077" fill="white"/>
<rect x="49.976" y="41.5811" width="150.818" height="6.9077" fill="#DEFF57"/>
<rect x="16.489" y="63.0717" width="19.2878" height="6.9077" fill="#87C0EA"/>
<rect x="22.7289" y="63.0717" width="19.2878" height="6.9077" fill="#87C0EA"/>
<rect x="28.8691" y="63.0717" width="7.91897" height="13.1476" transform="rotate(-90 28.8691 63.0717)" fill="#87C0EA"/>
<rect x="50.6629" y="55.002" width="8.06976" height="8.06976" fill="#0057A8"/>
<rect x="65.8153" y="55.002" width="8.06976" height="8.06976" fill="#0057A8"/>
<rect x="80.9676" y="55.002" width="8.06976" height="8.06976" fill="#0057A8"/>
<rect x="96.12" y="55.002" width="8.06976" height="8.06976" fill="#0057A8"/>
<rect x="111.272" y="55.002" width="8.06976" height="8.06976" fill="#0057A8"/>
<rect x="126.425" y="55.002" width="8.06976" height="8.06976" fill="#0057A8"/>
<rect x="141.577" y="55.002" width="8.06976" height="8.06976" fill="#0057A8"/>
<rect x="156.729" y="55.002" width="8.06976" height="8.06976" fill="#0057A8"/>
<rect x="171.882" y="55.002" width="8.06976" height="8.06976" fill="#0057A8"/>
<rect x="187.034" y="55.002" width="8.06976" height="8.06976" fill="#0057A8"/>
<rect x="58.7327" y="97.6103" width="11.1175" height="6.9077" fill="#C4C4C4"/>
<rect x="51.9999" y="101.064" width="13.8154" height="13.8154" fill="#010101"/>
<rect x="250.683" y="13.9503" width="7.67523" height="6.9077" fill="white"/>
<rect x="200.794" y="34.6734" width="6.9077" height="6.9077" fill="white"/>
<rect x="207.702" y="27.7657" width="7.67523" height="6.9077" fill="white"/>
<rect x="215.377" y="20.858" width="7.67523" height="6.9077" fill="white"/>
<rect x="223.052" y="13.9503" width="7.67523" height="6.9077" fill="white"/>
<rect x="230.728" y="7.04257" width="7.67523" height="6.9077" fill="white"/>
<rect x="250.683" y="7.04257" width="7.67523" height="6.9077" fill="white"/>
<rect x="250.683" y="20.858" width="7.67523" height="6.9077" fill="white"/>
<rect x="243.008" y="27.7657" width="7.67523" height="6.9077" fill="white"/>
<rect x="243.008" y="34.6734" width="7.67523" height="6.9077" fill="white"/>
<rect x="235.333" y="41.5811" width="7.67523" height="6.9077" fill="white"/>
<rect x="238.403" y="0.134888" width="19.9556" height="6.9077" fill="white"/>
<path opacity="0.2" d="M878.339 26.3848V41.8477H895V93.9094H878.339V109.372H490.058V93.9094H473.396V41.8477H490.058V26.3848H878.339Z" fill="white"/>
<rect x="234.565" y="63.0718" width="238.831" height="2.56249" fill="#0057A8"/>
<rect x="240.322" y="68.035" width="242.123" height="2.56249" fill="#0057A8"/>
</svg>
