<svg width="132" height="283" viewBox="0 0 132 283" fill="none" xmlns="http://www.w3.org/2000/svg">
<path d="M55.981 18.8447C55.981 18.8447 77.1826 18.7674 88.6293 17.767L87.3026 0.184853C73.3184 -0.669567 55.981 18.8447 55.981 18.8447Z" fill="#A53D3C"/>
<path d="M79.9654 18.3041C79.9654 18.3041 80.8198 4.38863 80.5794 4.38433C72.3057 4.24265 67.806 9.85864 64.0835 18.6991L79.9654 18.3041Z" fill="url(#paint0_linear_126_15631)"/>
<path d="M105.061 268.28L106.242 261.268H86.3071L85.1264 268.28L83.1299 280.151H117.74V278.795L105.061 268.28Z" fill="#2C2C2C"/>
<path d="M116.606 278.331H84.7304C83.4784 278.331 82.4634 279.346 82.4634 280.598C82.4634 281.85 83.4784 282.865 84.7304 282.865H116.606C117.858 282.865 118.873 281.85 118.873 280.598C118.873 279.346 117.858 278.331 116.606 278.331Z" fill="white"/>
<path d="M76.8471 268.28L78.0278 261.268H58.0971L56.9163 268.28L54.9155 280.151H89.526V278.795L76.8471 268.28Z" fill="#2C2C2C"/>
<path d="M88.3939 278.331H56.5185C55.2664 278.331 54.2515 279.346 54.2515 280.598C54.2515 281.85 55.2664 282.865 56.5185 282.865H88.3939C89.646 282.865 90.661 281.85 90.661 280.598C90.661 279.346 89.646 278.331 88.3939 278.331Z" fill="white"/>
<path d="M109.268 66.694C119.277 64.0449 124.098 124.08 121.183 137.051C118.268 150.022 112.553 145.836 109.268 140.349C105.984 134.862 99.26 69.3431 109.268 66.694Z" fill="url(#paint1_linear_126_15631)"/>
<path d="M120.879 152.333L127.441 170.642C128.112 172.515 127.137 174.58 125.263 175.252L117.17 178.152C115.296 178.824 113.231 177.849 112.56 175.975L107.214 161.06C106.543 159.187 107.518 157.122 109.392 156.45L120.879 152.333Z" fill="white"/>
<path d="M119.372 148.53L123.792 160.863C124.35 162.421 123.541 164.141 121.979 164.701L112.875 167.964C111.317 168.523 109.597 167.714 109.037 166.151L104.617 153.818L119.367 148.531L119.372 148.53Z" fill="white"/>
<path d="M120.886 152.323L128.611 155.972C130.411 156.822 131.181 158.972 130.331 160.772L129.852 161.787C129.002 163.587 126.852 164.357 125.052 163.507L117.327 159.858L120.884 152.327L120.886 152.323Z" fill="white"/>
<path d="M107.031 256.799H83.8245L90.9733 200.467L83.1934 166.367L115.185 165.448L117.065 200.467L107.031 256.799Z" fill="#A53D3C"/>
<path d="M109.83 164.525L106.52 197.668L94.876 255.395L83.8243 256.799L90.9731 200.467L81.0464 164.319L109.83 164.525Z" fill="url(#paint2_linear_126_15631)"/>
<path d="M51.1335 157.879C47.5098 173.336 17.9313 181.494 3.76256 145.694C-12.4242 104.806 42.8985 51.7978 55.981 50.8017C69.0635 49.8056 54.7573 142.422 51.1335 157.879Z" fill="#2C2C2C"/>
<path d="M80.8878 260.448L55.3363 259.334L61.3821 202.962C55.9937 193.43 52.3098 181.717 51.9878 169.098H98.9423L92.0125 204.774L80.8878 260.448Z" fill="#A53D3C"/>
<path d="M109.333 64.7083C113.055 68.8602 114.142 79.212 112.48 89.5166C111.325 96.6739 130.324 109.25 116.391 164.525C116.391 164.534 51.1291 164.521 51.1291 164.512V109.361C59.3986 91.2082 60.9743 74.1842 47.5054 59.6977C47.5054 59.6977 57.9989 53.9744 77.2384 53.9744C98.1395 53.9744 105.61 60.5564 109.333 64.7083Z" fill="#A53D3C"/>
<path d="M51.1339 163.748C87.9556 167.565 94.2499 116.167 82.3353 84.7463C78.7974 75.4164 48.6565 62.1321 48.6565 62.1321C44.4531 98.855 38.5752 136.531 51.1382 163.748H51.1339Z" fill="url(#paint3_linear_126_15631)"/>
<path d="M49.8839 165.711C86.7056 169.528 92.9999 118.13 81.0853 86.7092C77.5474 77.3793 47.4065 64.095 47.4065 64.095C43.2031 100.818 37.3252 138.494 49.8882 165.711H49.8839Z" fill="url(#paint4_linear_126_15631)"/>
<path d="M84.6236 0.210412C98.8826 -0.553844 107.208 16.8351 109.608 26.6631L65.5859 29.0246C65.5859 29.0246 70.3647 0.974668 84.6236 0.210412Z" fill="#A53D3C"/>
<path d="M107.238 55.6235L107.693 38.9215C98.7664 33.8465 84.6277 34.5163 74.1084 38.5952L74.4347 55.0095C74.4347 63.3477 83.8033 70.724 92.1414 70.724C100.48 70.724 107.242 63.9659 107.242 55.6235H107.238Z" fill="#E2BDA1"/>
<path d="M107.418 49.05L107.237 55.6192C107.237 55.9112 107.229 56.2031 107.212 56.4951C106.254 56.7355 105.327 56.5939 104.657 56.0228C103.339 54.8936 103.532 52.4978 105.091 50.673C105.769 49.883 106.593 49.3291 107.418 49.05Z" fill="#C38074"/>
<path d="M94.8378 50.3981H97.3581C98.0107 50.3981 98.337 51.1881 97.8776 51.6475L96.684 52.8411C96.4092 53.1159 95.967 53.1288 95.675 52.8669L94.3483 51.6733C93.8503 51.2225 94.1637 50.3938 94.8378 50.3938V50.3981Z" fill="#D1AD95"/>
<path d="M104.163 47.3411C105.427 47.3411 106.451 46.3165 106.451 45.0526C106.451 43.7887 105.427 42.7642 104.163 42.7642C102.899 42.7642 101.875 43.7887 101.875 45.0526C101.875 46.3165 102.899 47.3411 104.163 47.3411Z" fill="#65523D"/>
<path d="M85.9115 46.9549C87.1754 46.9549 88.2 45.9303 88.2 44.6664C88.2 43.4025 87.1754 42.3779 85.9115 42.3779C84.6476 42.3779 83.623 43.4025 83.623 44.6664C83.623 45.9303 84.6476 46.9549 85.9115 46.9549Z" fill="#65523D"/>
<path fill-rule="evenodd" clip-rule="evenodd" d="M95.4883 47.0577V39.8745H96.7034V47.0577H95.4883Z" fill="#D1AD95"/>
<path d="M83.5816 57.2718C84.9019 56.1414 84.707 53.7473 83.1463 51.9244C81.5856 50.1015 79.25 49.5402 77.9297 50.6707C76.6094 51.8011 76.8043 54.1953 78.365 56.0181C79.9257 57.841 82.2613 58.4023 83.5816 57.2718Z" fill="#C38074"/>
<path d="M108.676 34.2717C108.676 34.2717 101.235 38.2776 103.142 40.0938C105.048 41.91 109.659 37.7066 110.024 35.2292C110.389 32.7518 108.676 34.276 108.676 34.276V34.2717Z" fill="white"/>
<path d="M97.6545 33.344C97.6545 33.344 90.2137 37.3499 92.12 39.1661C94.0264 40.9823 98.6377 36.7788 99.0026 34.3015C99.3676 31.8241 97.6545 33.3483 97.6545 33.3483V33.344Z" fill="white"/>
<path d="M109.023 35.9719C109.023 35.9719 110.947 41.721 109.023 42.3263C107.1 42.9317 105.086 37.7837 105.567 36.4484C106.048 35.1131 109.023 35.9719 109.023 35.9719Z" fill="white"/>
<path d="M78.0534 34.4729C78.0534 34.4729 83.253 37.59 82.1882 39.3032C81.1233 41.0163 76.2416 38.4144 75.7392 37.0834C75.2369 35.7524 78.0534 34.4729 78.0534 34.4729Z" fill="white"/>
<path d="M75.9419 37.2301C75.9419 37.2301 80.2355 39.7118 79.9478 41.236C79.6601 42.7602 75.8432 40.7337 75.5598 39.1751C74.89 41.7641 79.9478 44.6709 78.9002 46.2938C78.9002 46.2938 76.7749 48.9644 75.4997 46.8649C74.2245 44.7653 73.237 58.5992 79.1878 58.5992C85.8686 58.5992 89.5869 53.9707 96.1002 53.9707C101.948 53.9707 103.232 57.7405 106.761 57.7405L107.487 57.2639C111.518 56.5254 112.678 68.2383 107.242 77.1088C106.765 73.7684 103.331 73.7684 103.331 73.7684C103.331 73.7684 106.001 84.1674 98.1483 97.0481C97.0835 85.4083 91.0123 74.816 91.0123 74.816C91.0123 74.816 86.9206 85.4555 84.6278 85.7389C86.6329 75.0522 69.4586 66.9845 65.5944 57.2596C61.7302 47.5347 62.1424 44.0311 64.0187 38.3679C65.4956 33.9069 74.2975 36.921 75.9462 37.2215L75.9419 37.2301Z" fill="white"/>
<path d="M89.3506 57.2681H101.944C101.944 59.7025 99.0455 62.1327 96.2203 62.1327C93.3951 62.1327 89.3506 59.6982 89.3506 57.2681Z" fill="#C38074"/>
<path d="M67.2173 39.4455C67.3418 39.4198 67.4534 39.3425 67.5779 39.3167C67.7024 39.291 67.8527 39.394 67.9729 39.3683C68.0931 39.3425 68.2434 39.4284 68.3636 39.4026C68.4839 39.3768 68.5611 39.0892 68.6814 39.0634C68.8016 39.0377 69.0291 39.54 69.1536 39.5185C69.2782 39.4971 69.3039 38.9475 69.4241 38.926C69.5444 38.9046 69.6732 38.8702 69.7934 38.8487C69.9136 38.8273 70.1455 39.3683 70.27 39.3468C70.3945 39.3253 70.4203 38.7586 70.5448 38.7371C70.6693 38.7156 70.8539 39.0419 70.9784 39.0205C71.1029 38.999 71.3133 39.4799 71.4378 39.4584C71.5623 39.437 71.6267 39.0677 71.7513 39.0462C71.8758 39.0248 72.0475 39.2996 72.172 39.2781C72.2965 39.2566 72.3051 38.5439 72.4296 38.5224C72.5542 38.501 72.7173 38.707 72.8375 38.6856C72.9578 38.6641 73.1252 38.8917 73.2497 38.8745C73.3742 38.8573 73.4343 38.4108 73.5589 38.3936C73.6834 38.3764 73.7993 38.2906 73.9238 38.2734C74.0483 38.2562 74.2845 38.969 74.409 38.9518C74.5335 38.9346 74.5335 38.0802 74.6623 38.063C74.7911 38.0458 74.9285 38.1403 75.053 38.1231C75.1775 38.1059 75.3192 38.209 75.4437 38.1918C75.5682 38.1746 75.7013 38.2004 75.8259 38.1832C75.9504 38.1661 76.1049 38.3807 76.2338 38.3636C76.3626 38.3464 76.427 37.887 76.5515 37.8698C76.676 37.8526 76.8091 37.8741 76.9336 37.8612C77.0581 37.8483 77.2771 38.5782 77.4016 38.5654C77.5261 38.5525 77.5476 37.6981 77.6721 37.6809C77.7966 37.6637 77.9726 38.063 78.0972 38.0458C78.2217 38.0287 78.3591 38.1102 78.4836 38.0974C78.6081 38.0845 78.7068 37.8269 78.8314 37.814C78.9559 37.8011 79.1405 38.3163 79.265 38.2992C79.3895 38.282 79.5226 38.3378 79.6471 38.3206C79.7717 38.3034 79.8489 37.8397 79.9735 37.8269C80.098 37.814 80.2654 38.2133 80.3899 38.2004C80.5144 38.1875 80.6132 37.9256 80.742 37.9127C80.8708 37.8999 80.9739 37.6938 81.0984 37.6852C81.2229 37.6766 81.356 37.7367 81.4805 37.7281C81.605 37.7195 81.7209 37.5864 81.8455 37.5778C81.97 37.5693 82.1202 37.8355 82.2448 37.8269C82.3693 37.8183 82.4637 37.419 82.5882 37.4061C82.7128 37.3932 82.8416 37.4276 82.9704 37.4147C83.0992 37.4018 83.2366 37.5907 83.3611 37.5778C83.4856 37.565 83.5929 37.2902 83.7217 37.2816C83.8505 37.273 83.9836 37.376 84.1082 37.3675C84.2327 37.3589 84.3915 37.8097 84.516 37.8011C84.6406 37.7925 84.7221 37.0841 84.851 37.0755C84.9798 37.0669 85.1214 37.346 85.246 37.3374C85.3705 37.3288 85.4864 37.1227 85.6152 37.1184C85.744 37.1141 85.8685 37.1442 85.9973 37.1356C86.1261 37.127 86.2764 37.6465 86.4009 37.6379C86.5254 37.6294 86.6242 37.0068 86.7487 37.0025C86.8732 36.9982 87.0278 37.6465 87.1566 37.6422C87.2854 37.6379 87.3842 36.9982 87.5087 36.9939C87.6332 36.9896 87.7749 37.3675 87.8994 37.3632C88.0239 37.3589 88.1613 37.7367 88.2901 37.7324C88.4189 37.7281 88.5391 37.595 88.6636 37.5907C88.7882 37.5864 88.9127 37.5521 89.0415 37.5521C89.1703 37.5521 89.2862 37.2172 89.4107 37.2172C89.5352 37.2172 89.6598 37.127 89.7886 37.127C89.9174 37.127 90.0462 37.6251 90.175 37.6251C90.3038 37.6251 90.424 37.346 90.5485 37.3417C90.673 37.3374 90.7975 37.0411 90.9264 37.0368C91.0552 37.0326 91.1797 37.1614 91.3042 37.1614C91.4287 37.1614 91.5575 37.2429 91.682 37.2429C91.8065 37.2429 91.9353 37.3846 92.0599 37.3846C92.1844 37.3846 92.3132 37.0068 92.442 37.0068C92.5708 37.0068 92.6867 37.668 92.8112 37.668C92.9357 37.668 93.0731 36.9553 93.1977 36.9553C93.3222 36.9553 93.451 36.9553 93.5755 36.9596C93.7 36.9639 93.8159 37.5821 93.9404 37.5864C94.065 37.5907 94.1938 37.4791 94.3226 37.4834C94.4514 37.4877 94.5759 37.4834 94.7004 37.492C94.8249 37.5006 94.9494 37.6208 95.0739 37.6251C95.1985 37.6294 95.353 36.9252 95.4775 36.9295C95.6021 36.9338 95.7137 37.3331 95.8382 37.3374C95.9627 37.3417 96.0701 37.7152 96.1989 37.7238C96.3277 37.7324 96.4822 37.1485 96.6067 37.1528C96.7313 37.1571 96.8472 37.4104 96.9717 37.419C97.0962 37.4276 97.2465 37.0884 97.371 37.097C97.4955 37.1055 97.6243 37.1098 97.7488 37.1184C97.8734 37.127 97.9721 37.5607 98.0966 37.5693C98.2211 37.5778 98.3886 37.054 98.5131 37.0669C98.6376 37.0798 98.7578 37.2172 98.8823 37.2258C99.0069 37.2344 99.0927 37.7281 99.2215 37.7367C99.3503 37.7453 99.4834 37.6251 99.608 37.6379C99.7325 37.6508 99.8398 37.8526 99.9643 37.8655C100.089 37.8784 100.2 38.0458 100.325 38.0587C100.449 38.0716 100.621 37.6379 100.746 37.6508C100.87 37.6637 100.99 37.7324 101.115 37.7453C101.24 37.7582 101.39 37.5607 101.514 37.5778C101.639 37.595 101.789 37.3932 101.914 37.4104C102.038 37.4276 102.12 37.7968 102.244 37.814C102.369 37.8312 102.498 37.8183 102.622 37.8355C102.747 37.8526 102.867 37.9127 102.991 37.9299C103.116 37.9471 103.27 37.7539 103.395 37.771C103.519 37.7882 103.558 38.4237 103.683 38.4408C103.807 38.458 103.923 38.5181 104.048 38.5353C104.172 38.5525 104.309 38.4838 104.434 38.5052C104.558 38.5267 104.679 38.5482 104.803 38.5697C104.928 38.5911 105.056 38.5654 105.181 38.5868C105.306 38.6083 105.469 38.3979 105.589 38.4194C105.709 38.4408 105.885 38.1832 106.01 38.2047C106.134 38.2262 106.186 38.6341 106.31 38.6555C106.435 38.677 106.671 38.0974 106.795 38.1231C106.92 38.1489 107.04 38.2004 107.16 38.2219C107.281 38.2433 107.362 38.501 107.482 38.5267C107.603 38.5525 107.774 38.3679 107.895 38.3936C108.015 38.4194 107.993 39.1106 108.118 39.1364C108.242 39.1622 108.496 38.5954 108.616 38.6255C108.736 38.6555 108.788 39.0505 108.912 39.0548C109.037 39.0591 109.131 38.5697 109.251 38.5568C109.372 38.5439 109.642 39.3425 109.762 39.3124C109.882 39.2824 110.059 39.2008 110.17 39.1493C110.282 39.0978 110.089 38.458 110.192 38.3893C110.295 38.3206 110.479 38.4022 110.574 38.3163C110.668 38.2305 110.505 37.9728 110.578 37.8741C110.651 37.7753 110.784 37.7796 110.844 37.668C110.904 37.5564 111.239 37.5778 111.274 37.4576C111.308 37.3374 111.256 37.2 111.274 37.0712C111.291 36.9424 111.531 36.8093 111.523 36.6848C111.51 36.5002 111.067 36.5302 111.055 36.3456C111.042 36.161 111.372 36.1352 111.359 35.9506C111.347 35.766 111.368 35.7617 111.355 35.577C111.342 35.3924 111.003 35.4182 110.986 35.2293C110.969 35.0403 111.149 35.0317 111.136 34.8428C111.123 34.6539 110.694 34.6883 110.681 34.5036C110.668 34.319 110.698 34.3147 110.681 34.1301C110.664 33.9455 111.226 33.9025 111.213 33.7179C111.201 33.5333 111.016 33.5462 111.003 33.3616C110.99 33.1769 110.831 33.1855 110.814 33.0009C110.797 32.8163 111.39 32.7733 111.377 32.5844C111.364 32.3955 110.548 32.4599 110.535 32.2753C110.522 32.0907 111.012 32.052 110.999 31.8674C110.986 31.6828 110.471 31.7214 110.458 31.5368C110.445 31.3522 111.025 31.3092 111.012 31.1246C110.999 30.94 110.479 30.9786 110.466 30.794C110.454 30.6094 111.171 30.5536 111.153 30.3689C111.136 30.1843 111.115 30.1843 111.102 29.9997C111.089 29.8151 110.548 29.8537 110.531 29.6691C110.514 29.4845 110.363 29.493 110.35 29.3084C110.338 29.1238 110.836 29.0852 110.823 28.9005C110.81 28.7159 110.758 28.7202 110.745 28.5313C110.733 28.3424 110.441 28.3681 110.428 28.1835C110.415 27.9989 110.728 27.9731 110.715 27.7885C110.703 27.6039 110.733 27.5996 110.72 27.4107C110.707 27.2217 110.866 27.2132 110.853 27.0242C110.84 26.8353 110.651 26.8525 110.638 26.6636C110.63 26.5391 110.106 26.5305 110.076 26.4146C110.046 26.2986 110.132 26.2042 110.076 26.0925C110.02 25.9809 109.882 25.9981 109.814 25.895C109.745 25.792 110.157 25.3283 110.071 25.2381C109.986 25.1479 109.848 25.0835 109.749 25.0106C109.651 24.9376 109.608 24.6971 109.496 24.6456C109.384 24.5941 109.144 24.8002 109.028 24.7444C108.912 24.6885 108.663 24.9504 108.547 24.8989C108.431 24.8474 108.345 24.7486 108.229 24.6971C108.114 24.6456 108.096 24.3665 107.98 24.3193C107.864 24.2721 107.736 24.2549 107.62 24.2077C107.504 24.1604 107.414 24.0445 107.293 24.0016C107.173 23.9586 106.993 24.0917 106.873 24.0488C106.752 24.0059 106.533 24.2549 106.418 24.2119C106.302 24.169 106.469 23.2931 106.349 23.2545C106.229 23.2158 105.877 23.8813 105.756 23.8427C105.636 23.8041 105.542 23.7053 105.421 23.6667C105.301 23.628 105.224 23.4563 105.104 23.4219C104.984 23.3876 105.001 22.8895 104.876 22.8552C104.752 22.8208 104.584 22.9496 104.464 22.9153C104.344 22.8809 104.279 22.6233 104.159 22.589C104.039 22.5546 103.91 22.5332 103.79 22.4988C103.67 22.4645 103.378 23.0913 103.253 23.0613C103.129 23.0312 103.154 22.4172 103.03 22.3872C102.905 22.3571 102.686 22.735 102.562 22.7049C102.437 22.6748 102.244 22.9711 102.12 22.9411C101.995 22.911 101.926 22.662 101.806 22.6362C101.686 22.6104 101.519 22.7994 101.394 22.7736C101.27 22.7478 101.205 22.4516 101.085 22.4258C100.965 22.4001 100.784 22.6748 100.66 22.6491C100.535 22.6233 100.454 22.4129 100.329 22.3915C100.205 22.37 100.067 22.4387 99.9429 22.4172C99.8183 22.3958 99.7239 22.2154 99.5994 22.194C99.4749 22.1725 99.4233 21.7131 99.3031 21.6916C99.1829 21.6702 99.0412 21.7389 98.9167 21.7174C98.7922 21.6959 98.672 21.6401 98.5474 21.6186C98.4229 21.5972 98.2469 21.9192 98.1224 21.902C97.9979 21.8848 97.9421 21.3696 97.8175 21.3524C97.693 21.3353 97.4698 22.0566 97.3452 22.0394C97.2207 22.0222 97.122 21.829 96.9932 21.8118C96.8644 21.7947 96.8042 21.2623 96.6797 21.2494C96.5552 21.2365 96.4007 21.4512 96.2761 21.4383C96.1516 21.4254 96.0486 21.1678 95.9241 21.1549C95.7996 21.142 95.645 21.3997 95.5205 21.3868C95.396 21.3739 95.2929 21.0862 95.1684 21.0733C95.0439 21.0605 94.8764 21.5113 94.7519 21.5027C94.6274 21.4941 94.4986 21.5199 94.3741 21.5113C94.2496 21.5027 94.1208 21.5199 93.9963 21.5113C93.8717 21.5027 93.7601 21.3052 93.6313 21.2966C93.5025 21.288 93.3823 21.2236 93.2578 21.2193C93.1332 21.215 92.9873 21.5671 92.8585 21.5628C92.7297 21.5585 92.6051 21.5929 92.4806 21.5886C92.3561 21.5843 92.2617 20.8071 92.1371 20.8029C92.0126 20.7986 91.8795 20.8243 91.755 20.82C91.6305 20.8157 91.4759 21.6186 91.3514 21.6143C91.2269 21.61 91.111 21.288 90.9822 21.2837C90.8534 21.2794 90.7289 21.4254 90.6 21.4254C90.4712 21.4254 90.351 21.3868 90.2222 21.3868C90.0934 21.3868 89.9689 21.5671 89.8444 21.5628C89.7199 21.5585 89.5953 20.8114 89.4708 20.8114C89.3463 20.8114 89.2175 20.9231 89.0887 20.9231C88.9599 20.9231 88.8397 21.3181 88.7109 21.3181C88.5821 21.3181 88.4661 21.6401 88.3373 21.6444C88.2085 21.6487 88.0883 21.6015 87.9595 21.6058C87.8307 21.61 87.7019 21.2794 87.5731 21.2837C87.4443 21.288 87.3069 20.8673 87.1824 20.8715C87.0578 20.8758 86.9376 21.0991 86.8088 21.1034C86.68 21.1077 86.5426 20.8071 86.4181 20.8157C86.2936 20.8243 86.1905 21.3782 86.066 21.3825C85.9415 21.3868 85.8342 21.7474 85.7097 21.756C85.5852 21.7646 85.4349 21.361 85.3104 21.3653C85.1858 21.3696 85.0656 21.4555 84.9368 21.4641C84.808 21.4726 84.6749 21.331 84.5504 21.3438C84.4259 21.3567 84.3143 21.5542 84.1897 21.5671C84.0652 21.58 83.8978 21.1292 83.7733 21.142C83.6487 21.1549 83.5758 21.7775 83.4512 21.7904C83.3267 21.8033 83.1765 21.5628 83.0519 21.5757C82.9274 21.5886 82.8201 21.7861 82.6956 21.799C82.5711 21.8118 82.3736 21.1764 82.249 21.1936C82.1245 21.2107 82.0172 21.404 81.8927 21.4168C81.7682 21.4297 81.6308 21.3653 81.5063 21.3825C81.3817 21.3997 81.3345 22.0437 81.21 22.0566C81.0855 22.0695 80.888 21.5499 80.7635 21.5671C80.639 21.5843 80.5617 21.9664 80.4372 21.9836C80.3126 22.0008 80.1366 21.6787 80.0121 21.6959C79.8876 21.7131 79.8189 22.1167 79.6944 22.1339C79.5699 22.151 79.3466 21.5542 79.2221 21.5757C79.0976 21.5972 78.9602 21.5757 78.8357 21.5929C78.7111 21.61 78.6167 21.829 78.4922 21.8548C78.3677 21.8805 78.2947 22.1983 78.1701 22.2197C78.0456 22.2412 77.8782 22.0308 77.7537 22.0566C77.6292 22.0823 77.5862 22.5289 77.466 22.5546C77.3458 22.5804 77.1612 22.3142 77.0366 22.34C76.9121 22.3657 76.779 22.3485 76.6545 22.3743C76.53 22.4001 76.4227 22.4988 76.2982 22.5289C76.1736 22.5589 75.959 22.1854 75.8387 22.2111C75.7185 22.2369 75.6713 22.619 75.5511 22.6491C75.4309 22.6791 75.3192 22.7736 75.199 22.8037C75.0788 22.8337 74.9886 23.0055 74.8684 23.0355C74.7482 23.0656 74.5292 22.7393 74.409 22.7693C74.2888 22.7994 74.2716 23.2373 74.1514 23.2717C74.0311 23.306 73.868 23.1901 73.7478 23.2244C73.6276 23.2588 73.4859 23.2244 73.3614 23.2588C73.2368 23.2931 73.2111 23.6452 73.0909 23.6795C72.9706 23.7139 72.8504 23.7439 72.7259 23.7826C72.6014 23.8212 72.4339 23.6967 72.3137 23.7354C72.1935 23.774 72.1162 23.9457 71.996 23.9887C71.8758 24.0316 71.7556 24.0531 71.6353 24.096C71.5151 24.139 71.3949 24.1733 71.279 24.2162C71.163 24.2592 70.8324 23.7096 70.7122 23.7525C70.592 23.7955 70.7552 24.6155 70.6392 24.6585C70.5233 24.7014 70.3387 24.5726 70.2228 24.6155C70.1068 24.6585 69.8535 24.3536 69.7333 24.4009C69.6131 24.4481 69.6259 24.813 69.51 24.8603C69.3941 24.9075 69.1322 24.607 69.0163 24.6542C68.9003 24.7014 68.793 24.7744 68.6771 24.8259C68.5611 24.8775 68.3679 24.7529 68.252 24.8002C68.1361 24.8474 68.2563 25.4313 68.1447 25.4871C68.033 25.543 67.8742 25.5 67.7625 25.5515C67.6509 25.6031 67.5693 25.7276 67.4577 25.7834C67.3461 25.8392 66.9811 25.3841 66.8695 25.4399C66.7578 25.4957 66.9983 26.2514 66.8866 26.3115C66.775 26.3716 66.5174 26.1398 66.4058 26.1999C66.2941 26.26 66.0408 26.0539 65.9335 26.114C65.8261 26.1741 65.7317 26.2729 65.6243 26.3373C65.517 26.4017 65.3925 26.479 65.298 26.5562C65.2036 26.6335 65.4397 27.0371 65.3581 27.1316C65.2766 27.226 65.341 27.342 65.2766 27.4493C65.2122 27.5566 64.5896 27.3634 64.5466 27.4837C64.5037 27.6039 65.0104 27.8529 64.9846 27.9774C64.9588 28.1019 64.3191 28.1534 64.3191 28.2823C64.3191 28.4712 64.5381 28.4712 64.5381 28.6601C64.5381 28.849 64.1216 28.849 64.1216 29.0379C64.1216 29.2268 64.5982 29.2268 64.5982 29.4158C64.5982 29.6047 64.684 29.6047 64.684 29.7936C64.684 29.9825 64.8257 29.9825 64.8257 30.1714C64.8257 30.3603 64.4694 30.3603 64.4694 30.5493C64.4694 30.7382 64.1688 30.7382 64.1688 30.9271C64.1688 31.116 64.508 31.116 64.508 31.3049C64.508 31.4938 64.1302 31.4938 64.1302 31.6828C64.1302 31.8717 64.2117 31.8717 64.2117 32.0606C64.2117 32.2495 64.3491 32.2495 64.3491 32.4384C64.3491 32.6273 65.0146 32.6273 65.0146 32.8163C65.0146 33.0052 64.7527 33.0052 64.7527 33.1941C64.7527 33.383 64.7957 33.383 64.7957 33.5719C64.7957 33.7609 64.5123 33.7609 64.5123 33.9498C64.5123 34.1387 64.3577 34.1387 64.3577 34.3276C64.3577 34.5165 64.4694 34.5165 64.4694 34.7054C64.4694 34.8944 64.6797 34.8944 64.6797 35.0833C64.6797 35.2722 64.2246 35.2722 64.2246 35.4611C64.2246 35.65 64.3964 35.65 64.3964 35.8389C64.3964 36.0279 64.6583 36.0279 64.6583 36.2168C64.6583 36.4057 65.0018 36.4057 65.0018 36.5946C65.0018 36.7835 64.3277 36.7835 64.3277 36.9724C64.3277 37.1614 64.3749 37.1614 64.3749 37.3546C64.3749 37.5478 64.2504 37.5435 64.2504 37.7367C64.2504 37.8698 64.9374 37.9342 64.9631 38.0587C64.9889 38.1832 65.0018 38.2476 65.049 38.3679C65.0962 38.4881 65.0705 38.5825 65.1392 38.6942C65.2079 38.8058 64.7227 39.3683 64.8086 39.4627C64.8944 39.5572 65.3624 39.2867 65.4655 39.364C65.5685 39.4412 65.6673 39.5099 65.7832 39.5701C65.8991 39.6302 66.0322 39.6087 66.1567 39.6473C66.2813 39.686 66.3156 40.2441 66.4487 40.2613C66.5818 40.2785 66.7621 39.905 66.8909 39.9007C67.0197 39.8964 67.0756 39.5099 67.2044 39.4842L67.2173 39.4455Z" fill="white"/>
<path d="M96.0956 54.4768C98.0878 57.8387 87.4139 62.1323 84.6231 59.3414C81.8323 56.5506 83.4081 53.9745 83.4081 53.9745C83.4081 53.9745 84.6231 56.4089 86.4865 56.4089C88.4873 56.4089 93.8157 50.6255 96.0999 54.4768H96.0956Z" fill="white"/>
<path d="M96.3438 54.4768C94.3515 57.8387 105.025 62.1323 107.816 59.3414C110.607 56.5506 109.031 53.9745 109.031 53.9745C109.031 53.9745 107.816 56.4089 105.953 56.4089C103.952 56.4089 98.6237 50.6255 96.3395 54.4768H96.3438Z" fill="white"/>
<path d="M62.1852 18.8445C62.1852 18.9562 61.9577 19.0378 61.9491 19.1494C61.9405 19.261 61.8976 19.3383 61.889 19.4499C61.8804 19.5616 61.9061 19.6474 61.889 19.7548C61.8718 19.8621 62.9409 20.167 62.9194 20.2743C62.898 20.3816 62.2024 20.3473 62.1723 20.4546C62.1423 20.562 62.2453 20.7037 62.211 20.8067C62.1766 20.9098 62.4343 21.1287 62.3956 21.2275C62.357 21.3262 61.4725 21.0901 61.4296 21.1888C61.3866 21.2876 61.9319 21.6482 61.8847 21.747C61.8374 21.8458 61.7945 21.9531 61.743 22.0518C61.6915 22.1506 61.451 22.1334 61.3909 22.2279C61.3308 22.3223 61.0174 22.2279 60.9573 22.318C60.8971 22.4082 60.8413 22.4769 60.7726 22.5628C60.7039 22.6487 61.2578 23.2412 61.1848 23.3227C61.1118 23.4043 60.7383 23.2283 60.661 23.3056C60.5837 23.3829 60.5451 23.4988 60.4635 23.5761C60.3819 23.6533 60.1758 23.5761 60.09 23.6491C60.0041 23.722 59.8238 23.6491 59.7379 23.7178C59.652 23.7864 59.4459 23.6491 59.3558 23.7178C59.2656 23.7864 59.3858 24.1299 59.2956 24.1858C59.2055 24.2416 59.3944 24.7911 59.2956 24.8427C59.1969 24.8942 58.686 24.1385 58.5872 24.1858C58.4885 24.233 58.8191 25.2162 58.7203 25.2591C58.6216 25.3021 58.3038 24.8384 58.2008 24.877C58.0977 24.9157 58.0119 24.9972 57.9088 25.0273C57.8058 25.0573 57.5396 24.4691 57.4322 24.4992C57.3249 24.5292 57.2777 24.6709 57.1703 24.6924C57.063 24.7139 56.9728 24.6623 56.8612 24.6795C56.7496 24.6967 56.7796 25.7744 56.6723 25.783C56.5649 25.7915 56.4232 25.71 56.3159 25.7143C56.2086 25.7186 56.0755 24.7997 55.9681 24.7997C55.8608 24.7997 55.7792 24.7439 55.6676 24.7396C55.5559 24.7353 55.4228 25.2892 55.3112 25.2763C55.1996 25.2634 55.0536 25.5253 54.9463 25.5082C54.8389 25.491 54.7659 25.2334 54.6586 25.2119C54.5513 25.1904 54.6114 24.5121 54.5083 24.4863C54.4053 24.4605 54.0274 25.4008 53.9244 25.3665C53.8213 25.3321 53.8471 24.8899 53.7441 24.8513C53.641 24.8126 53.3104 25.3107 53.2117 25.2677C53.1129 25.2248 53.0571 25.023 52.9583 24.9758C52.8596 24.9285 53.2331 23.9968 53.1344 23.9453C53.0356 23.8938 52.9326 23.9153 52.8424 23.8594C52.7522 23.8036 52.602 23.868 52.5161 23.8079C52.4302 23.7478 52.31 23.7521 52.2241 23.6834C52.1383 23.6147 52.2155 23.3871 52.1297 23.3142C52.0438 23.2412 51.7991 23.3871 51.7175 23.3142C51.6359 23.2412 51.6445 23.1038 51.5672 23.0265C51.4899 22.9492 50.7386 23.4773 50.6656 23.3957C50.5926 23.3142 50.9962 22.829 50.9275 22.7431C50.8588 22.6572 51.0391 22.4039 50.979 22.3138C50.9189 22.2236 50.1804 22.58 50.1246 22.4855C50.0688 22.391 49.8455 22.3653 49.794 22.2708C49.7424 22.1764 50.4981 21.6482 50.4509 21.5495C50.4037 21.4507 49.8283 21.5967 49.7854 21.498C49.7425 21.3992 49.8627 21.2232 49.824 21.1201C49.7854 21.0171 49.6738 20.9355 49.6394 20.8282C49.6051 20.7208 49.6308 20.5963 49.6051 20.489C49.5793 20.3816 49.2959 20.3258 49.2745 20.2185C49.253 20.1112 49.867 19.8879 49.8498 19.7805C49.8326 19.6732 50.1546 19.5444 50.1418 19.4371C50.1289 19.3297 49.283 19.2911 49.2787 19.1837C49.2745 19.0764 49.7167 18.9562 49.7167 18.8445C49.7167 18.7329 50.0731 18.6556 50.0774 18.544C50.0816 18.4324 49.0297 18.2477 49.0426 18.1404C49.0555 18.0331 49.3303 17.9386 49.3431 17.8313C49.356 17.7239 49.1113 17.5479 49.1371 17.4405C49.1628 17.3332 49.4161 17.2602 49.4419 17.1529C49.4677 17.0455 49.18 16.8266 49.2143 16.7235C49.2487 16.6205 50.0301 16.7579 50.0688 16.6591C50.1074 16.5604 49.9743 16.3886 50.0172 16.2899C50.0602 16.1911 50.6999 16.38 50.7471 16.2856C50.7944 16.1911 50.0301 15.6759 50.0816 15.5814C50.1332 15.487 50.657 15.6673 50.7171 15.5771C50.7772 15.487 50.7042 15.3195 50.7686 15.2294C50.833 15.1392 51.2795 15.3582 51.344 15.2723C51.4084 15.1864 50.73 14.4995 50.803 14.4179C50.876 14.3363 51.5672 14.8172 51.6402 14.7399C51.7132 14.6626 51.3697 14.1731 51.447 14.1002C51.5243 14.0272 51.301 13.5849 51.3826 13.5162C51.4642 13.4475 52.1254 14.0701 52.2113 14.0057C52.2971 13.9413 52.237 13.688 52.3229 13.6236C52.4088 13.5592 52.7737 13.9456 52.8682 13.8855C52.9626 13.8254 52.7909 13.3617 52.8853 13.3101C52.9798 13.2586 53.2417 13.5592 53.3405 13.5119C53.4392 13.4647 53.2031 12.7047 53.3018 12.6618C53.4006 12.6189 53.5079 12.5459 53.6067 12.5072C53.7054 12.4686 53.7913 12.3226 53.8986 12.2883C54.006 12.2539 54.255 12.709 54.3623 12.6833C54.4697 12.6575 54.4482 12.0392 54.5555 12.0178C54.6629 11.9963 54.9634 13.0869 55.0751 13.0697C55.1867 13.0525 55.264 13.074 55.3713 13.0654C55.4787 13.0568 55.5302 12.5502 55.6418 12.5416C55.7535 12.533 55.8522 12.7606 55.9638 12.7606C56.0755 12.7606 56.1871 12.3269 56.2944 12.3312C56.4018 12.3355 56.4619 12.8894 56.5692 12.898C56.6766 12.9065 56.7839 12.7906 56.8912 12.8078C56.9986 12.825 57.1832 12.3913 57.2863 12.4128C57.3893 12.4342 57.4709 12.5931 57.5782 12.6189C57.6856 12.6446 57.8702 12.4171 57.9732 12.4514C58.0763 12.4858 58.0248 12.9709 58.1278 13.0096C58.2308 13.0482 58.3725 12.9624 58.4713 13.0096C58.57 13.0568 58.4584 13.5205 58.5572 13.5677C58.6559 13.615 58.8706 13.3917 58.9693 13.4432C59.0681 13.4948 59.3257 13.2586 59.4202 13.3187C59.5146 13.3788 59.2141 14.0014 59.3042 14.0658C59.3944 14.1302 59.6263 13.9542 59.7121 14.0229C59.798 14.0916 60.5064 13.4089 60.588 13.4776C60.6696 13.5463 59.9611 14.4952 60.0427 14.5724C60.1243 14.6497 60.5021 14.3964 60.5794 14.478C60.6567 14.5596 60.7726 14.5896 60.8456 14.6755C60.9186 14.7614 60.6138 15.1306 60.6782 15.2165C60.7426 15.3024 61.4682 14.8988 61.5326 14.9889C61.597 15.0791 61.9018 15.0319 61.962 15.1263C62.0221 15.2208 61.4854 15.6759 61.5369 15.7704C61.5884 15.8648 61.2449 16.1482 61.2965 16.2469C61.348 16.3457 61.4639 16.38 61.5111 16.4831C61.5584 16.5861 61.7473 16.6033 61.7859 16.7063C61.8246 16.8094 62.2282 16.7836 62.2625 16.8867C62.2969 16.9897 62.0693 17.1658 62.0994 17.2731C62.1294 17.3804 62.6275 17.3804 62.6489 17.4878C62.6704 17.5951 61.962 17.8313 61.9791 17.9386C61.9963 18.0459 62.6446 18.0717 62.6575 18.179C62.6704 18.2864 61.816 18.4538 61.8203 18.5612C61.8246 18.6685 62.1852 18.7501 62.1852 18.8574V18.8445Z" fill="white"/>
<path d="M121.991 134.359C105.958 138.013 78.9475 140.263 51.1338 136.171V128.537C85.3106 131.761 108.195 128.717 121.991 126.725V134.359Z" fill="#2C2C2C"/>
<path fill-rule="evenodd" clip-rule="evenodd" d="M93.6961 132.031C93.0951 132.071 92.6397 132.59 92.679 133.191L92.7966 134.99C92.8359 135.591 93.355 136.047 93.956 136.007L102.555 135.445C103.156 135.406 103.611 134.887 103.572 134.286L103.454 132.486C103.415 131.885 102.896 131.43 102.295 131.469L93.6961 132.031ZM89.0372 133.429C88.8665 130.817 90.8457 128.56 93.458 128.39L102.057 127.828C104.669 127.657 106.925 129.636 107.096 132.248L107.214 134.048C107.384 136.66 105.405 138.916 102.793 139.087L94.194 139.649C91.5817 139.82 89.3256 137.841 89.1548 135.228L89.0372 133.429Z" fill="#D39A35"/>
<path d="M120.028 169.793L119.5 168.557L119.294 169.201L119.066 169.742L118.697 169.403L118.315 168.991L118.057 169.343L117.855 170.085L117.383 169.059L117.207 169.965L116.945 170.322L116.486 169.351L116.336 170.476L116.009 170.386L115.537 169.252L115.301 169.811L115.056 170.343L114.695 169.974L114.412 170.214L114.043 169.763L113.695 169.502L113.377 169.433L113.145 170.09L112.862 170.326L112.51 170.025L112.312 171.013L111.96 170.682L111.668 170.884L111.278 170.158L111.072 171.155L110.668 170.3L110.419 170.897L110.11 170.97L109.805 171.039L109.401 170.085L109.174 171.004L108.775 170.047L108.547 170.966L108.221 170.811L107.839 170.012L107.628 171.189L107.336 171.429L107.01 171.288L106.624 170.377L106.297 170.197L106.044 170.953L105.765 171.356L105.391 170.562L105.155 171.571L104.833 171.455L104.481 170.897L104.142 170.498L103.828 170.407L103.532 170.678L103.232 170.824L102.97 171.635L102.618 170.953L102.278 170.515L101.978 170.656L101.656 170.476L101.403 171.618L101.102 171.786L100.776 171.519L100.441 171.06L100.136 171.197L99.7967 170.558L99.5305 171.627L99.2042 171.258L98.9037 171.601L98.5559 170.626L98.251 170.772L97.9548 171.206L97.6414 171.142L97.3279 171.094L97.0059 170.76L96.6968 170.828L96.3833 170.755L96.0785 170.88L95.7865 171.678L95.4645 171.309L95.1683 172.043L94.8591 172.035L94.5457 172.159L94.228 171.872L93.906 171.206L93.6054 171.983L93.2963 172.039L92.9828 172.116L92.6694 171.893L92.356 172.095L92.0425 171.902L91.7248 171.279L91.4114 170.837L91.1022 171.494L90.7888 170.914L90.4797 171.627L90.1662 171.275L89.8571 171.996L89.5437 171.167L89.2345 171.228L88.9211 171.889L88.6077 172.155L88.2985 171.631L87.9851 171.653L87.6803 171.073L87.3625 171.773L87.0491 172.125L86.7357 172.095L86.4394 170.79L86.126 170.94L85.804 171.996L85.5034 170.88L85.19 171.12L84.8766 171.288L84.5588 171.644L84.2454 171.76L83.9363 171.721L83.6357 171.073L83.3309 170.721L82.996 171.833L82.6954 171.313L82.3949 170.961L82.0729 171.236L81.768 171.086L81.4632 170.729L81.1326 171.438L80.8148 171.704L80.5143 171.249L80.2223 170.669L79.896 171.146L79.5826 171.193L79.2391 172.035L78.9557 171.21L78.638 171.382L78.3375 171.051L77.9897 171.992L77.6848 171.837L77.3757 171.721L77.0623 171.743L76.7617 171.408L76.4483 171.416L76.1477 171.159L75.8472 170.884L75.5381 170.79L75.1989 171.416L74.864 171.85L74.6106 170.605L74.2586 171.489L73.958 171.215L73.6532 171.017L73.3269 171.301L73.0564 170.493L72.7215 170.936L72.378 171.464L72.1075 170.656L71.7726 171.116L71.4849 170.618L71.1801 170.511L70.8495 170.858L70.5146 171.253L70.2398 170.583L69.8791 171.412L69.6344 170.227L69.2995 170.639L68.9732 170.841L68.6512 171.009L68.3334 171.094L68.0243 170.996L67.6808 171.459L67.4146 170.742L67.0754 171.129L66.7749 170.953L66.5173 170.167L66.1566 170.811L65.8088 171.313L65.5426 170.661L65.1905 171.202L64.9415 170.304L64.5851 170.91L64.3533 169.738L64.027 169.931L63.6277 171.103L63.3658 170.433L63.048 170.489L62.7947 169.647L62.4255 170.39L62.1679 169.695L61.8287 169.978L61.4508 170.802L61.2104 169.914L60.9056 169.755L60.6093 169.579L60.1885 170.914L59.9352 170.15L59.6003 170.42L59.2783 170.493L59.0078 170L58.6944 169.961L58.3251 170.626L58.0546 170.124L57.7755 169.712L57.4192 170.197L57.1744 169.373L56.7794 170.304L56.4832 170.111L56.1783 169.982L55.8606 170.021L55.5686 169.781L55.1908 170.493L54.9804 169.347L54.7013 168.935L54.272 170.167L54.0573 169.107L53.6666 169.901L53.4219 169.188L53.0956 169.317L52.7521 169.613L52.4816 169.111L52.0823 170.008L51.7946 169.72L51.4983 169.527L51.1248 170.115L50.8586 169.6L50.5151 169.892L50.3133 168.754L49.9398 169.317L49.7079 168.467L49.3 169.386L49.0338 168.888L48.656 169.484L48.4542 168.359L48.0721 168.978L47.5826 169.562L47.6857 168.377L47.033 168.909L46.5607 168.892L46.4319 168.493L45.921 168.407L46.9257 167.419L46.3546 167.38L46.7883 166.917L46.0498 166.822L45.3585 166.608L45.2898 166.243L46.5951 165.873L46.1743 165.569L45.9596 165.264L45.7235 164.959L45.702 164.654L45.2941 164.345L46.4963 164.04L46.0026 163.735L45.1567 163.43L46.3461 163.121L45.7192 162.816L46.1829 162.512L46.5908 162.202L46.1786 161.893L46.2817 161.584L45.4229 161.228L45.2984 160.846L45.4272 160.494H46.6294L45.8351 159.862L45.9253 159.506L46.0412 159.141L46.6724 159.175L47.2821 159.36L47.0201 158.549L47.2563 158.214L47.5912 157.978L48.0935 158.78L48.3512 158.746L48.7161 158.008L49.0338 157.999L49.27 159.021L49.665 157.922L49.9741 157.965L50.2575 158.381L50.5237 159.008L50.9101 157.999L51.1677 158.815L51.5112 158.394L51.7903 158.875L52.078 159.21L52.4 159.115L52.7478 158.622L53.0269 159.072L53.4133 158.029L53.6322 159.42L54.0358 158.068L54.2849 159.038L54.6241 158.63L54.9418 158.566L55.1951 159.467L55.5729 158.514L55.8391 159.188L56.1955 158.531L56.4617 159.296L56.7623 159.472L57.0972 159.098L57.4321 158.78L57.7326 159.012L58.0847 158.373L58.3251 159.515L58.6171 159.82L58.982 159.042L59.3126 158.738L59.5917 159.274L59.9567 158.471L60.1842 159.824L60.5664 158.75L60.8197 159.669L61.1761 159.038L61.5024 158.798L61.7986 159.081L62.1292 158.759L62.4512 158.656L62.6745 160.077L63.0352 159.304L63.3443 159.373L63.632 159.841L63.9454 159.811L64.2932 159.244L64.598 159.369H64.9115L65.2464 158.957L65.5297 159.497L65.8732 158.909L66.1824 158.995L66.5044 158.875L66.8006 159.167L67.1012 159.356L67.4232 159.21L67.7152 159.553L67.9942 160.245L68.3334 159.742L68.6168 160.305L68.9517 159.893L69.2566 160.03L69.5528 160.352L69.9178 159.304L70.1883 160.197L70.5489 159.223L70.8452 159.579L71.1629 159.442L71.442 160.15L71.7855 159.459L72.086 159.708L72.4123 159.429L72.6957 160.034L73.0263 159.708L73.3183 160.18L73.6145 160.515L73.9494 160L74.25 160.27L74.572 160.086L74.8854 160.064L75.1774 160.605L75.5381 159.459L75.8043 160.541L76.1177 160.549L76.474 159.394L76.7317 160.794L77.0794 159.901L77.4015 159.669L77.6848 160.412L77.9897 160.678L78.3332 159.755L78.6552 159.575L78.9643 159.57L79.2606 160.15L79.5912 159.502L79.8574 160.91L80.1794 160.674L80.51 160.038L80.8106 160.455L81.1412 159.927L81.4288 160.747L81.7509 160.369L82.0643 160.339L82.3863 159.957L82.6697 161.022L83.0175 159.794L83.3051 160.657L83.6143 160.768L83.9363 160.378L84.2411 160.674L84.5674 160.137L84.8852 159.923L85.1857 160.326L85.4991 160.446L85.8212 159.858L86.1303 160.026L86.4223 161.099L86.7443 160.691L87.0534 160.794L87.3797 159.785L87.6717 161.146L87.9894 160.846L88.2985 161.155L88.6163 160.721L88.9254 161.017L89.2431 160.455L89.5566 160.137L89.87 159.862L90.1748 161.026L90.4883 161.129L90.806 160.223L91.1194 160.343L91.4328 159.755L91.7463 160.223L92.0554 160.966L92.3689 160.979L92.6823 161.133L92.9957 160.897L93.3091 160.743L93.6183 159.854L93.936 160.524L94.2451 160.069L94.5629 160.906L94.872 160.421L95.1811 160.236L95.4946 160.27L95.8037 159.965L96.1171 160.279L96.4349 160.562L96.7526 160.841L97.0703 161.073L97.3623 159.884L97.6714 159.905L98.002 160.73L98.3155 160.704L98.6246 160.678L98.9337 160.451L99.2429 160.343L99.5477 160.086L99.8869 161.026L100.157 159.626L100.471 159.691L100.78 159.575L101.119 160.459L101.424 160.27L101.729 160.004L102.072 160.871L102.386 160.876L102.665 160.103L102.978 160.099L103.287 160.116L103.597 159.996L103.949 160.893L104.249 160.657L104.515 159.712L104.876 160.683L105.129 159.523L105.469 160.077L105.812 160.661L106.061 159.515L106.387 159.785L106.692 159.712L107.04 160.257L107.298 159.433L107.615 159.515L107.997 160.588L108.234 159.463L108.538 159.343L108.86 159.519L109.23 160.257L109.462 159.188L109.779 159.287L110.11 159.506L110.402 159.287L110.814 160.438L111.085 159.948L111.415 160.15L111.733 160.219L112.008 159.807L112.36 160.202L112.579 159.27L112.896 159.326L113.244 159.682L113.459 158.742L113.875 159.747L114.172 159.592L114.403 158.888L114.725 158.957L115.039 158.969L115.447 159.751L115.777 159.91L115.958 158.858L116.233 158.566L116.713 159.841L116.821 158.33L117.164 158.557L117.439 158.304L117.911 159.42L118.04 158.175L118.551 159.51L118.813 159.158L119.036 158.604L119.44 159.21L119.659 159.309L119.861 159.291L120.05 159.373L120.625 158.793L120.865 159.017L121.265 159.072L121.642 159.214L121.685 159.613L121.204 160.236L121.393 160.455L122.209 160.498L121.453 161.022L121.861 161.241L122.222 161.52L121.78 161.846L121.63 162.168L122.57 162.49L121.771 162.812L121.672 163.134L122.63 163.452L121.668 163.778L121.883 164.1L122.136 164.418L122.029 164.74L122.699 165.062L121.411 165.388L122.518 165.71L121.69 166.037L122.57 166.393L122.14 166.694L122.248 167.054L122.072 167.359L121.114 167.333L122.183 168.175L121.883 168.432L121.363 168.493L120.736 168.329L120.492 168.441L120.831 169.57L120.208 169.064L120.028 169.793Z" fill="white"/>
<path d="M73.3013 123.556H97.2594C99.711 123.556 101.699 125.544 101.699 127.996V138.588C101.699 141.04 99.711 143.028 97.2594 143.028H77.7408C75.2892 143.028 73.3013 141.04 73.3013 138.588V123.556Z" fill="white"/>
<path d="M73.2988 123.555L80.7401 116.114C82.4737 114.38 85.285 114.38 87.0186 116.114L87.9962 117.091C89.7297 118.825 89.7297 121.636 87.9962 123.37L80.5549 130.811L73.2988 123.555Z" fill="white"/>
<path d="M54.319 57.9846C86.5637 59.7021 56.6117 122.861 53.1383 120.241L73.6272 122.599L74.3184 142.491C74.3184 142.491 33.6025 147.012 27.8062 138.36C21.2241 128.541 29.9916 56.6837 54.319 57.9803V57.9846Z" fill="#A53D3C"/>
<path d="M50.0435 58.5648C59.0772 57.2682 76.2128 107.516 79.6863 123.63L88.4882 123.552C88.4882 123.552 81.5841 102.497 79.008 92.7631C63.0316 32.4127 49.5025 53.0218 50.0435 58.5648Z" fill="#2C2C2C"/>
<path d="M106.962 260.985L106.649 261.067L106.336 260.629L106.022 261.118L105.709 261.028L105.4 261.101L105.086 260.71L104.773 261.114L104.464 260.65L104.15 260.753L103.841 260.921L103.528 260.702L103.218 260.667L102.905 260.68L102.592 260.672L102.278 260.925L101.965 260.908L101.651 260.985L101.342 261.045L101.029 260.981L100.72 260.74L100.406 260.766L100.097 261.015L99.7836 260.732L99.4745 260.852L99.161 260.959L98.8519 260.809L98.5385 260.758L98.225 261.071L97.9159 260.805L97.6025 260.775L97.289 261.092L96.9756 260.77L96.6622 260.843L96.3487 260.925L96.0353 260.891L95.7219 261.114L95.4127 260.689L95.0993 261.054L94.7859 260.779L94.4724 261.075L94.159 260.946L93.8456 261.002L93.5321 260.972L93.2187 260.672L92.9053 261.11L92.5919 261.067L92.2784 260.938L91.965 260.745L91.6516 260.723L91.3381 261.097L91.0247 260.861L90.7113 260.667L90.3978 260.719L90.0887 260.727L89.7753 260.959L89.4618 260.938L89.1484 261.131L88.835 260.869L88.5215 261.037L88.2081 260.959L87.8904 260.633L87.577 260.831L87.2635 260.775L86.9458 261.032L86.6324 260.71L86.319 260.753L86.0012 260.723L85.6878 260.74L85.3701 260.689L85.0523 260.732L84.7346 260.886L84.4427 260.835L84.0734 260.964L83.9875 260.483L83.6612 260.44L83.3779 260.272L83.1589 260.015L83.4594 259.615L83.3693 259.362L83.1761 259.049L83.3864 258.74L83.0472 258.426L83.1288 258.117L83.0773 257.804L83.3993 257.49L83.0215 257.172L83.2104 256.859L83.4594 256.606L83.3092 256.266L83.541 256.06L83.5668 255.691L83.833 255.507L84.1035 255.33L84.4126 255.223L84.7346 255.167L85.0481 255.348L85.3615 255.438L85.6749 255.58L85.9883 255.176L86.3018 255.107L86.6109 255.27L86.9243 255.541L87.2335 255.373L87.5469 255.137L87.8561 255.292L88.1695 255.283L88.4786 255.446L88.792 255.382L89.1055 255.391L89.4189 255.403L89.7323 255.279L90.0458 255.159L90.3549 255.3L90.6683 255.464L90.9775 255.567L91.2909 255.099L91.6 255.189L91.9135 255.283L92.2226 255.24L92.536 255.361L92.8452 255.592L93.1586 255.18L93.472 255.528L93.7812 255.489L94.0946 255.279L94.408 255.305L94.7215 255.378L95.0349 255.288L95.3483 255.335L95.6618 255.464L95.9752 255.107L96.2843 255.532L96.5978 255.455L96.9112 255.485L97.2246 255.549L97.538 255.416L97.8515 255.326L98.1649 255.537L98.4783 255.425L98.7918 255.549L99.1052 255.592L99.4186 255.459L99.7321 255.446L100.045 255.425L100.359 255.202L100.672 255.519L100.986 255.124L101.299 255.146L101.608 255.227L101.922 255.137L102.235 255.438L102.549 255.373L102.862 255.386L103.176 255.541L103.489 255.326L103.807 255.167L104.12 255.352L104.434 255.3L104.751 255.58L105.065 255.365L105.382 255.18L105.696 255.309L106.009 255.206L106.327 255.524L106.645 255.33L106.962 255.107L107.272 255.305L107.632 255.236L107.941 255.395L108.208 255.614L108.263 255.987L108.216 256.339L108.208 256.61L108.727 256.859L108.633 257.172L108.392 257.486L108.478 257.795L108.624 258.108L108.384 258.422L108.328 258.735L108.405 259.049L108.272 259.362L108.482 259.667L108.457 259.985L108.122 260.139L108.087 260.487L107.735 260.521L107.611 260.929L107.224 260.68L106.962 260.985Z" fill="#EFEFEF"/>
<path d="M82.6307 260.865L82.2504 261.037L81.8649 260.809L81.4793 260.977L81.0938 261.058L80.7082 260.668L80.328 260.633L79.9424 261.037L79.5622 260.912L79.1766 260.827L78.7964 261.127L78.4108 260.951L78.0253 261.037L77.645 260.985L77.2595 260.994L76.874 260.985L76.4884 260.925L76.1029 261.071L75.7226 260.715L75.3371 261.093L74.9568 260.981L74.5713 261.063L74.191 260.728L73.8055 260.659L73.4252 260.775L73.0397 261.071L72.6541 261.119L72.2739 260.848L71.8883 260.715L71.5028 260.754L71.1225 261.123L70.737 260.805L70.3514 260.964L69.9659 260.668L69.5804 260.968L69.1948 261.123L68.8093 260.771L68.4237 260.818L68.0435 260.754L67.6579 260.852L67.2724 260.629L66.8869 261.05L66.5013 260.951L66.1158 260.925L65.7302 260.87L65.3447 261.097L64.9592 260.732L64.5736 260.758L64.1881 261.071L63.8025 260.831L63.417 260.749L63.0315 260.921L62.6459 260.985L62.2604 261.071L61.8801 260.947L61.4946 260.685L61.109 260.814L60.7182 261.028L60.3327 260.629L59.9471 260.741L59.5616 260.981L59.176 260.694L58.7905 260.895L58.3997 260.981L58.0141 260.818L57.6286 260.784L57.2378 261.028L56.8522 261.11L56.4667 260.797L56.0759 261.033L55.6851 261.084L55.2942 260.955L54.9826 260.638L54.5601 260.809L54.3647 260.492L54.0531 260.371L53.9316 260.105L53.7362 259.886L53.3348 259.68L53.2873 259.363L53.4669 259.049L53.4774 258.74L53.1553 258.427L53.451 258.117L53.1711 257.804L53.5197 257.491L53.2186 257.173L53.3137 256.859L53.7679 256.61L53.8419 256.37L53.7045 255.996L54.0584 255.855L54.2485 255.588L54.6657 255.623L54.9509 255.464L55.2942 255.228L55.6798 255.301L56.0653 255.537L56.4509 255.533L56.8364 255.451L57.2167 255.224L57.6022 255.511L57.9877 255.314H58.368L58.7483 255.434L59.1338 255.361L59.5193 255.12L59.8996 255.224L60.2851 255.485L60.6707 255.528L61.0562 255.185L61.4418 255.541L61.822 255.254L62.2076 255.52L62.5931 255.236L62.9734 255.112L63.3589 255.236L63.7392 255.138L64.1247 255.262L64.505 255.155L64.8905 255.271L65.2708 255.369L65.6563 255.327L66.0366 255.181L66.4221 255.477L66.8076 255.485L67.1932 255.241L67.5787 255.155L67.9643 255.563L68.3498 255.447L68.7353 255.528L69.1156 255.567L69.5011 255.335L69.8867 255.133L70.2722 255.43L70.6578 255.494L71.0433 255.546L71.4289 255.404L71.8144 255.477L72.1999 255.524L72.5855 255.369L72.971 255.12L73.3566 255.275L73.7421 255.455L74.1276 255.224L74.5132 255.12L74.8987 255.588L75.2843 255.181L75.6645 255.219L76.0501 255.181L76.4356 255.357L76.8211 255.266L77.2067 255.335L77.5922 255.554L77.9778 255.241L78.3633 255.473L78.7541 255.249L79.1397 255.129L79.5252 255.309L79.916 255.361L80.3016 255.408L80.6871 255.211L81.0727 255.447L81.4635 255.215L81.8543 255.099L82.2451 255.511L82.6307 255.168L83.0004 255.357L83.3542 255.447L83.65 255.619L83.9246 255.812L84.0566 256.087L84.5478 256.215L84.4844 256.559L84.7062 256.859L84.2151 257.173L84.532 257.486L84.3788 257.795L84.4052 258.109L84.3471 258.422L84.796 258.736L84.2151 259.049L84.2996 259.363L84.7221 259.702L84.4422 259.972L83.9721 260.092L84.157 260.603L83.6711 260.629L83.2275 260.535L82.9951 260.844L82.6307 260.865Z" fill="#EFEFEF"/>
<path d="M76.6753 106.592C77.9462 109.259 78.9809 112.041 79.8482 114.87C80.7027 117.704 81.3939 120.594 81.7975 123.543L81.1921 123.612C80.8959 120.692 80.312 117.799 79.5563 114.952C78.792 112.105 77.856 109.302 76.6753 106.592Z" fill="url(#paint5_linear_126_15631)"/>
<path d="M81.0468 115.768C81.5577 116.996 82.0042 118.258 82.322 119.559C82.644 120.86 82.8329 122.2 82.8801 123.552H82.2704C82.322 122.243 82.2404 120.925 82.0214 119.624C81.8024 118.318 81.4547 117.035 81.0425 115.772L81.0468 115.768Z" fill="url(#paint6_linear_126_15631)"/>
<defs>
<linearGradient id="paint0_linear_126_15631" x1="72.705" y1="11.8723" x2="71.0176" y2="10.3696" gradientUnits="userSpaceOnUse">
<stop stop-color="#7D2E2D"/>
<stop offset="1" stop-color="#A53D3C"/>
</linearGradient>
<linearGradient id="paint1_linear_126_15631" x1="103.051" y1="106.855" x2="124.103" y2="106.855" gradientUnits="userSpaceOnUse">
<stop stop-color="#7D2E2D"/>
<stop offset="1" stop-color="#A53D3C"/>
</linearGradient>
<linearGradient id="paint2_linear_126_15631" x1="79.5007" y1="207.1" x2="101.445" y2="211.613" gradientUnits="userSpaceOnUse">
<stop stop-color="#7D2E2D"/>
<stop offset="1" stop-color="#A53D3C"/>
</linearGradient>
<linearGradient id="paint3_linear_126_15631" x1="42.4909" y1="112.062" x2="66.2" y2="114.874" gradientUnits="userSpaceOnUse">
<stop stop-color="#7D2E2D"/>
<stop offset="1" stop-color="#A53D3C"/>
</linearGradient>
<linearGradient id="paint4_linear_126_15631" x1="41.2409" y1="114.025" x2="64.95" y2="116.837" gradientUnits="userSpaceOnUse">
<stop stop-color="#7D2E2D"/>
<stop offset="1" stop-color="#A53D3C"/>
</linearGradient>
<linearGradient id="paint5_linear_126_15631" x1="75.4516" y1="114.69" x2="82.7421" y2="115.553" gradientUnits="userSpaceOnUse">
<stop stop-color="#2C2C2C"/>
<stop offset="1"/>
</linearGradient>
<linearGradient id="paint6_linear_126_15631" x1="80.3297" y1="119.499" x2="83.3181" y2="119.855" gradientUnits="userSpaceOnUse">
<stop stop-color="#2C2C2C"/>
<stop offset="1"/>
</linearGradient>
</defs>
</svg>
