<svg width="30" height="29" viewBox="0 0 30 29" fill="none" xmlns="http://www.w3.org/2000/svg">
<path fill-rule="evenodd" clip-rule="evenodd" d="M11.9265 15.6134L11.9265 11.7685L17.7169 11.7685L17.7169 15.6134L11.9265 15.6134ZM12.9623 14.5776L16.6811 14.5776L16.6811 12.8043L12.9623 12.8043L12.9623 14.5776Z" fill="#DEFF57"/>
<path fill-rule="evenodd" clip-rule="evenodd" d="M16.7441 16.5861L12.8992 16.5861L12.8992 10.7957L16.7441 10.7957L16.7441 16.5861ZM15.7084 15.5504L15.7084 11.8315L13.935 11.8315L13.935 15.5504L15.7084 15.5504Z" fill="#DEFF57"/>
<path fill-rule="evenodd" clip-rule="evenodd" d="M20.7954 6.29443H8.84792V7.71721H7.42517V19.6647H8.84792V21.0874H20.7954V19.6647H22.2182V7.71721H20.7954V6.29443ZM9.88369 8.75298L19.7596 8.75298V18.6289H9.88369V8.75298Z" fill="#DEFF57"/>
<rect x="0.621582" width="2.06078" height="8.24557" fill="#DEFF57"/>
<rect x="0.621582" y="2.06079" width="2.06078" height="8.24557" transform="rotate(-90 0.621582 2.06079)" fill="#DEFF57"/>
<rect width="2.06078" height="8.24557" transform="matrix(1 0 0 -1 0.621582 28.1777)" fill="#DEFF57"/>
<rect width="2.06078" height="8.24557" transform="matrix(-4.37114e-08 1 1 4.37114e-08 0.621582 26.1169)" fill="#DEFF57"/>
<rect x="29.0217" y="-1.52588e-05" width="2.06078" height="8.24557" transform="rotate(90 29.0217 -1.52588e-05)" fill="#DEFF57"/>
<rect x="26.9609" y="-3.05176e-05" width="2.06078" height="8.24557" fill="#DEFF57"/>
<rect width="2.06078" height="8.24557" transform="matrix(-4.37114e-08 -1 -1 4.37114e-08 29.0217 28.1777)" fill="#DEFF57"/>
<rect width="2.06078" height="8.24557" transform="matrix(1 0 0 -1 26.9609 28.1777)" fill="#DEFF57"/>
<rect x="25.2063" y="2.06079" width="1.75457" height="1.75457" fill="#DEFF57"/>
<rect x="2.68237" y="2.06079" width="1.75457" height="1.75457" fill="#DEFF57"/>
<rect x="2.68237" y="24.3624" width="1.75457" height="1.75457" fill="#DEFF57"/>
<rect x="25.2063" y="24.3624" width="1.75457" height="1.75457" fill="#DEFF57"/>
</svg>
