<svg width="175" height="270" viewBox="0 0 175 270" fill="none" xmlns="http://www.w3.org/2000/svg">
<path d="M21.1636 223.655C75.1718 224.485 106.955 224.049 158.192 223.261L152.908 255.047H24.5834L21.1636 223.655Z" fill="#FF75D0" stroke="#FF4DC2" stroke-width="0.785932" stroke-miterlimit="10"/>
<path d="M89.3796 261.917H73.7579L79.0651 200.946L55.4155 141.642H105.218L101.777 200.197L89.3713 261.925L89.3796 261.917Z" fill="#E0C0B6"/>
<path d="M79.0638 200.946L105.233 141.642L62.105 161.94C64.4462 181.603 74.6064 181.292 79.0722 200.955L79.0638 200.946Z" fill="url(#paint0_linear_126_15740)"/>
<path d="M86.8051 53.0374C82.431 50.2629 80.1065 48.1384 81.2396 43.9893H60.619C62.7685 47.6052 59.5025 50.1296 54.3036 51.6793C30.542 58.4029 35.9908 63.3685 35.9908 72.6915L48.6465 110.425H94.9451C94.9451 110.425 103.777 81.698 103.285 71.5168C102.543 56.245 86.8051 53.0457 86.8051 53.0457V53.0374Z" fill="url(#paint1_radial_126_15740)"/>
<path d="M87.1365 35.3174L87.5698 19.3624C87.5698 -0.433423 55.4849 -0.916655 55.4849 19.0541L55.7931 34.7342C56.4263 47.0149 68.9487 50.2892 74.9641 49.7477C80.9795 49.1978 87.1282 43.2907 87.1282 35.3257L87.1365 35.3174Z" fill="#EDCFC3"/>
<path d="M74.4222 31.7179H75.9968C76.4051 31.7179 76.605 32.2095 76.3218 32.5011L75.5802 33.2426C75.4053 33.4175 75.1303 33.4175 74.9554 33.2592L74.1306 32.5177C73.8223 32.2345 74.0139 31.7179 74.4388 31.7179H74.4222Z" fill="#D1AD95"/>
<path fill-rule="evenodd" clip-rule="evenodd" d="M74.9565 27.1433V22.061H75.6231V27.1433H74.9565Z" fill="#D1AD95"/>
<path d="M68.9571 36.8645H80.9879C80.9879 39.189 78.2218 41.5135 75.514 41.5135C72.8063 41.5135 68.9487 39.189 68.9487 36.8645H68.9571Z" fill="#C38074"/>
<path d="M80.9796 36.8645C80.9796 37.1144 80.9213 37.8143 80.588 38.4142L69.3071 38.1892C69.0488 37.7726 68.8905 37.0561 68.9571 36.8645H80.9879H80.9796Z" fill="#FFF8F3"/>
<path d="M78.2464 40.7651C77.405 41.2317 76.4552 41.515 75.5137 41.515C74.5722 41.515 73.4808 41.2317 72.4727 40.7651H78.2464Z" fill="#FFF8F3"/>
<path d="M56.0103 25.5864C56.0103 25.5864 55.7354 24.2533 54.3107 25.4864C53.6358 26.0779 54.4273 27.5526 54.4773 29.6355C54.5356 32.0933 54.019 34.7928 56.0103 34.6761C56.0686 32.7599 56.0103 25.578 56.0103 25.578V25.5864Z" fill="#EDCFC3"/>
<path d="M87.4865 22.1191C86.62 19.228 85.8951 17.97 82.8208 16.1287C77.7802 13.121 70.4984 13.4876 64.9496 16.1953C59.4007 18.9031 57.7261 27.118 54.2601 28.0762C54.2601 28.0762 48.2447 4.88106 66.3243 1.34014C76.2888 -0.609448 88.9112 3.38971 87.4865 22.1274V22.1191Z" fill="#418BD0"/>
<path d="M62.9585 27.4598C62.9585 24.6771 68.5157 24.3855 68.5157 27.2932C66.666 26.8016 64.8081 26.9683 62.9585 27.4598Z" fill="#65523D"/>
<path d="M80.0459 27.2937C80.0459 24.6943 85.1448 24.4776 85.6031 27.2937C83.7535 26.8022 81.8955 26.8022 80.0459 27.2937Z" fill="#65523D"/>
<path d="M66.0576 33.4669C67.3157 33.2336 68.1988 32.2671 68.0238 31.3007C67.8489 30.3342 66.6825 29.7427 65.4244 29.9676C64.1663 30.2009 63.2832 31.1674 63.4581 32.1338C63.6331 33.1003 64.7995 33.6918 66.0576 33.4669Z" fill="#EF9F9A"/>
<path d="M85.7039 31.9425C85.8539 30.976 84.9374 30.0345 83.671 29.8429C82.4046 29.6513 81.2549 30.2845 81.1132 31.251C80.9633 32.2174 81.8798 33.1589 83.1462 33.3505C84.4126 33.5421 85.5623 32.9089 85.7039 31.9425Z" fill="#EF9F9A"/>
<path fill-rule="evenodd" clip-rule="evenodd" d="M68.5156 22.5059L62.1362 23.1308L62.0884 21.9019L68.4677 21.2771L68.5156 22.5059Z" fill="#D1AD95"/>
<path fill-rule="evenodd" clip-rule="evenodd" d="M79.6193 21.2771L85.6297 21.9019L85.5846 23.1308L79.5742 22.5059L79.6193 21.2771Z" fill="#D1AD95"/>
<path d="M75.6968 40.4471C76.655 40.4471 77.4298 40.2554 77.4298 40.0138C77.4298 39.7722 76.655 39.5806 75.6968 39.5806C74.7387 39.5806 73.9639 39.7722 73.9639 40.0138C73.9639 40.2554 74.7387 40.4471 75.6968 40.4471Z" fill="#EF9F9A"/>
<path fill-rule="evenodd" clip-rule="evenodd" d="M89.1296 74.7672H103.018C99.694 92.4302 104.418 97.6957 90.371 105.044C100.186 99.0538 102.493 99.2787 111.6 96.396L114.574 105.302C105.243 111.634 102.277 115.567 87.9215 123.349C70.7751 125.756 81.3063 90.6722 89.1296 74.7672Z" fill="#EDCFC3"/>
<path d="M61.8184 261.917H46.2051L48.138 200.621C40.9062 183.358 35.3573 154.773 38.615 141.642H79.8646L75.1406 200.605L61.8268 261.925L61.8184 261.917Z" fill="#E0C0B6"/>
<path d="M38.6143 83.0892C46.1627 79.1483 49.7703 81.6395 52.3364 75.3991C65.8003 85.4637 87.2291 83.8973 94.5525 73.7245C98.2601 77.382 101.551 79.0234 102.984 85.6303C104.417 92.2373 97.2186 102.118 97.0437 110.6C96.8604 119.082 105.692 128.63 105.217 141.635C101.059 149.592 86.4126 153.149 78.0727 163.847C68.2747 156.265 52.0115 143.243 38.606 141.635C40.4306 126.88 45.0713 122.281 45.4462 111.417C45.8211 100.552 38.5893 105.726 38.606 87.9882V83.0975L38.6143 83.0892Z" fill="#0E2949"/>
<path fill-rule="evenodd" clip-rule="evenodd" d="M93.1454 55.3616L93.6536 55.6032C91.7957 57.0779 93.8203 72.9662 94.92 74.6075L94.1785 74.7658C93.6953 74.2576 90.496 59.494 93.1371 55.3616H93.1454Z" fill="#0E2949"/>
<path fill-rule="evenodd" clip-rule="evenodd" d="M46.9873 54.0135L47.5039 53.8135L48.2287 53.5636C52.0029 54.5134 56.7019 66.3609 52.986 75.9422L52.3362 75.4007C56.2853 66.4026 50.1616 53.0137 46.9873 54.0135Z" fill="#0E2949"/>
<path d="M28.3418 79.823C28.3418 67.1923 37.0983 56.7529 46.4463 54.52C49.5373 56.4529 55.836 66.9924 48.8208 75.9738C40.2893 86.8965 31.6328 85.4718 31.6328 85.4718L28.3418 79.823Z" fill="#EDCFC3"/>
<path fill-rule="evenodd" clip-rule="evenodd" d="M29.0587 116.383C27.0924 100.745 28.3422 96.4873 28.3422 79.8325L48.3046 76.3333C50.5792 87.8558 46.1884 95.3709 46.1884 103.186C57.0528 98.4619 63.1848 96.4873 74.2992 95.3709L79.1148 105.294C65.3844 114.459 56.8778 118.283 41.1228 124.198C38.4734 125.381 35.4074 125.14 32.9745 123.565C30.5417 121.982 29.0754 119.283 29.0754 116.383H29.0587Z" fill="#EDCFC3"/>
<path fill-rule="evenodd" clip-rule="evenodd" d="M74.291 95.3771C74.291 95.3771 79.7232 89.6782 82.2644 88.8118C85.2554 87.7953 87.4466 88.1952 87.4466 88.1952L87.7215 89.8282C87.7215 89.8282 93.2787 88.5285 94.3868 89.7366C94.845 90.2365 95.9365 93.3025 96.1448 95.752C96.4364 99.2429 95.6615 102.434 94.92 103.25C93.6536 104.642 86.4218 105.192 86.4218 105.192L79.0984 105.292L74.2827 95.3687L74.291 95.3771Z" fill="#EDCFC3"/>
<path fill-rule="evenodd" clip-rule="evenodd" d="M108.6 97.3123C108.6 97.3123 112.007 90.672 114.69 88.5224C117.156 86.5479 119.706 87.0811 119.706 87.0811L120.247 88.6474C120.247 88.6474 125.521 86.4729 126.812 87.481C127.346 87.8976 128.92 90.747 129.52 93.1381C130.378 96.5374 130.12 99.8117 129.52 100.737C128.495 102.311 121.447 104.028 121.447 104.028L114.24 105.311L108.608 97.3206L108.6 97.3123Z" fill="#EDCFC3"/>
<path d="M86.0391 90.2448V82.0132C86.0391 71.9819 94.1707 63.8586 104.194 63.8586H142.075" stroke="white" stroke-width="7.21607" stroke-miterlimit="10"/>
<path d="M120.906 230.633V73.5161C120.906 63.4849 129.037 55.3616 139.06 55.3616H165.446" stroke="white" stroke-width="7.21607" stroke-miterlimit="10"/>
<path d="M86.0391 104.786V231.751" stroke="white" stroke-width="7.21607" stroke-miterlimit="10"/>
<path fill-rule="evenodd" clip-rule="evenodd" d="M153.176 265.358C109.543 269.932 65.5397 269.824 21.9142 265.042C10.4371 263.785 1.1582 253.164 1.1582 241.795C1.1582 230.41 10.4294 222.52 21.9142 223.707C65.5474 228.281 109.551 228.173 153.176 223.391C164.661 222.134 173.932 230.163 173.932 241.795C173.932 253.411 164.653 264.171 153.176 265.358Z" fill="#FF75D0" stroke="#FF4DC2" stroke-width="0.785932" stroke-miterlimit="10"/>
<path d="M21.4054 223.654C10.1596 222.473 1.17383 229.994 1.17383 242.227C1.17383 254.452 10.2907 263.762 21.4131 264.98" stroke="#FF4DC2" stroke-width="0.785932" stroke-miterlimit="10"/>
<path d="M26.3885 224.155C15.9989 223.392 7.69189 231.113 7.69189 243.099C7.69189 255.054 16.1146 264.217 26.3885 265.513" stroke="#FF4DC2" stroke-width="0.785932" stroke-miterlimit="10"/>
<path d="M31.3708 224.627C21.8451 224.265 14.2168 232.178 14.2168 243.902C14.2168 255.588 21.9453 264.627 31.3708 266.008" stroke="#FF4DC2" stroke-width="0.785932" stroke-miterlimit="10"/>
<path d="M36.3537 225.05C27.6918 225.073 20.75 233.157 20.75 244.634C20.75 256.049 27.7844 264.981 36.3537 266.454" stroke="#FF4DC2" stroke-width="0.785932" stroke-miterlimit="10"/>
<path d="M41.336 225.43C33.5303 225.823 27.2827 234.069 27.2827 245.291C27.2827 256.444 33.6152 265.276 41.336 266.857" stroke="#FF4DC2" stroke-width="0.785932" stroke-miterlimit="10"/>
<path d="M46.3263 225.775C39.3845 226.531 33.8311 234.915 33.8311 245.883C33.8311 256.766 39.4694 265.513 46.3263 267.225" stroke="#FF4DC2" stroke-width="0.785932" stroke-miterlimit="10"/>
<path d="M51.3171 226.076C45.2469 227.171 40.3799 235.686 40.3799 246.408C40.3799 257.021 45.3163 265.706 51.3171 267.557" stroke="#FF4DC2" stroke-width="0.785932" stroke-miterlimit="10"/>
<path d="M56.3079 226.338C51.1015 227.765 46.921 236.389 46.9287 246.855C46.9287 257.199 51.1632 265.837 56.3079 267.835" stroke="#FF4DC2" stroke-width="0.785932" stroke-miterlimit="10"/>
<path d="M61.305 226.563C56.9625 228.306 53.4839 237.029 53.4839 247.242C53.4839 257.315 57.0088 265.915 61.305 268.09" stroke="#FF4DC2" stroke-width="0.785932" stroke-miterlimit="10"/>
<path d="M66.2969 226.741C62.826 228.793 60.0338 237.593 60.0415 247.551C60.0415 257.347 62.8645 265.939 66.2969 268.292" stroke="#FF4DC2" stroke-width="0.785932" stroke-miterlimit="10"/>
<path d="M71.294 226.877C68.6869 229.214 66.5967 238.084 66.5967 247.787C66.5967 257.313 68.7178 265.906 71.294 268.451" stroke="#FF4DC2" stroke-width="0.785932" stroke-miterlimit="10"/>
<path d="M76.2917 226.977C74.5562 229.591 73.1602 238.508 73.1602 247.956C73.1602 257.212 74.5717 265.812 76.2917 268.574" stroke="#FF4DC2" stroke-width="0.785932" stroke-miterlimit="10"/>
<path d="M81.2909 227.04C80.4193 229.917 79.7251 238.872 79.7251 248.066C79.7251 257.052 80.4347 265.683 81.2909 268.66" stroke="#FF4DC2" stroke-width="0.785932" stroke-miterlimit="10"/>
<path d="M86.2881 227.055C86.2881 233.226 86.2881 262.181 86.2881 268.698" stroke="#FF4DC2" stroke-width="0.785932" stroke-miterlimit="10"/>
<path d="M91.5112 227.032C92.5062 229.894 93.0461 239.003 93.0539 247.889C93.0539 256.666 92.5217 265.706 91.5112 268.706" stroke="#FF4DC2" stroke-width="0.785932" stroke-miterlimit="10"/>
<path d="M96.7319 226.963C98.7296 229.555 99.8095 238.895 99.8095 247.789C99.8095 256.574 98.7528 265.891 96.7319 268.66" stroke="#FF4DC2" stroke-width="0.785932" stroke-miterlimit="10"/>
<path d="M101.946 226.846C104.939 229.16 106.559 238.709 106.566 247.61C106.566 256.403 104.985 266.006 101.946 268.567" stroke="#FF4DC2" stroke-width="0.785932" stroke-miterlimit="10"/>
<path d="M107.168 226.693C111.156 228.706 113.323 238.456 113.323 247.364C113.323 256.165 111.21 266.069 107.168 268.436" stroke="#FF4DC2" stroke-width="0.785932" stroke-miterlimit="10"/>
<path d="M112.382 226.494C117.373 228.191 120.072 238.133 120.072 247.041C120.072 255.85 117.434 266.07 112.382 268.26" stroke="#FF4DC2" stroke-width="0.785932" stroke-miterlimit="10"/>
<path d="M117.596 226.245C123.574 227.61 126.821 237.722 126.821 246.646C126.821 255.462 123.659 266.006 117.596 268.042" stroke="#FF4DC2" stroke-width="0.785932" stroke-miterlimit="10"/>
<path d="M122.811 225.953C129.783 226.964 133.563 237.245 133.57 246.169C133.57 254.985 129.883 265.876 122.811 267.766" stroke="#FF4DC2" stroke-width="0.785932" stroke-miterlimit="10"/>
<path d="M128.024 225.62C135.992 226.268 140.311 236.688 140.311 245.627C140.311 254.451 136.1 265.697 128.024 267.463" stroke="#FF4DC2" stroke-width="0.785932" stroke-miterlimit="10"/>
<path d="M133.23 225.244C142.193 225.506 147.045 236.065 147.045 245.013C147.045 253.844 142.309 265.452 133.23 267.111" stroke="#FF4DC2" stroke-width="0.785932" stroke-miterlimit="10"/>
<path d="M138.438 224.82C148.387 224.673 153.779 235.364 153.779 244.319C153.779 253.158 148.519 265.144 138.438 266.718" stroke="#FF4DC2" stroke-width="0.785932" stroke-miterlimit="10"/>
<path d="M143.644 224.347C154.588 223.784 160.504 234.582 160.504 243.545C160.504 252.384 154.727 264.764 143.644 266.268" stroke="#FF4DC2" stroke-width="0.785932" stroke-miterlimit="10"/>
<path d="M148.842 223.84C160.774 222.837 167.222 233.736 167.222 242.706C167.222 251.553 160.928 264.342 148.842 265.784" stroke="#FF4DC2" stroke-width="0.785932" stroke-miterlimit="10"/>
<path d="M154.041 223.284C166.953 221.826 173.933 232.81 173.933 241.788C173.933 250.642 167.122 263.847 154.041 265.251" stroke="#FF4DC2" stroke-width="0.785932" stroke-miterlimit="10"/>
<defs>
<linearGradient id="paint0_linear_126_15740" x1="70.5807" y1="159.906" x2="90.7946" y2="170.486" gradientUnits="userSpaceOnUse">
<stop stop-color="#BF9F93"/>
<stop offset="1" stop-color="#E0C0B6"/>
</linearGradient>
<radialGradient id="paint1_radial_126_15740" cx="0" cy="0" r="1" gradientUnits="userSpaceOnUse" gradientTransform="translate(71.7833 41.5564) scale(24.3615 24.3615)">
<stop stop-color="#BF9F93"/>
<stop offset="0.14" stop-color="#C8A99D"/>
<stop offset="0.67" stop-color="#EDCFC3"/>
</radialGradient>
</defs>
</svg>
