<svg width="48" height="48" viewBox="0 0 48 48" fill="none" xmlns="http://www.w3.org/2000/svg">
<path d="M23.7707 47.9633C36.777 47.9633 47.3207 37.4196 47.3207 24.4133C47.3207 11.407 36.777 0.863281 23.7707 0.863281C10.7644 0.863281 0.220703 11.407 0.220703 24.4133C0.220703 37.4196 10.7644 47.9633 23.7707 47.9633Z" fill="#2B64F3"/>
<path d="M32.8406 14.8325L8.69062 24.1425C7.03062 24.7925 7.06062 25.7025 8.41062 26.1325L14.5906 28.0625L28.9306 19.0325C29.6006 18.5925 30.2106 18.8425 29.7106 19.2825L18.1006 29.7725L17.6606 36.1425C18.3106 36.1425 18.5906 35.8625 18.9206 35.5225L21.9406 32.6125L28.2006 37.2325C29.3406 37.8825 30.1606 37.5425 30.4606 36.1725L34.5706 16.7925C34.9306 15.1025 33.9506 14.4225 32.8306 14.8225L32.8406 14.8325Z" fill="white"/>
</svg>
