<svg width="48" height="48" viewBox="0 0 48 48" fill="none" xmlns="http://www.w3.org/2000/svg">
<path d="M24.382 47.9633C37.3883 47.9633 47.932 37.4196 47.932 24.4133C47.932 11.407 37.3883 0.863281 24.382 0.863281C11.3757 0.863281 0.832031 11.407 0.832031 24.4133C0.832031 37.4196 11.3757 47.9633 24.382 47.9633Z" fill="#2B64F3"/>
<path d="M32.582 16.0928C31.192 15.0428 30.192 13.5128 29.842 11.7328C29.752 11.2928 29.712 10.8428 29.702 10.3828H25.032V30.1428C25.032 32.0128 23.812 33.5928 22.122 34.1528C21.632 34.3128 21.102 34.3928 20.552 34.3628C19.852 34.3228 19.192 34.1128 18.622 33.7728C17.402 33.0428 16.582 31.7228 16.552 30.2128C16.522 27.8528 18.432 25.9228 20.792 25.9228C21.262 25.9228 21.702 26.0028 22.122 26.1328V21.3928C21.682 21.3228 21.232 21.2928 20.772 21.2928C18.192 21.2928 15.772 22.3628 14.042 24.3028C12.732 25.7628 11.952 27.6328 11.832 29.5928C11.672 32.1628 12.612 34.6028 14.442 36.4128C14.712 36.6728 14.992 36.9228 15.282 37.1528C16.842 38.3528 18.762 39.0128 20.772 39.0128C21.232 39.0128 21.682 38.9828 22.122 38.9128C24.002 38.6328 25.742 37.7728 27.112 36.4228C28.792 34.7628 29.722 32.5528 29.732 30.2028L29.712 19.7628C30.512 20.3828 31.392 20.8928 32.332 21.2928C33.802 21.9128 35.352 22.2228 36.952 22.2228V17.5728H36.942C35.302 17.5728 33.802 17.0328 32.582 16.1128V16.0928Z" fill="white"/>
</svg>
