<svg width="1201" height="254" viewBox="0 0 1201 254" fill="none" xmlns="http://www.w3.org/2000/svg">
<g clip-path="url(#clip0_208_2363)">
<rect x="7.36621" y="0.814697" width="1185.55" height="265.437" fill="#0F2F7E"/>
<g opacity="0.5">
<rect width="28.609" height="23.9126" transform="matrix(1 0 0 -1 19.3882 124.818)" fill="#10399D" stroke="#4971F3" stroke-width="2.78702"/>
<rect width="28.609" height="23.9126" transform="matrix(1 0 0 -1 19.3882 148.73)" fill="#10399D" stroke="#4971F3" stroke-width="2.78702"/>
<rect width="28.609" height="61.2499" transform="matrix(1 0 0 -1 19.3882 210.057)" fill="#10399D" stroke="#4971F3" stroke-width="2.78702"/>
<rect width="28.61" height="61.2499" transform="matrix(1 0 0 -1 47.9976 210.057)" fill="#162B6E" stroke="#4971F3" stroke-width="2.78702"/>
<rect width="28.61" height="23.9126" transform="matrix(1 0 0 -1 47.9976 124.818)" fill="#10399D" stroke="#4971F3" stroke-width="2.78702"/>
<rect width="28.61" height="23.9126" transform="matrix(1 0 0 -1 47.9976 148.73)" fill="#10399D" stroke="#4971F3" stroke-width="2.78702"/>
<rect x="19.3882" y="26.2429" width="28.6091" height="36.2443" fill="#10399D" stroke="#4971F3" stroke-width="2.78702"/>
<rect x="47.9976" y="26.2429" width="28.61" height="36.2443" fill="#162B6E" stroke="#4971F3" stroke-width="2.78702"/>
<rect x="19.3882" y="62.4872" width="28.6091" height="38.4177" fill="#10399D" stroke="#4971F3" stroke-width="2.78702"/>
<rect x="47.9976" y="62.4872" width="28.61" height="38.4177" fill="#10399D" stroke="#4971F3" stroke-width="2.78702"/>
<rect width="28.609" height="23.9126" transform="matrix(1 0 0 -1 92.6069 124.818)" fill="#10399D" stroke="#4971F3" stroke-width="2.78702"/>
<rect width="28.609" height="23.9126" transform="matrix(1 0 0 -1 92.6069 148.73)" fill="#10399D" stroke="#4971F3" stroke-width="2.78702"/>
<rect width="28.609" height="61.2499" transform="matrix(1 0 0 -1 92.6069 210.057)" fill="#10399D" stroke="#4971F3" stroke-width="2.78702"/>
<rect width="28.61" height="61.2499" transform="matrix(1 0 0 -1 121.216 210.057)" fill="#10399D" stroke="#4971F3" stroke-width="2.78702"/>
<rect width="28.61" height="23.9126" transform="matrix(1 0 0 -1 121.216 124.818)" fill="#10399D" stroke="#4971F3" stroke-width="2.78702"/>
<rect width="28.61" height="23.9126" transform="matrix(1 0 0 -1 121.216 148.73)" fill="#10399D" stroke="#4971F3" stroke-width="2.78702"/>
<rect x="92.6069" y="26.2429" width="28.6091" height="36.2443" fill="#10399D" stroke="#4971F3" stroke-width="2.78702"/>
<rect x="121.216" y="26.2429" width="28.61" height="36.2443" fill="#10399D" stroke="#4971F3" stroke-width="2.78702"/>
<rect x="92.6069" y="62.4872" width="28.6091" height="38.4177" fill="#10399D" stroke="#4971F3" stroke-width="2.78702"/>
<rect x="121.216" y="62.4872" width="28.61" height="38.4177" fill="#10399D" stroke="#4971F3" stroke-width="2.78702"/>
<rect width="28.609" height="23.9126" transform="matrix(1 0 0 -1 165.826 124.818)" fill="#10399D" stroke="#4971F3" stroke-width="2.78702"/>
<rect width="28.609" height="23.9126" transform="matrix(1 0 0 -1 165.826 148.73)" fill="#10399D" stroke="#4971F3" stroke-width="2.78702"/>
<rect width="28.609" height="61.2499" transform="matrix(1 0 0 -1 165.826 210.057)" fill="#10399D" stroke="#4971F3" stroke-width="2.78702"/>
<rect width="28.61" height="61.2499" transform="matrix(1 0 0 -1 194.435 210.057)" fill="#10399D" stroke="#4971F3" stroke-width="2.78702"/>
<rect width="28.61" height="23.9126" transform="matrix(1 0 0 -1 194.435 124.818)" fill="#10399D" stroke="#4971F3" stroke-width="2.78702"/>
<rect width="28.61" height="23.9126" transform="matrix(1 0 0 -1 194.435 148.73)" fill="#10399D" stroke="#4971F3" stroke-width="2.78702"/>
<rect x="165.826" y="26.2429" width="28.6091" height="36.2443" fill="#10399D" stroke="#4971F3" stroke-width="2.78702"/>
<rect x="194.435" y="26.2429" width="28.61" height="36.2443" fill="#10399D" stroke="#4971F3" stroke-width="2.78702"/>
<rect x="165.826" y="62.4872" width="28.6091" height="38.4177" fill="#10399D" stroke="#4971F3" stroke-width="2.78702"/>
<rect x="194.435" y="62.4872" width="28.61" height="38.4177" fill="#10399D" stroke="#4971F3" stroke-width="2.78702"/>
<rect width="28.609" height="23.9126" transform="matrix(1 0 0 -1 239.045 124.818)" fill="#10399D" stroke="#4971F3" stroke-width="2.78702"/>
<rect width="28.609" height="23.9126" transform="matrix(1 0 0 -1 239.045 148.73)" fill="#10399D" stroke="#4971F3" stroke-width="2.78702"/>
<rect width="28.609" height="61.2499" transform="matrix(1 0 0 -1 239.045 210.057)" fill="#10399D" stroke="#4971F3" stroke-width="2.78702"/>
<rect width="28.61" height="61.2499" transform="matrix(1 0 0 -1 267.654 210.057)" fill="#10399D" stroke="#4971F3" stroke-width="2.78702"/>
<rect width="28.61" height="23.9126" transform="matrix(1 0 0 -1 267.655 124.818)" fill="#10399D" stroke="#4971F3" stroke-width="2.78702"/>
<rect width="28.61" height="23.9126" transform="matrix(1 0 0 -1 267.655 148.73)" fill="#10399D" stroke="#4971F3" stroke-width="2.78702"/>
<rect x="239.045" y="26.2429" width="28.6091" height="36.2443" fill="#10399D" stroke="#4971F3" stroke-width="2.78702"/>
<rect x="267.655" y="26.2429" width="28.61" height="36.2443" fill="#162B6E" stroke="#4971F3" stroke-width="2.78702"/>
<rect x="239.045" y="62.4872" width="28.6091" height="38.4177" fill="#10399D" stroke="#4971F3" stroke-width="2.78702"/>
<rect x="267.655" y="62.4872" width="28.61" height="38.4177" fill="#10399D" stroke="#4971F3" stroke-width="2.78702"/>
<rect x="19.3882" y="230.008" width="28.6091" height="36.2443" fill="#10399D" stroke="#4971F3" stroke-width="2.78702"/>
<rect x="47.9976" y="230.008" width="28.61" height="36.2443" fill="#10399D" stroke="#4971F3" stroke-width="2.78702"/>
<rect x="92.6069" y="230.008" width="28.6091" height="36.2443" fill="#10399D" stroke="#4971F3" stroke-width="2.78702"/>
<rect x="121.216" y="230.008" width="28.61" height="36.2443" fill="#10399D" stroke="#4971F3" stroke-width="2.78702"/>
<rect x="165.826" y="230.008" width="28.6091" height="36.2443" fill="#10399D" stroke="#4971F3" stroke-width="2.78702"/>
<rect x="194.435" y="230.008" width="28.61" height="36.2443" fill="#10399D" stroke="#4971F3" stroke-width="2.78702"/>
<rect x="239.045" y="230.008" width="28.6091" height="36.2443" fill="#10399D" stroke="#4971F3" stroke-width="2.78702"/>
<rect x="267.655" y="230.008" width="28.61" height="36.2443" fill="#162B6E" stroke="#4971F3" stroke-width="2.78702"/>
<rect width="28.609" height="23.9126" transform="matrix(1 0 0 -1 314.265 124.818)" fill="#10399D" stroke="#4971F3" stroke-width="2.78702"/>
<rect width="28.609" height="23.9126" transform="matrix(1 0 0 -1 314.265 148.73)" fill="#10399D" stroke="#4971F3" stroke-width="2.78702"/>
<rect width="28.609" height="61.2499" transform="matrix(1 0 0 -1 314.265 210.057)" fill="#10399D" stroke="#4971F3" stroke-width="2.78702"/>
<rect width="28.61" height="61.2499" transform="matrix(1 0 0 -1 342.874 210.057)" fill="#10399D" stroke="#4971F3" stroke-width="2.78702"/>
<rect width="28.61" height="23.9126" transform="matrix(1 0 0 -1 342.875 124.818)" fill="#10399D" stroke="#4971F3" stroke-width="2.78702"/>
<rect width="28.61" height="23.9126" transform="matrix(1 0 0 -1 342.875 148.73)" fill="#10399D" stroke="#4971F3" stroke-width="2.78702"/>
<rect x="314.265" y="26.2429" width="28.6091" height="36.2443" fill="#10399D" stroke="#4971F3" stroke-width="2.78702"/>
<rect x="342.875" y="26.2429" width="28.61" height="36.2443" fill="#10399D" stroke="#4971F3" stroke-width="2.78702"/>
<rect x="314.265" y="62.4872" width="28.6091" height="38.4177" fill="#10399D" stroke="#4971F3" stroke-width="2.78702"/>
<rect x="342.875" y="62.4872" width="28.61" height="38.4177" fill="#10399D" stroke="#4971F3" stroke-width="2.78702"/>
<rect width="28.609" height="23.9126" transform="matrix(1 0 0 -1 387.484 124.818)" fill="#10399D" stroke="#4971F3" stroke-width="2.78702"/>
<rect width="28.609" height="23.9126" transform="matrix(1 0 0 -1 387.484 148.73)" fill="#10399D" stroke="#4971F3" stroke-width="2.78702"/>
<rect width="28.609" height="61.2499" transform="matrix(1 0 0 -1 387.484 210.057)" fill="#10399D" stroke="#4971F3" stroke-width="2.78702"/>
<rect width="28.61" height="61.2499" transform="matrix(1 0 0 -1 416.092 210.057)" fill="#10399D" stroke="#4971F3" stroke-width="2.78702"/>
<rect width="28.61" height="23.9126" transform="matrix(1 0 0 -1 416.093 124.818)" fill="#10399D" stroke="#4971F3" stroke-width="2.78702"/>
<rect width="28.61" height="23.9126" transform="matrix(1 0 0 -1 416.093 148.73)" fill="#10399D" stroke="#4971F3" stroke-width="2.78702"/>
<rect x="387.484" y="26.2429" width="28.6091" height="36.2443" fill="#10399D" stroke="#4971F3" stroke-width="2.78702"/>
<rect x="416.093" y="26.2429" width="28.61" height="36.2443" fill="#10399D" stroke="#4971F3" stroke-width="2.78702"/>
<rect x="387.484" y="62.4872" width="28.6091" height="38.4177" fill="#10399D" stroke="#4971F3" stroke-width="2.78702"/>
<rect x="416.093" y="62.4872" width="28.61" height="38.4177" fill="#10399D" stroke="#4971F3" stroke-width="2.78702"/>
<rect width="28.609" height="23.9126" transform="matrix(1 0 0 -1 460.704 124.818)" fill="#10399D" stroke="#4971F3" stroke-width="2.78702"/>
<rect width="28.609" height="23.9126" transform="matrix(1 0 0 -1 460.704 148.73)" fill="#10399D" stroke="#4971F3" stroke-width="2.78702"/>
<rect width="28.609" height="61.2499" transform="matrix(1 0 0 -1 460.704 210.057)" fill="#10399D" stroke="#4971F3" stroke-width="2.78702"/>
<rect width="28.61" height="61.2499" transform="matrix(1 0 0 -1 489.313 210.057)" fill="#10399D" stroke="#4971F3" stroke-width="2.78702"/>
<rect width="28.61" height="23.9126" transform="matrix(1 0 0 -1 489.313 124.818)" fill="#10399D" stroke="#4971F3" stroke-width="2.78702"/>
<rect width="28.61" height="23.9126" transform="matrix(1 0 0 -1 489.313 148.73)" fill="#10399D" stroke="#4971F3" stroke-width="2.78702"/>
<rect x="460.704" y="26.2429" width="28.6091" height="36.2443" fill="#10399D" stroke="#4971F3" stroke-width="2.78702"/>
<rect x="489.313" y="26.2429" width="28.61" height="36.2443" fill="#162B6E" stroke="#4971F3" stroke-width="2.78702"/>
<rect x="460.704" y="62.4872" width="28.6091" height="38.4177" fill="#10399D" stroke="#4971F3" stroke-width="2.78702"/>
<rect x="489.313" y="62.4872" width="28.61" height="38.4177" fill="#10399D" stroke="#4971F3" stroke-width="2.78702"/>
<rect width="28.609" height="23.9126" transform="matrix(1 0 0 -1 533.922 124.818)" fill="#10399D" stroke="#4971F3" stroke-width="2.78702"/>
<rect width="28.609" height="23.9126" transform="matrix(1 0 0 -1 533.922 148.73)" fill="#10399D" stroke="#4971F3" stroke-width="2.78702"/>
<rect width="28.609" height="61.2499" transform="matrix(1 0 0 -1 533.922 210.057)" fill="#10399D" stroke="#4971F3" stroke-width="2.78702"/>
<rect width="28.61" height="61.2499" transform="matrix(1 0 0 -1 562.532 210.057)" fill="#10399D" stroke="#4971F3" stroke-width="2.78702"/>
<rect width="28.61" height="23.9126" transform="matrix(1 0 0 -1 562.532 124.818)" fill="#10399D" stroke="#4971F3" stroke-width="2.78702"/>
<rect width="28.61" height="23.9126" transform="matrix(1 0 0 -1 562.532 148.73)" fill="#10399D" stroke="#4971F3" stroke-width="2.78702"/>
<rect x="533.922" y="26.2429" width="28.6091" height="36.2443" fill="#10399D" stroke="#4971F3" stroke-width="2.78702"/>
<rect x="562.532" y="26.2429" width="28.61" height="36.2443" fill="#10399D" stroke="#4971F3" stroke-width="2.78702"/>
<rect x="533.922" y="62.4872" width="28.6091" height="38.4177" fill="#10399D" stroke="#4971F3" stroke-width="2.78702"/>
<rect x="562.532" y="62.4872" width="28.61" height="38.4177" fill="#10399D" stroke="#4971F3" stroke-width="2.78702"/>
<rect x="314.265" y="230.008" width="28.6091" height="36.2443" fill="#10399D" stroke="#4971F3" stroke-width="2.78702"/>
<rect x="342.875" y="230.008" width="28.61" height="36.2443" fill="#10399D" stroke="#4971F3" stroke-width="2.78702"/>
<rect x="387.484" y="230.008" width="28.6091" height="36.2443" fill="#10399D" stroke="#4971F3" stroke-width="2.78702"/>
<rect x="416.093" y="230.008" width="28.61" height="36.2443" fill="#10399D" stroke="#4971F3" stroke-width="2.78702"/>
<rect x="460.704" y="230.008" width="28.6091" height="36.2443" fill="#10399D" stroke="#4971F3" stroke-width="2.78702"/>
<rect x="489.313" y="230.008" width="28.61" height="36.2443" fill="#10399D" stroke="#4971F3" stroke-width="2.78702"/>
<rect x="533.922" y="230.008" width="28.6091" height="36.2443" fill="#10399D" stroke="#4971F3" stroke-width="2.78702"/>
<rect x="562.532" y="230.008" width="28.61" height="36.2443" fill="#10399D" stroke="#4971F3" stroke-width="2.78702"/>
<rect width="28.609" height="23.9126" transform="matrix(1 0 0 -1 609.142 124.818)" fill="#10399D" stroke="#4971F3" stroke-width="2.78702"/>
<rect width="28.609" height="23.9126" transform="matrix(1 0 0 -1 609.142 148.73)" fill="#10399D" stroke="#4971F3" stroke-width="2.78702"/>
<rect width="28.609" height="61.2499" transform="matrix(1 0 0 -1 609.142 210.057)" fill="#10399D" stroke="#4971F3" stroke-width="2.78702"/>
<rect width="28.61" height="61.2499" transform="matrix(1 0 0 -1 637.751 210.057)" fill="#10399D" stroke="#4971F3" stroke-width="2.78702"/>
<rect width="28.61" height="23.9126" transform="matrix(1 0 0 -1 637.751 124.818)" fill="#10399D" stroke="#4971F3" stroke-width="2.78702"/>
<rect width="28.61" height="23.9126" transform="matrix(1 0 0 -1 637.751 148.73)" fill="#10399D" stroke="#4971F3" stroke-width="2.78702"/>
<rect x="609.142" y="26.2429" width="28.6091" height="36.2443" fill="#10399D" stroke="#4971F3" stroke-width="2.78702"/>
<rect x="637.751" y="26.2429" width="28.61" height="36.2443" fill="#10399D" stroke="#4971F3" stroke-width="2.78702"/>
<rect x="609.142" y="62.4872" width="28.6091" height="38.4177" fill="#10399D" stroke="#4971F3" stroke-width="2.78702"/>
<rect x="637.751" y="62.4872" width="28.61" height="38.4177" fill="#10399D" stroke="#4971F3" stroke-width="2.78702"/>
<rect width="28.609" height="23.9126" transform="matrix(1 0 0 -1 682.361 124.818)" fill="#10399D" stroke="#4971F3" stroke-width="2.78702"/>
<rect width="28.609" height="23.9126" transform="matrix(1 0 0 -1 682.361 148.73)" fill="#10399D" stroke="#4971F3" stroke-width="2.78702"/>
<rect width="28.609" height="61.2499" transform="matrix(1 0 0 -1 682.361 210.057)" fill="#10399D" stroke="#4971F3" stroke-width="2.78702"/>
<rect width="28.61" height="61.2499" transform="matrix(1 0 0 -1 710.97 210.057)" fill="#10399D" stroke="#4971F3" stroke-width="2.78702"/>
<rect width="28.61" height="23.9126" transform="matrix(1 0 0 -1 710.97 124.818)" fill="#10399D" stroke="#4971F3" stroke-width="2.78702"/>
<rect width="28.61" height="23.9126" transform="matrix(1 0 0 -1 710.97 148.73)" fill="#10399D" stroke="#4971F3" stroke-width="2.78702"/>
<rect x="682.361" y="26.2429" width="28.6091" height="36.2443" fill="#10399D" stroke="#4971F3" stroke-width="2.78702"/>
<rect x="710.97" y="26.2429" width="28.61" height="36.2443" fill="#162B6E" stroke="#4971F3" stroke-width="2.78702"/>
<rect x="682.361" y="62.4872" width="28.6091" height="38.4177" fill="#10399D" stroke="#4971F3" stroke-width="2.78702"/>
<rect x="710.97" y="62.4872" width="28.61" height="38.4177" fill="#10399D" stroke="#4971F3" stroke-width="2.78702"/>
<rect width="28.609" height="23.9126" transform="matrix(1 0 0 -1 755.58 124.818)" fill="#10399D" stroke="#4971F3" stroke-width="2.78702"/>
<rect width="28.609" height="23.9126" transform="matrix(1 0 0 -1 755.58 148.73)" fill="#10399D" stroke="#4971F3" stroke-width="2.78702"/>
<rect width="28.609" height="61.2499" transform="matrix(1 0 0 -1 755.58 210.057)" fill="#10399D" stroke="#4971F3" stroke-width="2.78702"/>
<rect width="28.61" height="61.2499" transform="matrix(1 0 0 -1 784.189 210.057)" fill="#10399D" stroke="#4971F3" stroke-width="2.78702"/>
<rect width="28.61" height="23.9126" transform="matrix(1 0 0 -1 784.189 124.818)" fill="#10399D" stroke="#4971F3" stroke-width="2.78702"/>
<rect width="28.61" height="23.9126" transform="matrix(1 0 0 -1 784.189 148.73)" fill="#10399D" stroke="#4971F3" stroke-width="2.78702"/>
<rect x="755.58" y="26.2429" width="28.6091" height="36.2443" fill="#10399D" stroke="#4971F3" stroke-width="2.78702"/>
<rect x="784.189" y="26.2429" width="28.61" height="36.2443" fill="#10399D" stroke="#4971F3" stroke-width="2.78702"/>
<rect x="755.58" y="62.4872" width="28.6091" height="38.4177" fill="#10399D" stroke="#4971F3" stroke-width="2.78702"/>
<rect x="784.189" y="62.4872" width="28.61" height="38.4177" fill="#10399D" stroke="#4971F3" stroke-width="2.78702"/>
<rect width="28.609" height="23.9126" transform="matrix(1 0 0 -1 828.799 124.818)" fill="#10399D" stroke="#4971F3" stroke-width="2.78702"/>
<rect width="28.609" height="23.9126" transform="matrix(1 0 0 -1 828.799 148.73)" fill="#10399D" stroke="#4971F3" stroke-width="2.78702"/>
<rect width="28.609" height="61.2499" transform="matrix(1 0 0 -1 828.799 210.057)" fill="#10399D" stroke="#4971F3" stroke-width="2.78702"/>
<rect width="28.61" height="61.2499" transform="matrix(1 0 0 -1 857.408 210.057)" fill="#10399D" stroke="#4971F3" stroke-width="2.78702"/>
<rect width="28.61" height="23.9126" transform="matrix(1 0 0 -1 857.409 124.818)" fill="#10399D" stroke="#4971F3" stroke-width="2.78702"/>
<rect width="28.61" height="23.9126" transform="matrix(1 0 0 -1 857.409 148.73)" fill="#10399D" stroke="#4971F3" stroke-width="2.78702"/>
<rect x="828.799" y="26.2429" width="28.6091" height="36.2443" fill="#10399D" stroke="#4971F3" stroke-width="2.78702"/>
<rect x="857.409" y="26.2429" width="28.61" height="36.2443" fill="#10399D" stroke="#4971F3" stroke-width="2.78702"/>
<rect x="828.799" y="62.4872" width="28.6091" height="38.4177" fill="#10399D" stroke="#4971F3" stroke-width="2.78702"/>
<rect x="857.409" y="62.4872" width="28.61" height="38.4177" fill="#10399D" stroke="#4971F3" stroke-width="2.78702"/>
<rect x="609.142" y="230.008" width="28.6091" height="36.2443" fill="#10399D" stroke="#4971F3" stroke-width="2.78702"/>
<rect x="637.751" y="230.008" width="28.61" height="36.2443" fill="#10399D" stroke="#4971F3" stroke-width="2.78702"/>
<rect x="682.361" y="230.008" width="28.6091" height="36.2443" fill="#162B6E" stroke="#4971F3" stroke-width="2.78702"/>
<rect x="710.97" y="230.008" width="28.61" height="36.2443" fill="#10399D" stroke="#4971F3" stroke-width="2.78702"/>
<rect x="755.58" y="230.008" width="28.6091" height="36.2443" fill="#10399D" stroke="#4971F3" stroke-width="2.78702"/>
<rect x="784.189" y="230.008" width="28.61" height="36.2443" fill="#10399D" stroke="#4971F3" stroke-width="2.78702"/>
<rect x="828.799" y="230.008" width="28.6091" height="36.2443" fill="#10399D" stroke="#4971F3" stroke-width="2.78702"/>
<rect x="857.409" y="230.008" width="28.61" height="36.2443" fill="#10399D" stroke="#4971F3" stroke-width="2.78702"/>
<rect width="28.609" height="23.9126" transform="matrix(1 0 0 -1 904.019 124.818)" fill="#10399D" stroke="#4971F3" stroke-width="2.78702"/>
<rect width="28.609" height="23.9126" transform="matrix(1 0 0 -1 904.019 148.73)" fill="#10399D" stroke="#4971F3" stroke-width="2.78702"/>
<rect width="28.609" height="61.2499" transform="matrix(1 0 0 -1 904.019 210.057)" fill="#10399D" stroke="#4971F3" stroke-width="2.78702"/>
<rect width="28.61" height="61.2499" transform="matrix(1 0 0 -1 932.627 210.057)" fill="#10399D" stroke="#4971F3" stroke-width="2.78702"/>
<rect width="28.61" height="23.9126" transform="matrix(1 0 0 -1 932.628 124.818)" fill="#10399D" stroke="#4971F3" stroke-width="2.78702"/>
<rect width="28.61" height="23.9126" transform="matrix(1 0 0 -1 932.628 148.73)" fill="#10399D" stroke="#4971F3" stroke-width="2.78702"/>
<rect x="904.019" y="26.2429" width="28.6091" height="36.2443" fill="#10399D" stroke="#4971F3" stroke-width="2.78702"/>
<rect x="932.628" y="26.2429" width="28.61" height="36.2443" fill="#10399D" stroke="#4971F3" stroke-width="2.78702"/>
<rect x="904.019" y="62.4872" width="28.6091" height="38.4177" fill="#10399D" stroke="#4971F3" stroke-width="2.78702"/>
<rect x="932.628" y="62.4872" width="28.61" height="38.4177" fill="#10399D" stroke="#4971F3" stroke-width="2.78702"/>
<rect width="28.609" height="23.9126" transform="matrix(1 0 0 -1 977.238 124.818)" fill="#10399D" stroke="#4971F3" stroke-width="2.78702"/>
<rect width="28.609" height="23.9126" transform="matrix(1 0 0 -1 977.238 148.73)" fill="#10399D" stroke="#4971F3" stroke-width="2.78702"/>
<rect width="28.609" height="61.2499" transform="matrix(1 0 0 -1 977.238 210.057)" fill="#10399D" stroke="#4971F3" stroke-width="2.78702"/>
<rect width="28.61" height="61.2499" transform="matrix(1 0 0 -1 1005.85 210.057)" fill="#10399D" stroke="#4971F3" stroke-width="2.78702"/>
<rect width="28.61" height="23.9126" transform="matrix(1 0 0 -1 1005.85 124.818)" fill="#10399D" stroke="#4971F3" stroke-width="2.78702"/>
<rect width="28.61" height="23.9126" transform="matrix(1 0 0 -1 1005.85 148.73)" fill="#10399D" stroke="#4971F3" stroke-width="2.78702"/>
<rect x="977.238" y="26.2429" width="28.6091" height="36.2443" fill="#10399D" stroke="#4971F3" stroke-width="2.78702"/>
<rect x="1005.85" y="26.2429" width="28.61" height="36.2443" fill="#10399D" stroke="#4971F3" stroke-width="2.78702"/>
<rect x="977.238" y="62.4872" width="28.6091" height="38.4177" fill="#10399D" stroke="#4971F3" stroke-width="2.78702"/>
<rect x="1005.85" y="62.4872" width="28.61" height="38.4177" fill="#10399D" stroke="#4971F3" stroke-width="2.78702"/>
<rect width="28.609" height="23.9126" transform="matrix(1 0 0 -1 1050.46 124.818)" fill="#10399D" stroke="#4971F3" stroke-width="2.78702"/>
<rect width="28.609" height="23.9126" transform="matrix(1 0 0 -1 1050.46 148.73)" fill="#10399D" stroke="#4971F3" stroke-width="2.78702"/>
<rect width="28.609" height="61.2499" transform="matrix(1 0 0 -1 1050.46 210.057)" fill="#10399D" stroke="#4971F3" stroke-width="2.78702"/>
<rect width="28.61" height="61.2499" transform="matrix(1 0 0 -1 1079.07 210.057)" fill="#10399D" stroke="#4971F3" stroke-width="2.78702"/>
<rect width="28.61" height="23.9126" transform="matrix(1 0 0 -1 1079.07 124.818)" fill="#10399D" stroke="#4971F3" stroke-width="2.78702"/>
<rect width="28.61" height="23.9126" transform="matrix(1 0 0 -1 1079.07 148.73)" fill="#10399D" stroke="#4971F3" stroke-width="2.78702"/>
<rect x="1050.46" y="26.2429" width="28.6091" height="36.2443" fill="#10399D" stroke="#4971F3" stroke-width="2.78702"/>
<rect x="1079.07" y="26.2429" width="28.61" height="36.2443" fill="#10399D" stroke="#4971F3" stroke-width="2.78702"/>
<rect x="1050.46" y="62.4872" width="28.6091" height="38.4177" fill="#10399D" stroke="#4971F3" stroke-width="2.78702"/>
<rect x="1079.07" y="62.4872" width="28.61" height="38.4177" fill="#10399D" stroke="#4971F3" stroke-width="2.78702"/>
<rect width="28.609" height="23.9126" transform="matrix(1 0 0 -1 1123.68 124.818)" fill="#10399D" stroke="#4971F3" stroke-width="2.78702"/>
<rect width="28.609" height="23.9126" transform="matrix(1 0 0 -1 1123.68 148.73)" fill="#10399D" stroke="#4971F3" stroke-width="2.78702"/>
<rect width="28.609" height="61.2499" transform="matrix(1 0 0 -1 1123.68 210.057)" fill="#10399D" stroke="#4971F3" stroke-width="2.78702"/>
<rect width="28.61" height="61.2499" transform="matrix(1 0 0 -1 1152.29 210.057)" fill="#10399D" stroke="#4971F3" stroke-width="2.78702"/>
<rect width="28.61" height="23.9126" transform="matrix(1 0 0 -1 1152.29 124.818)" fill="#10399D" stroke="#4971F3" stroke-width="2.78702"/>
<rect width="28.61" height="23.9126" transform="matrix(1 0 0 -1 1152.29 148.73)" fill="#10399D" stroke="#4971F3" stroke-width="2.78702"/>
<rect x="1123.68" y="26.2429" width="28.6091" height="36.2443" fill="#10399D" stroke="#4971F3" stroke-width="2.78702"/>
<rect x="1152.29" y="26.2429" width="28.61" height="36.2443" fill="#10399D" stroke="#4971F3" stroke-width="2.78702"/>
<rect x="1123.68" y="62.4872" width="28.6091" height="38.4177" fill="#10399D" stroke="#4971F3" stroke-width="2.78702"/>
<rect x="1152.29" y="62.4872" width="28.61" height="38.4177" fill="#10399D" stroke="#4971F3" stroke-width="2.78702"/>
<rect x="904.019" y="230.008" width="28.6091" height="36.2443" fill="#10399D" stroke="#4971F3" stroke-width="2.78702"/>
<rect x="932.628" y="230.008" width="28.61" height="36.2443" fill="#10399D" stroke="#4971F3" stroke-width="2.78702"/>
<rect x="977.238" y="230.008" width="28.6091" height="36.2443" fill="#10399D" stroke="#4971F3" stroke-width="2.78702"/>
<rect x="1005.85" y="230.008" width="28.61" height="36.2443" fill="#10399D" stroke="#4971F3" stroke-width="2.78702"/>
<rect x="1050.46" y="230.008" width="28.6091" height="36.2443" fill="#10399D" stroke="#4971F3" stroke-width="2.78702"/>
<rect x="1079.07" y="230.008" width="28.61" height="36.2443" fill="#10399D" stroke="#4971F3" stroke-width="2.78702"/>
<rect x="1123.68" y="230.008" width="28.6091" height="36.2443" fill="#10399D" stroke="#4971F3" stroke-width="2.78702"/>
<rect x="1152.29" y="230.008" width="28.61" height="36.2443" fill="#10399D" stroke="#4971F3" stroke-width="2.78702"/>
</g>
<path d="M62.2492 201.935L66.3954 203.018L66.0813 206.398L62.0906 210.057H58.5667L59.0992 206.93L60.7445 206.691L61.8154 203.78L62.2492 201.935Z" fill="#4971F3"/>
<path d="M79.4546 160.371C79.5384 160.377 79.3514 162.226 80.6759 160.722C82.4049 161.996 81.4276 176.687 76.1895 179.208C72.6954 180.893 71.801 182.565 71.801 182.565L67.1133 203.038L61.262 201.51L64.1907 181.655L73.563 162.354" fill="#102159"/>
<path d="M52.3174 149.859H69.0697L85.0153 203.796H63.4767L52.3174 149.859Z" fill="#10399D" stroke="#4971F3" stroke-width="2.78702"/>
<path d="M58.2465 148.001C58.2465 148.001 56.4247 147.475 55.7516 147.292C55.0785 147.11 52.5806 148.001 52.5806 148.001C52.5806 148.001 52.7631 148.327 52.5806 148.573C52.3981 148.818 52.093 149.488 52.5806 149.611C53.0682 149.733 54.4114 149.611 54.4114 149.611L55.6319 150.119L56.9721 151.073H57.5824L58.2465 148.004V148.001Z" fill="white"/>
<path d="M59.013 103.554L54.7352 104.029L53.3958 104.807L53.8278 106.319L59.5749 105.498L59.013 103.554Z" fill="#EED0C4"/>
<path fill-rule="evenodd" clip-rule="evenodd" d="M57.8039 75.1407C57.8039 75.1407 58.8031 72.5471 59.7005 72.0505C60.5979 71.5539 63.7869 72.3496 64.086 72.0505C64.3852 71.7513 67.1373 74.1266 67.1762 75.8407C67.2151 77.5548 68.2232 79.0326 67.7984 79.9301C67.3736 80.8275 66.0813 82.7211 66.3805 83.7203C66.6796 84.7194 66.5779 87.7079 66.8771 88.5066C67.1762 89.3054 67.7984 92.1951 67.7984 92.1951C67.7984 92.1951 68.5194 93.1584 67.2869 93.5742C66.0544 93.99 66.0484 94.2263 64.1847 94.1904C62.321 94.1545 60.6937 93.3588 60.3945 93.5742C60.0954 93.7896 60.3945 95.1866 59.2966 93.6909C58.1988 92.1951 57.8996 91.4562 57.8009 90.5797C57.7022 89.7032 58.0013 89.5028 57.8009 87.31C57.6005 85.1173 57.403 84.519 57.403 82.5237C57.403 80.5283 57.3043 78.7155 57.403 77.8779C57.5018 77.0403 57.8009 75.1437 57.8009 75.1437L57.8039 75.1407Z" fill="#FF4DC2"/>
<path fill-rule="evenodd" clip-rule="evenodd" d="M59.2008 64.1709L60.7205 71.88L61.5252 75.039C61.5252 75.039 61.5252 76.0351 60.3615 76.1368C59.1978 76.2386 56.7059 74.4407 56.6042 73.0466C56.5025 71.6526 56.0059 69.059 56.0059 68.2603V63.3722H58.764L59.1948 64.1709H59.2008Z" fill="#FF4DC2"/>
<path fill-rule="evenodd" clip-rule="evenodd" d="M61.9588 64.1709L63.4785 71.88L64.2832 75.039C64.2832 75.039 64.2832 76.0351 63.1195 76.1368C61.9559 76.2386 59.464 74.4407 59.3622 73.0466C59.2605 71.6526 58.7639 69.059 58.7639 68.2603V63.3722H61.5221L61.9529 64.1709H61.9588Z" fill="#FF4DC2"/>
<path d="M54.8453 60.6799C54.8453 60.6799 54.4475 59.5491 54.8453 59.4175C55.2432 59.2858 56.6043 59.5491 56.8825 59.7346C58.0043 60.4824 58.3274 62.6273 58.3274 62.6273L58.5248 63.3632L56.5624 63.2705C55.8235 61.8615 55.6111 61.0897 54.8453 60.6829V60.6799Z" fill="white"/>
<path d="M57.5377 60.6799C57.5377 60.6799 57.1398 59.5491 57.5377 59.4175C57.9356 59.2858 59.2967 59.5491 59.5749 59.7346C60.6967 60.4824 61.0198 62.6273 61.0198 62.6273L61.2172 63.3632L59.2548 63.2705C58.5159 61.8615 58.3035 61.0897 57.5377 60.6829V60.6799Z" fill="white"/>
<path d="M65.148 111.936L63.7839 112.301V113.165C63.7839 113.165 63.6523 113.764 64.0172 113.797C64.3822 113.829 66.91 113.803 66.91 113.803L67.616 111.529L66.5779 110.341L65.148 111.936V111.936Z" fill="#EED0C4"/>
<path d="M61.1602 70.4531C61.1602 70.4531 61.3606 69.056 62.0247 68.7898C62.6888 68.5236 62.7546 67.7248 63.0209 67.5274C63.2871 67.33 64.3102 67.1295 64.6632 67.1295C65.0162 67.1295 65.6175 66.6629 66.3803 67.1295C67.1432 67.5962 67.7414 67.7936 67.9748 68.3919C68.2081 68.9902 68.6718 70.4531 68.7406 70.8509C68.8094 71.2488 68.609 71.3176 68.7406 72.1133C68.8722 72.9091 68.5701 73.9082 68.7556 74.6381C68.941 75.3681 69.0098 75.9664 68.7765 76.3014C68.5432 76.6365 69.1893 76.9655 67.8013 77.3664C66.4132 77.7672 66.2936 78.0305 65.7222 77.7642C65.1508 77.498 63.688 76.3014 63.4876 76.101C63.2871 75.9006 62.8235 75.4369 62.4914 74.7728C62.1593 74.1087 62.1593 74.1087 61.8273 73.3757C61.4952 72.6428 61.1632 71.0484 61.1632 71.0484V70.4501L61.1602 70.4531Z" fill="#130A43"/>
<path d="M81.5771 160.199C81.5771 160.199 81.0087 160.21 81.5771 163.554C82.4745 168.84 75.0946 175.72 72.7014 178.61C71.1727 180.456 75.5941 194.166 75.5941 194.166L68.4146 196.957C68.4146 196.957 63.6312 181.102 63.6282 178.359C63.6252 175.616 68.7137 162.354 68.7137 162.354L79.8 158.551L81.5771 160.199Z" fill="#162B6E"/>
<path d="M74.3078 194.668C74.3078 194.668 74.6219 195.321 75.1454 196.012C75.8305 196.921 76.9463 197.893 76.8356 198.288C76.6352 198.985 72.6415 203.541 72.6415 203.541L68.9231 203.481L69.1475 201.546C69.1475 201.546 71.1249 199.787 71.4629 199.072C71.8009 198.357 70.2125 196.26 70.2125 196.26L74.3108 194.665L74.3078 194.668Z" fill="#4971F3"/>
<path d="M67.7144 115.092L70.6071 114.395L74.6427 139.128L70.1913 140.72L67.7144 115.092Z" fill="#FFDC00"/>
<path d="M70.431 114.497C70.431 114.497 69.8925 112.965 69.6861 112.406C69.4797 111.846 67.7985 109.567 67.7985 109.567C67.7985 109.567 67.8344 110.994 67.5741 110.988C67.3138 110.982 65.5728 111.161 65.7284 111.562C65.8839 111.963 67.4036 112.624 67.4036 112.624L67.6549 113.728V115.137L67.957 115.562L70.428 114.5L70.431 114.497Z" fill="#EED0C4"/>
<path d="M70.4667 130.889C70.3172 130.838 69.6364 131.627 69.6364 131.627L69.9311 132.344C69.9311 132.344 68.7106 133.69 68.6597 134.438C68.6089 135.186 71.0529 137.28 71.0529 137.28L75.1423 137.761C75.1423 137.761 78.8816 136.032 79.7791 134.19C80.6765 132.347 79.8299 129.304 78.7321 128.305C77.6342 127.306 73.5688 126.46 73.5688 126.46L72.2525 127.109L73.0004 127.907L71.3551 129.155L71.6213 129.804L70.732 130.682L70.4667 130.889Z" fill="#EED0C4"/>
<path fill-rule="evenodd" clip-rule="evenodd" d="M73.5687 128.319L74.2684 130.502L73.5687 132.348H74.4849C74.7167 132.265 75.2162 132.171 75.3593 132.454C75.5381 132.809 74.7099 134.15 74.2684 134.133C73.9152 134.12 73.6679 133.802 73.5884 133.644C73.6648 134.075 73.736 134.493 73.8033 134.889C74.0141 136.127 74.1878 137.147 74.3702 137.67L75.1422 137.761C75.1422 137.761 78.8816 136.032 79.779 134.19C80.6765 132.347 79.8299 129.304 78.732 128.305C77.6342 127.306 73.5687 126.46 73.5687 126.46L72.2525 127.109L73.0003 127.907L72.8501 128.021L73.5687 128.319Z" fill="black"/>
<path d="M72.3034 137.361C74.7953 137.361 75.9919 137.361 76.8893 139.52C77.7868 141.68 81.0774 160.76 81.0774 160.76L68.7136 162.354C68.7136 162.354 65.2973 149.59 66.2217 146.401C67.1461 143.212 69.8115 137.361 72.3034 137.361V137.361Z" fill="#FFDC00"/>
<path d="M57.5435 151.388C57.5435 151.388 64.3252 154.179 65.9196 153.281C67.5141 152.384 72.2018 147.696 73.1979 145.704C74.1941 143.711 74.5949 138.225 72.8 137.426C71.0052 136.628 66.7184 143.209 66.4192 144.606C66.1201 146.003 64.6183 148.555 64.6183 148.555L58.1448 147.795L57.5465 151.385L57.5435 151.388Z" fill="#FFDC00"/>
<path d="M57.8037 96.7781L59.4999 105.453L53.9148 106.252V104.556L54.8123 103.859L53.0174 94.0857L59.0003 89.6972C59.0003 89.6972 62.0905 89.2993 63.8854 89.6972C65.6803 90.0951 67.0265 92.7874 66.0542 93.984C65.082 95.1806 63.7867 97.0742 62.6888 97.1759C61.591 97.2776 57.8037 96.7781 57.8037 96.7781V96.7781Z" fill="#A1B7FF"/>
<path d="M66.0542 91.6417C66.0542 91.6417 68.3726 94.2862 67.4752 96.0811C66.5777 97.876 66.5598 100.867 66.3205 101.666C66.0811 102.465 67.8012 109.57 67.8012 109.57V111.939L65.3333 111.676L62.0935 102.764L61.5281 97.8879C61.7435 94.8277 62.4136 92.1144 66.0572 91.6417H66.0542Z" fill="#A1B7FF"/>
<rect x="0.14209" y="0.651123" width="1200" height="15.7527" fill="#0C276A"/>
</g>
<defs>
<clipPath id="clip0_208_2363">
<rect width="1200" height="253" fill="white" transform="translate(0.14209 0.814697)"/>
</clipPath>
</defs>
</svg>
