<svg width="48" height="48" viewBox="0 0 48 48" fill="none" xmlns="http://www.w3.org/2000/svg">
<path d="M23.9504 47.9633C36.9567 47.9633 47.5004 37.4196 47.5004 24.4133C47.5004 11.407 36.9567 0.863281 23.9504 0.863281C10.9441 0.863281 0.400391 11.407 0.400391 24.4133C0.400391 37.4196 10.9441 47.9633 23.9504 47.9633Z" fill="#2B64F3"/>
<path d="M30.8504 27.4133C30.4804 27.2233 28.6304 26.3233 28.2904 26.1933C27.9504 26.0733 27.7004 26.0033 27.4504 26.3833C27.2004 26.7633 26.4804 27.6033 26.2604 27.8533C26.0404 28.1033 25.8204 28.1333 25.4504 27.9433C25.0704 27.7533 23.8704 27.3633 22.4404 26.0833C21.3304 25.0933 20.5704 23.8633 20.3604 23.4933C20.1404 23.1133 20.3604 22.9333 20.5204 22.7333C20.9204 22.2433 21.3304 21.7033 21.4604 21.4533C21.5904 21.2033 21.5204 20.9833 21.4304 20.7933C21.3404 20.6033 20.5904 18.7633 20.2704 18.0133C19.9704 17.2833 19.6604 17.3833 19.4304 17.3733C19.2104 17.3633 18.9604 17.3633 18.7104 17.3633C18.4604 17.3633 18.0504 17.4533 17.7104 17.8333C17.3704 18.2033 16.4004 19.1133 16.4004 20.9533C16.4004 22.7933 17.7404 24.5733 17.9304 24.8233C18.1204 25.0733 20.5704 28.8533 24.3304 30.4833C25.2204 30.8733 25.9204 31.1033 26.4704 31.2733C27.3704 31.5533 28.1804 31.5133 28.8304 31.4233C29.5504 31.3133 31.0504 30.5133 31.3604 29.6433C31.6704 28.7633 31.6704 28.0233 31.5804 27.8633C31.4904 27.7033 31.2404 27.6133 30.8604 27.4233L30.8504 27.4133Z" fill="white"/>
<path d="M24.0204 9.28516C15.7504 9.28516 9.0304 16.0052 9.0304 24.2752C9.0304 26.9152 9.7204 29.4952 11.0304 31.7652L8.90039 39.5352L16.8504 37.4552C19.0404 38.6452 21.5104 39.2752 24.0104 39.2752C32.2704 39.2752 39.0004 32.5552 39.0004 24.2852C39.0004 20.2852 37.4404 16.5152 34.6104 13.6852C31.7804 10.8552 28.0104 9.29516 24.0004 9.28516H24.0204ZM24.0204 36.7452C21.7804 36.7452 19.5904 36.1452 17.6804 35.0052L17.2304 34.7352L12.5104 35.9752L13.7704 31.3752L13.4704 30.9052C12.2204 28.9252 11.5604 26.6252 11.5704 24.2752C11.5704 17.4052 17.1604 11.8152 24.0404 11.8152C27.3704 11.8152 30.5004 13.1152 32.8504 15.4652C35.2004 17.8152 36.5004 20.9452 36.5004 24.2752C36.5004 31.1452 30.9104 36.7352 24.0404 36.7352L24.0204 36.7452Z" fill="white"/>
</svg>
